<svg id="Line" height="512" viewBox="0 0 64 64" width="512" xmlns="http://www.w3.org/2000/svg"><path d="m29 3h6a14 14 0 0 1 14 14v33a0 0 0 0 1 0 0h-34a0 0 0 0 1 0 0v-33a14 14 0 0 1 14-14z" fill="#3e3d42"/><path d="m20 45h24a8 8 0 0 1 8 8v8a0 0 0 0 1 0 0h-40a0 0 0 0 1 0 0v-8a8 8 0 0 1 8-8z" fill="#b4cdf8"/><path d="m38 45-6 9-6-9 1-12h10z" fill="#ffcbbe"/><path d="m21 15h22a2 2 0 0 1 2 2v11a13 13 0 0 1 -13 13 13 13 0 0 1 -13-13v-11a2 2 0 0 1 2-2z" fill="#ffddce"/><path d="m50 46.31v-32.31c0-5.4-6.92-12-15-12h-6a15.018 15.018 0 0 0 -15 15v29.31a8.955 8.955 0 0 0 -3 6.69v8a1 1 0 0 0 1 1h40a1 1 0 0 0 1-1v-8a8.955 8.955 0 0 0 -3-6.69zm-34-29.31a13.012 13.012 0 0 1 13-13h6c7.42 0 13 6.07 13 10v30.95a8.963 8.963 0 0 0 -4-.95h-5.08l-.31-3.67a13.986 13.986 0 0 0 7.39-12.33v-11a3.009 3.009 0 0 0 -3-3h-22a3.009 3.009 0 0 0 -3 3v11a13.986 13.986 0 0 0 7.39 12.33l-.31 3.67h-5.08a8.963 8.963 0 0 0 -4 .95zm16 23a12.01 12.01 0 0 1 -12-12v-11a1 1 0 0 1 1-1h22a1 1 0 0 1 1 1v11a12.01 12.01 0 0 1 -12 12zm4.97 4.74-4.84 7.26h-.26l-4.84-7.26.29-3.56a13.765 13.765 0 0 0 9.36 0zm14.03 15.26h-38v-7a7.008 7.008 0 0 1 7-7h5.46l5.54 8.3v3.7h2v-3.7l5.54-8.3h5.46a7.008 7.008 0 0 1 7 7z"/><path d="m27 21a1 1 0 0 0 -1 1v2a1 1 0 0 0 2 0v-2a1 1 0 0 0 -1-1z"/><path d="m37 21a1 1 0 0 0 -1 1v2a1 1 0 0 0 2 0v-2a1 1 0 0 0 -1-1z"/></svg>