<?xml version="1.0" encoding="UTF-8"?>
<svg xmlns="http://www.w3.org/2000/svg" id="Line" viewBox="0 0 64 64" width="512" height="512"><path d="M49,29.3V17A14,14,0,0,0,35,3H29A14,14,0,0,0,15,17V28.106a6.978,6.978,0,0,0-.554,9.143A8,8,0,0,0,20,51a7.889,7.889,0,0,0,.788-.04A30.84,30.84,0,0,0,32,53a29.863,29.863,0,0,0,13.39-3L49,47.7c3.12-2.5,5-5.71,5-9.2S52.12,31.8,49,29.3Z" style="fill:#3e3d42"/><path d="M44,45H38L37,33H27L26,45H20a8,8,0,0,0-8,8v8H52V53A8,8,0,0,0,44,45Z" style="fill:#ffcbbe"/><path d="M44.94,28.86A13.2,13.2,0,0,1,32.63,40.99,13,13,0,0,1,19,28V27A12,12,0,0,1,31,15h1.04A15,15,0,0,0,44.94,28.86Z" style="fill:#ffddce"/><path d="M42,53.29V61H22V53.29A18.434,18.434,0,0,0,32,56,18.434,18.434,0,0,0,42,53.29Z" style="fill:#ec455a"/><path d="M22,45V61H12V53a8,8,0,0,1,8-8Z" style="fill:#5bcbfa"/><path d="M52,53v8H42V45h2A8,8,0,0,1,52,53Z" style="fill:#5bcbfa"/><path d="M55,38.5c0-3.525-1.771-6.943-5-9.672V17A15.017,15.017,0,0,0,35,2H29A15.017,15.017,0,0,0,14,17V27.716a7.97,7.97,0,0,0-.832,9.434A8.883,8.883,0,0,0,11,43a9.018,9.018,0,0,0,1.522,5A8.947,8.947,0,0,0,11,53v8a1,1,0,0,0,1,1H52a1,1,0,0,0,1-1V53a8.957,8.957,0,0,0-2.05-5.711A12.242,12.242,0,0,0,55,38.5Zm-39.857-.528a1,1,0,0,0,.1-1.333,5.966,5.966,0,0,1,.47-7.827,1,1,0,0,0,.288-.7V17A13.015,13.015,0,0,1,29,4h6A13.015,13.015,0,0,1,48,17V29.3a1,1,0,0,0,.375.78C51.357,32.47,53,35.46,53,38.5a10.334,10.334,0,0,1-3.488,7.4A8.944,8.944,0,0,0,44,44H38.92l-.309-3.708A14.454,14.454,0,0,0,45.936,28.95a1,1,0,0,0-.86-1.08A14.014,14.014,0,0,1,33.038,14.936a1,1,0,0,0-1-.936H31A13.015,13.015,0,0,0,18,27v1a13.887,13.887,0,0,0,4.337,10.134,14.062,14.062,0,0,0,3.05,2.207L25.08,44H20a8.956,8.956,0,0,0-6.108,2.409A7.009,7.009,0,0,1,13,43,6.908,6.908,0,0,1,15.143,37.972Zm17.44,2.019A12,12,0,0,1,20,28V27A11.013,11.013,0,0,1,31,16h.13a16.035,16.035,0,0,0,12.7,13.686A12.167,12.167,0,0,1,32.583,39.991ZM21,60H13V53a7.008,7.008,0,0,1,7-7h1Zm20,0H23V55a20.261,20.261,0,0,0,9,2,20.261,20.261,0,0,0,9-2Zm0-7.278A17.653,17.653,0,0,1,32,55a17.653,17.653,0,0,1-9-2.278V46h3a.991.991,0,0,0,.983-.917H27l.326-3.891A13.979,13.979,0,0,0,32,42.005q.339,0,.68-.016a13.429,13.429,0,0,0,4-.819L37,45.083A1,1,0,0,0,38,46h3ZM51,53v7H43V46h1A7.008,7.008,0,0,1,51,53Z"/><path d="M27,22a1,1,0,0,0-1,1v2a1,1,0,0,0,2,0V23A1,1,0,0,0,27,22Z"/></svg>
