<svg id="Line" height="512" viewBox="0 0 64 64" width="512" xmlns="http://www.w3.org/2000/svg"><path d="m20 45h24a8 8 0 0 1 8 8v8a0 0 0 0 1 0 0h-40a0 0 0 0 1 0 0v-8a8 8 0 0 1 8-8z" fill="#5bcbfa"/><path d="m38 45-6 11-6-11 1-12h10z" fill="#ffcbbe"/><path d="m42 37h-20a7 7 0 0 1 -7-7v-13a14 14 0 0 1 14-14h6a14 14 0 0 1 14 14v13a7 7 0 0 1 -7 7z" fill="#3e3d42"/><path d="m32 41a13 13 0 0 1 -13-13v-9a2 2 0 0 1 2-2h13l2-4 3 4h4a2 2 0 0 1 2 2v9a13 13 0 0 1 -13 13z" fill="#ffddce"/><path d="m44 44h-5.081l-.311-3.664a14.032 14.032 0 0 0 3.171-2.336h.221a8.009 8.009 0 0 0 8-8v-13a15.017 15.017 0 0 0 -15-15h-6a15.017 15.017 0 0 0 -15 15v13a8.009 8.009 0 0 0 8 8h.221a14.041 14.041 0 0 0 3.168 2.335l-.308 3.665h-5.081a9.01 9.01 0 0 0 -9 9v8a1 1 0 0 0 1 1h40a1 1 0 0 0 1-1v-8a9.01 9.01 0 0 0 -9-9zm-28-14v-13a13.015 13.015 0 0 1 13-13h6a13.015 13.015 0 0 1 13 13v13a6.006 6.006 0 0 1 -4.36 5.767 13.926 13.926 0 0 0 2.36-7.767v-9a3 3 0 0 0 -3-3h-3.5l-2.7-3.6a.984.984 0 0 0 -.89-.4 1 1 0 0 0 -.8.549l-1.728 3.451h-12.382a3 3 0 0 0 -3 3v9a13.926 13.926 0 0 0 2.36 7.767 6.006 6.006 0 0 1 -4.36-5.767zm4-2v-9a1 1 0 0 1 1-1h13a1 1 0 0 0 .9-.553l1.271-2.547 2.029 2.7a1 1 0 0 0 .8.4h4a1 1 0 0 1 1 1v9a12 12 0 0 1 -24 0zm12 14a13.92 13.92 0 0 0 4.676-.82l.3 3.6-4.976 9.132-4.979-9.128.3-3.6a13.9 13.9 0 0 0 4.679.816zm19 18h-38v-7a7.009 7.009 0 0 1 7-7h5.406l5.716 10.479a1 1 0 0 0 1.756 0l5.716-10.479h5.406a7.009 7.009 0 0 1 7 7z"/><path d="m27 21a1 1 0 0 0 -1 1v2a1 1 0 0 0 2 0v-2a1 1 0 0 0 -1-1z"/><path d="m37 25a1 1 0 0 0 1-1v-2a1 1 0 0 0 -2 0v2a1 1 0 0 0 1 1z"/></svg>