<svg id="Line" height="512" viewBox="0 0 64 64" width="512" xmlns="http://www.w3.org/2000/svg"><path d="m54.88 26c0 1.97-1.989 3.652-2.475 5.469-.5 1.88.365 4.328-.588 5.974-.966 1.669-3.528 2.137-4.883 3.491s-1.823 3.918-3.492 4.884c-1.646.952-4.094.085-5.973.587-1.817.486-3.5 2.475-5.469 2.475s-3.652-1.989-5.469-2.475c-1.88-.5-4.328.365-5.974-.588-1.669-.966-2.137-3.528-3.491-4.883s-3.918-1.823-4.884-3.492c-.952-1.646-.085-4.094-.587-5.973-.486-1.817-2.475-3.499-2.475-5.469s1.989-3.652 2.475-5.469c.5-1.88-.365-4.328.588-5.974.966-1.669 3.528-2.137 4.883-3.491s1.823-3.918 3.492-4.884c1.642-.952 4.094-.082 5.973-.582 1.817-.491 3.499-2.48 5.469-2.48s3.652 1.989 5.469 2.48c1.88.5 4.328-.365 5.974.588 1.669.966 2.137 3.528 3.491 4.883s3.918 1.823 4.884 3.492c.952 1.646.085 4.094.587 5.973.486 1.812 2.475 3.494 2.475 5.464z" fill="#3e3d42"/><path d="m20 45h24a8 8 0 0 1 8 8v8a0 0 0 0 1 0 0h-40a0 0 0 0 1 0 0v-8a8 8 0 0 1 8-8z" fill="#ffddce"/><path d="m20 45h24v16h-24z" fill="#eb9a43"/><g fill="#ffcbbe"><path d="m32 50a5.658 5.658 0 0 1 -5.648-5.99l.648-11.01h10l.648 11.01a5.658 5.658 0 0 1 -5.648 5.99z"/><path d="m47 21h2a0 0 0 0 1 0 0v7a0 0 0 0 1 0 0h-2a2 2 0 0 1 -2-2v-3a2 2 0 0 1 2-2z" transform="matrix(-1 0 0 -1 94 49)"/><path d="m17 21h2a0 0 0 0 1 0 0v7a0 0 0 0 1 0 0h-2a2 2 0 0 1 -2-2v-3a2 2 0 0 1 2-2z"/></g><path d="m44.92 18h-4.92a5.99 5.99 0 0 1 -5.91-5h-9.09a6 6 0 0 0 -6 6v9a13 13 0 0 0 26 0v-9a6.634 6.634 0 0 0 -.08-1z" fill="#ffddce"/><path d="m54.411 22.264a7.833 7.833 0 0 1 -1.036-2 8.172 8.172 0 0 1 -.112-2.34 6.939 6.939 0 0 0 -.578-3.871 7.146 7.146 0 0 0 -3.118-2.468 8.2 8.2 0 0 1 -1.927-1.224 8.167 8.167 0 0 1 -1.23-1.933 7.157 7.157 0 0 0 -2.469-3.119 6.943 6.943 0 0 0 -3.869-.577 8.231 8.231 0 0 1 -2.347-.114 7.879 7.879 0 0 1 -1.99-1.034 7.142 7.142 0 0 0 -3.735-1.464 7.142 7.142 0 0 0 -3.735 1.469 7.874 7.874 0 0 1 -2 1.036 8.13 8.13 0 0 1 -2.34.112 6.939 6.939 0 0 0 -3.87.578 7.153 7.153 0 0 0 -2.465 3.118 8.15 8.15 0 0 1 -1.225 1.927 8.159 8.159 0 0 1 -1.932 1.23 7.141 7.141 0 0 0 -3.118 2.469 6.934 6.934 0 0 0 -.578 3.87 8.15 8.15 0 0 1 -.114 2.346 7.826 7.826 0 0 1 -1.034 1.989 7.149 7.149 0 0 0 -1.469 3.736 7.149 7.149 0 0 0 1.469 3.736 7.833 7.833 0 0 1 1.036 2 8.172 8.172 0 0 1 .112 2.34 6.939 6.939 0 0 0 .578 3.871 7.146 7.146 0 0 0 3.118 2.468 8.173 8.173 0 0 1 1.926 1.224 8.161 8.161 0 0 1 1.234 1.941c.116.222.241.445.363.668a9.009 9.009 0 0 0 -6.956 8.752v8a1 1 0 0 0 1 1h40a1 1 0 0 0 1-1v-8a9.009 9.009 0 0 0 -6.956-8.757c.122-.223.247-.446.363-.668a8.175 8.175 0 0 1 1.228-1.935 8.159 8.159 0 0 1 1.932-1.23 7.141 7.141 0 0 0 3.118-2.469 6.934 6.934 0 0 0 .578-3.87 8.15 8.15 0 0 1 .114-2.346 7.826 7.826 0 0 1 1.034-1.989 7.149 7.149 0 0 0 1.469-3.736 7.149 7.149 0 0 0 -1.469-3.736zm-41.411 30.736a7 7 0 0 1 6-6.92v13.92h-6zm8 7v-14h4.546a6.665 6.665 0 0 0 12.907 0h4.547v14zm-1-39v-2a5.021 5.021 0 0 1 2-4 4.965 4.965 0 0 1 3-1h8.294a6.962 6.962 0 0 0 6.706 5h4v9a12 12 0 0 1 -24 0zm26 1h1a1 1 0 0 1 1 1v3a1 1 0 0 1 -1 1h-1zm-14 20a13.928 13.928 0 0 0 4.483-.749l.168 2.817a4.66 4.66 0 1 1 -9.3 0l.169-2.819a13.9 13.9 0 0 0 4.48.751zm19 11v7h-6v-13.92a7 7 0 0 1 6 6.92zm1.723-24.337a9.355 9.355 0 0 0 -1.278 2.545 9.737 9.737 0 0 0 -.181 2.943 5.506 5.506 0 0 1 -.309 2.787 5.591 5.591 0 0 1 -2.312 1.7 9.655 9.655 0 0 0 -2.423 1.589 9.743 9.743 0 0 0 -1.587 2.425 13.94 13.94 0 0 1 -.783 1.348h-5.2c0-.017 0-.033 0-.05l-.211-3.531a14.006 14.006 0 0 0 7.51-11.419h1.051a3 3 0 0 0 3-3v-3a3 3 0 0 0 -3-3h-1v-1a7.627 7.627 0 0 0 -.091-1.15 1 1 0 0 0 -.989-.85h-4.92a4.969 4.969 0 0 1 -4.924-4.163 1 1 0 0 0 -.986-.837h-9.09a6.946 6.946 0 0 0 -4.2 1.4 7.028 7.028 0 0 0 -2.8 5.6v1h-1a3 3 0 0 0 -3 3v3a3 3 0 0 0 3 3h1.051a14.006 14.006 0 0 0 7.512 11.419l-.211 3.532v.049h-5.2a13.94 13.94 0 0 1 -.783-1.349 9.741 9.741 0 0 0 -1.593-2.431 9.656 9.656 0 0 0 -2.417-1.583 5.6 5.6 0 0 1 -2.312-1.7 5.512 5.512 0 0 1 -.309-2.788 9.741 9.741 0 0 0 -.179-2.936 9.359 9.359 0 0 0 -1.28-2.552 5.575 5.575 0 0 1 -1.159-2.661 5.575 5.575 0 0 1 1.157-2.663 9.355 9.355 0 0 0 1.278-2.545 9.737 9.737 0 0 0 .181-2.943 5.506 5.506 0 0 1 .309-2.787 5.591 5.591 0 0 1 2.312-1.7 9.655 9.655 0 0 0 2.423-1.589 9.685 9.685 0 0 0 1.584-2.418 5.591 5.591 0 0 1 1.7-2.311 5.491 5.491 0 0 1 2.787-.31 9.679 9.679 0 0 0 2.937-.178 9.382 9.382 0 0 0 2.553-1.281 5.579 5.579 0 0 1 2.659-1.155 5.579 5.579 0 0 1 2.662 1.156 9.379 9.379 0 0 0 2.546 1.279 9.709 9.709 0 0 0 2.944.18 5.508 5.508 0 0 1 2.785.309 5.587 5.587 0 0 1 1.7 2.312 9.683 9.683 0 0 0 1.59 2.424 9.656 9.656 0 0 0 2.417 1.583 5.6 5.6 0 0 1 2.312 1.7 5.512 5.512 0 0 1 .309 2.788 9.741 9.741 0 0 0 .179 2.936 9.359 9.359 0 0 0 1.28 2.552 5.575 5.575 0 0 1 1.156 2.661 5.575 5.575 0 0 1 -1.157 2.663zm-34.723-1.663h-1a1 1 0 0 1 -1-1v-3a1 1 0 0 1 1-1h1z"/><path d="m27 25a1 1 0 0 0 1-1v-2a1 1 0 0 0 -2 0v2a1 1 0 0 0 1 1z"/><path d="m37 25a1 1 0 0 0 1-1v-2a1 1 0 0 0 -2 0v2a1 1 0 0 0 1 1z"/></svg>