<?xml version="1.0" encoding="UTF-8"?>
<svg xmlns="http://www.w3.org/2000/svg" id="Line" viewBox="0 0 64 64" width="512" height="512"><path d="M43,27l10,6V13a6,6,0,0,0-6-6H43Z" style="fill:#e28086"/><path d="M21,26,11,32V12a6,6,0,0,1,6-6h4Z" style="fill:#e28086"/><path d="M49,40l-8-6H23l-8,7V13A10,10,0,0,1,25,3H39A10,10,0,0,1,49,13Z" style="fill:#f3b1b2"/><path d="M20,45H44a8,8,0,0,1,8,8v8a0,0,0,0,1,0,0H12a0,0,0,0,1,0,0V53A8,8,0,0,1,20,45Z" style="fill:#f09898"/><polygon points="33 61 31 61 22 45 42 45 33 61" style="fill:#fff"/><path d="M32,50h0a5.658,5.658,0,0,1-5.648-5.99L27,33H37l.648,11.01A5.658,5.658,0,0,1,32,50Z" style="fill:#ffcbbe"/><path d="M45,21v7a13,13,0,0,1-26,0V18.65A22.468,22.468,0,0,0,23,19c5.01,0,9.4-1.6,11.87-4H36a6,6,0,0,0,6,6Z" style="fill:#ffddce"/><path d="M47.48,6.02A10.9,10.9,0,0,0,39,2H25a10.982,10.982,0,0,0-7.53,3H17a7.008,7.008,0,0,0-7,7V32a.992.992,0,0,0,.51.87A.947.947,0,0,0,11,33a1,1,0,0,0,.51-.14L14,31.37V41a1,1,0,0,0,.59.91.99.99,0,0,0,1.07-.16l5.55-4.85a14.006,14.006,0,0,0,4.35,3.52l-.21,3.53V44H20a9.014,9.014,0,0,0-9,9v8a1,1,0,0,0,1,1H52a1,1,0,0,0,1-1V53a9.014,9.014,0,0,0-9-9H38.65v-.05l-.21-3.53a14.056,14.056,0,0,0,4.5-3.71L48.4,40.8a1,1,0,0,0,1.05.09A.977.977,0,0,0,50,40V32.37l2.49,1.49A1,1,0,0,0,53,34a.947.947,0,0,0,.49-.13A.992.992,0,0,0,54,33V13A7.012,7.012,0,0,0,47.48,6.02ZM14,13V29.03l-2,1.2V12a5,5,0,0,1,3.67-4.8A10.948,10.948,0,0,0,14,13ZM13,60V53a7.008,7.008,0,0,1,7-7h1.42l7.87,14ZM42.58,46H44a7.008,7.008,0,0,1,7,7v7H34.71Zm-4.13,0h1.84L32.42,60h-.84L23.71,46h1.84a6.662,6.662,0,0,0,12.9,0Zm-11.1-1.93.17-2.82a13.755,13.755,0,0,0,8.96,0l.17,2.82a4.658,4.658,0,1,1-9.3,0ZM44,28a12,12,0,0,1-24,0V19.81A22.8,22.8,0,0,0,23,20c4.83,0,9.29-1.43,12.09-3.85A7.019,7.019,0,0,0,42,22h2Zm4,10-3.93-2.95A13.85,13.85,0,0,0,46,28V21a1,1,0,0,0-1-1H42a5,5,0,0,1-5-5,1,1,0,0,0-1-1H34.87a1.017,1.017,0,0,0-.7.28C31.81,16.58,27.53,18,23,18a21.633,21.633,0,0,1-3.82-.33.977.977,0,0,0-.82.21.992.992,0,0,0-.36.77V28a13.922,13.922,0,0,0,2.05,7.26L16,38.8V13a9.014,9.014,0,0,1,9-9H39a8.891,8.891,0,0,1,7.19,3.6.647.647,0,0,0,.08.09A8.966,8.966,0,0,1,48,13Zm4-6.77-2-1.2V13a11.038,11.038,0,0,0-1-4.58A5,5,0,0,1,52,13Z"/><path d="M27,22a1,1,0,0,0-1,1v2a1,1,0,0,0,2,0V23A1,1,0,0,0,27,22Z"/><path d="M37,22a1,1,0,0,0-1,1v2a1,1,0,0,0,2,0V23A1,1,0,0,0,37,22Z"/></svg>
