<svg id="Line" height="512" viewBox="0 0 64 64" width="512" xmlns="http://www.w3.org/2000/svg"><circle cx="21" cy="10" fill="#2d2d30" r="7"/><path d="m18.441 41.791-5.868 4.109a1 1 0 0 1 -1.573-.821v-27.079a6 6 0 0 1 6-6h4v24.876a6 6 0 0 1 -2.559 4.915z" fill="#3e3d42"/><path d="m45 29h-30v-8a16 16 0 0 1 16-16h2a16 16 0 0 1 16 16v4a4 4 0 0 1 -4 4z" fill="#57565c"/><path d="m20 48h24a8 8 0 0 1 8 8v5a0 0 0 0 1 0 0h-40a0 0 0 0 1 0 0v-5a8 8 0 0 1 8-8z" fill="#dd636e"/><g fill="#ffcbbe"><path d="m32 53a5.658 5.658 0 0 1 -5.648-5.99l.648-11.01h10l.648 11.01a5.658 5.658 0 0 1 -5.648 5.99z"/><path d="m17 24h2a0 0 0 0 1 0 0v7a0 0 0 0 1 0 0h-2a2 2 0 0 1 -2-2v-3a2 2 0 0 1 2-2z"/><path d="m43 31h4a2 2 0 0 0 2-2v-3a2 2 0 0 0 -2-2h-4z"/></g><path d="m32 44a13 13 0 0 1 -13-13v-7l10-12v9h13l3 3v7a13 13 0 0 1 -13 13z" fill="#ffddce"/><path d="m44 47h-5.353c0-.017 0-.033 0-.05l-.211-3.531a14.006 14.006 0 0 0 7.513-11.419h1.051a3 3 0 0 0 3-3v-3a2.929 2.929 0 0 0 -.043-.421 4.376 4.376 0 0 0 .043-.579v-4a17.019 17.019 0 0 0 -17-17h-2a16.938 16.938 0 0 0 -4.171.539 7.925 7.925 0 0 0 -5.829-2.539 7.983 7.983 0 0 0 -7.72 10.079 7.022 7.022 0 0 0 -3.28 5.921v27.08a2 2 0 0 0 3.144 1.64l5.868-4.11a7 7 0 0 0 2.261-2.631 14.074 14.074 0 0 0 4.29 3.44l-.211 3.533v.048h-5.352a9.01 9.01 0 0 0 -9 9v5a1 1 0 0 0 1 1h40a1 1 0 0 0 1-1v-5a9.01 9.01 0 0 0 -9-9zm4-18a1 1 0 0 1 -1 1h-1v-4a1 1 0 0 0 -.143-.515l-.291-.485h1.434a1 1 0 0 1 1 1zm-15-23a15.017 15.017 0 0 1 15 15v2.184a2.966 2.966 0 0 0 -1-.184h-2.634l-1.509-2.515a1 1 0 0 0 -.857-.485h-12v-8a1 1 0 0 0 -1.793-.609l-8.93 11.609h-2.277a2.966 2.966 0 0 0 -1 .184v-2.184a15.017 15.017 0 0 1 15-15zm-15 24h-1a1 1 0 0 1 -1-1v-3a1 1 0 0 1 1-1h1zm3-26a5.951 5.951 0 0 1 3.65 1.242 17.085 17.085 0 0 0 -8.73 7.941 5.929 5.929 0 0 1 -.92-3.183 6.006 6.006 0 0 1 6-6zm-3.133 36.971-5.867 4.109v-27.08a5.01 5.01 0 0 1 2.058-4.027 7.966 7.966 0 0 0 .951 1.314 16.888 16.888 0 0 0 -1.009 5.713v8a3 3 0 0 0 3 3h1.051a13.876 13.876 0 0 0 1.811 5.947 5 5 0 0 1 -1.995 3.024zm2.133-9.971v-5.66l8-10.4v6.06a1 1 0 0 0 1 1h12.434l2.566 4.277v4.723a12 12 0 0 1 -24 0zm12 14a13.907 13.907 0 0 0 4.484-.75l.168 2.817a4.555 4.555 0 0 1 -.025.82 4.659 4.659 0 0 1 -9.255-.011 4.478 4.478 0 0 1 -.024-.807l.168-2.819a13.907 13.907 0 0 0 4.484.75zm19 15h-38v-4a7.009 7.009 0 0 1 7-7h5.556a6.653 6.653 0 0 0 12.889 0h5.555a7.009 7.009 0 0 1 7 7z"/><path d="m27 24a1 1 0 0 0 -1 1v2a1 1 0 0 0 2 0v-2a1 1 0 0 0 -1-1z"/><path d="m37 28a1 1 0 0 0 1-1v-2a1 1 0 0 0 -2 0v2a1 1 0 0 0 1 1z"/></svg>