<?xml version="1.0" encoding="UTF-8"?>
<svg xmlns="http://www.w3.org/2000/svg" id="Line" viewBox="0 0 64 64" width="512" height="512"><path d="M29,3h6A14,14,0,0,1,49,17V50a0,0,0,0,1,0,0H15a0,0,0,0,1,0,0V17A14,14,0,0,1,29,3Z" style="fill:#3e3d42"/><path d="M20,44H44a8,8,0,0,1,8,8v8a0,0,0,0,1,0,0H12a0,0,0,0,1,0,0V52A8,8,0,0,1,20,44Z" style="fill:#5bcbfa"/><path d="M32,50h0a5.658,5.658,0,0,1-5.648-5.99L27,33H37l.648,11.01A5.658,5.658,0,0,1,32,50Z" style="fill:#ffcbbe"/><path d="M37,36.985v18.03a.985.985,0,0,0,.985.985h2.03A8.985,8.985,0,0,0,49,47.015V36.985A.985.985,0,0,0,48.015,36H37.985A.985.985,0,0,0,37,36.985Z" style="fill:#3e3d42"/><path d="M27,37.27V51a3.992,3.992,0,0,0,3,3.87V55H27a8,8,0,0,1-8-8V37Z" style="fill:#3e3d42"/><path d="M23,20.11,21.236,34.387a3.96,3.96,0,0,0,1.322,3.5A12.95,12.95,0,0,0,31.269,41,13.265,13.265,0,0,0,44,27.6V17a2.006,2.006,0,0,0-2-2l-5-.9V8l-4,6-8,.55Z" style="fill:#ffddce"/><path d="M50,46.32V17A15.018,15.018,0,0,0,35,2H29A15.018,15.018,0,0,0,14,17V46.31A8.931,8.931,0,0,0,11,53v8a1,1,0,0,0,1,1H52a1,1,0,0,0,1-1V53A8.894,8.894,0,0,0,50,46.32ZM16,17A13.012,13.012,0,0,1,29,4h6A13.012,13.012,0,0,1,48,17V47a7.008,7.008,0,0,1-7,7H39V39.39A14.57,14.57,0,0,0,45,27.6V17a3,3,0,0,0-2.9-3L38,13.26V8a1.008,1.008,0,0,0-.71-.96.992.992,0,0,0-1.12.41l-3.73,5.59-7.51.51a1.009,1.009,0,0,0-.87.66l-2,5.56a.785.785,0,0,0-.05.22L20.24,34.26a4.953,4.953,0,0,0,1.67,4.38A13.933,13.933,0,0,0,26,41.07V51a5.007,5.007,0,0,0,1,3,7.008,7.008,0,0,1-7-7V41H18v3.24a8.519,8.519,0,0,0-2,.71ZM31.25,40a11.836,11.836,0,0,1-8.04-2.88,2.92,2.92,0,0,1-.98-2.61l1.75-14.17,1.74-4.84,7.35-.5a.988.988,0,0,0,.76-.45L36,11.3v2.8a1,1,0,0,0,.82.98l5,.9A.554.554,0,0,0,42,16a1,1,0,0,1,1,1V27.6A12.275,12.275,0,0,1,31.25,40Zm5.75.58v3.65a.96.96,0,0,0-.37.66A4.653,4.653,0,0,1,28,46.71V41.66A13.661,13.661,0,0,0,31,42h.29A13.454,13.454,0,0,0,37,40.58ZM51,60H13V53a7,7,0,0,1,5-6.71V47a9.014,9.014,0,0,0,9,9h3a1,1,0,0,0,1-1v-.13a1,1,0,0,0-.75-.97A2.985,2.985,0,0,1,28,51V49.66a6.652,6.652,0,0,0,9-.92V55a1,1,0,0,0,1,1h3a9.016,9.016,0,0,0,8.76-6.96A6.864,6.864,0,0,1,51,53Z"/><path d="M27,21a1,1,0,0,0-1,1v2a1,1,0,0,0,2,0V22A1,1,0,0,0,27,21Z"/><path d="M36,24a1,1,0,0,0,2,0V22a1,1,0,0,0-2,0Z"/></svg>
