<svg id="Line" height="512" viewBox="0 0 64 64" width="512" xmlns="http://www.w3.org/2000/svg"><path d="m29 3h6a14 14 0 0 1 14 14v33a0 0 0 0 1 0 0h-34a0 0 0 0 1 0 0v-33a14 14 0 0 1 14-14z" fill="#3e3d42"/><path d="m20 45h24a8 8 0 0 1 8 8v8a0 0 0 0 1 0 0h-40a0 0 0 0 1 0 0v-8a8 8 0 0 1 8-8z" fill="#5bcbfa"/><path d="m32 50a5.658 5.658 0 0 1 -5.648-5.99l.648-11.01h10l.648 11.01a5.658 5.658 0 0 1 -5.648 5.99z" fill="#ffcbbe"/><path d="m15 35h12v26h-12z" fill="#3e3d42"/><path d="m49 35v24.985a.015.015 0 0 1 -.015.015h-11.97a.015.015 0 0 1 -.015-.015v-24.985z" fill="#3e3d42"/><path d="m45 17v11a13 13 0 0 1 -26 0v-6.03a18.046 18.046 0 0 0 6.73-4.24 17.84 17.84 0 0 0 3.63-5.23 11.12 11.12 0 0 1 2.29.23l11.35 2.27a2.006 2.006 0 0 1 2 2z" fill="#ffddce"/><path d="" fill="#5bcbfa"/><path d="m50 46.31v-29.31a15.018 15.018 0 0 0 -15-15h-6a15.018 15.018 0 0 0 -15 15v29.31a8.931 8.931 0 0 0 -3 6.69v8a1 1 0 0 0 1 1h40a1 1 0 0 0 1-1v-8a8.931 8.931 0 0 0 -3-6.69zm-36 13.69h-1v-7a6.92 6.92 0 0 1 1-3.6zm22 0h-8v-10.34a6.64 6.64 0 0 0 8 0zm0-13.29a4.638 4.638 0 0 1 -8 0v-5.3a13.854 13.854 0 0 0 8 0zm-4-6.71a12.01 12.01 0 0 1 -12-12v-5.34a19.288 19.288 0 0 0 6.44-4.22 18.771 18.771 0 0 0 3.54-4.92 9.835 9.835 0 0 1 1.47.19l11.35 2.27a1.355 1.355 0 0 0 .2.02 1 1 0 0 1 1 1v11a12.01 12.01 0 0 1 -12 12zm16 20h-10v-19.37a14 14 0 0 0 8-12.63v-11a3.007 3.007 0 0 0 -2.89-3l-11.25-2.25a12.046 12.046 0 0 0 -2.5-.25 1 1 0 0 0 -.91.59 16.754 16.754 0 0 1 -3.43 4.93 17.216 17.216 0 0 1 -6.35 4.01.992.992 0 0 0 -.67.94v6.03a14 14 0 0 0 8 12.63v19.37h-10v-43a13.012 13.012 0 0 1 13-13h6a13.012 13.012 0 0 1 13 13zm3 0h-1v-10.6a6.92 6.92 0 0 1 1 3.6z"/><path d="m27 21a1 1 0 0 0 -1 1v2a1 1 0 0 0 2 0v-2a1 1 0 0 0 -1-1z"/><path d="m37 21a1 1 0 0 0 -1 1v2a1 1 0 0 0 2 0v-2a1 1 0 0 0 -1-1z"/><circle cx="32" cy="54" r="1"/><circle cx="32" cy="58" r="1"/></svg>