<svg id="Line" height="512" viewBox="0 0 64 64" width="512" xmlns="http://www.w3.org/2000/svg"><path d="m44 46h-7v-8h-10v8h-7a8 8 0 0 0 -8 8v8h40v-8a8 8 0 0 0 -8-8z" fill="#f7d880"/><path d="m27 36h10v8h-10z" fill="#ffcbbe"/><path d="m50.656 40h-37.312a1 1 0 0 1 -.958-1.287l2.445-8.151a4 4 0 0 0 .169-1.149v-12.413a14 14 0 0 1 14-14h6a14 14 0 0 1 14 14v12.413a4 4 0 0 0 .169 1.149l2.445 8.151a1 1 0 0 1 -.958 1.287z" fill="#3e3d42"/><path d="m45 17v11a13 13 0 0 1 -26 0v-6.03a18.046 18.046 0 0 0 6.73-4.24 17.84 17.84 0 0 0 3.63-5.23 11.12 11.12 0 0 1 2.29.23l11.35 2.27a2.006 2.006 0 0 1 2 2z" fill="#ffddce"/><path d="m44 45h-6v-4h12.66a1.994 1.994 0 0 0 1.908-2.577l-2.44-8.15a3.012 3.012 0 0 1 -.128-.863v-12.41a15.017 15.017 0 0 0 -15-15h-6a15.017 15.017 0 0 0 -15 15v12.41a3.011 3.011 0 0 1 -.128.862l-2.436 8.139a1.977 1.977 0 0 0 .3 1.775 2.006 2.006 0 0 0 1.604.814h12.66v4h-6a9.01 9.01 0 0 0 -9 9v8a1 1 0 0 0 1 1h40a1 1 0 0 0 1-1v-8a9.01 9.01 0 0 0 -9-9zm-24-17v-5.337a19.2 19.2 0 0 0 6.437-4.225 18.8 18.8 0 0 0 3.546-4.92 9.888 9.888 0 0 1 1.471.193l11.346 2.269a1 1 0 0 0 .2.02 1 1 0 0 1 1 1v11a12 12 0 0 1 -24 0zm-4.211 2.845a5.041 5.041 0 0 0 .211-1.435v-12.41a13.015 13.015 0 0 1 13-13h6a13.015 13.015 0 0 1 13 13v12.41a5.006 5.006 0 0 0 .212 1.437l2.448 8.153h-10.028a13.971 13.971 0 0 0 5.368-11v-11a3 3 0 0 0 -2.892-3l-11.252-2.25a12.143 12.143 0 0 0 -2.5-.252 1 1 0 0 0 -.911.587 16.748 16.748 0 0 1 -3.424 4.934 17.154 17.154 0 0 1 -6.357 4 1 1 0 0 0 -.664.951v6.03a13.972 13.972 0 0 0 5.367 11h-10.019zm12.211 10.565a13.854 13.854 0 0 0 8 0v1.59h-8zm23 19.59h-38v-7a7.008 7.008 0 0 1 7-7h7a1 1 0 0 0 1-1v-1h1v2h2v-2h2v2h2v-2h1v1a1 1 0 0 0 1 1h7a7.009 7.009 0 0 1 7 7z"/><path d="m27 21a1 1 0 0 0 -1 1v2a1 1 0 0 0 2 0v-2a1 1 0 0 0 -1-1z"/><path d="m37 25a1 1 0 0 0 1-1v-2a1 1 0 0 0 -2 0v2a1 1 0 0 0 1 1z"/></svg>