<?xml version="1.0" encoding="UTF-8"?>
<svg xmlns="http://www.w3.org/2000/svg" id="Line" viewBox="0 0 64 64" width="512" height="512"><path d="M50,53H14l2-35h0A15,15,0,0,1,31,3h2A15,15,0,0,1,48,18h0Z" style="fill:#3e3d42"/><path d="M20,45H44a8,8,0,0,1,8,8v8a0,0,0,0,1,0,0H12a0,0,0,0,1,0,0V53A8,8,0,0,1,20,45Z" style="fill:#5bcbfa"/><path d="M42,45a10,10,0,0,1-20,0Z" style="fill:#fff"/><path d="M32,50h0a5.658,5.658,0,0,1-5.648-5.99L27,33H37l.648,11.01A5.658,5.658,0,0,1,32,50Z" style="fill:#ffcbbe"/><path d="M19,21a2,2,0,0,1,2-2h3a8.989,8.989,0,0,0,8-4.89A8.989,8.989,0,0,0,40,19h3a2,2,0,0,1,2,2v6.633A13.242,13.242,0,0,1,32.628,40.985,13,13,0,0,1,19,28Z" style="fill:#ffddce"/><path d="M50.658,46.966,49,18A16.019,16.019,0,0,0,33,2H31A16.018,16.018,0,0,0,15,17.943l-1.66,29.023A8.952,8.952,0,0,0,11,53v8a1,1,0,0,0,1,1H52a1,1,0,0,0,1-1V53A8.952,8.952,0,0,0,50.658,46.966ZM21.109,8.106A13.864,13.864,0,0,1,31,4h2A14.031,14.031,0,0,1,47,18.057l1.556,27.2A8.932,8.932,0,0,0,44,44H38.649c0-.017,0-.033,0-.05l-.211-3.557A14.384,14.384,0,0,0,46,27.633V21a3,3,0,0,0-3-3H40a7.966,7.966,0,0,1-7.11-4.347,1.043,1.043,0,0,0-1.78,0A7.966,7.966,0,0,1,24,18H21a3,3,0,0,0-3,3v7a13.876,13.876,0,0,0,4.337,10.13,14.055,14.055,0,0,0,3.225,2.309l-.21,3.512c0,.017,0,.033,0,.049H20a8.932,8.932,0,0,0-4.558,1.253L17,18A13.866,13.866,0,0,1,21.109,8.106ZM25.546,46a6.666,6.666,0,0,0,12.908,0h2.49a9,9,0,0,1-17.888,0Zm7.035-6.014A12,12,0,0,1,20,28V21a1,1,0,0,1,1-1h3a9.948,9.948,0,0,0,8-4.006A9.948,9.948,0,0,0,40,20h3a1,1,0,0,1,1,1v6.633A12.171,12.171,0,0,1,32.581,39.986ZM31.993,42q.341,0,.682-.016a13.615,13.615,0,0,0,3.81-.736l.167,2.82a4.66,4.66,0,1,1-9.3,0l.168-2.813A13.976,13.976,0,0,0,31.993,42ZM51,60H13V53a7.009,7.009,0,0,1,7-7h1.051a10.994,10.994,0,0,0,21.9,0H44a7.009,7.009,0,0,1,7,7Z"/><path d="M27,21a1,1,0,0,0-1,1v2a1,1,0,0,0,2,0V22A1,1,0,0,0,27,21Z"/><path d="M37,21a1,1,0,0,0-1,1v2a1,1,0,0,0,2,0V22A1,1,0,0,0,37,21Z"/></svg>
