<svg id="Line" height="512" viewBox="0 0 64 64" width="512" xmlns="http://www.w3.org/2000/svg"><path d="m12 54h40v7h-40z" fill="#3e3d42"/><path d="m26.35 44.01a5.408 5.408 0 0 0 .03.99h-6.38a7.991 7.991 0 0 0 -7.31 4.75l-.58-.81a5.986 5.986 0 0 1 -.49-6.18l2.75-5.49a6.108 6.108 0 0 0 .63-2.69v-10.58a2.006 2.006 0 0 0 2 2h2v2a13.014 13.014 0 0 0 7.6 11.83z" fill="#f6cc4f"/><g fill="#ffcbbe"><path d="m47.86 46a7.964 7.964 0 0 1 4.14 7v1h-3.75l-.16-.65a6.762 6.762 0 0 1 -.09-1.35v-5.51z"/><path d="m19 19v7h-2a2.006 2.006 0 0 1 -2-2v-3a2.006 2.006 0 0 1 2-2z"/><path d="m44 45h-6v-9h-11.11a1.95 1.95 0 0 0 -.29-.17v.17h-.6v9h-6a8 8 0 0 0 -8 8v1h40v-1a8 8 0 0 0 -8-8z"/></g><path d="m47.86 46 .14.49v5.51a6.762 6.762 0 0 0 .09 1.35l.16.65.75 3h-3a8.01 8.01 0 0 1 -8-8s1.53-5.65 2.7-12.27c1.11-6.29 1.91-13.44.78-17.45a9.883 9.883 0 0 0 -4.5-3.89l-7.71-3.34a.959.959 0 0 0 -.53.05s-9.74 3.8-9.74 4.9v2h-2a2.006 2.006 0 0 0 -2 2v-4a14 14 0 0 1 14-14h6a14 14 0 0 1 14 14v17.73a13.935 13.935 0 0 1 -.72 4.43l-.89 2.67a4.037 4.037 0 0 0 -.05 2.36z" fill="#f6cc4f"/><path d="m40.7 36.73a10.988 10.988 0 0 1 -8.7 4.27 12.987 12.987 0 0 1 -13-13v-11c0-1.1 9.74-4.9 9.74-4.9a.959.959 0 0 1 .53-.05l7.71 3.34a9.883 9.883 0 0 1 4.5 3.89c1.13 4.01.33 11.16-.78 17.45z" fill="#ffddce"/><path d="m27 25a1 1 0 0 0 1-1v-2a1 1 0 0 0 -2 0v2a1 1 0 0 0 1 1z"/><path d="m37 25a1 1 0 0 0 1-1v-2a1 1 0 0 0 -2 0v2a1 1 0 0 0 1 1z"/><path d="m27 25a1 1 0 0 0 1-1v-2a1 1 0 0 0 -2 0v2a1 1 0 0 0 1 1z"/><path d="m37 25a1 1 0 0 0 1-1v-2a1 1 0 0 0 -2 0v2a1 1 0 0 0 1 1z"/><path d="m48.72 45.36-.42-1.44a3.048 3.048 0 0 1 .04-1.77l.89-2.67a15 15 0 0 0 .77-4.75v-17.73a15.018 15.018 0 0 0 -15-15h-6a15.018 15.018 0 0 0 -15 15v17.58a5.177 5.177 0 0 1 -.52 2.24l-2.75 5.49a6.968 6.968 0 0 0 .57 7.21l.26.38a9.046 9.046 0 0 0 -.56 3.1v8a1 1 0 0 0 1 1h40a1 1 0 0 0 1-1v-8a8.976 8.976 0 0 0 -4.28-7.64zm-32.72-28.36a13.012 13.012 0 0 1 13-13h6a13.012 13.012 0 0 1 13 13v17.73a12.69 12.69 0 0 1 -.67 4.11l-.89 2.68a5.025 5.025 0 0 0 -.06 2.95l.62 2.16v5.33a7.065 7.065 0 0 0 .12 1.63l.6 2.41h-1.72a7.007 7.007 0 0 1 -7-6.87c.24-.9 1.62-6.2 2.69-12.23 1.48-8.4 1.73-14.42.75-17.89a.849.849 0 0 0 -.11-.26 10.848 10.848 0 0 0 -4.95-4.28l-7.71-3.34a2.016 2.016 0 0 0 -.23-.07 1.975 1.975 0 0 0 -1.06.11c-10.38 4.05-10.38 5.16-10.38 5.83v1h-1a3 3 0 0 0 -1 .18zm21 29h.73c-.41 1.68-.69 2.71-.7 2.74a1.09 1.09 0 0 0 -.03.26 8.963 8.963 0 0 0 .95 4h-15.95v-7h5a1 1 0 0 0 1-1v-3.59a13.922 13.922 0 0 0 4 .59 12.174 12.174 0 0 0 4-.68v3.68a1 1 0 0 0 1 1zm-5-6a12.01 12.01 0 0 1 -12-12v-10.72c.91-.79 5.28-2.76 9.07-4.23l7.51 3.26a8.828 8.828 0 0 1 3.97 3.38c.84 3.13.56 8.87-.79 16.62a9.927 9.927 0 0 1 -7.76 3.69zm6 .39a10.363 10.363 0 0 0 1.13-.73c-.32 1.59-.64 3.06-.93 4.34h-.2zm-22-19.39a1 1 0 0 1 1-1h1v5h-1a1 1 0 0 1 -1-1zm-3.49 22.21 2.76-5.5a7.181 7.181 0 0 0 .73-3.13v-7.76a3 3 0 0 0 1 .18h1v1a14 14 0 0 0 8 12.63v3.37h-6a9.017 9.017 0 0 0 -7.38 3.87 4.96 4.96 0 0 1 -.11-4.66zm7.49 2.79v7h-7a6.994 6.994 0 0 1 7-7zm31 14h-38v-5h26.31a8.955 8.955 0 0 0 6.69 3h3a1 1 0 0 0 .79-.38 1.022 1.022 0 0 0 .18-.86l-.44-1.76h1.47zm-1.95-7a5.981 5.981 0 0 1 -.06-.88.487.487 0 0 0 .01-.12v-3.89a6.991 6.991 0 0 1 2 4.89z"/></svg>