<svg id="Line" height="512" viewBox="0 0 64 64" width="512" xmlns="http://www.w3.org/2000/svg"><path d="m20 45h24a8 8 0 0 1 8 8v8a0 0 0 0 1 0 0h-40a0 0 0 0 1 0 0v-8a8 8 0 0 1 8-8z" fill="#ffcbbe"/><path d="m20 45h24v16h-24z" fill="#dd636e"/><path d="m32 50a5.658 5.658 0 0 1 -5.648-5.99l.648-11.01h10l.648 11.01a5.658 5.658 0 0 1 -5.648 5.99z" fill="#ffcbbe"/><path d="m48 23h-32v-15l-2-5 8 3 5-3 5 3 5-3 5 3 2.658.443a4 4 0 0 1 3.342 3.946z" fill="#3e3d42"/><path d="m17 19h2a0 0 0 0 1 0 0v7a0 0 0 0 1 0 0h-2a2 2 0 0 1 -2-2v-3a2 2 0 0 1 2-2z" fill="#ffcbbe"/><path d="m47 19h2a0 0 0 0 1 0 0v7a0 0 0 0 1 0 0h-2a2 2 0 0 1 -2-2v-3a2 2 0 0 1 2-2z" fill="#ffcbbe" transform="matrix(-1 0 0 -1 94 45)"/><path d="m21 15h22a2 2 0 0 1 2 2v11a13 13 0 0 1 -13 13 13 13 0 0 1 -13-13v-11a2 2 0 0 1 2-2z" fill="#ffddce"/><path d="m44 44h-5.35v-.05l-.21-3.53a14.02 14.02 0 0 0 7.56-12.42v-1h1a3.009 3.009 0 0 0 3-3v-3a2.986 2.986 0 0 0 -1-2.22v-8.39a4.978 4.978 0 0 0 -4.18-4.93l-2.47-.42-4.84-2.9a.984.984 0 0 0 -1.02 0l-4.49 2.69-4.49-2.69a.984.984 0 0 0 -1.02 0l-4.59 2.75-7.55-2.83a1.005 1.005 0 0 0 -1.28 1.31l1.93 4.82v10.59a2.986 2.986 0 0 0 -1 2.22v3a3.009 3.009 0 0 0 3 3h1v1a14.02 14.02 0 0 0 7.56 12.42l-.21 3.53v.05h-5.35a9.014 9.014 0 0 0 -9 9v8a1 1 0 0 0 1 1h40a1 1 0 0 0 1-1v-8a9.014 9.014 0 0 0 -9-9zm-25 16h-6v-7a7 7 0 0 1 6-6.92zm29-39v3a1 1 0 0 1 -1 1h-1v-5h1a1 1 0 0 1 1 1zm-30 4h-1a1 1 0 0 1 -1-1v-3a1 1 0 0 1 1-1h1zm0-8v1h-1v-10a.937.937 0 0 0 -.07-.37l-1.16-2.9 5.88 2.21a1.035 1.035 0 0 0 .86-.08l4.49-2.69 4.49 2.69a.984.984 0 0 0 1.02 0l4.49-2.69 4.49 2.69a.977.977 0 0 0 .35.13l2.65.44a2.988 2.988 0 0 1 2.51 2.96v7.61h-1v-1a3.009 3.009 0 0 0 -3-3h-22a3.009 3.009 0 0 0 -3 3zm2 11v-11a1 1 0 0 1 1-1h22a1 1 0 0 1 1 1v11a12 12 0 0 1 -24 0zm16.65 16.07a4.658 4.658 0 1 1 -9.3 0l.17-2.82a13.755 13.755 0 0 0 8.96 0zm6.35 15.93h-22v-14h4.55a6.662 6.662 0 0 0 12.9 0h4.55zm8 0h-6v-13.92a7 7 0 0 1 6 6.92z"/><path d="m27 21a1 1 0 0 0 -1 1v2a1 1 0 0 0 2 0v-2a1 1 0 0 0 -1-1z"/><path d="m37 25a1 1 0 0 0 1-1v-2a1 1 0 0 0 -2 0v2a1 1 0 0 0 1 1z"/></svg>