<svg id="Line" height="512" viewBox="0 0 64 64" width="512" xmlns="http://www.w3.org/2000/svg"><path d="m20 45h24a8 8 0 0 1 8 8v8a0 0 0 0 1 0 0h-40a0 0 0 0 1 0 0v-8a8 8 0 0 1 8-8z" fill="#d8514b"/><g fill="#ffcbbe"><path d="m32 50a5.658 5.658 0 0 1 -5.648-5.99l.648-11.01h10l.648 11.01a5.658 5.658 0 0 1 -5.648 5.99z"/><path d="m17 19h2a0 0 0 0 1 0 0v7a0 0 0 0 1 0 0h-2a2 2 0 0 1 -2-2v-3a2 2 0 0 1 2-2z"/><path d="m47 19h2a0 0 0 0 1 0 0v7a0 0 0 0 1 0 0h-2a2 2 0 0 1 -2-2v-3a2 2 0 0 1 2-2z" transform="matrix(-1 0 0 -1 94 45)"/></g><rect fill="#ffddce" height="38" rx="13" width="26" x="19" y="3"/><path d="m45 16v2l-5-7-8 2-8-2-5 7v-2a13 13 0 0 1 26 0z" fill="#3e3d42"/><path d="m44 44h-5.35v-.05l-.21-3.53a14.02 14.02 0 0 0 7.56-12.42v-1h1a3.009 3.009 0 0 0 3-3v-3a3.009 3.009 0 0 0 -3-3h-1v-2a14 14 0 0 0 -28 0v2h-1a3.009 3.009 0 0 0 -3 3v3a3.009 3.009 0 0 0 3 3h1v1a14.02 14.02 0 0 0 7.56 12.42l-.21 3.53v.05h-5.35a9.014 9.014 0 0 0 -9 9v8a1 1 0 0 0 1 1h40a1 1 0 0 0 1-1v-8a9.014 9.014 0 0 0 -9-9zm2-24h1a1 1 0 0 1 1 1v3a1 1 0 0 1 -1 1h-1zm-28 5h-1a1 1 0 0 1 -1-1v-3a1 1 0 0 1 1-1h1zm14-21a12.022 12.022 0 0 1 11.94 10.8l-3.13-4.38a.988.988 0 0 0 -1.05-.39l-7.76 1.94-7.76-1.94a.987.987 0 0 0 -1.05.39l-3.13 4.38a12.019 12.019 0 0 1 11.94-10.8zm-12 24v-9.68l4.42-6.18 7.34 1.83a.975.975 0 0 0 .48 0l7.34-1.83 4.42 6.18v9.68a12 12 0 0 1 -24 0zm16.65 16.07a4.658 4.658 0 1 1 -9.3 0l.17-2.82a13.755 13.755 0 0 0 8.96 0zm14.35 15.93h-38v-7a7.008 7.008 0 0 1 7-7h5.55a6.662 6.662 0 0 0 12.9 0h5.55a7.008 7.008 0 0 1 7 7z"/><path d="m27 21a1 1 0 0 0 -1 1v2a1 1 0 0 0 2 0v-2a1 1 0 0 0 -1-1z"/><path d="m37 25a1 1 0 0 0 1-1v-2a1 1 0 0 0 -2 0v2a1 1 0 0 0 1 1z"/></svg>