<svg id="Line" height="512" viewBox="0 0 64 64" width="512" xmlns="http://www.w3.org/2000/svg"><path d="m52.8 24c0 1.791-1.808 3.32-2.25 4.972-.456 1.708.331 3.934-.534 5.43-.878 1.518-3.208 1.943-4.44 3.175s-1.657 3.561-3.174 4.439c-1.5.866-3.722.078-5.431.534-1.651.442-3.18 2.25-4.971 2.25s-3.32-1.808-4.972-2.25c-1.708-.456-3.934.331-5.43-.534-1.518-.878-1.943-3.208-3.175-4.44s-3.561-1.657-4.439-3.174c-.866-1.5-.078-3.722-.534-5.431-.442-1.651-2.25-3.18-2.25-4.971s1.808-3.32 2.25-4.972c.456-1.708-.331-3.934.534-5.43.878-1.518 3.208-1.943 4.44-3.175s1.657-3.561 3.176-4.439c1.5-.866 3.722-.078 5.431-.534 1.649-.442 3.178-2.25 4.969-2.25s3.32 1.808 4.972 2.25c1.708.456 3.934-.331 5.43.534 1.518.878 1.943 3.208 3.175 4.44s3.561 1.657 4.439 3.174c.866 1.5.078 3.722.534 5.431.442 1.651 2.25 3.18 2.25 4.971z" fill="#3e3d42"/><path d="m20 45h24a8 8 0 0 1 8 8v8a0 0 0 0 1 0 0h-40a0 0 0 0 1 0 0v-8a8 8 0 0 1 8-8z" fill="#c7bec5"/><g fill="#ffcbbe"><path d="m32 50a5.658 5.658 0 0 1 -5.648-5.99l.648-11.01h10l.648 11.01a5.658 5.658 0 0 1 -5.648 5.99z"/><path d="m17 19h2a0 0 0 0 1 0 0v7a0 0 0 0 1 0 0h-2a2 2 0 0 1 -2-2v-3a2 2 0 0 1 2-2z"/><path d="m47 19h2a0 0 0 0 1 0 0v7a0 0 0 0 1 0 0h-2a2 2 0 0 1 -2-2v-3a2 2 0 0 1 2-2z" transform="matrix(-1 0 0 -1 94 45)"/></g><path d="m32 41a13 13 0 0 1 -13-13v-9a6 6 0 0 1 2.4-4.8 6 6 0 0 1 3.6-1.2h14a6 6 0 0 1 3.6 1.2 6 6 0 0 1 2.4 4.8v9a13 13 0 0 1 -13 13z" fill="#ffddce"/><path d="m44 44h-5.35v-.05l-.04-.55c.24 0 .49.01.74.02a6.439 6.439 0 0 0 3.55-.53 6.508 6.508 0 0 0 2.27-2.86 7.159 7.159 0 0 1 1.12-1.74 7.175 7.175 0 0 1 1.73-1.11 6.558 6.558 0 0 0 2.87-2.28 6.42 6.42 0 0 0 .53-3.57 7.417 7.417 0 0 1 .1-2.1 6.65 6.65 0 0 1 .93-1.78 6.6 6.6 0 0 0 1.35-3.45 6.6 6.6 0 0 0 -1.35-3.45 6.65 6.65 0 0 1 -.93-1.78 7.417 7.417 0 0 1 -.1-2.1 6.42 6.42 0 0 0 -.53-3.57 6.508 6.508 0 0 0 -2.86-2.27 7.159 7.159 0 0 1 -1.74-1.12 7.175 7.175 0 0 1 -1.11-1.73 6.558 6.558 0 0 0 -2.28-2.87 6.433 6.433 0 0 0 -3.57-.53 7.417 7.417 0 0 1 -2.1-.1 6.65 6.65 0 0 1 -1.78-.93 6.6 6.6 0 0 0 -3.45-1.35 6.6 6.6 0 0 0 -3.45 1.35 6.65 6.65 0 0 1 -1.78.93 7.417 7.417 0 0 1 -2.1.1 6.42 6.42 0 0 0 -3.57.53 6.508 6.508 0 0 0 -2.27 2.86 7.159 7.159 0 0 1 -1.12 1.74 7.175 7.175 0 0 1 -1.73 1.11 6.558 6.558 0 0 0 -2.87 2.28 6.42 6.42 0 0 0 -.53 3.57 7.417 7.417 0 0 1 -.1 2.1 6.65 6.65 0 0 1 -.93 1.78 6.6 6.6 0 0 0 -1.35 3.45 6.6 6.6 0 0 0 1.35 3.45 6.65 6.65 0 0 1 .93 1.78 7.417 7.417 0 0 1 .1 2.1 6.42 6.42 0 0 0 .53 3.57 6.508 6.508 0 0 0 2.86 2.27 7.159 7.159 0 0 1 1.74 1.12 7.175 7.175 0 0 1 1.11 1.73 6.558 6.558 0 0 0 2.28 2.87 5 5 0 0 0 2.57.55c.33 0 .66-.01.98-.02.25-.01.5-.02.73-.02l-.03.55v.05h-5.35a9.014 9.014 0 0 0 -9 9v8a1 1 0 0 0 1 1h40a1 1 0 0 0 1-1v-8a9.014 9.014 0 0 0 -9-9zm-19.43-2.58a4.941 4.941 0 0 1 -2.47-.27 4.953 4.953 0 0 1 -1.51-2.06 8.834 8.834 0 0 0 -1.46-2.21 8.545 8.545 0 0 0 -2.24-1.48 4.93 4.93 0 0 1 -2.04-1.5 4.91 4.91 0 0 1 -.27-2.49 9.1 9.1 0 0 0 -.16-2.7 8.668 8.668 0 0 0 -1.18-2.33 5.092 5.092 0 0 1 -1.04-2.38 5.092 5.092 0 0 1 1.04-2.38 8.668 8.668 0 0 0 1.18-2.33 9.1 9.1 0 0 0 .16-2.7 4.91 4.91 0 0 1 .27-2.49 4.953 4.953 0 0 1 2.06-1.51 8.834 8.834 0 0 0 2.21-1.46 8.545 8.545 0 0 0 1.48-2.24 4.93 4.93 0 0 1 1.5-2.04 4.91 4.91 0 0 1 2.49-.27 9.1 9.1 0 0 0 2.7-.16 8.668 8.668 0 0 0 2.33-1.18 5.092 5.092 0 0 1 2.38-1.04 5.092 5.092 0 0 1 2.38 1.04 8.668 8.668 0 0 0 2.33 1.18 9.1 9.1 0 0 0 2.7.16 4.91 4.91 0 0 1 2.49.27 4.953 4.953 0 0 1 1.51 2.06 8.834 8.834 0 0 0 1.46 2.21 8.545 8.545 0 0 0 2.24 1.48 4.93 4.93 0 0 1 2.04 1.5 4.91 4.91 0 0 1 .27 2.49 9.1 9.1 0 0 0 .16 2.7 8.668 8.668 0 0 0 1.18 2.33 5.092 5.092 0 0 1 1.04 2.38 5.092 5.092 0 0 1 -1.04 2.38 8.668 8.668 0 0 0 -1.18 2.33 9.1 9.1 0 0 0 -.16 2.7 4.91 4.91 0 0 1 -.27 2.49 4.953 4.953 0 0 1 -2.06 1.51 8.834 8.834 0 0 0 -2.21 1.46 8.545 8.545 0 0 0 -1.48 2.24 4.93 4.93 0 0 1 -1.5 2.04 4.941 4.941 0 0 1 -2.47.27c-.31-.01-.62-.03-.93-.03l-.06-.97a14.02 14.02 0 0 0 7.56-12.42v-1h1a3.009 3.009 0 0 0 3-3v-3a3.009 3.009 0 0 0 -3-3h-1.08a6.985 6.985 0 0 0 -6.92-6h-14a6.985 6.985 0 0 0 -6.92 6h-1.08a3.009 3.009 0 0 0 -3 3v3a3.009 3.009 0 0 0 3 3h1v1a14.02 14.02 0 0 0 7.56 12.42l-.06.97c-.31 0-.62.02-.93.03zm7.43-1.42a12.01 12.01 0 0 1 -12-12v-9a5 5 0 0 1 5-5h14a5 5 0 0 1 5 5v9a12.01 12.01 0 0 1 -12 12zm14-15v-5h1a1 1 0 0 1 1 1v3a1 1 0 0 1 -1 1zm-28-5v5h-1a1 1 0 0 1 -1-1v-3a1 1 0 0 1 1-1zm13 40h-18v-7a7.008 7.008 0 0 1 7-7h5.55a6.666 6.666 0 0 0 5.45 4.92zm-2.39-12.46a4.6 4.6 0 0 1 -1.26-3.47l.17-2.82a13.755 13.755 0 0 0 8.96 0l.17 2.82a4.66 4.66 0 0 1 -8.04 3.47zm22.39 12.46h-18v-9.08a6.666 6.666 0 0 0 5.45-4.92h5.55a7.008 7.008 0 0 1 7 7z"/><path d="m27 25a1 1 0 0 0 1-1v-2a1 1 0 0 0 -2 0v2a1 1 0 0 0 1 1z"/><path d="m37 25a1 1 0 0 0 1-1v-2a1 1 0 0 0 -2 0v2a1 1 0 0 0 1 1z"/></svg>