<svg id="Line" height="512" viewBox="0 0 64 64" width="512" xmlns="http://www.w3.org/2000/svg"><path d="m47 19h2a0 0 0 0 1 0 0v7a0 0 0 0 1 0 0h-2a2 2 0 0 1 -2-2v-3a2 2 0 0 1 2-2z" fill="#ffcbbe" transform="matrix(-1 0 0 -1 94 45)"/><path d="m20 45h24a8 8 0 0 1 8 8v8a0 0 0 0 1 0 0h-40a0 0 0 0 1 0 0v-8a8 8 0 0 1 8-8z" fill="#3e3d42"/><path d="m32 50a5.658 5.658 0 0 1 -5.648-5.99l.648-11.01h10l.648 11.01a5.658 5.658 0 0 1 -5.648 5.99z" fill="#ffcbbe"/><rect fill="#ffddce" height="38" rx="13" width="26" x="19" y="3"/><path d="m17 19h2a0 0 0 0 1 0 0v7a0 0 0 0 1 0 0h-2a2 2 0 0 1 -2-2v-3a2 2 0 0 1 2-2z" fill="#ffcbbe"/><path d="m27.931 9a6 6 0 0 0 -5.3 3.178l-3.631 6.822v-3a13 13 0 0 1 22.19-9.19 11.909 11.909 0 0 1 1.05 1.19 12.9 12.9 0 0 1 2.76 8v3l-3.636-6.822a6 6 0 0 0 -5.295-3.178z" fill="#3e3d42"/><path d="m44 44h-5.35v-.05l-.21-3.52a14.057 14.057 0 0 0 7.56-12.43v-1h1a3.009 3.009 0 0 0 3-3v-3a3.009 3.009 0 0 0 -3-3h-1v-2a13.866 13.866 0 0 0 -2.96-8.61 16.006 16.006 0 0 0 -1.14-1.29 14 14 0 0 0 -23.9 9.9v2h-1a3.009 3.009 0 0 0 -3 3v3a3.009 3.009 0 0 0 3 3h1v1a13.936 13.936 0 0 0 4.1 9.9 14.4 14.4 0 0 0 3.46 2.52l-.21 3.53v.05h-5.35a9.014 9.014 0 0 0 -9 9v8a1 1 0 0 0 1 1h40a1 1 0 0 0 1-1v-8a9.014 9.014 0 0 0 -9-9zm2-24h1a1 1 0 0 1 1 1v3a1 1 0 0 1 -1 1h-1zm-28 5h-1a1 1 0 0 1 -1-1v-3a1 1 0 0 1 1-1h1zm4.55-16.39a11.983 11.983 0 0 1 17.93-1.09 9.562 9.562 0 0 1 .97 1.1 11.735 11.735 0 0 1 2.5 6.29l-1.7-3.2a6.99 6.99 0 0 0 -6.18-3.71h-8.14a6.99 6.99 0 0 0 -6.18 3.71l-1.7 3.2a11.8 11.8 0 0 1 2.5-6.3zm.97 27.87a11.915 11.915 0 0 1 -3.52-8.48v-8.75l3.52-6.6a4.977 4.977 0 0 1 4.41-2.65h8.14a4.977 4.977 0 0 1 4.41 2.65l3.52 6.6v8.75a12 12 0 0 1 -16.98 10.92 11.742 11.742 0 0 1 -3.5-2.44zm7.48 23.52h-18v-7a7.008 7.008 0 0 1 7-7h5.55a6.666 6.666 0 0 0 5.45 4.92zm-2.39-12.46a4.6 4.6 0 0 1 -1.26-3.47l.17-2.81a13.931 13.931 0 0 0 8.96 0l.17 2.81a4.66 4.66 0 0 1 -8.04 3.47zm22.39 12.46h-18v-9.08a6.666 6.666 0 0 0 5.45-4.92h5.55a7.008 7.008 0 0 1 7 7z"/><path d="m28 24v-2a1 1 0 0 0 -2 0v2a1 1 0 0 0 2 0z"/><path d="m37 25a1 1 0 0 0 1-1v-2a1 1 0 0 0 -2 0v2a1 1 0 0 0 1 1z"/></svg>