<svg id="Line" height="512" viewBox="0 0 64 64" width="512" xmlns="http://www.w3.org/2000/svg"><path d="m20 45h24a8 8 0 0 1 8 8v8a0 0 0 0 1 0 0h-40a0 0 0 0 1 0 0v-8a8 8 0 0 1 8-8z" fill="#4a80aa"/><g fill="#ffcbbe"><path d="m38 48-6 5-6-5v-15h12z"/><path d="m17 19h2a0 0 0 0 1 0 0v7a0 0 0 0 1 0 0h-2a2 2 0 0 1 -2-2v-3a2 2 0 0 1 2-2z"/><path d="m47 19h2a0 0 0 0 1 0 0v7a0 0 0 0 1 0 0h-2a2 2 0 0 1 -2-2v-3a2 2 0 0 1 2-2z" transform="matrix(-1 0 0 -1 94 45)"/></g><rect fill="#ffddce" height="34" rx="13" width="26" x="19" y="7"/><path d="m31 14h9l2 6h3v-3c0-3.59-1.46-8.84-3.81-11.19-1.436-1.436-3.209-.54-5.19-1.181-1.26-.408-2.6-1.629-4-1.629-2.164 0-4.2 1.529-6 2.464-2.022 1.054-5.776-1.376-7 .536-1.294 2.021 0 8.423 0 11v3h3l2-6z" fill="#3e3d42"/><path d="m24 45h-4a8 8 0 0 0 -8 8v8h12z" fill="#365e7d"/><path d="m44 45h-4v16h12v-8a8 8 0 0 0 -8-8z" fill="#365e7d"/><path d="m22 45-2 6h2l-2 4 2 6h5l-1-16z" fill="#e1ecfd"/><path d="m42 45 2 6h-2l2 4-2 6h-5l1-16z" fill="#e1ecfd"/><path d="m44 44h-5.27l-.24-3.61a13.99 13.99 0 0 0 7.51-12.39v-1h1a3.009 3.009 0 0 0 3-3v-3a3.009 3.009 0 0 0 -3-3h-1v-1c0-3.83-1.53-9.33-4.1-11.9a4.712 4.712 0 0 0 -3.63-1.19 6.423 6.423 0 0 1 -1.96-.23 8.451 8.451 0 0 1 -1.3-.63 6.354 6.354 0 0 0 -3.01-1.05 10.892 10.892 0 0 0 -5.28 1.92c-.4.23-.8.46-1.18.66a5.2 5.2 0 0 1 -2.75-.08c-1.6-.29-3.6-.66-4.63.96-1.1 1.72-.73 5.35-.39 8.56.12 1.17.23 2.27.23 2.98v1h-1a3.009 3.009 0 0 0 -3 3v3a3.009 3.009 0 0 0 3 3h1v1a13.99 13.99 0 0 0 7.51 12.39l-.24 3.61h-5.27a9.014 9.014 0 0 0 -9 9v8a1 1 0 0 0 1 1h40a1 1 0 0 0 1-1v-8a9.014 9.014 0 0 0 -9-9zm2-24h1a1 1 0 0 1 1 1v3a1 1 0 0 1 -1 1h-1zm-28 5h-1a1 1 0 0 1 -1-1v-3a1 1 0 0 1 1-1h1zm1.84-18.46c.29-.45 1.26-.32 2.59-.07s2.82.51 4.03-.12c.41-.21.83-.45 1.26-.7a9.318 9.318 0 0 1 4.28-1.65 4.88 4.88 0 0 1 2.04.8 9.549 9.549 0 0 0 1.65.78 8.608 8.608 0 0 0 2.54.33c1.1.02 1.7.05 2.25.61 2.11 2.1 3.52 7.12 3.52 10.48v1h-1.32l-1.75-4.37a1 1 0 0 0 -.93-.63h-16a1 1 0 0 0 -.93.63l-1.75 4.37h-1.32v-1c0-.81-.11-1.91-.25-3.19-.25-2.44-.63-6.14.09-7.27zm3.64 11.46 1.2-3h14.64l1.2 3zm5.52 2v5a1 1 0 0 1 -1 1h-4a1 1 0 0 1 -1-1v-5zm6 0h6v5a1 1 0 0 1 -1 1h-4a1 1 0 0 1 -1-1zm-15 8v-8h1v5a3.009 3.009 0 0 0 3 3h4a3.009 3.009 0 0 0 3-3v-5h2v5a3.009 3.009 0 0 0 3 3h4a3.009 3.009 0 0 0 3-3v-5h1v8a12 12 0 0 1 -24 0zm7.1 18.58.36-5.35a13.769 13.769 0 0 0 9.08 0l.36 5.35-.068 1.086-4.832 4.034-4.832-4.032zm-7.91 5a.983.983 0 0 0 .81.42h.38l-1.27 2.55a1.027 1.027 0 0 0 -.06.77l1.56 4.68h-7.61v-7a7.008 7.008 0 0 1 7-7h.61l-1.56 4.68a1 1 0 0 0 .14.9zm3.53 8.42-1.64-4.92 1.81-3.63a1 1 0 0 0 -.89-1.45h-.61l1.33-4h2.34l.88 14zm5.22 0-.6-9.587 4.019 3.355a1 1 0 0 0 1.282 0l4.019-3.355-.6 9.587zm13.34 0h-3.22l.88-14h2.34l1.33 4h-.61a1 1 0 0 0 -.89 1.45l1.81 3.63zm9.72 0h-7.61l1.56-4.68a1.027 1.027 0 0 0 -.06-.77l-1.27-2.55h.38a.983.983 0 0 0 .81-.42 1 1 0 0 0 .14-.9l-1.56-4.68h.61a7.008 7.008 0 0 1 7 7z"/><path d="m26 25a1 1 0 0 0 1-1v-2a1 1 0 0 0 -2 0v2a1 1 0 0 0 1 1z"/><path d="m38 25a1 1 0 0 0 1-1v-2a1 1 0 0 0 -2 0v2a1 1 0 0 0 1 1z"/></svg>