<svg id="Line" height="512" viewBox="0 0 64 64" width="512" xmlns="http://www.w3.org/2000/svg"><path d="m20 44h24a8 8 0 0 1 8 8v8a0 0 0 0 1 0 0h-40a0 0 0 0 1 0 0v-8a8 8 0 0 1 8-8z" fill="#e28086"/><path d="m42 44a10 10 0 0 1 -20 0z" fill="#fff"/><path d="m32 50a5.658 5.658 0 0 1 -5.648-5.99l.648-11.01h10l.648 11.01a5.658 5.658 0 0 1 -5.648 5.99z" fill="#ffcbbe"/><rect fill="#ffddce" height="38" rx="13" width="26" x="19" y="3"/><path d="m17 19h2a0 0 0 0 1 0 0v7a0 0 0 0 1 0 0h-2a2 2 0 0 1 -2-2v-3a2 2 0 0 1 2-2z" fill="#ffcbbe"/><path d="m47 19h2a0 0 0 0 1 0 0v7a0 0 0 0 1 0 0h-2a2 2 0 0 1 -2-2v-3a2 2 0 0 1 2-2z" fill="#ffcbbe" transform="matrix(-1 0 0 -1 94 45)"/><g fill="#3e3d42"><path d="m19 16v2h4v-5a4.025 4.025 0 0 0 -1.17-2.83 3.856 3.856 0 0 0 -1.04-.74 12.859 12.859 0 0 0 -1.79 6.57z"/><path d="m45 16v2h-4v-5a4.025 4.025 0 0 1 1.17-2.83 3.856 3.856 0 0 1 1.04-.74 12.859 12.859 0 0 1 1.79 6.57z"/><path d="m37.81 4.37c-.67 1.51-3.02 2.63-5.81 2.63s-5.14-1.12-5.8-2.63h-.01a13 13 0 0 1 11.62 0z"/></g><path d="m44 44h-5.35v-.05l-.21-3.53a14.02 14.02 0 0 0 7.56-12.42v-1h1a3.009 3.009 0 0 0 3-3v-3a3.009 3.009 0 0 0 -3-3h-1v-2a14 14 0 0 0 -28 0v2h-1a3.009 3.009 0 0 0 -3 3v3a3.009 3.009 0 0 0 3 3h1v1a14.02 14.02 0 0 0 7.56 12.42l-.21 3.53v.05h-5.35a9.014 9.014 0 0 0 -9 9v8a1 1 0 0 0 1 1h40a1 1 0 0 0 1-1v-8a9.014 9.014 0 0 0 -9-9zm2-24h1a1 1 0 0 1 1 1v3a1 1 0 0 1 -1 1h-1zm-28 5h-1a1 1 0 0 1 -1-1v-3a1 1 0 0 1 1-1h1zm24-12a3.038 3.038 0 0 1 .85-2.09 11.907 11.907 0 0 1 1.15 5.09v1h-2zm-10-9a11.83 11.83 0 0 1 4.21.78 6.958 6.958 0 0 1 -4.21 1.22 6.811 6.811 0 0 1 -4.2-1.23 11.95 11.95 0 0 1 4.2-.77zm-12 12a11.907 11.907 0 0 1 1.15-5.09 2.993 2.993 0 0 1 .85 2.09v4h-2zm0 12v-9h3a1 1 0 0 0 1-1v-5a5.046 5.046 0 0 0 -1.46-3.54c-.12-.11-.25-.21-.38-.31a12.1 12.1 0 0 1 3.73-3.46 8.055 8.055 0 0 0 6.11 2.31 8.1 8.1 0 0 0 6.12-2.31 12.175 12.175 0 0 1 3.72 3.46 3.788 3.788 0 0 0 -.38.32 5.005 5.005 0 0 0 -1.46 3.53v5a1 1 0 0 0 1 1h3v9a12 12 0 0 1 -24 0zm16.65 16.07a4.474 4.474 0 0 1 -.02.82 4.662 4.662 0 0 1 -9.26-.01 4.343 4.343 0 0 1 -.02-.81l.17-2.82a13.755 13.755 0 0 0 8.96 0zm-11.09 1.93a6.647 6.647 0 0 0 12.88 0h2.5a9 9 0 0 1 -17.88 0zm25.44 14h-38v-7a7.008 7.008 0 0 1 7-7h1.05a11 11 0 0 0 21.9 0h1.05a7.008 7.008 0 0 1 7 7z"/><path d="m27 21a1 1 0 0 0 -1 1v2a1 1 0 0 0 2 0v-2a1 1 0 0 0 -1-1z"/><path d="m37 25a1 1 0 0 0 1-1v-2a1 1 0 0 0 -2 0v2a1 1 0 0 0 1 1z"/></svg>