<svg id="Line" height="512" viewBox="0 0 64 64" width="512" xmlns="http://www.w3.org/2000/svg"><path d="m20 45h24a8 8 0 0 1 8 8v8a0 0 0 0 1 0 0h-40a0 0 0 0 1 0 0v-8a8 8 0 0 1 8-8z" fill="#48a3d2"/><path d="m42 45a10 10 0 0 1 -20 0z" fill="#e1ecfd"/><g fill="#ffcbbe"><path d="m32 50a5.658 5.658 0 0 1 -5.648-5.99l.648-11.01h10l.648 11.01a5.658 5.658 0 0 1 -5.648 5.99z"/><path d="m17 19h2a0 0 0 0 1 0 0v7a0 0 0 0 1 0 0h-2a2 2 0 0 1 -2-2v-3a2 2 0 0 1 2-2z"/><path d="m47 19h2a0 0 0 0 1 0 0v7a0 0 0 0 1 0 0h-2a2 2 0 0 1 -2-2v-3a2 2 0 0 1 2-2z" transform="matrix(-1 0 0 -1 94 45)"/></g><rect fill="#ffddce" height="38" rx="13" width="26" x="19" y="3"/><path d="m45 16h-1a5 5 0 0 1 -5-5v-1.35a8.988 8.988 0 0 1 -14 0v1.35a5 5 0 0 1 -5 5h-1a13 13 0 0 1 26 0z" fill="#3e3d42"/><path d="m44 44h-5.35v-.05l-.21-3.53a14.02 14.02 0 0 0 7.56-12.42v-1h1a3.009 3.009 0 0 0 3-3v-3a3.009 3.009 0 0 0 -3-3h-1v-2a14 14 0 0 0 -28 0v2h-1a3.009 3.009 0 0 0 -3 3v3a3.009 3.009 0 0 0 3 3h1v1a14.02 14.02 0 0 0 7.56 12.42l-.21 3.53v.05h-5.35a9.014 9.014 0 0 0 -9 9v8a1 1 0 0 0 1 1h40a1 1 0 0 0 1-1v-8a9.014 9.014 0 0 0 -9-9zm2-24h1a1 1 0 0 1 1 1v3a1 1 0 0 1 -1 1h-1zm-28 5h-1a1 1 0 0 1 -1-1v-3a1 1 0 0 1 1-1h1zm14-21a12.024 12.024 0 0 1 11.96 11 4 4 0 0 1 -3.96-4v-1.35a1 1 0 0 0 -.67-.94.96.96 0 0 0 -.33-.06 1 1 0 0 0 -.78.37 7.981 7.981 0 0 1 -12.44 0 1 1 0 0 0 -1.78.63v1.35a4 4 0 0 1 -3.96 4 12.018 12.018 0 0 1 11.96-11zm-12 24v-11a6.021 6.021 0 0 0 5.93-5.06 9.973 9.973 0 0 0 12.14 0 6.021 6.021 0 0 0 5.93 5.06v11a12 12 0 0 1 -24 0zm16.65 16.07a4.658 4.658 0 1 1 -9.3 0l.17-2.82a13.755 13.755 0 0 0 8.96 0zm-11.1 1.93a6.662 6.662 0 0 0 12.9 0h2.49a9 9 0 0 1 -17.88 0zm25.45 14h-38v-7a7.008 7.008 0 0 1 7-7h1.05a11 11 0 0 0 21.9 0h1.05a7.008 7.008 0 0 1 7 7z"/><path d="m27 21a1 1 0 0 0 -1 1v2a1 1 0 0 0 2 0v-2a1 1 0 0 0 -1-1z"/><path d="m37 25a1 1 0 0 0 1-1v-2a1 1 0 0 0 -2 0v2a1 1 0 0 0 1 1z"/></svg>