<svg id="Line" height="512" viewBox="0 0 64 64" width="512" xmlns="http://www.w3.org/2000/svg"><path d="m44 45h-24a8.262 8.262 0 0 0 -1 .06 8 8 0 0 0 -7 7.94v8h40v-8a8 8 0 0 0 -7-7.94z" fill="#5bcbfa"/><path d="m44 45h-24a8.262 8.262 0 0 0 -1 .06v15.94h26v-15.94z" fill="#ec455a"/><path d="m23 45 2 8 5-4-1-4z" fill="#fff"/><path d="m41 45-2 8-5-4 1-4z" fill="#fff"/><path d="m38 45-6 6-6-6 1-12h10z" fill="#ffcbbe"/><path d="m48 23h-32v-8a12 12 0 0 1 12-12h8a12 12 0 0 1 12 12z" fill="#3e3d42"/><path d="m17 19h2a0 0 0 0 1 0 0v7a0 0 0 0 1 0 0h-2a2 2 0 0 1 -2-2v-3a2 2 0 0 1 2-2z" fill="#ffcbbe"/><path d="m47 19h2a0 0 0 0 1 0 0v7a0 0 0 0 1 0 0h-2a2 2 0 0 1 -2-2v-3a2 2 0 0 1 2-2z" fill="#ffcbbe" transform="matrix(-1 0 0 -1 94 45)"/><path d="m32 41a13 13 0 0 1 -13-13v-10l3-5 2.688-1.152a14.046 14.046 0 0 1 9.488-.557c3.6 1.056 7.808 2.447 8.424 2.909l2.4 4.8v9a13 13 0 0 1 -13 13z" fill="#ffddce"/><path d="m45.12 44.07a8.317 8.317 0 0 0 -1.12-.07h-5.08l-.31-3.67a13.986 13.986 0 0 0 7.39-12.33v-1h1a3.009 3.009 0 0 0 3-3v-3a2.986 2.986 0 0 0 -1-2.22v-3.78a13.012 13.012 0 0 0 -13-13h-8a13.012 13.012 0 0 0 -13 13v3.78a2.986 2.986 0 0 0 -1 2.22v3a3.009 3.009 0 0 0 3 3h1v1a13.986 13.986 0 0 0 7.39 12.33l-.31 3.67h-5.08a8.317 8.317 0 0 0 -1.12.07 9 9 0 0 0 -7.88 8.93v8a1 1 0 0 0 1 1h40a1 1 0 0 0 1-1v-8a9 9 0 0 0 -7.88-8.93zm-27.12 15.93h-5v-7a7.005 7.005 0 0 1 5-6.71zm21.72-14-1.31 5.25-2.91-2.33 2.91-2.92zm-7.72 3.59-4.96-4.97.28-3.44a13.765 13.765 0 0 0 9.36 0l.28 3.44zm16-28.59v3a1 1 0 0 1 -1 1h-1v-5h1a1 1 0 0 1 1 1zm-30 4h-1a1 1 0 0 1 -1-1v-3a1 1 0 0 1 1-1h1zm0-7h-1v-3a11.007 11.007 0 0 1 11-11h8a11.007 11.007 0 0 1 11 11v3h-1.38l-2.13-4.25a.991.991 0 0 0 -.29-.35c-1.07-.8-7.96-2.84-8.74-3.07a15.13 15.13 0 0 0 -10.17.6l-2.68 1.15a.989.989 0 0 0 -.47.41l-3 5a1 1 0 0 0 -.14.51zm2 10v-9.72l2.69-4.49 2.39-1.02a13.106 13.106 0 0 1 8.82-.52 78.721 78.721 0 0 1 7.94 2.66l2.16 4.33v8.76a12 12 0 0 1 -24 0zm5.59 18 2.91 2.92-2.91 2.33-1.31-5.25zm18.41 14h-24v-14h2.22l1.81 7.24a1.01 1.01 0 0 0 .65.71 1.127 1.127 0 0 0 .32.05 1.02 1.02 0 0 0 .62-.22l4.31-3.44 1.36 1.37a1.014 1.014 0 0 0 1.42 0l1.36-1.37 4.31 3.44a1 1 0 0 0 .62.22 1.127 1.127 0 0 0 .32-.05 1.01 1.01 0 0 0 .65-.71l1.81-7.24h2.22zm7 0h-5v-13.71a7.005 7.005 0 0 1 5 6.71z"/><path d="m26 21a1 1 0 0 0 -1 1v2a1 1 0 0 0 2 0v-2a1 1 0 0 0 -1-1z"/><path d="m38 25a1 1 0 0 0 1-1v-2a1 1 0 0 0 -2 0v2a1 1 0 0 0 1 1z"/></svg>