<svg id="Line" height="512" viewBox="0 0 64 64" width="512" xmlns="http://www.w3.org/2000/svg"><path d="m20 45h24a8 8 0 0 1 8 8v8a0 0 0 0 1 0 0h-40a0 0 0 0 1 0 0v-8a8 8 0 0 1 8-8z" fill="#5bcbfa"/><path d="m29 49h6l1 12h-8z" fill="#ec455a"/><path d="m23 45 2 8 5-4-1-4z" fill="#fff"/><path d="m41 45-2 8-5-4 1-4z" fill="#fff"/><path d="m38 45-6 6-6-6 1-12h10z" fill="#ffcbbe"/><rect fill="#ffddce" height="34" rx="13" width="26" x="19" y="7"/><path d="m18 19v-1.62a14.252 14.252 0 0 1 13-14.345 14 14 0 0 1 15 13.965v2h-3l-2.7-6.292a3.989 3.989 0 0 0 -.848-1.253l-1.471-1.474a1 1 0 0 0 -1.6.26l-.274.548a4 4 0 0 1 -3.579 2.211h-1.056a4 4 0 0 1 -3.578-2.211l-.274-.548a1 1 0 0 0 -1.6-.26l-1.474 1.474a3.989 3.989 0 0 0 -.848 1.253l-2.698 6.292z" fill="#3e3d42"/><path d="m17 19h2a0 0 0 0 1 0 0v7a0 0 0 0 1 0 0h-2a2 2 0 0 1 -2-2v-3a2 2 0 0 1 2-2z" fill="#ffcbbe"/><path d="m47 19h2a0 0 0 0 1 0 0v7a0 0 0 0 1 0 0h-2a2 2 0 0 1 -2-2v-3a2 2 0 0 1 2-2z" fill="#ffcbbe" transform="matrix(-1 0 0 -1 94 45)"/><path d="m44 44h-5.08l-.31-3.67a13.986 13.986 0 0 0 7.39-12.33v-1h1a3.009 3.009 0 0 0 3-3v-3a3.009 3.009 0 0 0 -3-3v-1a14.987 14.987 0 0 0 -16.07-14.96 15.2 15.2 0 0 0 -13.87 13.96h-.06v2a3.009 3.009 0 0 0 -3 3v3a3.009 3.009 0 0 0 3 3h1v1a13.986 13.986 0 0 0 7.39 12.33l-.31 3.67h-5.08a9.014 9.014 0 0 0 -9 9v8a1 1 0 0 0 1 1h40a1 1 0 0 0 1-1v-8a9.014 9.014 0 0 0 -9-9zm2-24h1a1 1 0 0 1 1 1v3a1 1 0 0 1 -1 1h-1zm-28 5h-1a1 1 0 0 1 -1-1v-3a1 1 0 0 1 1-1h1zm1-7.62a13.246 13.246 0 0 1 12.07-13.35 13.079 13.079 0 0 1 10.12 3.78 12.922 12.922 0 0 1 3.81 9.19v1h-1.34l-2.44-5.69a4.9 4.9 0 0 0 -1.06-1.56l-1.47-1.48a2.043 2.043 0 0 0 -1.74-.56 2.01 2.01 0 0 0 -1.46 1.08l-.28.55a2.988 2.988 0 0 1 -2.68 1.66h-1.06a2.988 2.988 0 0 1 -2.68-1.66l-.28-.55a2.01 2.01 0 0 0 -1.46-1.08 2.043 2.043 0 0 0 -1.74.56l-1.47 1.48a4.9 4.9 0 0 0 -1.06 1.56l-2.44 5.69h-1.34zm3.52.62 2.1-4.9a2.987 2.987 0 0 1 .63-.94l1.48-1.47.27.55a4.979 4.979 0 0 0 4.47 2.76h1.06a4.979 4.979 0 0 0 4.47-2.76l.27-.55 1.48 1.47a2.987 2.987 0 0 1 .63.94l2.1 4.9zm18.48 2v5a1 1 0 0 1 -1 1h-4a1 1 0 0 1 -1-1v-5zm-12 0v5a1 1 0 0 1 -1 1h-4a1 1 0 0 1 -1-1v-5zm-9 8v-8h1v5a3.009 3.009 0 0 0 3 3h4a3.009 3.009 0 0 0 3-3v-5h2v5a3.009 3.009 0 0 0 3 3h4a3.009 3.009 0 0 0 3-3v-5h1v8a12 12 0 0 1 -24 0zm16.96 16.62-4.96 4.97-4.96-4.97.28-3.44a13.765 13.765 0 0 0 9.36 0zm-9.88 15.38h-14.08v-7a7.008 7.008 0 0 1 7-7h2.22l1.81 7.24a1.01 1.01 0 0 0 .65.71 1.185 1.185 0 0 0 .32.05 1 1 0 0 0 .62-.22l2.12-1.69zm-1.49-8.75-1.31-5.25h1.31l2.91 2.92zm3.5 8.75.8-9.63.04-.03 1.36 1.37a1.014 1.014 0 0 0 1.42 0l1.36-1.37.04.03.8 9.63zm6.41-11.08 2.91-2.92h1.31l-1.31 5.25zm15.5 11.08h-14.08l-.66-7.91 2.12 1.69a1 1 0 0 0 .62.22 1.127 1.127 0 0 0 .32-.05 1.01 1.01 0 0 0 .65-.71l1.81-7.24h2.22a7.008 7.008 0 0 1 7 7z"/><path d="m26 25a1 1 0 0 0 1-1v-2a1 1 0 0 0 -2 0v2a1 1 0 0 0 1 1z"/><path d="m38 25a1 1 0 0 0 1-1v-2a1 1 0 0 0 -2 0v2a1 1 0 0 0 1 1z"/></svg>