<svg id="Line" height="512" viewBox="0 0 64 64" width="512" xmlns="http://www.w3.org/2000/svg"><path d="m20 45h24a8 8 0 0 1 8 8v8a0 0 0 0 1 0 0h-40a0 0 0 0 1 0 0v-8a8 8 0 0 1 8-8z" fill="#48a3d2"/><path d="m23 45 2 8 5-4-1-4z" fill="#fff"/><path d="m41 45-2 8-5-4 1-4z" fill="#fff"/><path d="m38 45-6 6-6-6 1-12h10z" fill="#ffcbbe"/><path d="m48 12v10h-32v-10a4 4 0 0 1 4-4h24a4 4 0 0 1 4 4z" fill="#3e3d42"/><path d="m32 41a13 13 0 0 1 -13-13v-9a6 6 0 0 1 2.4-4.8 6 6 0 0 1 3.6-1.2h14a6 6 0 0 1 3.6 1.2 6 6 0 0 1 2.4 4.8v9a13 13 0 0 1 -13 13z" fill="#ffddce"/><path d="m17 19h2a0 0 0 0 1 0 0v7a0 0 0 0 1 0 0h-2a2 2 0 0 1 -2-2v-3a2 2 0 0 1 2-2z" fill="#ffcbbe"/><path d="m47 19h2a0 0 0 0 1 0 0v7a0 0 0 0 1 0 0h-2a2 2 0 0 1 -2-2v-3a2 2 0 0 1 2-2z" fill="#ffcbbe" transform="matrix(-1 0 0 -1 94 45)"/><path d="m47.53 10.12c-.01 0-.01-.01-.01-.02a11.65 11.65 0 0 0 -2.18-1.86 31.382 31.382 0 0 0 -10.22-4.11c-8.07-1.87-15.16-.98-15.85 1.98a2.621 2.621 0 0 0 .38 1.91c1.48 2.56 6.58 5.34 13 6.82 7.13 1.65 13.5 1.15 15.35-1.03v-1.81a3.969 3.969 0 0 0 -.47-1.88c-.01 0-.01-.01-.01-.02z" fill="#3e3d42"/><path d="m44 44h-5.08l-.31-3.67a13.986 13.986 0 0 0 7.39-12.33v-1h1a3.009 3.009 0 0 0 3-3v-3a2.986 2.986 0 0 0 -1-2.22v-6.78a5.034 5.034 0 0 0 -.58-2.34 1.071 1.071 0 0 0 -.15-.22 12.86 12.86 0 0 0 -2.37-2.03 32.1 32.1 0 0 0 -10.55-4.25c-7.55-1.75-16.09-1.39-17.05 2.72a3.142 3.142 0 0 0 .01 1.43 5.008 5.008 0 0 0 -3.31 4.69v6.78a2.986 2.986 0 0 0 -1 2.22v3a3.009 3.009 0 0 0 3 3h1v1a13.986 13.986 0 0 0 7.39 12.33l-.31 3.67h-5.08a9.014 9.014 0 0 0 -9 9v8a1 1 0 0 0 1 1h40a1 1 0 0 0 1-1v-8a9.014 9.014 0 0 0 -9-9zm-4.28 2-1.31 5.25-2.91-2.33 2.91-2.92zm-7.72 3.59-4.96-4.97.28-3.44a13.765 13.765 0 0 0 9.36 0l.28 3.44zm16-28.59v3a1 1 0 0 1 -1 1h-1v-5h1a1 1 0 0 1 1 1zm-27.76-14.66c.43-1.84 6.21-3.19 14.66-1.24a30.889 30.889 0 0 1 9.88 3.97 10.964 10.964 0 0 1 1.91 1.6 2.92 2.92 0 0 1 .31 1.33v6h-1.08a6.939 6.939 0 0 0 -.66-2.13 5.679 5.679 0 0 0 -.51-.87 1.009 1.009 0 0 0 -.98-.41 30.03 30.03 0 0 1 -10.89-.72 37.7 37.7 0 0 1 -5.7-1.79v-.01a22.838 22.838 0 0 1 -4.24-2.21 8.223 8.223 0 0 1 -2.42-2.34 1.7 1.7 0 0 1 -.28-1.18zm-2.24 18.66h-1a1 1 0 0 1 -1-1v-3a1 1 0 0 1 1-1h1zm-1-7v-6a3 3 0 0 1 2.2-2.88 12.833 12.833 0 0 0 3.86 3.17 6.9 6.9 0 0 0 -2.26 1.11 7.049 7.049 0 0 0 -2.72 4.6zm3 10v-9a5 5 0 0 1 5-5h1.6a38.089 38.089 0 0 0 5.82 1.81 33.421 33.421 0 0 0 11 .85c.02.04.04.07.06.11a5.037 5.037 0 0 1 .52 2.23v9a12 12 0 0 1 -24 0zm5.59 18 2.91 2.92-2.91 2.33-1.31-5.25zm25.41 14h-38v-7a7.008 7.008 0 0 1 7-7h2.22l1.81 7.24a1.01 1.01 0 0 0 .65.71 1.127 1.127 0 0 0 .32.05 1.02 1.02 0 0 0 .62-.22l4.31-3.44 1.07 1.07v5.59h2v-5.59l1.07-1.07 4.31 3.44a1.02 1.02 0 0 0 .62.22 1.127 1.127 0 0 0 .32-.05 1.01 1.01 0 0 0 .65-.71l1.81-7.24h2.22a7.008 7.008 0 0 1 7 7z"/><path d="m27 21a1 1 0 0 0 -1 1v2a1 1 0 0 0 2 0v-2a1 1 0 0 0 -1-1z"/><path d="m37 25a1 1 0 0 0 1-1v-2a1 1 0 0 0 -2 0v2a1 1 0 0 0 1 1z"/></svg>