<svg id="Line" height="512" viewBox="0 0 64 64" width="512" xmlns="http://www.w3.org/2000/svg"><path d="m20 45h24a8 8 0 0 1 8 8v8a0 0 0 0 1 0 0h-40a0 0 0 0 1 0 0v-8a8 8 0 0 1 8-8z" fill="#48a3d2"/><path d="m23 45 2 8 5-4-1-4z" fill="#fff"/><path d="m41 45-2 8-5-4 1-4z" fill="#fff"/><path d="m38 45-6 6-6-6 1-12h10z" fill="#ffddce"/><path d="m48 13v10h-32v-10a4 4 0 0 1 4-4h24a4 4 0 0 1 4 4z" fill="#3e3d42"/><path d="m32 41a13 13 0 0 1 -13-13v-9a6 6 0 0 1 2.4-4.8 6 6 0 0 1 3.6-1.2h14a6 6 0 0 1 3.6 1.2 6 6 0 0 1 2.4 4.8v9a13 13 0 0 1 -13 13z" fill="#ffddce"/><path d="m17 19h2a0 0 0 0 1 0 0v7a0 0 0 0 1 0 0h-2a2 2 0 0 1 -2-2v-3a2 2 0 0 1 2-2z" fill="#ffcbbe"/><path d="m47 19h2a0 0 0 0 1 0 0v7a0 0 0 0 1 0 0h-2a2 2 0 0 1 -2-2v-3a2 2 0 0 1 2-2z" fill="#ffcbbe" transform="matrix(-1 0 0 -1 94 45)"/><path d="m48 13v-6a4 4 0 0 0 -4-4h-28v2a8 8 0 0 0 8 8z" fill="#3e3d42"/><path d="m44 44h-5.08l-.31-3.67a13.986 13.986 0 0 0 7.39-12.33v-1h1a3.009 3.009 0 0 0 3-3v-3a2.986 2.986 0 0 0 -1-2.22v-11.78a5 5 0 0 0 -5-5h-28a1 1 0 0 0 -1 1v2a8.945 8.945 0 0 0 1.3 4.64 4.955 4.955 0 0 0 -1.3 3.36v5.78a2.986 2.986 0 0 0 -1 2.22v3a3.009 3.009 0 0 0 3 3h1v1a13.986 13.986 0 0 0 7.39 12.33l-.31 3.67h-5.08a9.014 9.014 0 0 0 -9 9v8a1 1 0 0 0 1 1h40a1 1 0 0 0 1-1v-8a9.014 9.014 0 0 0 -9-9zm-4.28 2-1.31 5.25-2.91-2.33 2.91-2.92zm-7.72 3.59-4.96-4.97.28-3.44a13.765 13.765 0 0 0 9.36 0l.28 3.44zm16-28.59v3a1 1 0 0 1 -1 1h-1v-5h1a1 1 0 0 1 1 1zm-31-17h27a3.009 3.009 0 0 1 3 3v11h-1.08a6.985 6.985 0 0 0 -6.92-6h-15a7.008 7.008 0 0 1 -7-7zm1 21h-1a1 1 0 0 1 -1-1v-3a1 1 0 0 1 1-1h1zm-1-7v-5a2.993 2.993 0 0 1 .56-1.72 9.16 9.16 0 0 0 3.24 2.12 7.072 7.072 0 0 0 -2.72 4.6zm3 10v-9a5 5 0 0 1 5-5h14a5 5 0 0 1 5 5v9a12 12 0 0 1 -24 0zm5.59 18 2.91 2.92-2.91 2.33-1.31-5.25zm25.41 14h-38v-7a7.008 7.008 0 0 1 7-7h2.22l1.81 7.24a1.01 1.01 0 0 0 .65.71 1.127 1.127 0 0 0 .32.05 1.02 1.02 0 0 0 .62-.22l4.31-3.44 1.36 1.37a1.014 1.014 0 0 0 1.42 0l1.36-1.37 4.31 3.44a1.02 1.02 0 0 0 .62.22 1.127 1.127 0 0 0 .32-.05 1.01 1.01 0 0 0 .65-.71l1.81-7.24h2.22a7.008 7.008 0 0 1 7 7z"/><path d="m27 21a1 1 0 0 0 -1 1v2a1 1 0 0 0 2 0v-2a1 1 0 0 0 -1-1z"/><path d="m37 25a1 1 0 0 0 1-1v-2a1 1 0 0 0 -2 0v2a1 1 0 0 0 1 1z"/></svg>