<svg id="Line" height="512" viewBox="0 0 64 64" width="512" xmlns="http://www.w3.org/2000/svg"><g fill="#ffcbbe"><path d="m44 49h-6.387a5.7 5.7 0 0 0 .035-.99l-.648-11.01h-10l-.648 11.01a5.7 5.7 0 0 0 .035.99h-6.387a8 8 0 0 0 -8 8v4h40v-4a8 8 0 0 0 -8-8z"/><path d="m17 23h2a0 0 0 0 1 0 0v7a0 0 0 0 1 0 0h-2a2 2 0 0 1 -2-2v-3a2 2 0 0 1 2-2z"/><path d="m47 23h2a0 0 0 0 1 0 0v7a0 0 0 0 1 0 0h-2a2 2 0 0 1 -2-2v-3a2 2 0 0 1 2-2z" transform="matrix(-1 0 0 -1 94 53)"/></g><rect fill="#ffddce" height="38" rx="13" width="26" x="19" y="7"/><path d="m35 17h-6l-3-14h12z" fill="#3e3d42"/><path d="m44 48h-5.35v-.05l-.21-3.53a14.02 14.02 0 0 0 7.56-12.42v-1h1a3.009 3.009 0 0 0 3-3v-3a3.009 3.009 0 0 0 -3-3h-1v-2a13.9 13.9 0 0 0 -7.92-12.59l.9-4.2a1 1 0 0 0 -.98-1.21h-12a1 1 0 0 0 -.98 1.21l.9 4.19a13.923 13.923 0 0 0 -7.92 12.6v2h-1a3.009 3.009 0 0 0 -3 3v3a3.009 3.009 0 0 0 3 3h1v1a14.02 14.02 0 0 0 7.56 12.42l-.21 3.53v.05h-5.35a9.014 9.014 0 0 0 -9 9v4a1 1 0 0 0 1 1h40a1 1 0 0 0 1-1v-4a9.014 9.014 0 0 0 -9-9zm2-24h1a1 1 0 0 1 1 1v3a1 1 0 0 1 -1 1h-1zm-28 5h-1a1 1 0 0 1 -1-1v-3a1 1 0 0 1 1-1h1zm18.76-25-2.57 12h-4.38l-2.57-12zm-16.76 28v-12a11.95 11.95 0 0 1 6.35-10.58l1.67 7.79a1 1 0 0 0 .98.79h6a1 1 0 0 0 .98-.79l1.67-7.8a12.075 12.075 0 0 1 6.35 10.59v12a12 12 0 0 1 -24 0zm31 28h-38v-3a7.008 7.008 0 0 1 7-7h6.39a.981.981 0 0 0 .75-.34.968.968 0 0 0 .24-.78 4.581 4.581 0 0 1 -.03-.81l.17-2.82a13.755 13.755 0 0 0 8.96 0l.17 2.82a3.791 3.791 0 0 1 -.03.81.968.968 0 0 0 .24.78.981.981 0 0 0 .75.34h6.39a7.008 7.008 0 0 1 7 7z"/><path d="m27 25a1 1 0 0 0 -1 1v2a1 1 0 0 0 2 0v-2a1 1 0 0 0 -1-1z"/><path d="m37 29a1 1 0 0 0 1-1v-2a1 1 0 0 0 -2 0v2a1 1 0 0 0 1 1z"/></svg>