<svg id="Line" height="512" viewBox="0 0 64 64" width="512" xmlns="http://www.w3.org/2000/svg"><path d="m20 45h24a8 8 0 0 1 8 8v8a0 0 0 0 1 0 0h-40a0 0 0 0 1 0 0v-8a8 8 0 0 1 8-8z" fill="#ffcbbe"/><path d="m20 45h24v16h-24z" fill="#ef8746"/><path d="m32 50a5.658 5.658 0 0 1 -5.648-5.99l.648-11.01h10l.648 11.01a5.658 5.658 0 0 1 -5.648 5.99z" fill="#ffcbbe"/><path d="m47 20h-30l-1-17h7l3 3 3-3h19z" fill="#3e3d42"/><path d="m17 19h2a0 0 0 0 1 0 0v7a0 0 0 0 1 0 0h-2a2 2 0 0 1 -2-2v-3a2 2 0 0 1 2-2z" fill="#ffcbbe"/><path d="m47 19h2a0 0 0 0 1 0 0v7a0 0 0 0 1 0 0h-2a2 2 0 0 1 -2-2v-3a2 2 0 0 1 2-2z" fill="#ffcbbe" transform="matrix(-1 0 0 -1 94 45)"/><path d="m32 41a13 13 0 0 1 -13-13v-9a6 6 0 0 1 2.4-4.8 6 6 0 0 1 3.6-1.2h14a6 6 0 0 1 3.6 1.2 6 6 0 0 1 2.4 4.8v9a13 13 0 0 1 -13 13z" fill="#ffddce"/><path d="m44 44h-5.35v-.05l-.21-3.53a14.02 14.02 0 0 0 7.56-12.42v-1h1a3.009 3.009 0 0 0 3-3v-3a3 3 0 0 0 -1.89-2.78l.89-15.16a1.024 1.024 0 0 0 -.27-.75 1 1 0 0 0 -.73-.31h-19a1.033 1.033 0 0 0 -.71.29l-2.29 2.3-2.29-2.3a1.033 1.033 0 0 0 -.71-.29h-7a1 1 0 0 0 -.73.31 1.024 1.024 0 0 0 -.27.75l.89 15.16a3 3 0 0 0 -1.89 2.78v3a3.009 3.009 0 0 0 3 3h1v1a14.02 14.02 0 0 0 7.56 12.42l-.21 3.53v.05h-5.35a9.014 9.014 0 0 0 -9 9v8a1 1 0 0 0 1 1h40a1 1 0 0 0 1-1v-8a9.014 9.014 0 0 0 -9-9zm-25 16h-6v-7a7 7 0 0 1 6-6.92zm29-39v3a1 1 0 0 1 -1 1h-1v-5h1a1 1 0 0 1 1 1zm-30 4h-1a1 1 0 0 1 -1-1v-3a1 1 0 0 1 1-1h1zm-.12-7-.82-14h5.53l2.7 2.71a1.008 1.008 0 0 0 1.42 0l2.7-2.71h17.53l-.82 14h-.2a6.985 6.985 0 0 0 -6.92-6h-14a6.985 6.985 0 0 0 -6.92 6zm2.12 10v-9a5 5 0 0 1 5-5h14a5 5 0 0 1 5 5v9a12 12 0 0 1 -24 0zm16.65 16.07a4.658 4.658 0 1 1 -9.3 0l.17-2.82a13.755 13.755 0 0 0 8.96 0zm6.35 15.93h-22v-14h4.55a6.662 6.662 0 0 0 12.9 0h4.55zm8 0h-6v-13.92a7 7 0 0 1 6 6.92z"/><path d="m27 21a1 1 0 0 0 -1 1v2a1 1 0 0 0 2 0v-2a1 1 0 0 0 -1-1z"/><path d="m37 25a1 1 0 0 0 1-1v-2a1 1 0 0 0 -2 0v2a1 1 0 0 0 1 1z"/></svg>