<svg id="Line" height="512" viewBox="0 0 64 64" width="512" xmlns="http://www.w3.org/2000/svg"><path d="m20 45h24a8 8 0 0 1 8 8v8a0 0 0 0 1 0 0h-40a0 0 0 0 1 0 0v-8a8 8 0 0 1 8-8z" fill="#48a3d2"/><path d="m23 45 2 8 5-4-1-4z" fill="#5bcbfa"/><path d="m41 45-2 8-5-4 1-4z" fill="#5bcbfa"/><g fill="#ffcbbe"><path d="m38 45-6 6-6-6 1-12h10z"/><path d="m17 19h2a0 0 0 0 1 0 0v7a0 0 0 0 1 0 0h-2a2 2 0 0 1 -2-2v-3a2 2 0 0 1 2-2z"/><path d="m47 19h2a0 0 0 0 1 0 0v7a0 0 0 0 1 0 0h-2a2 2 0 0 1 -2-2v-3a2 2 0 0 1 2-2z" transform="matrix(-1 0 0 -1 94 45)"/></g><rect fill="#ffddce" height="38" rx="13" width="26" x="19" y="3"/><path d="m44 44h-5.08l-.31-3.67a13.986 13.986 0 0 0 7.39-12.33v-1h1a3.009 3.009 0 0 0 3-3v-3a3.009 3.009 0 0 0 -3-3h-1v-2a14 14 0 0 0 -28 0v2h-1a3.009 3.009 0 0 0 -3 3v3a3.009 3.009 0 0 0 3 3h1v1a13.986 13.986 0 0 0 7.39 12.33l-.31 3.67h-5.08a9.014 9.014 0 0 0 -9 9v8a1 1 0 0 0 1 1h40a1 1 0 0 0 1-1v-8a9.014 9.014 0 0 0 -9-9zm2-24h1a1 1 0 0 1 1 1v3a1 1 0 0 1 -1 1h-1zm-28 5h-1a1 1 0 0 1 -1-1v-3a1 1 0 0 1 1-1h1zm21.72 21-1.31 5.25-2.91-2.33 2.91-2.92zm-7.72 3.59-4.96-4.97.28-3.44a13.765 13.765 0 0 0 9.36 0l.28 3.44zm-12-21.59v-12a12 12 0 0 1 24 0v12a12 12 0 0 1 -24 0zm5.59 18 2.91 2.92-2.91 2.33-1.31-5.25zm25.41 14h-38v-7a7.008 7.008 0 0 1 7-7h2.22l1.81 7.24a1.01 1.01 0 0 0 .65.71 1.127 1.127 0 0 0 .32.05 1.02 1.02 0 0 0 .62-.22l4.31-3.44 1.07 1.07v5.59h2v-5.59l1.07-1.07 4.31 3.44a1.02 1.02 0 0 0 .62.22 1.127 1.127 0 0 0 .32-.05 1.01 1.01 0 0 0 .65-.71l1.81-7.24h2.22a7.008 7.008 0 0 1 7 7z"/><path d="m27 21a1 1 0 0 0 -1 1v2a1 1 0 0 0 2 0v-2a1 1 0 0 0 -1-1z"/><path d="m37 25a1 1 0 0 0 1-1v-2a1 1 0 0 0 -2 0v2a1 1 0 0 0 1 1z"/></svg>