<svg id="Line" height="512" viewBox="0 0 64 64" width="512" xmlns="http://www.w3.org/2000/svg"><path d="m17 19h2a0 0 0 0 1 0 0v7a0 0 0 0 1 0 0h-2a2 2 0 0 1 -2-2v-3a2 2 0 0 1 2-2z" fill="#ffcbbe"/><path d="m20 45h24a8 8 0 0 1 8 8v8a0 0 0 0 1 0 0h-40a0 0 0 0 1 0 0v-8a8 8 0 0 1 8-8z" fill="#6fc991"/><path d="m32 50a5.658 5.658 0 0 1 -5.648-5.99l.648-11.01h10l.648 11.01a5.658 5.658 0 0 1 -5.648 5.99z" fill="#ffcbbe"/><rect fill="#ffddce" height="38" rx="13" width="26" x="19" y="4"/><path d="m47 19h2a0 0 0 0 1 0 0v7a0 0 0 0 1 0 0h-2a2 2 0 0 1 -2-2v-3a2 2 0 0 1 2-2z" fill="#ffcbbe" transform="matrix(-1 0 0 -1 94 45)"/><path d="m32 3a15 15 0 0 0 -15 15v1h2.5l1.394-2.789a4 4 0 0 1 3.578-2.211h6.528a6 6 0 0 0 6-6 5 5 0 0 0 4 4.9 2.083 2.083 0 0 1 1.487 1.082l2.513 5.018h2v-1a15 15 0 0 0 -15-15z" fill="#3e3d42"/><path d="m44 44h-5.35v-.05l-.15-2.56a14.051 14.051 0 0 0 7.5-12.39v-2h1a3.009 3.009 0 0 0 3-3v-3a3.01 3.01 0 0 0 -2-2.82v-.18a16 16 0 0 0 -32 0v.18a3.01 3.01 0 0 0 -2 2.82v3a3.009 3.009 0 0 0 3 3h1v2a13.936 13.936 0 0 0 4.1 9.9 14.379 14.379 0 0 0 3.4 2.49l-.15 2.56v.05h-5.35a9.014 9.014 0 0 0 -9 9v8a1 1 0 0 0 1 1h40a1 1 0 0 0 1-1v-8a9.014 9.014 0 0 0 -9-9zm4-23v3a1 1 0 0 1 -1 1h-1v-5h1a1 1 0 0 1 1 1zm-30 4h-1a1 1 0 0 1 -1-1v-3a1 1 0 0 1 1-1h1zm0-7a14.033 14.033 0 0 1 14-14 14.015 14.015 0 0 1 14 14h-.38l-2.24-4.47a3.1 3.1 0 0 0 -2.18-1.61 4.028 4.028 0 0 1 -2.29-1.38 3.972 3.972 0 0 1 -.91-2.54 1 1 0 0 0 -2 0 5 5 0 0 1 -5 5h-6.53a5.038 5.038 0 0 0 -4.47 2.76l-1.12 2.24zm5.52 19.48a11.915 11.915 0 0 1 -3.52-8.48v-8.76l1.78-3.58a3.044 3.044 0 0 1 2.69-1.66h6.53a7 7 0 0 0 6.09-3.55c.09.13.18.25.28.37a6.041 6.041 0 0 0 3.43 2.06 1.09 1.09 0 0 1 .8.55l2.4 4.81v9.76a12 12 0 0 1 -17.04 10.89 11.861 11.861 0 0 1 -3.44-2.41zm13.13 6.59a4.658 4.658 0 1 1 -9.3 0l.11-1.83a13.94 13.94 0 0 0 9.08 0zm14.35 15.93h-38v-7a7.008 7.008 0 0 1 7-7h5.55a6.662 6.662 0 0 0 12.9 0h5.55a7.008 7.008 0 0 1 7 7z"/><path d="m28 24v-2a1 1 0 0 0 -2 0v2a1 1 0 0 0 2 0z"/><path d="m37 25a1 1 0 0 0 1-1v-2a1 1 0 0 0 -2 0v2a1 1 0 0 0 1 1z"/><rect height="2" rx="1" width="2" x="31" y="53"/><rect height="2" rx="1" width="2" x="31" y="57"/></svg>