<svg id="Line" height="512" viewBox="0 0 64 64" width="512" xmlns="http://www.w3.org/2000/svg"><path d="m20 45h24a8 8 0 0 1 8 8v8a0 0 0 0 1 0 0h-40a0 0 0 0 1 0 0v-8a8 8 0 0 1 8-8z" fill="#896ff7"/><path d="m32 50a5.658 5.658 0 0 1 -5.648-5.99l.648-11.01h10l.648 11.01a5.658 5.658 0 0 1 -5.648 5.99z" fill="#ffcbbe"/><path d="m44 7h-.023a4.957 4.957 0 0 0 -6.841-1.09 5.987 5.987 0 0 0 -10.272 0 4.957 4.957 0 0 0 -6.841 1.09h-.023a4 4 0 0 0 -4 4v14h32v-14a4 4 0 0 0 -4-4z" fill="#3e3d42"/><path d="m29 49-.92.73-4.08 3.27-2.37-7.9a2 2 0 0 1 1.52-2.53l3.24-.48z" fill="#a094f7"/><path d="m35 49 2.61-6.91 3.24.48a2 2 0 0 1 1.52 2.53l-2.37 7.9-4.08-3.27z" fill="#a094f7"/><path d="m32 41a13 13 0 0 1 -13-13v-9a6 6 0 0 1 2.4-4.8 6 6 0 0 1 3.6-1.2h14a6 6 0 0 1 3.6 1.2 6 6 0 0 1 2.4 4.8v9a13 13 0 0 1 -13 13z" fill="#ffddce"/><path d="m17 19h2a0 0 0 0 1 0 0v7a0 0 0 0 1 0 0h-2a2 2 0 0 1 -2-2v-3a2 2 0 0 1 2-2z" fill="#ffcbbe"/><path d="m47 19h2a0 0 0 0 1 0 0v7a0 0 0 0 1 0 0h-2a2 2 0 0 1 -2-2v-3a2 2 0 0 1 2-2z" fill="#ffcbbe" transform="matrix(-1 0 0 -1 94 45)"/><path d="m44 44h-.606a2.96 2.96 0 0 0 -.366-1.009 3.021 3.021 0 0 0 -2.028-1.41l-2.509-.372-.049-.791a14 14 0 0 0 7.558-12.418v-1h1a3 3 0 0 0 3-3v-3a2.985 2.985 0 0 0 -1-2.22v-7.78a5.007 5.007 0 0 0 -4.53-4.976 5.949 5.949 0 0 0 -7.043-1.439 6.989 6.989 0 0 0 -10.854 0 5.95 5.95 0 0 0 -7.042 1.437 5.006 5.006 0 0 0 -4.531 4.978v7.78a2.985 2.985 0 0 0 -1 2.22v3a3 3 0 0 0 3 3h1v1a14 14 0 0 0 7.562 12.418l-.049.791-2.559.38a3 3 0 0 0 -1.982 1.4 2.96 2.96 0 0 0 -.366 1.011h-.606a9.01 9.01 0 0 0 -9 9v8a1 1 0 0 0 1 1h40a1 1 0 0 0 1-1v-8a9.01 9.01 0 0 0 -9-9zm-2.688.018a.974.974 0 0 1 .1.794l-1.943 6.48-3.276-2.622 2.068-5.47 2.392.353a.985.985 0 0 1 .659.465zm6.688-20.018a1 1 0 0 1 -1 1h-1v-5h1a1 1 0 0 1 1 1zm-31-13a3.008 3.008 0 0 1 3.022-3 1 1 0 0 0 .8-.4 3.957 3.957 0 0 1 5.469-.874 1 1 0 0 0 1.431-.3 4.987 4.987 0 0 1 8.56 0 1 1 0 0 0 .651.462.993.993 0 0 0 .78-.16 3.957 3.957 0 0 1 5.467.872 1.044 1.044 0 0 0 .82.4 3 3 0 0 1 3 3v7h-1.081a6.983 6.983 0 0 0 -6.919-6h-14a6.985 6.985 0 0 0 -6.919 6h-1.081zm0 14a1 1 0 0 1 -1-1v-3a1 1 0 0 1 1-1h1v5zm3 3v-9a5 5 0 0 1 5-5h14a5 5 0 0 1 5 5v9a12 12 0 0 1 -24 0zm12 14a13.947 13.947 0 0 0 4.486-.75l.052.848-2.409 6.377a4.774 4.774 0 0 1 -4.258 0l-2.409-6.375.052-.848a13.947 13.947 0 0 0 4.486.748zm-9.313 2.018a.972.972 0 0 1 .61-.459l2.442-.362 2.068 5.473-.349.277-2.924 2.342-1.947-6.479a.978.978 0 0 1 .1-.792zm28.313 15.982h-38v-7a7.008 7.008 0 0 1 7-7h.856l2.186 7.288a1 1 0 0 0 1.583.492l4.375-3.502a6.577 6.577 0 0 0 5.992 0l4.379 3.5a1 1 0 0 0 1.583-.492l2.19-7.286h.856a7.008 7.008 0 0 1 7 7z"/><path d="m27 21a1 1 0 0 0 -1 1v2a1 1 0 0 0 2 0v-2a1 1 0 0 0 -1-1z"/><path d="m37 25a1 1 0 0 0 1-1v-2a1 1 0 0 0 -2 0v2a1 1 0 0 0 1 1z"/></svg>