<svg id="Capa_1" enable-background="new 0 0 511.013 511.013" height="512" viewBox="0 0 511.013 511.013" width="512" xmlns="http://www.w3.org/2000/svg"><g><path d="m361.589 252.244-37.341-52.718c-3.136-4.427-8.224-7.058-13.65-7.058h-12.832v-53.56h-84.521v53.56h-12.865c-5.427 0-10.517 2.633-13.652 7.063l-37.319 52.72c-10.151 14.34-15.602 31.476-15.602 49.045v188.974c0 9.238 7.489 16.727 16.727 16.727h209.946c9.238 0 16.727-7.488 16.727-16.727v-188.961c-.001-17.577-5.458-34.722-15.618-49.065z" fill="#e9c278"/><g fill="#f9fbfc"><path d="m356.055 251.281c0 1.692 1.372 3.065 3.065 3.065 1.204 0 2.235-.7 2.736-1.71-.091-.129-.175-.263-.266-.392l-2.827-3.992c-1.523.179-2.708 1.459-2.708 3.029z"/><path d="m359.12 267.974c-1.693 0-3.065 1.372-3.065 3.065 0 1.692 1.372 3.065 3.065 3.065s3.065-1.372 3.065-3.065c-.001-1.692-1.373-3.065-3.065-3.065z"/><path d="m369.371 277.482c-1.693 0-3.065 1.372-3.065 3.065 0 1.692 1.372 3.065 3.065 3.065s3.065-1.372 3.065-3.065c0-1.694-1.373-3.065-3.065-3.065z"/><path d="m359.12 287.732c-1.693 0-3.065 1.372-3.065 3.065s1.372 3.065 3.065 3.065 3.065-1.372 3.065-3.065c-.001-1.692-1.373-3.065-3.065-3.065z"/><path d="m369.371 297.24c-1.693 0-3.065 1.372-3.065 3.065s1.372 3.065 3.065 3.065 3.065-1.372 3.065-3.065-1.373-3.065-3.065-3.065z"/><path d="m359.12 307.491c-1.693 0-3.065 1.372-3.065 3.065s1.372 3.065 3.065 3.065 3.065-1.372 3.065-3.065c-.001-1.693-1.373-3.065-3.065-3.065z"/><path d="m369.371 316.998c-1.693 0-3.065 1.372-3.065 3.065 0 1.692 1.372 3.065 3.065 3.065s3.065-1.372 3.065-3.065-1.373-3.065-3.065-3.065z"/><path d="m359.12 327.249c-1.693 0-3.065 1.372-3.065 3.065 0 1.692 1.372 3.065 3.065 3.065s3.065-1.372 3.065-3.065c-.001-1.693-1.373-3.065-3.065-3.065z"/><path d="m369.371 336.756c-1.693 0-3.065 1.372-3.065 3.065s1.372 3.065 3.065 3.065 3.065-1.372 3.065-3.065c0-1.692-1.373-3.065-3.065-3.065z"/><path d="m359.12 347.008c-1.693 0-3.065 1.372-3.065 3.065 0 1.692 1.372 3.065 3.065 3.065s3.065-1.372 3.065-3.065c-.001-1.693-1.373-3.065-3.065-3.065z"/><path d="m369.371 356.515c-1.693 0-3.065 1.372-3.065 3.065 0 1.692 1.372 3.065 3.065 3.065s3.065-1.372 3.065-3.065-1.373-3.065-3.065-3.065z"/><path d="m359.12 366.766c-1.693 0-3.065 1.372-3.065 3.065s1.372 3.065 3.065 3.065 3.065-1.372 3.065-3.065c-.001-1.693-1.373-3.065-3.065-3.065z"/><path d="m369.371 376.273c-1.693 0-3.065 1.372-3.065 3.065s1.372 3.065 3.065 3.065 3.065-1.372 3.065-3.065-1.373-3.065-3.065-3.065z"/><path d="m359.12 386.524c-1.693 0-3.065 1.372-3.065 3.065s1.372 3.065 3.065 3.065 3.065-1.372 3.065-3.065c-.001-1.693-1.373-3.065-3.065-3.065z"/><path d="m369.371 396.032c-1.693 0-3.065 1.372-3.065 3.065 0 1.692 1.372 3.065 3.065 3.065s3.065-1.372 3.065-3.065-1.373-3.065-3.065-3.065z"/><path d="m359.12 406.282c-1.693 0-3.065 1.372-3.065 3.065 0 1.692 1.372 3.065 3.065 3.065s3.065-1.372 3.065-3.065c-.001-1.692-1.373-3.065-3.065-3.065z"/><path d="m369.371 415.79c-1.693 0-3.065 1.372-3.065 3.065s1.372 3.065 3.065 3.065 3.065-1.372 3.065-3.065-1.373-3.065-3.065-3.065z"/><path d="m359.12 426.041c-1.693 0-3.065 1.372-3.065 3.065 0 1.692 1.372 3.065 3.065 3.065s3.065-1.372 3.065-3.065c-.001-1.693-1.373-3.065-3.065-3.065z"/><path d="m369.371 435.548c-1.693 0-3.065 1.372-3.065 3.065 0 1.692 1.372 3.065 3.065 3.065s3.065-1.372 3.065-3.065-1.373-3.065-3.065-3.065z"/><path d="m359.12 445.799c-1.693 0-3.065 1.372-3.065 3.065s1.372 3.065 3.065 3.065 3.065-1.372 3.065-3.065c-.001-1.693-1.373-3.065-3.065-3.065z"/><path d="m369.371 455.306c-1.693 0-3.065 1.372-3.065 3.065s1.372 3.065 3.065 3.065 3.065-1.372 3.065-3.065c0-1.692-1.373-3.065-3.065-3.065z"/><path d="m359.12 465.558c-1.693 0-3.065 1.372-3.065 3.065 0 1.692 1.372 3.065 3.065 3.065s3.065-1.372 3.065-3.065c-.001-1.693-1.373-3.065-3.065-3.065z"/><path d="m369.371 475.065c-1.693 0-3.065 1.372-3.065 3.065 0 1.692 1.372 3.065 3.065 3.065s3.065-1.372 3.065-3.065-1.373-3.065-3.065-3.065z"/><path d="m359.12 485.316c-1.693 0-3.065 1.372-3.065 3.065s1.372 3.065 3.065 3.065 3.065-1.372 3.065-3.065c-.001-1.693-1.373-3.065-3.065-3.065z"/><path d="m369.371 494.823c-1.693 0-3.065 1.372-3.065 3.065s1.372 3.065 3.065 3.065 3.065-1.372 3.065-3.065-1.373-3.065-3.065-3.065z"/><path d="m339.361 228.458c-1.693 0-3.065 1.372-3.065 3.065s1.372 3.065 3.065 3.065 3.065-1.372 3.065-3.065-1.372-3.065-3.065-3.065z"/><path d="m349.612 237.965c-1.693 0-3.065 1.372-3.065 3.065s1.372 3.065 3.065 3.065 3.065-1.372 3.065-3.065-1.372-3.065-3.065-3.065z"/><path d="m339.361 248.216c-1.693 0-3.065 1.372-3.065 3.065 0 1.692 1.372 3.065 3.065 3.065s3.065-1.372 3.065-3.065-1.372-3.065-3.065-3.065z"/><path d="m349.612 257.723c-1.693 0-3.065 1.372-3.065 3.065s1.372 3.065 3.065 3.065 3.065-1.372 3.065-3.065-1.372-3.065-3.065-3.065z"/><path d="m339.361 267.974c-1.693 0-3.065 1.372-3.065 3.065 0 1.692 1.372 3.065 3.065 3.065s3.065-1.372 3.065-3.065c0-1.692-1.372-3.065-3.065-3.065z"/><path d="m349.612 277.482c-1.693 0-3.065 1.372-3.065 3.065 0 1.692 1.372 3.065 3.065 3.065s3.065-1.372 3.065-3.065c0-1.694-1.372-3.065-3.065-3.065z"/><path d="m339.361 287.732c-1.693 0-3.065 1.372-3.065 3.065s1.372 3.065 3.065 3.065 3.065-1.372 3.065-3.065c0-1.692-1.372-3.065-3.065-3.065z"/><path d="m349.612 297.24c-1.693 0-3.065 1.372-3.065 3.065s1.372 3.065 3.065 3.065 3.065-1.372 3.065-3.065-1.372-3.065-3.065-3.065z"/><path d="m339.361 307.491c-1.693 0-3.065 1.372-3.065 3.065s1.372 3.065 3.065 3.065 3.065-1.372 3.065-3.065-1.372-3.065-3.065-3.065z"/><path d="m349.612 316.998c-1.693 0-3.065 1.372-3.065 3.065 0 1.692 1.372 3.065 3.065 3.065s3.065-1.372 3.065-3.065-1.372-3.065-3.065-3.065z"/><path d="m339.361 327.249c-1.693 0-3.065 1.372-3.065 3.065 0 1.692 1.372 3.065 3.065 3.065s3.065-1.372 3.065-3.065-1.372-3.065-3.065-3.065z"/><path d="m349.612 336.756c-1.693 0-3.065 1.372-3.065 3.065s1.372 3.065 3.065 3.065 3.065-1.372 3.065-3.065c0-1.692-1.372-3.065-3.065-3.065z"/><path d="m339.361 347.008c-1.693 0-3.065 1.372-3.065 3.065 0 1.692 1.372 3.065 3.065 3.065s3.065-1.372 3.065-3.065-1.372-3.065-3.065-3.065z"/><path d="m349.612 356.515c-1.693 0-3.065 1.372-3.065 3.065 0 1.692 1.372 3.065 3.065 3.065s3.065-1.372 3.065-3.065-1.372-3.065-3.065-3.065z"/><path d="m339.361 366.766c-1.693 0-3.065 1.372-3.065 3.065s1.372 3.065 3.065 3.065 3.065-1.372 3.065-3.065-1.372-3.065-3.065-3.065z"/><path d="m349.612 376.273c-1.693 0-3.065 1.372-3.065 3.065s1.372 3.065 3.065 3.065 3.065-1.372 3.065-3.065-1.372-3.065-3.065-3.065z"/><path d="m339.361 386.524c-1.693 0-3.065 1.372-3.065 3.065s1.372 3.065 3.065 3.065 3.065-1.372 3.065-3.065-1.372-3.065-3.065-3.065z"/><path d="m349.612 396.032c-1.693 0-3.065 1.372-3.065 3.065 0 1.692 1.372 3.065 3.065 3.065s3.065-1.372 3.065-3.065-1.372-3.065-3.065-3.065z"/><path d="m339.361 406.282c-1.693 0-3.065 1.372-3.065 3.065 0 1.692 1.372 3.065 3.065 3.065s3.065-1.372 3.065-3.065c0-1.692-1.372-3.065-3.065-3.065z"/><path d="m349.612 415.79c-1.693 0-3.065 1.372-3.065 3.065s1.372 3.065 3.065 3.065 3.065-1.372 3.065-3.065-1.372-3.065-3.065-3.065z"/><path d="m339.361 426.041c-1.693 0-3.065 1.372-3.065 3.065 0 1.692 1.372 3.065 3.065 3.065s3.065-1.372 3.065-3.065-1.372-3.065-3.065-3.065z"/><path d="m349.612 435.548c-1.693 0-3.065 1.372-3.065 3.065 0 1.692 1.372 3.065 3.065 3.065s3.065-1.372 3.065-3.065-1.372-3.065-3.065-3.065z"/><path d="m339.361 445.799c-1.693 0-3.065 1.372-3.065 3.065s1.372 3.065 3.065 3.065 3.065-1.372 3.065-3.065-1.372-3.065-3.065-3.065z"/><path d="m349.612 455.306c-1.693 0-3.065 1.372-3.065 3.065s1.372 3.065 3.065 3.065 3.065-1.372 3.065-3.065c0-1.692-1.372-3.065-3.065-3.065z"/><path d="m339.361 465.558c-1.693 0-3.065 1.372-3.065 3.065 0 1.692 1.372 3.065 3.065 3.065s3.065-1.372 3.065-3.065-1.372-3.065-3.065-3.065z"/><path d="m349.612 475.065c-1.693 0-3.065 1.372-3.065 3.065 0 1.692 1.372 3.065 3.065 3.065s3.065-1.372 3.065-3.065-1.372-3.065-3.065-3.065z"/><path d="m339.361 485.316c-1.693 0-3.065 1.372-3.065 3.065s1.372 3.065 3.065 3.065 3.065-1.372 3.065-3.065-1.372-3.065-3.065-3.065z"/><path d="m349.612 494.823c-1.693 0-3.065 1.372-3.065 3.065s1.372 3.065 3.065 3.065 3.065-1.372 3.065-3.065-1.372-3.065-3.065-3.065z"/><path d="m319.603 208.699c-1.693 0-3.065 1.372-3.065 3.065 0 1.692 1.372 3.065 3.065 3.065s3.065-1.372 3.065-3.065-1.372-3.065-3.065-3.065z"/><path d="m329.854 224.336c1.693 0 3.065-1.372 3.065-3.065 0-1.692-1.372-3.065-3.065-3.065s-3.065 1.372-3.065 3.065 1.372 3.065 3.065 3.065z"/><path d="m319.603 228.458c-1.693 0-3.065 1.372-3.065 3.065s1.372 3.065 3.065 3.065 3.065-1.372 3.065-3.065-1.372-3.065-3.065-3.065z"/><path d="m329.854 244.094c1.693 0 3.065-1.372 3.065-3.065s-1.372-3.065-3.065-3.065-3.065 1.372-3.065 3.065c0 1.694 1.372 3.065 3.065 3.065z"/><path d="m329.854 263.853c1.693 0 3.065-1.372 3.065-3.065 0-1.692-1.372-3.065-3.065-3.065s-3.065 1.372-3.065 3.065 1.372 3.065 3.065 3.065z"/><path d="m319.6 254.331c1.693 0 3.065-1.372 3.065-3.065 0-1.692-1.372-3.065-3.065-3.065s-3.065 1.372-3.065 3.065c.001 1.693 1.373 3.065 3.065 3.065z"/><path d="m310.096 198.448c-1.693 0-3.065 1.372-3.065 3.065 0 1.692 1.372 3.065 3.065 3.065s3.065-1.372 3.065-3.065-1.373-3.065-3.065-3.065z"/><path d="m299.845 208.699c-1.693 0-3.065 1.372-3.065 3.065 0 1.692 1.372 3.065 3.065 3.065s3.065-1.372 3.065-3.065c-.001-1.693-1.373-3.065-3.065-3.065z"/><path d="m310.096 218.206c-1.693 0-3.065 1.372-3.065 3.065s1.372 3.065 3.065 3.065 3.065-1.372 3.065-3.065c0-1.692-1.373-3.065-3.065-3.065z"/><path d="m287.273 201.513c0 1.692 1.372 3.065 3.065 3.065s3.065-1.372 3.065-3.065-1.372-3.065-3.065-3.065-3.065 1.372-3.065 3.065z"/></g><path d="m267.757 4.015h-24.501l-12.25 122.226h49.001z" fill="#e9c278"/><path d="m307.513 165.78h-104.013c-6.797 0-12.307-5.51-12.307-12.307v-37.307c0-6.797 5.51-12.307 12.307-12.307h104.013c6.797 0 12.307 5.51 12.307 12.307v37.307c0 6.797-5.51 12.307-12.307 12.307z" fill="#f9fbfc"/><path d="m322.463 447.138h-133.913c-7.041 0-12.749-5.708-12.749-12.749v-97.488c0-43.855 35.552-79.407 79.407-79.407h.597c43.855 0 79.407 35.552 79.407 79.407v97.488c0 7.041-5.708 12.749-12.749 12.749z" fill="#f9fbfc"/><g fill="#31373d"><path d="m299.94 332.969h-88.867c-2.217 0-4.015-1.798-4.015-4.015s1.798-4.015 4.015-4.015h88.867c2.217 0 4.015 1.798 4.015 4.015s-1.798 4.015-4.015 4.015z"/><path d="m299.94 368.699h-88.867c-2.217 0-4.015-1.798-4.015-4.015s1.798-4.015 4.015-4.015h88.867c2.217 0 4.015 1.798 4.015 4.015s-1.798 4.015-4.015 4.015z"/><path d="m364.866 249.922-37.342-52.718c-3.882-5.48-10.209-8.753-16.925-8.753h-8.817v-18.657h5.685c9.025 0 16.368-7.343 16.368-16.369v-37.214c0-9.026-7.343-16.369-16.368-16.369h-26.07l-9.644-96.229c-.207-2.051-1.934-3.613-3.996-3.613h-24.501c-2.062 0-3.79 1.562-3.995 3.615l-9.645 96.229h-26.07c-9.025 0-16.368 7.343-16.368 16.369v37.214c0 9.026 7.343 16.369 16.368 16.369h5.685v18.657h-8.85c-6.719 0-13.048 3.274-16.929 8.757l-37.319 52.721c-10.69 15.102-16.34 32.863-16.34 51.365v188.975c0 11.437 9.305 20.742 20.742 20.742h209.946c11.437 0 20.742-9.304 20.742-20.742v-188.962c-.002-18.511-5.657-36.279-16.357-51.387zm-73.833-142.048h16.434c4.597 0 8.338 3.741 8.338 8.339v37.214c0 4.598-3.741 8.339-8.338 8.339h-16.434zm-8.03 0v53.891h-23.482v-53.891zm-36.114-99.844h17.235l9.202 91.814h-35.639zm-19.867 99.844h24.47v53.891h-24.47zm-31.814 45.552v-37.214c0-4.598 3.741-8.339 8.338-8.339h15.445v53.891h-15.445c-4.598.001-8.338-3.739-8.338-8.338zm22.053 16.369h76.491v18.657h-76.491zm155.93 320.476c0 7.01-5.702 12.712-12.712 12.712h-209.946c-7.009 0-12.712-5.702-12.712-12.712v-188.975c0-16.831 5.14-32.988 14.864-46.725l37.32-52.722c2.378-3.36 6.257-5.367 10.375-5.367h110.219c4.115 0 7.993 2.006 10.373 5.365l37.341 52.717c9.734 13.743 14.878 29.907 14.878 46.745z"/></g></g></svg>