<svg id="Capa_1" enable-background="new 0 0 510.754 510.754" height="512" viewBox="0 0 510.754 510.754" width="512" xmlns="http://www.w3.org/2000/svg"><g><path d="m154.732 506.75h-.262c-11.518 0-20.855-9.337-20.855-20.855v-156.437c0-11.518 9.337-20.855 20.855-20.855h.263c11.518 0 20.855 9.337 20.855 20.855v156.437c-.001 11.518-9.338 20.855-20.856 20.855z" fill="#e9c278"/><path d="m155.137 364.463h-1.074c-47.144 0-85.362-38.218-85.362-85.362v-189.735c0-47.144 38.218-85.362 85.362-85.362h1.074c47.144 0 85.362 38.218 85.362 85.362v189.736c0 47.144-38.217 85.361-85.362 85.361z" fill="#eaa895"/><g fill="#f9fbfc"><path d="m229.237 66.488c-1.684 0-3.05 1.365-3.05 3.05s1.366 3.05 3.05 3.05 3.05-1.365 3.05-3.05c0-1.684-1.366-3.05-3.05-3.05z"/><path d="m229.237 86.152c-1.684 0-3.05 1.365-3.05 3.05s1.366 3.05 3.05 3.05 3.05-1.366 3.05-3.05-1.366-3.05-3.05-3.05z"/><path d="m229.237 105.815c-1.684 0-3.05 1.365-3.05 3.05s1.366 3.05 3.05 3.05 3.05-1.366 3.05-3.05c0-1.685-1.366-3.05-3.05-3.05z"/><path d="m229.237 125.478c-1.684 0-3.05 1.366-3.05 3.05s1.366 3.05 3.05 3.05 3.05-1.366 3.05-3.05-1.366-3.05-3.05-3.05z"/><path d="m229.237 145.141c-1.684 0-3.05 1.366-3.05 3.051 0 1.684 1.366 3.05 3.05 3.05s3.05-1.366 3.05-3.05c0-1.685-1.366-3.051-3.05-3.051z"/><path d="m229.237 164.805c-1.684 0-3.05 1.366-3.05 3.05 0 1.685 1.366 3.05 3.05 3.05s3.05-1.365 3.05-3.05c0-1.684-1.366-3.05-3.05-3.05z"/><path d="m229.237 184.469c-1.684 0-3.05 1.365-3.05 3.05s1.366 3.05 3.05 3.05 3.05-1.365 3.05-3.05-1.366-3.05-3.05-3.05z"/><path d="m229.237 204.132c-1.684 0-3.05 1.365-3.05 3.05 0 1.684 1.366 3.05 3.05 3.05s3.05-1.366 3.05-3.05c0-1.685-1.366-3.05-3.05-3.05z"/><path d="m229.237 223.795c-1.684 0-3.05 1.365-3.05 3.05 0 1.684 1.366 3.05 3.05 3.05s3.05-1.366 3.05-3.05c0-1.685-1.366-3.05-3.05-3.05z"/><path d="m229.237 243.458c-1.684 0-3.05 1.365-3.05 3.05 0 1.684 1.366 3.05 3.05 3.05s3.05-1.365 3.05-3.05c0-1.684-1.366-3.05-3.05-3.05z"/><path d="m229.237 263.121c-1.684 0-3.05 1.366-3.05 3.05 0 1.685 1.366 3.05 3.05 3.05s3.05-1.365 3.05-3.05c0-1.684-1.366-3.05-3.05-3.05z"/><path d="m229.237 282.785c-1.684 0-3.05 1.366-3.05 3.05 0 1.685 1.366 3.051 3.05 3.051s3.05-1.366 3.05-3.051c0-1.684-1.366-3.05-3.05-3.05z"/><path d="m229.237 302.448c-1.684 0-3.05 1.366-3.05 3.05 0 1.685 1.366 3.051 3.05 3.051s3.05-1.366 3.05-3.051c0-1.684-1.366-3.05-3.05-3.05z"/><path d="m209.573 27.162c-1.684 0-3.05 1.365-3.05 3.05 0 1.684 1.366 3.05 3.05 3.05 1.685 0 3.05-1.365 3.05-3.05.001-1.685-1.365-3.05-3.05-3.05z"/><path d="m219.775 36.623c-1.684 0-3.05 1.366-3.05 3.05 0 1.685 1.366 3.05 3.05 3.05 1.685 0 3.05-1.366 3.05-3.05s-1.365-3.05-3.05-3.05z"/><path d="m209.573 52.925c1.685 0 3.05-1.365 3.05-3.05s-1.366-3.05-3.05-3.05-3.05 1.365-3.05 3.05 1.366 3.05 3.05 3.05z"/><path d="m219.775 56.286c-1.684 0-3.05 1.366-3.05 3.05 0 1.685 1.366 3.05 3.05 3.05 1.685 0 3.05-1.365 3.05-3.05 0-1.684-1.365-3.05-3.05-3.05z"/><path d="m209.573 72.588c1.685 0 3.05-1.365 3.05-3.05s-1.366-3.05-3.05-3.05-3.05 1.365-3.05 3.05 1.366 3.05 3.05 3.05z"/><path d="m200.162 62.417c1.685 0 3.05-1.365 3.05-3.05s-1.366-3.05-3.05-3.05-3.05 1.365-3.05 3.05 1.365 3.05 3.05 3.05z"/><path d="m219.775 75.95c-1.684 0-3.05 1.365-3.05 3.05s1.366 3.05 3.05 3.05c1.685 0 3.05-1.366 3.05-3.05s-1.365-3.05-3.05-3.05z"/><path d="m209.573 92.252c1.685 0 3.05-1.366 3.05-3.05s-1.366-3.05-3.05-3.05-3.05 1.365-3.05 3.05 1.366 3.05 3.05 3.05z"/><path d="m219.775 95.613c-1.684 0-3.05 1.365-3.05 3.05s1.366 3.05 3.05 3.05c1.685 0 3.05-1.366 3.05-3.05s-1.365-3.05-3.05-3.05z"/><path d="m209.573 111.915c1.685 0 3.05-1.366 3.05-3.05 0-1.685-1.366-3.05-3.05-3.05s-3.05 1.365-3.05 3.05c0 1.684 1.366 3.05 3.05 3.05z"/><path d="m219.775 115.277c-1.684 0-3.05 1.365-3.05 3.05s1.366 3.05 3.05 3.05c1.685 0 3.05-1.366 3.05-3.05 0-1.685-1.365-3.05-3.05-3.05z"/><path d="m209.573 131.579c1.685 0 3.05-1.366 3.05-3.05 0-1.685-1.366-3.05-3.05-3.05s-3.05 1.366-3.05 3.05 1.366 3.05 3.05 3.05z"/><path d="m219.775 134.94c-1.684 0-3.05 1.365-3.05 3.05s1.366 3.05 3.05 3.05c1.685 0 3.05-1.365 3.05-3.05s-1.365-3.05-3.05-3.05z"/><path d="m209.573 151.242c1.685 0 3.05-1.366 3.05-3.05 0-1.685-1.366-3.051-3.05-3.051s-3.05 1.366-3.05 3.051c0 1.684 1.366 3.05 3.05 3.05z"/><path d="m219.775 154.603c-1.684 0-3.05 1.365-3.05 3.05s1.366 3.05 3.05 3.05c1.685 0 3.05-1.365 3.05-3.05 0-1.684-1.365-3.05-3.05-3.05z"/><path d="m209.573 170.905c1.685 0 3.05-1.365 3.05-3.05s-1.366-3.05-3.05-3.05-3.05 1.366-3.05 3.05c0 1.685 1.366 3.05 3.05 3.05z"/><path d="m219.775 174.266c-1.684 0-3.05 1.365-3.05 3.05 0 1.684 1.366 3.05 3.05 3.05 1.685 0 3.05-1.366 3.05-3.05s-1.365-3.05-3.05-3.05z"/><path d="m209.573 190.568c1.685 0 3.05-1.365 3.05-3.05s-1.366-3.05-3.05-3.05-3.05 1.365-3.05 3.05 1.366 3.05 3.05 3.05z"/><path d="m219.775 193.93c-1.684 0-3.05 1.366-3.05 3.05s1.366 3.05 3.05 3.05c1.685 0 3.05-1.366 3.05-3.05s-1.365-3.05-3.05-3.05z"/><path d="m209.573 210.232c1.685 0 3.05-1.366 3.05-3.05 0-1.685-1.366-3.05-3.05-3.05s-3.05 1.365-3.05 3.05c0 1.684 1.366 3.05 3.05 3.05z"/><path d="m219.775 213.593c-1.684 0-3.05 1.366-3.05 3.05 0 1.685 1.366 3.051 3.05 3.051 1.685 0 3.05-1.366 3.05-3.051 0-1.684-1.365-3.05-3.05-3.05z"/><path d="m209.573 229.895c1.685 0 3.05-1.366 3.05-3.05 0-1.685-1.366-3.05-3.05-3.05s-3.05 1.365-3.05 3.05c0 1.684 1.366 3.05 3.05 3.05z"/><path d="m219.775 233.257c-1.684 0-3.05 1.365-3.05 3.049 0 1.685 1.366 3.051 3.05 3.051 1.685 0 3.05-1.366 3.05-3.051 0-1.684-1.365-3.049-3.05-3.049z"/><path d="m209.573 249.558c1.685 0 3.05-1.365 3.05-3.05s-1.366-3.05-3.05-3.05-3.05 1.365-3.05 3.05 1.366 3.05 3.05 3.05z"/><path d="m219.775 252.92c-1.684 0-3.05 1.365-3.05 3.05s1.366 3.05 3.05 3.05c1.685 0 3.05-1.365 3.05-3.05s-1.365-3.05-3.05-3.05z"/><path d="m209.573 269.221c1.685 0 3.05-1.365 3.05-3.05s-1.366-3.05-3.05-3.05-3.05 1.366-3.05 3.05c0 1.685 1.366 3.05 3.05 3.05z"/><path d="m219.775 272.583c-1.684 0-3.05 1.366-3.05 3.05 0 1.685 1.366 3.05 3.05 3.05 1.685 0 3.05-1.365 3.05-3.05 0-1.684-1.365-3.05-3.05-3.05z"/><path d="m209.573 288.885c1.685 0 3.05-1.366 3.05-3.051 0-1.684-1.366-3.05-3.05-3.05s-3.05 1.366-3.05 3.05c0 1.685 1.366 3.051 3.05 3.051z"/><path d="m219.775 292.246c-1.684 0-3.05 1.366-3.05 3.05s1.366 3.05 3.05 3.05c1.685 0 3.05-1.365 3.05-3.05 0-1.684-1.365-3.05-3.05-3.05z"/><path d="m209.573 308.548c1.685 0 3.05-1.366 3.05-3.051 0-1.684-1.366-3.05-3.05-3.05s-3.05 1.366-3.05 3.05c0 1.686 1.366 3.051 3.05 3.051z"/><path d="m200.111 318.011c1.685 0 3.05-1.366 3.05-3.051 0-1.684-1.366-3.05-3.05-3.05s-3.05 1.366-3.05 3.05c0 1.685 1.366 3.051 3.05 3.051z"/><path d="m219.775 311.91c-1.684 0-3.05 1.365-3.05 3.05s1.366 3.05 3.05 3.05c1.685 0 3.05-1.365 3.05-3.05s-1.365-3.05-3.05-3.05z"/><path d="m209.573 328.212c1.685 0 3.05-1.365 3.05-3.05s-1.366-3.05-3.05-3.05-3.05 1.366-3.05 3.05 1.366 3.05 3.05 3.05z"/><path d="m197.062 20.01c0 1.685 1.365 3.05 3.05 3.05s3.05-1.365 3.05-3.05c0-.392-.08-.765-.215-1.109-.974-.665-1.968-1.302-2.971-1.927-1.62.072-2.914 1.398-2.914 3.036z"/><path d="m192.96 30.212c0-1.685-1.365-3.05-3.05-3.05-1.684 0-3.05 1.365-3.05 3.05 0 1.684 1.365 3.05 3.05 3.05s3.05-1.366 3.05-3.05z"/><path d="m200.112 36.623c-1.684 0-3.05 1.366-3.05 3.05 0 1.685 1.365 3.05 3.05 3.05s3.05-1.366 3.05-3.05-1.366-3.05-3.05-3.05z"/><path d="m200.112 331.573c-1.684 0-3.05 1.365-3.05 3.05s1.365 3.05 3.05 3.05 3.05-1.366 3.05-3.05c0-1.685-1.366-3.05-3.05-3.05z"/><path d="m189.91 347.875c1.685 0 3.05-1.365 3.05-3.05s-1.365-3.05-3.05-3.05c-1.684 0-3.05 1.365-3.05 3.05s1.366 3.05 3.05 3.05z"/><path d="m160.815 357.337c1.685 0 3.05-1.365 3.05-3.05s-1.365-3.05-3.05-3.05c-1.684 0-3.05 1.365-3.05 3.05s1.365 3.05 3.05 3.05z"/><path d="m170.247 13.599c1.684 0 3.05-1.365 3.05-3.05s-1.366-3.05-3.05-3.05-3.05 1.365-3.05 3.05c0 1.684 1.365 3.05 3.05 3.05z"/><path d="m180.449 16.96c-1.684 0-3.05 1.365-3.05 3.05s1.366 3.05 3.05 3.05c1.685 0 3.05-1.365 3.05-3.05s-1.366-3.05-3.05-3.05z"/><circle cx="150.645" cy="10.446" r="3.05"/><path d="m180.449 357.336c1.685 0 3.05-1.366 3.05-3.05 0-1.685-1.365-3.05-3.05-3.05-1.684 0-3.05 1.365-3.05 3.05s1.365 3.05 3.05 3.05z"/></g><path d="m167.382 340.313c-6.787 0-12.29-5.503-12.29-12.29 0-2.16-1.344-3.574-7.569-7.958-7.165-5.047-17.994-12.674-17.994-28.052s10.828-23.005 17.994-28.052c6.224-4.384 7.569-5.798 7.569-7.958 0-2.159-1.344-3.572-7.568-7.955-7.165-5.046-17.995-12.673-17.995-28.051s10.828-23.004 17.995-28.051c6.223-4.383 7.568-5.796 7.568-7.956 0-2.159-1.344-3.572-7.568-7.955-7.166-5.046-17.995-12.673-17.995-28.05 0-15.378 10.829-23.004 17.995-28.05 6.223-4.383 7.568-5.796 7.568-7.955 0-2.157-1.344-3.569-7.567-7.952-7.166-5.046-17.996-12.671-17.996-28.049 0-15.376 10.829-23.002 17.995-28.047 6.223-4.382 7.568-5.795 7.568-7.952 0-6.787 5.503-12.29 12.29-12.29s12.29 5.503 12.29 12.29c0 15.377-10.829 23.002-17.996 28.049-6.223 4.382-7.567 5.794-7.567 7.951s1.344 3.57 7.568 7.952c7.165 5.046 17.995 12.671 17.995 28.048 0 15.378-10.829 23.004-17.995 28.05-6.224 4.383-7.568 5.796-7.568 7.955s1.344 3.571 7.568 7.955c7.165 5.046 17.995 12.673 17.995 28.051s-10.828 23.004-17.995 28.051c-6.224 4.384-7.568 5.796-7.568 7.956 0 2.159 1.344 3.572 7.568 7.956 7.166 5.046 17.995 12.673 17.995 28.051s-10.828 23.005-17.994 28.052c-6.225 4.385-7.569 5.798-7.569 7.958s1.344 3.574 7.569 7.958c7.165 5.047 17.994 12.674 17.994 28.052-.001 6.785-5.503 12.288-12.29 12.288z" fill="#e9c278"/><path d="m167.381 344.316c-8.977 0-16.281-7.298-16.293-16.272-.627-1.013-4.559-3.782-5.87-4.706-7.365-5.187-19.692-13.87-19.692-31.325 0-17.456 12.327-26.139 19.692-31.326 1.303-.918 5.188-3.655 5.856-4.684-.67-1.031-4.554-3.766-5.855-4.683-7.366-5.187-19.693-13.869-19.693-31.324 0-17.457 12.328-26.138 19.693-31.324 1.301-.917 5.184-3.652 5.855-4.682-.67-1.031-4.554-3.765-5.855-4.683-7.365-5.186-19.693-13.867-19.693-31.323 0-17.454 12.327-26.135 19.692-31.322 1.303-.918 5.183-3.651 5.856-4.682-.673-1.031-4.553-3.763-5.854-4.68-7.365-5.186-19.693-13.866-19.693-31.321 0-17.452 12.327-26.133 19.692-31.32 1.312-.923 5.234-3.686 5.869-4.701.038-9 7.333-16.272 16.294-16.272 8.984 0 16.293 7.309 16.293 16.293 0 17.452-12.327 26.134-19.692 31.321-1.303.917-5.18 3.647-5.856 4.679.675 1.032 4.554 3.763 5.854 4.679 7.367 5.187 19.694 13.868 19.694 31.322s-12.327 26.135-19.692 31.322c-1.303.917-5.185 3.651-5.857 4.682.673 1.031 4.554 3.765 5.856 4.682 7.366 5.187 19.693 13.869 19.693 31.324 0 17.457-12.328 26.138-19.694 31.324-1.301.917-5.184 3.652-5.855 4.682.671 1.03 4.554 3.765 5.856 4.683 7.365 5.186 19.693 13.867 19.693 31.323 0 17.455-12.326 26.138-19.691 31.325-1.304.918-5.191 3.656-5.858 4.686.668 1.03 4.554 3.767 5.857 4.685 7.365 5.187 19.692 13.87 19.692 31.325 0 8.984-7.309 16.293-16.294 16.293zm0-312.622c-4.569 0-8.286 3.717-8.286 8.286 0 4.491-3.176 6.938-9.266 11.225-6.878 4.844-16.296 11.476-16.296 24.774 0 13.3 9.419 19.932 16.297 24.775 6.088 4.288 9.265 6.735 9.265 11.225 0 4.492-3.176 6.939-9.265 11.227-6.879 4.844-16.297 11.477-16.297 24.777 0 13.301 9.419 19.934 16.296 24.777 6.089 4.289 9.266 6.736 9.266 11.229s-3.176 6.94-9.265 11.228c-6.878 4.843-16.297 11.476-16.297 24.778 0 13.3 9.419 19.934 16.296 24.778 6.089 4.289 9.266 6.736 9.266 11.228 0 4.495-3.178 6.942-9.266 11.231-6.878 4.844-16.296 11.478-16.296 24.78 0 13.301 9.418 19.935 16.296 24.779 6.088 4.289 9.266 6.736 9.266 11.231 0 4.569 3.717 8.286 8.286 8.286s8.286-3.717 8.286-8.286c0-13.301-9.418-19.936-16.296-24.779-6.088-4.289-9.266-6.737-9.266-11.231 0-4.495 3.177-6.942 9.266-11.231 6.878-4.845 16.296-11.479 16.296-24.78s-9.419-19.934-16.296-24.777c-6.089-4.289-9.266-6.737-9.266-11.229 0-4.493 3.176-6.94 9.265-11.228 6.878-4.844 16.297-11.476 16.297-24.778 0-13.3-9.419-19.934-16.296-24.777-6.089-4.289-9.266-6.736-9.266-11.228 0-4.493 3.176-6.939 9.265-11.228 6.879-4.844 16.297-11.477 16.297-24.777 0-13.299-9.418-19.932-16.296-24.774-6.089-4.288-9.266-6.735-9.266-11.226 0-4.492 3.176-6.938 9.265-11.224 6.879-4.844 16.297-11.477 16.297-24.775.001-4.568-3.716-8.286-8.286-8.286zm-9.271 260.293s0 0 .001.001c0-.001 0-.002 0-.004 0 .002-.001.003-.001.003zm-7.02-35.959c0 .002 0 .003-.001.004.001-.002 0-.002.001-.004zm7.02-36.058s.001 0 0 0c.001-.001.001-.002.002-.003-.001.001-.001.002-.002.003zm-7.02-35.955c0 .001 0 .003-.001.004.001-.002 0-.005.001-.004zm7.02-36.057c0 .001.001.001.001.001 0-.001 0-.003.001-.004-.001.001-.001.002-.002.003zm-7.02-35.951c0 .001-.001.003-.001.004.001-.001.001-.003.001-.004zm7.02-36.055c.001.001.001.001 0 0 .001 0 .002-.002.002-.003 0 .002-.001.002-.002.003z" fill="#31373d"/><path d="m356.284 506.75h-.262c-11.518 0-20.855-9.337-20.855-20.855v-156.437c0-11.518 9.337-20.855 20.855-20.855h.263c11.518 0 20.855 9.337 20.855 20.855v156.437c-.001 11.518-9.338 20.855-20.856 20.855z" fill="#e9c278"/><path d="m356.69 364.463h-1.074c-47.144 0-85.362-38.218-85.362-85.362v-189.735c0-47.144 38.218-85.362 85.362-85.362h1.074c47.144 0 85.362 38.218 85.362 85.362v189.736c0 47.144-38.218 85.361-85.362 85.361z" fill="#eaa895"/><g fill="#f9fbfc"><path d="m421.031 46.825c-1.685 0-3.05 1.365-3.05 3.05s1.366 3.05 3.05 3.05 3.05-1.365 3.05-3.05c.001-1.685-1.365-3.05-3.05-3.05z"/><path d="m431.233 56.286c-1.684 0-3.05 1.366-3.05 3.05 0 1.685 1.366 3.05 3.05 3.05 1.685 0 3.05-1.365 3.05-3.05 0-1.684-1.365-3.05-3.05-3.05z"/><path d="m421.031 66.488c-1.685 0-3.05 1.365-3.05 3.05s1.366 3.05 3.05 3.05 3.05-1.365 3.05-3.05c.001-1.684-1.365-3.05-3.05-3.05z"/><path d="m431.233 75.95c-1.684 0-3.05 1.365-3.05 3.05s1.366 3.05 3.05 3.05c1.685 0 3.05-1.366 3.05-3.05s-1.365-3.05-3.05-3.05z"/><path d="m421.031 86.152c-1.685 0-3.05 1.365-3.05 3.05s1.366 3.05 3.05 3.05 3.05-1.366 3.05-3.05-1.365-3.05-3.05-3.05z"/><path d="m431.233 95.613c-1.684 0-3.05 1.365-3.05 3.05s1.366 3.05 3.05 3.05c1.685 0 3.05-1.366 3.05-3.05s-1.365-3.05-3.05-3.05z"/><path d="m421.031 105.815c-1.685 0-3.05 1.365-3.05 3.05s1.366 3.05 3.05 3.05 3.05-1.366 3.05-3.05c.001-1.685-1.365-3.05-3.05-3.05z"/><path d="m431.233 115.277c-1.684 0-3.05 1.365-3.05 3.05s1.366 3.05 3.05 3.05c1.685 0 3.05-1.366 3.05-3.05 0-1.685-1.365-3.05-3.05-3.05z"/><path d="m421.031 125.478c-1.685 0-3.05 1.366-3.05 3.05s1.366 3.05 3.05 3.05 3.05-1.366 3.05-3.05c.001-1.684-1.365-3.05-3.05-3.05z"/><path d="m431.233 134.94c-1.684 0-3.05 1.365-3.05 3.05s1.366 3.05 3.05 3.05c1.685 0 3.05-1.365 3.05-3.05s-1.365-3.05-3.05-3.05z"/><path d="m421.031 145.141c-1.685 0-3.05 1.366-3.05 3.051 0 1.684 1.366 3.05 3.05 3.05s3.05-1.366 3.05-3.05c.001-1.685-1.365-3.051-3.05-3.051z"/><path d="m431.233 154.603c-1.684 0-3.05 1.365-3.05 3.05s1.366 3.05 3.05 3.05c1.685 0 3.05-1.365 3.05-3.05 0-1.684-1.365-3.05-3.05-3.05z"/><path d="m421.031 164.805c-1.685 0-3.05 1.366-3.05 3.05 0 1.685 1.366 3.05 3.05 3.05s3.05-1.365 3.05-3.05c.001-1.684-1.365-3.05-3.05-3.05z"/><path d="m431.233 174.266c-1.684 0-3.05 1.365-3.05 3.05 0 1.684 1.366 3.05 3.05 3.05 1.685 0 3.05-1.366 3.05-3.05s-1.365-3.05-3.05-3.05z"/><path d="m421.031 184.469c-1.685 0-3.05 1.365-3.05 3.05s1.366 3.05 3.05 3.05 3.05-1.365 3.05-3.05c.001-1.685-1.365-3.05-3.05-3.05z"/><path d="m431.233 193.93c-1.684 0-3.05 1.366-3.05 3.05s1.366 3.05 3.05 3.05c1.685 0 3.05-1.366 3.05-3.05s-1.365-3.05-3.05-3.05z"/><path d="m421.031 204.132c-1.685 0-3.05 1.365-3.05 3.05 0 1.684 1.366 3.05 3.05 3.05s3.05-1.366 3.05-3.05c.001-1.685-1.365-3.05-3.05-3.05z"/><path d="m431.233 213.593c-1.684 0-3.05 1.366-3.05 3.05 0 1.685 1.366 3.051 3.05 3.051 1.685 0 3.05-1.366 3.05-3.051 0-1.684-1.365-3.05-3.05-3.05z"/><path d="m421.031 223.795c-1.685 0-3.05 1.365-3.05 3.05 0 1.684 1.366 3.05 3.05 3.05s3.05-1.366 3.05-3.05c.001-1.685-1.365-3.05-3.05-3.05z"/><path d="m431.233 233.257c-1.684 0-3.05 1.365-3.05 3.049 0 1.685 1.366 3.051 3.05 3.051 1.685 0 3.05-1.366 3.05-3.051 0-1.684-1.365-3.049-3.05-3.049z"/><path d="m421.031 243.458c-1.685 0-3.05 1.365-3.05 3.05 0 1.684 1.366 3.05 3.05 3.05s3.05-1.365 3.05-3.05c.001-1.684-1.365-3.05-3.05-3.05z"/><path d="m431.233 252.92c-1.684 0-3.05 1.365-3.05 3.05s1.366 3.05 3.05 3.05c1.685 0 3.05-1.365 3.05-3.05s-1.365-3.05-3.05-3.05z"/><path d="m421.031 263.121c-1.685 0-3.05 1.366-3.05 3.05 0 1.685 1.366 3.05 3.05 3.05s3.05-1.365 3.05-3.05c.001-1.684-1.365-3.05-3.05-3.05z"/><path d="m431.233 272.583c-1.684 0-3.05 1.366-3.05 3.05 0 1.685 1.366 3.05 3.05 3.05 1.685 0 3.05-1.365 3.05-3.05 0-1.684-1.365-3.05-3.05-3.05z"/><path d="m421.031 282.785c-1.685 0-3.05 1.366-3.05 3.05 0 1.685 1.366 3.051 3.05 3.051s3.05-1.366 3.05-3.051c.001-1.684-1.365-3.05-3.05-3.05z"/><path d="m431.233 292.246c-1.684 0-3.05 1.366-3.05 3.05s1.366 3.05 3.05 3.05c1.685 0 3.05-1.365 3.05-3.05 0-1.684-1.365-3.05-3.05-3.05z"/><path d="m421.031 302.448c-1.685 0-3.05 1.366-3.05 3.05 0 1.685 1.366 3.051 3.05 3.051s3.05-1.366 3.05-3.051c.001-1.684-1.365-3.05-3.05-3.05z"/><path d="m431.233 311.91c-1.684 0-3.05 1.365-3.05 3.05s1.366 3.05 3.05 3.05c.508 0 .98-.136 1.402-.356.552-1.078 1.083-2.168 1.59-3.272-.271-1.408-1.505-2.472-2.992-2.472z"/><path d="m421.031 328.212c1.684 0 3.05-1.365 3.05-3.05s-1.366-3.05-3.05-3.05c-1.685 0-3.05 1.366-3.05 3.05s1.366 3.05 3.05 3.05z"/><path d="m401.368 33.262c1.684 0 3.05-1.365 3.05-3.05s-1.366-3.05-3.05-3.05-3.05 1.365-3.05 3.05c0 1.684 1.366 3.05 3.05 3.05z"/><path d="m411.57 36.623c-1.684 0-3.05 1.366-3.05 3.05 0 1.685 1.366 3.05 3.05 3.05 1.685 0 3.05-1.366 3.05-3.05s-1.366-3.05-3.05-3.05z"/><path d="m401.368 52.925c1.684 0 3.05-1.365 3.05-3.05s-1.366-3.05-3.05-3.05-3.05 1.365-3.05 3.05 1.366 3.05 3.05 3.05z"/><path d="m411.57 62.387c1.685 0 3.05-1.365 3.05-3.05 0-1.684-1.366-3.05-3.05-3.05s-3.05 1.366-3.05 3.05 1.365 3.05 3.05 3.05z"/><path d="m411.57 82.05c1.685 0 3.05-1.366 3.05-3.05s-1.366-3.05-3.05-3.05-3.05 1.365-3.05 3.05 1.365 3.05 3.05 3.05z"/><path d="m411.57 101.713c1.685 0 3.05-1.366 3.05-3.05 0-1.685-1.366-3.05-3.05-3.05s-3.05 1.365-3.05 3.05 1.365 3.05 3.05 3.05z"/><path d="m411.57 121.377c1.685 0 3.05-1.366 3.05-3.05 0-1.685-1.366-3.05-3.05-3.05s-3.05 1.365-3.05 3.05c0 1.684 1.365 3.05 3.05 3.05z"/><path d="m411.57 141.04c1.685 0 3.05-1.365 3.05-3.05s-1.366-3.05-3.05-3.05-3.05 1.365-3.05 3.05c0 1.684 1.365 3.05 3.05 3.05z"/><path d="m411.57 160.703c1.685 0 3.05-1.365 3.05-3.05s-1.366-3.05-3.05-3.05-3.05 1.365-3.05 3.05 1.365 3.05 3.05 3.05z"/><path d="m411.57 180.367c1.685 0 3.05-1.366 3.05-3.05 0-1.685-1.366-3.05-3.05-3.05s-3.05 1.365-3.05 3.05c0 1.684 1.365 3.05 3.05 3.05z"/><path d="m411.57 200.03c1.685 0 3.05-1.366 3.05-3.05s-1.366-3.05-3.05-3.05-3.05 1.366-3.05 3.05 1.365 3.05 3.05 3.05z"/><path d="m411.57 219.693c1.685 0 3.05-1.366 3.05-3.051 0-1.684-1.366-3.05-3.05-3.05s-3.05 1.366-3.05 3.05c0 1.686 1.365 3.051 3.05 3.051z"/><path d="m411.57 239.357c1.685 0 3.05-1.366 3.05-3.051 0-1.684-1.366-3.049-3.05-3.049s-3.05 1.365-3.05 3.049c0 1.685 1.365 3.051 3.05 3.051z"/><path d="m411.57 259.02c1.685 0 3.05-1.365 3.05-3.05 0-1.684-1.366-3.05-3.05-3.05s-3.05 1.365-3.05 3.05 1.365 3.05 3.05 3.05z"/><path d="m411.57 278.683c1.685 0 3.05-1.365 3.05-3.05s-1.366-3.05-3.05-3.05-3.05 1.366-3.05 3.05c0 1.685 1.365 3.05 3.05 3.05z"/><path d="m411.57 298.346c1.685 0 3.05-1.365 3.05-3.05s-1.366-3.05-3.05-3.05-3.05 1.366-3.05 3.05c0 1.685 1.365 3.05 3.05 3.05z"/><path d="m411.57 318.01c1.685 0 3.05-1.365 3.05-3.05 0-1.684-1.366-3.05-3.05-3.05s-3.05 1.365-3.05 3.05c0 1.684 1.365 3.05 3.05 3.05z"/><path d="m401.368 322.112c-1.684 0-3.05 1.366-3.05 3.05s1.366 3.05 3.05 3.05 3.05-1.365 3.05-3.05-1.366-3.05-3.05-3.05z"/><path d="m411.57 337.673c1.685 0 3.05-1.366 3.05-3.05 0-1.685-1.366-3.05-3.05-3.05s-3.05 1.365-3.05 3.05c0 1.684 1.365 3.05 3.05 3.05z"/><path d="m401.368 341.775c-1.684 0-3.05 1.365-3.05 3.05s1.366 3.05 3.05 3.05 3.05-1.365 3.05-3.05c0-1.684-1.366-3.05-3.05-3.05z"/><path d="m378.655 10.549c0 1.684 1.366 3.05 3.05 3.05 1.685 0 3.05-1.365 3.05-3.05 0-.709-.252-1.353-.657-1.871-1.069-.367-2.143-.721-3.23-1.048-1.275.366-2.213 1.527-2.213 2.919z"/><path d="m391.906 23.06c1.685 0 3.05-1.365 3.05-3.05s-1.365-3.05-3.05-3.05-3.05 1.365-3.05 3.05c.001 1.684 1.366 3.05 3.05 3.05z"/><path d="m372.229 23.06c1.685 0 3.05-1.365 3.05-3.05s-1.365-3.05-3.05-3.05c-1.684 0-3.05 1.365-3.05 3.05.001 1.684 1.366 3.05 3.05 3.05z"/><path d="m391.906 42.737c1.685 0 3.05-1.365 3.05-3.05 0-1.684-1.365-3.05-3.05-3.05s-3.05 1.366-3.05 3.05c.001 1.684 1.366 3.05 3.05 3.05z"/><path d="m388.857 334.623c0 1.685 1.365 3.05 3.05 3.05s3.05-1.366 3.05-3.05c0-1.685-1.365-3.05-3.05-3.05s-3.05 1.365-3.05 3.05z"/><path d="m378.655 344.825c0 1.685 1.366 3.05 3.05 3.05 1.685 0 3.05-1.365 3.05-3.05s-1.365-3.05-3.05-3.05-3.05 1.366-3.05 3.05z"/><path d="m394.957 354.286c0-1.685-1.365-3.05-3.05-3.05s-3.05 1.365-3.05 3.05c0 1.314.836 2.424 2.001 2.854 1.324-.586 2.63-1.205 3.918-1.855.109-.314.181-.647.181-.999z"/><path d="m362.041 13.599c1.684 0 3.05-1.365 3.05-3.05s-1.366-3.05-3.05-3.05c-1.685 0-3.05 1.365-3.05 3.05 0 1.684 1.366 3.05 3.05 3.05z"/><path d="m369.193 354.286c0 1.685 1.366 3.05 3.05 3.05 1.685 0 3.05-1.366 3.05-3.05 0-1.685-1.365-3.05-3.05-3.05-1.684 0-3.05 1.366-3.05 3.05z"/></g><g fill="#31373d"><path d="m155.064 0h-.928c-49.316 0-89.438 40.122-89.438 89.439v189.59c0 40.815 27.482 75.331 64.913 86.019v120.829c0 13.717 11.159 24.877 24.876 24.877h.227c13.717 0 24.877-11.159 24.877-24.877v-120.829c37.431-10.688 64.913-45.204 64.913-86.019v-189.59c-.001-49.317-40.123-89.439-89.44-89.439zm16.519 485.877c0 9.302-7.568 16.87-16.87 16.87h-.227c-9.302 0-16.869-7.568-16.869-16.87v-118.946c5.356 1.004 10.876 1.536 16.519 1.536h.928c5.643 0 11.163-.531 16.519-1.536zm64.913-206.848c0 44.901-36.53 81.431-81.432 81.431h-.928c-44.902 0-81.432-36.53-81.432-81.431v-189.59c0-44.901 36.53-81.432 81.432-81.432h.928c44.902 0 81.432 36.53 81.432 81.432z"/><path d="m356.617 0h-.928c-49.316 0-89.439 40.122-89.439 89.439v189.59c0 40.815 27.482 75.331 64.913 86.019v120.829c0 13.717 11.16 24.877 24.877 24.877h.227c13.717 0 24.877-11.159 24.877-24.877v-120.829c37.431-10.688 64.913-45.204 64.913-86.019v-189.59c-.001-49.317-40.123-89.439-89.44-89.439zm16.519 485.877c0 9.302-7.568 16.87-16.87 16.87h-.227c-9.302 0-16.87-7.568-16.87-16.87v-118.946c5.356 1.004 10.876 1.536 16.519 1.536h.928c5.643 0 11.163-.531 16.519-1.536v118.946zm64.913-206.848c0 44.901-36.53 81.431-81.432 81.431h-.928c-44.902 0-81.432-36.53-81.432-81.431v-189.59c0-44.901 36.53-81.432 81.432-81.432h.928c44.902 0 81.432 36.53 81.432 81.432z"/></g><path d="m368.934 340.313c-6.787 0-12.29-5.503-12.29-12.29 0-2.16-1.344-3.574-7.569-7.958-7.165-5.047-17.994-12.674-17.994-28.052s10.828-23.005 17.994-28.052c6.224-4.384 7.569-5.798 7.569-7.958 0-2.159-1.344-3.572-7.568-7.955-7.165-5.046-17.995-12.673-17.995-28.051s10.828-23.004 17.995-28.051c6.223-4.383 7.568-5.796 7.568-7.956 0-2.159-1.344-3.572-7.568-7.955-7.166-5.046-17.995-12.673-17.995-28.05 0-15.378 10.829-23.004 17.995-28.05 6.223-4.383 7.568-5.796 7.568-7.955 0-2.157-1.344-3.569-7.567-7.952-7.166-5.046-17.996-12.671-17.996-28.049 0-15.376 10.829-23.002 17.995-28.047 6.223-4.382 7.568-5.795 7.568-7.952 0-6.787 5.503-12.29 12.29-12.29s12.29 5.503 12.29 12.29c0 15.377-10.829 23.002-17.996 28.049-6.224 4.382-7.567 5.794-7.567 7.951s1.344 3.57 7.568 7.952c7.165 5.046 17.995 12.671 17.995 28.048 0 15.378-10.829 23.004-17.995 28.05-6.224 4.383-7.568 5.796-7.568 7.955s1.344 3.571 7.568 7.955c7.165 5.046 17.995 12.673 17.995 28.051s-10.828 23.004-17.995 28.051c-6.224 4.384-7.568 5.796-7.568 7.956 0 2.159 1.344 3.572 7.568 7.956 7.166 5.046 17.995 12.673 17.995 28.051s-10.828 23.005-17.994 28.052c-6.225 4.385-7.569 5.798-7.569 7.958s1.344 3.574 7.569 7.958c7.165 5.047 17.994 12.674 17.994 28.052 0 6.785-5.503 12.288-12.29 12.288z" fill="#f9fbfc"/><path d="m368.934 344.316c-8.977 0-16.281-7.298-16.293-16.272-.628-1.013-4.559-3.782-5.87-4.705-7.366-5.188-19.693-13.87-19.693-31.326s12.327-26.139 19.692-31.326c1.303-.918 5.188-3.654 5.858-4.684-.671-1.031-4.554-3.766-5.857-4.683-7.366-5.188-19.693-13.869-19.693-31.324 0-17.457 12.328-26.138 19.693-31.324 1.301-.917 5.184-3.652 5.856-4.682-.672-1.031-4.555-3.765-5.857-4.682-7.365-5.186-19.693-13.867-19.693-31.323 0-17.454 12.327-26.135 19.692-31.322 1.303-.918 5.183-3.651 5.857-4.682-.674-1.031-4.553-3.763-5.854-4.679-7.366-5.186-19.694-13.867-19.694-31.322 0-17.452 12.327-26.133 19.692-31.32 1.312-.924 5.235-3.686 5.87-4.701.038-9 7.333-16.272 16.294-16.272 8.984 0 16.293 7.309 16.293 16.293 0 17.452-12.327 26.134-19.692 31.321-1.304.917-5.181 3.647-5.857 4.679.675 1.032 4.554 3.762 5.855 4.679 7.367 5.187 19.694 13.868 19.694 31.322s-12.327 26.135-19.692 31.322c-1.303.918-5.185 3.651-5.858 4.682.672 1.031 4.555 3.765 5.857 4.681 7.366 5.188 19.693 13.869 19.693 31.324 0 17.457-12.328 26.138-19.694 31.324-1.302.917-5.185 3.652-5.856 4.682.671 1.03 4.555 3.765 5.857 4.683 7.365 5.186 19.693 13.867 19.693 31.323 0 17.455-12.326 26.138-19.691 31.325-1.304.918-5.191 3.655-5.858 4.686.668 1.03 4.555 3.767 5.858 4.685 7.365 5.187 19.692 13.87 19.692 31.325 0 8.984-7.31 16.293-16.294 16.293zm0-312.622c-4.569 0-8.286 3.717-8.286 8.286 0 4.491-3.177 6.938-9.267 11.225-6.878 4.844-16.296 11.476-16.296 24.774 0 13.3 9.419 19.932 16.297 24.775 6.089 4.288 9.266 6.734 9.266 11.225 0 4.492-3.177 6.94-9.266 11.228-6.879 4.844-16.297 11.477-16.297 24.776 0 13.301 9.419 19.934 16.296 24.777 6.089 4.288 9.267 6.736 9.267 11.229s-3.177 6.94-9.266 11.229c-6.878 4.843-16.297 11.476-16.297 24.777 0 13.3 9.419 19.934 16.296 24.778 6.089 4.289 9.267 6.736 9.267 11.228 0 4.495-3.177 6.942-9.268 11.231-6.877 4.844-16.295 11.478-16.295 24.779s9.418 19.935 16.296 24.779c6.089 4.289 9.267 6.736 9.267 11.231 0 4.569 3.717 8.286 8.286 8.286s8.286-3.717 8.286-8.286c0-13.301-9.418-19.936-16.296-24.779-6.089-4.289-9.267-6.736-9.267-11.231s3.178-6.942 9.268-11.231c6.877-4.844 16.295-11.478 16.295-24.779s-9.419-19.934-16.296-24.777c-6.089-4.289-9.267-6.736-9.267-11.229s3.178-6.94 9.266-11.229c6.878-4.843 16.297-11.476 16.297-24.778 0-13.3-9.419-19.934-16.296-24.777-6.089-4.289-9.267-6.736-9.267-11.228 0-4.493 3.178-6.94 9.267-11.228 6.878-4.844 16.296-11.477 16.296-24.777 0-13.299-9.418-19.932-16.296-24.774-6.089-4.288-9.267-6.735-9.267-11.226 0-4.492 3.178-6.938 9.266-11.224 6.879-4.844 16.297-11.477 16.297-24.775.001-4.567-3.716-8.285-8.286-8.285zm-9.272 260.293s.001.001.001-.003c0 .002-.001.003-.001.003zm-7.019-35.959c0 .002 0 .003-.001.004.001-.002 0-.002.001-.004zm7.019-36.058s.001 0 0 0c.001-.001.001-.002.002-.003-.001.001-.001.002-.002.003zm-7.019-35.955c0 .002 0 .003-.001.004.001-.001 0-.005.001-.004zm7.019-36.057c0 .001.001.001.001.001 0-.001 0-.003.001-.004-.001.001-.001.002-.002.003zm-7.019-35.951c0 .001-.001.003-.001.004.001-.002.001-.003.002-.004-.001 0-.001 0-.001 0zm7.019-36.055c.001.001.001.001 0 0 .001 0 .002-.002.002-.003-.001.002-.001.002-.002.003z" fill="#31373d"/></g></svg>