<svg id="Capa_1" enable-background="new 0 0 510.636 510.636" height="512" viewBox="0 0 510.636 510.636" width="512" xmlns="http://www.w3.org/2000/svg"><g><path d="m124.904 96.4h20.377v33.962h-20.377z" fill="#f9fbfc"/><path d="m265.507 96.4h20.377v33.962h-20.377z" fill="#f9fbfc"/><path d="m203.592 87.92c-34.37 0-68.953-6.266-103.529-18.801-10.522-3.815-15.96-15.437-12.145-25.96 3.815-10.522 15.437-15.96 25.96-12.145 59.908 21.719 119.768 21.741 177.918.063 10.488-3.91 22.159 1.423 26.068 11.91s-1.423 22.158-11.91 26.068c-33.733 12.575-67.941 18.865-102.362 18.865z" fill="#eaa895"/><path d="m203.522 109.161c-30.758 0-61.706-6.266-92.649-18.801-9.416-3.815-14.282-15.437-10.869-25.959 3.414-10.522 13.814-15.96 23.231-12.145 53.612 21.719 107.182 21.741 159.22.063 9.386-3.91 19.83 1.423 23.328 11.91 3.499 10.487-1.273 22.158-10.658 26.068-30.186 12.575-60.799 18.864-91.603 18.864z" fill="#e9c278"/><path d="m430.881 256.465h-40.105v-97.027c0-16.433-13.322-29.755-29.755-29.755h-312.085c-15.798 0-28.604 12.806-28.604 28.604v211.019c0 15.798 12.806 28.604 28.604 28.604h312.086c1.917 0 3.79-.189 5.606-.535v.535h109.102c8.812 0 15.956-7.144 15.956-15.956v-64.685c-.001-33.581-27.224-60.804-60.805-60.804z" fill="#eaa895"/><path d="m485.919 419.616h-461.202c-11.442 0-20.717-9.276-20.717-20.717 0-11.441 9.275-20.717 20.717-20.717h461.203c11.441 0 20.717 9.275 20.717 20.717-.001 11.441-9.276 20.717-20.718 20.717z" fill="#f9fbfc"/><path d="m462.365 308.348c-8.769 0-15.878 7.108-15.878 15.878v4.763c0 8.769 7.109 15.878 15.878 15.878h23.022c2.238 0 4.366-.468 6.297-1.304v-26.294c0-2.652-.189-5.258-.518-7.82-1.793-.702-3.738-1.101-5.78-1.101z" fill="#e9c278"/><g fill="#f9fbfc"><path d="m476.945 291.14c-1.713 0-3.102 1.389-3.102 3.102s1.389 3.102 3.102 3.102 3.102-1.389 3.102-3.102-1.388-3.102-3.102-3.102z"/><path d="m487.322 300.764c-1.713 0-3.102 1.389-3.102 3.102s1.389 3.103 3.102 3.103c1.475 0 2.705-1.033 3.019-2.413-.188-.883-.391-1.761-.617-2.63-.568-.704-1.427-1.162-2.402-1.162z"/><path d="m476.945 311.14c-1.713 0-3.102 1.389-3.102 3.102s1.389 3.102 3.102 3.102 3.102-1.389 3.102-3.102-1.388-3.102-3.102-3.102z"/><path d="m487.322 320.764c-1.713 0-3.102 1.389-3.102 3.102s1.389 3.103 3.102 3.103 3.102-1.389 3.102-3.103-1.389-3.102-3.102-3.102z"/><path d="m476.945 331.14c-1.713 0-3.102 1.389-3.102 3.102s1.389 3.102 3.102 3.102 3.102-1.389 3.102-3.102-1.388-3.102-3.102-3.102z"/><path d="m487.322 340.764c-1.713 0-3.102 1.389-3.102 3.102s1.389 3.103 3.102 3.103 3.102-1.389 3.102-3.103-1.389-3.102-3.102-3.102z"/><path d="m476.945 351.14c-1.713 0-3.102 1.389-3.102 3.102s1.389 3.102 3.102 3.102 3.102-1.389 3.102-3.102-1.388-3.102-3.102-3.102z"/><path d="m487.322 360.764c-1.713 0-3.102 1.389-3.102 3.102s1.389 3.103 3.102 3.103 3.102-1.389 3.102-3.103-1.389-3.102-3.102-3.102z"/><path d="m476.945 371.14c-1.713 0-3.102 1.389-3.102 3.102s1.389 3.102 3.102 3.102 3.102-1.389 3.102-3.102-1.388-3.102-3.102-3.102z"/><path d="m456.945 271.14c-1.713 0-3.102 1.389-3.102 3.102s1.389 3.102 3.102 3.102 3.102-1.389 3.102-3.102-1.388-3.102-3.102-3.102z"/><path d="m467.322 280.764c-1.713 0-3.102 1.389-3.102 3.102s1.389 3.103 3.102 3.103 3.102-1.389 3.102-3.103-1.389-3.102-3.102-3.102z"/><path d="m456.945 291.14c-1.713 0-3.102 1.389-3.102 3.102s1.389 3.102 3.102 3.102 3.102-1.389 3.102-3.102-1.388-3.102-3.102-3.102z"/><path d="m467.322 300.764c-1.713 0-3.102 1.389-3.102 3.102s1.389 3.103 3.102 3.103 3.102-1.389 3.102-3.103-1.389-3.102-3.102-3.102z"/><path d="m456.945 311.14c-1.713 0-3.102 1.389-3.102 3.102s1.389 3.102 3.102 3.102 3.102-1.389 3.102-3.102-1.388-3.102-3.102-3.102z"/><path d="m467.322 320.764c-1.713 0-3.102 1.389-3.102 3.102s1.389 3.103 3.102 3.103 3.102-1.389 3.102-3.103-1.389-3.102-3.102-3.102z"/><path d="m456.945 331.14c-1.713 0-3.102 1.389-3.102 3.102s1.389 3.102 3.102 3.102 3.102-1.389 3.102-3.102-1.388-3.102-3.102-3.102z"/><path d="m467.322 340.764c-1.713 0-3.102 1.389-3.102 3.102s1.389 3.103 3.102 3.103 3.102-1.389 3.102-3.103-1.389-3.102-3.102-3.102z"/><path d="m456.945 351.14c-1.713 0-3.102 1.389-3.102 3.102s1.389 3.102 3.102 3.102 3.102-1.389 3.102-3.102-1.388-3.102-3.102-3.102z"/><path d="m467.322 360.764c-1.713 0-3.102 1.389-3.102 3.102s1.389 3.103 3.102 3.103 3.102-1.389 3.102-3.103-1.389-3.102-3.102-3.102z"/><path d="m456.945 371.14c-1.713 0-3.102 1.389-3.102 3.102s1.389 3.102 3.102 3.102 3.102-1.389 3.102-3.102-1.388-3.102-3.102-3.102z"/><path d="m447.322 260.764c-1.713 0-3.102 1.389-3.102 3.102s1.389 3.103 3.102 3.103 3.102-1.389 3.102-3.103-1.389-3.102-3.102-3.102z"/><path d="m436.945 271.14c-1.713 0-3.102 1.389-3.102 3.102s1.389 3.102 3.102 3.102 3.102-1.389 3.102-3.102-1.388-3.102-3.102-3.102z"/><path d="m447.322 280.764c-1.713 0-3.102 1.389-3.102 3.102s1.389 3.103 3.102 3.103 3.102-1.389 3.102-3.103-1.389-3.102-3.102-3.102z"/><path d="m436.945 291.14c-1.713 0-3.102 1.389-3.102 3.102s1.389 3.102 3.102 3.102 3.102-1.389 3.102-3.102-1.388-3.102-3.102-3.102z"/><path d="m447.322 300.764c-1.713 0-3.102 1.389-3.102 3.102s1.389 3.103 3.102 3.103 3.102-1.389 3.102-3.103-1.389-3.102-3.102-3.102z"/><path d="m436.945 311.14c-1.713 0-3.102 1.389-3.102 3.102s1.389 3.102 3.102 3.102 3.102-1.389 3.102-3.102-1.388-3.102-3.102-3.102z"/><path d="m447.322 320.764c-1.713 0-3.102 1.389-3.102 3.102s1.389 3.103 3.102 3.103 3.102-1.389 3.102-3.103-1.389-3.102-3.102-3.102z"/><path d="m436.945 331.14c-1.713 0-3.102 1.389-3.102 3.102s1.389 3.102 3.102 3.102 3.102-1.389 3.102-3.102-1.388-3.102-3.102-3.102z"/><path d="m447.322 340.764c-1.713 0-3.102 1.389-3.102 3.102s1.389 3.103 3.102 3.103 3.102-1.389 3.102-3.103-1.389-3.102-3.102-3.102z"/><path d="m436.945 351.14c-1.713 0-3.102 1.389-3.102 3.102s1.389 3.102 3.102 3.102 3.102-1.389 3.102-3.102-1.388-3.102-3.102-3.102z"/><path d="m447.322 360.764c-1.713 0-3.102 1.389-3.102 3.102s1.389 3.103 3.102 3.103 3.102-1.389 3.102-3.103-1.389-3.102-3.102-3.102z"/><path d="m436.945 371.14c-1.713 0-3.102 1.389-3.102 3.102s1.389 3.102 3.102 3.102 3.102-1.389 3.102-3.102-1.388-3.102-3.102-3.102z"/><path d="m427.322 340.764c-1.713 0-3.102 1.389-3.102 3.102s1.389 3.103 3.102 3.103 3.102-1.389 3.102-3.103-1.389-3.102-3.102-3.102z"/><path d="m416.945 351.14c-1.713 0-3.102 1.389-3.102 3.102s1.389 3.102 3.102 3.102 3.102-1.389 3.102-3.102-1.388-3.102-3.102-3.102z"/><path d="m427.322 360.764c-1.713 0-3.102 1.389-3.102 3.102s1.389 3.103 3.102 3.103 3.102-1.389 3.102-3.103-1.389-3.102-3.102-3.102z"/><path d="m416.945 371.14c-1.713 0-3.102 1.389-3.102 3.102s1.389 3.102 3.102 3.102 3.102-1.389 3.102-3.102-1.388-3.102-3.102-3.102z"/><path d="m407.322 340.764c-1.713 0-3.102 1.389-3.102 3.102s1.389 3.103 3.102 3.103 3.102-1.389 3.102-3.103-1.389-3.102-3.102-3.102z"/><path d="m396.945 351.14c-1.713 0-3.102 1.389-3.102 3.102s1.389 3.102 3.102 3.102 3.102-1.389 3.102-3.102-1.388-3.102-3.102-3.102z"/><path d="m407.322 360.764c-1.713 0-3.102 1.389-3.102 3.102s1.389 3.103 3.102 3.103 3.102-1.389 3.102-3.103-1.389-3.102-3.102-3.102z"/><path d="m396.945 371.14c-1.713 0-3.102 1.389-3.102 3.102s1.389 3.102 3.102 3.102 3.102-1.389 3.102-3.102-1.388-3.102-3.102-3.102z"/><path d="m387.322 340.764c-1.713 0-3.102 1.389-3.102 3.102s1.389 3.103 3.102 3.103 3.102-1.389 3.102-3.103-1.389-3.102-3.102-3.102z"/><path d="m376.945 351.14c-1.713 0-3.102 1.389-3.102 3.102s1.389 3.102 3.102 3.102 3.102-1.389 3.102-3.102-1.388-3.102-3.102-3.102z"/><path d="m387.322 360.764c-1.713 0-3.102 1.389-3.102 3.102s1.389 3.103 3.102 3.103 3.102-1.389 3.102-3.103-1.389-3.102-3.102-3.102z"/><path d="m376.945 371.14c-1.713 0-3.102 1.389-3.102 3.102s1.389 3.102 3.102 3.102 3.102-1.389 3.102-3.102-1.388-3.102-3.102-3.102z"/><path d="m367.322 340.764c-1.713 0-3.102 1.389-3.102 3.102s1.389 3.103 3.102 3.103 3.102-1.389 3.102-3.103-1.389-3.102-3.102-3.102z"/><path d="m356.945 351.14c-1.713 0-3.102 1.389-3.102 3.102s1.389 3.102 3.102 3.102 3.102-1.389 3.102-3.102-1.388-3.102-3.102-3.102z"/><path d="m367.322 360.764c-1.713 0-3.102 1.389-3.102 3.102s1.389 3.103 3.102 3.103 3.102-1.389 3.102-3.103-1.389-3.102-3.102-3.102z"/><path d="m356.945 377.344c1.713 0 3.102-1.389 3.102-3.102s-1.389-3.102-3.102-3.102-3.102 1.389-3.102 3.102c0 1.714 1.389 3.102 3.102 3.102z"/><path d="m347.322 346.968c1.713 0 3.102-1.389 3.102-3.103 0-1.713-1.389-3.102-3.102-3.102s-3.102 1.389-3.102 3.102c-.001 1.714 1.388 3.103 3.102 3.103z"/><path d="m336.945 357.344c1.713 0 3.102-1.389 3.102-3.102s-1.389-3.102-3.102-3.102-3.102 1.389-3.102 3.102c0 1.714 1.389 3.102 3.102 3.102z"/><path d="m347.322 366.968c1.713 0 3.102-1.389 3.102-3.103 0-1.713-1.389-3.102-3.102-3.102s-3.102 1.389-3.102 3.102c-.001 1.714 1.388 3.103 3.102 3.103z"/><path d="m336.945 377.344c1.713 0 3.102-1.389 3.102-3.102s-1.389-3.102-3.102-3.102-3.102 1.389-3.102 3.102c0 1.714 1.389 3.102 3.102 3.102z"/><path d="m327.322 346.968c1.713 0 3.102-1.389 3.102-3.103 0-1.713-1.389-3.102-3.102-3.102s-3.102 1.389-3.102 3.102c-.001 1.714 1.388 3.103 3.102 3.103z"/><path d="m316.945 357.344c1.713 0 3.102-1.389 3.102-3.102s-1.389-3.102-3.102-3.102-3.102 1.389-3.102 3.102c0 1.714 1.389 3.102 3.102 3.102z"/><path d="m327.322 366.968c1.713 0 3.102-1.389 3.102-3.103 0-1.713-1.389-3.102-3.102-3.102s-3.102 1.389-3.102 3.102c-.001 1.714 1.388 3.103 3.102 3.103z"/><path d="m316.945 377.344c1.713 0 3.102-1.389 3.102-3.102s-1.389-3.102-3.102-3.102-3.102 1.389-3.102 3.102c0 1.714 1.389 3.102 3.102 3.102z"/><path d="m307.322 340.764c-1.713 0-3.102 1.389-3.102 3.102s1.389 3.103 3.102 3.103 3.102-1.389 3.102-3.103-1.389-3.102-3.102-3.102z"/><path d="m296.945 351.14c-1.713 0-3.102 1.389-3.102 3.102s1.389 3.102 3.102 3.102 3.102-1.389 3.102-3.102-1.388-3.102-3.102-3.102z"/><path d="m307.322 360.764c-1.713 0-3.102 1.389-3.102 3.102s1.389 3.103 3.102 3.103 3.102-1.389 3.102-3.103-1.389-3.102-3.102-3.102z"/><path d="m296.945 371.14c-1.713 0-3.102 1.389-3.102 3.102s1.389 3.102 3.102 3.102 3.102-1.389 3.102-3.102-1.388-3.102-3.102-3.102z"/><path d="m287.322 340.764c-1.713 0-3.102 1.389-3.102 3.102s1.389 3.103 3.102 3.103 3.102-1.389 3.102-3.103-1.389-3.102-3.102-3.102z"/><path d="m276.945 351.14c-1.713 0-3.102 1.389-3.102 3.102s1.389 3.102 3.102 3.102 3.102-1.389 3.102-3.102-1.388-3.102-3.102-3.102z"/><path d="m287.322 360.764c-1.713 0-3.102 1.389-3.102 3.102s1.389 3.103 3.102 3.103 3.102-1.389 3.102-3.103-1.389-3.102-3.102-3.102z"/><path d="m276.945 371.14c-1.713 0-3.102 1.389-3.102 3.102s1.389 3.102 3.102 3.102 3.102-1.389 3.102-3.102-1.388-3.102-3.102-3.102z"/><path d="m267.322 340.764c-1.713 0-3.102 1.389-3.102 3.102s1.389 3.103 3.102 3.103 3.102-1.389 3.102-3.103-1.389-3.102-3.102-3.102z"/><path d="m256.945 351.14c-1.713 0-3.102 1.389-3.102 3.102s1.389 3.102 3.102 3.102 3.102-1.389 3.102-3.102-1.388-3.102-3.102-3.102z"/><path d="m267.322 360.764c-1.713 0-3.102 1.389-3.102 3.102s1.389 3.103 3.102 3.103 3.102-1.389 3.102-3.103-1.389-3.102-3.102-3.102z"/><path d="m256.945 371.14c-1.713 0-3.102 1.389-3.102 3.102s1.389 3.102 3.102 3.102 3.102-1.389 3.102-3.102-1.388-3.102-3.102-3.102z"/><path d="m247.322 340.764c-1.713 0-3.102 1.389-3.102 3.102s1.389 3.103 3.102 3.103 3.102-1.389 3.102-3.103-1.389-3.102-3.102-3.102z"/><path d="m236.945 351.14c-1.713 0-3.102 1.389-3.102 3.102s1.389 3.102 3.102 3.102 3.102-1.389 3.102-3.102c.001-1.713-1.388-3.102-3.102-3.102z"/><path d="m247.322 360.764c-1.713 0-3.102 1.389-3.102 3.102s1.389 3.103 3.102 3.103 3.102-1.389 3.102-3.103-1.389-3.102-3.102-3.102z"/><path d="m236.945 371.14c-1.713 0-3.102 1.389-3.102 3.102s1.389 3.102 3.102 3.102 3.102-1.389 3.102-3.102c.001-1.713-1.388-3.102-3.102-3.102z"/><path d="m227.322 340.764c-1.713 0-3.102 1.389-3.102 3.102s1.389 3.103 3.102 3.103 3.102-1.389 3.102-3.103-1.389-3.102-3.102-3.102z"/><path d="m216.945 351.14c-1.713 0-3.102 1.389-3.102 3.102s1.389 3.102 3.102 3.102 3.102-1.389 3.102-3.102c.001-1.713-1.388-3.102-3.102-3.102z"/><path d="m227.322 360.764c-1.713 0-3.102 1.389-3.102 3.102s1.389 3.103 3.102 3.103 3.102-1.389 3.102-3.103-1.389-3.102-3.102-3.102z"/><path d="m216.945 371.14c-1.713 0-3.102 1.389-3.102 3.102s1.389 3.102 3.102 3.102 3.102-1.389 3.102-3.102c.001-1.713-1.388-3.102-3.102-3.102z"/><path d="m207.322 340.764c-1.713 0-3.102 1.389-3.102 3.102s1.389 3.103 3.102 3.103 3.102-1.389 3.102-3.103-1.389-3.102-3.102-3.102z"/><path d="m196.945 351.14c-1.713 0-3.102 1.389-3.102 3.102s1.389 3.102 3.102 3.102 3.102-1.389 3.102-3.102c.001-1.713-1.388-3.102-3.102-3.102z"/><path d="m207.322 360.764c-1.713 0-3.102 1.389-3.102 3.102s1.389 3.103 3.102 3.103 3.102-1.389 3.102-3.103-1.389-3.102-3.102-3.102z"/><path d="m196.945 371.14c-1.713 0-3.102 1.389-3.102 3.102s1.389 3.102 3.102 3.102 3.102-1.389 3.102-3.102c.001-1.713-1.388-3.102-3.102-3.102z"/><path d="m187.322 340.764c-1.713 0-3.102 1.389-3.102 3.102s1.389 3.103 3.102 3.103 3.102-1.389 3.102-3.103-1.389-3.102-3.102-3.102z"/><path d="m176.945 351.14c-1.713 0-3.102 1.389-3.102 3.102s1.389 3.102 3.102 3.102 3.102-1.389 3.102-3.102c.001-1.713-1.388-3.102-3.102-3.102z"/><path d="m187.322 360.764c-1.713 0-3.102 1.389-3.102 3.102s1.389 3.103 3.102 3.103 3.102-1.389 3.102-3.103-1.389-3.102-3.102-3.102z"/><path d="m176.945 371.14c-1.713 0-3.102 1.389-3.102 3.102s1.389 3.102 3.102 3.102 3.102-1.389 3.102-3.102c.001-1.713-1.388-3.102-3.102-3.102z"/><path d="m167.322 340.764c-1.713 0-3.102 1.389-3.102 3.102s1.389 3.103 3.102 3.103 3.102-1.389 3.102-3.103-1.389-3.102-3.102-3.102z"/><path d="m156.945 351.14c-1.713 0-3.102 1.389-3.102 3.102s1.389 3.102 3.102 3.102 3.102-1.389 3.102-3.102c.001-1.713-1.388-3.102-3.102-3.102z"/><path d="m167.322 360.764c-1.713 0-3.102 1.389-3.102 3.102s1.389 3.103 3.102 3.103 3.102-1.389 3.102-3.103-1.389-3.102-3.102-3.102z"/><path d="m147.322 340.764c-1.713 0-3.102 1.389-3.102 3.102s1.389 3.103 3.102 3.103 3.102-1.389 3.102-3.103-1.389-3.102-3.102-3.102z"/><path d="m136.945 351.14c-1.713 0-3.102 1.389-3.102 3.102s1.389 3.102 3.102 3.102 3.102-1.389 3.102-3.102c.001-1.713-1.388-3.102-3.102-3.102z"/><path d="m147.322 360.764c-1.713 0-3.102 1.389-3.102 3.102s1.389 3.103 3.102 3.103 3.102-1.389 3.102-3.103-1.389-3.102-3.102-3.102z"/><path d="m127.322 340.764c-1.713 0-3.102 1.389-3.102 3.102s1.389 3.103 3.102 3.103 3.102-1.389 3.102-3.103-1.389-3.102-3.102-3.102z"/><path d="m116.945 351.14c-1.713 0-3.102 1.389-3.102 3.102s1.389 3.102 3.102 3.102 3.102-1.389 3.102-3.102c.001-1.713-1.388-3.102-3.102-3.102z"/><path d="m127.322 360.764c-1.713 0-3.102 1.389-3.102 3.102s1.389 3.103 3.102 3.103 3.102-1.389 3.102-3.103-1.389-3.102-3.102-3.102z"/><path d="m107.322 340.764c-1.713 0-3.102 1.389-3.102 3.102s1.389 3.103 3.102 3.103 3.102-1.389 3.102-3.103-1.389-3.102-3.102-3.102z"/><path d="m96.945 351.14c-1.713 0-3.102 1.389-3.102 3.102s1.389 3.102 3.102 3.102 3.102-1.389 3.102-3.102c.001-1.713-1.388-3.102-3.102-3.102z"/><path d="m107.322 360.764c-1.713 0-3.102 1.389-3.102 3.102s1.389 3.103 3.102 3.103 3.102-1.389 3.102-3.103-1.389-3.102-3.102-3.102z"/><path d="m96.945 371.14c-1.713 0-3.102 1.389-3.102 3.102s1.389 3.102 3.102 3.102 3.102-1.389 3.102-3.102c.001-1.713-1.388-3.102-3.102-3.102z"/><path d="m87.322 340.764c-1.713 0-3.102 1.389-3.102 3.102s1.389 3.103 3.102 3.103 3.102-1.389 3.102-3.103-1.389-3.102-3.102-3.102z"/><path d="m76.945 351.14c-1.713 0-3.102 1.389-3.102 3.102s1.389 3.102 3.102 3.102 3.102-1.389 3.102-3.102c.001-1.713-1.388-3.102-3.102-3.102z"/><path d="m87.322 360.764c-1.713 0-3.102 1.389-3.102 3.102s1.389 3.103 3.102 3.103 3.102-1.389 3.102-3.103-1.389-3.102-3.102-3.102z"/><path d="m76.945 371.14c-1.713 0-3.102 1.389-3.102 3.102s1.389 3.102 3.102 3.102 3.102-1.389 3.102-3.102c.001-1.713-1.388-3.102-3.102-3.102z"/><path d="m67.322 340.764c-1.713 0-3.102 1.389-3.102 3.102s1.389 3.103 3.102 3.103 3.102-1.389 3.102-3.103-1.389-3.102-3.102-3.102z"/><path d="m56.945 351.14c-1.713 0-3.102 1.389-3.102 3.102s1.389 3.102 3.102 3.102 3.102-1.389 3.102-3.102-1.388-3.102-3.102-3.102z"/><path d="m67.322 360.764c-1.713 0-3.102 1.389-3.102 3.102s1.389 3.103 3.102 3.103 3.102-1.389 3.102-3.103-1.389-3.102-3.102-3.102z"/><path d="m56.945 371.14c-1.713 0-3.102 1.389-3.102 3.102s1.389 3.102 3.102 3.102 3.102-1.389 3.102-3.102-1.388-3.102-3.102-3.102z"/><path d="m47.322 340.764c-1.713 0-3.102 1.389-3.102 3.102s1.389 3.103 3.102 3.103 3.102-1.389 3.102-3.103-1.389-3.102-3.102-3.102z"/><path d="m36.945 351.14c-1.713 0-3.102 1.389-3.102 3.102s1.389 3.102 3.102 3.102 3.102-1.389 3.102-3.102c.001-1.713-1.388-3.102-3.102-3.102z"/><path d="m47.322 360.764c-1.713 0-3.102 1.389-3.102 3.102s1.389 3.103 3.102 3.103 3.102-1.389 3.102-3.103-1.389-3.102-3.102-3.102z"/><path d="m36.945 371.14c-1.713 0-3.102 1.389-3.102 3.102s1.389 3.102 3.102 3.102 3.102-1.389 3.102-3.102c.001-1.713-1.388-3.102-3.102-3.102z"/><path d="m24.219 343.866c0 1.713 1.389 3.103 3.102 3.103s3.102-1.389 3.102-3.103c0-1.713-1.389-3.102-3.102-3.102s-3.102 1.388-3.102 3.102z"/><path d="m27.322 366.968c1.713 0 3.102-1.389 3.102-3.103 0-1.713-1.389-3.102-3.102-3.102s-3.102 1.389-3.102 3.102c-.001 1.714 1.388 3.103 3.102 3.103z"/></g><g fill="#31373d"><path d="m495.684 376.197v-32.634-26.293c0-.895-.028-1.807-.069-2.725-.016-.392-.035-.782-.059-1.172-.025-.393-.059-.79-.091-1.188-.079-1.012-.181-2.017-.306-3.016-.01-.077-.016-.153-.026-.23-.002-.016-.007-.031-.009-.047-4.124-31.788-31.352-56.427-64.244-56.427h-36.105v-93.027c0-18.612-15.143-33.755-33.755-33.755h-71.138v-28.989c2.264-.871 4.525-1.766 6.78-2.705 8.824-3.676 14.29-13.016 14.252-22.858 10.136-5.787 14.903-18.255 10.696-29.54-2.264-6.073-6.758-10.901-12.653-13.595-5.896-2.694-12.488-2.93-18.56-.666-57.235 21.337-116.167 21.312-175.157-.075-6.094-2.209-12.683-1.914-18.554.833s-10.32 7.615-12.53 13.709c-4.078 11.251.716 23.587 10.774 29.331-.041 9.926 5.515 19.326 14.439 22.941 3.839 1.555 7.684 3.014 11.533 4.38v27.235h-71.967c-17.978 0-32.604 14.626-32.604 32.604v211.019c0 2.101.211 4.152.594 6.142-9.821 3.27-16.925 12.543-16.925 23.45 0 13.629 11.088 24.717 24.717 24.717h42.532c0 .059-.004.118-.004.177 0 33.666 27.39 61.056 61.056 61.056s61.056-27.39 61.056-61.056c0-.059-.004-.118-.004-.177h120.385c0 .059-.004.118-.004.177 0 33.666 27.39 61.056 61.056 61.056 33.667 0 61.056-27.39 61.056-61.056 0-.059-.004-.118-.005-.177h54.079c13.629 0 24.717-11.088 24.717-24.717-.001-10.162-6.167-18.908-14.953-22.702zm-8.185-63.31c.05.628.093 1.252.122 1.87.036.833.064 1.669.064 2.512v23.374c-.752.148-1.52.223-2.297.223h-23.023c-6.549 0-11.877-5.329-11.877-11.878v-4.763c0-6.549 5.328-11.878 11.877-11.878h23.023c.699 0 1.396.063 2.084.188.01.118.018.235.027.352zm-217.992-187.204v-22.109c3.734-1.088 7.461-2.266 11.178-3.538v.364h1.199v25.283zm-8 0h-112.225v-18.899c18.127 4.231 36.263 6.377 54.24 6.377 19.37 0 38.767-2.482 57.985-7.391zm-165.057-63.229c-5.025-4.274-7.148-11.375-4.771-17.932 1.481-4.084 4.464-7.348 8.399-9.189 2.192-1.025 4.532-1.541 6.882-1.541 1.869 0 3.745.327 5.555.982 60.826 22.053 121.615 22.07 180.679.051 4.07-1.518 8.489-1.36 12.441.446s6.964 5.042 8.482 9.113c2.453 6.582.339 13.748-4.726 18.055-2.186-6.104-6.569-11.024-12.107-13.544-5.243-2.386-11.055-2.482-16.365-.269-51.031 21.258-103.578 21.233-156.18-.077-5.323-2.157-11.129-2.006-16.349.426-5.465 2.546-9.78 7.436-11.94 13.479zm15.925 24.198c-7.498-3.038-11.341-12.466-8.566-21.018 1.385-4.268 4.286-7.697 7.959-9.409 1.693-.789 3.487-1.185 5.283-1.185 1.581 0 3.164.307 4.682.922 54.624 22.129 109.215 22.145 162.26.047 3.236-1.348 6.778-1.29 9.976.166 3.68 1.675 6.604 5.071 8.02 9.317 2.844 8.525-.925 17.995-8.402 21.11-29.56 12.313-59.862 18.557-90.066 18.557-30.163.002-60.83-6.225-91.146-18.507zm16.529 14.484c4.123 1.321 8.249 2.533 12.377 3.638v20.909h-12.377zm-61.096 314.48h-43.091c-9.218 0-16.717-7.499-16.717-16.717s7.499-16.717 16.717-16.717h58.96c-8.425 9.029-14.143 20.605-15.869 33.434zm242.488 0h-121.502c-1.726-12.829-7.444-24.404-15.869-33.434h153.241c-8.426 9.029-14.144 20.605-15.87 33.434zm96.016-41.434c-10.016-7.193-22.279-11.445-35.524-11.445s-25.507 4.252-35.523 11.445h-171.441c-10.016-7.193-22.279-11.445-35.524-11.445s-25.507 4.252-35.524 11.445h-67.941c-.319-1.579-.504-3.206-.504-4.877v-211.018c0-13.567 11.037-24.604 24.604-24.604h312.086c14.201 0 25.755 11.554 25.755 25.755v97.027c0 2.209 1.791 4 4 4h40.105c26.89 0 49.459 18.788 55.312 43.921-.269-.011-.536-.038-.805-.038h-23.023c-10.96 0-19.877 8.917-19.877 19.878v4.763c0 10.961 8.917 19.878 19.877 19.878h23.023c.773 0 1.538-.056 2.297-.144v25.529c-.584-.041-1.171-.07-1.765-.07zm79.607 41.434h-54.638c-1.726-12.829-7.444-24.404-15.869-33.434h70.507c9.218 0 16.717 7.499 16.717 16.717s-7.499 16.717-16.717 16.717z"/><path d="m356.449 256.803v-70.478c0-15.461-12.579-28.04-28.04-28.04h-253.502c-15.461 0-28.04 12.579-28.04 28.04v70.478c-7.824 2.198-13.585 9.379-13.585 17.897 0 10.258 8.346 18.603 18.604 18.603h299.544c10.258 0 18.603-8.346 18.603-18.603.001-8.517-5.759-15.699-13.584-17.897zm-5.018 28.5h-299.544c-5.847 0-10.604-4.757-10.604-10.603s4.757-10.604 10.604-10.604h299.544c5.847 0 10.603 4.757 10.603 10.604s-4.757 10.603-10.603 10.603z"/></g><ellipse cx="128.301" cy="423.792" fill="#f9fbfc" rx="19.13" ry="19.13" transform="matrix(.974 -.228 .228 .974 -93.201 40.389)"/><ellipse cx="370.789" cy="423.792" fill="#f9fbfc" rx="19.13" ry="19.13" transform="matrix(.974 -.228 .228 .974 -86.82 95.649)"/><path d="m267.071 256.096v-32.645c0-3.534-2.865-6.399-6.399-6.399h-2.447v-12.701h-15.65v12.701h-2.447c-3.534 0-6.399 2.865-6.399 6.399v32.645z" fill="#eaa895"/><path d="m315.889 256.096v-32.645c0-3.534-2.865-6.399-6.399-6.399h-2.447v-12.701h-15.65v12.701h-2.448c-3.534 0-6.399 2.865-6.399 6.399v32.645z" fill="#e9c278"/><g fill="#f9fbfc"><path d="m132.044 214.953v-9.882h-32.591v9.882h-19.011v41.143h70.614v-41.143z"/><path d="m88.063 187.568h55.372v9.503h-55.372z"/><path d="m351.431 264.096h-299.544c-5.847 0-10.604 4.757-10.604 10.604s4.757 10.603 10.604 10.603h299.544c5.847 0 10.603-4.757 10.603-10.603s-4.757-10.604-10.603-10.604z"/></g></g></svg>