<svg id="Capa_1" enable-background="new 0 0 511.043 511.043" height="512" viewBox="0 0 511.043 511.043" width="512" xmlns="http://www.w3.org/2000/svg"><g><path d="m242.781 259.042 213.188-94.444c15.241-6.752 19.758-26.245 9.031-39.004-46.376-55.162-100.76-95.273-163.405-119.857-15.331-6.016-32.177 4.314-33.929 20.691z" fill="#e9c278"/><ellipse cx="223.366" cy="171.525" fill="#f9fbfc" rx="119.903" ry="119.903" transform="matrix(.707 -.707 .707 .707 -55.864 208.182)"/><circle cx="307.693" cy="236.844" fill="#eaa895" r="119.903"/><ellipse cx="199.649" cy="260.561" fill="#e9c278" rx="119.903" ry="119.903" transform="matrix(.707 -.707 .707 .707 -125.768 217.489)"/><path d="m392.191 507.043h-281.432c-11.778 0-21.61-8.986-22.666-20.716l-19.858-220.448h366.892l-20.274 220.49c-1.077 11.712-10.901 20.674-22.662 20.674z" fill="#f9fbfc"/><g fill="#eaa895"><circle cx="126.427" cy="466.265" r="24.201"/><circle cx="187.979" cy="398.246" r="24.201"/><circle cx="314.539" cy="398.246" r="24.201"/><circle cx="249.445" cy="466.265" r="24.201"/><g><path d="m432.529 275.725c0 1.103.583 2.063 1.452 2.609l.503-5.475c-1.143.452-1.955 1.561-1.955 2.866z"/><path d="m426.042 268.488c1.541 0 2.807-1.132 3.038-2.608h-6.076c.231 1.475 1.497 2.608 3.038 2.608z"/><path d="m415.718 272.638c-1.705 0-3.086 1.382-3.086 3.086 0 1.705 1.382 3.086 3.086 3.086 1.705 0 3.087-1.382 3.087-3.086s-1.382-3.086-3.087-3.086z"/><path d="m426.042 282.212c-1.704 0-3.086 1.382-3.086 3.086s1.382 3.086 3.086 3.086 3.086-1.382 3.086-3.086-1.382-3.086-3.086-3.086z"/><path d="m415.718 292.536c-1.705 0-3.086 1.382-3.086 3.086 0 1.705 1.382 3.086 3.086 3.086 1.705 0 3.087-1.382 3.087-3.086s-1.382-3.086-3.087-3.086z"/><path d="m426.042 302.11c-1.704 0-3.086 1.382-3.086 3.086 0 1.705 1.382 3.086 3.086 3.086s3.086-1.382 3.086-3.086-1.382-3.086-3.086-3.086z"/><path d="m415.718 312.433c-1.705 0-3.086 1.382-3.086 3.086s1.382 3.086 3.086 3.086c1.705 0 3.087-1.382 3.087-3.086s-1.382-3.086-3.087-3.086z"/><path d="m426.042 322.008c-1.704 0-3.086 1.382-3.086 3.086 0 1.705 1.382 3.086 3.086 3.086s3.086-1.382 3.086-3.086c0-1.705-1.382-3.086-3.086-3.086z"/><path d="m415.718 332.331c-1.705 0-3.086 1.382-3.086 3.086s1.382 3.086 3.086 3.086c1.705 0 3.087-1.382 3.087-3.086s-1.382-3.086-3.087-3.086z"/><path d="m422.955 344.992c0 1.705 1.382 3.086 3.086 3.086.575 0 1.107-.168 1.568-.442l.456-4.958c-.543-.475-1.246-.773-2.024-.773-1.704 0-3.086 1.382-3.086 3.087z"/><path d="m415.718 352.229c-1.705 0-3.086 1.382-3.086 3.087 0 1.704 1.382 3.086 3.086 3.086 1.705 0 3.087-1.382 3.087-3.086 0-1.706-1.382-3.087-3.087-3.087z"/><path d="m422.955 364.889c0 1.602 1.225 2.904 2.787 3.056l.562-6.116c-.088-.008-.173-.026-.263-.026-1.704 0-3.086 1.382-3.086 3.086z"/><path d="m415.718 372.126c-1.705 0-3.086 1.382-3.086 3.086 0 1.705 1.382 3.086 3.086 3.086 1.705 0 3.087-1.382 3.087-3.086s-1.382-3.086-3.087-3.086z"/><path d="m422.955 384.787c0 .91.401 1.72 1.028 2.285l.451-4.908c-.884.542-1.479 1.509-1.479 2.623z"/><path d="m415.718 392.024c-1.705 0-3.086 1.382-3.086 3.086s1.382 3.086 3.086 3.086c1.705 0 3.087-1.382 3.087-3.086s-1.382-3.086-3.087-3.086z"/><path d="m415.718 411.921c-1.705 0-3.086 1.382-3.086 3.086s1.382 3.086 3.086 3.086c1.705 0 3.087-1.382 3.087-3.086s-1.382-3.086-3.087-3.086z"/><path d="m415.718 431.819c-1.705 0-3.086 1.382-3.086 3.086s1.382 3.086 3.086 3.086c1.705 0 3.087-1.382 3.087-3.086s-1.382-3.086-3.087-3.086z"/><path d="m412.632 454.803c0 1.704 1.382 3.086 3.086 3.086.678 0 1.299-.225 1.808-.595l.424-4.613c-.562-.591-1.352-.964-2.232-.964-1.704-.001-3.086 1.381-3.086 3.086z"/><path d="m412.632 474.7c0 1.679 1.342 3.038 3.011 3.079l.562-6.116c-.16-.025-.32-.049-.487-.049-1.704 0-3.086 1.382-3.086 3.086z"/><path d="m413.375 492.611c-.37.436-.618.972-.7 1.566.248-.514.489-1.031.7-1.566z"/><path d="m406.144 268.488c1.541 0 2.807-1.132 3.038-2.608h-6.077c.232 1.475 1.498 2.608 3.039 2.608z"/><path d="m395.821 272.638c-1.705 0-3.086 1.382-3.086 3.086 0 1.705 1.382 3.086 3.086 3.086s3.086-1.382 3.086-3.086-1.382-3.086-3.086-3.086z"/><path d="m406.144 282.212c-1.704 0-3.086 1.382-3.086 3.086s1.382 3.086 3.086 3.086c1.705 0 3.086-1.382 3.086-3.086s-1.381-3.086-3.086-3.086z"/><path d="m395.821 292.536c-1.705 0-3.086 1.382-3.086 3.086 0 1.705 1.382 3.086 3.086 3.086s3.086-1.382 3.086-3.086-1.382-3.086-3.086-3.086z"/><circle cx="406.144" cy="305.196" r="3.086"/><path d="m395.821 312.433c-1.705 0-3.086 1.382-3.086 3.086s1.382 3.086 3.086 3.086 3.086-1.382 3.086-3.086-1.382-3.086-3.086-3.086z"/><path d="m406.144 322.008c-1.704 0-3.086 1.382-3.086 3.086 0 1.705 1.382 3.086 3.086 3.086 1.705 0 3.086-1.382 3.086-3.086 0-1.705-1.381-3.086-3.086-3.086z"/><path d="m396.394 332.389c-1.743-11.654-11.793-20.591-23.932-20.591-4.949 0-9.549 1.488-13.383 4.038.011-.105.032-.208.032-.316 0-1.705-1.382-3.086-3.086-3.086-1.705 0-3.086 1.382-3.086 3.086 0 1.586 1.201 2.877 2.741 3.051-4.571 4.402-7.418 10.58-7.418 17.427 0 13.366 10.835 24.201 24.201 24.201 12.552 0 22.871-9.556 24.081-21.79 1.354-.327 2.363-1.538 2.363-2.992 0-1.508-1.083-2.759-2.513-3.028z"/><circle cx="406.144" cy="344.992" r="3.086"/><path d="m395.821 352.229c-1.705 0-3.086 1.382-3.086 3.087 0 1.704 1.382 3.086 3.086 3.086s3.086-1.382 3.086-3.086c0-1.706-1.382-3.087-3.086-3.087z"/><path d="m406.144 361.803c-1.704 0-3.086 1.382-3.086 3.086 0 1.705 1.382 3.087 3.086 3.087 1.705 0 3.086-1.382 3.086-3.087 0-1.704-1.381-3.086-3.086-3.086z"/><path d="m395.821 372.126c-1.705 0-3.086 1.382-3.086 3.086 0 1.705 1.382 3.086 3.086 3.086s3.086-1.382 3.086-3.086-1.382-3.086-3.086-3.086z"/><path d="m406.144 381.7c-1.704 0-3.086 1.382-3.086 3.086 0 1.705 1.382 3.087 3.086 3.087 1.705 0 3.086-1.382 3.086-3.087 0-1.704-1.381-3.086-3.086-3.086z"/><path d="m395.821 392.024c-1.705 0-3.086 1.382-3.086 3.086s1.382 3.086 3.086 3.086 3.086-1.382 3.086-3.086-1.382-3.086-3.086-3.086z"/><circle cx="406.144" cy="404.684" r="3.086"/><path d="m395.821 411.921c-1.705 0-3.086 1.382-3.086 3.086s1.382 3.086 3.086 3.086 3.086-1.382 3.086-3.086-1.382-3.086-3.086-3.086z"/><path d="m406.144 421.495c-1.704 0-3.086 1.382-3.086 3.086 0 1.705 1.382 3.086 3.086 3.086 1.705 0 3.086-1.382 3.086-3.086s-1.381-3.086-3.086-3.086z"/><path d="m395.821 431.819c-1.705 0-3.086 1.382-3.086 3.086s1.382 3.086 3.086 3.086 3.086-1.382 3.086-3.086-1.382-3.086-3.086-3.086z"/><path d="m406.144 441.393c-1.704 0-3.086 1.382-3.086 3.087s1.382 3.086 3.086 3.086c1.705 0 3.086-1.382 3.086-3.086 0-1.705-1.381-3.087-3.086-3.087z"/><path d="m398.907 454.803c0-1.705-1.382-3.086-3.086-3.086-1.241 0-2.303.737-2.794 1.792-1.477-2.376-3.355-4.475-5.539-6.208 1.085-.478 1.844-1.56 1.844-2.822 0-1.705-1.382-3.087-3.086-3.087-1.705 0-3.086 1.382-3.086 3.087 0 .028.007.053.008.081-3.228-1.595-6.861-2.496-10.705-2.496-1.317 0-2.607.109-3.867.311-.563-.602-1.358-.983-2.247-.983-1.49 0-2.734 1.057-3.023 2.462-8.835 3.606-15.064 12.279-15.064 22.411 0 13.366 10.835 24.201 24.201 24.201 4.544 0 8.793-1.255 12.426-3.433.411.203.868.327 1.358.327 1.704 0 3.086-1.382 3.086-3.087 0-.208-.022-.41-.061-.607 1.927-1.862 3.544-4.04 4.771-6.452.503.356 1.115.57 1.778.57 1.704 0 3.086-1.382 3.086-3.086 0-1.623-1.258-2.939-2.849-3.062.392-1.729.606-3.525.606-5.372 0-2.975-.54-5.824-1.522-8.457.219.049.445.08.679.08 1.704.002 3.086-1.38 3.086-3.084z"/><path d="m406.144 461.291c-1.704 0-3.086 1.382-3.086 3.086 0 1.705 1.382 3.086 3.086 3.086 1.705 0 3.086-1.382 3.086-3.086 0-1.705-1.381-3.086-3.086-3.086z"/><path d="m406.144 481.188c-1.704 0-3.086 1.382-3.086 3.086 0 1.705 1.382 3.087 3.086 3.087 1.705 0 3.086-1.382 3.086-3.087 0-1.704-1.381-3.086-3.086-3.086z"/><path d="m395.821 491.511c-1.705 0-3.086 1.382-3.086 3.086 0 1.705 1.382 3.086 3.086 3.086s3.086-1.382 3.086-3.086-1.382-3.086-3.086-3.086z"/><path d="m403.058 504.172c0 .028.008.055.008.083 1.514-.826 2.928-1.81 4.211-2.948-.352-.139-.732-.222-1.133-.222-1.704.001-3.086 1.382-3.086 3.087z"/><path d="m386.247 268.488c1.541 0 2.807-1.132 3.038-2.608h-6.077c.231 1.475 1.498 2.608 3.039 2.608z"/><path d="m375.923 278.811c1.705 0 3.086-1.382 3.086-3.086 0-1.705-1.382-3.086-3.086-3.086s-3.086 1.382-3.086 3.086 1.382 3.086 3.086 3.086z"/><path d="m386.247 288.385c1.704 0 3.086-1.382 3.086-3.086 0-1.705-1.382-3.086-3.086-3.086-1.705 0-3.086 1.382-3.086 3.086-.001 1.704 1.381 3.086 3.086 3.086z"/><path d="m375.923 298.709c1.705 0 3.086-1.382 3.086-3.086 0-1.705-1.382-3.086-3.086-3.086s-3.086 1.382-3.086 3.086 1.382 3.086 3.086 3.086z"/><path d="m386.247 308.283c1.704 0 3.086-1.382 3.086-3.086 0-1.705-1.382-3.086-3.086-3.086-1.705 0-3.086 1.382-3.086 3.086-.001 1.704 1.381 3.086 3.086 3.086z"/><path d="m386.247 367.975c1.704 0 3.086-1.382 3.086-3.087 0-1.704-1.382-3.086-3.086-3.086-1.705 0-3.086 1.382-3.086 3.086-.001 1.706 1.381 3.087 3.086 3.087z"/><path d="m375.923 378.299c1.705 0 3.086-1.382 3.086-3.086 0-1.705-1.382-3.086-3.086-3.086s-3.086 1.382-3.086 3.086 1.382 3.086 3.086 3.086z"/><path d="m366.279 361.794c-1.704 0-3.086 1.382-3.086 3.086 0 1.705 1.382 3.086 3.086 3.086 1.705 0 3.086-1.382 3.086-3.086.001-1.705-1.381-3.086-3.086-3.086z"/><path d="m386.247 387.873c1.704 0 3.086-1.382 3.086-3.087 0-1.704-1.382-3.086-3.086-3.086-1.705 0-3.086 1.382-3.086 3.086-.001 1.705 1.381 3.087 3.086 3.087z"/><path d="m375.923 398.196c1.705 0 3.086-1.382 3.086-3.086s-1.382-3.086-3.086-3.086-3.086 1.382-3.086 3.086 1.382 3.086 3.086 3.086z"/><path d="m386.247 407.771c1.704 0 3.086-1.382 3.086-3.086 0-1.705-1.382-3.086-3.086-3.086-1.705 0-3.086 1.382-3.086 3.086-.001 1.704 1.381 3.086 3.086 3.086z"/><path d="m375.923 418.094c1.705 0 3.086-1.382 3.086-3.086 0-1.705-1.382-3.086-3.086-3.086s-3.086 1.382-3.086 3.086 1.382 3.086 3.086 3.086z"/><path d="m386.247 427.668c1.704 0 3.086-1.382 3.086-3.086s-1.382-3.086-3.086-3.086c-1.705 0-3.086 1.382-3.086 3.086-.001 1.704 1.381 3.086 3.086 3.086z"/><path d="m375.923 437.992c1.705 0 3.086-1.382 3.086-3.086 0-1.705-1.382-3.086-3.086-3.086s-3.086 1.382-3.086 3.086 1.382 3.086 3.086 3.086z"/><path d="m375.923 491.511c-1.704 0-3.086 1.382-3.086 3.086 0 1.705 1.382 3.086 3.086 3.086 1.705 0 3.086-1.382 3.086-3.086s-1.381-3.086-3.086-3.086z"/><path d="m356.038 491.511c-1.704 0-3.086 1.382-3.086 3.086 0 1.705 1.382 3.086 3.086 3.086 1.705 0 3.086-1.382 3.086-3.086s-1.382-3.086-3.086-3.086z"/><path d="m386.247 501.086c-1.705 0-3.086 1.382-3.086 3.086 0 1.31.82 2.423 1.972 2.871h2.228c1.152-.448 1.972-1.561 1.972-2.871 0-1.705-1.382-3.086-3.086-3.086z"/><path d="m366.349 268.488c1.541 0 2.807-1.132 3.038-2.608h-6.076c.231 1.475 1.497 2.608 3.038 2.608z"/><path d="m356.026 278.811c1.705 0 3.086-1.382 3.086-3.086 0-1.705-1.382-3.086-3.086-3.086-1.705 0-3.086 1.382-3.086 3.086-.001 1.704 1.381 3.086 3.086 3.086z"/><path d="m366.349 288.385c1.704 0 3.086-1.382 3.086-3.086 0-1.705-1.382-3.086-3.086-3.086s-3.086 1.382-3.086 3.086 1.381 3.086 3.086 3.086z"/><circle cx="356.026" cy="295.622" r="3.086"/><path d="m366.349 308.283c1.704 0 3.086-1.382 3.086-3.086 0-1.705-1.382-3.086-3.086-3.086s-3.086 1.382-3.086 3.086 1.381 3.086 3.086 3.086z"/><path d="m366.349 381.7c-1.704 0-3.086 1.382-3.086 3.086 0 1.705 1.382 3.087 3.086 3.087s3.086-1.382 3.086-3.087c0-1.704-1.382-3.086-3.086-3.086z"/><path d="m366.349 401.598c-1.704 0-3.086 1.382-3.086 3.086 0 1.705 1.382 3.086 3.086 3.086s3.086-1.382 3.086-3.086-1.382-3.086-3.086-3.086z"/><path d="m366.349 421.495c-1.704 0-3.086 1.382-3.086 3.086 0 1.705 1.382 3.086 3.086 3.086s3.086-1.382 3.086-3.086-1.382-3.086-3.086-3.086z"/><path d="m366.349 501.086c-1.704 0-3.086 1.382-3.086 3.086 0 1.31.82 2.423 1.972 2.871h2.228c1.152-.448 1.972-1.561 1.972-2.871 0-1.705-1.382-3.086-3.086-3.086z"/><path d="m346.451 268.488c1.541 0 2.807-1.132 3.038-2.608h-6.077c.232 1.475 1.499 2.608 3.039 2.608z"/><path d="m336.128 272.638c-1.705 0-3.086 1.382-3.086 3.086 0 1.705 1.382 3.086 3.086 3.086s3.086-1.382 3.086-3.086-1.382-3.086-3.086-3.086z"/><path d="m346.451 288.385c1.705 0 3.086-1.382 3.086-3.086 0-1.705-1.382-3.086-3.086-3.086s-3.086 1.382-3.086 3.086 1.382 3.086 3.086 3.086z"/><circle cx="336.128" cy="295.622" r="3.086"/><circle cx="346.451" cy="305.196" r="3.086"/><path d="m336.128 312.433c-1.705 0-3.086 1.382-3.086 3.086s1.382 3.086 3.086 3.086 3.086-1.382 3.086-3.086-1.382-3.086-3.086-3.086z"/><path d="m349.538 325.094c0-1.704-1.382-3.086-3.086-3.086s-3.086 1.382-3.086 3.086c0 1.705 1.382 3.086 3.086 3.086s3.086-1.382 3.086-3.086z"/><path d="m326.554 268.488c1.541 0 2.807-1.132 3.038-2.608h-6.076c.231 1.475 1.497 2.608 3.038 2.608z"/><path d="m316.23 272.638c-1.704 0-3.086 1.382-3.086 3.086 0 1.705 1.382 3.086 3.086 3.086 1.705 0 3.087-1.382 3.087-3.086s-1.382-3.086-3.087-3.086z"/><path d="m326.554 282.212c-1.704 0-3.086 1.382-3.086 3.086s1.382 3.086 3.086 3.086 3.086-1.382 3.086-3.086-1.382-3.086-3.086-3.086z"/><path d="m316.23 292.536c-1.704 0-3.086 1.382-3.086 3.086 0 1.705 1.382 3.086 3.086 3.086 1.705 0 3.087-1.382 3.087-3.086s-1.382-3.086-3.087-3.086z"/><path d="m326.554 302.11c-1.704 0-3.086 1.382-3.086 3.086 0 1.705 1.382 3.086 3.086 3.086s3.086-1.382 3.086-3.086-1.382-3.086-3.086-3.086z"/><path d="m316.23 312.433c-1.704 0-3.086 1.382-3.086 3.086s1.382 3.086 3.086 3.086c1.705 0 3.087-1.382 3.087-3.086s-1.382-3.086-3.087-3.086z"/><path d="m326.554 322.008c-1.704 0-3.086 1.382-3.086 3.086 0 1.705 1.382 3.086 3.086 3.086s3.086-1.382 3.086-3.086c0-1.705-1.382-3.086-3.086-3.086z"/><path d="m306.656 268.488c1.541 0 2.807-1.132 3.038-2.608h-6.077c.232 1.475 1.498 2.608 3.039 2.608z"/><path d="m296.333 272.638c-1.705 0-3.086 1.382-3.086 3.086 0 1.705 1.382 3.086 3.086 3.086s3.086-1.382 3.086-3.086-1.382-3.086-3.086-3.086z"/><path d="m306.656 282.212c-1.704 0-3.086 1.382-3.086 3.086s1.382 3.086 3.086 3.086c1.705 0 3.086-1.382 3.086-3.086.001-1.704-1.381-3.086-3.086-3.086z"/><path d="m296.333 292.536c-1.705 0-3.086 1.382-3.086 3.086 0 1.705 1.382 3.086 3.086 3.086s3.086-1.382 3.086-3.086-1.382-3.086-3.086-3.086z"/><path d="m306.656 302.11c-1.704 0-3.086 1.382-3.086 3.086 0 1.705 1.382 3.086 3.086 3.086 1.705 0 3.086-1.382 3.086-3.086.001-1.704-1.381-3.086-3.086-3.086z"/><path d="m296.333 312.433c-1.705 0-3.086 1.382-3.086 3.086s1.382 3.086 3.086 3.086 3.086-1.382 3.086-3.086-1.382-3.086-3.086-3.086z"/><path d="m306.656 322.008c-1.704 0-3.086 1.382-3.086 3.086 0 1.705 1.382 3.086 3.086 3.086 1.705 0 3.086-1.382 3.086-3.086.001-1.705-1.381-3.086-3.086-3.086z"/><path d="m286.759 268.488c1.541 0 2.807-1.132 3.038-2.608h-6.077c.232 1.475 1.498 2.608 3.039 2.608z"/><path d="m276.435 272.638c-1.704 0-3.086 1.382-3.086 3.086 0 1.705 1.382 3.086 3.086 3.086 1.705 0 3.086-1.382 3.086-3.086.001-1.704-1.381-3.086-3.086-3.086z"/><path d="m286.759 282.212c-1.705 0-3.087 1.382-3.087 3.086s1.382 3.086 3.087 3.086c1.704 0 3.086-1.382 3.086-3.086s-1.382-3.086-3.086-3.086z"/><path d="m276.435 292.536c-1.704 0-3.086 1.382-3.086 3.086 0 1.705 1.382 3.086 3.086 3.086 1.705 0 3.086-1.382 3.086-3.086.001-1.704-1.381-3.086-3.086-3.086z"/><path d="m286.759 302.11c-1.705 0-3.087 1.382-3.087 3.086 0 1.705 1.382 3.086 3.087 3.086 1.704 0 3.086-1.382 3.086-3.086s-1.382-3.086-3.086-3.086z"/><path d="m276.435 312.433c-1.704 0-3.086 1.382-3.086 3.086s1.382 3.086 3.086 3.086c1.705 0 3.086-1.382 3.086-3.086.001-1.704-1.381-3.086-3.086-3.086z"/><path d="m286.759 322.008c-1.705 0-3.087 1.382-3.087 3.086 0 1.705 1.382 3.086 3.087 3.086 1.704 0 3.086-1.382 3.086-3.086 0-1.705-1.382-3.086-3.086-3.086z"/><path d="m266.861 268.488c1.541 0 2.807-1.132 3.038-2.608h-6.076c.231 1.475 1.497 2.608 3.038 2.608z"/><path d="m256.538 278.811c1.705 0 3.086-1.382 3.086-3.086 0-1.705-1.382-3.086-3.086-3.086-1.705 0-3.086 1.382-3.086 3.086-.001 1.704 1.381 3.086 3.086 3.086z"/><path d="m266.861 288.385c1.705 0 3.086-1.382 3.086-3.086 0-1.705-1.382-3.086-3.086-3.086s-3.086 1.382-3.086 3.086 1.382 3.086 3.086 3.086z"/><circle cx="256.538" cy="295.622" r="3.086"/><path d="m266.861 308.283c1.705 0 3.086-1.382 3.086-3.086 0-1.705-1.382-3.086-3.086-3.086s-3.086 1.382-3.086 3.086 1.382 3.086 3.086 3.086z"/><path d="m246.964 268.488c1.541 0 2.807-1.132 3.038-2.608h-6.077c.231 1.475 1.498 2.608 3.039 2.608z"/><path d="m236.64 278.811c1.704 0 3.086-1.382 3.086-3.086 0-1.705-1.382-3.086-3.086-3.086-1.705 0-3.086 1.382-3.086 3.086s1.382 3.086 3.086 3.086z"/><path d="m246.964 288.385c1.705 0 3.086-1.382 3.086-3.086 0-1.705-1.382-3.086-3.086-3.086-1.705 0-3.086 1.382-3.086 3.086-.001 1.704 1.381 3.086 3.086 3.086z"/><circle cx="236.64" cy="295.622" r="3.086"/><circle cx="246.964" cy="305.196" r="3.086"/><path d="m227.066 268.488c1.541 0 2.807-1.132 3.038-2.608h-6.076c.231 1.475 1.497 2.608 3.038 2.608z"/><path d="m216.743 272.638c-1.705 0-3.086 1.382-3.086 3.086 0 1.705 1.382 3.086 3.086 3.086 1.705 0 3.086-1.382 3.086-3.086s-1.382-3.086-3.086-3.086z"/><path d="m227.066 288.385c1.704 0 3.086-1.382 3.086-3.086 0-1.705-1.382-3.086-3.086-3.086s-3.086 1.382-3.086 3.086 1.381 3.086 3.086 3.086z"/><path d="m216.743 292.536c-1.705 0-3.086 1.382-3.086 3.086 0 1.705 1.382 3.086 3.086 3.086 1.705 0 3.086-1.382 3.086-3.086s-1.382-3.086-3.086-3.086z"/><circle cx="227.066" cy="305.196" r="3.086"/><path d="m216.743 312.433c-1.705 0-3.086 1.382-3.086 3.086s1.382 3.086 3.086 3.086c1.705 0 3.086-1.382 3.086-3.086s-1.382-3.086-3.086-3.086z"/><path d="m207.168 268.488c1.541 0 2.807-1.132 3.038-2.608h-6.077c.232 1.475 1.499 2.608 3.039 2.608z"/><path d="m196.845 272.638c-1.705 0-3.086 1.382-3.086 3.086 0 1.705 1.382 3.086 3.086 3.086s3.086-1.382 3.086-3.086-1.381-3.086-3.086-3.086z"/><path d="m207.168 282.212c-1.704 0-3.086 1.382-3.086 3.086s1.382 3.086 3.086 3.086c1.705 0 3.087-1.382 3.087-3.086s-1.382-3.086-3.087-3.086z"/><path d="m196.845 292.536c-1.705 0-3.086 1.382-3.086 3.086 0 1.705 1.382 3.086 3.086 3.086s3.086-1.382 3.086-3.086-1.381-3.086-3.086-3.086z"/><path d="m207.168 302.11c-1.704 0-3.086 1.382-3.086 3.086 0 1.705 1.382 3.086 3.086 3.086 1.705 0 3.087-1.382 3.087-3.086s-1.382-3.086-3.087-3.086z"/><path d="m196.845 312.433c-1.705 0-3.086 1.382-3.086 3.086s1.382 3.086 3.086 3.086 3.086-1.382 3.086-3.086-1.381-3.086-3.086-3.086z"/><path d="m207.168 322.008c-1.704 0-3.086 1.382-3.086 3.086 0 1.705 1.382 3.086 3.086 3.086 1.705 0 3.087-1.382 3.087-3.086 0-1.705-1.382-3.086-3.087-3.086z"/><path d="m187.271 268.488c1.541 0 2.807-1.132 3.038-2.608h-6.077c.232 1.475 1.498 2.608 3.039 2.608z"/><path d="m176.947 272.638c-1.704 0-3.086 1.382-3.086 3.086 0 1.705 1.382 3.086 3.086 3.086 1.705 0 3.086-1.382 3.086-3.086.001-1.704-1.381-3.086-3.086-3.086z"/><path d="m187.271 282.212c-1.705 0-3.087 1.382-3.087 3.086s1.382 3.086 3.087 3.086c1.704 0 3.086-1.382 3.086-3.086s-1.382-3.086-3.086-3.086z"/><path d="m176.947 292.536c-1.704 0-3.086 1.382-3.086 3.086 0 1.705 1.382 3.086 3.086 3.086 1.705 0 3.086-1.382 3.086-3.086.001-1.704-1.381-3.086-3.086-3.086z"/><path d="m187.271 302.11c-1.705 0-3.087 1.382-3.087 3.086 0 1.705 1.382 3.086 3.087 3.086 1.704 0 3.086-1.382 3.086-3.086s-1.382-3.086-3.086-3.086z"/><path d="m176.947 312.433c-1.704 0-3.086 1.382-3.086 3.086s1.382 3.086 3.086 3.086c1.705 0 3.086-1.382 3.086-3.086.001-1.704-1.381-3.086-3.086-3.086z"/><path d="m187.271 322.008c-1.705 0-3.087 1.382-3.087 3.086 0 1.705 1.382 3.086 3.087 3.086 1.704 0 3.086-1.382 3.086-3.086 0-1.705-1.382-3.086-3.086-3.086z"/><path d="m167.373 268.488c1.541 0 2.807-1.132 3.038-2.608h-6.076c.231 1.475 1.497 2.608 3.038 2.608z"/><path d="m157.05 272.638c-1.705 0-3.086 1.382-3.086 3.086 0 1.705 1.382 3.086 3.086 3.086 1.705 0 3.086-1.382 3.086-3.086s-1.381-3.086-3.086-3.086z"/><path d="m167.373 282.212c-1.704 0-3.086 1.382-3.086 3.086s1.382 3.086 3.086 3.086c1.705 0 3.086-1.382 3.086-3.086.001-1.704-1.381-3.086-3.086-3.086z"/><path d="m157.05 292.536c-1.705 0-3.086 1.382-3.086 3.086 0 1.705 1.382 3.086 3.086 3.086 1.705 0 3.086-1.382 3.086-3.086s-1.381-3.086-3.086-3.086z"/><path d="m167.373 302.11c-1.704 0-3.086 1.382-3.086 3.086 0 1.705 1.382 3.086 3.086 3.086 1.705 0 3.086-1.382 3.086-3.086.001-1.704-1.381-3.086-3.086-3.086z"/><path d="m157.05 312.433c-1.705 0-3.086 1.382-3.086 3.086s1.382 3.086 3.086 3.086c1.705 0 3.086-1.382 3.086-3.086s-1.381-3.086-3.086-3.086z"/><path d="m167.373 322.008c-1.704 0-3.086 1.382-3.086 3.086 0 1.705 1.382 3.086 3.086 3.086 1.705 0 3.086-1.382 3.086-3.086.001-1.705-1.381-3.086-3.086-3.086z"/><path d="m147.476 268.488c1.541 0 2.807-1.132 3.038-2.608h-6.076c.231 1.475 1.497 2.608 3.038 2.608z"/><path d="m137.152 278.811c1.704 0 3.086-1.382 3.086-3.086 0-1.705-1.382-3.086-3.086-3.086-1.705 0-3.086 1.382-3.086 3.086s1.382 3.086 3.086 3.086z"/><path d="m147.476 288.385c1.705 0 3.086-1.382 3.086-3.086 0-1.705-1.382-3.086-3.086-3.086s-3.086 1.382-3.086 3.086c-.001 1.704 1.381 3.086 3.086 3.086z"/><circle cx="137.152" cy="295.622" r="3.086"/><circle cx="147.476" cy="305.196" r="3.086"/><path d="m150.562 325.094c0-1.704-1.382-3.086-3.086-3.086-.406 0-.792.083-1.148.226-1.663-2.399-3.747-4.482-6.147-6.144.035-.185.057-.375.057-.57 0-1.705-1.382-3.086-3.086-3.086-.858 0-1.633.351-2.193.916-2.654-1.001-5.529-1.552-8.533-1.552-2.596 0-5.094.413-7.438 1.17-.494-.336-1.091-.534-1.734-.534-1.564 0-2.843 1.168-3.045 2.677-3.053 1.79-5.678 4.227-7.687 7.126-1.13.458-1.929 1.563-1.929 2.857 0 .128.022.25.038.374-1.541 3.184-2.406 6.756-2.406 10.531 0 13.366 10.835 24.201 24.201 24.201s24.201-10.835 24.201-24.201c0-2.924-.519-5.727-1.469-8.322.844-.552 1.404-1.5 1.404-2.583z"/><path d="m127.578 268.488c1.541 0 2.807-1.132 3.038-2.608h-6.076c.231 1.475 1.497 2.608 3.038 2.608z"/><path d="m117.255 278.811c1.705 0 3.086-1.382 3.086-3.086 0-1.705-1.382-3.086-3.086-3.086s-3.087 1.382-3.087 3.086 1.382 3.086 3.087 3.086z"/><path d="m127.578 288.385c1.704 0 3.087-1.382 3.087-3.086 0-1.705-1.382-3.086-3.087-3.086-1.704 0-3.086 1.382-3.086 3.086s1.382 3.086 3.086 3.086z"/><path d="m117.255 298.709c1.705 0 3.086-1.382 3.086-3.086 0-1.705-1.382-3.086-3.086-3.086s-3.087 1.382-3.087 3.086 1.382 3.086 3.087 3.086z"/><path d="m127.578 308.283c1.704 0 3.087-1.382 3.087-3.086 0-1.705-1.382-3.086-3.087-3.086-1.704 0-3.086 1.382-3.086 3.086s1.382 3.086 3.086 3.086z"/><path d="m107.681 268.488c1.541 0 2.807-1.132 3.038-2.608h-6.077c.231 1.475 1.498 2.608 3.039 2.608z"/><path d="m97.357 272.638c-1.704 0-3.086 1.382-3.086 3.086 0 1.705 1.382 3.086 3.086 3.086 1.705 0 3.086-1.382 3.086-3.086.001-1.704-1.381-3.086-3.086-3.086z"/><path d="m107.681 288.385c1.705 0 3.087-1.382 3.087-3.086 0-1.705-1.382-3.086-3.087-3.086-1.704 0-3.086 1.382-3.086 3.086-.001 1.704 1.381 3.086 3.086 3.086z"/><path d="m97.357 292.536c-1.704 0-3.086 1.382-3.086 3.086 0 1.705 1.382 3.086 3.086 3.086 1.705 0 3.086-1.382 3.086-3.086.001-1.704-1.381-3.086-3.086-3.086z"/><path d="m107.681 308.283c1.705 0 3.087-1.382 3.087-3.086 0-1.705-1.382-3.086-3.087-3.086-1.704 0-3.086 1.382-3.086 3.086-.001 1.704 1.381 3.086 3.086 3.086z"/><path d="m97.357 312.433c-1.704 0-3.086 1.382-3.086 3.086s1.382 3.086 3.086 3.086c1.705 0 3.086-1.382 3.086-3.086.001-1.704-1.381-3.086-3.086-3.086z"/><path d="m87.783 268.488c1.541 0 2.807-1.132 3.038-2.608h-6.076c.231 1.475 1.497 2.608 3.038 2.608z"/><path d="m77.46 272.638c-1.705 0-3.086 1.382-3.086 3.086 0 1.705 1.382 3.086 3.086 3.086 1.705 0 3.086-1.382 3.086-3.086s-1.382-3.086-3.086-3.086z"/><path d="m87.783 282.212c-1.705 0-3.086 1.382-3.086 3.086s1.382 3.086 3.086 3.086 3.086-1.382 3.086-3.086c.001-1.704-1.381-3.086-3.086-3.086z"/><path d="m77.46 292.536c-1.705 0-3.086 1.382-3.086 3.086 0 1.705 1.382 3.086 3.086 3.086 1.705 0 3.086-1.382 3.086-3.086s-1.382-3.086-3.086-3.086z"/><circle cx="87.783" cy="305.196" r="3.086"/><path d="m77.46 312.433c-1.705 0-3.086 1.382-3.086 3.086s1.382 3.086 3.086 3.086c1.705 0 3.086-1.382 3.086-3.086s-1.382-3.086-3.086-3.086z"/><path d="m87.783 322.008c-1.705 0-3.086 1.382-3.086 3.086 0 1.705 1.382 3.086 3.086 3.086s3.086-1.382 3.086-3.086c.001-1.705-1.381-3.086-3.086-3.086z"/><path d="m70.924 265.879h-2.689l.23 2.55c1.272-.242 2.257-1.264 2.459-2.55z"/><path d="m69.765 282.867.405 4.491c.493-.547.802-1.264.802-2.059 0-.994-.478-1.868-1.207-2.432z"/><path d="m259.104 313.808c-.553-.828-1.496-1.374-2.567-1.374-.327 0-.635.064-.931.158-1.968-.517-4.033-.794-6.162-.794-3.616 0-7.043.799-10.124 2.22-.529-.941-1.524-1.584-2.681-1.584-1.705 0-3.086 1.382-3.086 3.086 0 .654.207 1.259.555 1.758-1.926 1.58-3.6 3.454-4.962 5.549-.549-.504-1.276-.82-2.08-.82-1.704 0-3.086 1.382-3.086 3.086 0 1.531 1.118 2.793 2.58 3.035-.849 2.468-1.316 5.114-1.316 7.869 0 13.366 10.835 24.201 24.201 24.201s24.201-10.835 24.201-24.201c0-9.93-5.984-18.459-14.542-22.189z"/></g></g><path d="m432.93 292.89h-362.498c-16.72 0-30.274-12.672-30.274-28.304s13.554-28.304 30.274-28.304h362.498c16.72 0 30.274 12.672 30.274 28.304s-13.554 28.304-30.274 28.304z" fill="#f9fbfc"/><path d="m457.589 168.256c8.428-3.733 14.453-11.027 16.532-20.01 2.077-8.979-.131-18.174-6.06-25.226-46.831-55.705-102.348-96.418-165.005-121.007-8.444-3.314-17.744-2.508-25.52 2.207-7.827 4.747-12.874 12.685-13.848 21.781l-2.931 27.399c-11.804-3.746-24.364-5.779-37.392-5.779-68.32 0-123.903 55.582-123.903 123.903 0 5.068.33 10.057.926 14.967-10.044 13.428-17.433 28.953-21.378 45.789h-8.579c-18.899 0-34.274 14.492-34.274 32.304 0 16.72 13.547 30.513 30.839 32.142l17.029 189.049c1.297 14.404 13.182 25.266 27.645 25.266h279.61c14.435 0 26.317-10.84 27.64-25.215l17.388-189.096c17.32-1.604 30.897-15.408 30.897-32.146 0-17.813-15.375-32.304-34.274-32.304h-1.427c-.615-16.885-4.622-32.917-11.362-47.435zm-23.989-70.857c9.77 9.674 19.224 19.927 28.339 30.769 4.294 5.108 5.894 11.768 4.388 18.274-1.142 4.937-3.931 9.166-7.875 12.103l-29.059-21.66zm16.942 65.229-25.078 11.109 2.942-27.609zm-55.623-99.169c10.785 8.339 21.255 17.296 31.389 26.875l-4.369 40.996-31.829-23.725zm26.035 77.114-3.933 36.905-.481.213c-7.634-13.991-17.887-26.358-30.096-36.435l2.66-24.424zm-65.573-104.05c10.982 6.53 21.685 13.64 32.102 21.316l-4.816 44.217-31.86-23.748zm26.281 74.762-2.647 24.299c-9.92-7.008-20.912-12.592-32.676-16.464l3.458-31.587zm-66.663-95.608c11.185 4.951 22.125 10.444 32.812 16.473l-4.446 40.611-32.001-23.853zm27.357 66.309-3.814 34.843c-1.514-.389-3.042-.743-4.578-1.076-6.623-13.08-15.496-24.829-26.109-34.745l2.502-22.875zm-60.672-70.925c3.341-2.025 7.069-3.054 10.824-3.054 2.567 0 5.148.481 7.626 1.454 2.405.944 4.795 1.92 7.178 2.913l-3.389 30.987-30.598-22.807c1.716-3.896 4.59-7.207 8.359-9.493zm-10.28 18.038 31.51 23.488-2.413 22.067c-9.609-7.668-20.369-13.952-31.99-18.516zm-163.941 142.426c0-63.909 51.994-115.903 115.903-115.903 42.987 0 80.565 23.534 100.574 58.384-5.318-.7-10.74-1.066-16.247-1.066-29.4 0-56.428 10.307-77.695 27.479-9.715-2.456-19.882-3.762-30.349-3.762-36.474 0-69.31 15.848-92.002 41.013-.109-2.036-.184-4.081-.184-6.145zm92.185-26.867c54.157 0 99.751 37.339 112.406 87.624h-224.812c12.655-50.285 58.249-87.624 112.406-87.624zm211.305 340.438c-.94 10.232-9.398 17.947-19.673 17.947h-279.609c-10.294 0-18.753-7.732-19.677-17.984l-16.95-188.169h353.215zm48.252-220.51c0 13.402-11.787 24.305-26.274 24.305h-362.499c-14.487 0-26.274-10.903-26.274-24.305 0-13.401 11.787-24.304 26.274-24.304h362.498c14.487-.001 26.275 10.902 26.275 24.304zm-138.919-32.305c-9.78-41.731-40.711-75.406-80.821-89.055 19.155-14.001 42.738-22.285 68.229-22.285 62.381 0 113.399 49.539 115.804 111.34z" fill="#31373d"/><path d="m153.553 119.025c0-8.519 6.906-15.426 15.426-15.426 8.519 0 15.426 6.906 15.426 15.426" style="fill:none;stroke:#31373d;stroke-width:8;stroke-linecap:round;stroke-linejoin:round;stroke-miterlimit:10"/><path d="m217.57 97.429c0-8.519 6.906-15.426 15.426-15.426s15.426 6.906 15.426 15.426" style="fill:none;stroke:#31373d;stroke-width:8;stroke-linecap:round;stroke-linejoin:round;stroke-miterlimit:10"/><path d="m167.225 189.376c0-8.519 6.906-15.426 15.426-15.426 8.519 0 15.426 6.906 15.426 15.426" style="fill:none;stroke:#31373d;stroke-width:8;stroke-linecap:round;stroke-linejoin:round;stroke-miterlimit:10"/><path d="m143.477 205.3c0-8.519 6.906-15.426 15.426-15.426 8.519 0 15.426 6.906 15.426 15.426" style="fill:none;stroke:#31373d;stroke-width:8;stroke-linecap:round;stroke-linejoin:round;stroke-miterlimit:10"/><path d="m336.348 181.167c0-8.519 6.906-15.426 15.426-15.426 8.519 0 15.426 6.906 15.426 15.426" style="fill:none;stroke:#31373d;stroke-width:8;stroke-linecap:round;stroke-linejoin:round;stroke-miterlimit:10"/></g></svg>