<svg id="Capa_1" enable-background="new 0 0 511.414 511.414" height="512" viewBox="0 0 511.414 511.414" width="512" xmlns="http://www.w3.org/2000/svg"><g><path d="m122.947 119.217 18.946 369.444c.538 10.499 9.208 18.734 19.719 18.734h186.634c10.484 0 19.141-8.194 19.716-18.662l20.303-369.516z" fill="#f9fbfc"/><g fill="#eaa895"><path d="m382.239 123.152c-1.7 0-3.079 1.378-3.079 3.079 0 1.7 1.378 3.079 3.079 3.079s3.079-1.378 3.079-3.079c.001-1.701-1.378-3.079-3.079-3.079z"/><path d="m382.239 149.16c1.701 0 3.079-1.379 3.079-3.079s-1.379-3.079-3.079-3.079-3.079 1.379-3.079 3.079c.001 1.7 1.379 3.079 3.079 3.079z"/><path d="m382.239 169.01c1.701 0 3.079-1.378 3.079-3.079s-1.379-3.079-3.079-3.079-3.079 1.378-3.079 3.079c.001 1.7 1.379 3.079 3.079 3.079z"/><path d="m382.239 182.701c-1.7 0-3.079 1.379-3.079 3.079s1.378 3.079 3.079 3.079c.894 0 1.692-.387 2.254-.995l.215-3.908c-.561-.757-1.453-1.255-2.469-1.255z"/><path d="m362.39 123.152c-1.7 0-3.079 1.378-3.079 3.079 0 1.7 1.378 3.079 3.079 3.079s3.079-1.378 3.079-3.079-1.379-3.079-3.079-3.079z"/><path d="m372.688 132.704c-1.701 0-3.079 1.379-3.079 3.079 0 1.701 1.379 3.079 3.079 3.079s3.079-1.378 3.079-3.079-1.378-3.079-3.079-3.079z"/><path d="m362.39 149.16c1.701 0 3.079-1.379 3.079-3.079s-1.379-3.079-3.079-3.079-3.079 1.379-3.079 3.079 1.378 3.079 3.079 3.079z"/><path d="m372.688 152.553c-1.701 0-3.079 1.378-3.079 3.079s1.379 3.079 3.079 3.079 3.079-1.379 3.079-3.079-1.378-3.079-3.079-3.079z"/><path d="m362.39 169.01c1.701 0 3.079-1.378 3.079-3.079s-1.379-3.079-3.079-3.079-3.079 1.378-3.079 3.079c0 1.7 1.378 3.079 3.079 3.079z"/><path d="m372.688 172.403c-1.701 0-3.079 1.379-3.079 3.079s1.379 3.079 3.079 3.079 3.079-1.379 3.079-3.079-1.378-3.079-3.079-3.079z"/><path d="m362.39 188.86c1.701 0 3.079-1.379 3.079-3.079 0-1.701-1.379-3.079-3.079-3.079s-3.079 1.379-3.079 3.079 1.378 3.079 3.079 3.079z"/><path d="m372.688 192.253c-1.701 0-3.079 1.378-3.079 3.078 0 1.701 1.379 3.079 3.079 3.079s3.079-1.378 3.079-3.079c0-1.7-1.378-3.078-3.079-3.078z"/><path d="m362.39 208.71c1.701 0 3.079-1.379 3.079-3.079s-1.379-3.079-3.079-3.079-3.079 1.379-3.079 3.079 1.378 3.079 3.079 3.079z"/><path d="m372.688 212.103c-1.701 0-3.079 1.379-3.079 3.079s1.379 3.079 3.079 3.079 3.079-1.379 3.079-3.079c0-1.701-1.378-3.079-3.079-3.079z"/><path d="m362.39 427.058c1.701 0 3.079-1.379 3.079-3.079s-1.379-3.079-3.079-3.079-3.079 1.379-3.079 3.079c0 1.701 1.378 3.079 3.079 3.079z"/><path d="m362.39 446.908c1.701 0 3.079-1.378 3.079-3.079s-1.379-3.079-3.079-3.079-3.079 1.379-3.079 3.079c0 1.701 1.378 3.079 3.079 3.079z"/><path d="m362.39 466.758c1.701 0 3.079-1.379 3.079-3.079 0-1.701-1.379-3.079-3.079-3.079s-3.079 1.379-3.079 3.079 1.378 3.079 3.079 3.079z"/><path d="m362.39 486.608c1.701 0 3.079-1.379 3.079-3.079 0-1.701-1.379-3.079-3.079-3.079s-3.079 1.379-3.079 3.079 1.378 3.079 3.079 3.079z"/><path d="m342.54 129.31c1.7 0 3.079-1.378 3.079-3.079s-1.379-3.079-3.079-3.079c-1.701 0-3.079 1.378-3.079 3.079s1.378 3.079 3.079 3.079z"/><path d="m352.838 132.704c-1.7 0-3.079 1.379-3.079 3.079 0 1.701 1.379 3.079 3.079 3.079 1.701 0 3.079-1.378 3.079-3.079s-1.378-3.079-3.079-3.079z"/><path d="m342.54 149.16c1.7 0 3.079-1.379 3.079-3.079s-1.379-3.079-3.079-3.079c-1.701 0-3.079 1.379-3.079 3.079s1.378 3.079 3.079 3.079z"/><path d="m352.838 152.553c-1.7 0-3.079 1.378-3.079 3.079s1.379 3.079 3.079 3.079c1.701 0 3.079-1.379 3.079-3.079s-1.378-3.079-3.079-3.079z"/><path d="m342.54 169.01c1.7 0 3.079-1.378 3.079-3.079s-1.379-3.079-3.079-3.079c-1.701 0-3.079 1.378-3.079 3.079 0 1.7 1.378 3.079 3.079 3.079z"/><path d="m352.838 172.403c-1.7 0-3.079 1.379-3.079 3.079s1.379 3.079 3.079 3.079c1.701 0 3.079-1.379 3.079-3.079s-1.378-3.079-3.079-3.079z"/><path d="m345.619 185.781c0-1.701-1.379-3.079-3.079-3.079-.76 0-1.445.286-1.982.741.983 1.719 1.863 3.503 2.622 5.348 1.393-.295 2.439-1.53 2.439-3.01z"/><path d="m352.838 192.253c-1.7 0-3.079 1.378-3.079 3.078 0 1.701 1.379 3.079 3.079 3.079 1.701 0 3.079-1.378 3.079-3.079 0-1.7-1.378-3.078-3.079-3.078z"/><path d="m342.506 182.725c-1.701 0-3.079 1.378-3.079 3.079s1.379 3.079 3.079 3.079 3.079-1.378 3.079-3.079c-.001-1.7-1.379-3.079-3.079-3.079z"/><path d="m352.838 212.103c-1.7 0-3.079 1.379-3.079 3.079s1.379 3.079 3.079 3.079c1.701 0 3.079-1.379 3.079-3.079 0-1.701-1.378-3.079-3.079-3.079z"/><path d="m352.838 410.602c-1.7 0-3.079 1.378-3.079 3.078 0 1.701 1.379 3.079 3.079 3.079 1.701 0 3.079-1.379 3.079-3.079s-1.378-3.078-3.079-3.078z"/><path d="m342.54 420.9c-1.701 0-3.079 1.379-3.079 3.079 0 1.701 1.379 3.079 3.079 3.079s3.079-1.379 3.079-3.079-1.379-3.079-3.079-3.079z"/><path d="m333.012 410.612c-1.7 0-3.079 1.379-3.079 3.079s1.379 3.079 3.079 3.079c1.701 0 3.079-1.379 3.079-3.079s-1.379-3.079-3.079-3.079z"/><path d="m333.012 430.473c-1.7 0-3.079 1.379-3.079 3.079s1.379 3.079 3.079 3.079c1.701 0 3.079-1.379 3.079-3.079s-1.379-3.079-3.079-3.079z"/><path d="m352.838 430.451c-1.7 0-3.079 1.379-3.079 3.079s1.379 3.079 3.079 3.079c1.701 0 3.079-1.379 3.079-3.079s-1.378-3.079-3.079-3.079z"/><path d="m342.54 440.75c-1.701 0-3.079 1.379-3.079 3.079s1.379 3.079 3.079 3.079 3.079-1.378 3.079-3.079c0-1.7-1.379-3.079-3.079-3.079z"/><path d="m352.838 450.301c-1.7 0-3.079 1.379-3.079 3.079s1.379 3.079 3.079 3.079c1.701 0 3.079-1.379 3.079-3.079s-1.378-3.079-3.079-3.079z"/><path d="m342.54 460.6c-1.701 0-3.079 1.379-3.079 3.079s1.379 3.079 3.079 3.079 3.079-1.379 3.079-3.079c0-1.701-1.379-3.079-3.079-3.079z"/><path d="m352.838 470.151c-1.7 0-3.079 1.378-3.079 3.079s1.379 3.079 3.079 3.079c1.701 0 3.079-1.378 3.079-3.079 0-1.7-1.378-3.079-3.079-3.079z"/><path d="m342.54 480.45c-1.701 0-3.079 1.379-3.079 3.079s1.379 3.079 3.079 3.079 3.079-1.379 3.079-3.079c0-1.701-1.379-3.079-3.079-3.079z"/><path d="m352.838 496.159c1.701 0 3.079-1.378 3.079-3.079s-1.378-3.079-3.079-3.079c-1.7 0-3.079 1.379-3.079 3.079s1.379 3.079 3.079 3.079z"/><path d="m342.54 500.3c-1.701 0-3.079 1.378-3.079 3.079 0 1.7 1.379 3.079 3.079 3.079s3.079-1.379 3.079-3.079c0-1.701-1.379-3.079-3.079-3.079z"/><path d="m322.69 129.31c1.7 0 3.079-1.378 3.079-3.079s-1.379-3.079-3.079-3.079c-1.701 0-3.079 1.378-3.079 3.079s1.378 3.079 3.079 3.079z"/><path d="m332.989 132.704c-1.7 0-3.079 1.379-3.079 3.079 0 1.701 1.379 3.079 3.079 3.079 1.701 0 3.079-1.378 3.079-3.079-.001-1.701-1.379-3.079-3.079-3.079z"/><path d="m322.69 149.16c1.7 0 3.079-1.379 3.079-3.079s-1.379-3.079-3.079-3.079c-1.701 0-3.079 1.379-3.079 3.079s1.378 3.079 3.079 3.079z"/><path d="m336.067 155.632c0-1.701-1.378-3.079-3.079-3.079-1.7 0-3.079 1.378-3.079 3.079s1.379 3.079 3.079 3.079c1.701 0 3.079-1.378 3.079-3.079z"/><path d="m332.989 410.602c-.188 0-.37.023-.549.055l-.416 5.933c.305.101.626.169.966.169 1.701 0 3.079-1.379 3.079-3.079-.002-1.7-1.38-3.078-3.08-3.078z"/><path d="m332.989 430.451c-.763 0-1.452.288-1.99.747l-.306 4.365c.564.636 1.378 1.045 2.296 1.045 1.701 0 3.079-1.379 3.079-3.079s-1.379-3.078-3.079-3.078z"/><path d="m332.989 450.301c-1.7 0-3.079 1.379-3.079 3.079s1.379 3.079 3.079 3.079c1.701 0 3.079-1.379 3.079-3.079-.001-1.7-1.379-3.079-3.079-3.079z"/><path d="m332.989 470.151c-1.7 0-3.079 1.378-3.079 3.079s1.379 3.079 3.079 3.079c1.701 0 3.079-1.378 3.079-3.079-.001-1.7-1.379-3.079-3.079-3.079z"/><path d="m332.989 490.001c-1.7 0-3.079 1.379-3.079 3.079s1.379 3.079 3.079 3.079c1.701 0 3.079-1.378 3.079-3.079s-1.379-3.079-3.079-3.079z"/><path d="m322.7 500.334c-1.701 0-3.079 1.379-3.079 3.079 0 1.701 1.379 3.079 3.079 3.079s3.079-1.379 3.079-3.079-1.378-3.079-3.079-3.079z"/><path d="m322.69 506.457c1.7 0 3.079-1.379 3.079-3.079 0-1.435-.986-2.63-2.314-2.972-1.058 1.26-2.339 2.388-3.805 3.354.189 1.519 1.47 2.697 3.04 2.697z"/><path d="m302.84 123.152c-1.701 0-3.079 1.378-3.079 3.079 0 1.7 1.378 3.079 3.079 3.079 1.7 0 3.079-1.378 3.079-3.079s-1.379-3.079-3.079-3.079z"/><path d="m313.139 132.704c-1.7 0-3.079 1.379-3.079 3.079 0 1.701 1.379 3.079 3.079 3.079 1.701 0 3.079-1.378 3.079-3.079s-1.379-3.079-3.079-3.079z"/><path d="m302.84 143.002c-1.701 0-3.079 1.379-3.079 3.079s1.378 3.079 3.079 3.079c1.7 0 3.079-1.379 3.079-3.079 0-1.701-1.379-3.079-3.079-3.079z"/><path d="m313.139 152.553c-1.7 0-3.079 1.378-3.079 3.079s1.379 3.079 3.079 3.079c1.701 0 3.079-1.379 3.079-3.079s-1.379-3.079-3.079-3.079z"/><path d="m282.99 123.152c-1.701 0-3.079 1.378-3.079 3.079 0 1.7 1.379 3.079 3.079 3.079s3.079-1.378 3.079-3.079-1.378-3.079-3.079-3.079z"/><path d="m293.289 132.704c-1.7 0-3.079 1.379-3.079 3.079 0 1.701 1.379 3.079 3.079 3.079s3.079-1.378 3.079-3.079-1.379-3.079-3.079-3.079z"/><path d="m282.99 143.002c-1.701 0-3.079 1.379-3.079 3.079s1.379 3.079 3.079 3.079 3.079-1.379 3.079-3.079c0-1.701-1.378-3.079-3.079-3.079z"/><path d="m293.289 152.553c-1.7 0-3.079 1.378-3.079 3.079s1.379 3.079 3.079 3.079 3.079-1.379 3.079-3.079-1.379-3.079-3.079-3.079z"/><path d="m263.14 123.152c-1.701 0-3.079 1.378-3.079 3.079 0 1.7 1.379 3.079 3.079 3.079s3.079-1.378 3.079-3.079-1.378-3.079-3.079-3.079z"/><path d="m273.439 132.704c-1.7 0-3.079 1.379-3.079 3.079 0 1.701 1.379 3.079 3.079 3.079 1.701 0 3.079-1.378 3.079-3.079s-1.379-3.079-3.079-3.079z"/><path d="m263.14 143.002c-1.701 0-3.079 1.379-3.079 3.079s1.379 3.079 3.079 3.079 3.079-1.379 3.079-3.079c0-1.701-1.378-3.079-3.079-3.079z"/><path d="m273.439 152.553c-1.7 0-3.079 1.378-3.079 3.079s1.379 3.079 3.079 3.079c1.701 0 3.079-1.379 3.079-3.079s-1.379-3.079-3.079-3.079z"/><path d="m243.291 123.152c-1.7 0-3.079 1.378-3.079 3.079 0 1.7 1.379 3.079 3.079 3.079s3.079-1.378 3.079-3.079c-.001-1.701-1.379-3.079-3.079-3.079z"/><path d="m253.589 132.704c-1.7 0-3.079 1.379-3.079 3.079 0 1.701 1.378 3.079 3.079 3.079s3.079-1.378 3.079-3.079-1.379-3.079-3.079-3.079z"/><path d="m243.291 143.002c-1.7 0-3.079 1.379-3.079 3.079s1.379 3.079 3.079 3.079 3.079-1.379 3.079-3.079c-.001-1.701-1.379-3.079-3.079-3.079z"/><path d="m253.589 152.553c-1.7 0-3.079 1.378-3.079 3.079s1.378 3.079 3.079 3.079 3.079-1.379 3.079-3.079-1.379-3.079-3.079-3.079z"/><path d="m223.44 123.152c-1.701 0-3.079 1.378-3.079 3.079 0 1.7 1.378 3.079 3.079 3.079s3.079-1.378 3.079-3.079c.001-1.701-1.378-3.079-3.079-3.079z"/><path d="m233.739 132.704c-1.701 0-3.079 1.379-3.079 3.079 0 1.701 1.378 3.079 3.079 3.079 1.7 0 3.079-1.378 3.079-3.079s-1.379-3.079-3.079-3.079z"/><path d="m223.44 143.002c-1.701 0-3.079 1.379-3.079 3.079s1.378 3.079 3.079 3.079 3.079-1.379 3.079-3.079c.001-1.701-1.378-3.079-3.079-3.079z"/><path d="m233.739 152.553c-1.701 0-3.079 1.378-3.079 3.079s1.378 3.079 3.079 3.079c1.7 0 3.079-1.379 3.079-3.079s-1.379-3.079-3.079-3.079z"/><path d="m203.591 123.152c-1.701 0-3.079 1.378-3.079 3.079 0 1.7 1.379 3.079 3.079 3.079s3.079-1.378 3.079-3.079c-.001-1.701-1.379-3.079-3.079-3.079z"/><path d="m213.889 132.704c-1.701 0-3.079 1.379-3.079 3.079 0 1.701 1.379 3.079 3.079 3.079s3.079-1.378 3.079-3.079-1.378-3.079-3.079-3.079z"/><path d="m203.591 143.002c-1.701 0-3.079 1.379-3.079 3.079s1.379 3.079 3.079 3.079 3.079-1.379 3.079-3.079c-.001-1.701-1.379-3.079-3.079-3.079z"/><path d="m213.889 152.553c-1.701 0-3.079 1.378-3.079 3.079s1.379 3.079 3.079 3.079 3.079-1.379 3.079-3.079-1.378-3.079-3.079-3.079z"/><path d="m183.741 123.152c-1.701 0-3.079 1.378-3.079 3.079 0 1.7 1.379 3.079 3.079 3.079s3.079-1.378 3.079-3.079-1.379-3.079-3.079-3.079z"/><path d="m194.039 132.704c-1.7 0-3.079 1.379-3.079 3.079 0 1.701 1.379 3.079 3.079 3.079s3.079-1.378 3.079-3.079-1.378-3.079-3.079-3.079z"/><path d="m183.741 143.002c-1.701 0-3.079 1.379-3.079 3.079s1.379 3.079 3.079 3.079 3.079-1.379 3.079-3.079c0-1.701-1.379-3.079-3.079-3.079z"/><path d="m194.039 152.553c-1.7 0-3.079 1.378-3.079 3.079s1.379 3.079 3.079 3.079 3.079-1.379 3.079-3.079-1.378-3.079-3.079-3.079z"/><path d="m163.891 123.152c-1.701 0-3.079 1.378-3.079 3.079 0 1.7 1.378 3.079 3.079 3.079s3.079-1.378 3.079-3.079-1.379-3.079-3.079-3.079z"/><path d="m174.189 132.704c-1.7 0-3.079 1.379-3.079 3.079 0 1.701 1.378 3.079 3.079 3.079 1.7 0 3.079-1.378 3.079-3.079s-1.378-3.079-3.079-3.079z"/><path d="m163.891 143.002c-1.701 0-3.079 1.379-3.079 3.079s1.378 3.079 3.079 3.079 3.079-1.379 3.079-3.079c0-1.701-1.379-3.079-3.079-3.079z"/><path d="m174.189 152.553c-1.7 0-3.079 1.378-3.079 3.079s1.378 3.079 3.079 3.079c1.7 0 3.079-1.379 3.079-3.079s-1.378-3.079-3.079-3.079z"/><path d="m144.041 123.152c-1.701 0-3.079 1.378-3.079 3.079 0 1.7 1.378 3.079 3.079 3.079s3.079-1.378 3.079-3.079-1.379-3.079-3.079-3.079z"/><path d="m154.34 132.704c-1.701 0-3.079 1.379-3.079 3.079 0 1.701 1.379 3.079 3.079 3.079s3.079-1.378 3.079-3.079-1.379-3.079-3.079-3.079z"/><path d="m144.041 143.002c-1.701 0-3.079 1.379-3.079 3.079s1.378 3.079 3.079 3.079 3.079-1.379 3.079-3.079c0-1.701-1.379-3.079-3.079-3.079z"/><path d="m154.34 152.553c-1.701 0-3.079 1.378-3.079 3.079s1.379 3.079 3.079 3.079 3.079-1.379 3.079-3.079-1.379-3.079-3.079-3.079z"/><path d="m134.49 132.704c-1.7 0-3.079 1.379-3.079 3.079 0 1.701 1.379 3.079 3.079 3.079 1.701 0 3.079-1.378 3.079-3.079s-1.379-3.079-3.079-3.079z"/><path d="m134.49 152.553c-1.7 0-3.079 1.378-3.079 3.079s1.379 3.079 3.079 3.079c1.701 0 3.079-1.379 3.079-3.079s-1.379-3.079-3.079-3.079z"/></g><path d="m371.429 408.971h-234.238l-8.109-192.58h254.059z" fill="#eaa895"/><g fill="#f9fbfc"><path d="m382.239 222.402c-1.7 0-3.079 1.379-3.079 3.079 0 1.701 1.378 3.079 3.079 3.079.007 0 .012-.002.018-.002l.336-6.121c-.117-.013-.232-.035-.354-.035z"/><path d="m379.161 245.33c0 1.326.842 2.446 2.017 2.879l.322-5.859c-1.341.334-2.339 1.536-2.339 2.98z"/><path d="m379.161 265.18c0 .839.338 1.598.882 2.153l.276-4.542c-.701.565-1.158 1.419-1.158 2.389z"/><path d="m372.688 218.261c1.271 0 2.361-.771 2.832-1.87h-5.663c.47 1.099 1.56 1.87 2.831 1.87z"/><path d="m362.39 222.402c-1.7 0-3.079 1.379-3.079 3.079 0 1.701 1.378 3.079 3.079 3.079s3.079-1.378 3.079-3.079-1.379-3.079-3.079-3.079z"/><path d="m372.688 231.953c-1.701 0-3.079 1.379-3.079 3.079s1.379 3.079 3.079 3.079 3.079-1.379 3.079-3.079c0-1.701-1.378-3.079-3.079-3.079z"/><path d="m362.39 242.251c-1.7 0-3.079 1.379-3.079 3.079s1.378 3.079 3.079 3.079 3.079-1.379 3.079-3.079-1.379-3.079-3.079-3.079z"/><path d="m372.688 251.803c-1.701 0-3.079 1.378-3.079 3.078 0 1.701 1.379 3.079 3.079 3.079s3.079-1.378 3.079-3.079c0-1.7-1.378-3.078-3.079-3.078z"/><path d="m362.39 262.101c-1.7 0-3.079 1.379-3.079 3.079 0 1.701 1.378 3.079 3.079 3.079s3.079-1.379 3.079-3.079-1.379-3.079-3.079-3.079z"/><path d="m372.688 271.652c-1.701 0-3.079 1.379-3.079 3.079s1.379 3.079 3.079 3.079 3.079-1.379 3.079-3.079-1.378-3.079-3.079-3.079z"/><path d="m362.39 281.951c-1.7 0-3.079 1.378-3.079 3.079s1.378 3.079 3.079 3.079 3.079-1.379 3.079-3.079c0-1.701-1.379-3.079-3.079-3.079z"/><path d="m372.688 291.502c-1.701 0-3.079 1.379-3.079 3.079s1.379 3.079 3.079 3.079 3.079-1.378 3.079-3.079c0-1.7-1.378-3.079-3.079-3.079z"/><path d="m362.39 301.801c-1.7 0-3.079 1.379-3.079 3.079s1.378 3.079 3.079 3.079 3.079-1.379 3.079-3.079-1.379-3.079-3.079-3.079z"/><path d="m372.688 311.352c-1.701 0-3.079 1.379-3.079 3.079 0 1.701 1.379 3.079 3.079 3.079s3.079-1.379 3.079-3.079-1.378-3.079-3.079-3.079z"/><path d="m362.39 321.651c-1.7 0-3.079 1.379-3.079 3.079 0 1.701 1.378 3.079 3.079 3.079s3.079-1.379 3.079-3.079-1.379-3.079-3.079-3.079z"/><path d="m372.688 331.202c-1.701 0-3.079 1.379-3.079 3.079 0 1.701 1.379 3.079 3.079 3.079s3.079-1.379 3.079-3.079-1.378-3.079-3.079-3.079z"/><path d="m362.39 341.501c-1.7 0-3.079 1.378-3.079 3.079s1.378 3.079 3.079 3.079 3.079-1.378 3.079-3.079-1.379-3.079-3.079-3.079z"/><path d="m372.688 351.052c-1.701 0-3.079 1.379-3.079 3.079 0 1.701 1.379 3.079 3.079 3.079.735 0 1.401-.268 1.931-.698l.275-4.523c-.559-.576-1.339-.937-2.206-.937z"/><path d="m362.39 361.35c-1.7 0-3.079 1.379-3.079 3.079 0 1.701 1.378 3.079 3.079 3.079s3.079-1.379 3.079-3.079-1.379-3.079-3.079-3.079z"/><path d="m372.688 370.902c-1.701 0-3.079 1.379-3.079 3.079 0 1.701 1.379 3.079 3.079 3.079.237 0 .465-.032.686-.083l.358-5.881c-.327-.119-.676-.194-1.044-.194z"/><path d="m362.39 381.201c-1.7 0-3.079 1.379-3.079 3.079s1.378 3.079 3.079 3.079 3.079-1.378 3.079-3.079-1.379-3.079-3.079-3.079z"/><path d="m372.536 390.767c-1.628.081-2.927 1.415-2.927 3.064 0 1.521 1.106 2.777 2.556 3.026z"/><path d="m362.39 401.05c-1.7 0-3.079 1.379-3.079 3.079s1.378 3.079 3.079 3.079 3.079-1.378 3.079-3.079-1.379-3.079-3.079-3.079z"/><path d="m352.838 218.261c1.271 0 2.362-.771 2.832-1.87h-5.663c.47 1.099 1.56 1.87 2.831 1.87z"/><path d="m352.838 231.953c-1.7 0-3.079 1.379-3.079 3.079s1.379 3.079 3.079 3.079c1.701 0 3.079-1.379 3.079-3.079 0-1.701-1.378-3.079-3.079-3.079z"/><path d="m352.838 251.803c-1.7 0-3.079 1.378-3.079 3.078 0 1.701 1.379 3.079 3.079 3.079 1.701 0 3.079-1.378 3.079-3.079 0-1.7-1.378-3.078-3.079-3.078z"/><path d="m352.838 271.652c-1.7 0-3.079 1.379-3.079 3.079s1.379 3.079 3.079 3.079c1.701 0 3.079-1.379 3.079-3.079s-1.378-3.079-3.079-3.079z"/><path d="m342.55 281.941c-1.701 0-3.079 1.379-3.079 3.079s1.379 3.079 3.079 3.079 3.079-1.379 3.079-3.079c0-1.701-1.378-3.079-3.079-3.079z"/><path d="m345.619 285.03c0-1.7-1.379-3.079-3.079-3.079-.385 0-.75.079-1.09.208l-.39 5.555c.441.244.94.394 1.479.394 1.701.001 3.08-1.378 3.08-3.078z"/><path d="m352.838 291.502c-1.7 0-3.079 1.379-3.079 3.079s1.379 3.079 3.079 3.079c1.701 0 3.079-1.378 3.079-3.079 0-1.7-1.378-3.079-3.079-3.079z"/><path d="m342.55 301.835c-1.701 0-3.079 1.379-3.079 3.079 0 1.701 1.379 3.079 3.079 3.079s3.079-1.378 3.079-3.079c0-1.7-1.378-3.079-3.079-3.079z"/><path d="m342.54 307.959c1.7 0 3.079-1.379 3.079-3.079s-1.379-3.079-3.079-3.079c-1.071 0-2.012.548-2.564 1.377l-.211 3.014c.493 1.042 1.546 1.767 2.775 1.767z"/><path d="m352.838 311.352c-1.7 0-3.079 1.379-3.079 3.079 0 1.701 1.379 3.079 3.079 3.079 1.701 0 3.079-1.379 3.079-3.079s-1.378-3.079-3.079-3.079z"/><path d="m342.54 321.651c-1.701 0-3.079 1.379-3.079 3.079 0 1.701 1.379 3.079 3.079 3.079s3.079-1.379 3.079-3.079-1.379-3.079-3.079-3.079z"/><path d="m352.838 331.202c-1.7 0-3.079 1.379-3.079 3.079 0 1.701 1.379 3.079 3.079 3.079 1.701 0 3.079-1.379 3.079-3.079s-1.378-3.079-3.079-3.079z"/><path d="m342.54 341.501c-1.701 0-3.079 1.378-3.079 3.079s1.379 3.079 3.079 3.079 3.079-1.378 3.079-3.079-1.379-3.079-3.079-3.079z"/><path d="m352.838 351.052c-1.7 0-3.079 1.379-3.079 3.079 0 1.701 1.379 3.079 3.079 3.079 1.701 0 3.079-1.378 3.079-3.079 0-1.7-1.378-3.079-3.079-3.079z"/><path d="m342.54 361.35c-1.701 0-3.079 1.379-3.079 3.079 0 1.701 1.379 3.079 3.079 3.079s3.079-1.379 3.079-3.079-1.379-3.079-3.079-3.079z"/><path d="m352.838 370.902c-1.7 0-3.079 1.379-3.079 3.079 0 1.701 1.379 3.079 3.079 3.079 1.701 0 3.079-1.379 3.079-3.079 0-1.701-1.378-3.079-3.079-3.079z"/><path d="m342.54 381.201c-1.701 0-3.079 1.379-3.079 3.079s1.379 3.079 3.079 3.079 3.079-1.378 3.079-3.079-1.379-3.079-3.079-3.079z"/><path d="m352.838 396.91c1.701 0 3.079-1.379 3.079-3.079s-1.378-3.079-3.079-3.079c-1.7 0-3.079 1.379-3.079 3.079s1.379 3.079 3.079 3.079z"/><path d="m342.54 401.05c-1.701 0-3.079 1.379-3.079 3.079s1.379 3.079 3.079 3.079 3.079-1.378 3.079-3.079-1.379-3.079-3.079-3.079z"/></g><path d="m393.111 51.109h-20.045l-5.478-26.827c-2.408-11.793-12.783-20.263-24.819-20.263h-174.837c-12.217 0-22.693 8.72-24.911 20.734l-4.865 26.356h-19.854c-12.448 0-22.539 10.091-22.539 22.539v21.497c0 12.448 10.091 22.539 22.539 22.539h274.809c12.448 0 22.539-10.091 22.539-22.539v-21.497c0-12.448-10.091-22.539-22.539-22.539z" fill="#e9c278"/><path d="m393.111 47.09h-16.764l-4.822-23.612c-2.778-13.604-14.873-23.478-28.757-23.478h-174.836c-14.155 0-26.294 10.103-28.864 24.023l-4.257 23.067h-16.509c-14.644 0-26.558 11.914-26.558 26.558v21.497c0 14.644 11.914 26.558 26.558 26.558h.747l18.829 367.163c.65 12.643 11.074 22.547 23.734 22.547h186.634c12.614 0 23.037-9.866 23.729-22.461l20.179-367.249h.958c14.644 0 26.558-11.914 26.558-26.558v-21.497c-.001-14.644-11.915-26.558-26.559-26.558zm-246.137-21.608c1.865-10.108 10.681-17.444 20.959-17.444h174.835c10.082 0 18.864 7.17 20.882 17.048l4.494 22.004h-225.159zm216.974 463.03c-.457 8.335-7.355 14.864-15.702 14.864h-186.634c-8.378 0-15.277-6.554-15.705-14.922l-18.809-366.751h257.005zm47.683-393.367c0 10.212-8.308 18.52-18.52 18.52h-274.809c-10.212 0-18.52-8.308-18.52-18.52v-21.497c0-10.212 8.308-18.52 18.52-18.52h274.809c10.212 0 18.52 8.308 18.52 18.52z" fill="#31373d"/><ellipse cx="255.356" cy="314.695" fill="#f9fbfc" rx="71.888" ry="71.888" transform="matrix(.707 -.707 .707 .707 -147.731 272.736)"/><path d="m255.356 388.617c-41.855 0-75.906-34.052-75.906-75.907s34.051-75.907 75.906-75.907 75.907 34.052 75.907 75.907-34.052 75.907-75.907 75.907zm0-143.775c-37.423 0-67.868 30.446-67.868 67.868 0 37.423 30.445 67.869 67.868 67.869s67.869-30.446 67.869-67.869-30.446-67.868-67.869-67.868z" fill="#31373d"/><g><path d="m268.792 294.18-31.966 31.966c-6.538 6.538-17.686 3.703-20.32-5.159-3.832-12.894-.658-27.426 9.521-37.605 10.18-10.18 24.712-13.353 37.605-9.522 8.864 2.633 11.698 13.782 5.16 20.32z" fill="#31373d"/></g><g><path d="m241.921 331.241 31.966-31.966c6.538-6.538 17.686-3.703 20.32 5.16 3.832 12.894.658 27.426-9.521 37.605-10.18 10.179-24.712 13.353-37.605 9.521-8.864-2.634-11.698-13.783-5.16-20.32z" fill="#31373d"/></g></g></svg>