<svg id="Capa_1" enable-background="new 0 0 510.553 510.553" height="512" viewBox="0 0 510.553 510.553" width="512" xmlns="http://www.w3.org/2000/svg"><g><path d="m450.857 392.709c-7.222-1.043-14.219-2.283-20.995-3.713 9.189-10.09 17.819-20.934 25.767-32.467 34.316-49.788 52.36-106.812 50.812-160.569-.785-27.244-6.536-52.321-17.095-74.534-11.357-23.891-27.702-43.302-48.582-57.693-28.924-19.935-64.285-28.385-102.263-24.442-27.839 2.892-56.223 12.389-83.209 27.709-64.761-36.852-134.403-38.486-185.503-3.267-20.881 14.391-37.226 33.802-48.583 57.694-10.559 22.213-16.31 47.29-17.095 74.533-1.548 53.756 16.497 110.781 50.812 160.569 8.449 12.26 17.663 23.749 27.506 34.375-6.134 1.759-12.459 3.357-18.977 4.789-16.076 3.531-26.246 19.427-22.715 35.503 3.059 13.923 15.389 23.416 29.081 23.416 2.118 0 4.269-.227 6.423-.701 21.86-4.802 41.358-11.082 58.758-18.44 16.559 10.783 33.981 19.454 51.894 25.692 21.154 7.367 42.131 11.077 62.544 11.077 1.972 0 3.938-.04 5.899-.109 1.922.068 3.848.109 5.782.109 20.411 0 41.391-3.71 62.543-11.077 17.884-6.228 35.272-14.892 51.804-25.656 19.628 7.001 41.802 12.574 66.871 16.195 1.444.209 2.88.31 4.298.31 14.573 0 27.316-10.7 29.46-25.547 2.352-16.289-8.946-31.403-25.237-33.756zm-346.855-70.006c-27.18-39.435-41.495-83.837-40.309-125.026 1.087-37.732 15.265-67.87 39.922-84.864 30.914-21.306 75.041-19.501 118.422 3.908-.001 28.91.153 107.019-.007 116.765-1.179 13.729-4.797 35.591-15.537 58.986-13.956 30.396-35.758 54.772-65.124 72.969-13.684-12.301-26.292-26.667-37.367-42.738zm196.011 75.067c-12.858 8.861-28.006 13.241-44.688 14.704l-4.843.156c-13.895.128-28.715-2.44-43.986-7.757-3.846-1.34-7.667-2.837-11.457-4.478 25.963-20.452 43.891-43.368 56.248-64.872 11.527 20.19 28.072 41.443 51.788 60.403-1.043.55-2.068 1.158-3.062 1.844zm67.292-30.672c-31.413-16.653-54.58-40.203-69.196-70.513-11.676-24.212-15.323-47.753-16.366-62.828-.021-3.424-.107-99.077-.107-99.077 0-9.004 5.098-17.254 13.177-21.231 41.306-20.338 82.566-21.01 112.126-.637 24.657 16.994 38.834 47.133 39.922 84.864 1.185 41.189-13.129 85.591-40.309 125.027-11.58 16.802-24.838 31.734-39.247 44.395z" fill="#e9c278"/><g fill="#f9fbfc"><path d="m346.204 423.173c-1.702 0-3.082 1.38-3.082 3.082s1.38 3.082 3.082 3.082 3.082-1.38 3.082-3.082-1.379-3.082-3.082-3.082z"/><path d="m353.431 435.816c0 1.702 1.38 3.082 3.082 3.082s3.082-1.38 3.082-3.082-1.38-3.082-3.082-3.082-3.082 1.38-3.082 3.082z"/><path d="m346.204 443.042c-1.702 0-3.082 1.38-3.082 3.082s1.38 3.082 3.082 3.082 3.082-1.38 3.082-3.082-1.379-3.082-3.082-3.082z"/><path d="m326.336 423.173c-1.702 0-3.082 1.38-3.082 3.082s1.38 3.082 3.082 3.082 3.082-1.38 3.082-3.082-1.38-3.082-3.082-3.082z"/><path d="m336.644 432.734c-1.702 0-3.082 1.38-3.082 3.082s1.38 3.082 3.082 3.082 3.082-1.38 3.082-3.082-1.38-3.082-3.082-3.082z"/><path d="m326.336 443.042c-1.702 0-3.082 1.38-3.082 3.082s1.38 3.082 3.082 3.082 3.082-1.38 3.082-3.082-1.38-3.082-3.082-3.082z"/><path d="m306.467 403.305c-1.702 0-3.082 1.38-3.082 3.082s1.38 3.082 3.082 3.082 3.082-1.38 3.082-3.082-1.38-3.082-3.082-3.082z"/><circle cx="316.775" cy="415.947" r="3.082"/><path d="m306.467 423.173c-1.702 0-3.082 1.38-3.082 3.082s1.38 3.082 3.082 3.082 3.082-1.38 3.082-3.082-1.38-3.082-3.082-3.082z"/><path d="m316.775 432.734c-1.702 0-3.082 1.38-3.082 3.082s1.38 3.082 3.082 3.082 3.082-1.38 3.082-3.082-1.38-3.082-3.082-3.082z"/><path d="m306.467 443.042c-1.702 0-3.082 1.38-3.082 3.082s1.38 3.082 3.082 3.082 3.082-1.38 3.082-3.082-1.38-3.082-3.082-3.082z"/><path d="m316.775 452.602c-1.702 0-3.082 1.38-3.082 3.082s1.38 3.082 3.082 3.082 3.082-1.38 3.082-3.082-1.38-3.082-3.082-3.082z"/><path d="m296.907 412.865c-1.702 0-3.082 1.379-3.082 3.082 0 1.702 1.38 3.082 3.082 3.082s3.082-1.38 3.082-3.082c-.001-1.703-1.38-3.082-3.082-3.082z"/><path d="m286.598 423.173c-1.702 0-3.082 1.38-3.082 3.082s1.38 3.082 3.082 3.082 3.082-1.38 3.082-3.082-1.38-3.082-3.082-3.082z"/><path d="m296.907 432.734c-1.702 0-3.082 1.38-3.082 3.082s1.38 3.082 3.082 3.082 3.082-1.38 3.082-3.082c-.001-1.702-1.38-3.082-3.082-3.082z"/><path d="m286.598 443.042c-1.702 0-3.082 1.38-3.082 3.082s1.38 3.082 3.082 3.082 3.082-1.38 3.082-3.082-1.38-3.082-3.082-3.082z"/><path d="m296.907 452.602c-1.702 0-3.082 1.38-3.082 3.082s1.38 3.082 3.082 3.082 3.082-1.38 3.082-3.082c-.001-1.702-1.38-3.082-3.082-3.082z"/><path d="m286.598 462.911c-1.702 0-3.082 1.38-3.082 3.082s1.38 3.082 3.082 3.082 3.082-1.38 3.082-3.082-1.38-3.082-3.082-3.082z"/><path d="m277.038 412.865c-1.702 0-3.082 1.379-3.082 3.082 0 1.702 1.38 3.082 3.082 3.082s3.082-1.38 3.082-3.082c0-1.703-1.38-3.082-3.082-3.082z"/><path d="m266.729 423.173c-1.702 0-3.082 1.38-3.082 3.082s1.38 3.082 3.082 3.082 3.082-1.38 3.082-3.082-1.379-3.082-3.082-3.082z"/><path d="m277.038 432.734c-1.702 0-3.082 1.38-3.082 3.082s1.38 3.082 3.082 3.082 3.082-1.38 3.082-3.082-1.38-3.082-3.082-3.082z"/><path d="m266.729 443.042c-1.702 0-3.082 1.38-3.082 3.082s1.38 3.082 3.082 3.082 3.082-1.38 3.082-3.082-1.379-3.082-3.082-3.082z"/><path d="m277.038 452.602c-1.702 0-3.082 1.38-3.082 3.082s1.38 3.082 3.082 3.082 3.082-1.38 3.082-3.082-1.38-3.082-3.082-3.082z"/><path d="m266.729 469.075c1.702 0 3.082-1.38 3.082-3.082s-1.38-3.082-3.082-3.082-3.082 1.38-3.082 3.082 1.38 3.082 3.082 3.082z"/><circle cx="257.169" cy="415.947" r="3.082"/><path d="m246.861 423.173c-1.702 0-3.082 1.38-3.082 3.082s1.38 3.082 3.082 3.082 3.082-1.38 3.082-3.082c-.001-1.702-1.38-3.082-3.082-3.082z"/><path d="m257.169 438.898c1.702 0 3.082-1.38 3.082-3.082s-1.38-3.082-3.082-3.082-3.082 1.38-3.082 3.082 1.38 3.082 3.082 3.082z"/><path d="m246.861 443.042c-1.702 0-3.082 1.38-3.082 3.082s1.38 3.082 3.082 3.082 3.082-1.38 3.082-3.082c-.001-1.702-1.38-3.082-3.082-3.082z"/><path d="m257.169 458.766c1.702 0 3.082-1.38 3.082-3.082s-1.38-3.082-3.082-3.082-3.082 1.38-3.082 3.082 1.38 3.082 3.082 3.082z"/><path d="m246.861 462.911c-1.702 0-3.082 1.38-3.082 3.082s1.38 3.082 3.082 3.082 3.082-1.38 3.082-3.082c-.001-1.702-1.38-3.082-3.082-3.082z"/><path d="m237.3 412.865c-1.702 0-3.082 1.379-3.082 3.082 0 1.702 1.38 3.082 3.082 3.082s3.082-1.38 3.082-3.082c0-1.703-1.38-3.082-3.082-3.082z"/><path d="m226.992 423.173c-1.702 0-3.082 1.38-3.082 3.082s1.38 3.082 3.082 3.082 3.082-1.38 3.082-3.082-1.38-3.082-3.082-3.082z"/><path d="m237.3 432.734c-1.702 0-3.082 1.38-3.082 3.082s1.38 3.082 3.082 3.082 3.082-1.38 3.082-3.082-1.38-3.082-3.082-3.082z"/><path d="m226.992 443.042c-1.702 0-3.082 1.38-3.082 3.082s1.38 3.082 3.082 3.082 3.082-1.38 3.082-3.082-1.38-3.082-3.082-3.082z"/><path d="m237.3 452.602c-1.702 0-3.082 1.38-3.082 3.082s1.38 3.082 3.082 3.082 3.082-1.38 3.082-3.082-1.38-3.082-3.082-3.082z"/><path d="m226.992 462.911c-1.702 0-3.082 1.38-3.082 3.082s1.38 3.082 3.082 3.082 3.082-1.38 3.082-3.082-1.38-3.082-3.082-3.082z"/><circle cx="217.432" cy="415.947" r="3.082"/><path d="m207.123 423.173c-1.702 0-3.082 1.38-3.082 3.082s1.38 3.082 3.082 3.082 3.082-1.38 3.082-3.082-1.38-3.082-3.082-3.082z"/><path d="m217.432 432.734c-1.702 0-3.082 1.38-3.082 3.082s1.38 3.082 3.082 3.082 3.082-1.38 3.082-3.082c-.001-1.702-1.381-3.082-3.082-3.082z"/><path d="m207.123 443.042c-1.702 0-3.082 1.38-3.082 3.082s1.38 3.082 3.082 3.082 3.082-1.38 3.082-3.082-1.38-3.082-3.082-3.082z"/><path d="m217.432 452.602c-1.702 0-3.082 1.38-3.082 3.082s1.38 3.082 3.082 3.082 3.082-1.38 3.082-3.082c-.001-1.702-1.381-3.082-3.082-3.082z"/><path d="m197.563 412.865c-1.702 0-3.082 1.379-3.082 3.082 0 1.702 1.38 3.082 3.082 3.082s3.082-1.38 3.082-3.082c0-1.703-1.38-3.082-3.082-3.082z"/><path d="m187.254 423.173c-1.702 0-3.082 1.38-3.082 3.082s1.38 3.082 3.082 3.082 3.082-1.38 3.082-3.082-1.38-3.082-3.082-3.082z"/><path d="m197.563 432.734c-1.702 0-3.082 1.38-3.082 3.082s1.38 3.082 3.082 3.082 3.082-1.38 3.082-3.082-1.38-3.082-3.082-3.082z"/><path d="m187.254 449.206c1.702 0 3.082-1.38 3.082-3.082s-1.38-3.082-3.082-3.082-3.082 1.38-3.082 3.082 1.38 3.082 3.082 3.082z"/><path d="m197.563 452.602c-1.702 0-3.082 1.38-3.082 3.082s1.38 3.082 3.082 3.082 3.082-1.38 3.082-3.082-1.38-3.082-3.082-3.082z"/><path d="m177.694 412.865c-1.702 0-3.082 1.379-3.082 3.082 0 1.702 1.38 3.082 3.082 3.082s3.082-1.38 3.082-3.082c0-1.703-1.38-3.082-3.082-3.082z"/><path d="m167.386 423.173c-1.702 0-3.082 1.38-3.082 3.082s1.38 3.082 3.082 3.082 3.082-1.38 3.082-3.082-1.38-3.082-3.082-3.082z"/><path d="m177.694 432.734c-1.702 0-3.082 1.38-3.082 3.082s1.38 3.082 3.082 3.082 3.082-1.38 3.082-3.082-1.38-3.082-3.082-3.082z"/><path d="m167.386 443.042c-1.702 0-3.082 1.38-3.082 3.082s1.38 3.082 3.082 3.082 3.082-1.38 3.082-3.082-1.38-3.082-3.082-3.082z"/><path d="m157.825 432.734c-1.702 0-3.082 1.38-3.082 3.082s1.38 3.082 3.082 3.082 3.082-1.38 3.082-3.082-1.38-3.082-3.082-3.082z"/><path d="m485.286 125.142c-1.702 0-3.082 1.38-3.082 3.082s1.38 3.082 3.082 3.082 3.082-1.38 3.082-3.082-1.38-3.082-3.082-3.082z"/><path d="m485.286 145.011c-1.702 0-3.082 1.38-3.082 3.082s1.38 3.082 3.082 3.082 3.082-1.38 3.082-3.082-1.38-3.082-3.082-3.082z"/><path d="m495.594 154.571c-1.702 0-3.082 1.38-3.082 3.082s1.38 3.082 3.082 3.082 3.082-1.38 3.082-3.082-1.38-3.082-3.082-3.082z"/><path d="m485.286 164.879c-1.702 0-3.082 1.38-3.082 3.082s1.38 3.082 3.082 3.082 3.082-1.38 3.082-3.082-1.38-3.082-3.082-3.082z"/><path d="m495.594 174.44c-1.702 0-3.082 1.38-3.082 3.082s1.38 3.082 3.082 3.082 3.082-1.379 3.082-3.082c0-1.702-1.38-3.082-3.082-3.082z"/><path d="m485.286 184.748c-1.702 0-3.082 1.38-3.082 3.082s1.38 3.082 3.082 3.082 3.082-1.38 3.082-3.082-1.38-3.082-3.082-3.082z"/><path d="m495.594 194.309c-1.702 0-3.082 1.38-3.082 3.081 0 1.702 1.38 3.082 3.082 3.082s3.082-1.38 3.082-3.082-1.38-3.081-3.082-3.081z"/><path d="m485.286 204.617c-1.702 0-3.082 1.38-3.082 3.081 0 1.702 1.38 3.082 3.082 3.082s3.082-1.379 3.082-3.082c0-1.701-1.38-3.081-3.082-3.081z"/><path d="m495.594 214.178c-1.702 0-3.082 1.38-3.082 3.081 0 1.702 1.38 3.082 3.082 3.082s3.082-1.38 3.082-3.082-1.38-3.081-3.082-3.081z"/><path d="m485.286 224.486c-1.702 0-3.082 1.38-3.082 3.082s1.38 3.082 3.082 3.082 3.082-1.38 3.082-3.082c0-1.703-1.38-3.082-3.082-3.082z"/><path d="m495.594 234.046c-1.702 0-3.082 1.379-3.082 3.082 0 1.702 1.38 3.082 3.082 3.082s3.082-1.38 3.082-3.082-1.38-3.082-3.082-3.082z"/><path d="m485.286 244.354c-1.702 0-3.082 1.38-3.082 3.082s1.38 3.082 3.082 3.082 3.082-1.38 3.082-3.082-1.38-3.082-3.082-3.082z"/><path d="m495.594 253.915c-1.702 0-3.082 1.38-3.082 3.082s1.38 3.082 3.082 3.082 3.082-1.38 3.082-3.082c0-1.703-1.38-3.082-3.082-3.082z"/><path d="m485.286 264.223c-1.702 0-3.082 1.38-3.082 3.082s1.38 3.082 3.082 3.082 3.082-1.38 3.082-3.082-1.38-3.082-3.082-3.082z"/><path d="m485.286 284.092c-1.702 0-3.082 1.38-3.082 3.082s1.38 3.082 3.082 3.082 3.082-1.38 3.082-3.082-1.38-3.082-3.082-3.082z"/><path d="m462.335 88.486c0 1.702 1.38 3.082 3.082 3.082 1.584 0 2.874-1.2 3.047-2.737-.977-1.157-1.97-2.298-2.981-3.42-.022 0-.043-.007-.066-.007-1.702 0-3.082 1.381-3.082 3.082z"/><path d="m465.417 105.273c-1.702 0-3.082 1.38-3.082 3.082s1.38 3.082 3.082 3.082 3.082-1.38 3.082-3.082-1.38-3.082-3.082-3.082z"/><path d="m475.725 114.834c-1.702 0-3.082 1.379-3.082 3.082 0 1.702 1.38 3.082 3.082 3.082s3.082-1.38 3.082-3.082c0-1.703-1.38-3.082-3.082-3.082z"/><path d="m465.417 131.306c1.702 0 3.082-1.38 3.082-3.082s-1.38-3.082-3.082-3.082-3.082 1.38-3.082 3.082 1.38 3.082 3.082 3.082z"/><path d="m455.821 120.965c1.702 0 3.082-1.38 3.082-3.082s-1.38-3.082-3.082-3.082-3.082 1.38-3.082 3.082 1.379 3.082 3.082 3.082z"/><path d="m475.725 134.702c-1.702 0-3.082 1.38-3.082 3.082s1.38 3.082 3.082 3.082 3.082-1.38 3.082-3.082-1.38-3.082-3.082-3.082z"/><path d="m475.725 154.571c-1.702 0-3.082 1.38-3.082 3.082s1.38 3.082 3.082 3.082 3.082-1.38 3.082-3.082-1.38-3.082-3.082-3.082z"/><path d="m475.725 174.44c-1.702 0-3.082 1.38-3.082 3.082s1.38 3.082 3.082 3.082 3.082-1.379 3.082-3.082c0-1.702-1.38-3.082-3.082-3.082z"/><path d="m475.725 194.309c-1.702 0-3.082 1.38-3.082 3.081 0 1.702 1.38 3.082 3.082 3.082s3.082-1.38 3.082-3.082-1.38-3.081-3.082-3.081z"/><path d="m475.725 214.178c-1.702 0-3.082 1.38-3.082 3.081 0 1.702 1.38 3.082 3.082 3.082s3.082-1.38 3.082-3.082-1.38-3.081-3.082-3.081z"/><path d="m475.725 234.046c-1.702 0-3.082 1.379-3.082 3.082 0 1.702 1.38 3.082 3.082 3.082s3.082-1.38 3.082-3.082-1.38-3.082-3.082-3.082z"/><path d="m475.725 253.915c-1.702 0-3.082 1.38-3.082 3.082s1.38 3.082 3.082 3.082 3.082-1.38 3.082-3.082c0-1.703-1.38-3.082-3.082-3.082z"/><path d="m465.467 264.173c-1.702 0-3.082 1.38-3.082 3.082s1.38 3.082 3.082 3.082 3.082-1.38 3.082-3.082-1.38-3.082-3.082-3.082z"/><path d="m475.725 273.784c-1.702 0-3.082 1.38-3.082 3.082s1.38 3.082 3.082 3.082 3.082-1.38 3.082-3.082-1.38-3.082-3.082-3.082z"/><path d="m465.417 284.092c-1.702 0-3.082 1.38-3.082 3.082s1.38 3.082 3.082 3.082 3.082-1.38 3.082-3.082-1.38-3.082-3.082-3.082z"/><path d="m455.821 293.688c-1.702 0-3.082 1.38-3.082 3.082s1.38 3.082 3.082 3.082 3.082-1.38 3.082-3.082c-.001-1.702-1.381-3.082-3.082-3.082z"/><path d="m475.725 293.652c-1.702 0-3.082 1.38-3.082 3.082s1.38 3.082 3.082 3.082 3.082-1.38 3.082-3.082-1.38-3.082-3.082-3.082z"/><path d="m465.417 303.961c-1.702 0-3.082 1.38-3.082 3.082 0 1.703 1.38 3.082 3.082 3.082s3.082-1.379 3.082-3.082c0-1.702-1.38-3.082-3.082-3.082z"/><path d="m475.725 313.521c-1.702 0-3.082 1.38-3.082 3.082s1.38 3.082 3.082 3.082c.821 0 1.563-.326 2.115-.849.314-.633.624-1.267.933-1.901.012-.111.033-.218.033-.331.001-1.703-1.379-3.083-3.081-3.083z"/><path d="m465.417 323.829c-1.702 0-3.082 1.38-3.082 3.082s1.38 3.082 3.082 3.082 3.082-1.38 3.082-3.082-1.38-3.082-3.082-3.082z"/><path d="m452.775 78.178c0 1.702 1.38 3.082 3.082 3.082 1.562 0 2.84-1.166 3.041-2.674-1.201-1.164-2.427-2.303-3.67-3.424-1.401.29-2.453 1.53-2.453 3.016z"/><path d="m445.548 91.568c1.702 0 3.082-1.38 3.082-3.082s-1.38-3.082-3.082-3.082-3.082 1.38-3.082 3.082 1.38 3.082 3.082 3.082z"/><path d="m455.857 94.965c-1.702 0-3.082 1.38-3.082 3.082s1.38 3.082 3.082 3.082 3.082-1.38 3.082-3.082c0-1.703-1.38-3.082-3.082-3.082z"/><circle cx="455.857" cy="316.603" r="3.082"/><path d="m445.516 323.779c-1.702 0-3.082 1.38-3.082 3.082s1.38 3.082 3.082 3.082 3.082-1.38 3.082-3.082-1.38-3.082-3.082-3.082z"/><path d="m455.857 333.39c-1.702 0-3.082 1.38-3.082 3.082s1.38 3.082 3.082 3.082 3.082-1.38 3.082-3.082-1.38-3.082-3.082-3.082z"/><path d="m445.548 343.698c-1.702 0-3.082 1.38-3.082 3.082s1.38 3.081 3.082 3.081 3.082-1.379 3.082-3.081-1.38-3.082-3.082-3.082z"/><path d="m445.548 363.567c-1.702 0-3.082 1.38-3.082 3.082s1.38 3.082 3.082 3.082c.165 0 .324-.024.482-.049.862-1.118 1.716-2.247 2.565-3.38-.175-1.537-1.464-2.735-3.047-2.735z"/><path d="m428.761 68.618c0-1.702-1.38-3.082-3.082-3.082s-3.082 1.379-3.082 3.082c0 1.702 1.38 3.082 3.082 3.082 1.703 0 3.082-1.38 3.082-3.082z"/><path d="m435.988 75.096c-1.702 0-3.082 1.379-3.082 3.081s1.38 3.082 3.082 3.082 3.082-1.38 3.082-3.082c0-1.701-1.38-3.081-3.082-3.081z"/><path d="m425.679 343.698c-1.702 0-3.082 1.38-3.082 3.082s1.38 3.081 3.082 3.081 3.082-1.379 3.082-3.081-1.379-3.082-3.082-3.082z"/><path d="m435.988 353.258c-1.702 0-3.082 1.38-3.082 3.082s1.38 3.082 3.082 3.082 3.082-1.379 3.082-3.082c0-1.702-1.38-3.082-3.082-3.082z"/><circle cx="425.679" cy="366.649" r="3.082"/><path d="m435.988 379.291c1.702 0 3.082-1.38 3.082-3.082s-1.38-3.081-3.082-3.081-3.082 1.379-3.082 3.081 1.38 3.082 3.082 3.082z"/><path d="m428.761 386.518c0-1.702-1.38-3.082-3.082-3.082-1.661 0-3.005 1.316-3.07 2.961 2.351.473 4.441.876 5.965 1.141.114-.321.187-.661.187-1.02z"/><path d="m402.729 48.749c0 1.702 1.38 3.081 3.082 3.081s3.082-1.379 3.082-3.081c0-.584-.172-1.125-.454-1.591-1.235-.444-2.479-.869-3.728-1.28-1.158.444-1.982 1.558-1.982 2.871z"/><path d="m419.201 58.309c0-1.702-1.38-3.082-3.082-3.082s-3.082 1.38-3.082 3.082 1.38 3.082 3.082 3.082 3.082-1.38 3.082-3.082z"/><path d="m389.005 48.795c0-1.702-1.38-3.082-3.082-3.082s-3.082 1.38-3.082 3.082 1.38 3.082 3.082 3.082 3.082-1.379 3.082-3.082z"/><path d="m416.119 353.258c-1.702 0-3.082 1.38-3.082 3.082s1.38 3.082 3.082 3.082 3.082-1.379 3.082-3.082c0-1.702-1.38-3.082-3.082-3.082z"/><path d="m405.811 369.731c1.702 0 3.082-1.38 3.082-3.082s-1.38-3.082-3.082-3.082-3.082 1.38-3.082 3.082 1.38 3.082 3.082 3.082z"/><path d="m416.119 373.128c-1.702 0-3.082 1.379-3.082 3.081s1.38 3.082 3.082 3.082 3.082-1.38 3.082-3.082-1.38-3.081-3.082-3.081z"/><path d="m396.25 353.258c-1.702 0-3.082 1.38-3.082 3.082s1.38 3.082 3.082 3.082 3.082-1.379 3.082-3.082c0-1.702-1.379-3.082-3.082-3.082z"/><path d="m385.942 369.731c1.702 0 3.082-1.38 3.082-3.082s-1.38-3.082-3.082-3.082-3.082 1.38-3.082 3.082 1.38 3.082 3.082 3.082z"/><path d="m399.332 376.209c0-1.702-1.38-3.081-3.082-3.081s-3.082 1.379-3.082 3.081c0 .537.149 1.034.391 1.473 1.208.544 2.347 1.061 3.369 1.529 1.375-.309 2.404-1.533 2.404-3.002z"/></g><path d="m451.433 388.73h-.001c-4.688-.677-9.34-1.448-13.901-2.305 7.621-8.767 14.805-18.031 21.41-27.614 34.796-50.486 53.092-108.362 51.52-162.966-.801-27.807-6.683-53.426-17.483-76.144-11.664-24.537-28.464-44.481-49.932-59.277-29.721-20.484-66.01-29.173-104.96-25.13-27.426 2.848-55.979 12.215-82.8 27.113-65.556-36.533-135.899-37.738-187.776-1.983-21.47 14.795-38.269 34.74-49.934 59.277-10.799 22.717-16.681 48.336-17.482 76.143-1.573 54.604 16.723 112.48 51.52 162.966 7.284 10.568 15.139 20.562 23.463 29.945-4.08 1.073-8.241 2.078-12.487 3.011-8.824 1.938-16.365 7.196-21.234 14.806-4.869 7.611-6.484 16.661-4.545 25.485 3.384 15.398 17.266 26.573 33.008 26.573 2.436 0 4.888-.267 7.286-.795 20.471-4.496 39.653-10.475 57.473-17.863 16.301 10.435 33.411 18.862 50.993 24.985 21.532 7.499 43.019 11.301 63.866 11.301 1.886 0 3.818-.035 5.899-.107 2.067.072 3.96.107 5.782.107 20.848 0 42.335-3.802 63.865-11.301 17.48-6.087 34.6-14.493 51.046-25.033 20.245 7.07 42.181 12.353 65.733 15.755 1.613.233 3.252.351 4.872.351 16.676 0 31.051-12.464 33.439-28.992 1.292-8.942-.976-17.851-6.386-25.087-5.409-7.233-13.312-11.93-22.254-13.221zm-393.199-34.482c-33.834-49.089-51.628-105.263-50.104-158.172.77-26.685 6.391-51.22 16.707-72.923 11.051-23.246 26.943-42.124 47.234-56.11 48.275-33.271 113.679-32.671 175.394.258-4.867 3.486-12.342 9.527-18.844 17.681-6.474 8.119-9.013 18.926-9.995 25.433-43.012-21.469-86.382-22.216-117.292-.913-25.739 17.74-40.534 49.013-41.659 88.059-1.209 42.038 13.357 87.292 41.017 127.424 10.172 14.759 21.639 28.08 34.026 39.749-15.076 8.783-32.094 15.989-51.017 21.597-9.08-9.97-17.61-20.684-25.467-32.083zm159.824-135.648c.111 3.523.264 8.344-.039 14.615-1.191 13.793-4.793 34.955-15.179 57.58-13.195 28.74-33.615 51.983-61.01 69.59-12.586-11.629-24.227-25.032-34.517-39.962-26.698-38.736-40.762-82.287-39.602-122.63 1.05-36.418 14.611-65.422 38.185-81.67 29.149-20.088 70.782-18.596 112.12 3.025l-.007 94.309c-.073 1.315-.022 2.932.049 5.143zm-142.68 231.385c-1.832.403-3.703.607-5.56.607-11.996 0-22.575-8.52-25.154-20.258-1.478-6.726-.247-13.625 3.464-19.426 3.712-5.801 9.461-9.809 16.187-11.287 71.885-15.79 120.949-51.275 145.831-105.471 4.836-10.532 8.26-20.755 10.688-30.136 5.845 32.405 19.266 59.545 25.838 71.449-24.003 40.762-73.072 92.947-171.294 114.522zm175.901-106.584c12.062 19.657 27.114 37.089 44.918 52.076-11.843 7.752-25.652 12.124-41.002 12.979l-4.751.154c-13.557.116-27.913-2.41-42.627-7.534-1.664-.58-3.322-1.201-4.976-1.841 19.24-16.069 35.488-34.784 48.438-55.834zm71.059 113.966c-20.678 7.201-41.276 10.853-61.221 10.853-1.768 0-3.612-.035-5.639-.107-.047-.001-.094-.002-.142-.002-.047 0-.094.001-.141.002-2.04.072-3.924.107-5.758.107-19.944 0-40.542-3.652-61.222-10.853-15.34-5.342-30.312-12.513-44.684-21.285 18.153-8.235 34.802-18 49.793-29.285.781-.589 1.547-1.191 2.319-1.787 3.158 1.319 6.334 2.547 9.529 3.66 15.589 5.429 30.82 8.09 45.438 7.979l4.937-.16c17.605-.979 33.333-6.163 46.745-15.408.153-.106.314-.19.468-.291 3.496 2.724 7.078 5.37 10.768 7.914 15.887 10.955 33.583 20.188 52.931 27.701-14.3 8.682-29.077 15.723-44.121 20.962zm149.776-31.475c-1.82 12.599-12.774 22.101-25.481 22.101-1.237 0-2.49-.09-3.723-.268-106.984-15.453-159.787-67.246-185.519-109.752-.062-.127-.111-.257-.188-.379-.312-.498-31.212-50.367-31.154-104.04.316-6.565.159-11.558.043-15.208-.063-1.987-.112-3.556-.051-4.512.005-.085.008-.17.008-.255l.007-97.236c.065-1.185 1.059-16.574 8.851-26.347 9.499-11.914 21.665-19.105 21.754-19.158 26.588-15.194 55.031-24.72 82.254-27.547 37.02-3.844 71.443 4.371 99.567 23.753 20.291 13.985 36.182 32.863 47.233 56.109 10.317 21.704 15.938 46.239 16.707 72.924 1.523 52.909-16.271 109.082-50.104 158.172-7.329 10.636-15.396 20.858-23.986 30.429-24.536-4.066-45.187-13.709-54.156-18.387 13.135-12.129 25.129-25.989 35.685-41.304 27.66-40.133 42.226-85.387 41.016-127.425-1.125-39.045-15.92-70.319-41.659-88.058-31.298-21.572-74.588-20.975-118.768 1.639-7.917 4.053-12.835 12.128-12.835 21.076 0 .504.036 50.503-.186 61.307-.226 10.924.273 39.111.295 40.306.001.069.004.137.009.206 1.089 15.738 4.878 39.669 16.755 64.297 14.902 30.902 38.723 55.206 70.798 72.244 1.678 1.009 28.814 17.062 63.848 22.375 6.843 1.44 13.956 2.698 21.148 3.737 6.817.984 12.841 4.565 16.964 10.08 4.124 5.513 5.853 12.305 4.868 19.121zm-186.458-293.678c0-5.913 3.241-11.245 8.458-13.916 41.466-21.224 81.755-22.016 110.543-2.176 23.574 16.248 37.134 45.252 38.185 81.67 1.161 40.342-12.903 83.893-39.601 122.63-10.75 15.6-23.023 29.65-36.504 41.8-29.361-16.145-51.225-38.804-65.006-67.383-11.295-23.423-14.92-46.222-15.969-61.257-.033-1.919-.509-29.449-.293-39.893.223-10.889.189-59.418.187-61.475z" fill="#31373d"/></g></svg>