<svg id="Capa_1" enable-background="new 0 0 511.05 511.05" height="512" viewBox="0 0 511.05 511.05" width="512" xmlns="http://www.w3.org/2000/svg"><g><path d="m498.94 460.454-486.498 1.333c-4.573.013-8.286-3.694-8.281-8.267l.397-393.827c.005-4.558 3.701-8.25 8.258-8.25h91.577c2.183 0 4.277.864 5.825 2.404l394.524 392.494c5.215 5.188 1.555 14.093-5.802 14.113z" fill="#f9fbfc"/><g fill="#eaa895"><path d="m121.525 80.536c0 1.7 1.378 3.078 3.079 3.078 1.7 0 3.078-1.378 3.078-3.078s-1.378-3.079-3.078-3.079c-1.701 0-3.079 1.378-3.079 3.079z"/><path d="m134.9 87.007c-1.499 0-2.744 1.072-3.019 2.49 1.795-.489 3.614-.913 5.446-1.285-.563-.729-1.436-1.205-2.427-1.205z"/><path d="m104.756 57.61c-1.7 0-3.078 1.378-3.078 3.079 0 1.7 1.378 3.078 3.078 3.078s3.078-1.378 3.078-3.078c.001-1.701-1.377-3.079-3.078-3.079z"/><path d="m111.975 70.238c0 1.7 1.378 3.079 3.079 3.079 1.7 0 3.078-1.378 3.078-3.079 0-1.7-1.378-3.078-3.078-3.078-1.701 0-3.079 1.378-3.079 3.078z"/><path d="m107.835 80.536c0-1.7-1.378-3.079-3.078-3.079s-3.078 1.378-3.078 3.079c0 1.7 1.378 3.078 3.078 3.078s3.078-1.379 3.078-3.078z"/><path d="m115.053 93.163c1.7 0 3.078-1.378 3.078-3.078s-1.378-3.079-3.078-3.079-3.079 1.378-3.079 3.079c.001 1.7 1.379 3.078 3.079 3.078z"/><path d="m95.207 53.47c.643 0 1.24-.198 1.734-.536l-3.608-.115c.52.402 1.165.651 1.874.651z"/><path d="m81.831 60.689c0 1.7 1.378 3.078 3.078 3.078s3.078-1.378 3.078-3.078-1.378-3.079-3.078-3.079c-1.699 0-3.078 1.378-3.078 3.079z"/><path d="m95.207 73.317c1.7 0 3.078-1.378 3.078-3.079 0-1.7-1.378-3.078-3.078-3.078s-3.078 1.378-3.078 3.078c-.001 1.701 1.378 3.079 3.078 3.079z"/><path d="m77.742 52.32-4.894-.157c.558.789 1.472 1.307 2.511 1.307.967 0 1.819-.454 2.383-1.15z"/><path d="m505.252 457.124c-.239-1.462-1.498-2.581-3.028-2.581-1.7 0-3.078 1.378-3.078 3.079 0 .996.481 1.872 1.215 2.435 2.049-.363 3.731-1.453 4.891-2.933z"/><path d="m482.377 440.853c1.7 0 3.079-1.378 3.079-3.078s-1.378-3.079-3.079-3.079c-1.7 0-3.078 1.379-3.078 3.079-.001 1.7 1.377 3.078 3.078 3.078z"/><path d="m492.674 444.246c-1.7 0-3.078 1.378-3.078 3.078s1.378 3.079 3.078 3.079 3.079-1.378 3.079-3.079c-.001-1.7-1.379-3.078-3.079-3.078z"/><path d="m485.455 457.621c0-1.7-1.378-3.079-3.079-3.079-1.7 0-3.078 1.378-3.078 3.079 0 1.079.558 2.026 1.398 2.575h3.36c.841-.549 1.399-1.495 1.399-2.575z"/><path d="m462.53 421.006c1.7 0 3.078-1.378 3.078-3.079 0-1.7-1.378-3.078-3.078-3.078s-3.079 1.378-3.079 3.078c0 1.701 1.379 3.079 3.079 3.079z"/><path d="m472.827 430.556c1.7 0 3.078-1.378 3.078-3.079 0-1.7-1.378-3.078-3.078-3.078s-3.079 1.378-3.079 3.078c0 1.701 1.379 3.079 3.079 3.079z"/><path d="m462.53 440.853c1.7 0 3.078-1.378 3.078-3.078s-1.378-3.079-3.078-3.079-3.079 1.379-3.079 3.079 1.379 3.078 3.079 3.078z"/><path d="m472.827 450.403c1.7 0 3.078-1.378 3.078-3.079 0-1.7-1.378-3.078-3.078-3.078s-3.079 1.378-3.079 3.078 1.379 3.079 3.079 3.079z"/><path d="m465.608 457.621c0-1.7-1.378-3.079-3.078-3.079-.687 0-1.315.233-1.828.614 1.002 1.706 2.022 3.401 3.121 5.04h.387c.841-.549 1.398-1.495 1.398-2.575z"/><path d="m442.683 395.003c-1.7 0-3.079 1.378-3.079 3.079 0 1.7 1.378 3.078 3.079 3.078 1.7 0 3.078-1.378 3.078-3.078.001-1.701-1.378-3.079-3.078-3.079z"/><path d="m452.98 410.71c1.7 0 3.079-1.378 3.079-3.079 0-1.7-1.378-3.078-3.079-3.078s-3.078 1.378-3.078 3.078 1.378 3.079 3.078 3.079z"/><path d="m445.762 417.928c0-1.7-1.378-3.078-3.078-3.078s-3.079 1.378-3.079 3.078 1.378 3.079 3.079 3.079c1.699-.001 3.078-1.379 3.078-3.079z"/><path d="m452.98 430.556c1.7 0 3.079-1.378 3.079-3.079 0-1.7-1.378-3.078-3.079-3.078s-3.078 1.378-3.078 3.078c0 1.701 1.378 3.079 3.078 3.079z"/><path d="m456.059 447.324c0-1.388-.926-2.549-2.189-2.932.766.991 1.485 2.016 2.176 3.061.002-.044.013-.085.013-.129z"/><circle cx="433.134" cy="387.784" r="3.079"/><path d="m425.915 398.081c0-1.163-.653-2.163-1.605-2.687-.941 1.818-1.959 3.594-3.047 5.32.462.276.996.445 1.573.445 1.701 0 3.079-1.378 3.079-3.078z"/><path d="m433.134 404.552c-1.7 0-3.079 1.378-3.079 3.078s1.378 3.079 3.079 3.079c1.7 0 3.078-1.378 3.078-3.079 0-1.699-1.378-3.078-3.078-3.078z"/></g><g fill="#eaa895"><path d="m454.681 454.544c-1.7 0-3.078 1.378-3.078 3.079 0 1.045.523 1.965 1.319 2.521 1.912-.154 3.548-.913 4.791-2.06.023-.152.046-.304.046-.462.001-1.7-1.377-3.078-3.078-3.078z"/><path d="m434.835 440.854c1.7 0 3.078-1.378 3.078-3.079 0-1.7-1.378-3.078-3.078-3.078s-3.079 1.378-3.079 3.078c0 1.701 1.379 3.079 3.079 3.079z"/><path d="m448.21 447.325c0-1.7-1.378-3.079-3.078-3.079s-3.079 1.379-3.079 3.079 1.378 3.078 3.079 3.078c1.7.001 3.078-1.378 3.078-3.078z"/><path d="m437.913 457.622c0-1.7-1.378-3.079-3.078-3.079s-3.079 1.378-3.079 3.079c0 1.078.557 2.025 1.397 2.574h3.363c.84-.549 1.397-1.495 1.397-2.574z"/><path d="m414.988 421.007c1.7 0 3.079-1.378 3.079-3.079 0-1.7-1.378-3.079-3.079-3.079s-3.078 1.379-3.078 3.079c0 1.701 1.378 3.079 3.078 3.079z"/><path d="m425.285 430.557c1.7 0 3.078-1.378 3.078-3.079 0-1.7-1.378-3.078-3.078-3.078s-3.078 1.378-3.078 3.078c0 1.701 1.378 3.079 3.078 3.079z"/><path d="m414.988 440.854c1.7 0 3.079-1.378 3.079-3.079 0-1.7-1.378-3.078-3.079-3.078s-3.078 1.378-3.078 3.078c0 1.701 1.378 3.079 3.078 3.079z"/><path d="m425.285 450.404c1.7 0 3.078-1.378 3.078-3.078s-1.378-3.079-3.078-3.079-3.078 1.379-3.078 3.079c0 1.699 1.378 3.078 3.078 3.078z"/><path d="m418.067 457.622c0-1.7-1.378-3.079-3.079-3.079s-3.078 1.378-3.078 3.079c0 1.078.557 2.025 1.397 2.574h3.363c.84-.549 1.397-1.495 1.397-2.574z"/><path d="m395.141 401.16c1.7 0 3.079-1.378 3.079-3.079 0-1.7-1.378-3.078-3.079-3.078-1.7 0-3.078 1.378-3.078 3.078 0 1.701 1.378 3.079 3.078 3.079z"/><path d="m405.439 410.71c1.7 0 3.078-1.378 3.078-3.078s-1.378-3.079-3.078-3.079-3.079 1.378-3.079 3.079c0 1.7 1.378 3.078 3.079 3.078z"/><circle cx="395.141" cy="417.929" r="3.079"/><path d="m405.439 430.557c1.7 0 3.078-1.378 3.078-3.079 0-1.7-1.378-3.078-3.078-3.078s-3.079 1.378-3.079 3.078c0 1.701 1.378 3.079 3.079 3.079z"/><path d="m375.295 381.314c1.7 0 3.078-1.378 3.078-3.078s-1.378-3.079-3.078-3.079-3.078 1.378-3.078 3.079c-.001 1.699 1.378 3.078 3.078 3.078z"/><path d="m385.592 390.864c1.7 0 3.078-1.379 3.078-3.079s-1.378-3.078-3.078-3.078-3.078 1.378-3.078 3.078c-.001 1.7 1.378 3.079 3.078 3.079z"/><path d="m375.295 401.16c1.7 0 3.078-1.378 3.078-3.079 0-1.7-1.378-3.078-3.078-3.078s-3.078 1.378-3.078 3.078c-.001 1.701 1.378 3.079 3.078 3.079z"/><path d="m385.592 410.71c1.7 0 3.078-1.378 3.078-3.078s-1.378-3.079-3.078-3.079-3.078 1.378-3.078 3.079c-.001 1.7 1.378 3.078 3.078 3.078z"/><path d="m355.448 361.467c1.7 0 3.078-1.379 3.078-3.079s-1.378-3.079-3.078-3.079-3.078 1.378-3.078 3.079 1.378 3.079 3.078 3.079z"/><circle cx="365.745" cy="367.938" r="3.079"/><path d="m355.448 381.314c1.7 0 3.078-1.378 3.078-3.078s-1.378-3.079-3.078-3.079-3.078 1.378-3.078 3.079c0 1.699 1.378 3.078 3.078 3.078z"/><path d="m365.745 390.864c1.7 0 3.079-1.379 3.079-3.079s-1.378-3.078-3.079-3.078c-1.7 0-3.078 1.378-3.078 3.078s1.378 3.079 3.078 3.079z"/><circle cx="335.602" cy="338.542" r="3.079"/><path d="m345.898 351.17c1.7 0 3.078-1.378 3.078-3.079 0-1.7-1.378-3.079-3.078-3.079s-3.079 1.379-3.079 3.079c.001 1.701 1.379 3.079 3.079 3.079z"/><path d="m335.602 361.467c1.7 0 3.078-1.379 3.078-3.079s-1.378-3.079-3.078-3.079-3.079 1.378-3.079 3.079 1.378 3.079 3.079 3.079z"/><path d="m345.898 371.017c1.7 0 3.078-1.378 3.078-3.079 0-1.7-1.378-3.079-3.078-3.079s-3.079 1.378-3.079 3.079c.001 1.701 1.379 3.079 3.079 3.079z"/><ellipse cx="315.755" cy="318.695" rx="3.078" ry="3.079" transform="matrix(1 -.027 .027 1 -8.375 8.522)"/><path d="m326.052 331.323c1.7 0 3.078-1.378 3.078-3.079 0-1.7-1.378-3.078-3.078-3.078s-3.079 1.378-3.079 3.078c0 1.701 1.379 3.079 3.079 3.079z"/><ellipse cx="315.755" cy="338.542" rx="3.078" ry="3.079" transform="matrix(1 -.027 .027 1 -8.904 8.529)"/><path d="m326.052 351.17c1.7 0 3.078-1.378 3.078-3.079 0-1.7-1.378-3.079-3.078-3.079s-3.079 1.379-3.079 3.079c0 1.701 1.379 3.079 3.079 3.079z"/><path d="m295.908 301.927c1.7 0 3.078-1.378 3.078-3.078s-1.378-3.078-3.078-3.078-3.079 1.378-3.079 3.078c.001 1.7 1.379 3.078 3.079 3.078z"/><path d="m306.205 311.477c1.7 0 3.078-1.378 3.078-3.078s-1.378-3.079-3.078-3.079-3.079 1.378-3.079 3.079c.001 1.7 1.379 3.078 3.079 3.078z"/><path d="m295.908 321.774c1.7 0 3.078-1.378 3.078-3.079 0-1.7-1.378-3.079-3.078-3.079s-3.079 1.379-3.079 3.079c.001 1.701 1.379 3.079 3.079 3.079z"/><path d="m306.205 331.323c1.7 0 3.078-1.378 3.078-3.079 0-1.7-1.378-3.078-3.078-3.078s-3.079 1.378-3.079 3.078c.001 1.701 1.379 3.079 3.079 3.079z"/><path d="m276.061 282.08c1.7 0 3.078-1.378 3.078-3.078s-1.378-3.079-3.078-3.079-3.078 1.378-3.078 3.079c0 1.7 1.378 3.078 3.078 3.078z"/><path d="m286.358 291.63c1.7 0 3.078-1.379 3.078-3.079s-1.378-3.079-3.078-3.079-3.079 1.378-3.079 3.079c.001 1.701 1.379 3.079 3.079 3.079z"/><path d="m276.061 301.927c1.7 0 3.078-1.378 3.078-3.078s-1.378-3.078-3.078-3.078-3.078 1.378-3.078 3.078 1.378 3.078 3.078 3.078z"/><path d="m286.358 311.477c1.7 0 3.078-1.378 3.078-3.078s-1.378-3.079-3.078-3.079-3.079 1.378-3.079 3.079c.001 1.7 1.379 3.078 3.079 3.078z"/><ellipse cx="256.215" cy="259.155" rx="3.078" ry="3.079" transform="matrix(1 -.023 .023 1 -5.956 6.027)"/><path d="m266.512 271.784c1.7 0 3.078-1.378 3.078-3.079 0-1.7-1.378-3.079-3.078-3.079s-3.079 1.378-3.079 3.079c0 1.7 1.379 3.079 3.079 3.079z"/><path d="m256.215 282.08c1.7 0 3.078-1.378 3.078-3.078s-1.378-3.079-3.078-3.079-3.079 1.378-3.079 3.079c0 1.7 1.379 3.078 3.079 3.078z"/><path d="m266.512 291.63c1.7 0 3.078-1.379 3.078-3.079s-1.378-3.079-3.078-3.079-3.079 1.378-3.079 3.079 1.379 3.079 3.079 3.079z"/><path d="m236.368 242.387c1.7 0 3.078-1.378 3.078-3.079 0-1.7-1.378-3.079-3.078-3.079s-3.078 1.378-3.078 3.079 1.378 3.079 3.078 3.079z"/><path d="m246.665 251.937c1.7 0 3.078-1.378 3.078-3.078s-1.378-3.079-3.078-3.079-3.079 1.379-3.079 3.079c.001 1.7 1.379 3.078 3.079 3.078z"/><path d="m236.368 262.234c1.7 0 3.078-1.379 3.078-3.079s-1.378-3.079-3.078-3.079-3.078 1.378-3.078 3.079c0 1.7 1.378 3.079 3.078 3.079z"/><circle cx="246.665" cy="268.705" r="3.079"/><circle cx="216.521" cy="219.462" r="3.079"/><path d="m226.818 232.09c1.7 0 3.079-1.378 3.079-3.079 0-1.7-1.378-3.078-3.079-3.078-1.7 0-3.078 1.378-3.078 3.078 0 1.701 1.378 3.079 3.078 3.079z"/><path d="m216.521 242.387c1.7 0 3.078-1.378 3.078-3.079 0-1.7-1.378-3.079-3.078-3.079s-3.079 1.378-3.079 3.079c.001 1.701 1.379 3.079 3.079 3.079z"/><path d="m226.818 251.937c1.7 0 3.079-1.378 3.079-3.078s-1.378-3.079-3.079-3.079c-1.7 0-3.078 1.379-3.078 3.079s1.378 3.078 3.078 3.078z"/><path d="m196.675 202.694c1.7 0 3.078-1.378 3.078-3.079 0-1.7-1.378-3.078-3.078-3.078s-3.079 1.378-3.079 3.078c0 1.701 1.379 3.079 3.079 3.079z"/><path d="m206.972 212.243c1.7 0 3.078-1.378 3.078-3.078s-1.378-3.079-3.078-3.079-3.079 1.378-3.079 3.079c0 1.7 1.379 3.078 3.079 3.078z"/><ellipse cx="196.675" cy="219.462" rx="3.078" ry="3.079" transform="matrix(1 -.02 .02 1 -4.31 3.94)"/><path d="m206.972 232.09c1.7 0 3.078-1.378 3.078-3.079 0-1.7-1.378-3.078-3.078-3.078s-3.079 1.378-3.079 3.078c0 1.701 1.379 3.079 3.079 3.079z"/><path d="m176.828 182.847c1.7 0 3.078-1.378 3.078-3.078s-1.378-3.079-3.078-3.079-3.079 1.378-3.079 3.079c.001 1.7 1.379 3.078 3.079 3.078z"/><path d="m187.125 192.397c1.7 0 3.079-1.379 3.079-3.078 0-1.7-1.378-3.079-3.079-3.079-1.7 0-3.078 1.378-3.078 3.079 0 1.699 1.378 3.078 3.078 3.078z"/><path d="m176.828 202.694c1.7 0 3.078-1.378 3.078-3.079 0-1.7-1.378-3.078-3.078-3.078s-3.079 1.378-3.079 3.078c.001 1.701 1.379 3.079 3.079 3.079z"/><path d="m187.125 212.243c1.7 0 3.079-1.378 3.079-3.078s-1.378-3.079-3.079-3.079c-1.7 0-3.078 1.378-3.078 3.079 0 1.7 1.378 3.078 3.078 3.078z"/><path d="m156.982 163.001c1.7 0 3.078-1.379 3.078-3.079s-1.378-3.079-3.078-3.079-3.079 1.378-3.079 3.079c0 1.7 1.378 3.079 3.079 3.079z"/><circle cx="167.278" cy="169.472" r="3.079"/><path d="m156.982 182.847c1.7 0 3.078-1.378 3.078-3.078s-1.378-3.079-3.078-3.079-3.079 1.378-3.079 3.079c0 1.7 1.378 3.078 3.079 3.078z"/><path d="m167.278 192.397c1.7 0 3.079-1.379 3.079-3.078 0-1.7-1.378-3.079-3.079-3.079-1.7 0-3.078 1.378-3.078 3.079 0 1.699 1.378 3.078 3.078 3.078z"/><ellipse cx="137.135" cy="140.075" rx="3.078" ry="3.079" transform="matrix(1 -.016 .016 1 -2.269 2.258)"/><path d="m147.432 152.704c1.7 0 3.078-1.378 3.078-3.079 0-1.7-1.378-3.079-3.078-3.079s-3.079 1.379-3.079 3.079 1.379 3.079 3.079 3.079z"/><path d="m137.135 163.001c1.7 0 3.078-1.379 3.078-3.079s-1.378-3.079-3.078-3.079-3.079 1.378-3.079 3.079c0 1.7 1.379 3.079 3.079 3.079z"/><path d="m147.432 172.55c1.7 0 3.078-1.378 3.078-3.079 0-1.7-1.378-3.079-3.078-3.079s-3.079 1.378-3.079 3.079 1.379 3.079 3.079 3.079z"/><circle cx="117.288" cy="120.229" r="3.079"/><path d="m127.585 132.857c1.7 0 3.079-1.378 3.079-3.079 0-1.7-1.378-3.078-3.079-3.078s-3.079 1.378-3.079 3.078c.001 1.701 1.379 3.079 3.079 3.079z"/><circle cx="117.288" cy="140.075" r="3.079"/><path d="m127.585 152.704c1.7 0 3.079-1.378 3.079-3.079 0-1.7-1.378-3.079-3.079-3.079s-3.079 1.379-3.079 3.079c.001 1.7 1.379 3.079 3.079 3.079z"/><path d="m97.441 103.46c1.7 0 3.078-1.378 3.078-3.078s-1.378-3.078-3.078-3.078-3.078 1.378-3.078 3.078 1.378 3.078 3.078 3.078z"/><path d="m107.738 113.01c1.7 0 3.078-1.378 3.078-3.078s-1.378-3.079-3.078-3.079-3.079 1.378-3.079 3.079c.001 1.7 1.379 3.078 3.079 3.078z"/><path d="m97.441 123.307c1.7 0 3.078-1.378 3.078-3.079 0-1.7-1.378-3.079-3.078-3.079s-3.078 1.379-3.078 3.079c0 1.701 1.378 3.079 3.078 3.079z"/><path d="m107.738 132.857c1.7 0 3.078-1.378 3.078-3.079 0-1.7-1.378-3.078-3.078-3.078s-3.079 1.378-3.079 3.078c.001 1.701 1.379 3.079 3.079 3.079z"/><path d="m77.595 83.614c1.7 0 3.078-1.378 3.078-3.078s-1.378-3.079-3.078-3.079-3.078 1.378-3.078 3.079c-.001 1.699 1.378 3.078 3.078 3.078z"/><path d="m87.892 93.164c1.7 0 3.078-1.379 3.078-3.079s-1.378-3.079-3.078-3.079-3.078 1.378-3.078 3.079c-.001 1.7 1.378 3.079 3.078 3.079z"/><path d="m77.595 103.46c1.7 0 3.078-1.378 3.078-3.078s-1.378-3.078-3.078-3.078-3.078 1.378-3.078 3.078c-.001 1.7 1.378 3.078 3.078 3.078z"/><path d="m87.892 113.01c1.7 0 3.078-1.378 3.078-3.078s-1.378-3.079-3.078-3.079-3.078 1.378-3.078 3.079c-.001 1.7 1.378 3.078 3.078 3.078z"/><circle cx="57.748" cy="60.689" r="3.079"/><path d="m68.045 67.16c-1.7 0-3.079 1.378-3.079 3.078s1.378 3.079 3.079 3.079c1.7 0 3.078-1.378 3.078-3.079.001-1.7-1.378-3.078-3.078-3.078z"/><path d="m57.748 77.457c-1.7 0-3.078 1.378-3.078 3.079 0 1.7 1.378 3.078 3.078 3.078s3.079-1.378 3.079-3.078c0-1.701-1.379-3.079-3.079-3.079z"/><path d="m68.045 87.007c-1.7 0-3.079 1.378-3.079 3.079 0 1.7 1.378 3.079 3.079 3.079 1.7 0 3.078-1.379 3.078-3.079.001-1.701-1.378-3.079-3.078-3.079z"/><path d="m48.198 53.47c1.482 0 2.717-1.048 3.011-2.442h-6.022c.294 1.394 1.53 2.442 3.011 2.442z"/><path d="m34.823 60.689c0 1.7 1.378 3.079 3.078 3.079s3.078-1.379 3.078-3.079-1.378-3.079-3.078-3.079-3.078 1.378-3.078 3.079z"/><path d="m48.198 67.16c-1.7 0-3.078 1.378-3.078 3.078s1.378 3.079 3.078 3.079 3.078-1.378 3.078-3.079c.001-1.7-1.377-3.078-3.078-3.078z"/><path d="m31.363 51.028h-6.022c.294 1.394 1.529 2.442 3.011 2.442s2.717-1.048 3.011-2.442z"/></g><path d="m180.946 171.103c62.375 62.375 124.751 124.751 187.126 187.127l-74.106-266.02c-2.736-9.823-12.918-15.568-22.741-12.832l-142.349 39.655c17.357 17.357 34.713 34.714 52.07 52.07z" fill="#e9c278"/><path d="m142.2 130.71c31.462 31.463 62.925 62.924 94.387 94.387 7.378-13.262 11.586-28.529 11.586-44.782 0-50.952-41.305-92.258-92.258-92.258-16.252 0-31.52 4.208-44.782 11.586z" fill="#eaa895"/><path d="m418.95 407.871c7.469-13.323 11.734-28.686 11.734-45.046 0-50.953-41.305-92.258-92.258-92.258-16.361 0-31.723 4.264-45.046 11.734z" fill="#eaa895"/><g fill="#31373d"><path d="m434.387 370.295c.193-2.482.302-4.973.302-7.469 0-50.259-38.718-91.639-87.893-95.895l-48.972-175.796c-3.324-11.934-15.743-18.938-27.673-15.615l-69.772 19.437c-13.308-6.961-28.433-10.905-44.464-10.905-2.38 0-4.755.099-7.122.275l-33.689-33.733c-2.029-2.031-4.673-3.295-7.444-3.557l-.002.022c-.153-.015-.303-.041-.46-.038l-93.121-.004c-2.175-.371-4.46-.132-6.646.773-4.586 1.9-7.433 6.164-7.43 11.128l.271 393.256c.005 6.632 5.405 12.027 12.036 12.027h486.565c5.004 0 9.304-2.872 11.221-7.495s.911-9.695-2.626-13.236zm-7.708-7.469c0 13.129-2.948 26.135-8.543 37.905l-16.125-16.147c2.391-6.985 3.613-14.29 3.613-21.758 0-37.053-30.144-67.198-67.197-67.198-7.434 0-14.712 1.215-21.673 3.587l-16.132-16.153c11.746-5.566 24.708-8.489 37.805-8.489 48.662-.001 88.252 39.59 88.252 88.253zm-31.082 15.335-72.434-72.528c4.953-1.32 10.063-1.995 15.263-1.995 32.636 0 59.187 26.552 59.187 59.188 0 5.227-.684 10.361-2.016 15.335zm-123.297-294.924c7.68-2.141 15.669 2.368 17.808 10.048l48.27 173.278c-15.219.008-30.273 3.633-43.736 10.512l-52.958-53.028c6.868-13.459 10.494-28.523 10.494-43.732 0-33.103-16.797-62.354-42.313-79.686zm-28.132 97.078c0 13.068-2.92 26.016-8.465 37.743l-16.135-16.156c2.352-6.932 3.545-14.179 3.545-21.587 0-37.053-30.145-67.198-67.198-67.198-7.369 0-14.587 1.194-21.494 3.526l-16.147-16.168c11.701-5.514 24.608-8.413 37.641-8.413 48.663 0 88.253 39.59 88.253 88.253zm-31.034 15.145-72.293-72.387c4.894-1.286 9.941-1.945 15.074-1.945 32.636 0 59.188 26.551 59.188 59.188 0 5.162-.671 10.23-1.969 15.144zm-112.409-140.289 6.306-.134c.874.113 1.724.537 2.405 1.218l29.31 29.349c-9.2 1.664-18.132 4.649-26.455 8.882l-39.31-39.361zm-88.418 401.02c-2.218 0-4.024-1.805-4.026-4.023l-.271-393.256c-.002-2.498 1.902-3.48 2.485-3.722.256-.107.802-.282 1.475-.306.32.083.649.141.995.141h.166c.575.16 1.177.462 1.753 1.039l392.743 393.256c1.763 1.765 1.112 3.804.87 4.386-.241.583-1.224 2.484-3.719 2.484h-392.471zm403.807 0c1.585-4.42.536-9.17-2.82-12.531l-388.107-388.615 35.523.059c.657.133 1.388.458 2.08 1.15l392.363 392.876c1.812 1.814 1.142 3.909.894 4.508s-1.258 2.552-3.821 2.552h-36.112zm86.579-2.552c-.248.599-1.258 2.552-3.822 2.552h-35.233c1.638-4.482.588-9.31-2.818-12.721l-36.708-36.756c4.254-8.298 7.275-17.209 8.968-26.392l68.718 68.808c1.813 1.815 1.143 3.91.895 4.509z"/><path d="m68.129 290.356c-15.315 0-27.774-12.459-27.774-27.774 0-15.314 12.459-27.773 27.774-27.773 15.314 0 27.773 12.459 27.773 27.773 0 15.315-12.459 27.774-27.773 27.774zm0-47.537c-10.897 0-19.764 8.866-19.764 19.763s8.866 19.764 19.764 19.764 19.763-8.866 19.763-19.764c0-10.897-8.866-19.763-19.763-19.763z"/><path d="m140.622 417.913c-10.29 0-18.662-8.372-18.662-18.662s8.372-18.662 18.662-18.662 18.662 8.372 18.662 18.662-8.372 18.662-18.662 18.662zm0-29.314c-5.874 0-10.652 4.778-10.652 10.652s4.779 10.652 10.652 10.652 10.652-4.778 10.652-10.652-4.779-10.652-10.652-10.652z"/><path d="m220.246 341.811c0 4.376-3.547 7.923-7.923 7.923s-7.923-3.547-7.923-7.923 3.547-7.923 7.923-7.923 7.923 3.547 7.923 7.923z"/><ellipse cx="71.298" cy="200.785" rx="7.923" ry="7.923" transform="matrix(.993 -.122 .122 .993 -23.953 10.193)"/><ellipse cx="281.845" cy="384.98" rx="7.923" ry="7.923" transform="matrix(.923 -.385 .385 .923 -126.368 137.982)"/></g></g></svg>