<svg id="Capa_1" enable-background="new 0 0 510.009 510.009" height="512" viewBox="0 0 510.009 510.009" width="512" xmlns="http://www.w3.org/2000/svg"><g><ellipse cx="255.004" cy="102.364" fill="#eaa895" rx="98.364" ry="98.364" transform="matrix(.707 -.707 .707 .707 2.307 210.297)"/><ellipse cx="174.084" cy="171.069" fill="#f9fbfc" rx="98.364" ry="98.364" transform="matrix(.707 -.707 .707 .707 -69.976 173.201)"/><ellipse cx="335.924" cy="171.069" fill="#eaa895" rx="98.364" ry="98.364" transform="matrix(.707 -.707 .707 .707 -22.574 287.639)"/><path d="m454.287 182.425c-64.185-35.007-140.738-30.875-199.918 6.302-57.941-37.997-133.647-43.917-198.269-10.987-8.113 4.136-10.94 14.343-6.138 22.079l113.768 183.293 71.997 114.414c7.026 11.164 23.239 11.342 30.508.333l75.059-113.685 118.517-179.504c5.019-7.601 2.473-17.883-5.524-22.245z" fill="#e9c278"/><g fill="#f9fbfc"><path d="m439.744 178.447c0 1.714 1.389 3.103 3.102 3.103s3.102-1.389 3.102-3.103c0-.112-.022-.219-.033-.328-1.592-.773-3.191-1.521-4.796-2.248-.829.557-1.375 1.503-1.375 2.576z"/><path d="m453.223 184.969c-1.713 0-3.102 1.389-3.102 3.103 0 1.713 1.389 3.102 3.102 3.102s3.102-1.39 3.102-3.102c0-1.715-1.389-3.103-3.102-3.103z"/><path d="m442.846 195.346c-1.713 0-3.102 1.389-3.102 3.102 0 1.714 1.389 3.103 3.102 3.103s3.102-1.389 3.102-3.103-1.389-3.102-3.102-3.102z"/><path d="m453.223 204.969c-1.713 0-3.102 1.389-3.102 3.103 0 1.713 1.389 3.102 3.102 3.102s3.102-1.39 3.102-3.102c0-1.715-1.389-3.103-3.102-3.103z"/><path d="m442.846 215.346c-1.713 0-3.102 1.389-3.102 3.102 0 1.714 1.389 3.103 3.102 3.103s3.102-1.389 3.102-3.103-1.389-3.102-3.102-3.102z"/><path d="m422.846 175.346c-1.713 0-3.102 1.389-3.102 3.102 0 1.714 1.389 3.103 3.102 3.103s3.102-1.389 3.102-3.103-1.389-3.102-3.102-3.102z"/><path d="m433.223 184.969c-1.713 0-3.102 1.389-3.102 3.103 0 1.713 1.389 3.102 3.102 3.102s3.102-1.39 3.102-3.102c0-1.715-1.389-3.103-3.102-3.103z"/><path d="m422.846 195.346c-1.713 0-3.102 1.389-3.102 3.102 0 1.714 1.389 3.103 3.102 3.103s3.102-1.389 3.102-3.103-1.389-3.102-3.102-3.102z"/><path d="m433.223 204.969c-1.713 0-3.102 1.389-3.102 3.103 0 1.713 1.389 3.102 3.102 3.102s3.102-1.39 3.102-3.102c0-1.715-1.389-3.103-3.102-3.103z"/><path d="m422.846 215.346c-1.713 0-3.102 1.389-3.102 3.102 0 1.714 1.389 3.103 3.102 3.103s3.102-1.389 3.102-3.103-1.389-3.102-3.102-3.102z"/><path d="m433.223 224.969c-1.713 0-3.102 1.389-3.102 3.103 0 1.713 1.389 3.102 3.102 3.102s3.102-1.39 3.102-3.102c0-1.715-1.389-3.103-3.102-3.103z"/><path d="m422.846 235.346c-1.713 0-3.102 1.389-3.102 3.102 0 1.714 1.389 3.103 3.102 3.103s3.102-1.389 3.102-3.103-1.389-3.102-3.102-3.102z"/><path d="m410.12 168.071c0 1.713 1.389 3.102 3.102 3.102s3.102-1.39 3.102-3.102c0-.59-.174-1.136-.459-1.605-1.345-.398-2.691-.781-4.041-1.149-1.007.512-1.704 1.546-1.704 2.754z"/><path d="m402.846 175.346c-1.713 0-3.102 1.389-3.102 3.102 0 1.714 1.389 3.103 3.102 3.103s3.102-1.389 3.102-3.103-1.389-3.102-3.102-3.102z"/><path d="m413.223 184.969c-1.713 0-3.102 1.389-3.102 3.103 0 1.713 1.389 3.102 3.102 3.102s3.102-1.39 3.102-3.102c0-1.715-1.389-3.103-3.102-3.103z"/><path d="m402.846 195.346c-1.713 0-3.102 1.389-3.102 3.102 0 1.714 1.389 3.103 3.102 3.103s3.102-1.389 3.102-3.103-1.389-3.102-3.102-3.102z"/><path d="m413.223 204.969c-1.713 0-3.102 1.389-3.102 3.103 0 1.713 1.389 3.102 3.102 3.102s3.102-1.39 3.102-3.102c0-1.715-1.389-3.103-3.102-3.103z"/><path d="m402.846 215.346c-1.713 0-3.102 1.389-3.102 3.102 0 1.714 1.389 3.103 3.102 3.103s3.102-1.389 3.102-3.103-1.389-3.102-3.102-3.102z"/><path d="m413.223 224.969c-1.713 0-3.102 1.389-3.102 3.103 0 1.713 1.389 3.102 3.102 3.102s3.102-1.39 3.102-3.102c0-1.715-1.389-3.103-3.102-3.103z"/><path d="m413.223 244.969c-1.713 0-3.102 1.389-3.102 3.103 0 1.713 1.389 3.102 3.102 3.102s3.102-1.39 3.102-3.102c0-1.715-1.389-3.103-3.102-3.103z"/><path d="m402.846 255.346c-1.713 0-3.102 1.389-3.102 3.102 0 1.714 1.389 3.103 3.102 3.103s3.102-1.389 3.102-3.103-1.389-3.102-3.102-3.102z"/><path d="m413.223 264.969c-1.713 0-3.102 1.389-3.102 3.102s1.389 3.103 3.102 3.103 3.102-1.39 3.102-3.103c0-1.714-1.389-3.102-3.102-3.102z"/><path d="m402.846 275.346c-1.713 0-3.102 1.389-3.102 3.102 0 1.714 1.389 3.103 3.102 3.103s3.102-1.389 3.102-3.103-1.389-3.102-3.102-3.102z"/><path d="m393.223 164.969c-1.713 0-3.102 1.389-3.102 3.103 0 1.713 1.389 3.102 3.102 3.102s3.102-1.39 3.102-3.102c0-1.715-1.389-3.103-3.102-3.103z"/><path d="m382.846 175.346c-1.713 0-3.102 1.389-3.102 3.102 0 1.714 1.389 3.103 3.102 3.103s3.102-1.389 3.102-3.103-1.389-3.102-3.102-3.102z"/><path d="m393.223 184.969c-1.713 0-3.102 1.389-3.102 3.103 0 1.713 1.389 3.102 3.102 3.102s3.102-1.39 3.102-3.102c0-1.715-1.389-3.103-3.102-3.103z"/><path d="m382.846 195.346c-1.713 0-3.102 1.389-3.102 3.102 0 1.714 1.389 3.103 3.102 3.103s3.102-1.389 3.102-3.103-1.389-3.102-3.102-3.102z"/><path d="m393.223 204.969c-1.713 0-3.102 1.389-3.102 3.103 0 1.713 1.389 3.102 3.102 3.102s3.102-1.39 3.102-3.102c0-1.715-1.389-3.103-3.102-3.103z"/><path d="m382.846 215.346c-1.713 0-3.102 1.389-3.102 3.102 0 1.714 1.389 3.103 3.102 3.103s3.102-1.389 3.102-3.103-1.389-3.102-3.102-3.102z"/><path d="m393.223 224.969c-1.713 0-3.102 1.389-3.102 3.103 0 1.713 1.389 3.102 3.102 3.102s3.102-1.39 3.102-3.102c0-1.715-1.389-3.103-3.102-3.103z"/><path d="m382.846 235.346c-1.713 0-3.102 1.389-3.102 3.102 0 1.714 1.389 3.103 3.102 3.103s3.102-1.389 3.102-3.103-1.389-3.102-3.102-3.102z"/><path d="m382.846 255.346c-1.713 0-3.102 1.389-3.102 3.102 0 1.714 1.389 3.103 3.102 3.103s3.102-1.389 3.102-3.103-1.389-3.102-3.102-3.102z"/><path d="m393.223 264.969c-1.713 0-3.102 1.389-3.102 3.102s1.389 3.103 3.102 3.103 3.102-1.39 3.102-3.103c0-1.714-1.389-3.102-3.102-3.102z"/><path d="m382.846 275.346c-1.713 0-3.102 1.389-3.102 3.102 0 1.714 1.389 3.103 3.102 3.103s3.102-1.389 3.102-3.103-1.389-3.102-3.102-3.102z"/><path d="m393.223 284.969c-1.713 0-3.102 1.389-3.102 3.102s1.389 3.103 3.102 3.103 3.102-1.39 3.102-3.103c0-1.714-1.389-3.102-3.102-3.102z"/><path d="m382.846 295.346c-1.713 0-3.102 1.389-3.102 3.102 0 1.714 1.389 3.103 3.102 3.103s3.102-1.389 3.102-3.103-1.389-3.102-3.102-3.102z"/><path d="m382.846 315.346c-1.713 0-3.102 1.389-3.102 3.102 0 1.648 1.289 2.982 2.911 3.083l2.952-4.471c-.511-1.013-1.549-1.714-2.761-1.714z"/><path d="m373.223 164.969c-1.713 0-3.102 1.389-3.102 3.103 0 1.713 1.389 3.102 3.102 3.102s3.102-1.39 3.102-3.102c0-1.715-1.389-3.103-3.102-3.103z"/><path d="m362.846 175.346c-1.713 0-3.102 1.389-3.102 3.102 0 1.714 1.389 3.103 3.102 3.103s3.102-1.389 3.102-3.103-1.389-3.102-3.102-3.102z"/><path d="m373.223 184.969c-1.713 0-3.102 1.389-3.102 3.103 0 1.713 1.389 3.102 3.102 3.102s3.102-1.39 3.102-3.102c0-1.715-1.389-3.103-3.102-3.103z"/><path d="m362.846 195.346c-1.713 0-3.102 1.389-3.102 3.102 0 1.714 1.389 3.103 3.102 3.103s3.102-1.389 3.102-3.103-1.389-3.102-3.102-3.102z"/><path d="m373.223 204.969c-1.713 0-3.102 1.389-3.102 3.103 0 1.713 1.389 3.102 3.102 3.102s3.102-1.39 3.102-3.102c0-1.715-1.389-3.103-3.102-3.103z"/><path d="m373.223 224.969c-1.713 0-3.102 1.389-3.102 3.103 0 1.713 1.389 3.102 3.102 3.102s3.102-1.39 3.102-3.102c0-1.715-1.389-3.103-3.102-3.103z"/><path d="m362.846 235.346c-1.713 0-3.102 1.389-3.102 3.102 0 1.714 1.389 3.103 3.102 3.103s3.102-1.389 3.102-3.103-1.389-3.102-3.102-3.102z"/><path d="m373.223 244.969c-1.713 0-3.102 1.389-3.102 3.103 0 1.713 1.389 3.102 3.102 3.102s3.102-1.39 3.102-3.102c0-1.715-1.389-3.103-3.102-3.103z"/><path d="m362.846 255.346c-1.713 0-3.102 1.389-3.102 3.102 0 1.714 1.389 3.103 3.102 3.103s3.102-1.389 3.102-3.103-1.389-3.102-3.102-3.102z"/><path d="m373.223 264.969c-1.713 0-3.102 1.389-3.102 3.102s1.389 3.103 3.102 3.103 3.102-1.39 3.102-3.103c0-1.714-1.389-3.102-3.102-3.102z"/><path d="m362.846 275.346c-1.713 0-3.102 1.389-3.102 3.102 0 1.714 1.389 3.103 3.102 3.103s3.102-1.389 3.102-3.103-1.389-3.102-3.102-3.102z"/><path d="m373.223 284.969c-1.713 0-3.102 1.389-3.102 3.102s1.389 3.103 3.102 3.103 3.102-1.39 3.102-3.103c0-1.714-1.389-3.102-3.102-3.102z"/><path d="m373.223 304.969c-1.713 0-3.102 1.389-3.102 3.102s1.389 3.103 3.102 3.103 3.102-1.39 3.102-3.103c0-1.714-1.389-3.102-3.102-3.102z"/><path d="m362.846 315.346c-1.713 0-3.102 1.389-3.102 3.102 0 1.714 1.389 3.103 3.102 3.103s3.102-1.389 3.102-3.103-1.389-3.102-3.102-3.102z"/><path d="m373.223 324.969c-1.713 0-3.102 1.389-3.102 3.102s1.389 3.103 3.102 3.103 3.102-1.39 3.102-3.103c0-1.714-1.389-3.102-3.102-3.102z"/><path d="m362.846 341.55c1.713 0 3.102-1.389 3.102-3.103 0-1.713-1.389-3.102-3.102-3.102s-3.102 1.389-3.102 3.102c0 1.714 1.389 3.103 3.102 3.103z"/><path d="m353.223 164.969c-1.713 0-3.102 1.389-3.102 3.103 0 1.713 1.389 3.102 3.102 3.102s3.102-1.39 3.102-3.102c0-1.715-1.389-3.103-3.102-3.103z"/><path d="m342.846 175.346c-1.713 0-3.102 1.389-3.102 3.102 0 1.714 1.389 3.103 3.102 3.103s3.102-1.389 3.102-3.103-1.389-3.102-3.102-3.102z"/><path d="m353.223 184.969c-1.713 0-3.102 1.389-3.102 3.103 0 1.713 1.389 3.102 3.102 3.102s3.102-1.39 3.102-3.102c0-1.715-1.389-3.103-3.102-3.103z"/><path d="m353.223 204.969c-1.713 0-3.102 1.389-3.102 3.103 0 1.713 1.389 3.102 3.102 3.102s3.102-1.39 3.102-3.102c0-1.715-1.389-3.103-3.102-3.103z"/><path d="m342.846 215.346c-1.713 0-3.102 1.389-3.102 3.102 0 1.714 1.389 3.103 3.102 3.103s3.102-1.389 3.102-3.103-1.389-3.102-3.102-3.102z"/><path d="m353.223 224.969c-1.713 0-3.102 1.389-3.102 3.103 0 1.713 1.389 3.102 3.102 3.102s3.102-1.39 3.102-3.102c0-1.715-1.389-3.103-3.102-3.103z"/><path d="m342.846 235.346c-1.713 0-3.102 1.389-3.102 3.102 0 1.714 1.389 3.103 3.102 3.103s3.102-1.389 3.102-3.103-1.389-3.102-3.102-3.102z"/><path d="m353.223 244.969c-1.713 0-3.102 1.389-3.102 3.103 0 1.713 1.389 3.102 3.102 3.102s3.102-1.39 3.102-3.102c0-1.715-1.389-3.103-3.102-3.103z"/><path d="m353.223 264.969c-1.713 0-3.102 1.389-3.102 3.102s1.389 3.103 3.102 3.103 3.102-1.39 3.102-3.103c0-1.714-1.389-3.102-3.102-3.102z"/><path d="m342.846 275.346c-1.713 0-3.102 1.389-3.102 3.102 0 1.714 1.389 3.103 3.102 3.103s3.102-1.389 3.102-3.103-1.389-3.102-3.102-3.102z"/><path d="m353.223 284.969c-1.713 0-3.102 1.389-3.102 3.102s1.389 3.103 3.102 3.103 3.102-1.39 3.102-3.103c0-1.714-1.389-3.102-3.102-3.102z"/><path d="m342.846 295.346c-1.713 0-3.102 1.389-3.102 3.102 0 1.714 1.389 3.103 3.102 3.103s3.102-1.389 3.102-3.103-1.389-3.102-3.102-3.102z"/><path d="m353.223 304.969c-1.713 0-3.102 1.389-3.102 3.102s1.389 3.103 3.102 3.103 3.102-1.39 3.102-3.103c0-1.714-1.389-3.102-3.102-3.102z"/><path d="m342.846 321.55c1.713 0 3.102-1.389 3.102-3.103 0-1.713-1.389-3.102-3.102-3.102-1.187 0-2.206.674-2.728 1.653.239 1.254.469 2.509.683 3.766.547.483 1.258.786 2.045.786z"/><path d="m353.223 324.969c-1.713 0-3.102 1.389-3.102 3.102s1.389 3.103 3.102 3.103 3.102-1.39 3.102-3.103c0-1.714-1.389-3.102-3.102-3.102z"/><path d="m353.223 344.969c-1.713 0-3.102 1.389-3.102 3.102s1.389 3.103 3.102 3.103 3.102-1.39 3.102-3.103c0-1.714-1.389-3.102-3.102-3.102z"/><path d="m333.223 164.969c-1.713 0-3.102 1.389-3.102 3.103 0 1.713 1.389 3.102 3.102 3.102s3.102-1.39 3.102-3.102c0-1.715-1.389-3.103-3.102-3.103z"/><path d="m322.846 175.346c-1.713 0-3.102 1.389-3.102 3.102 0 1.714 1.389 3.103 3.102 3.103s3.102-1.389 3.102-3.103-1.389-3.102-3.102-3.102z"/><path d="m322.846 195.346c-1.713 0-3.102 1.389-3.102 3.102 0 1.714 1.389 3.103 3.102 3.103s3.102-1.389 3.102-3.103-1.389-3.102-3.102-3.102z"/><path d="m333.223 204.969c-1.713 0-3.102 1.389-3.102 3.103 0 1.713 1.389 3.102 3.102 3.102s3.102-1.39 3.102-3.102c0-1.715-1.389-3.103-3.102-3.103z"/><path d="m322.846 215.346c-1.713 0-3.102 1.389-3.102 3.102 0 1.714 1.389 3.103 3.102 3.103s3.102-1.389 3.102-3.103-1.389-3.102-3.102-3.102z"/><path d="m333.223 224.969c-1.713 0-3.102 1.389-3.102 3.103 0 1.713 1.389 3.102 3.102 3.102s3.102-1.39 3.102-3.102c0-1.715-1.389-3.103-3.102-3.103z"/><path d="m322.846 235.346c-1.713 0-3.102 1.389-3.102 3.102 0 1.714 1.389 3.103 3.102 3.103s3.102-1.389 3.102-3.103-1.389-3.102-3.102-3.102z"/><path d="m333.223 244.969c-1.713 0-3.102 1.389-3.102 3.103 0 1.713 1.389 3.102 3.102 3.102s3.102-1.39 3.102-3.102c0-1.715-1.389-3.103-3.102-3.103z"/><path d="m322.846 255.346c-1.713 0-3.102 1.389-3.102 3.102 0 1.714 1.389 3.103 3.102 3.103s3.102-1.389 3.102-3.103-1.389-3.102-3.102-3.102z"/><path d="m333.223 264.969c-1.713 0-3.102 1.389-3.102 3.102s1.389 3.103 3.102 3.103 3.102-1.39 3.102-3.103c0-1.714-1.389-3.102-3.102-3.102z"/><path d="m313.223 164.969c-1.713 0-3.102 1.389-3.102 3.103 0 1.713 1.389 3.102 3.102 3.102s3.102-1.39 3.102-3.102c0-1.715-1.389-3.103-3.102-3.103z"/><path d="m302.846 175.346c-1.713 0-3.102 1.389-3.102 3.102 0 1.714 1.389 3.103 3.102 3.103s3.102-1.389 3.102-3.103-1.389-3.102-3.102-3.102z"/><path d="m313.223 184.969c-1.713 0-3.102 1.389-3.102 3.103 0 1.713 1.389 3.102 3.102 3.102s3.102-1.39 3.102-3.102c0-1.715-1.389-3.103-3.102-3.103z"/><path d="m313.223 204.969c-1.713 0-3.102 1.389-3.102 3.103 0 1.713 1.389 3.102 3.102 3.102s3.102-1.39 3.102-3.102c0-1.715-1.389-3.103-3.102-3.103z"/><path d="m302.846 215.346c-1.713 0-3.102 1.389-3.102 3.102 0 1.714 1.389 3.103 3.102 3.103s3.102-1.389 3.102-3.103-1.389-3.102-3.102-3.102z"/><path d="m313.223 224.969c-1.713 0-3.102 1.389-3.102 3.103 0 1.713 1.389 3.102 3.102 3.102s3.102-1.39 3.102-3.102c0-1.715-1.389-3.103-3.102-3.103z"/><path d="m282.846 175.346c-1.713 0-3.102 1.389-3.102 3.102 0 1.714 1.389 3.103 3.102 3.103s3.102-1.389 3.102-3.103-1.389-3.102-3.102-3.102z"/><path d="m293.223 184.969c-1.713 0-3.102 1.389-3.102 3.103 0 1.713 1.389 3.102 3.102 3.102s3.102-1.39 3.102-3.102c0-1.715-1.389-3.103-3.102-3.103z"/><path d="m285.948 198.447c0-1.713-1.389-3.102-3.102-3.102s-3.102 1.389-3.102 3.102c0 1.714 1.389 3.103 3.102 3.103s3.102-1.389 3.102-3.103z"/><path d="m293.223 211.174c1.713 0 3.102-1.39 3.102-3.102 0-1.714-1.389-3.103-3.102-3.103s-3.102 1.389-3.102 3.103c-.001 1.712 1.388 3.102 3.102 3.102z"/><path d="m276.325 188.071c0-1.714-1.389-3.103-3.102-3.103s-3.102 1.389-3.102 3.103c0 1.713 1.389 3.102 3.102 3.102 1.713.001 3.102-1.389 3.102-3.102z"/></g><g fill="#31373d"><path d="m327.691 222.984c-1.551 0-3.114-.443-4.484-1.369l-20.532-13.867c-2.377-1.604-3.697-4.272-3.532-7.136.166-2.87 1.789-5.374 4.343-6.698 12.938-6.713 26.836-11.118 41.308-13.093 3.235-.442 6.3 1.011 7.999 3.788 1.689 2.761 1.588 6.129-.265 8.789l-18.206 26.146c-1.558 2.236-4.077 3.44-6.631 3.44zm17.642-38.2.541 3.963c-13.562 1.851-26.584 5.979-38.705 12.268h-.001c-.02.01-.029.018-.031.02l20.547 13.951 18.278-26.16z"/><path d="m387.888 252.426c-3.334.001-6.591-.99-9.421-2.9l-14.326-9.676c-3.78-2.553-6.322-6.429-7.158-10.913-.836-4.483.14-9.015 2.746-12.758l14.342-20.599c3.135-4.501 8.29-7.212 13.791-7.253h-.001c7.89-.039 15.777.621 23.453 2.02 5.193.946 9.548 4.418 11.647 9.287 2.117 4.915 1.643 10.523-1.272 15.002l-19.589 30.1c-2.494 3.831-6.334 6.44-10.814 7.348-1.133.228-2.27.342-3.398.342zm.032-56.099c-2.908.021-5.632 1.451-7.285 3.825l-14.342 20.598c-1.373 1.972-1.887 4.359-1.446 6.721s1.779 4.404 3.772 5.75l14.325 9.675c1.994 1.346 4.39 1.822 6.753 1.348 2.36-.479 4.384-1.854 5.697-3.872l19.589-30.099c1.472-2.263 1.702-4.986.631-7.473-1.052-2.439-3.142-4.11-5.734-4.582-7.186-1.311-14.582-1.948-21.96-1.891z"/><path d="m465.809 191.355c-1.318-5.296-4.82-9.831-9.607-12.442-5.863-3.197-11.846-6.077-17.924-8.648-.391-50.58-37.649-92.54-86.175-100.277-13.581-40.622-51.967-69.988-97.099-69.988-45.131 0-83.512 29.367-97.092 69.988-47.246 7.532-83.809 47.507-86.066 96.294-5.944 2.34-11.808 4.962-17.562 7.895-4.854 2.475-8.479 6.907-9.943 12.162-1.469 5.266-.658 10.947 2.224 15.59l113.781 183.314 71.997 114.414c4.027 6.398 10.945 10.268 18.506 10.351.082.001.164.001.246.001 7.465 0 14.359-3.705 18.48-9.945l75.059-113.685 118.516-179.504c3.01-4.56 3.979-10.216 2.659-15.52zm-35.618-24.287c-57.525-21.441-122.488-15.583-175.77 16.961-4.158-2.653-8.393-5.14-12.697-7.461-.105-1.82-.165-3.653-.165-5.5 0-52.032 42.332-94.363 94.364-94.363 50.692 0 92.163 40.18 94.268 90.363zm-175.187-159.068c40.28 0 74.738 25.372 88.252 60.971-2.423-.173-4.867-.266-7.332-.266-32.878 0-62.182 15.585-80.923 39.751-18.741-24.164-48.039-39.751-80.917-39.751-2.462 0-4.902.092-7.32.264 13.516-35.596 47.963-60.969 88.24-60.969zm-80.92 68.705c31.177 0 58.86 15.206 76.051 38.583-10.477 16.057-16.576 35.219-16.576 55.78 0 .443.022.882.029 1.323-47.959-23.128-103.335-26.398-153.538-9.131 3.983-48.393 44.631-86.555 94.034-86.555zm163.388 306-74.574 112.95c-2.632 3.986-7.036 6.353-11.806 6.353-.052 0-.104 0-.157-.001-4.83-.053-9.249-2.524-11.821-6.612l-71.984-114.393-113.77-183.292c-1.729-2.786-2.196-6.062-1.314-9.223.878-3.15 2.963-5.701 5.87-7.184 27.567-14.048 57.657-20.997 87.706-20.997 37.236 0 74.402 10.682 106.553 31.765 23.651 15.512 43.258 35.642 58.273 59.831 24.222 39.025 33.805 85.443 27.024 130.803zm-6.27-108.227 5.454-7.833c2.009-2.885 5.259-4.438 8.556-4.438 2 0 4.018.571 5.784 1.765l12.577 8.494c4.667 3.151 5.965 9.555 2.894 14.275l-11.905 18.294c-1.532 2.354-3.892 3.957-6.645 4.516-1.831.37-3.676.231-5.394-.357-2.709-11.861-6.498-23.482-11.321-34.716zm125.272-72.011-109.365 165.64c.015-.22.026-.439.039-.658 1.107-16.704.116-33.417-2.884-49.756.512.045 1.027.07 1.545.07 1.227 0 2.464-.123 3.695-.373 4.872-.986 9.049-3.825 11.761-7.992l11.905-18.294c5.438-8.354 3.14-19.69-5.122-25.269l-12.575-8.493c-8.285-5.595-19.671-3.472-25.383 4.73l-2.751 3.951c-3.036-6.26-6.398-12.385-10.095-18.341-14.188-22.858-32.329-42.224-53.974-57.686.001-.001.003-.001.004-.002-.502-.358-.996-.726-1.501-1.08 58.519-34.217 130.982-35.493 190.599-2.979 2.868 1.565 4.884 4.176 5.675 7.352.791 3.184.232 6.445-1.573 9.18z"/><path d="m180.045 222.984c-2.556 0-5.074-1.204-6.631-3.439l-18.205-26.147c-1.852-2.659-1.954-6.027-.265-8.788 1.699-2.777 4.764-4.232 7.998-3.788 14.472 1.975 28.37 6.38 41.309 13.093 2.554 1.325 4.177 3.829 4.343 6.698.165 2.863-1.155 5.531-3.532 7.136l-20.534 13.867c-1.37.925-2.933 1.368-4.483 1.368zm-18.185-34.237-.108.073 18.227 26.153 20.606-13.854-.018-.104c-12.123-6.289-25.146-10.417-38.707-12.268z"/><path d="m224.281 279.873c-4.454 0-8.846-2.099-11.56-5.996l-15.835-22.743c-2.165-3.106-2.975-6.869-2.281-10.593s2.805-6.941 5.944-9.061l13.817-9.331c4.773-3.226 10.936-3.23 15.698-.018 9.029 6.087 17.182 13.391 24.23 21.708 2.541 2.998 3.689 6.963 3.15 10.878-.546 3.961-2.759 7.516-6.071 9.752l-19.278 13.018c-2.385 1.613-5.112 2.386-7.814 2.386zm-2.046-52.139c-1.179 0-2.36.348-3.392 1.045l-13.817 9.33c-1.35.912-2.258 2.296-2.556 3.897-.299 1.602.05 3.219.98 4.556l15.835 22.742c1.878 2.695 5.616 3.39 8.334 1.554l19.278-13.02c1.431-.966 2.387-2.502 2.623-4.214.232-1.69-.239-3.329-1.329-4.614-6.574-7.758-14.178-14.569-22.599-20.247-1.018-.686-2.186-1.029-3.357-1.029z"/><path d="m119.847 252.426c-1.129 0-2.266-.113-3.398-.343-4.479-.907-8.318-3.517-10.812-7.348l-19.589-30.1c-2.915-4.479-3.391-10.086-1.273-15.001 2.099-4.869 6.452-8.342 11.647-9.288 7.676-1.399 15.537-2.072 23.453-2.02 5.5.041 10.655 2.752 13.79 7.253l14.342 20.598c2.606 3.744 3.582 8.274 2.746 12.759-.836 4.484-3.378 8.359-7.158 10.913l-14.327 9.675c-2.829 1.912-6.087 2.902-9.421 2.902zm-.919-56.103c-7.09 0-14.174.637-21.071 1.895-2.594.472-4.684 2.143-5.734 4.582-1.071 2.486-.842 5.21.631 7.473l19.589 30.1c1.313 2.018 3.336 3.393 5.695 3.871 2.358.475 4.757-.001 6.754-1.349l14.326-9.674c1.991-1.346 3.331-3.388 3.771-5.75.439-2.362-.074-4.749-1.446-6.722l-14.342-20.597c-1.653-2.374-4.377-3.804-7.285-3.825h-.001c-.295-.002-.591-.004-.887-.004z"/><path d="m260.806 335.024c-.639 0-1.282-.062-1.923-.187-2.613-.509-4.869-2.006-6.355-4.215l-19.465-28.957c-1.518-2.258-2.041-4.966-1.474-7.626s2.15-4.919 4.457-6.36l25.646-16.027c2.308-1.441 5.143-1.873 7.772-1.19 2.642.686 4.913 2.452 6.23 4.844 6.195 11.243 10.493 23.327 12.774 35.915.703 3.875-.956 7.807-4.229 10.016l-17.89 12.08h.001c-1.66 1.123-3.58 1.707-5.544 1.707zm6.15-56.882c-.296 0-.656.066-1.022.295l-25.646 16.027c-.609.38-.809.943-.873 1.245s-.112.897.288 1.494l19.465 28.957c.393.583.948.768 1.245.825.296.057.881.095 1.463-.298h.001l17.89-12.081c.643-.436.971-1.203.834-1.959-2.127-11.733-6.134-22.998-11.909-33.48-.359-.651-.929-.883-1.236-.963-.125-.031-.298-.062-.5-.062z"/><path d="m295.441 381.732c-3.494 0-6.812-1.69-8.874-4.651l-11.104-15.948c-1.673-2.401-2.298-5.309-1.762-8.186s2.167-5.363 4.593-7.001l12.529-8.462c3.298-2.226 7.395-2.49 10.959-.704 3.531 1.768 5.753 5.169 5.943 9.098.432 8.914-.088 17.912-1.544 26.746-.724 4.389-3.991 7.858-8.326 8.838-.805.182-1.615.27-2.414.27zm-.142-37.618-12.529 8.462c-.637.431-1.065 1.083-1.205 1.838-.141.754.023 1.517.462 2.147l11.104 15.948c.987 1.418 2.398 1.276 2.959 1.15.441-.101 1.905-.565 2.198-2.337 1.363-8.276 1.851-16.707 1.446-25.058-.07-1.446-1.097-2.112-1.535-2.332-.454-.226-1.643-.663-2.9.182z"/><path d="m248.74 456.351c-.05 0-.1 0-.15-.001-5.33-.049-10.248-2.747-13.156-7.216l-18.323-28.154c-5.938-9.124-3.429-21.504 5.592-27.597l12.552-8.476c9.046-6.113 21.482-3.794 27.72 5.166l10.176 14.616c3.795 5.448 4.643 12.436 2.267 18.691-3.484 9.173-8.021 17.908-13.48 25.965-2.98 4.394-7.905 7.006-13.198 7.006zm-24.924-39.735 18.323 28.154c1.465 2.25 3.843 3.555 6.526 3.58h.078c2.672 0 5.063-1.27 6.569-3.493 5.113-7.543 9.36-15.725 12.625-24.318 1.437-3.782.932-7.999-1.353-11.278l-10.176-14.616c-3.753-5.388-11.235-6.786-16.679-3.107l-12.551 8.475c-5.425 3.665-6.935 11.114-3.362 16.603z"/><path d="m201.995 381.729c-1.155 0-2.318-.116-3.479-.351-4.582-.929-8.51-3.599-11.059-7.518l-13.049-20.051c-5.115-7.858-2.954-18.522 4.817-23.769l12.686-8.567c7.789-5.264 18.501-3.267 23.875 4.451l13.669 19.63c2.667 3.831 3.665 8.468 2.81 13.056-.855 4.587-3.457 8.552-7.324 11.164l-13.306 8.985c-2.896 1.958-6.229 2.97-9.64 2.97zm-5.607-53.626-12.686 8.567c-4.177 2.821-5.338 8.553-2.589 12.776l13.049 20.051c1.371 2.106 3.481 3.541 5.944 4.04 2.465.499 4.969 0 7.052-1.407l13.306-8.985c2.078-1.404 3.477-3.535 3.936-6.001.46-2.466-.076-4.958-1.51-7.017l-13.669-19.63c-2.888-4.148-8.642-5.221-12.833-2.394z"/><path d="m161.925 317.764c-1.227 0-2.464-.123-3.695-.373-4.872-.987-9.049-3.825-11.76-7.992l-11.905-18.294c-5.438-8.354-3.14-19.69 5.121-25.269l12.577-8.494-.001.001c8.284-5.598 19.673-3.473 25.383 4.731l12.472 17.91c2.836 4.072 3.896 9.001 2.986 13.878-.909 4.878-3.674 9.093-7.786 11.87l-13.144 8.875c-3.078 2.079-6.621 3.157-10.248 3.157zm.6-55.557c-2.001 0-4.018.571-5.784 1.765l-.001.001-12.577 8.493c-4.667 3.151-5.964 9.556-2.893 14.275l11.905 18.294c1.532 2.354 3.892 3.957 6.644 4.516 2.748.554 5.55-.002 7.878-1.572l13.144-8.876c2.322-1.569 3.885-3.95 4.398-6.706.514-2.756-.085-5.54-1.687-7.841l-12.472-17.91c-2.009-2.885-5.26-4.439-8.555-4.439z"/></g></g></svg>