<svg id="Capa_1" enable-background="new 0 0 511.375 511.375" height="512" viewBox="0 0 511.375 511.375" width="512" xmlns="http://www.w3.org/2000/svg"><g><path d="m401.9 112.571h-3.747c-8.801-17.157-25.982-29.307-46.141-31.053.052-1.136.086-2.276.086-3.424 0-40.905-33.16-74.064-74.064-74.064-29.511 0-54.984 17.264-66.889 42.238-8.876-3.762-18.636-5.845-28.883-5.845-40.272 0-73.013 32.149-74.016 72.179-13.534.641-24.31 11.815-24.31 25.508 0 14.105 11.434 25.539 25.539 25.539h12.529l18.646 327.043c.532 9.332 9.1 16.654 19.49 16.654h184.455c10.362 0 18.917-7.283 19.486-16.59l18.76-307.108c6.705-5.36 12.188-12.185 15.951-19.998h3.107c14.105 0 25.539-11.434 25.539-25.539.001-14.106-11.433-25.54-25.538-25.54z" fill="#f9fbfc"/><g fill="#eaa895"><path d="m377.572 228.157c-1.702 0-3.082 1.38-3.082 3.083 0 1.702 1.38 3.082 3.082 3.082.882 0 1.671-.375 2.233-.968l.241-3.937c-.561-.76-1.456-1.26-2.474-1.26z"/><path d="m374.49 251.111c0 1.703 1.38 3.083 3.082 3.083.341 0 .664-.069.971-.171l.348-5.687c-.401-.191-.845-.306-1.318-.306-1.703-.001-3.083 1.379-3.083 3.081z"/><path d="m358.709 232.064c-1.232.335-2.455.567-3.669.707.533.923 1.518 1.551 2.66 1.551 1.649 0 2.985-1.299 3.067-2.928-.672.245-1.352.478-2.058.67z"/><path d="m368.011 237.719c-1.702 0-3.082 1.38-3.082 3.083 0 1.702 1.38 3.082 3.082 3.082s3.082-1.38 3.082-3.082c0-1.703-1.38-3.083-3.082-3.083z"/><path d="m357.701 248.029c-1.702 0-3.082 1.38-3.082 3.082 0 1.703 1.38 3.083 3.082 3.083s3.082-1.38 3.082-3.083c0-1.702-1.38-3.082-3.082-3.082z"/><path d="m368.011 257.59c-1.702 0-3.082 1.38-3.082 3.082 0 1.703 1.38 3.083 3.082 3.083s3.082-1.38 3.082-3.083c0-1.702-1.38-3.082-3.082-3.082z"/><path d="m357.701 267.9c-1.702 0-3.082 1.38-3.082 3.083 0 1.702 1.38 3.082 3.082 3.082s3.082-1.38 3.082-3.082c0-1.703-1.38-3.083-3.082-3.083z"/><path d="m368.011 277.462c-1.702 0-3.082 1.379-3.082 3.082 0 1.702 1.38 3.082 3.082 3.082s3.082-1.38 3.082-3.082c0-1.703-1.38-3.082-3.082-3.082z"/><path d="m357.701 287.771c-1.702 0-3.082 1.38-3.082 3.082 0 1.703 1.38 3.083 3.082 3.083s3.082-1.38 3.082-3.083c0-1.702-1.38-3.082-3.082-3.082z"/><path d="m368.011 297.333c-1.702 0-3.082 1.38-3.082 3.082 0 1.703 1.38 3.082 3.082 3.082s3.082-1.38 3.082-3.082-1.38-3.082-3.082-3.082z"/><path d="m357.701 307.642c-1.702 0-3.082 1.38-3.082 3.083 0 1.702 1.38 3.082 3.082 3.082s3.082-1.38 3.082-3.082c0-1.703-1.38-3.083-3.082-3.083z"/><path d="m368.011 317.204c-1.702 0-3.082 1.38-3.082 3.083 0 1.702 1.38 3.082 3.082 3.082s3.082-1.38 3.082-3.082c0-1.703-1.38-3.083-3.082-3.083z"/><path d="m357.701 327.514c-1.702 0-3.082 1.38-3.082 3.082s1.38 3.082 3.082 3.082 3.082-1.38 3.082-3.082-1.38-3.082-3.082-3.082z"/><path d="m368.011 337.075c-1.702 0-3.082 1.38-3.082 3.082 0 1.703 1.38 3.082 3.082 3.082s3.082-1.38 3.082-3.082-1.38-3.082-3.082-3.082z"/><path d="m357.701 347.385c-1.702 0-3.082 1.38-3.082 3.083 0 1.702 1.38 3.082 3.082 3.082s3.082-1.38 3.082-3.082c0-1.703-1.38-3.083-3.082-3.083z"/><path d="m368.011 356.946c-1.702 0-3.082 1.38-3.082 3.083 0 1.702 1.38 3.082 3.082 3.082s3.082-1.38 3.082-3.082c0-1.703-1.38-3.083-3.082-3.083z"/><path d="m357.701 367.256c-1.702 0-3.082 1.38-3.082 3.082 0 1.703 1.38 3.083 3.082 3.083s3.082-1.38 3.082-3.083c0-1.702-1.38-3.082-3.082-3.082z"/><path d="m368.011 376.818c-1.702 0-3.082 1.38-3.082 3.082 0 1.703 1.38 3.083 3.082 3.083 1.217 0 2.259-.712 2.76-1.736l.143-2.342c-.416-1.211-1.551-2.087-2.903-2.087z"/><path d="m357.701 387.127c-1.702 0-3.082 1.38-3.082 3.083 0 1.702 1.38 3.082 3.082 3.082s3.082-1.38 3.082-3.082c0-1.703-1.38-3.083-3.082-3.083z"/><path d="m364.928 399.772c0 1.702 1.38 3.082 3.082 3.082.533 0 1.027-.148 1.464-.386l.318-5.204c-.504-.358-1.116-.575-1.782-.575-1.702 0-3.082 1.38-3.082 3.083z"/><path d="m357.701 406.999c-1.702 0-3.082 1.38-3.082 3.082s1.38 3.082 3.082 3.082 3.082-1.38 3.082-3.082-1.38-3.082-3.082-3.082z"/><path d="m357.701 426.87c-1.702 0-3.082 1.38-3.082 3.083 0 1.702 1.38 3.082 3.082 3.082s3.082-1.38 3.082-3.082c0-1.703-1.38-3.083-3.082-3.083z"/><path d="m357.701 446.741c-1.702 0-3.082 1.38-3.082 3.082 0 1.703 1.38 3.083 3.082 3.083s3.082-1.38 3.082-3.083c0-1.702-1.38-3.082-3.082-3.082z"/><path d="m357.701 466.612c-1.702 0-3.082 1.38-3.082 3.083 0 1.702 1.38 3.082 3.082 3.082s3.082-1.38 3.082-3.082c0-1.703-1.38-3.083-3.082-3.083z"/><path d="m357.701 486.484c-1.702 0-3.082 1.38-3.082 3.082s1.38 3.082 3.082 3.082 3.082-1.38 3.082-3.082-1.38-3.082-3.082-3.082z"/><path d="m348.139 297.333c-.195 0-.385.023-.57.058-.176 1.962-.366 3.923-.572 5.883.354.142.738.224 1.142.224 1.702 0 3.082-1.38 3.082-3.082.001-1.703-1.379-3.083-3.082-3.083z"/><path d="m348.139 317.204c-1.702 0-3.082 1.38-3.082 3.083 0 1.702 1.38 3.082 3.082 3.082s3.082-1.38 3.082-3.082c.001-1.703-1.379-3.083-3.082-3.083z"/><path d="m348.139 337.075c-1.702 0-3.082 1.38-3.082 3.082 0 1.703 1.38 3.082 3.082 3.082s3.082-1.38 3.082-3.082c.001-1.702-1.379-3.082-3.082-3.082z"/><path d="m348.139 356.946c-1.702 0-3.082 1.38-3.082 3.083 0 1.702 1.38 3.082 3.082 3.082s3.082-1.38 3.082-3.082c.001-1.703-1.379-3.083-3.082-3.083z"/><path d="m348.139 376.818c-1.702 0-3.082 1.38-3.082 3.082 0 1.703 1.38 3.083 3.082 3.083s3.082-1.38 3.082-3.083c.001-1.702-1.379-3.082-3.082-3.082z"/><path d="m348.139 396.689c-1.702 0-3.082 1.38-3.082 3.083 0 1.702 1.38 3.082 3.082 3.082s3.082-1.38 3.082-3.082c.001-1.703-1.379-3.083-3.082-3.083z"/><path d="m348.139 416.56c-1.702 0-3.082 1.38-3.082 3.082 0 1.703 1.38 3.083 3.082 3.083s3.082-1.38 3.082-3.083c.001-1.702-1.379-3.082-3.082-3.082z"/><path d="m348.139 436.431c-1.702 0-3.082 1.38-3.082 3.083 0 1.702 1.38 3.082 3.082 3.082s3.082-1.38 3.082-3.082c.001-1.703-1.379-3.083-3.082-3.083z"/><path d="m348.139 456.303c-1.702 0-3.082 1.38-3.082 3.082 0 1.703 1.38 3.083 3.082 3.083s3.082-1.38 3.082-3.083c.001-1.702-1.379-3.082-3.082-3.082z"/><path d="m337.83 466.612c-1.004 0-1.886.487-2.449 1.229v3.475h-.162c.544.874 1.506 1.461 2.611 1.461 1.702 0 3.082-1.38 3.082-3.082 0-1.703-1.38-3.083-3.082-3.083z"/><path d="m348.139 476.174c-1.702 0-3.082 1.38-3.082 3.083 0 1.702 1.38 3.082 3.082 3.082s3.082-1.38 3.082-3.082c.001-1.703-1.379-3.083-3.082-3.083z"/><path d="m337.83 486.484c-1.702 0-3.082 1.38-3.082 3.082s1.38 3.082 3.082 3.082 3.082-1.38 3.082-3.082-1.38-3.082-3.082-3.082z"/><path d="m348.139 502.21c1.702 0 3.082-1.379 3.082-3.082 0-1.702-1.38-3.082-3.082-3.082s-3.082 1.38-3.082 3.082 1.38 3.082 3.082 3.082z"/><path d="m328.268 476.174c-1.702 0-3.082 1.38-3.082 3.083 0 1.702 1.38 3.082 3.082 3.082s3.082-1.38 3.082-3.082c.001-1.703-1.38-3.083-3.082-3.083z"/><path d="m317.959 486.484c-1.702 0-3.082 1.38-3.082 3.082s1.38 3.082 3.082 3.082 3.082-1.38 3.082-3.082-1.38-3.082-3.082-3.082z"/><path d="m328.268 496.045c-1.702 0-3.082 1.38-3.082 3.082 0 1.703 1.38 3.082 3.082 3.082s3.082-1.379 3.082-3.082c.001-1.702-1.38-3.082-3.082-3.082z"/><path d="m305.34 479.508c.13 1.583 1.441 2.831 3.057 2.831 1.628 0 2.947-1.266 3.06-2.865-2.029.09-4.071.091-6.117.034z"/><path d="m308.397 496.045c-1.702 0-3.082 1.38-3.082 3.082 0 1.703 1.38 3.082 3.082 3.082s3.082-1.379 3.082-3.082c0-1.702-1.38-3.082-3.082-3.082z"/><path d="m298.076 486.45c-1.702 0-3.082 1.38-3.082 3.082 0 1.703 1.38 3.082 3.082 3.082s3.082-1.38 3.082-3.082-1.38-3.082-3.082-3.082z"/></g><path d="m330.066 217.701c-2.552-4.851-4.29-11.138-4.075-16.646.085-2.188.784-4.372 2.016-5.974-13.706-5.653-26.096-14.119-33.41-26.381v28.327h-2.856c-.722 6.088-4.87 11.167-12.199 12.653-9.845 1.996-18.373-3.396-20.702-12.653h-2.628v-36.071h-16.042c-2.658 2.995-5.46 5.852-8.534 8.423-6.913 5.781-14.719 9.867-23.042 13.233-10.684 4.321-21.69 7.453-33.338 6.807-7.792-.432-15.239-2.396-22.242-5.516l15.076 279.887c.403 7.489 6.898 13.363 14.774 13.363h139.824c7.855 0 14.34-5.844 14.771-13.311l13.59-235.488c-8.116.824-17.091-3.255-20.983-10.653z" fill="#e9c278"/><g fill="#f9fbfc"><g><path d="m337.83 228.157c-1.702 0-3.082 1.38-3.082 3.083 0 1.702 1.38 3.082 3.082 3.082s3.082-1.38 3.082-3.082c0-1.703-1.38-3.083-3.082-3.083z"/><path d="m348.139 237.719c-1.702 0-3.082 1.38-3.082 3.083 0 1.702 1.38 3.082 3.082 3.082.795 0 1.513-.309 2.06-.804l.248-4.302c-.565-.644-1.384-1.059-2.308-1.059z"/><path d="m337.83 248.029c-1.702 0-3.082 1.38-3.082 3.082 0 1.703 1.38 3.083 3.082 3.083s3.082-1.38 3.082-3.083c0-1.702-1.38-3.082-3.082-3.082z"/><path d="m337.83 267.9c-1.702 0-3.082 1.38-3.082 3.083 0 1.702 1.38 3.082 3.082 3.082s3.082-1.38 3.082-3.082c0-1.703-1.38-3.083-3.082-3.083z"/><path d="m337.83 287.771c-1.702 0-3.082 1.38-3.082 3.082 0 1.703 1.38 3.083 3.082 3.083s3.082-1.38 3.082-3.083c0-1.702-1.38-3.082-3.082-3.082z"/><path d="m337.83 307.642c-1.702 0-3.082 1.38-3.082 3.083 0 1.702 1.38 3.082 3.082 3.082s3.082-1.38 3.082-3.082c0-1.703-1.38-3.083-3.082-3.083z"/><path d="m337.83 327.514c-1.702 0-3.082 1.38-3.082 3.082s1.38 3.082 3.082 3.082 3.082-1.38 3.082-3.082-1.38-3.082-3.082-3.082z"/><path d="m337.83 347.385c-1.702 0-3.082 1.38-3.082 3.083 0 1.702 1.38 3.082 3.082 3.082s3.082-1.38 3.082-3.082c0-1.703-1.38-3.083-3.082-3.083z"/><path d="m337.83 367.256c-1.702 0-3.082 1.38-3.082 3.082 0 1.703 1.38 3.083 3.082 3.083s3.082-1.38 3.082-3.083c0-1.702-1.38-3.082-3.082-3.082z"/><path d="m337.83 387.127c-1.702 0-3.082 1.38-3.082 3.083 0 1.702 1.38 3.082 3.082 3.082s3.082-1.38 3.082-3.082c0-1.703-1.38-3.083-3.082-3.083z"/><path d="m337.83 406.999c-1.702 0-3.082 1.38-3.082 3.082s1.38 3.082 3.082 3.082c1.128 0 2.104-.612 2.641-1.516l.163-2.831c-.483-1.07-1.554-1.817-2.804-1.817z"/><path d="m334.747 429.953c0 1.702 1.38 3.082 3.082 3.082.518 0 .999-.14 1.428-.366l.304-5.265c-.494-.336-1.09-.534-1.732-.534-1.702 0-3.082 1.38-3.082 3.083z"/><path d="m317.959 188.415c-1.702 0-3.082 1.38-3.082 3.083 0 1.702 1.38 3.082 3.082 3.082s3.082-1.38 3.082-3.082c0-1.703-1.38-3.083-3.082-3.083z"/><path d="m317.959 208.286c-1.702 0-3.082 1.38-3.082 3.082 0 1.703 1.38 3.083 3.082 3.083s3.082-1.38 3.082-3.083c0-1.702-1.38-3.082-3.082-3.082z"/><path d="m328.268 217.848c-1.702 0-3.082 1.38-3.082 3.082 0 1.703 1.38 3.083 3.082 3.083s3.082-1.38 3.082-3.083c.001-1.702-1.38-3.082-3.082-3.082z"/><path d="m317.959 228.157c-1.702 0-3.082 1.38-3.082 3.083 0 1.702 1.38 3.082 3.082 3.082s3.082-1.38 3.082-3.082c0-1.703-1.38-3.083-3.082-3.083z"/><path d="m328.268 237.719c-1.702 0-3.082 1.38-3.082 3.083 0 1.702 1.38 3.082 3.082 3.082s3.082-1.38 3.082-3.082c.001-1.703-1.38-3.083-3.082-3.083z"/><path d="m317.959 248.029c-1.702 0-3.082 1.38-3.082 3.082 0 1.703 1.38 3.083 3.082 3.083s3.082-1.38 3.082-3.083c0-1.702-1.38-3.082-3.082-3.082z"/><path d="m328.268 257.59c-1.702 0-3.082 1.38-3.082 3.082 0 1.703 1.38 3.083 3.082 3.083s3.082-1.38 3.082-3.083c.001-1.702-1.38-3.082-3.082-3.082z"/><path d="m317.959 267.9c-1.702 0-3.082 1.38-3.082 3.083 0 1.702 1.38 3.082 3.082 3.082s3.082-1.38 3.082-3.082c0-1.703-1.38-3.083-3.082-3.083z"/><path d="m328.268 277.462c-1.702 0-3.082 1.379-3.082 3.082 0 1.702 1.38 3.082 3.082 3.082s3.082-1.38 3.082-3.082c.001-1.703-1.38-3.082-3.082-3.082z"/><path d="m317.959 287.771c-1.702 0-3.082 1.38-3.082 3.082 0 1.703 1.38 3.083 3.082 3.083s3.082-1.38 3.082-3.083c0-1.702-1.38-3.082-3.082-3.082z"/><path d="m308.442 297.288c-1.702 0-3.082 1.38-3.082 3.082 0 1.703 1.38 3.083 3.082 3.083s3.082-1.38 3.082-3.083c0-1.702-1.38-3.082-3.082-3.082z"/><path d="m308.352 317.218c-1.702 0-3.082 1.38-3.082 3.082 0 1.703 1.38 3.083 3.082 3.083s3.082-1.38 3.082-3.083c.001-1.702-1.379-3.082-3.082-3.082z"/><path d="m328.268 297.333c-1.702 0-3.082 1.38-3.082 3.082 0 1.703 1.38 3.082 3.082 3.082s3.082-1.38 3.082-3.082c.001-1.702-1.38-3.082-3.082-3.082z"/><path d="m317.959 307.642c-1.702 0-3.082 1.38-3.082 3.083 0 1.702 1.38 3.082 3.082 3.082s3.082-1.38 3.082-3.082c0-1.703-1.38-3.083-3.082-3.083z"/><path d="m328.268 317.204c-1.702 0-3.082 1.38-3.082 3.083 0 1.702 1.38 3.082 3.082 3.082s3.082-1.38 3.082-3.082c.001-1.703-1.38-3.083-3.082-3.083z"/><path d="m317.959 327.514c-1.702 0-3.082 1.38-3.082 3.082s1.38 3.082 3.082 3.082 3.082-1.38 3.082-3.082-1.38-3.082-3.082-3.082z"/><path d="m328.268 337.075c-1.702 0-3.082 1.38-3.082 3.082 0 1.703 1.38 3.082 3.082 3.082s3.082-1.38 3.082-3.082c.001-1.702-1.38-3.082-3.082-3.082z"/><path d="m317.959 347.385c-1.702 0-3.082 1.38-3.082 3.083 0 1.702 1.38 3.082 3.082 3.082s3.082-1.38 3.082-3.082c0-1.703-1.38-3.083-3.082-3.083z"/><path d="m328.268 356.946c-1.702 0-3.082 1.38-3.082 3.083 0 1.702 1.38 3.082 3.082 3.082s3.082-1.38 3.082-3.082c.001-1.703-1.38-3.083-3.082-3.083z"/><path d="m317.959 367.256c-1.702 0-3.082 1.38-3.082 3.082 0 1.703 1.38 3.083 3.082 3.083s3.082-1.38 3.082-3.083c0-1.702-1.38-3.082-3.082-3.082z"/><path d="m328.268 376.818c-1.702 0-3.082 1.38-3.082 3.082 0 1.703 1.38 3.083 3.082 3.083s3.082-1.38 3.082-3.083c.001-1.702-1.38-3.082-3.082-3.082z"/><path d="m317.959 387.127c-1.702 0-3.082 1.38-3.082 3.083 0 1.702 1.38 3.082 3.082 3.082s3.082-1.38 3.082-3.082c0-1.703-1.38-3.083-3.082-3.083z"/><path d="m328.268 396.689c-1.702 0-3.082 1.38-3.082 3.083 0 1.702 1.38 3.082 3.082 3.082s3.082-1.38 3.082-3.082c.001-1.703-1.38-3.083-3.082-3.083z"/><path d="m317.959 406.999c-1.702 0-3.082 1.38-3.082 3.082s1.38 3.082 3.082 3.082 3.082-1.38 3.082-3.082-1.38-3.082-3.082-3.082z"/><path d="m328.268 416.56c-1.702 0-3.082 1.38-3.082 3.082 0 1.703 1.38 3.083 3.082 3.083s3.082-1.38 3.082-3.083c.001-1.702-1.38-3.082-3.082-3.082z"/><path d="m317.959 426.87c-1.702 0-3.082 1.38-3.082 3.083 0 1.702 1.38 3.082 3.082 3.082s3.082-1.38 3.082-3.082c0-1.703-1.38-3.083-3.082-3.083z"/><path d="m328.268 436.431c-1.702 0-3.082 1.38-3.082 3.083 0 1.702 1.38 3.082 3.082 3.082s3.082-1.38 3.082-3.082c.001-1.703-1.38-3.083-3.082-3.083z"/><path d="m317.959 446.741c-1.702 0-3.082 1.38-3.082 3.082 0 1.703 1.38 3.083 3.082 3.083s3.082-1.38 3.082-3.083c0-1.702-1.38-3.082-3.082-3.082z"/><path d="m328.268 462.468c1.702 0 3.082-1.38 3.082-3.083 0-1.702-1.38-3.082-3.082-3.082s-3.082 1.38-3.082 3.082c0 1.703 1.38 3.083 3.082 3.083z"/><path d="m317.959 466.612c-1.702 0-3.082 1.38-3.082 3.083 0 1.702 1.38 3.082 3.082 3.082s3.082-1.38 3.082-3.082c0-1.703-1.38-3.083-3.082-3.083z"/><path d="m308.397 343.24c1.702 0 3.082-1.38 3.082-3.082s-1.38-3.082-3.082-3.082c-1.246 0-2.313.743-2.799 1.806l-.133 2.181c.388 1.257 1.547 2.177 2.932 2.177z"/><path d="m308.397 356.946c-1.702 0-3.082 1.38-3.082 3.083 0 1.702 1.38 3.082 3.082 3.082s3.082-1.38 3.082-3.082c0-1.703-1.38-3.083-3.082-3.083z"/><path d="m308.397 376.818c-1.702 0-3.082 1.38-3.082 3.082 0 1.703 1.38 3.083 3.082 3.083s3.082-1.38 3.082-3.083c0-1.702-1.38-3.082-3.082-3.082z"/><path d="m308.397 396.689c-1.702 0-3.082 1.38-3.082 3.083 0 1.702 1.38 3.082 3.082 3.082s3.082-1.38 3.082-3.082c0-1.703-1.38-3.083-3.082-3.083z"/><path d="m308.397 416.56c-1.702 0-3.082 1.38-3.082 3.082 0 1.703 1.38 3.083 3.082 3.083s3.082-1.38 3.082-3.083c0-1.702-1.38-3.082-3.082-3.082z"/><path d="m308.397 436.431c-1.702 0-3.082 1.38-3.082 3.083 0 1.702 1.38 3.082 3.082 3.082s3.082-1.38 3.082-3.082c0-1.703-1.38-3.083-3.082-3.083z"/><path d="m308.397 456.303c-1.702 0-3.082 1.38-3.082 3.082 0 1.703 1.38 3.083 3.082 3.083s3.082-1.38 3.082-3.083c0-1.702-1.38-3.082-3.082-3.082z"/></g><ellipse cx="201.917" cy="236.857" rx="13.244" ry="13.244" transform="matrix(.707 -.707 .707 .707 -108.343 212.151)"/><circle cx="262.119" cy="275.386" r="10.836"/><circle cx="241.65" cy="353.647" r="18.06"/></g><path d="m401.9 108.542h-1.342c-9.376-16.631-25.65-27.815-44.432-30.597-.081-42.992-35.081-77.945-78.092-77.945-28.688 0-55.298 16.04-68.821 41.171-8.613-3.171-17.662-4.777-26.951-4.777-20.511 0-39.884 7.893-54.55 22.226-13.793 13.48-21.998 31.25-23.327 50.359-13.989 2.413-24.478 14.568-24.478 29.132 0 16.304 13.264 29.568 29.568 29.568h8.946l18.43 323.243c.654 11.469 10.982 20.453 23.512 20.453h184.455c12.483 0 22.809-8.949 23.506-20.373l18.666-305.554c5.809-4.971 10.651-10.973 14.276-17.769h.634c16.304 0 29.568-13.264 29.568-29.568s-13.264-29.569-29.568-29.569zm-41.618 381.969c-.439 7.181-7.231 12.806-15.464 12.806h-184.455c-8.263 0-15.057-5.646-15.467-12.854l-18.318-321.285c6.543 6.657 14.163 12.03 22.469 15.94l15.022 278.891c.518 9.63 8.775 17.174 18.797 17.174h139.824c9.984 0 18.239-7.515 18.792-17.108l13.284-230.188c9.545-1.091 17.695-6.841 22.105-14.918zm-84.802-278.139c12.569 0 22.795-10.225 22.795-22.794v-13.307c6.318 8.226 14.62 14.728 24.255 18.904v9.976c0 14.332 10.479 26.258 24.176 28.533l-13.269 229.926c-.308 5.336-5.029 9.515-10.749 9.515h-139.824c-5.74 0-10.463-4.195-10.751-9.551l-14.819-275.13c7.969 2.696 16.391 4.136 24.968 4.136 21.681 0 42.409-9.053 57.163-24.901h13.261v21.899c0 12.568 10.226 22.794 22.794 22.794zm126.42-52.751h-3.107c-1.547 0-2.959.886-3.629 2.281-4.575 9.498-11.789 17.377-20.865 22.785-1.22.726-1.966 2.042-1.966 3.461v17.003c0 11.509-9.364 20.872-20.873 20.872s-20.872-9.363-20.872-20.872v-12.684c0-1.672-1.033-3.17-2.595-3.765-12.826-4.887-23.178-14.405-29.148-26.8-.671-1.395-2.082-2.281-3.63-2.281h-.97c-2.225 0-4.029 1.804-4.029 4.029v25.928c0 8.126-6.611 14.737-14.737 14.737-8.125 0-14.736-6.611-14.736-14.737v-25.928c0-2.225-1.804-4.029-4.029-4.029h-19.071c-1.151 0-2.247.493-3.012 1.353-13.291 14.965-32.379 23.548-52.369 23.548-19.981 0-39.066-8.583-52.362-23.548-.765-.861-1.861-1.353-3.012-1.353h-17.412c-11.861 0-21.511-9.649-21.511-21.51 0-11.503 8.993-20.94 20.472-21.484 2.109-.1 3.784-1.812 3.837-3.924.96-38.272 31.702-68.251 69.989-68.251 9.473 0 18.661 1.859 27.311 5.525 1.985.84 4.282-.03 5.209-1.976 11.566-24.265 36.394-39.943 63.252-39.943 38.617 0 70.035 31.418 70.035 70.036 0 .973-.026 2.033-.083 3.24-.098 2.159 1.524 4.012 3.677 4.198 18.408 1.595 34.447 12.391 42.905 28.879.69 1.345 2.073 2.19 3.584 2.19h3.748c11.861 0 21.51 9.649 21.51 21.511-.001 11.859-9.65 21.509-21.511 21.509z" fill="#31373d"/><path d="m208.361 117.621c-2.225 0-4.029-1.804-4.029-4.029 0-11.872-9.659-21.531-21.531-21.531s-21.531 9.659-21.531 21.531c0 2.225-1.804 4.029-4.029 4.029s-4.029-1.804-4.029-4.029c0-16.315 13.273-29.588 29.588-29.588s29.589 13.273 29.589 29.588c0 2.225-1.804 4.029-4.028 4.029z" fill="#31373d"/><path d="m276.938 79.501c-2.225 0-4.029-1.804-4.029-4.029 0-10.053-8.18-18.232-18.233-18.232s-18.232 8.179-18.232 18.232c0 2.225-1.804 4.029-4.029 4.029s-4.029-1.804-4.029-4.029c0-14.496 11.794-26.29 26.29-26.29s26.29 11.794 26.29 26.29c0 2.225-1.804 4.029-4.028 4.029z" fill="#31373d"/><path d="m333.438 132.536c-2.225 0-4.029-1.804-4.029-4.029 0-5.824-4.739-10.563-10.564-10.563s-10.563 4.738-10.563 10.563c0 2.225-1.804 4.029-4.029 4.029s-4.029-1.804-4.029-4.029c0-10.267 8.353-18.62 18.62-18.62 10.268 0 18.621 8.353 18.621 18.62.002 2.225-1.802 4.029-4.027 4.029z" fill="#31373d"/></g></svg>