<svg id="Capa_1" enable-background="new 0 0 508.623 508.623" height="512" viewBox="0 0 508.623 508.623" width="512" xmlns="http://www.w3.org/2000/svg"><g><path d="m51.598 239.315c-2.62 7.794-4.558 15.902-5.745 24.252h397.279c-.246-1.158-.507-2.311-.791-3.454 9.08-2.892 15.659-11.392 15.659-21.43 0-12.421-10.069-22.491-22.49-22.491-4.759 0-9.17 1.482-12.804 4.004-3.367-4.249-7.057-8.23-11.029-11.912.317-1.6.487-3.252.487-4.944 0-13.959-11.316-25.275-25.275-25.275-4.614 0-8.934 1.242-12.658 3.401.15-1.113.234-2.247.234-3.401 0-13.958-11.316-25.274-25.275-25.274s-25.275 11.316-25.275 25.274c0 1.138.083 2.255.228 3.354-13.568 2.059-26.29 6.693-37.642 13.407-9.425-11.203-20.61-20.876-33.13-28.591 1.016-2.865 1.573-5.947 1.573-9.16 0-15.142-12.275-27.417-27.417-27.417-11.75 0-21.77 7.394-25.671 17.781-6.623-.984-13.397-1.502-20.294-1.502-7.042 0-13.959.533-20.715 1.557-4.633-8.579-13.704-14.409-24.139-14.409-12.051 0-22.278 7.778-25.955 18.586-3.985-6.034-10.825-10.018-18.598-10.018-12.303 0-22.276 9.974-22.276 22.276 0 9.996 6.585 18.455 15.654 21.275-4.799 4.711-9.253 9.771-13.32 15.143-2.337-.832-4.852-1.29-7.474-1.29-12.303 0-22.276 9.974-22.276 22.277.003 7.385 3.6 13.928 9.135 17.981z" fill="#f9fbfc"/><path d="m260.559 259.242c-2.405-45.778-40.284-82.157-86.661-82.157s-84.256 36.379-86.661 82.157z" fill="#eaa895"/><path d="m469.415 243.426h-430.207c-11.821 0-21.403 9.583-21.403 21.403v31.296c0 10.601 7.715 19.378 17.832 21.081 14.559 54.498 29.497 109.113 43.882 163.745 3.671 13.941 16.25 23.672 30.666 23.672h287.738c14.089 0 26.479-9.303 30.443-22.823 16.104-54.933 30.881-109.849 44.964-164.646 9.949-1.841 17.489-10.547 17.489-21.029v-31.296c-.001-11.821-9.583-21.403-21.404-21.403z" fill="#e9c278"/><g fill="#f9fbfc"><path d="m450.784 322.028c-1.692 0-3.064 1.372-3.064 3.063 0 1.692 1.372 3.063 3.064 3.063s3.063-1.372 3.063-3.063c.001-1.691-1.371-3.063-3.063-3.063z"/><circle cx="461.031" cy="334.595" r="3.063"/><path d="m450.784 341.778c-1.692 0-3.064 1.372-3.064 3.063 0 1.692 1.372 3.063 3.064 3.063s3.063-1.372 3.063-3.063c.001-1.691-1.371-3.063-3.063-3.063z"/><path d="m461.031 351.281c-1.692 0-3.064 1.372-3.064 3.063 0 1.692 1.372 3.064 3.064 3.064.785 0 1.493-.304 2.035-.789.286-1.086.568-2.171.853-3.257-.411-1.207-1.542-2.081-2.888-2.081z"/><path d="m450.784 361.528c-1.692 0-3.064 1.371-3.064 3.063s1.372 3.063 3.064 3.063 3.063-1.372 3.063-3.063c.001-1.692-1.371-3.063-3.063-3.063z"/><path d="m450.784 381.278c-1.692 0-3.064 1.371-3.064 3.063s1.372 3.063 3.064 3.063 3.063-1.372 3.063-3.063c.001-1.692-1.371-3.063-3.063-3.063z"/><path d="m431.034 322.028c-1.692 0-3.064 1.372-3.064 3.063 0 1.692 1.372 3.063 3.064 3.063s3.063-1.372 3.063-3.063c.001-1.691-1.371-3.063-3.063-3.063z"/><circle cx="441.281" cy="334.595" r="3.063"/><path d="m431.034 341.778c-1.692 0-3.064 1.372-3.064 3.063 0 1.692 1.372 3.063 3.064 3.063s3.063-1.372 3.063-3.063c.001-1.691-1.371-3.063-3.063-3.063z"/><circle cx="441.281" cy="354.345" r="3.063"/><path d="m431.034 361.528c-1.692 0-3.064 1.371-3.064 3.063s1.372 3.063 3.064 3.063 3.063-1.372 3.063-3.063c.001-1.692-1.371-3.063-3.063-3.063z"/><circle cx="441.281" cy="374.095" r="3.063"/><path d="m431.034 381.278c-1.692 0-3.064 1.371-3.064 3.063s1.372 3.063 3.064 3.063 3.063-1.372 3.063-3.063c.001-1.692-1.371-3.063-3.063-3.063z"/><circle cx="441.281" cy="393.845" r="3.063"/><path d="m431.034 401.028c-1.692 0-3.064 1.371-3.064 3.063 0 1.691 1.372 3.063 3.064 3.063s3.063-1.372 3.063-3.063c.001-1.692-1.371-3.063-3.063-3.063z"/><circle cx="441.281" cy="413.595" r="3.063"/><path d="m431.034 420.778c-1.692 0-3.064 1.371-3.064 3.063 0 1.691 1.372 3.063 3.064 3.063s3.063-1.372 3.063-3.063c.001-1.692-1.371-3.063-3.063-3.063z"/><path d="m431.034 440.528c-1.692 0-3.064 1.372-3.064 3.064s1.372 3.063 3.064 3.063 3.063-1.371 3.063-3.063-1.371-3.064-3.063-3.064z"/><path d="m431.034 460.278c-1.692 0-3.064 1.372-3.064 3.064s1.372 3.063 3.064 3.063c.775 0 1.475-.297 2.015-.772.303-1.05.61-2.099.912-3.148-.373-1.273-1.534-2.207-2.927-2.207z"/><path d="m411.284 322.028c-1.692 0-3.064 1.372-3.064 3.063 0 1.692 1.372 3.063 3.064 3.063s3.064-1.372 3.064-3.063-1.372-3.063-3.064-3.063z"/><circle cx="421.531" cy="334.595" r="3.063"/><path d="m411.284 341.778c-1.692 0-3.064 1.372-3.064 3.063 0 1.692 1.372 3.063 3.064 3.063s3.064-1.372 3.064-3.063-1.372-3.063-3.064-3.063z"/><circle cx="421.531" cy="354.345" r="3.063"/><path d="m411.284 361.528c-1.692 0-3.064 1.371-3.064 3.063s1.372 3.063 3.064 3.063 3.064-1.372 3.064-3.063c0-1.692-1.372-3.063-3.064-3.063z"/><circle cx="421.531" cy="374.095" r="3.063"/><path d="m411.284 381.278c-1.692 0-3.064 1.371-3.064 3.063s1.372 3.063 3.064 3.063 3.064-1.372 3.064-3.063c0-1.692-1.372-3.063-3.064-3.063z"/><circle cx="421.531" cy="393.845" r="3.063"/><path d="m411.284 401.028c-1.692 0-3.064 1.371-3.064 3.063 0 1.691 1.372 3.063 3.064 3.063s3.064-1.372 3.064-3.063c0-1.692-1.372-3.063-3.064-3.063z"/><circle cx="421.531" cy="413.595" r="3.063"/><path d="m411.284 420.778c-1.692 0-3.064 1.371-3.064 3.063 0 1.691 1.372 3.063 3.064 3.063s3.064-1.372 3.064-3.063c0-1.692-1.372-3.063-3.064-3.063z"/><circle cx="421.531" cy="433.345" r="3.063"/><path d="m411.284 440.528c-1.692 0-3.064 1.372-3.064 3.064s1.372 3.063 3.064 3.063 3.064-1.371 3.064-3.063-1.372-3.064-3.064-3.064z"/><circle cx="421.531" cy="453.095" r="3.063"/><path d="m411.284 460.278c-1.692 0-3.064 1.372-3.064 3.064s1.372 3.063 3.064 3.063 3.064-1.371 3.064-3.063-1.372-3.064-3.064-3.064z"/><circle cx="421.531" cy="472.845" r="3.063"/><path d="m411.284 480.028c-1.692 0-3.064 1.372-3.064 3.064s1.372 3.063 3.064 3.063 3.064-1.371 3.064-3.063-1.372-3.064-3.064-3.064z"/><path d="m391.534 328.155c1.692 0 3.064-1.372 3.064-3.063 0-1.692-1.372-3.063-3.064-3.063s-3.064 1.372-3.064 3.063c.001 1.692 1.373 3.063 3.064 3.063z"/><circle cx="401.781" cy="334.595" r="3.063"/><path d="m391.534 347.905c1.692 0 3.064-1.372 3.064-3.063 0-1.692-1.372-3.063-3.064-3.063s-3.064 1.372-3.064 3.063c.001 1.692 1.373 3.063 3.064 3.063z"/><circle cx="401.781" cy="354.345" r="3.063"/><path d="m391.534 367.655c1.692 0 3.064-1.372 3.064-3.063 0-1.692-1.372-3.063-3.064-3.063s-3.064 1.371-3.064 3.063c.001 1.692 1.373 3.063 3.064 3.063z"/><circle cx="401.781" cy="374.095" r="3.063"/><circle cx="401.781" cy="393.845" r="3.063"/><circle cx="401.781" cy="413.595" r="3.063"/><path d="m391.574 420.739c-1.692 0-3.064 1.372-3.064 3.064s1.372 3.063 3.064 3.063 3.063-1.371 3.063-3.063-1.371-3.064-3.063-3.064z"/><circle cx="401.781" cy="433.345" r="3.063"/><path d="m391.534 440.528c-1.692 0-3.064 1.372-3.064 3.064s1.372 3.063 3.064 3.063 3.064-1.371 3.064-3.063-1.372-3.064-3.064-3.064z"/><circle cx="401.781" cy="453.095" r="3.063"/><path d="m391.534 460.278c-1.692 0-3.064 1.372-3.064 3.064s1.372 3.063 3.064 3.063 3.064-1.371 3.064-3.063-1.372-3.064-3.064-3.064z"/><circle cx="401.781" cy="472.845" r="3.063"/><path d="m391.534 480.028c-1.692 0-3.064 1.372-3.064 3.064s1.372 3.063 3.064 3.063 3.064-1.371 3.064-3.063-1.372-3.064-3.064-3.064z"/><circle cx="401.781" cy="492.595" r="3.063"/><path d="m371.784 322.028c-1.692 0-3.063 1.372-3.063 3.063 0 1.692 1.371 3.063 3.063 3.063s3.064-1.372 3.064-3.063-1.372-3.063-3.064-3.063z"/><path d="m382.031 331.531c-1.692 0-3.064 1.372-3.064 3.063 0 1.692 1.372 3.064 3.064 3.064s3.064-1.372 3.064-3.064c0-1.691-1.372-3.063-3.064-3.063z"/><path d="m371.784 347.905c1.692 0 3.064-1.372 3.064-3.063 0-1.692-1.371-3.063-3.064-3.063-1.692 0-3.063 1.372-3.063 3.063 0 1.692 1.372 3.063 3.063 3.063z"/><path d="m382.031 351.281c-1.692 0-3.064 1.372-3.064 3.063 0 1.692 1.372 3.064 3.064 3.064s3.064-1.372 3.064-3.064c0-1.691-1.372-3.063-3.064-3.063z"/><path d="m382.031 469.781c-1.692 0-3.064 1.372-3.064 3.063 0 1.692 1.372 3.064 3.064 3.064s3.064-1.372 3.064-3.064c0-1.691-1.372-3.063-3.064-3.063z"/><path d="m382.031 489.531c-1.692 0-3.064 1.372-3.064 3.063 0 1.692 1.372 3.064 3.064 3.064s3.064-1.372 3.064-3.064c0-1.691-1.372-3.063-3.064-3.063z"/><path d="m352.035 322.028c-1.692 0-3.063 1.372-3.063 3.063 0 1.692 1.371 3.063 3.063 3.063s3.064-1.372 3.064-3.063c-.001-1.691-1.373-3.063-3.064-3.063z"/><path d="m362.281 337.658c1.692 0 3.064-1.372 3.064-3.064s-1.372-3.063-3.064-3.063-3.064 1.372-3.064 3.063c.001 1.693 1.372 3.064 3.064 3.064z"/><path d="m352.035 341.778c-1.692 0-3.063 1.372-3.063 3.063 0 1.692 1.371 3.063 3.063 3.063s3.064-1.372 3.064-3.063c-.001-1.691-1.373-3.063-3.064-3.063z"/><path d="m362.281 357.408c1.692 0 3.064-1.372 3.064-3.064s-1.372-3.063-3.064-3.063-3.064 1.372-3.064 3.063c.001 1.693 1.372 3.064 3.064 3.064z"/><path d="m332.285 322.028c-1.692 0-3.063 1.372-3.063 3.063 0 1.692 1.372 3.063 3.063 3.063 1.692 0 3.064-1.372 3.064-3.063-.001-1.691-1.373-3.063-3.064-3.063z"/><path d="m342.531 331.531c-1.692 0-3.063 1.372-3.063 3.063 0 1.692 1.372 3.064 3.063 3.064 1.692 0 3.064-1.372 3.064-3.064 0-1.691-1.372-3.063-3.064-3.063z"/><path d="m332.285 341.778c-1.692 0-3.063 1.372-3.063 3.063 0 1.692 1.372 3.063 3.063 3.063 1.692 0 3.064-1.372 3.064-3.063-.001-1.691-1.373-3.063-3.064-3.063z"/><path d="m342.531 351.281c-1.692 0-3.063 1.372-3.063 3.063 0 1.692 1.372 3.064 3.063 3.064 1.692 0 3.064-1.372 3.064-3.064 0-1.691-1.372-3.063-3.064-3.063z"/><path d="m312.535 322.028c-1.692 0-3.063 1.372-3.063 3.063 0 1.692 1.372 3.063 3.063 3.063 1.692 0 3.064-1.372 3.064-3.063-.001-1.691-1.373-3.063-3.064-3.063z"/><circle cx="322.781" cy="334.595" r="3.063"/><path d="m312.535 341.778c-1.692 0-3.063 1.372-3.063 3.063 0 1.692 1.372 3.063 3.063 3.063 1.692 0 3.064-1.372 3.064-3.063-.001-1.691-1.373-3.063-3.064-3.063z"/><circle cx="322.781" cy="354.345" r="3.063"/><path d="m292.785 322.028c-1.692 0-3.063 1.372-3.063 3.063 0 1.692 1.371 3.063 3.063 3.063s3.064-1.372 3.064-3.063c-.001-1.691-1.373-3.063-3.064-3.063z"/><circle cx="303.031" cy="334.595" r="3.063"/><path d="m292.785 341.778c-1.692 0-3.063 1.372-3.063 3.063 0 1.692 1.371 3.063 3.063 3.063s3.064-1.372 3.064-3.063c-.001-1.691-1.373-3.063-3.064-3.063z"/><circle cx="303.031" cy="354.345" r="3.063"/><path d="m273.035 322.028c-1.692 0-3.063 1.372-3.063 3.063 0 1.692 1.372 3.063 3.063 3.063 1.692 0 3.064-1.372 3.064-3.063-.001-1.691-1.373-3.063-3.064-3.063z"/><circle cx="283.281" cy="334.595" r="3.063"/><path d="m273.035 341.778c-1.692 0-3.063 1.372-3.063 3.063 0 1.692 1.372 3.063 3.063 3.063 1.692 0 3.064-1.372 3.064-3.063-.001-1.691-1.373-3.063-3.064-3.063z"/><circle cx="283.281" cy="354.345" r="3.063"/><path d="m253.285 322.028c-1.692 0-3.063 1.372-3.063 3.063 0 1.692 1.372 3.063 3.063 3.063 1.692 0 3.063-1.372 3.063-3.063s-1.371-3.063-3.063-3.063z"/><path d="m263.531 331.531c-1.692 0-3.064 1.372-3.064 3.063 0 1.692 1.372 3.064 3.064 3.064s3.063-1.372 3.063-3.064c.001-1.691-1.371-3.063-3.063-3.063z"/><path d="m253.285 341.778c-1.692 0-3.063 1.372-3.063 3.063 0 1.692 1.372 3.063 3.063 3.063 1.692 0 3.063-1.372 3.063-3.063s-1.371-3.063-3.063-3.063z"/><path d="m263.531 351.281c-1.692 0-3.064 1.372-3.064 3.063 0 1.692 1.372 3.064 3.064 3.064s3.063-1.372 3.063-3.064c.001-1.691-1.371-3.063-3.063-3.063z"/><path d="m233.535 322.028c-1.692 0-3.063 1.372-3.063 3.063 0 1.692 1.372 3.063 3.063 3.063 1.692 0 3.064-1.372 3.064-3.063-.001-1.691-1.372-3.063-3.064-3.063z"/><path d="m243.781 331.531c-1.692 0-3.064 1.372-3.064 3.063 0 1.692 1.372 3.064 3.064 3.064s3.063-1.372 3.063-3.064c.001-1.691-1.371-3.063-3.063-3.063z"/><path d="m233.535 341.778c-1.692 0-3.063 1.372-3.063 3.063 0 1.692 1.372 3.063 3.063 3.063 1.692 0 3.064-1.372 3.064-3.063-.001-1.691-1.372-3.063-3.064-3.063z"/><path d="m243.781 351.281c-1.692 0-3.064 1.372-3.064 3.063 0 1.692 1.372 3.064 3.064 3.064s3.063-1.372 3.063-3.064c.001-1.691-1.371-3.063-3.063-3.063z"/><path d="m213.785 322.028c-1.692 0-3.063 1.372-3.063 3.063 0 1.692 1.372 3.063 3.063 3.063 1.692 0 3.064-1.372 3.064-3.063-.001-1.691-1.372-3.063-3.064-3.063z"/><circle cx="224.031" cy="334.595" r="3.064"/><path d="m213.785 341.778c-1.692 0-3.063 1.372-3.063 3.063 0 1.692 1.372 3.063 3.063 3.063 1.692 0 3.064-1.372 3.064-3.063-.001-1.691-1.372-3.063-3.064-3.063z"/><circle cx="224.031" cy="354.345" r="3.064"/><path d="m194.035 322.028c-1.692 0-3.063 1.372-3.063 3.063 0 1.692 1.372 3.063 3.063 3.063 1.692 0 3.064-1.372 3.064-3.063-.001-1.691-1.372-3.063-3.064-3.063z"/><circle cx="204.281" cy="334.595" r="3.064"/><path d="m194.035 341.778c-1.692 0-3.063 1.372-3.063 3.063 0 1.692 1.372 3.063 3.063 3.063 1.692 0 3.064-1.372 3.064-3.063-.001-1.691-1.372-3.063-3.064-3.063z"/><circle cx="204.281" cy="354.345" r="3.064"/><path d="m174.285 322.028c-1.692 0-3.064 1.372-3.064 3.063 0 1.692 1.372 3.063 3.064 3.063s3.063-1.372 3.063-3.063-1.371-3.063-3.063-3.063z"/><path d="m184.531 331.531c-1.692 0-3.064 1.372-3.064 3.063 0 1.692 1.372 3.064 3.064 3.064s3.064-1.372 3.064-3.064c0-1.691-1.372-3.063-3.064-3.063z"/><path d="m174.285 341.778c-1.692 0-3.064 1.372-3.064 3.063 0 1.692 1.372 3.063 3.064 3.063s3.063-1.372 3.063-3.063-1.371-3.063-3.063-3.063z"/><path d="m184.531 351.281c-1.692 0-3.064 1.372-3.064 3.063 0 1.692 1.372 3.064 3.064 3.064s3.064-1.372 3.064-3.064c0-1.691-1.372-3.063-3.064-3.063z"/><path d="m154.535 322.028c-1.692 0-3.063 1.372-3.063 3.063 0 1.692 1.372 3.063 3.063 3.063s3.063-1.372 3.063-3.063-1.371-3.063-3.063-3.063z"/><path d="m164.781 331.531c-1.692 0-3.063 1.372-3.063 3.063 0 1.692 1.372 3.064 3.063 3.064 1.692 0 3.064-1.372 3.064-3.064 0-1.691-1.372-3.063-3.064-3.063z"/><path d="m154.535 341.778c-1.692 0-3.063 1.372-3.063 3.063 0 1.692 1.372 3.063 3.063 3.063s3.063-1.372 3.063-3.063-1.371-3.063-3.063-3.063z"/><path d="m164.781 351.281c-1.692 0-3.063 1.372-3.063 3.063 0 1.692 1.372 3.064 3.063 3.064 1.692 0 3.064-1.372 3.064-3.064 0-1.691-1.372-3.063-3.064-3.063z"/><path d="m134.785 322.028c-1.692 0-3.063 1.372-3.063 3.063 0 1.692 1.372 3.063 3.063 3.063s3.063-1.372 3.063-3.063-1.371-3.063-3.063-3.063z"/><circle cx="145.032" cy="334.595" r="3.063"/><path d="m134.785 341.778c-1.692 0-3.063 1.372-3.063 3.063 0 1.692 1.372 3.063 3.063 3.063s3.063-1.372 3.063-3.063-1.371-3.063-3.063-3.063z"/><circle cx="145.032" cy="354.345" r="3.063"/><path d="m115.035 322.028c-1.692 0-3.063 1.372-3.063 3.063 0 1.692 1.372 3.063 3.063 3.063 1.692 0 3.063-1.372 3.063-3.063s-1.371-3.063-3.063-3.063z"/><circle cx="125.282" cy="334.595" r="3.063"/><path d="m115.035 341.778c-1.692 0-3.063 1.372-3.063 3.063 0 1.692 1.372 3.063 3.063 3.063 1.692 0 3.063-1.372 3.063-3.063s-1.371-3.063-3.063-3.063z"/><circle cx="125.282" cy="354.345" r="3.063"/><path d="m95.285 322.028c-1.692 0-3.063 1.372-3.063 3.063 0 1.692 1.372 3.063 3.063 3.063 1.692 0 3.063-1.372 3.063-3.063s-1.371-3.063-3.063-3.063z"/><circle cx="105.532" cy="334.595" r="3.063"/><path d="m95.285 341.778c-1.692 0-3.063 1.372-3.063 3.063 0 1.692 1.372 3.063 3.063 3.063 1.692 0 3.063-1.372 3.063-3.063s-1.371-3.063-3.063-3.063z"/><circle cx="105.532" cy="354.345" r="3.063"/><path d="m75.535 322.028c-1.692 0-3.063 1.372-3.063 3.063 0 1.692 1.372 3.063 3.063 3.063 1.692 0 3.063-1.372 3.063-3.063s-1.371-3.063-3.063-3.063z"/><path d="m85.782 331.531c-1.692 0-3.064 1.372-3.064 3.063 0 1.692 1.372 3.064 3.064 3.064s3.063-1.372 3.063-3.064c0-1.691-1.372-3.063-3.063-3.063z"/><path d="m75.535 341.778c-1.692 0-3.063 1.372-3.063 3.063 0 1.692 1.372 3.063 3.063 3.063 1.692 0 3.063-1.372 3.063-3.063s-1.371-3.063-3.063-3.063z"/><path d="m85.782 351.281c-1.692 0-3.064 1.372-3.064 3.063 0 1.692 1.372 3.064 3.064 3.064s3.063-1.372 3.063-3.064c0-1.691-1.372-3.063-3.063-3.063z"/><path d="m55.785 322.028c-1.692 0-3.063 1.372-3.063 3.063 0 1.692 1.371 3.063 3.063 3.063s3.063-1.372 3.063-3.063-1.371-3.063-3.063-3.063z"/><path d="m66.032 331.531c-1.692 0-3.064 1.372-3.064 3.063 0 1.692 1.372 3.064 3.064 3.064s3.063-1.372 3.063-3.064c0-1.691-1.372-3.063-3.063-3.063z"/><path d="m55.785 341.778c-1.692 0-3.063 1.372-3.063 3.063 0 1.692 1.371 3.063 3.063 3.063s3.063-1.372 3.063-3.063-1.371-3.063-3.063-3.063z"/><path d="m66.032 351.281c-1.692 0-3.064 1.372-3.064 3.063 0 1.692 1.372 3.064 3.064 3.064s3.063-1.372 3.063-3.064c0-1.691-1.372-3.063-3.063-3.063z"/><circle cx="46.282" cy="334.595" r="3.063"/></g><path d="m469.415 239.426h-7.442c.007-.248.027-.494.027-.743 0-14.606-11.883-26.49-26.49-26.49-4.168 0-8.216.965-11.886 2.814-2.409-2.848-4.977-5.586-7.669-8.182.138-1.158.208-2.323.208-3.484 0-16.142-13.133-29.274-29.275-29.274-2.907 0-5.789.434-8.548 1.277-.93-10.028-6.942-18.6-15.426-23.123l59.62-111.087c3.571-6.654 4.302-14.29 2.056-21.501s-7.182-13.082-13.899-16.531c-6.739-3.463-14.408-4.046-21.594-1.648-7.187 2.399-12.966 7.475-16.274 14.291l-84.094 173.267c-.448.239-.903.463-1.348.708-8.589-9.737-18.427-18.211-29.315-25.251.585-2.414.88-4.89.88-7.393 0-17.323-14.094-31.417-31.417-31.417-11.93 0-22.855 6.878-28.12 17.407-12.15-1.537-24.471-1.491-36.497.097-5.79-8.748-15.59-14.076-26.201-14.076-11.219 0-21.392 5.949-26.976 15.31-4.768-4.298-10.992-6.742-17.576-6.742-14.489 0-26.276 11.787-26.276 26.276 0 9.458 4.954 17.921 12.792 22.573-2.784 2.968-5.445 6.058-7.956 9.241-1.954-.457-3.954-.688-5.977-.688-14.489 0-26.276 11.787-26.276 26.276 0 6.761 2.65 13.247 7.242 18.093h-6.501c-14.007 0-25.403 11.396-25.403 25.403v31.296c0 11.649 7.884 21.484 18.595 24.468 5.436 20.335 10.917 40.67 16.282 60.568 8.908 33.035 18.119 67.195 26.97 100.809 4.132 15.693 18.333 26.653 34.534 26.653h287.738c15.749 0 29.846-10.567 34.281-25.698 14.389-49.082 28.689-101.381 44.406-162.441 10.513-3.11 18.209-12.85 18.209-24.358v-31.296c-.001-14.009-11.396-25.404-25.404-25.404zm-415.454-3.338c-4.693-3.437-7.496-8.952-7.496-14.755 0-10.077 8.199-18.276 18.276-18.276 2.097 0 4.16.356 6.132 1.059 1.643.585 3.477.037 4.531-1.354 3.925-5.184 8.277-10.131 12.933-14.704 1.004-.985 1.416-2.427 1.085-3.794-.331-1.368-1.356-2.462-2.7-2.879-7.681-2.388-12.841-9.402-12.841-17.455 0-10.077 8.199-18.276 18.276-18.276 6.155 0 11.86 3.073 15.26 8.222.842 1.274 2.336 1.954 3.848 1.764 1.514-.195 2.785-1.234 3.276-2.68 3.23-9.494 12.139-15.873 22.168-15.873 8.618 0 16.519 4.717 20.619 12.309.802 1.486 2.454 2.307 4.119 2.055 13.065-1.982 26.602-2.017 39.822-.053 1.864.277 3.669-.786 4.332-2.551 3.411-9.084 12.223-15.188 21.926-15.188 12.912 0 23.417 10.505 23.417 23.417 0 2.676-.452 5.308-1.343 7.823-.63 1.776.066 3.752 1.671 4.741 12.144 7.485 22.967 16.826 32.169 27.762 1.258 1.496 3.413 1.862 5.097.868 11.169-6.605 23.351-10.944 36.206-12.895 2.155-.327 3.652-2.32 3.365-4.48-.128-.968-.193-1.919-.193-2.827 0-11.732 9.544-21.275 21.275-21.275s21.275 9.544 21.275 21.275c0 .924-.067 1.889-.199 2.867-.204 1.514.472 3.01 1.74 3.859 1.27.848 2.911.901 4.231.135 3.228-1.872 6.911-2.861 10.65-2.861 11.731 0 21.275 9.544 21.275 21.274 0 1.392-.138 2.794-.41 4.166-.271 1.362.185 2.768 1.205 3.712 3.824 3.544 7.395 7.4 10.613 11.463 1.311 1.653 3.682 2.005 5.416.802 3.102-2.153 6.741-3.291 10.523-3.291 10.195 0 18.49 8.295 18.49 18.49 0 .251-.031.495-.041.743h-192.647c-10.701-38.219-45.824-66.341-87.414-66.341s-76.712 28.122-87.414 66.341h-30.893c.036-1.29-.55-2.549-1.63-3.339zm175.587 3.338c-9.429-21.387-30.816-36.361-55.65-36.361s-46.221 14.975-55.65 36.361h-23.407c10.454-33.746 41.921-58.341 79.057-58.341 37.137 0 68.603 24.595 79.057 58.341zm-8.874 0h-93.551c8.834-16.839 26.477-28.361 46.775-28.361 20.298-.001 37.941 11.522 46.776 28.361zm203.853 241.249c-3.443 11.745-14.383 19.948-26.604 19.948h-287.738c-12.57 0-23.589-8.508-26.797-20.69-8.857-33.636-18.071-67.808-26.982-100.855-5.1-18.914-10.304-38.225-15.475-57.551h427.148c-15.386 59.67-29.428 110.969-43.552 159.148zm62.291-184.55c0 9.596-7.807 17.402-17.403 17.402h-430.208c-9.596 0-17.403-7.807-17.403-17.402v-31.296c0-9.597 7.807-17.403 17.403-17.403h430.208c9.596 0 17.403 7.807 17.403 17.403z" fill="#31373d"/></g></svg>