<svg id="Capa_1" enable-background="new 0 0 511.828 511.828" height="512" viewBox="0 0 511.828 511.828" width="512" xmlns="http://www.w3.org/2000/svg"><g><g fill="#e9c278"><path d="m360.794 41.998c.493-9.162-6.535-16.989-15.697-17.482l-27.9-1.501c-9.162-.493-16.989 6.535-17.482 15.697l-13.219 245.686v-263.509c0-9.314-7.551-16.864-16.865-16.864h-27.437c-9.314 0-16.864 7.55-16.864 16.864v277.657l-13.98-259.834c-.493-9.162-8.32-16.19-17.482-15.697l-27.9 1.501c-9.162.493-16.19 8.32-15.697 17.482l18.927 351.798c.493 9.162 8.32 16.19 17.482 15.697l27.899-1.501c9.162-.493 16.19-8.32 15.697-17.482l-.337-6.253c3.075 3.257 7.421 5.301 12.253 5.301h27.437c4.426 0 8.441-1.718 11.449-4.507l-.294 5.459c-.493 9.162 6.535 16.989 15.697 17.482l27.9 1.501c9.162.493 16.989-6.535 17.482-15.697z"/><path d="m417.608 49.263-27.835-2.419c-9.141-.794-17.195 5.972-17.989 15.113l-30.498 350.984c-.794 9.141 5.972 17.194 15.113 17.989l27.835 2.419c9.141.794 17.195-5.972 17.989-15.113l30.498-350.984c.794-9.141-5.972-17.195-15.113-17.989z"/><path d="m139.283 61.957c-.794-9.141-8.848-15.907-17.989-15.113l-27.835 2.419c-9.141.794-15.907 8.848-15.113 17.989l30.498 350.984c.794 9.141 8.848 15.907 17.989 15.113l27.835-2.419c9.141-.794 15.907-8.848 15.113-17.989z"/></g><path d="m351.742 158.61v42.746c0 42.911-36.022 77.697-80.456 77.697h-30.743c-44.435 0-80.456-34.786-80.456-77.697v-42.746c0-11.583-9.723-20.972-21.717-20.972h-50.29c-12.785 0-22.803 10.612-21.625 22.906l29.017 302.639c2.424 25.283 24.389 44.621 50.682 44.621h219.52c26.292 0 48.258-19.339 50.682-44.621l29.017-302.639c1.179-12.294-8.84-22.906-21.625-22.906h-50.29c-11.993 0-21.716 9.389-21.716 20.972z" fill="#eaa895"/><path d="m419.994 412.876h-328.971l-4.667-53.662h337.371z" fill="#f9fbfc"/><g fill="#f9fbfc"><path d="m441.933 156.054c0 1.698 1.376 3.074 3.074 3.074.153 0 .3-.023.447-.045.052-2.1-.219-4.139-.773-6.071-1.542.165-2.748 1.456-2.748 3.042z"/><path d="m441.933 175.875c0 1.204.699 2.236 1.707 2.74l.545-5.69c-1.295.362-2.252 1.539-2.252 2.95z"/><path d="m441.933 195.696c0 .121.022.236.036.354l.123-1.284c-.095.295-.159.604-.159.93z"/><path d="m422.467 137.638c.511.988 1.531 1.67 2.72 1.67 1.043 0 1.962-.523 2.518-1.317-1.282-.227-2.602-.353-3.956-.353z"/><path d="m435.47 142.696c-1.698 0-3.075 1.377-3.075 3.075s1.377 3.075 3.075 3.075 3.074-1.377 3.074-3.075c.001-1.699-1.376-3.075-3.074-3.075z"/><path d="m425.187 152.98c-1.698 0-3.075 1.377-3.075 3.075s1.377 3.074 3.075 3.074 3.074-1.376 3.074-3.074c0-1.699-1.376-3.075-3.074-3.075z"/><path d="m435.47 162.517c-1.698 0-3.075 1.376-3.075 3.074s1.377 3.075 3.075 3.075 3.074-1.377 3.074-3.075c.001-1.698-1.376-3.074-3.074-3.074z"/><path d="m425.187 172.8c-1.698 0-3.075 1.377-3.075 3.075s1.377 3.074 3.075 3.074 3.074-1.377 3.074-3.074c0-1.698-1.376-3.075-3.074-3.075z"/><path d="m435.47 182.338c-1.698 0-3.075 1.376-3.075 3.074s1.377 3.075 3.075 3.075 3.074-1.376 3.074-3.075c.001-1.698-1.376-3.074-3.074-3.074z"/><path d="m425.187 192.622c-1.698 0-3.075 1.376-3.075 3.074s1.377 3.075 3.075 3.075 3.074-1.377 3.074-3.075-1.376-3.074-3.074-3.074z"/><path d="m435.47 202.159c-1.698 0-3.075 1.376-3.075 3.075 0 1.698 1.377 3.074 3.075 3.074s3.074-1.376 3.074-3.074c.001-1.699-1.376-3.075-3.074-3.075z"/><path d="m425.187 212.443c-1.698 0-3.075 1.376-3.075 3.074s1.377 3.075 3.075 3.075 3.074-1.376 3.074-3.075c0-1.698-1.376-3.074-3.074-3.074z"/><path d="m435.47 221.98c-1.698 0-3.075 1.377-3.075 3.074 0 1.698 1.377 3.074 3.075 3.074s3.074-1.376 3.074-3.074c.001-1.697-1.376-3.074-3.074-3.074z"/><path d="m425.187 232.264c-1.698 0-3.075 1.376-3.075 3.074s1.377 3.074 3.075 3.074 3.074-1.376 3.074-3.074-1.376-3.074-3.074-3.074z"/><path d="m432.396 244.875c0 1.698 1.377 3.075 3.075 3.075.574 0 1.105-.167 1.565-.441l.472-4.921c-.543-.484-1.252-.787-2.036-.787-1.7 0-3.076 1.376-3.076 3.074z"/><path d="m425.187 252.084c-1.698 0-3.075 1.377-3.075 3.075s1.377 3.074 3.075 3.074 3.074-1.376 3.074-3.074-1.376-3.075-3.074-3.075z"/><path d="m435.47 261.622c-1.698 0-3.075 1.376-3.075 3.074 0 1.57 1.181 2.85 2.7 3.037l.584-6.09c-.07-.005-.137-.021-.209-.021z"/><path d="m425.187 271.905c-1.698 0-3.075 1.377-3.075 3.075s1.377 3.075 3.075 3.075 3.074-1.377 3.074-3.075-1.376-3.075-3.074-3.075z"/><path d="m432.396 284.517c0 .84.339 1.599.884 2.154l.449-4.685c-.805.555-1.333 1.48-1.333 2.531z"/><path d="m425.187 291.727c-1.698 0-3.075 1.376-3.075 3.074s1.377 3.075 3.075 3.075 3.074-1.377 3.074-3.075-1.376-3.074-3.074-3.074z"/><path d="m425.187 311.547c-1.698 0-3.075 1.376-3.075 3.074s1.377 3.075 3.075 3.075 3.074-1.376 3.074-3.075c0-1.697-1.376-3.074-3.074-3.074z"/><path d="m425.187 331.368c-1.698 0-3.075 1.377-3.075 3.075s1.377 3.074 3.075 3.074 3.074-1.376 3.074-3.074-1.376-3.075-3.074-3.075z"/><path d="m422.112 354.264c0 1.698 1.377 3.074 3.075 3.074.486 0 .94-.123 1.349-.324l.498-5.194c-.516-.39-1.151-.63-1.847-.63-1.698 0-3.075 1.376-3.075 3.074z"/><path d="m425.187 371.01c-1.698 0-3.075 1.376-3.075 3.074 0 1.5 1.076 2.746 2.497 3.016l.584-6.09c-.002.001-.004 0-.006 0z"/><path d="m422.112 393.906c0 .736.27 1.402.701 1.932l.41-4.28c-.673.564-1.111 1.401-1.111 2.348z"/><path d="m405.366 139.308c1.189 0 2.208-.682 2.72-1.67h-5.44c.511.988 1.531 1.67 2.72 1.67z"/><path d="m415.649 142.696c-1.698 0-3.075 1.377-3.075 3.075s1.376 3.075 3.075 3.075c1.698 0 3.074-1.377 3.074-3.075.001-1.699-1.376-3.075-3.074-3.075z"/><path d="m405.366 152.98c-1.698 0-3.075 1.377-3.075 3.075s1.377 3.074 3.075 3.074 3.074-1.376 3.074-3.074c0-1.699-1.376-3.075-3.074-3.075z"/><path d="m415.649 162.517c-1.698 0-3.075 1.376-3.075 3.074s1.376 3.075 3.075 3.075c1.698 0 3.074-1.377 3.074-3.075.001-1.698-1.376-3.074-3.074-3.074z"/><path d="m405.366 172.8c-1.698 0-3.075 1.377-3.075 3.075s1.377 3.074 3.075 3.074 3.074-1.377 3.074-3.074c0-1.698-1.376-3.075-3.074-3.075z"/><path d="m415.649 182.338c-1.698 0-3.075 1.376-3.075 3.074s1.376 3.075 3.075 3.075c1.698 0 3.074-1.376 3.074-3.075.001-1.698-1.376-3.074-3.074-3.074z"/><path d="m405.366 192.622c-1.698 0-3.075 1.376-3.075 3.074s1.377 3.075 3.075 3.075 3.074-1.377 3.074-3.075-1.376-3.074-3.074-3.074z"/><path d="m415.649 202.159c-1.698 0-3.075 1.376-3.075 3.075 0 1.698 1.376 3.074 3.075 3.074 1.698 0 3.074-1.376 3.074-3.074.001-1.699-1.376-3.075-3.074-3.075z"/><path d="m405.366 212.443c-1.698 0-3.075 1.376-3.075 3.074s1.377 3.075 3.075 3.075 3.074-1.376 3.074-3.075c0-1.698-1.376-3.074-3.074-3.074z"/><path d="m415.649 221.98c-1.698 0-3.075 1.377-3.075 3.074 0 1.698 1.376 3.074 3.075 3.074 1.698 0 3.074-1.376 3.074-3.074.001-1.697-1.376-3.074-3.074-3.074z"/><path d="m405.366 232.264c-1.698 0-3.075 1.376-3.075 3.074s1.377 3.074 3.075 3.074 3.074-1.376 3.074-3.074-1.376-3.074-3.074-3.074z"/><path d="m415.649 241.801c-1.698 0-3.075 1.376-3.075 3.074s1.376 3.075 3.075 3.075c1.698 0 3.074-1.376 3.074-3.075.001-1.698-1.376-3.074-3.074-3.074z"/><path d="m405.366 252.084c-1.698 0-3.075 1.377-3.075 3.075s1.377 3.074 3.075 3.074 3.074-1.376 3.074-3.074-1.376-3.075-3.074-3.075z"/><path d="m415.649 261.622c-1.698 0-3.075 1.376-3.075 3.074s1.376 3.075 3.075 3.075c1.698 0 3.074-1.376 3.074-3.075.001-1.698-1.376-3.074-3.074-3.074z"/><path d="m405.366 271.905c-1.698 0-3.075 1.377-3.075 3.075s1.377 3.075 3.075 3.075 3.074-1.377 3.074-3.075-1.376-3.075-3.074-3.075z"/><path d="m415.649 281.443c-1.698 0-3.075 1.376-3.075 3.074s1.376 3.075 3.075 3.075c1.698 0 3.074-1.376 3.074-3.075.001-1.698-1.376-3.074-3.074-3.074z"/><path d="m405.366 291.727c-1.698 0-3.075 1.376-3.075 3.074s1.377 3.075 3.075 3.075 3.074-1.377 3.074-3.075-1.376-3.074-3.074-3.074z"/><path d="m415.649 301.264c-1.698 0-3.075 1.376-3.075 3.075 0 1.698 1.376 3.074 3.075 3.074 1.698 0 3.074-1.377 3.074-3.074.001-1.699-1.376-3.075-3.074-3.075z"/><path d="m405.366 311.547c-1.698 0-3.075 1.376-3.075 3.074s1.377 3.075 3.075 3.075 3.074-1.376 3.074-3.075c0-1.697-1.376-3.074-3.074-3.074z"/><path d="m415.649 321.085c-1.698 0-3.075 1.376-3.075 3.074s1.376 3.074 3.075 3.074c1.698 0 3.074-1.376 3.074-3.074.001-1.698-1.376-3.074-3.074-3.074z"/><path d="m405.366 331.368c-1.698 0-3.075 1.377-3.075 3.075s1.377 3.074 3.075 3.074 3.074-1.376 3.074-3.074-1.376-3.075-3.074-3.075z"/><path d="m415.649 340.906c-1.698 0-3.075 1.376-3.075 3.074s1.376 3.075 3.075 3.075c1.698 0 3.074-1.376 3.074-3.075.001-1.698-1.376-3.074-3.074-3.074z"/><path d="m405.366 351.19c-1.698 0-3.075 1.376-3.075 3.074s1.377 3.074 3.075 3.074 3.074-1.376 3.074-3.074-1.376-3.074-3.074-3.074z"/><path d="m415.649 360.727c-1.698 0-3.075 1.376-3.075 3.074s1.376 3.074 3.075 3.074c1.698 0 3.074-1.376 3.074-3.074.001-1.698-1.376-3.074-3.074-3.074z"/><path d="m405.366 371.01c-1.698 0-3.075 1.376-3.075 3.074s1.377 3.075 3.075 3.075 3.074-1.376 3.074-3.075c0-1.697-1.376-3.074-3.074-3.074z"/><path d="m415.649 380.548c-1.698 0-3.075 1.377-3.075 3.074 0 1.698 1.376 3.075 3.075 3.075 1.698 0 3.074-1.376 3.074-3.075.001-1.698-1.376-3.074-3.074-3.074z"/><path d="m405.366 390.831c-1.698 0-3.075 1.376-3.075 3.075 0 1.698 1.377 3.074 3.075 3.074s3.074-1.376 3.074-3.074-1.376-3.075-3.074-3.075z"/><path d="m415.649 400.369c-1.698 0-3.075 1.377-3.075 3.074 0 1.698 1.376 3.075 3.075 3.075 1.698 0 3.074-1.377 3.074-3.075.001-1.698-1.376-3.074-3.074-3.074z"/><path d="m405.366 410.652c-1.698 0-3.075 1.377-3.075 3.075s1.377 3.074 3.075 3.074 3.074-1.376 3.074-3.074-1.376-3.075-3.074-3.075z"/><path d="m415.649 420.19c-1.698 0-3.075 1.377-3.075 3.074 0 1.698 1.376 3.075 3.075 3.075 1.698 0 3.074-1.377 3.074-3.075.001-1.698-1.376-3.074-3.074-3.074z"/><path d="m405.366 430.473c-1.698 0-3.075 1.377-3.075 3.075s1.377 3.075 3.075 3.075 3.074-1.377 3.074-3.075-1.376-3.075-3.074-3.075z"/><path d="m415.649 440.011c-1.698 0-3.075 1.376-3.075 3.074s1.376 3.075 3.075 3.075c1.009 0 1.898-.493 2.458-1.245l.303-3.159c-.497-1.029-1.541-1.745-2.761-1.745z"/><path d="m405.366 450.294c-1.698 0-3.075 1.376-3.075 3.074s1.377 3.074 3.075 3.074 3.074-1.376 3.074-3.074-1.376-3.074-3.074-3.074z"/><path d="m412.575 462.906c0 1.698 1.376 3.074 3.075 3.074.121 0 .235-.022.352-.036.141-.913.265-1.832.354-2.763l.303-3.167c-.318-.111-.654-.184-1.01-.184-1.698.002-3.074 1.378-3.074 3.076z"/><path d="m405.366 476.264c1.698 0 3.074-1.376 3.074-3.075 0-1.698-1.377-3.074-3.074-3.074-1.698 0-3.075 1.376-3.075 3.074 0 1.699 1.377 3.075 3.075 3.075z"/><path d="m402.318 492.748c.89-.891 1.75-1.809 2.569-2.763-1.383.218-2.448 1.351-2.569 2.763z"/><circle cx="395.828" cy="145.77" r="3.075"/><path d="m395.828 168.666c1.698 0 3.075-1.377 3.075-3.075s-1.377-3.074-3.075-3.074-3.075 1.376-3.075 3.074c.001 1.698 1.377 3.075 3.075 3.075z"/><path d="m395.828 188.487c1.698 0 3.075-1.376 3.075-3.075 0-1.698-1.377-3.074-3.075-3.074s-3.075 1.376-3.075 3.074c.001 1.698 1.377 3.075 3.075 3.075z"/><path d="m385.541 198.774c1.698 0 3.074-1.377 3.074-3.075s-1.377-3.074-3.074-3.074c-1.698 0-3.075 1.377-3.075 3.074.001 1.698 1.377 3.075 3.075 3.075z"/><path d="m395.828 208.308c1.698 0 3.075-1.376 3.075-3.074s-1.377-3.075-3.075-3.075-3.075 1.376-3.075 3.075c.001 1.698 1.377 3.074 3.075 3.074z"/><path d="m385.545 212.443c-1.698 0-3.075 1.376-3.075 3.074s1.376 3.075 3.075 3.075c1.698 0 3.074-1.376 3.074-3.075 0-1.698-1.376-3.074-3.074-3.074z"/><circle cx="395.828" cy="225.054" r="3.075"/><path d="m385.545 232.264c-1.698 0-3.075 1.376-3.075 3.074s1.376 3.074 3.075 3.074c1.698 0 3.074-1.376 3.074-3.074s-1.376-3.074-3.074-3.074z"/><path d="m395.828 247.95c1.698 0 3.075-1.376 3.075-3.075 0-1.698-1.377-3.074-3.075-3.074s-3.075 1.376-3.075 3.074c.001 1.699 1.377 3.075 3.075 3.075z"/><path d="m385.545 252.084c-1.698 0-3.075 1.377-3.075 3.075s1.376 3.074 3.075 3.074c1.698 0 3.074-1.376 3.074-3.074s-1.376-3.075-3.074-3.075z"/><path d="m395.828 267.771c1.698 0 3.075-1.376 3.075-3.075 0-1.698-1.377-3.074-3.075-3.074s-3.075 1.376-3.075 3.074c.001 1.698 1.377 3.075 3.075 3.075z"/><path d="m385.545 271.905c-1.698 0-3.075 1.377-3.075 3.075s1.376 3.075 3.075 3.075c1.698 0 3.074-1.377 3.074-3.075s-1.376-3.075-3.074-3.075z"/><path d="m395.828 287.592c1.698 0 3.075-1.376 3.075-3.075 0-1.698-1.377-3.074-3.075-3.074s-3.075 1.376-3.075 3.074c.001 1.698 1.377 3.075 3.075 3.075z"/><path d="m385.545 291.727c-1.698 0-3.075 1.376-3.075 3.074s1.376 3.075 3.075 3.075c1.698 0 3.074-1.377 3.074-3.075s-1.376-3.074-3.074-3.074z"/><path d="m375.997 301.213c-1.698 0-3.075 1.376-3.075 3.074s1.376 3.075 3.075 3.075c1.698 0 3.074-1.377 3.074-3.075s-1.376-3.074-3.074-3.074z"/><path d="m395.828 307.413c1.698 0 3.075-1.377 3.075-3.074 0-1.698-1.377-3.075-3.075-3.075s-3.075 1.376-3.075 3.075c.001 1.697 1.377 3.074 3.075 3.074z"/><path d="m385.545 311.547c-1.698 0-3.075 1.376-3.075 3.074s1.376 3.075 3.075 3.075c1.698 0 3.074-1.376 3.074-3.075 0-1.697-1.376-3.074-3.074-3.074z"/><path d="m395.828 327.234c1.698 0 3.075-1.376 3.075-3.074s-1.377-3.074-3.075-3.074-3.075 1.376-3.075 3.074c.001 1.697 1.377 3.074 3.075 3.074z"/><path d="m385.545 331.368c-1.698 0-3.075 1.377-3.075 3.075s1.376 3.074 3.075 3.074c1.698 0 3.074-1.376 3.074-3.074s-1.376-3.075-3.074-3.075z"/><path d="m395.828 347.055c1.698 0 3.075-1.376 3.075-3.075 0-1.698-1.377-3.074-3.075-3.074s-3.075 1.376-3.075 3.074c.001 1.698 1.377 3.075 3.075 3.075z"/><path d="m385.545 351.19c-1.698 0-3.075 1.376-3.075 3.074s1.376 3.074 3.075 3.074c1.698 0 3.074-1.376 3.074-3.074s-1.376-3.074-3.074-3.074z"/><path d="m395.828 366.876c1.698 0 3.075-1.376 3.075-3.074s-1.377-3.074-3.075-3.074-3.075 1.376-3.075 3.074c.001 1.697 1.377 3.074 3.075 3.074z"/><path d="m385.545 371.01c-1.698 0-3.075 1.376-3.075 3.074s1.376 3.075 3.075 3.075c1.698 0 3.074-1.376 3.074-3.075 0-1.697-1.376-3.074-3.074-3.074z"/><path d="m395.828 386.697c1.698 0 3.075-1.376 3.075-3.075 0-1.698-1.377-3.074-3.075-3.074s-3.075 1.377-3.075 3.074c.001 1.698 1.377 3.075 3.075 3.075z"/><path d="m385.545 390.831c-1.698 0-3.075 1.376-3.075 3.075 0 1.698 1.376 3.074 3.075 3.074 1.698 0 3.074-1.376 3.074-3.074s-1.376-3.075-3.074-3.075z"/><path d="m395.828 406.518c1.698 0 3.075-1.377 3.075-3.075s-1.377-3.074-3.075-3.074-3.075 1.377-3.075 3.074c.001 1.698 1.377 3.075 3.075 3.075z"/><path d="m385.545 410.652c-1.698 0-3.075 1.377-3.075 3.075s1.376 3.074 3.075 3.074c1.698 0 3.074-1.376 3.074-3.074s-1.376-3.075-3.074-3.075z"/><path d="m395.828 426.339c1.698 0 3.075-1.377 3.075-3.075s-1.377-3.074-3.075-3.074-3.075 1.377-3.075 3.074c.001 1.698 1.377 3.075 3.075 3.075z"/><path d="m385.545 430.473c-1.698 0-3.075 1.377-3.075 3.075s1.376 3.075 3.075 3.075c1.698 0 3.074-1.377 3.074-3.075s-1.376-3.075-3.074-3.075z"/><path d="m395.828 446.16c1.698 0 3.075-1.376 3.075-3.075 0-1.698-1.377-3.074-3.075-3.074s-3.075 1.376-3.075 3.074c.001 1.698 1.377 3.075 3.075 3.075z"/><path d="m385.545 450.294c-1.698 0-3.075 1.376-3.075 3.074s1.376 3.074 3.075 3.074c1.698 0 3.074-1.376 3.074-3.074s-1.376-3.074-3.074-3.074z"/><path d="m395.828 465.981c1.698 0 3.075-1.377 3.075-3.074 0-1.698-1.377-3.075-3.075-3.075s-3.075 1.376-3.075 3.075c.001 1.697 1.377 3.074 3.075 3.074z"/><path d="m385.545 470.115c-1.698 0-3.075 1.376-3.075 3.074s1.376 3.075 3.075 3.075c1.698 0 3.074-1.376 3.074-3.075 0-1.697-1.376-3.074-3.074-3.074z"/><path d="m395.828 485.802c1.698 0 3.075-1.376 3.075-3.074s-1.377-3.074-3.075-3.074-3.075 1.376-3.075 3.074c.001 1.697 1.377 3.074 3.075 3.074z"/><path d="m385.545 489.936c-1.698 0-3.075 1.376-3.075 3.075 0 1.698 1.376 3.074 3.075 3.074 1.698 0 3.074-1.376 3.074-3.074s-1.376-3.075-3.074-3.075z"/><path d="m376.007 321.085c-1.698 0-3.074 1.376-3.074 3.074s1.376 3.074 3.074 3.074 3.075-1.376 3.075-3.074-1.377-3.074-3.075-3.074z"/><path d="m376.007 340.906c-1.698 0-3.074 1.376-3.074 3.074s1.376 3.075 3.074 3.075 3.075-1.376 3.075-3.075c0-1.698-1.377-3.074-3.075-3.074z"/><path d="m376.007 360.727c-1.698 0-3.074 1.376-3.074 3.074s1.376 3.074 3.074 3.074 3.075-1.376 3.075-3.074-1.377-3.074-3.075-3.074z"/><path d="m376.007 380.548c-1.698 0-3.074 1.377-3.074 3.074 0 1.698 1.376 3.075 3.074 3.075s3.075-1.376 3.075-3.075c0-1.698-1.377-3.074-3.075-3.074z"/><path d="m376.007 400.369c-1.698 0-3.074 1.377-3.074 3.074 0 1.698 1.376 3.075 3.074 3.075s3.075-1.377 3.075-3.075-1.377-3.074-3.075-3.074z"/><path d="m365.724 416.801c1.698 0 3.075-1.376 3.075-3.074s-1.376-3.075-3.075-3.075c-1.14 0-2.124.628-2.654 1.549l-.241 2.519c.413 1.208 1.546 2.081 2.895 2.081z"/><path d="m376.007 420.19c-1.698 0-3.074 1.377-3.074 3.074 0 1.698 1.376 3.075 3.074 3.075s3.075-1.377 3.075-3.075-1.377-3.074-3.075-3.074z"/><path d="m365.724 430.473c-1.698 0-3.074 1.377-3.074 3.075s1.376 3.075 3.074 3.075 3.075-1.377 3.075-3.075c-.001-1.698-1.377-3.075-3.075-3.075z"/><path d="m376.007 440.011c-1.698 0-3.074 1.376-3.074 3.074s1.376 3.075 3.074 3.075 3.075-1.376 3.075-3.075c0-1.698-1.377-3.074-3.075-3.074z"/><path d="m365.724 450.294c-1.698 0-3.074 1.376-3.074 3.074s1.376 3.074 3.074 3.074 3.075-1.376 3.075-3.074-1.377-3.074-3.075-3.074z"/><path d="m376.007 459.832c-1.698 0-3.074 1.376-3.074 3.075 0 1.698 1.376 3.074 3.074 3.074s3.075-1.377 3.075-3.074c0-1.699-1.377-3.075-3.075-3.075z"/><path d="m365.724 470.115c-1.698 0-3.074 1.376-3.074 3.074s1.376 3.075 3.074 3.075 3.075-1.376 3.075-3.075c-.001-1.697-1.377-3.074-3.075-3.074z"/><path d="m376.007 479.653c-1.698 0-3.074 1.376-3.074 3.074s1.376 3.074 3.074 3.074 3.075-1.376 3.075-3.074-1.377-3.074-3.075-3.074z"/><path d="m365.724 496.085c1.698 0 3.075-1.376 3.075-3.074s-1.376-3.075-3.075-3.075c-1.698 0-3.074 1.376-3.074 3.075-.001 1.698 1.376 3.074 3.074 3.074z"/><path d="m376.007 499.474c-1.698 0-3.074 1.377-3.074 3.074 0 1.698 1.376 3.075 3.074 3.075s3.075-1.376 3.075-3.075c0-1.698-1.377-3.074-3.075-3.074z"/><path d="m356.186 459.832c-1.698 0-3.075 1.376-3.075 3.075 0 1.698 1.377 3.074 3.075 3.074s3.075-1.377 3.075-3.074c0-1.699-1.377-3.075-3.075-3.075z"/><path d="m345.903 470.115c-1.698 0-3.074 1.376-3.074 3.074s1.376 3.075 3.074 3.075 3.074-1.376 3.074-3.075c0-1.697-1.376-3.074-3.074-3.074z"/><path d="m356.186 479.653c-1.698 0-3.075 1.376-3.075 3.074s1.377 3.074 3.075 3.074 3.075-1.376 3.075-3.074-1.377-3.074-3.075-3.074z"/><path d="m345.903 489.936c-1.698 0-3.074 1.376-3.074 3.075 0 1.698 1.376 3.074 3.074 3.074s3.074-1.376 3.074-3.074-1.376-3.075-3.074-3.075z"/><path d="m356.186 499.474c-1.698 0-3.075 1.377-3.075 3.074 0 1.698 1.377 3.075 3.075 3.075s3.075-1.376 3.075-3.075c0-1.698-1.377-3.074-3.075-3.074z"/><path d="m326.082 470.115c-1.698 0-3.075 1.376-3.075 3.074s1.376 3.075 3.075 3.075c1.698 0 3.074-1.376 3.074-3.075 0-1.697-1.376-3.074-3.074-3.074z"/><path d="m336.365 479.653c-1.698 0-3.074 1.376-3.074 3.074s1.377 3.074 3.074 3.074c1.698 0 3.074-1.376 3.074-3.074.001-1.698-1.376-3.074-3.074-3.074z"/><path d="m326.082 489.936c-1.698 0-3.075 1.376-3.075 3.075 0 1.698 1.376 3.074 3.075 3.074 1.698 0 3.074-1.376 3.074-3.074s-1.376-3.075-3.074-3.075z"/><path d="m336.365 499.474c-1.698 0-3.074 1.377-3.074 3.074 0 1.698 1.377 3.075 3.074 3.075 1.698 0 3.074-1.376 3.074-3.075.001-1.698-1.376-3.074-3.074-3.074z"/><path d="m306.261 470.115c-1.698 0-3.074 1.376-3.074 3.074s1.376 3.075 3.074 3.075 3.075-1.376 3.075-3.075c-.001-1.697-1.377-3.074-3.075-3.074z"/><path d="m313.47 482.727c0 1.698 1.376 3.074 3.074 3.074s3.075-1.376 3.075-3.074-1.377-3.074-3.075-3.074-3.074 1.376-3.074 3.074z"/><path d="m306.261 489.936c-1.698 0-3.074 1.376-3.074 3.075 0 1.698 1.376 3.074 3.074 3.074s3.075-1.376 3.075-3.074c-.001-1.698-1.377-3.075-3.075-3.075z"/><path d="m316.544 505.623c1.698 0 3.075-1.376 3.075-3.075 0-1.698-1.377-3.074-3.075-3.074s-3.074 1.377-3.074 3.074c0 1.698 1.376 3.075 3.074 3.075z"/><path d="m286.44 470.115c-1.698 0-3.074 1.376-3.074 3.074s1.376 3.075 3.074 3.075 3.075-1.376 3.075-3.075c-.001-1.697-1.377-3.074-3.075-3.074z"/><path d="m296.723 479.653c-1.698 0-3.075 1.376-3.075 3.074s1.377 3.074 3.075 3.074 3.075-1.376 3.075-3.074-1.377-3.074-3.075-3.074z"/><path d="m286.44 489.936c-1.698 0-3.074 1.376-3.074 3.075 0 1.698 1.376 3.074 3.074 3.074s3.075-1.376 3.075-3.074c-.001-1.698-1.377-3.075-3.075-3.075z"/><path d="m296.723 499.474c-1.698 0-3.075 1.377-3.075 3.074 0 1.698 1.377 3.075 3.075 3.075s3.075-1.376 3.075-3.075c0-1.698-1.377-3.074-3.075-3.074z"/><path d="m266.619 470.115c-1.698 0-3.074 1.376-3.074 3.074s1.376 3.075 3.074 3.075 3.075-1.376 3.075-3.075c-.001-1.697-1.377-3.074-3.075-3.074z"/><path d="m276.902 479.653c-1.698 0-3.075 1.376-3.075 3.074s1.377 3.074 3.075 3.074 3.074-1.376 3.074-3.074c.001-1.698-1.376-3.074-3.074-3.074z"/><path d="m266.619 489.936c-1.698 0-3.074 1.376-3.074 3.075 0 1.698 1.376 3.074 3.074 3.074s3.075-1.376 3.075-3.074c-.001-1.698-1.377-3.075-3.075-3.075z"/><path d="m276.902 499.474c-1.698 0-3.075 1.377-3.075 3.074 0 1.698 1.377 3.075 3.075 3.075s3.074-1.376 3.074-3.075c.001-1.698-1.376-3.074-3.074-3.074z"/><path d="m246.798 470.115c-1.698 0-3.074 1.376-3.074 3.074s1.376 3.075 3.074 3.075 3.074-1.376 3.074-3.075c0-1.697-1.376-3.074-3.074-3.074z"/><path d="m257.081 479.653c-1.698 0-3.075 1.376-3.075 3.074s1.377 3.074 3.075 3.074 3.074-1.376 3.074-3.074c.001-1.698-1.376-3.074-3.074-3.074z"/><path d="m246.798 489.936c-1.698 0-3.074 1.376-3.074 3.075 0 1.698 1.376 3.074 3.074 3.074s3.074-1.376 3.074-3.074-1.376-3.075-3.074-3.075z"/><path d="m257.081 499.474c-1.698 0-3.075 1.377-3.075 3.074 0 1.698 1.377 3.075 3.075 3.075s3.074-1.376 3.074-3.075c.001-1.698-1.376-3.074-3.074-3.074z"/><path d="m226.977 470.115c-1.698 0-3.075 1.376-3.075 3.074s1.377 3.075 3.075 3.075 3.074-1.376 3.074-3.075c0-1.697-1.376-3.074-3.074-3.074z"/><path d="m237.26 479.653c-1.698 0-3.074 1.376-3.074 3.074s1.376 3.074 3.074 3.074 3.075-1.376 3.075-3.074-1.377-3.074-3.075-3.074z"/><path d="m226.977 489.936c-1.698 0-3.075 1.376-3.075 3.075 0 1.698 1.377 3.074 3.075 3.074s3.074-1.376 3.074-3.074-1.376-3.075-3.074-3.075z"/><path d="m237.26 499.474c-1.698 0-3.074 1.377-3.074 3.074 0 1.698 1.376 3.075 3.074 3.075s3.075-1.376 3.075-3.075c0-1.698-1.377-3.074-3.075-3.074z"/><path d="m207.156 470.115c-1.698 0-3.074 1.376-3.074 3.074s1.376 3.075 3.074 3.075 3.074-1.376 3.074-3.075c0-1.697-1.376-3.074-3.074-3.074z"/><path d="m217.439 479.653c-1.698 0-3.074 1.376-3.074 3.074s1.376 3.074 3.074 3.074 3.075-1.376 3.075-3.074-1.377-3.074-3.075-3.074z"/><path d="m207.156 489.936c-1.698 0-3.074 1.376-3.074 3.075 0 1.698 1.376 3.074 3.074 3.074s3.074-1.376 3.074-3.074-1.376-3.075-3.074-3.075z"/><path d="m217.439 499.474c-1.698 0-3.074 1.377-3.074 3.074 0 1.698 1.376 3.075 3.074 3.075s3.075-1.376 3.075-3.075c0-1.698-1.377-3.074-3.075-3.074z"/><path d="m187.335 470.115c-1.698 0-3.074 1.376-3.074 3.074s1.376 3.075 3.074 3.075 3.075-1.376 3.075-3.075c-.001-1.697-1.377-3.074-3.075-3.074z"/><path d="m197.618 479.653c-1.698 0-3.075 1.376-3.075 3.074s1.377 3.074 3.075 3.074 3.075-1.376 3.075-3.074-1.377-3.074-3.075-3.074z"/><path d="m187.335 489.936c-1.698 0-3.074 1.376-3.074 3.075 0 1.698 1.376 3.074 3.074 3.074s3.075-1.376 3.075-3.074c-.001-1.698-1.377-3.075-3.075-3.075z"/><path d="m197.618 499.474c-1.698 0-3.075 1.377-3.075 3.074 0 1.698 1.377 3.075 3.075 3.075s3.075-1.376 3.075-3.075c0-1.698-1.377-3.074-3.075-3.074z"/><path d="m167.514 470.115c-1.698 0-3.075 1.376-3.075 3.074s1.377 3.075 3.075 3.075 3.075-1.376 3.075-3.075c-.001-1.697-1.377-3.074-3.075-3.074z"/><path d="m177.797 479.653c-1.698 0-3.075 1.376-3.075 3.074s1.377 3.074 3.075 3.074 3.074-1.376 3.074-3.074c.001-1.698-1.376-3.074-3.074-3.074z"/><path d="m167.514 489.936c-1.698 0-3.075 1.376-3.075 3.075 0 1.698 1.377 3.074 3.075 3.074s3.075-1.376 3.075-3.074c-.001-1.698-1.377-3.075-3.075-3.075z"/><path d="m177.797 499.474c-1.698 0-3.075 1.377-3.075 3.074 0 1.698 1.377 3.075 3.075 3.075s3.074-1.376 3.074-3.075c.001-1.698-1.376-3.074-3.074-3.074z"/><path d="m147.693 470.115c-1.698 0-3.075 1.376-3.075 3.074s1.377 3.075 3.075 3.075 3.074-1.376 3.074-3.075c0-1.697-1.376-3.074-3.074-3.074z"/><path d="m157.976 479.653c-1.698 0-3.075 1.376-3.075 3.074s1.376 3.074 3.075 3.074c1.698 0 3.074-1.376 3.074-3.074.001-1.698-1.376-3.074-3.074-3.074z"/><path d="m147.693 489.936c-1.698 0-3.075 1.376-3.075 3.075 0 1.698 1.377 3.074 3.075 3.074s3.074-1.376 3.074-3.074-1.376-3.075-3.074-3.075z"/><path d="m157.976 499.474c-1.698 0-3.075 1.377-3.075 3.074 0 1.698 1.376 3.075 3.075 3.075 1.698 0 3.074-1.376 3.074-3.075.001-1.698-1.376-3.074-3.074-3.074z"/><path d="m127.872 470.115c-1.698 0-3.075 1.376-3.075 3.074s1.376 3.075 3.075 3.075c1.698 0 3.074-1.376 3.074-3.075 0-1.697-1.376-3.074-3.074-3.074z"/><path d="m138.155 479.653c-1.698 0-3.074 1.376-3.074 3.074s1.376 3.074 3.074 3.074 3.075-1.376 3.075-3.074-1.377-3.074-3.075-3.074z"/><path d="m127.872 489.936c-1.698 0-3.075 1.376-3.075 3.075 0 1.698 1.376 3.074 3.075 3.074 1.698 0 3.074-1.376 3.074-3.074s-1.376-3.075-3.074-3.075z"/><path d="m138.155 499.474c-1.698 0-3.074 1.377-3.074 3.074 0 1.698 1.376 3.075 3.074 3.075s3.075-1.376 3.075-3.075c0-1.698-1.377-3.074-3.075-3.074z"/><path d="m104.976 473.19c0 1.698 1.376 3.075 3.074 3.075s3.075-1.376 3.075-3.075c0-1.698-1.377-3.074-3.075-3.074-1.697-.001-3.074 1.376-3.074 3.074z"/><path d="m115.26 482.727c0 1.698 1.377 3.074 3.075 3.074s3.075-1.376 3.075-3.074-1.377-3.074-3.075-3.074c-1.699 0-3.075 1.376-3.075 3.074z"/><path d="m108.051 489.936c-.345 0-.672.07-.981.175 1.208 1.399 2.488 2.737 3.846 3.996.131-.341.211-.709.211-1.096-.002-1.698-1.378-3.075-3.076-3.075z"/><path d="m118.334 499.474c-.152 0-.298.023-.443.045 1.08.698 2.186 1.361 3.322 1.979-.431-1.179-1.552-2.024-2.879-2.024z"/><path d="m100.54 480.432c.322.628.656 1.247 1.003 1.859-.105-.739-.469-1.387-1.003-1.859z"/></g><g fill="#eaa895"><path d="m422.112 374.085c0 1.428.979 2.618 2.298 2.963v-5.927c-1.319.346-2.298 1.536-2.298 2.964z"/><path d="m422.112 393.906c0 .736.27 1.403.701 1.932l.41-4.28c-.673.564-1.111 1.4-1.111 2.348z"/><path d="m415.649 360.727c-1.698 0-3.075 1.376-3.075 3.074s1.376 3.074 3.075 3.074c1.698 0 3.074-1.376 3.074-3.074.001-1.698-1.376-3.074-3.074-3.074z"/><path d="m405.366 377.159c1.698 0 3.074-1.376 3.074-3.075 0-1.698-1.377-3.074-3.074-3.074-1.698 0-3.075 1.376-3.075 3.074 0 1.699 1.377 3.075 3.075 3.075z"/><path d="m415.649 386.697c1.698 0 3.074-1.376 3.074-3.075 0-1.698-1.377-3.074-3.074-3.074-1.698 0-3.075 1.377-3.075 3.074.001 1.698 1.377 3.075 3.075 3.075z"/><path d="m405.366 396.98c1.698 0 3.074-1.376 3.074-3.074s-1.377-3.075-3.074-3.075c-1.698 0-3.075 1.376-3.075 3.075 0 1.698 1.377 3.074 3.075 3.074z"/><path d="m415.649 406.518c1.698 0 3.074-1.377 3.074-3.075s-1.377-3.074-3.074-3.074c-1.698 0-3.075 1.377-3.075 3.074.001 1.698 1.377 3.075 3.075 3.075z"/><path d="m405.366 410.652c-1.434 0-2.628.986-2.968 2.313h5.936c-.341-1.327-1.535-2.313-2.968-2.313z"/><path d="m395.828 366.876c1.698 0 3.075-1.376 3.075-3.074s-1.377-3.074-3.075-3.074-3.075 1.376-3.075 3.074c.001 1.697 1.377 3.074 3.075 3.074z"/><path d="m385.545 377.159c1.698 0 3.074-1.376 3.074-3.075 0-1.698-1.376-3.074-3.074-3.074s-3.075 1.376-3.075 3.074c0 1.699 1.377 3.075 3.075 3.075z"/><path d="m395.828 386.697c1.698 0 3.075-1.376 3.075-3.075 0-1.698-1.377-3.074-3.075-3.074s-3.075 1.377-3.075 3.074c.001 1.698 1.377 3.075 3.075 3.075z"/><path d="m385.545 396.98c1.698 0 3.074-1.376 3.074-3.074s-1.376-3.075-3.074-3.075-3.075 1.376-3.075 3.075c0 1.698 1.377 3.074 3.075 3.074z"/><path d="m395.828 406.518c1.698 0 3.075-1.377 3.075-3.075s-1.377-3.074-3.075-3.074-3.075 1.377-3.075 3.074c.001 1.698 1.377 3.075 3.075 3.075z"/><path d="m385.545 410.652c-1.434 0-2.628.986-2.968 2.313h5.936c-.341-1.327-1.535-2.313-2.968-2.313z"/><path d="m376.007 366.876c1.698 0 3.075-1.376 3.075-3.074s-1.377-3.074-3.075-3.074-3.074 1.376-3.074 3.074c0 1.697 1.376 3.074 3.074 3.074z"/><path d="m376.007 386.697c1.698 0 3.075-1.376 3.075-3.075 0-1.698-1.377-3.074-3.075-3.074s-3.074 1.377-3.074 3.074c0 1.698 1.376 3.075 3.074 3.075z"/><path d="m376.007 406.518c1.698 0 3.075-1.377 3.075-3.075s-1.377-3.074-3.075-3.074-3.074 1.377-3.074 3.074c0 1.698 1.376 3.075 3.074 3.075z"/><path d="m365.724 410.652c-1.14 0-2.124.628-2.655 1.549l-.073.764h5.696c-.341-1.327-1.535-2.313-2.968-2.313z"/></g><path d="m443.052 142.073c-3.266-3.594-7.496-6.157-12.145-7.465l5.823-67.008c.477-5.492-1.212-10.841-4.758-15.062-3.547-4.221-8.524-6.808-14.015-7.285l-27.835-2.419c-5.496-.479-10.841 1.212-15.062 4.758s-6.807 8.523-7.285 14.015l-6.517 74.997c-.537.282-1.06.587-1.573.904l5.127-95.295c.297-5.504-1.569-10.795-5.251-14.897-3.683-4.102-8.743-6.524-14.248-6.82l-27.899-1.501c-11.376-.604-21.105 8.136-21.716 19.499l-5.177 96.212v-113.817c0-11.518-9.371-20.889-20.888-20.889h-27.437c-11.518 0-20.889 9.371-20.889 20.889v127.957l-5.937-110.35c-.611-11.363-10.353-20.112-21.716-19.499l-27.9 1.501c-5.505.296-10.563 2.718-14.247 6.82-3.682 4.102-5.548 9.392-5.251 14.897l5.102 94.828c-.517-.295-1.044-.573-1.583-.832l-6.482-74.601c-.986-11.336-11.008-19.762-22.347-18.773l-27.834 2.419c-11.338.983-19.76 11.007-18.776 22.344l5.842 67.225c-4.357 1.366-8.311 3.846-11.402 7.248-4.745 5.222-6.991 11.917-6.326 18.854l29.017 302.639c2.638 27.513 26.149 48.261 54.688 48.261h219.52c28.54 0 52.05-20.748 54.687-48.261l29.017-302.639c.664-6.936-1.582-13.632-6.327-18.854zm-67.258-79.768c.291-3.35 1.869-6.386 4.444-8.549 2.576-2.163 5.848-3.197 9.187-2.903l27.836 2.419c3.349.291 6.386 1.869 8.548 4.444 2.163 2.575 3.194 5.838 2.902 9.188l-5.797 66.71h-49.456c-1.321 0-2.618.098-3.886.285zm-72.06-23.377c.373-6.931 6.336-12.259 13.248-11.895l27.899 1.501c3.358.181 6.445 1.658 8.691 4.16 2.247 2.502 3.385 5.729 3.204 9.087l-5.615 104.365c-2.185 3.672-3.443 7.926-3.443 12.464v42.746c0 33.995-24.017 62.671-56.55 71.129zm-61.538-30.88h27.437c7.08 0 12.84 5.76 12.84 12.841v253.343c-3.653.519-7.387.797-11.187.797h-30.742c-3.801 0-7.535-.278-11.188-.797v-253.343c-.001-7.08 5.759-12.841 12.84-12.841zm-84.7 24.647c2.246-2.502 5.333-3.979 8.69-4.16l27.9-1.501c.229-.012.457-.018.684-.018 6.633 0 12.203 5.211 12.564 11.913l12.554 233.345c-32.138-8.71-55.777-37.193-55.777-70.917v-42.747c0-5.087-1.576-9.82-4.274-13.773l-5.544-103.055c-.182-3.358.956-6.585 3.203-9.087zm-63.689 20.577 27.835-2.419c6.901-.605 13.029 4.537 13.631 11.452l6.213 71.498c-1.022-.12-2.061-.189-3.116-.189h-50.218l-5.797-66.71c-.601-6.916 4.537-13.031 11.452-13.632zm-3.792 310.835h82.528c-2.861 7.055-4.416 14.591-4.416 22.417 0 7.827 1.554 15.362 4.416 22.417h-78.23zm322.335 98.691c-2.24 23.363-22.306 40.981-46.676 40.981h-219.52c-24.369 0-44.436-17.618-46.677-40.981l-4.392-45.808h81.405c14.063 24.268 44.375 41.102 79.423 41.102s65.36-16.834 79.424-41.102h81.405zm5.164-53.856h-78.229c2.862-7.055 4.416-14.591 4.416-22.417 0-7.827-1.554-15.362-4.416-22.417h82.528zm23.853-248.782-18.783 195.899h-87.247c-14.063-24.268-44.375-41.102-79.424-41.102-35.048 0-65.36 16.834-79.423 41.102h-87.247l-18.783-195.899c-.446-4.651 1.071-9.151 4.272-12.673 3.363-3.701 8.228-5.824 13.348-5.824h50.29c9.756 0 17.692 7.603 17.692 16.948v42.746c0 45.061 37.898 81.721 84.481 81.721h30.742c46.583 0 84.481-36.66 84.481-81.721v-42.747c0-9.345 7.936-16.948 17.692-16.948h50.29c5.119 0 9.984 2.123 13.347 5.824 3.201 3.522 4.718 8.023 4.272 12.674z" fill="#31373d"/><ellipse cx="255.914" cy="386.524" fill="#f9fbfc" rx="53.634" ry="40.388"/></g></svg>