<svg id="Capa_1" enable-background="new 0 0 511.086 511.086" height="512" viewBox="0 0 511.086 511.086" width="512" xmlns="http://www.w3.org/2000/svg"><g><path d="m255.543 4.017c-138.914 0-251.527 112.612-251.527 251.526s112.612 251.526 251.526 251.526 251.526-112.612 251.526-251.526c.001-138.914-112.611-251.526-251.525-251.526zm0 320.865c-38.295 0-69.34-31.044-69.34-69.339s31.044-69.34 69.34-69.34c38.295 0 69.34 31.044 69.34 69.34-.001 38.295-31.045 69.339-69.34 69.339z" fill="#e9c278"/><g fill="#f9fbfc"><path d="m493.105 181.039c0 1.681 1.363 3.044 3.044 3.044.205 0 .405-.022.598-.06-.574-1.939-1.172-3.867-1.791-5.785-1.088.464-1.851 1.543-1.851 2.801z"/><path d="m496.149 197.622c-1.681 0-3.044 1.363-3.044 3.044s1.363 3.044 3.044 3.044 3.044-1.363 3.044-3.044-1.362-3.044-3.044-3.044z"/><path d="m496.149 217.249c-1.681 0-3.044 1.363-3.044 3.044s1.363 3.044 3.044 3.044 3.044-1.363 3.044-3.044-1.362-3.044-3.044-3.044z"/><path d="m503.288 229.737c0 1.582 1.211 2.866 2.754 3.015-.178-1.977-.372-3.95-.595-5.913-1.246.382-2.159 1.527-2.159 2.898z"/><path d="m496.149 236.876c-1.681 0-3.044 1.363-3.044 3.044s1.363 3.044 3.044 3.044 3.044-1.363 3.044-3.044c.001-1.681-1.362-3.044-3.044-3.044z"/><path d="m506.332 246.32c-1.681 0-3.044 1.363-3.044 3.044s1.363 3.044 3.044 3.044c.246 0 .481-.037.71-.092-.025-1.986-.072-3.966-.143-5.94-.184-.034-.372-.056-.567-.056z"/><path d="m496.149 256.503c-1.681 0-3.044 1.363-3.044 3.044s1.363 3.044 3.044 3.044 3.044-1.363 3.044-3.044-1.362-3.044-3.044-3.044z"/><path d="m506.332 265.947c-1.681 0-3.044 1.363-3.044 3.044s1.363 3.044 3.044 3.044c.063 0 .123-.015.185-.019.129-2.001.236-4.007.318-6.02-.164-.026-.33-.049-.503-.049z"/><path d="m496.149 276.13c-1.681 0-3.044 1.363-3.044 3.044s1.363 3.044 3.044 3.044 3.044-1.363 3.044-3.044-1.362-3.044-3.044-3.044z"/><path d="m503.288 288.618c0 1.017.504 1.911 1.269 2.464.249-1.762.483-3.529.696-5.302-1.146.437-1.965 1.539-1.965 2.838z"/><path d="m496.149 295.757c-1.681 0-3.044 1.363-3.044 3.044s1.363 3.044 3.044 3.044 3.044-1.363 3.044-3.044c.001-1.681-1.362-3.044-3.044-3.044z"/><path d="m496.149 315.384c-1.681 0-3.044 1.363-3.044 3.044s1.363 3.044 3.044 3.044c1.064 0 1.997-.547 2.542-1.374.16-.606.332-1.208.488-1.816-.077-1.611-1.398-2.898-3.03-2.898z"/><path d="m493.127 338.275c.266-.763.541-1.521.799-2.287-.506.544-.822 1.266-.822 2.068.001.075.018.145.023.219z"/><path d="m476.522 138.741c-1.681 0-3.044 1.363-3.044 3.044s1.363 3.044 3.044 3.044 3.044-1.363 3.044-3.044c0-.398-.081-.776-.22-1.125-.078-.151-.154-.303-.232-.453-.535-.877-1.49-1.466-2.592-1.466z"/><path d="m485.771 154.112c-.606-1.373-1.221-2.743-1.851-4.104-.164.374-.259.786-.259 1.221 0 1.353.889 2.486 2.11 2.883z"/><path d="m476.522 158.368c-1.681 0-3.044 1.363-3.044 3.044s1.363 3.044 3.044 3.044 3.044-1.363 3.044-3.044c.001-1.681-1.362-3.044-3.044-3.044z"/><path d="m486.705 167.812c-1.681 0-3.044 1.363-3.044 3.044s1.363 3.044 3.044 3.044c1.682 0 3.045-1.363 3.045-3.044s-1.363-3.044-3.045-3.044z"/><path d="m486.705 187.439c-1.681 0-3.044 1.363-3.044 3.044s1.363 3.044 3.044 3.044c1.682 0 3.045-1.363 3.045-3.044s-1.363-3.044-3.045-3.044z"/><path d="m486.705 207.066c-1.681 0-3.044 1.363-3.044 3.045 0 1.681 1.363 3.044 3.044 3.044 1.682 0 3.045-1.363 3.045-3.044 0-1.682-1.363-3.045-3.045-3.045z"/><path d="m486.705 226.693c-1.681 0-3.044 1.363-3.044 3.044s1.363 3.044 3.044 3.044c1.682 0 3.045-1.363 3.045-3.044s-1.363-3.044-3.045-3.044z"/><path d="m476.522 236.876c-1.681 0-3.044 1.363-3.044 3.044s1.363 3.044 3.044 3.044 3.044-1.363 3.044-3.044c.001-1.681-1.362-3.044-3.044-3.044z"/><path d="m486.705 246.32c-1.681 0-3.044 1.363-3.044 3.044s1.363 3.044 3.044 3.044c1.682 0 3.045-1.363 3.045-3.044s-1.363-3.044-3.045-3.044z"/><path d="m476.522 256.503c-1.681 0-3.044 1.363-3.044 3.044s1.363 3.044 3.044 3.044 3.044-1.363 3.044-3.044-1.362-3.044-3.044-3.044z"/><path d="m486.705 265.947c-1.681 0-3.044 1.363-3.044 3.044s1.363 3.044 3.044 3.044c1.682 0 3.045-1.363 3.045-3.044s-1.363-3.044-3.045-3.044z"/><path d="m476.522 276.13c-1.681 0-3.044 1.363-3.044 3.044s1.363 3.044 3.044 3.044 3.044-1.363 3.044-3.044-1.362-3.044-3.044-3.044z"/><path d="m486.705 285.574c-1.681 0-3.044 1.363-3.044 3.044s1.363 3.044 3.044 3.044c1.682 0 3.045-1.363 3.045-3.044s-1.363-3.044-3.045-3.044z"/><path d="m476.522 295.757c-1.681 0-3.044 1.363-3.044 3.044s1.363 3.044 3.044 3.044 3.044-1.363 3.044-3.044c.001-1.681-1.362-3.044-3.044-3.044z"/><path d="m486.705 305.201c-1.681 0-3.044 1.363-3.044 3.044s1.363 3.044 3.044 3.044c1.682 0 3.045-1.363 3.045-3.044s-1.363-3.044-3.045-3.044z"/><path d="m476.522 315.384c-1.681 0-3.044 1.363-3.044 3.044s1.363 3.044 3.044 3.044 3.044-1.363 3.044-3.044c.001-1.681-1.362-3.044-3.044-3.044z"/><path d="m486.705 324.828c-1.681 0-3.044 1.363-3.044 3.044s1.363 3.045 3.044 3.045c1.682 0 3.045-1.363 3.045-3.045 0-1.681-1.363-3.044-3.045-3.044z"/><path d="m476.522 335.011c-1.681 0-3.044 1.363-3.044 3.044s1.363 3.044 3.044 3.044 3.044-1.363 3.044-3.044c.001-1.681-1.362-3.044-3.044-3.044z"/><path d="m486.705 344.455c-1.681 0-3.044 1.363-3.044 3.044s1.363 3.044 3.044 3.044c.837 0 1.595-.339 2.146-.886.298-.736.603-1.47.894-2.21-.028-1.656-1.376-2.992-3.04-2.992z"/><path d="m476.522 354.638c-1.681 0-3.044 1.363-3.044 3.044s1.363 3.044 3.044 3.044 3.044-1.363 3.044-3.044c.001-1.681-1.362-3.044-3.044-3.044z"/><path d="m473.478 377.31c0 .869.369 1.648.953 2.203.966-1.702 1.914-3.417 2.842-5.144-.241-.062-.49-.104-.751-.104-1.681 0-3.044 1.364-3.044 3.045z"/><path d="m456.895 105.575c.185 0 .363-.023.538-.055-1.076-1.446-2.169-2.879-3.275-4.301-.191.398-.307.839-.307 1.311 0 1.682 1.363 3.045 3.044 3.045z"/><circle cx="456.895" cy="122.158" r="3.044"/><path d="m467.078 128.558c-1.681 0-3.044 1.363-3.044 3.044s1.363 3.044 3.044 3.044 3.045-1.363 3.045-3.044c0-1.682-1.363-3.044-3.045-3.044z"/><circle cx="456.895" cy="141.785" r="3.044"/><path d="m467.078 148.185c-1.681 0-3.044 1.363-3.044 3.044s1.363 3.044 3.044 3.044 3.045-1.363 3.045-3.044-1.363-3.044-3.045-3.044z"/><path d="m467.078 265.947c-1.681 0-3.044 1.363-3.044 3.044s1.363 3.044 3.044 3.044 3.045-1.363 3.045-3.044-1.363-3.044-3.045-3.044z"/><path d="m467.078 285.574c-1.681 0-3.044 1.363-3.044 3.044s1.363 3.044 3.044 3.044 3.045-1.363 3.045-3.044-1.363-3.044-3.045-3.044z"/><path d="m467.078 305.201c-1.681 0-3.044 1.363-3.044 3.044s1.363 3.044 3.044 3.044 3.045-1.363 3.045-3.044-1.363-3.044-3.045-3.044z"/><path d="m467.078 324.828c-1.681 0-3.044 1.363-3.044 3.044s1.363 3.045 3.044 3.045 3.045-1.363 3.045-3.045c0-1.681-1.363-3.044-3.045-3.044z"/><path d="m467.078 344.455c-1.681 0-3.044 1.363-3.044 3.044s1.363 3.044 3.044 3.044 3.045-1.363 3.045-3.044-1.363-3.044-3.045-3.044z"/><path d="m456.895 354.638c-1.681 0-3.044 1.363-3.044 3.044s1.363 3.044 3.044 3.044 3.044-1.363 3.044-3.044c.001-1.681-1.362-3.044-3.044-3.044z"/><path d="m467.078 364.082c-1.681 0-3.044 1.363-3.044 3.044s1.363 3.044 3.044 3.044 3.045-1.363 3.045-3.044-1.363-3.044-3.045-3.044z"/><path d="m456.895 374.265c-1.681 0-3.044 1.363-3.044 3.045 0 1.681 1.363 3.044 3.044 3.044s3.044-1.363 3.044-3.044c.001-1.681-1.362-3.045-3.044-3.045z"/><path d="m467.078 383.709c-1.681 0-3.044 1.363-3.044 3.044s1.363 3.044 3.044 3.044c.512 0 .988-.138 1.411-.362.545-.865 1.09-1.731 1.625-2.604.001-.027.008-.052.008-.079.001-1.679-1.362-3.043-3.044-3.043z"/><path d="m456.895 393.892c-1.681 0-3.044 1.363-3.044 3.044s1.363 3.044 3.044 3.044 3.044-1.363 3.044-3.044-1.362-3.044-3.044-3.044z"/><path d="m434.224 82.904c0 1.681 1.363 3.044 3.044 3.044 1.119 0 2.086-.61 2.615-1.509-1.322-1.423-2.659-2.833-4.013-4.225-.974.508-1.646 1.515-1.646 2.69z"/><path d="m447.451 95.392c.603 0 1.16-.18 1.633-.482-1.282-1.542-2.581-3.068-3.898-4.579-.479.538-.78 1.239-.78 2.017.001 1.681 1.364 3.044 3.045 3.044z"/><path d="m437.268 99.486c-1.681 0-3.044 1.363-3.044 3.044s1.363 3.045 3.044 3.045 3.044-1.363 3.044-3.045-1.362-3.044-3.044-3.044z"/><path d="m447.451 108.93c-1.681 0-3.044 1.363-3.044 3.044s1.363 3.045 3.044 3.045 3.045-1.363 3.045-3.045-1.363-3.044-3.045-3.044z"/><path d="m437.268 119.114c-1.681 0-3.044 1.363-3.044 3.044s1.363 3.044 3.044 3.044 3.044-1.363 3.044-3.044-1.362-3.044-3.044-3.044z"/><path d="m447.451 128.558c-1.681 0-3.044 1.363-3.044 3.044s1.363 3.044 3.044 3.044 3.045-1.363 3.045-3.044c0-1.682-1.363-3.044-3.045-3.044z"/><path d="m447.451 383.709c-1.681 0-3.044 1.363-3.044 3.044s1.363 3.044 3.044 3.044 3.045-1.363 3.045-3.044c0-1.68-1.363-3.044-3.045-3.044z"/><path d="m437.268 393.892c-1.681 0-3.044 1.363-3.044 3.044s1.363 3.044 3.044 3.044 3.044-1.363 3.044-3.044-1.362-3.044-3.044-3.044z"/><path d="m447.451 403.336c-1.681 0-3.044 1.363-3.044 3.044s1.363 3.044 3.044 3.044 3.045-1.363 3.045-3.044-1.363-3.044-3.045-3.044z"/><path d="m437.268 419.608c1.681 0 3.044-1.363 3.044-3.044s-1.363-3.044-3.044-3.044-3.044 1.363-3.044 3.044 1.363 3.044 3.044 3.044z"/><path d="m417.641 66.321c.939 0 1.767-.434 2.326-1.102-1.528-1.321-3.068-2.63-4.628-3.915-.457.533-.742 1.216-.742 1.972 0 1.682 1.363 3.045 3.044 3.045z"/><path d="m424.78 72.721c0 1.681 1.363 3.044 3.045 3.044.977 0 1.837-.469 2.394-1.184-1.448-1.397-2.914-2.775-4.395-4.138-.636.558-1.044 1.366-1.044 2.278z"/><circle cx="417.641" cy="82.904" r="3.044"/><path d="m427.824 89.303c-1.681 0-3.045 1.363-3.045 3.044s1.363 3.044 3.045 3.044c1.681 0 3.044-1.363 3.044-3.044s-1.363-3.044-3.044-3.044z"/><path d="m420.685 102.531c0-1.681-1.363-3.044-3.044-3.044-.293 0-.571.055-.839.132.626 1.919 1.231 3.846 1.811 5.784 1.202-.408 2.072-1.533 2.072-2.872z"/><path d="m427.824 108.93c-1.681 0-3.045 1.363-3.045 3.044s1.363 3.045 3.045 3.045c1.681 0 3.044-1.363 3.044-3.045s-1.363-3.044-3.044-3.044z"/><path d="m427.824 383.709c-1.681 0-3.045 1.363-3.045 3.044s1.363 3.044 3.045 3.044c1.681 0 3.044-1.363 3.044-3.044 0-1.68-1.363-3.044-3.044-3.044z"/><path d="m417.641 393.892c-1.681 0-3.044 1.363-3.044 3.044s1.363 3.044 3.044 3.044 3.044-1.363 3.044-3.044-1.362-3.044-3.044-3.044z"/><path d="m427.824 403.336c-1.681 0-3.045 1.363-3.045 3.044s1.363 3.044 3.045 3.044c1.681 0 3.044-1.363 3.044-3.044s-1.363-3.044-3.044-3.044z"/><path d="m417.641 413.52c-1.681 0-3.044 1.363-3.044 3.044s1.363 3.044 3.044 3.044 3.044-1.363 3.044-3.044-1.362-3.044-3.044-3.044z"/><path d="m427.824 422.964c-1.681 0-3.045 1.363-3.045 3.044s1.363 3.044 3.045 3.044c1.681 0 3.044-1.363 3.044-3.044s-1.363-3.044-3.044-3.044z"/><path d="m417.641 433.147c-1.681 0-3.044 1.363-3.044 3.044s1.363 3.044 3.044 3.044 3.044-1.363 3.044-3.044-1.362-3.044-3.044-3.044z"/><path d="m408.197 56.138c.196 0 .387-.022.573-.058-1.188-.914-2.385-1.815-3.59-2.708.144 1.549 1.431 2.766 3.017 2.766z"/><path d="m408.197 69.676c-1.126 0-2.098.618-2.625 1.527.698 1.493 1.383 2.994 2.052 4.504.186.035.376.058.572.058 1.681 0 3.044-1.363 3.044-3.044.001-1.682-1.362-3.045-3.043-3.045z"/><path d="m408.197 403.336c-1.681 0-3.044 1.363-3.044 3.044s1.363 3.044 3.044 3.044 3.044-1.363 3.044-3.044-1.363-3.044-3.044-3.044z"/><path d="m398.014 413.52c-1.681 0-3.044 1.363-3.044 3.044s1.363 3.044 3.044 3.044 3.044-1.363 3.044-3.044-1.363-3.044-3.044-3.044z"/><path d="m408.197 422.964c-1.681 0-3.044 1.363-3.044 3.044s1.363 3.044 3.044 3.044 3.044-1.363 3.044-3.044-1.363-3.044-3.044-3.044z"/><path d="m398.014 433.147c-1.681 0-3.044 1.363-3.044 3.044s1.363 3.044 3.044 3.044 3.044-1.363 3.044-3.044-1.363-3.044-3.044-3.044z"/><path d="m408.197 442.591c-1.681 0-3.044 1.363-3.044 3.044s1.363 3.044 3.044 3.044 3.044-1.363 3.044-3.044-1.363-3.044-3.044-3.044z"/><circle cx="398.014" cy="455.818" r="3.044"/><path d="m388.57 403.336c-1.681 0-3.044 1.363-3.044 3.044s1.363 3.044 3.044 3.044 3.044-1.363 3.044-3.044-1.363-3.044-3.044-3.044z"/><path d="m378.387 413.52c-1.681 0-3.044 1.363-3.044 3.044s1.363 3.044 3.044 3.044 3.044-1.363 3.044-3.044-1.363-3.044-3.044-3.044z"/><path d="m388.57 422.964c-1.681 0-3.044 1.363-3.044 3.044s1.363 3.044 3.044 3.044 3.044-1.363 3.044-3.044-1.363-3.044-3.044-3.044z"/><path d="m378.387 433.147c-1.681 0-3.044 1.363-3.044 3.044s1.363 3.044 3.044 3.044 3.044-1.363 3.044-3.044-1.363-3.044-3.044-3.044z"/><path d="m388.57 442.591c-1.681 0-3.044 1.363-3.044 3.044s1.363 3.044 3.044 3.044 3.044-1.363 3.044-3.044-1.363-3.044-3.044-3.044z"/><path d="m378.387 452.774c-1.681 0-3.044 1.363-3.044 3.044s1.363 3.044 3.044 3.044 3.044-1.363 3.044-3.044-1.363-3.044-3.044-3.044z"/><path d="m388.57 462.218c-1.681 0-3.044 1.363-3.044 3.044s1.363 3.044 3.044 3.044 3.044-1.363 3.044-3.044-1.363-3.044-3.044-3.044z"/><path d="m378.387 472.401c-1.681 0-3.044 1.363-3.044 3.044 0 .42.085.82.239 1.184 1.771-.964 3.53-1.948 5.275-2.953-.553-.769-1.45-1.275-2.47-1.275z"/><path d="m368.943 422.964c-1.681 0-3.044 1.363-3.044 3.044s1.363 3.044 3.044 3.044 3.045-1.363 3.045-3.044-1.364-3.044-3.045-3.044z"/><path d="m358.76 433.147c-1.681 0-3.044 1.363-3.044 3.044s1.363 3.044 3.044 3.044c1.682 0 3.044-1.363 3.044-3.044s-1.363-3.044-3.044-3.044z"/><path d="m368.943 442.591c-1.681 0-3.044 1.363-3.044 3.044s1.363 3.044 3.044 3.044 3.045-1.363 3.045-3.044-1.364-3.044-3.045-3.044z"/><circle cx="358.76" cy="455.818" r="3.044"/><path d="m368.943 462.218c-1.681 0-3.044 1.363-3.044 3.044s1.363 3.044 3.044 3.044 3.045-1.363 3.045-3.044c-.001-1.681-1.364-3.044-3.045-3.044z"/><path d="m358.76 472.401c-1.681 0-3.044 1.363-3.044 3.044s1.363 3.044 3.044 3.044c1.682 0 3.044-1.363 3.044-3.044s-1.363-3.044-3.044-3.044z"/><path d="m349.316 442.591c-1.681 0-3.044 1.363-3.044 3.044s1.363 3.044 3.044 3.044c1.682 0 3.044-1.363 3.044-3.044s-1.363-3.044-3.044-3.044z"/><circle cx="339.133" cy="455.818" r="3.044"/><path d="m349.316 462.218c-1.681 0-3.044 1.363-3.044 3.044s1.363 3.044 3.044 3.044c1.682 0 3.044-1.363 3.044-3.044s-1.363-3.044-3.044-3.044z"/><path d="m339.133 472.401c-1.681 0-3.044 1.363-3.044 3.044s1.363 3.044 3.044 3.044 3.044-1.363 3.044-3.044-1.363-3.044-3.044-3.044z"/><path d="m349.316 481.845c-1.681 0-3.044 1.363-3.044 3.044s1.363 3.044 3.044 3.044c1.682 0 3.044-1.363 3.044-3.044s-1.363-3.044-3.044-3.044z"/><path d="m336.377 493.796c1.373-.466 2.736-.955 4.098-1.444-.406-.201-.858-.325-1.342-.325-1.224.001-2.272.727-2.756 1.769z"/><path d="m329.689 462.218c-1.681 0-3.044 1.363-3.044 3.044s1.363 3.044 3.044 3.044 3.045-1.363 3.045-3.044c-.001-1.681-1.364-3.044-3.045-3.044z"/><path d="m319.506 472.401c-1.681 0-3.044 1.363-3.044 3.044s1.363 3.044 3.044 3.044 3.044-1.363 3.044-3.044-1.363-3.044-3.044-3.044z"/><path d="m329.689 481.845c-1.681 0-3.044 1.363-3.044 3.044s1.363 3.044 3.044 3.044 3.045-1.363 3.045-3.044-1.364-3.044-3.045-3.044z"/><path d="m319.506 492.028c-1.681 0-3.044 1.363-3.044 3.044s1.363 3.044 3.044 3.044 3.044-1.363 3.044-3.044-1.363-3.044-3.044-3.044z"/><path d="m299.879 472.401c-1.681 0-3.044 1.363-3.044 3.044s1.363 3.044 3.044 3.044 3.044-1.363 3.044-3.044-1.363-3.044-3.044-3.044z"/><path d="m310.062 481.845c-1.681 0-3.044 1.363-3.044 3.044s1.363 3.044 3.044 3.044 3.044-1.363 3.044-3.044-1.363-3.044-3.044-3.044z"/><circle cx="299.879" cy="495.072" r="3.044"/><path d="m280.252 472.401c-1.681 0-3.044 1.363-3.044 3.044s1.363 3.044 3.044 3.044 3.044-1.363 3.044-3.044-1.363-3.044-3.044-3.044z"/><path d="m290.435 481.845c-1.681 0-3.044 1.363-3.044 3.044s1.363 3.044 3.044 3.044 3.044-1.363 3.044-3.044-1.363-3.044-3.044-3.044z"/><circle cx="280.252" cy="495.072" r="3.044"/><path d="m290.435 501.472c-1.681 0-3.044 1.363-3.044 3.044 0 .187.023.369.055.547 2.009-.254 4.01-.535 6.004-.836-.148-1.544-1.433-2.755-3.015-2.755z"/><path d="m260.625 472.401c-1.681 0-3.044 1.363-3.044 3.044s1.363 3.044 3.044 3.044 3.044-1.363 3.044-3.044-1.363-3.044-3.044-3.044z"/><path d="m270.808 481.845c-1.681 0-3.044 1.363-3.044 3.044s1.363 3.044 3.044 3.044 3.044-1.363 3.044-3.044-1.363-3.044-3.044-3.044z"/><path d="m260.625 498.116c1.681 0 3.044-1.363 3.044-3.044s-1.363-3.044-3.044-3.044-3.044 1.363-3.044 3.044c-.001 1.682 1.362 3.044 3.044 3.044z"/><path d="m273.852 504.516c0-1.681-1.363-3.044-3.044-3.044s-3.044 1.363-3.044 3.044c0 .873.372 1.655.961 2.21 1.478-.077 2.949-.178 4.42-.28.435-.527.707-1.193.707-1.93z"/><circle cx="240.997" cy="455.818" r="3.044"/><path d="m251.18 462.218c-1.681 0-3.044 1.363-3.044 3.044s1.363 3.044 3.044 3.044 3.044-1.363 3.044-3.044c.001-1.681-1.362-3.044-3.044-3.044z"/><path d="m240.997 472.401c-1.682 0-3.044 1.363-3.044 3.044s1.363 3.044 3.044 3.044 3.044-1.363 3.044-3.044-1.362-3.044-3.044-3.044z"/><path d="m251.18 481.845c-1.681 0-3.044 1.363-3.044 3.044s1.363 3.044 3.044 3.044 3.044-1.363 3.044-3.044-1.362-3.044-3.044-3.044z"/><circle cx="240.997" cy="495.072" r="3.044"/><path d="m254.225 504.516c0-1.681-1.363-3.044-3.044-3.044s-3.044 1.363-3.044 3.044c0 1.02.507 1.919 1.277 2.471 1.151.028 2.303.048 3.458.06.815-.546 1.353-1.475 1.353-2.531z"/><circle cx="221.37" cy="455.818" r="3.044"/><path d="m231.553 462.218c-1.681 0-3.044 1.363-3.044 3.044s1.363 3.044 3.044 3.044 3.044-1.363 3.044-3.044c.001-1.681-1.362-3.044-3.044-3.044z"/><path d="m221.37 472.401c-1.681 0-3.044 1.363-3.044 3.044s1.363 3.044 3.044 3.044 3.044-1.363 3.044-3.044-1.362-3.044-3.044-3.044z"/><path d="m231.553 481.845c-1.681 0-3.044 1.363-3.044 3.044s1.363 3.044 3.044 3.044 3.044-1.363 3.044-3.044-1.362-3.044-3.044-3.044z"/><circle cx="221.37" cy="495.072" r="3.044"/><path d="m234.598 504.516c0-1.681-1.363-3.044-3.044-3.044s-3.044 1.363-3.044 3.044c0 .4.082.781.223 1.132 1.787.189 3.578.363 5.376.515.306-.475.489-1.038.489-1.647z"/><path d="m211.926 442.591c-1.681 0-3.045 1.363-3.045 3.044s1.363 3.044 3.045 3.044c1.681 0 3.044-1.363 3.044-3.044s-1.362-3.044-3.044-3.044z"/><path d="m201.743 452.774c-1.681 0-3.044 1.363-3.044 3.044s1.363 3.044 3.044 3.044 3.044-1.363 3.044-3.044-1.362-3.044-3.044-3.044z"/><path d="m211.926 462.218c-1.681 0-3.045 1.363-3.045 3.044s1.363 3.044 3.045 3.044c1.681 0 3.044-1.363 3.044-3.044.001-1.681-1.362-3.044-3.044-3.044z"/><path d="m201.743 472.401c-1.681 0-3.044 1.363-3.044 3.044s1.363 3.044 3.044 3.044 3.044-1.363 3.044-3.044-1.362-3.044-3.044-3.044z"/><path d="m211.926 481.845c-1.681 0-3.045 1.363-3.045 3.044s1.363 3.044 3.045 3.044c1.681 0 3.044-1.363 3.044-3.044s-1.362-3.044-3.044-3.044z"/><path d="m201.743 492.028c-1.681 0-3.044 1.363-3.044 3.044s1.363 3.044 3.044 3.044 3.044-1.363 3.044-3.044c.001-1.681-1.362-3.044-3.044-3.044z"/><path d="m211.926 501.472c-1.06 0-1.991.543-2.537 1.365 1.822.338 3.65.66 5.486.959-.325-1.332-1.517-2.324-2.949-2.324z"/><circle cx="192.299" cy="445.635" r="3.044"/><circle cx="182.116" cy="455.818" r="3.044"/><path d="m192.299 462.218c-1.681 0-3.044 1.363-3.044 3.044s1.363 3.044 3.044 3.044 3.044-1.363 3.044-3.044c.001-1.681-1.362-3.044-3.044-3.044z"/><path d="m182.116 472.401c-1.681 0-3.044 1.363-3.044 3.044s1.363 3.044 3.044 3.044 3.044-1.363 3.044-3.044-1.362-3.044-3.044-3.044z"/><path d="m192.299 481.845c-1.681 0-3.044 1.363-3.044 3.044s1.363 3.044 3.044 3.044 3.044-1.363 3.044-3.044-1.362-3.044-3.044-3.044z"/><path d="m182.116 492.028c-1.681 0-3.044 1.363-3.044 3.044 0 .055.013.107.016.162 1.807.576 3.626 1.128 5.451 1.664.385-.51.622-1.138.622-1.826 0-1.681-1.363-3.044-3.045-3.044z"/><path d="m172.672 442.591c-1.681 0-3.044 1.363-3.044 3.044s1.363 3.044 3.044 3.044 3.045-1.363 3.045-3.044-1.363-3.044-3.045-3.044z"/><path d="m162.489 452.774c-1.681 0-3.044 1.363-3.044 3.044s1.363 3.044 3.044 3.044 3.045-1.363 3.045-3.044-1.363-3.044-3.045-3.044z"/><path d="m172.672 462.218c-1.681 0-3.044 1.363-3.044 3.044s1.363 3.044 3.044 3.044 3.045-1.363 3.045-3.044-1.363-3.044-3.045-3.044z"/><path d="m162.489 472.401c-1.681 0-3.044 1.363-3.044 3.044s1.363 3.044 3.044 3.044 3.045-1.363 3.045-3.044-1.363-3.044-3.045-3.044z"/><path d="m172.672 481.845c-1.681 0-3.044 1.363-3.044 3.044s1.363 3.044 3.044 3.044 3.045-1.363 3.045-3.044-1.363-3.044-3.045-3.044z"/><path d="m153.045 442.591c-1.681 0-3.044 1.363-3.044 3.044s1.363 3.044 3.044 3.044 3.044-1.363 3.044-3.044-1.362-3.044-3.044-3.044z"/><path d="m142.862 452.774c-1.681 0-3.044 1.363-3.044 3.044s1.363 3.044 3.044 3.044 3.044-1.363 3.044-3.044-1.362-3.044-3.044-3.044z"/><path d="m153.045 462.218c-1.681 0-3.044 1.363-3.044 3.044s1.363 3.044 3.044 3.044 3.044-1.363 3.044-3.044c.001-1.681-1.362-3.044-3.044-3.044z"/><path d="m142.862 472.401c-1.681 0-3.044 1.363-3.044 3.044s1.363 3.044 3.044 3.044 3.044-1.363 3.044-3.044-1.362-3.044-3.044-3.044z"/><path d="m153.045 481.845c-1.365 0-2.506.904-2.893 2.141 1.82.841 3.655 1.656 5.499 2.455.272-.456.438-.982.438-1.551.001-1.682-1.362-3.045-3.044-3.045z"/><path d="m123.235 433.147c-1.682 0-3.044 1.363-3.044 3.044s1.363 3.044 3.044 3.044 3.044-1.363 3.044-3.044c.001-1.681-1.363-3.044-3.044-3.044z"/><path d="m133.418 442.591c-1.681 0-3.045 1.363-3.045 3.044s1.363 3.044 3.045 3.044c1.681 0 3.044-1.363 3.044-3.044s-1.363-3.044-3.044-3.044z"/><path d="m123.235 452.774c-1.682 0-3.044 1.363-3.044 3.044s1.363 3.044 3.044 3.044 3.044-1.363 3.044-3.044-1.363-3.044-3.044-3.044z"/><path d="m133.418 462.218c-1.681 0-3.045 1.363-3.045 3.044s1.363 3.044 3.045 3.044c1.681 0 3.044-1.363 3.044-3.044s-1.363-3.044-3.044-3.044z"/><path d="m100.563 436.191c0 1.681 1.363 3.044 3.045 3.044 1.681 0 3.044-1.363 3.044-3.044s-1.363-3.044-3.044-3.044c-1.682 0-3.045 1.363-3.045 3.044z"/><path d="m113.791 442.591c-1.681 0-3.044 1.363-3.044 3.044s1.363 3.044 3.044 3.044 3.045-1.363 3.045-3.044-1.364-3.044-3.045-3.044z"/><path d="m103.608 452.774c-1.033 0-1.943.517-2.493 1.304 1.595 1.242 3.202 2.469 4.827 3.673.437-.527.71-1.194.71-1.932 0-1.682-1.363-3.045-3.044-3.045z"/><path d="m113.791 462.218c-.443 0-.862.099-1.241.27 1.413.979 2.84 1.939 4.274 2.888.002-.039.012-.075.012-.114 0-1.681-1.364-3.044-3.045-3.044z"/><path d="m80.936 416.564c0 1.681 1.363 3.044 3.045 3.044 1.681 0 3.044-1.363 3.044-3.044s-1.363-3.044-3.044-3.044c-1.682 0-3.045 1.363-3.045 3.044z"/><path d="m91.119 426.008c0 1.681 1.363 3.044 3.045 3.044 1.681 0 3.044-1.363 3.044-3.044s-1.363-3.044-3.044-3.044-3.045 1.363-3.045 3.044z"/><path d="m87.025 436.191c0-1.681-1.363-3.044-3.044-3.044-1.682 0-3.045 1.363-3.045 3.044 0 .143.023.279.042.416.906.874 1.819 1.741 2.738 2.602.089.008.174.026.265.026 1.681 0 3.044-1.363 3.044-3.044z"/><path d="m97.208 445.635c0-1.681-1.363-3.044-3.044-3.044s-3.045 1.363-3.045 3.044c0 .092.019.178.027.268 1.073.928 2.156 1.844 3.244 2.754 1.574-.118 2.818-1.418 2.818-3.022z"/><path d="m67.398 416.564c0-1.681-1.363-3.044-3.044-3.044-1.329 0-2.447.857-2.862 2.044 1.11 1.344 2.237 2.673 3.373 3.994 1.437-.245 2.533-1.488 2.533-2.994z"/><path d="m74.537 429.052c1.681 0 3.044-1.363 3.044-3.044s-1.363-3.044-3.044-3.044-3.045 1.363-3.045 3.044c0 .447.102.868.275 1.25.448.479.902.953 1.353 1.429.425.226.902.365 1.417.365z"/><path d="m45.554 394.02c.72 1.089 1.448 2.173 2.184 3.25.012-.111.034-.219.034-.333-.001-1.393-.942-2.554-2.218-2.917z"/><path d="m57.954 406.381c0-1.681-1.363-3.044-3.044-3.044-.867 0-1.645.366-2.199.948 1.182 1.609 2.378 3.207 3.597 4.786.974-.508 1.646-1.516 1.646-2.69z"/></g><path d="m436.239 74.847c-48.266-48.266-112.438-74.847-180.696-74.847s-132.43 26.581-180.696 74.847c-48.266 48.266-74.847 112.438-74.847 180.696s26.581 132.43 74.846 180.696c48.266 48.265 112.439 74.846 180.696 74.846 68.258 0 132.43-26.581 180.697-74.846 48.265-48.266 74.847-112.438 74.847-180.696s-26.582-132.43-74.847-180.696zm-115.373 180.696c0 36.02-29.303 65.323-65.323 65.323-36.019 0-65.323-29.303-65.323-65.323s29.304-65.323 65.323-65.323 65.323 29.303 65.323 65.323zm39.573-224.147c-10.938-1.68-22.673-1.156-34.182-.64-11.844.532-24.089 1.083-34.761-.903-10.066-1.873-20.407-6.472-31.355-11.342-7.935-3.529-15.987-7.108-24.144-9.707 6.45-.506 12.967-.77 19.545-.77 37.479 0 73.03 8.388 104.897 23.362zm-185.747-9.788c-6.516 5.75-12.513 12.397-18.423 18.946-8.026 8.896-15.608 17.298-24.046 23.098-8.945 6.148-20.359 10.618-31.398 14.941-11.506 4.506-23.255 9.11-32.981 15.794 28.281-32.892 65.037-58.288 106.848-72.779zm80.851 481.444c-136.477 0-247.509-111.032-247.509-247.509 0-48.969 14.297-94.66 38.932-133.124-3.906 13.29-3.235 28.334-2.575 43.01.532 11.843 1.083 24.089-.903 34.761-1.873 10.067-6.472 20.408-11.341 31.355-8.182 18.394-16.642 37.415-12.501 56.928 4.141 19.512 19.597 33.458 34.544 46.945 8.896 8.026 17.298 15.608 23.098 24.046 6.148 8.945 10.618 20.36 14.941 31.398 7.229 18.459 14.704 37.546 30.63 47.896s36.405 9.43 56.208 8.539c11.842-.532 24.088-1.083 34.76.903 10.067 1.873 20.407 6.472 31.354 11.342 15.065 6.701 30.548 13.588 46.378 13.588 3.5 0 7.018-.337 10.55-1.086 19.513-4.141 33.46-19.597 46.946-34.544 8.026-8.895 15.608-17.298 24.045-23.098 8.945-6.149 20.36-10.619 31.398-14.942 18.459-7.229 37.547-14.704 47.896-30.629 10.35-15.925 9.429-36.403 8.538-56.207-.533-11.843-1.083-24.089.903-34.76 1.873-10.067 6.472-20.407 11.342-31.355 8.182-18.394 16.642-37.415 12.502-56.927 0-.001 0-.001 0-.001-4.141-19.513-19.597-33.458-34.544-46.945-8.896-8.027-17.299-15.608-23.099-24.046-6.149-8.945-10.618-20.36-14.941-31.398-4.964-12.675-10.045-25.647-17.898-35.882 65.078 44.64 107.856 119.53 107.856 204.234-.001 136.476-111.033 247.508-247.51 247.508z" fill="#31373d"/><path d="m179.382 107.614-20.357 17.519c-5.421 4.665-13.597 4.053-18.262-1.368-4.665-5.421-4.052-13.597 1.368-18.262l20.357-17.519c5.421-4.665 13.597-4.053 18.262 1.368 4.665 5.42 4.053 13.597-1.368 18.262z" fill="#eaa895"/><path d="m134.174 202.493-26.122 6.24c-6.956 1.662-13.942-2.63-15.604-9.586-1.662-6.956 2.63-13.942 9.586-15.604l26.123-6.24c6.956-1.662 13.942 2.63 15.604 9.586 1.661 6.957-2.631 13.943-9.587 15.604z" fill="#eaa895"/><path d="m271.784 130.095-23.259 13.429c-6.193 3.576-14.113 1.454-17.689-4.74-3.576-6.193-1.454-14.113 4.74-17.689l23.259-13.429c6.193-3.576 14.113-1.454 17.689 4.74 3.576 6.193 1.454 14.113-4.74 17.689z" fill="#f9fbfc"/><path d="m348.544 182.992v-26.857c0-7.152 5.798-12.949 12.949-12.949 7.152 0 12.949 5.798 12.949 12.949v26.857c0 7.152-5.797 12.949-12.949 12.949-7.152 0-12.949-5.798-12.949-12.949z" fill="#eaa895"/><path d="m404.047 226.562 19.918 18.017c5.304 4.797 5.714 12.986.917 18.29-4.797 5.304-12.986 5.714-18.29.917l-19.918-18.017c-5.304-4.797-5.714-12.986-.917-18.29 4.797-5.304 12.986-5.714 18.29-.917z" fill="#eaa895"/><path d="m125.881 311.948-25.649-7.967c-6.83-2.121-10.647-9.378-8.525-16.207 2.121-6.83 9.378-10.647 16.207-8.525l25.649 7.967c6.83 2.121 10.647 9.378 8.525 16.207-2.121 6.83-9.377 10.647-16.207 8.525z" fill="#f9fbfc"/><path d="m203.787 369.692-20.357 17.519c-5.421 4.665-13.597 4.052-18.262-1.368-4.665-5.421-4.053-13.597 1.368-18.262l20.357-17.519c5.421-4.665 13.597-4.052 18.262 1.368 4.665 5.42 4.053 13.597-1.368 18.262z" fill="#eaa895"/><path d="m277.334 378.706 26.576 3.88c7.077 1.033 11.976 7.607 10.943 14.684-1.033 7.077-7.608 11.976-14.684 10.943l-26.576-3.88c-7.077-1.033-11.976-7.607-10.943-14.684 1.033-7.076 7.608-11.976 14.684-10.943z" fill="#eaa895"/><g fill="#f9fbfc"><path d="m387.308 334.943-12.576 23.731c-3.349 6.319-11.186 8.727-17.505 5.379-6.319-3.349-8.727-11.186-5.379-17.505l12.576-23.731c3.349-6.319 11.186-8.727 17.505-5.379 6.32 3.349 8.728 11.186 5.379 17.505z"/><path d="m327.364 95.055-25.117-9.512c-6.688-2.533-10.057-10.008-7.524-16.696 2.533-6.688 10.008-10.057 16.696-7.524l25.117 9.512c6.688 2.533 10.057 10.008 7.524 16.696-2.533 6.688-10.008 10.057-16.696 7.524z"/></g></g></svg>