<svg id="Capa_1" enable-background="new 0 0 510.735 510.735" height="512" viewBox="0 0 510.735 510.735" width="512" xmlns="http://www.w3.org/2000/svg"><g><path d="m260.777 63.472v-44.156c0-8.458-6.857-15.316-15.316-15.316s-15.316 6.858-15.316 15.316v44.155h30.632z" fill="#f9fbfc"/><path d="m230.145 412.29v79.129c0 8.459 6.857 15.316 15.316 15.316s15.316-6.857 15.316-15.316v-79.129z" fill="#f9fbfc"/><path d="m415.637 129.927c0-7.218-3.786-13.502-9.388-16.838 1.935-26.315-17.997-49.203-43.684-49.203h-223.644c-26.775 0-47.289 24.86-43.337 52.518l26.553 185.806c-4.466 3.732-7.334 9.462-7.334 15.9 0 8.593 5.103 15.927 12.31 18.918l.993 6.951c-5.391 3.624-8.97 9.931-8.97 17.124 0 9.601 6.369 17.629 14.93 19.779 5.892 18.346 22.445 31.183 41.532 31.183h151.512c19.382 0 36.134-13.236 41.785-32.014 7.249-2.969 12.39-10.324 12.39-18.948 0-6.291-2.734-11.912-7.025-15.647l1.318-9.543c5.985-3.478 10.039-10.142 10.039-17.803 0-5.565-2.143-10.604-5.607-14.281l21.423-155.079c8.145-2.049 14.204-9.688 14.204-18.823z" fill="#eaa895"/><g fill="#f9fbfc"><path d="m402.38 98.48c-1.693 0-3.065 1.372-3.065 3.065 0 1.692 1.372 3.065 3.065 3.065s3.066-1.373 3.066-3.065-1.373-3.065-3.066-3.065z"/><path d="m402.38 118.243c-1.693 0-3.065 1.372-3.065 3.065 0 1.692 1.372 3.065 3.065 3.065s3.066-1.373 3.066-3.065c0-1.693-1.373-3.065-3.066-3.065z"/><path d="m412.634 127.752c-1.693 0-3.066 1.373-3.066 3.065 0 1.693 1.373 3.066 3.066 3.066 1.389 0 2.549-.93 2.926-2.197.043-.5.062-1.007.068-1.517-.299-1.381-1.525-2.417-2.994-2.417z"/><path d="m402.38 138.006c-1.693 0-3.065 1.372-3.065 3.065 0 1.692 1.372 3.065 3.065 3.065s3.066-1.373 3.066-3.065c0-1.693-1.373-3.065-3.066-3.065z"/><path d="m382.617 78.718c-1.693 0-3.065 1.372-3.065 3.066 0 1.692 1.372 3.065 3.065 3.065s3.065-1.373 3.065-3.065c.001-1.694-1.372-3.066-3.065-3.066z"/><path d="m392.871 88.227c-1.693 0-3.066 1.372-3.066 3.065s1.372 3.065 3.066 3.065c1.693 0 3.065-1.372 3.065-3.065s-1.372-3.065-3.065-3.065z"/><path d="m382.617 98.48c-1.693 0-3.065 1.372-3.065 3.065 0 1.692 1.372 3.065 3.065 3.065s3.065-1.373 3.065-3.065c.001-1.692-1.372-3.065-3.065-3.065z"/><path d="m392.871 107.989c-1.693 0-3.066 1.373-3.066 3.065 0 1.693 1.372 3.065 3.066 3.065 1.693 0 3.065-1.372 3.065-3.065 0-1.692-1.372-3.065-3.065-3.065z"/><path d="m382.617 118.243c-1.693 0-3.065 1.372-3.065 3.065 0 1.692 1.372 3.065 3.065 3.065s3.065-1.373 3.065-3.065c.001-1.693-1.372-3.065-3.065-3.065z"/><path d="m392.871 127.752c-1.693 0-3.066 1.373-3.066 3.065 0 1.693 1.372 3.066 3.066 3.066 1.693 0 3.065-1.372 3.065-3.066 0-1.692-1.372-3.065-3.065-3.065z"/><path d="m382.617 138.006c-1.693 0-3.065 1.372-3.065 3.065 0 1.692 1.372 3.065 3.065 3.065s3.065-1.373 3.065-3.065c.001-1.693-1.372-3.065-3.065-3.065z"/><path d="m392.871 147.515c-1.693 0-3.066 1.373-3.066 3.065 0 1.693 1.372 3.066 3.066 3.066 1.693 0 3.065-1.372 3.065-3.066 0-1.692-1.372-3.065-3.065-3.065z"/><path d="m382.617 157.769c-1.693 0-3.065 1.372-3.065 3.065 0 1.692 1.372 3.066 3.065 3.066s3.065-1.373 3.065-3.066c.001-1.693-1.372-3.065-3.065-3.065z"/><path d="m392.871 167.277c-1.693 0-3.066 1.373-3.066 3.065 0 1.693 1.372 3.066 3.066 3.066 1.693 0 3.065-1.373 3.065-3.066 0-1.692-1.372-3.065-3.065-3.065z"/><path d="m382.617 177.531c-1.693 0-3.065 1.372-3.065 3.065s1.372 3.066 3.065 3.066 3.065-1.372 3.065-3.066c.001-1.693-1.372-3.065-3.065-3.065z"/><path d="m392.871 187.041c-1.693 0-3.066 1.372-3.066 3.065 0 1.692 1.372 3.065 3.066 3.065 1.129 0 2.105-.618 2.637-1.527l.319-2.309c-.343-1.317-1.531-2.294-2.956-2.294z"/><path d="m382.617 197.294c-1.693 0-3.065 1.372-3.065 3.065s1.372 3.065 3.065 3.065 3.065-1.372 3.065-3.065c.001-1.693-1.372-3.065-3.065-3.065z"/><path d="m382.617 217.057c-1.693 0-3.065 1.372-3.065 3.065s1.372 3.065 3.065 3.065 3.065-1.372 3.065-3.065c.001-1.693-1.372-3.065-3.065-3.065z"/><path d="m382.617 236.819c-1.693 0-3.065 1.373-3.065 3.065 0 1.693 1.372 3.065 3.065 3.065s3.065-1.372 3.065-3.065c.001-1.692-1.372-3.065-3.065-3.065z"/><path d="m382.617 256.582c-1.693 0-3.065 1.373-3.065 3.065 0 1.693 1.372 3.065 3.065 3.065s3.065-1.372 3.065-3.065c.001-1.692-1.372-3.065-3.065-3.065z"/><path d="m382.617 315.871c-1.693 0-3.065 1.372-3.065 3.066 0 1.692 1.372 3.065 3.065 3.065 1.391 0 2.552-.933 2.927-2.202.039-.499.063-1.002.068-1.51-.297-1.383-1.524-2.419-2.995-2.419z"/><path d="m373.108 68.464c-1.693 0-3.065 1.372-3.065 3.065s1.372 3.066 3.065 3.066 3.065-1.372 3.065-3.066c0-1.693-1.372-3.065-3.065-3.065z"/><path d="m362.855 78.718c-1.693 0-3.065 1.372-3.065 3.066 0 1.692 1.373 3.065 3.065 3.065 1.693 0 3.065-1.373 3.065-3.065 0-1.694-1.372-3.066-3.065-3.066z"/><path d="m373.108 94.357c1.693 0 3.065-1.372 3.065-3.065s-1.372-3.065-3.065-3.065-3.065 1.372-3.065 3.065 1.372 3.065 3.065 3.065z"/><path d="m362.855 98.48c-1.693 0-3.065 1.372-3.065 3.065 0 1.692 1.373 3.065 3.065 3.065 1.693 0 3.065-1.373 3.065-3.065s-1.372-3.065-3.065-3.065z"/><path d="m373.108 114.12c1.693 0 3.065-1.372 3.065-3.065 0-1.692-1.372-3.065-3.065-3.065s-3.065 1.373-3.065 3.065c0 1.693 1.372 3.065 3.065 3.065z"/><path d="m362.855 118.243c-1.693 0-3.065 1.372-3.065 3.065 0 1.692 1.373 3.065 3.065 3.065 1.693 0 3.065-1.373 3.065-3.065 0-1.693-1.372-3.065-3.065-3.065z"/><path d="m373.108 133.883c1.693 0 3.065-1.372 3.065-3.066 0-1.692-1.372-3.065-3.065-3.065s-3.065 1.373-3.065 3.065c0 1.694 1.372 3.066 3.065 3.066z"/><path d="m362.855 138.006c-1.693 0-3.065 1.372-3.065 3.065 0 1.692 1.373 3.065 3.065 3.065 1.693 0 3.065-1.373 3.065-3.065 0-1.693-1.372-3.065-3.065-3.065z"/><path d="m373.108 153.646c1.693 0 3.065-1.372 3.065-3.066 0-1.692-1.372-3.065-3.065-3.065s-3.065 1.373-3.065 3.065c0 1.693 1.372 3.066 3.065 3.066z"/><path d="m362.855 157.769c-1.693 0-3.065 1.372-3.065 3.065 0 1.692 1.373 3.066 3.065 3.066 1.693 0 3.065-1.373 3.065-3.066s-1.372-3.065-3.065-3.065z"/><path d="m373.108 173.409c1.693 0 3.065-1.373 3.065-3.066 0-1.692-1.372-3.065-3.065-3.065s-3.065 1.373-3.065 3.065c0 1.693 1.372 3.066 3.065 3.066z"/><path d="m362.855 177.531c-1.693 0-3.065 1.372-3.065 3.065s1.373 3.066 3.065 3.066c1.693 0 3.065-1.372 3.065-3.066 0-1.693-1.372-3.065-3.065-3.065z"/><circle cx="373.108" cy="190.107" r="3.065"/><path d="m362.855 197.294c-1.693 0-3.065 1.372-3.065 3.065s1.373 3.065 3.065 3.065c1.693 0 3.065-1.372 3.065-3.065s-1.372-3.065-3.065-3.065z"/><circle cx="373.108" cy="209.869" r="3.065"/><path d="m362.855 217.057c-1.693 0-3.065 1.372-3.065 3.065s1.373 3.065 3.065 3.065c1.693 0 3.065-1.372 3.065-3.065s-1.372-3.065-3.065-3.065z"/><circle cx="373.108" cy="229.632" r="3.065"/><path d="m362.855 236.819c-1.693 0-3.065 1.373-3.065 3.065 0 1.693 1.373 3.065 3.065 3.065 1.693 0 3.065-1.372 3.065-3.065 0-1.692-1.372-3.065-3.065-3.065z"/><circle cx="373.108" cy="249.395" r="3.065"/><path d="m362.855 256.582c-1.693 0-3.065 1.373-3.065 3.065 0 1.693 1.373 3.065 3.065 3.065 1.693 0 3.065-1.372 3.065-3.065 0-1.692-1.372-3.065-3.065-3.065z"/><path d="m373.108 272.223c1.693 0 3.065-1.372 3.065-3.065s-1.372-3.065-3.065-3.065-3.065 1.372-3.065 3.065 1.372 3.065 3.065 3.065z"/><path d="m362.855 276.345c-1.693 0-3.065 1.373-3.065 3.065 0 1.693 1.373 3.065 3.065 3.065 1.693 0 3.065-1.372 3.065-3.065 0-1.692-1.372-3.065-3.065-3.065z"/><path d="m373.108 291.985c1.693 0 3.065-1.372 3.065-3.065s-1.372-3.066-3.065-3.066-3.065 1.372-3.065 3.066c0 1.693 1.372 3.065 3.065 3.065z"/><path d="m362.855 296.108c-1.693 0-3.065 1.373-3.065 3.065 0 1.693 1.373 3.066 3.065 3.066 1.693 0 3.065-1.373 3.065-3.066s-1.372-3.065-3.065-3.065z"/><path d="m373.108 311.748c1.693 0 3.065-1.372 3.065-3.065s-1.372-3.066-3.065-3.066-3.065 1.372-3.065 3.066c0 1.693 1.372 3.065 3.065 3.065z"/><path d="m362.855 315.871c-1.693 0-3.065 1.372-3.065 3.066 0 1.692 1.373 3.065 3.065 3.065 1.693 0 3.065-1.373 3.065-3.065 0-1.694-1.372-3.066-3.065-3.066z"/><path d="m373.108 331.511c1.693 0 3.065-1.372 3.065-3.065 0-1.692-1.372-3.065-3.065-3.065s-3.065 1.373-3.065 3.065c0 1.693 1.372 3.065 3.065 3.065z"/><path d="m362.855 335.634c-1.693 0-3.065 1.372-3.065 3.066 0 1.692 1.373 3.065 3.065 3.065 1.693 0 3.065-1.373 3.065-3.065 0-1.694-1.372-3.066-3.065-3.066z"/><path d="m374.26 345.455.011-.081c-.359-.148-.751-.232-1.163-.232-1.693 0-3.065 1.373-3.065 3.065 0 1.693 1.372 3.065 3.065 3.065s3.065-1.372 3.065-3.065c0-.375-.077-.73-.2-1.062-.539-.596-1.109-1.163-1.713-1.69z"/><path d="m362.855 355.397c-1.693 0-3.065 1.372-3.065 3.065 0 1.692 1.373 3.065 3.065 3.065 1.693 0 3.065-1.373 3.065-3.065 0-1.693-1.372-3.065-3.065-3.065z"/><path d="m373.108 371.036c1.693 0 3.065-1.372 3.065-3.065 0-1.692-1.372-3.065-3.065-3.065s-3.065 1.373-3.065 3.065c0 1.693 1.372 3.065 3.065 3.065z"/><path d="m362.855 381.29c1.693 0 3.065-1.373 3.065-3.065 0-1.693-1.372-3.065-3.065-3.065s-3.065 1.372-3.065 3.065c-.001 1.692 1.372 3.065 3.065 3.065z"/><path d="m353.345 68.464c-1.693 0-3.065 1.372-3.065 3.065s1.372 3.066 3.065 3.066 3.065-1.372 3.065-3.066c.001-1.693-1.372-3.065-3.065-3.065z"/><path d="m343.092 78.718c-1.693 0-3.065 1.372-3.065 3.066 0 1.692 1.372 3.065 3.065 3.065s3.065-1.373 3.065-3.065c0-1.694-1.372-3.066-3.065-3.066z"/><path d="m353.345 94.357c1.693 0 3.065-1.372 3.065-3.065s-1.372-3.065-3.065-3.065-3.065 1.372-3.065 3.065 1.372 3.065 3.065 3.065z"/><path d="m353.345 114.12c1.693 0 3.065-1.372 3.065-3.065 0-1.692-1.372-3.065-3.065-3.065s-3.065 1.373-3.065 3.065c0 1.693 1.372 3.065 3.065 3.065z"/><path d="m353.345 147.515c-1.693 0-3.065 1.373-3.065 3.065 0 1.693 1.372 3.066 3.065 3.066s3.065-1.372 3.065-3.066c.001-1.692-1.372-3.065-3.065-3.065z"/><path d="m343.092 157.769c-1.219 0-2.263.717-2.757 1.748l-.255 1.847c.252 1.439 1.5 2.536 3.012 2.536 1.693 0 3.065-1.373 3.065-3.066s-1.372-3.065-3.065-3.065z"/><path d="m353.345 167.277c-1.693 0-3.065 1.373-3.065 3.065 0 1.693 1.372 3.066 3.065 3.066s3.065-1.373 3.065-3.066c.001-1.692-1.372-3.065-3.065-3.065z"/><path d="m343.092 177.531c-1.693 0-3.065 1.372-3.065 3.065s1.372 3.066 3.065 3.066 3.065-1.372 3.065-3.066c0-1.693-1.372-3.065-3.065-3.065z"/><ellipse cx="353.345" cy="190.107" rx="3.065" ry="3.065" transform="matrix(.033 -1 1 .033 151.854 537.086)"/><path d="m343.092 197.294c-1.693 0-3.065 1.372-3.065 3.065s1.372 3.065 3.065 3.065 3.065-1.372 3.065-3.065-1.372-3.065-3.065-3.065z"/><path d="m333.594 206.792c-1.693 0-3.065 1.372-3.065 3.065s1.372 3.065 3.065 3.065 3.066-1.372 3.066-3.065-1.373-3.065-3.066-3.065z"/><circle cx="333.549" cy="229.618" r="3.065"/><ellipse cx="353.345" cy="209.869" rx="3.065" ry="3.065" transform="matrix(.033 -1 1 .033 132.102 556.206)"/><path d="m343.092 217.057c-1.693 0-3.065 1.372-3.065 3.065s1.372 3.065 3.065 3.065 3.065-1.372 3.065-3.065-1.372-3.065-3.065-3.065z"/><ellipse cx="353.345" cy="229.632" rx="3.065" ry="3.065" transform="matrix(.033 -1 1 .033 112.35 575.327)"/><path d="m343.092 236.819c-1.693 0-3.065 1.373-3.065 3.065 0 1.693 1.372 3.065 3.065 3.065s3.065-1.372 3.065-3.065c0-1.692-1.372-3.065-3.065-3.065z"/><ellipse cx="353.345" cy="249.395" rx="3.065" ry="3.065" transform="matrix(.033 -1 1 .033 92.597 594.447)"/><path d="m343.092 256.582c-1.693 0-3.065 1.373-3.065 3.065 0 1.693 1.372 3.065 3.065 3.065s3.065-1.372 3.065-3.065c0-1.692-1.372-3.065-3.065-3.065z"/><path d="m353.345 266.092c-1.693 0-3.065 1.372-3.065 3.065s1.372 3.065 3.065 3.065 3.065-1.372 3.065-3.065c.001-1.693-1.372-3.065-3.065-3.065z"/><path d="m343.092 276.345c-1.693 0-3.065 1.373-3.065 3.065 0 1.693 1.372 3.065 3.065 3.065s3.065-1.372 3.065-3.065c0-1.692-1.372-3.065-3.065-3.065z"/><path d="m353.345 285.854c-1.693 0-3.065 1.372-3.065 3.066 0 1.693 1.372 3.065 3.065 3.065s3.065-1.372 3.065-3.065c.001-1.693-1.372-3.066-3.065-3.066z"/><path d="m343.092 296.108c-1.693 0-3.065 1.373-3.065 3.065 0 1.693 1.372 3.066 3.065 3.066s3.065-1.373 3.065-3.066-1.372-3.065-3.065-3.065z"/><path d="m353.345 305.617c-1.693 0-3.065 1.372-3.065 3.066 0 1.693 1.372 3.065 3.065 3.065s3.065-1.372 3.065-3.065c.001-1.694-1.372-3.066-3.065-3.066z"/><path d="m343.092 315.871c-1.693 0-3.065 1.372-3.065 3.066 0 1.692 1.372 3.065 3.065 3.065s3.065-1.373 3.065-3.065c0-1.694-1.372-3.066-3.065-3.066z"/><path d="m353.345 325.38c-1.693 0-3.065 1.373-3.065 3.065 0 1.693 1.372 3.065 3.065 3.065s3.065-1.372 3.065-3.065c.001-1.692-1.372-3.065-3.065-3.065z"/><path d="m343.092 335.634c-1.693 0-3.065 1.372-3.065 3.066 0 1.692 1.372 3.065 3.065 3.065s3.065-1.373 3.065-3.065c0-1.694-1.372-3.066-3.065-3.066z"/><path d="m353.345 345.143c-1.693 0-3.065 1.373-3.065 3.065 0 1.693 1.372 3.065 3.065 3.065s3.065-1.372 3.065-3.065c.001-1.692-1.372-3.065-3.065-3.065z"/><path d="m343.092 355.397c-1.693 0-3.065 1.372-3.065 3.065 0 1.692 1.372 3.065 3.065 3.065s3.065-1.373 3.065-3.065c0-1.693-1.372-3.065-3.065-3.065z"/><path d="m353.345 364.905c-1.693 0-3.065 1.373-3.065 3.065 0 1.693 1.372 3.065 3.065 3.065s3.065-1.372 3.065-3.065c.001-1.692-1.372-3.065-3.065-3.065z"/><path d="m343.092 375.159c-1.693 0-3.065 1.372-3.065 3.065 0 1.692 1.372 3.065 3.065 3.065s3.065-1.373 3.065-3.065c0-1.693-1.372-3.065-3.065-3.065z"/><path d="m353.345 384.668c-1.693 0-3.065 1.373-3.065 3.065 0 1.693 1.372 3.065 3.065 3.065s3.065-1.372 3.065-3.065c.001-1.692-1.372-3.065-3.065-3.065z"/><path d="m343.092 394.922c-1.693 0-3.065 1.372-3.065 3.065s1.372 3.065 3.065 3.065 3.065-1.372 3.065-3.065-1.372-3.065-3.065-3.065z"/><path d="m333.583 68.464c-1.693 0-3.066 1.372-3.066 3.065s1.373 3.066 3.066 3.066 3.065-1.372 3.065-3.066c0-1.693-1.373-3.065-3.065-3.065z"/><path d="m333.583 246.329c-1.693 0-3.066 1.372-3.066 3.065 0 1.692 1.373 3.065 3.066 3.065s3.065-1.373 3.065-3.065c0-1.693-1.373-3.065-3.065-3.065z"/><path d="m333.583 266.092c-1.693 0-3.066 1.372-3.066 3.065s1.373 3.065 3.066 3.065 3.065-1.372 3.065-3.065-1.373-3.065-3.065-3.065z"/><path d="m333.583 285.854c-1.693 0-3.066 1.372-3.066 3.066 0 1.693 1.373 3.065 3.066 3.065s3.065-1.372 3.065-3.065-1.373-3.066-3.065-3.066z"/><path d="m333.583 305.617c-1.693 0-3.066 1.372-3.066 3.066 0 1.693 1.373 3.065 3.066 3.065s3.065-1.372 3.065-3.065c0-1.694-1.373-3.066-3.065-3.066z"/><path d="m323.32 296.12c-1.693 0-3.066 1.372-3.066 3.065s1.373 3.065 3.066 3.065 3.065-1.372 3.065-3.065-1.373-3.065-3.065-3.065z"/><path d="m333.583 325.38c-1.693 0-3.066 1.373-3.066 3.065 0 1.693 1.373 3.065 3.066 3.065s3.065-1.372 3.065-3.065c0-1.692-1.373-3.065-3.065-3.065z"/><path d="m323.329 335.634c-1.693 0-3.065 1.372-3.065 3.066 0 1.692 1.372 3.065 3.065 3.065s3.065-1.373 3.065-3.065c.001-1.694-1.372-3.066-3.065-3.066z"/><path d="m333.583 345.143c-1.693 0-3.066 1.373-3.066 3.065 0 1.693 1.373 3.065 3.066 3.065s3.065-1.372 3.065-3.065c0-1.692-1.373-3.065-3.065-3.065z"/><path d="m323.275 355.406c-1.693 0-3.066 1.373-3.066 3.065 0 1.693 1.373 3.065 3.066 3.065s3.065-1.372 3.065-3.065c0-1.692-1.373-3.065-3.065-3.065z"/><path d="m333.583 364.905c-1.693 0-3.066 1.373-3.066 3.065 0 1.693 1.373 3.065 3.066 3.065s3.065-1.372 3.065-3.065c0-1.692-1.373-3.065-3.065-3.065z"/><path d="m323.329 375.159c-1.693 0-3.065 1.372-3.065 3.065 0 1.692 1.372 3.065 3.065 3.065s3.065-1.373 3.065-3.065c.001-1.693-1.372-3.065-3.065-3.065z"/><path d="m333.583 384.668c-1.693 0-3.066 1.373-3.066 3.065 0 1.693 1.373 3.065 3.066 3.065s3.065-1.372 3.065-3.065c0-1.692-1.373-3.065-3.065-3.065z"/><path d="m323.329 394.922c-1.693 0-3.065 1.372-3.065 3.065s1.372 3.065 3.065 3.065 3.065-1.372 3.065-3.065c.001-1.693-1.372-3.065-3.065-3.065z"/><path d="m333.583 410.562c1.693 0 3.065-1.373 3.065-3.066 0-1.692-1.372-3.065-3.065-3.065s-3.066 1.373-3.066 3.065c0 1.694 1.372 3.066 3.066 3.066z"/><path d="m313.82 384.668c-1.693 0-3.065 1.373-3.065 3.065 0 1.693 1.373 3.065 3.065 3.065 1.693 0 3.065-1.372 3.065-3.065 0-1.692-1.372-3.065-3.065-3.065z"/><path d="m303.566 401.053c1.693 0 3.065-1.372 3.065-3.065s-1.372-3.065-3.065-3.065-3.065 1.372-3.065 3.065 1.372 3.065 3.065 3.065z"/><path d="m313.82 404.431c-1.693 0-3.065 1.373-3.065 3.065 0 1.693 1.373 3.066 3.065 3.066 1.693 0 3.065-1.373 3.065-3.066 0-1.692-1.372-3.065-3.065-3.065z"/><path d="m294.057 410.562c1.693 0 3.065-1.373 3.065-3.066 0-1.692-1.372-3.065-3.065-3.065s-3.065 1.373-3.065 3.065c-.001 1.694 1.372 3.066 3.065 3.066z"/></g><g fill="#31373d"><path d="m269.183 162.723h-23.047c-2.209 0-4-1.791-4-4s1.791-4 4-4h23.047c2.209 0 4 1.791 4 4s-1.791 4-4 4z"/><path d="m410.357 111.04c.37-13.33-4.461-26.34-13.443-36.007-9.076-9.768-21.275-15.148-34.349-15.148h-97.788v-40.569c0-10.651-8.665-19.316-19.316-19.316s-19.316 8.665-19.316 19.316v40.569h-87.224c-13.509 0-26.445 5.982-35.491 16.413-9.612 11.083-13.915 25.907-11.806 40.67l26.256 183.727c-4.523 4.573-7.077 10.8-7.077 17.413 0 9.197 4.896 17.438 12.653 21.605l.357 2.497c-5.475 4.608-8.677 11.495-8.677 18.891 0 10.495 6.399 19.651 15.812 23.009 7.049 19.198 24.74 31.953 44.65 31.953h50.547v75.354c0 10.651 8.665 19.316 19.316 19.316s19.316-8.665 19.316-19.316v-75.354h62.333c20.418 0 38.307-13.231 45.057-33.116 8.029-4.082 13.118-12.455 13.118-21.846 0-6.453-2.448-12.576-6.783-17.121l.787-5.7c6.418-4.51 10.329-12.062 10.329-20.172 0-5.723-1.903-11.165-5.396-15.528l20.831-150.795c8.71-3.389 14.585-12.011 14.585-21.859-.001-7.487-3.504-14.514-9.281-18.886zm-176.212-91.724c0-6.24 5.076-11.316 11.316-11.316s11.316 5.076 11.316 11.316v40.569h-22.632zm22.632 472.103c0 6.24-5.077 11.316-11.316 11.316-6.24 0-11.316-5.076-11.316-11.316v-75.354h22.632zm143.68-346.548c-1.582.398-2.763 1.716-2.986 3.332l-21.423 155.079c-.165 1.199.221 2.409 1.052 3.29 2.913 3.092 4.518 7.189 4.518 11.537 0 5.963-3.084 11.46-8.048 14.344-1.064.619-1.785 1.692-1.953 2.911l-1.318 9.543c-.185 1.338.318 2.679 1.336 3.564 3.591 3.127 5.651 7.73 5.651 12.631 0 6.797-3.888 12.781-9.906 15.247-1.116.457-1.966 1.393-2.314 2.549-5.249 17.445-20.501 29.166-37.954 29.166h-151.514c-17.108 0-32.268-11.415-37.724-28.405-.423-1.315-1.494-2.32-2.834-2.657-7.009-1.761-11.904-8.299-11.904-15.899 0-5.612 2.692-10.773 7.202-13.805 1.274-.856 1.946-2.366 1.729-3.886l-.994-6.95c-.2-1.397-1.122-2.587-2.426-3.128-5.979-2.482-9.843-8.459-9.843-15.225 0-5.022 2.15-9.697 5.899-12.83 1.063-.889 1.591-2.264 1.395-3.635l-3.539-24.763h117.806c2.209 0 4-1.791 4-4s-1.791-4-4-4h-118.95l-6.712-46.966h93.252c2.209 0 4-1.791 4-4s-1.791-4-4-4h-94.395l-7.316-51.193h97.107c2.209 0 4-1.791 4-4s-1.791-4-4-4h-98.25l-5.557-38.885c-1.782-12.467 1.837-24.968 9.929-34.298 7.636-8.805 18.094-13.654 29.448-13.654h223.644c10.826 0 20.943 4.473 28.488 12.594 8 8.608 12.084 20.388 11.207 32.316-.111 1.511.641 2.955 1.943 3.729 4.586 2.73 7.435 7.866 7.435 13.401-.001 7.144-4.598 13.29-11.181 14.946z"/></g></g></svg>