<svg id="Capa_1" enable-background="new 0 0 511.216 511.216" height="512" viewBox="0 0 511.216 511.216" width="512" xmlns="http://www.w3.org/2000/svg"><g><path d="m126.727 439.41c-2.178-2.171-2.272-5.658-.098-7.833l74.951-74.951c-22.022-9.939-42.353-24.752-50.614-47.533l-75.275 75.277c-1.102 1.101-2.904 1.101-4.005-.001-16.147-16.147-42.753-15.459-58.009 2.063-12.858 14.767-12.87 37.144-.029 51.926 13.552 15.598 36.082 17.878 52.271 6.86-11.018 16.189-8.739 38.72 6.86 52.272 14.781 12.841 37.158 12.829 51.925-.029 17.522-15.256 18.21-41.862 2.063-58.008-.013-.015-.026-.029-.04-.043z" fill="#f9fbfc"/><path d="m464.012 264.952c59.138-59.138 57.389-156.579-4.284-216.616-60.362-58.761-156.638-58.937-214.293-.455-14.494 14.702-25.263 31.726-32.326 49.927-9.257 23.855-21.654 46.265-35.831 67.472-41.959 62.767-46.527 134.928-6.438 175.017 40.223 40.223 112.734 35.489 175.648-6.861 21.328-14.357 44.155-26.355 68.109-35.906 18.035-7.192 34.882-18.045 49.415-32.578z" fill="#eaa895"/><g fill="#f9fbfc"><path d="m497.962 113.858c-1.719 0-3.113 1.394-3.113 3.113s1.393 3.112 3.113 3.112c1.719 0 3.113-1.393 3.113-3.112 0-.018-.005-.034-.005-.051-.158-.544-.329-1.085-.493-1.627-.555-.862-1.516-1.435-2.615-1.435z"/><path d="m497.962 133.924c-1.719 0-3.113 1.394-3.113 3.113s1.393 3.112 3.113 3.112c1.719 0 3.113-1.393 3.113-3.112s-1.394-3.113-3.113-3.113z"/><path d="m505.26 146.692c0 1.157.639 2.156 1.577 2.692-.117-1.693-.27-3.385-.443-5.076-.687.571-1.134 1.421-1.134 2.384z"/><path d="m497.962 153.99c-1.719 0-3.113 1.394-3.113 3.113s1.393 3.112 3.113 3.112c1.719 0 3.113-1.393 3.113-3.112s-1.394-3.113-3.113-3.113z"/><path d="m505.26 166.758c0 1.18.664 2.194 1.632 2.722.117-1.859.205-3.719.254-5.581-1.109.476-1.886 1.576-1.886 2.859z"/><path d="m497.962 174.056c-1.719 0-3.113 1.394-3.113 3.113s1.393 3.112 3.113 3.112c1.719 0 3.113-1.393 3.113-3.112s-1.394-3.113-3.113-3.113z"/><path d="m497.962 194.123c-1.719 0-3.113 1.394-3.113 3.113s1.393 3.112 3.113 3.112c1.719 0 3.113-1.393 3.113-3.112s-1.394-3.113-3.113-3.113z"/><path d="m494.849 217.302c0 .541.151 1.043.394 1.486.63-1.476 1.24-2.959 1.82-4.451-1.278.388-2.214 1.561-2.214 2.965z"/><path d="m477.896 73.725c-1.719 0-3.113 1.394-3.113 3.113s1.393 3.112 3.113 3.112c1.719 0 3.113-1.393 3.113-3.112-.001-1.719-1.394-3.113-3.113-3.113z"/><path d="m485.194 86.493c0 1.719 1.394 3.112 3.113 3.112.618 0 1.19-.185 1.675-.496-.944-1.831-1.935-3.645-2.956-5.447-1.079.49-1.832 1.57-1.832 2.831z"/><path d="m477.896 93.791c-1.719 0-3.113 1.394-3.113 3.113s1.393 3.112 3.113 3.112c1.719 0 3.113-1.393 3.113-3.112-.001-1.719-1.394-3.113-3.113-3.113z"/><path d="m488.307 103.447c-1.719 0-3.113 1.394-3.113 3.113s1.394 3.112 3.113 3.112 3.113-1.393 3.113-3.112c-.001-1.72-1.394-3.113-3.113-3.113z"/><path d="m477.896 113.858c-1.719 0-3.113 1.394-3.113 3.113s1.393 3.112 3.113 3.112c1.719 0 3.113-1.393 3.113-3.112-.001-1.72-1.394-3.113-3.113-3.113z"/><path d="m488.307 123.513c-1.719 0-3.113 1.394-3.113 3.113s1.394 3.112 3.113 3.112 3.113-1.393 3.113-3.112c-.001-1.719-1.394-3.113-3.113-3.113z"/><path d="m477.896 133.924c-1.719 0-3.113 1.394-3.113 3.113s1.393 3.112 3.113 3.112c1.719 0 3.113-1.393 3.113-3.112-.001-1.719-1.394-3.113-3.113-3.113z"/><path d="m488.307 143.579c-1.719 0-3.113 1.394-3.113 3.113s1.394 3.112 3.113 3.112 3.113-1.393 3.113-3.112c-.001-1.719-1.394-3.113-3.113-3.113z"/><path d="m477.896 153.99c-1.719 0-3.113 1.394-3.113 3.113s1.393 3.112 3.113 3.112c1.719 0 3.113-1.393 3.113-3.112-.001-1.719-1.394-3.113-3.113-3.113z"/><path d="m488.307 163.646c-1.719 0-3.113 1.394-3.113 3.113s1.394 3.112 3.113 3.112 3.113-1.393 3.113-3.112c-.001-1.72-1.394-3.113-3.113-3.113z"/><path d="m477.896 174.056c-1.719 0-3.113 1.394-3.113 3.113s1.393 3.112 3.113 3.112c1.719 0 3.113-1.393 3.113-3.112-.001-1.719-1.394-3.113-3.113-3.113z"/><path d="m488.307 183.712c-1.719 0-3.113 1.394-3.113 3.113s1.394 3.112 3.113 3.112 3.113-1.393 3.113-3.112c-.001-1.719-1.394-3.113-3.113-3.113z"/><path d="m477.896 194.123c-1.719 0-3.113 1.394-3.113 3.113s1.393 3.112 3.113 3.112c1.719 0 3.113-1.393 3.113-3.112-.001-1.719-1.394-3.113-3.113-3.113z"/><path d="m488.307 203.778c-1.719 0-3.113 1.394-3.113 3.113s1.394 3.112 3.113 3.112 3.113-1.393 3.113-3.112c-.001-1.719-1.394-3.113-3.113-3.113z"/><path d="m477.896 214.189c-1.719 0-3.113 1.394-3.113 3.113s1.393 3.112 3.113 3.112c1.719 0 3.113-1.393 3.113-3.112-.001-1.719-1.394-3.113-3.113-3.113z"/><path d="m488.307 223.845c-1.719 0-3.113 1.394-3.113 3.113s1.394 3.112 3.113 3.112c.709 0 1.355-.246 1.878-.645.416-.792.825-1.586 1.226-2.384.001-.028.008-.055.008-.083 0-1.72-1.393-3.113-3.112-3.113z"/><path d="m477.896 234.255c-1.719 0-3.113 1.394-3.113 3.113s1.393 3.112 3.113 3.112c1.719 0 3.113-1.393 3.113-3.112-.001-1.719-1.394-3.113-3.113-3.113z"/><path d="m457.829 53.659c-1.719 0-3.113 1.394-3.113 3.113s1.393 3.112 3.113 3.112c1.719 0 3.113-1.393 3.113-3.112 0-1.72-1.394-3.113-3.113-3.113z"/><path d="m468.24 63.314c-1.719 0-3.113 1.394-3.113 3.113s1.394 3.112 3.113 3.112 3.112-1.393 3.112-3.112c.001-1.719-1.393-3.113-3.112-3.113z"/><path d="m457.829 73.725c-1.719 0-3.113 1.394-3.113 3.113s1.393 3.112 3.113 3.112c1.719 0 3.113-1.393 3.113-3.112s-1.394-3.113-3.113-3.113z"/><path d="m468.24 83.38c-1.719 0-3.113 1.394-3.113 3.113s1.394 3.112 3.113 3.112 3.112-1.393 3.112-3.112c.001-1.719-1.393-3.113-3.112-3.113z"/><path d="m468.24 103.447c-1.719 0-3.113 1.394-3.113 3.113s1.394 3.112 3.113 3.112 3.112-1.393 3.112-3.112c.001-1.72-1.393-3.113-3.112-3.113z"/><path d="m457.854 93.764c-1.719 0-3.113 1.394-3.113 3.113s1.394 3.112 3.113 3.112 3.113-1.393 3.113-3.112c-.001-1.719-1.394-3.113-3.113-3.113z"/><path d="m468.24 123.513c-1.719 0-3.113 1.394-3.113 3.113s1.394 3.112 3.113 3.112 3.112-1.393 3.112-3.112c.001-1.719-1.393-3.113-3.112-3.113z"/><path d="m457.766 133.9c-1.719 0-3.113 1.394-3.113 3.113s1.394 3.112 3.113 3.112 3.113-1.393 3.113-3.112c-.001-1.72-1.394-3.113-3.113-3.113z"/><path d="m457.766 113.919c-1.719 0-3.113 1.394-3.113 3.113s1.394 3.112 3.113 3.112 3.113-1.393 3.113-3.112c-.001-1.72-1.394-3.113-3.113-3.113z"/><path d="m468.24 143.579c-1.719 0-3.113 1.394-3.113 3.113s1.394 3.112 3.113 3.112 3.112-1.393 3.112-3.112c.001-1.719-1.393-3.113-3.112-3.113z"/><path d="m457.829 153.99c-1.719 0-3.113 1.394-3.113 3.113s1.393 3.112 3.113 3.112c1.719 0 3.113-1.393 3.113-3.112s-1.394-3.113-3.113-3.113z"/><path d="m448.235 163.673c-1.719 0-3.113 1.394-3.113 3.113s1.393 3.112 3.113 3.112c1.719 0 3.113-1.393 3.113-3.112 0-1.72-1.394-3.113-3.113-3.113z"/><path d="m468.24 163.646c-1.719 0-3.113 1.394-3.113 3.113s1.394 3.112 3.113 3.112 3.112-1.393 3.112-3.112c.001-1.72-1.393-3.113-3.112-3.113z"/><path d="m457.829 174.056c-1.719 0-3.113 1.394-3.113 3.113s1.393 3.112 3.113 3.112c1.719 0 3.113-1.393 3.113-3.112s-1.394-3.113-3.113-3.113z"/><path d="m468.24 183.712c-1.719 0-3.113 1.394-3.113 3.113s1.394 3.112 3.113 3.112 3.112-1.393 3.112-3.112c.001-1.719-1.393-3.113-3.112-3.113z"/><path d="m457.829 194.123c-1.719 0-3.113 1.394-3.113 3.113s1.393 3.112 3.113 3.112c1.719 0 3.113-1.393 3.113-3.112s-1.394-3.113-3.113-3.113z"/><path d="m468.24 203.778c-1.719 0-3.113 1.394-3.113 3.113s1.394 3.112 3.113 3.112 3.112-1.393 3.112-3.112c.001-1.719-1.393-3.113-3.112-3.113z"/><path d="m457.829 214.189c-1.719 0-3.113 1.394-3.113 3.113s1.393 3.112 3.113 3.112c1.719 0 3.113-1.393 3.113-3.112s-1.394-3.113-3.113-3.113z"/><path d="m468.24 223.845c-1.719 0-3.113 1.394-3.113 3.113s1.394 3.112 3.113 3.112 3.112-1.393 3.112-3.112c.001-1.72-1.393-3.113-3.112-3.113z"/><path d="m457.829 234.255c-1.719 0-3.113 1.394-3.113 3.113s1.393 3.112 3.113 3.112c1.719 0 3.113-1.393 3.113-3.112s-1.394-3.113-3.113-3.113z"/><path d="m468.24 250.136c1.719 0 3.112-1.393 3.112-3.112s-1.393-3.113-3.112-3.113-3.113 1.394-3.113 3.113c.001 1.719 1.394 3.112 3.113 3.112z"/><path d="m457.829 254.322c-1.719 0-3.113 1.394-3.113 3.113s1.393 3.112 3.113 3.112c1.719 0 3.113-1.393 3.113-3.112 0-1.72-1.394-3.113-3.113-3.113z"/><path d="m451.286 46.361c0-1.719-1.394-3.113-3.113-3.113s-3.113 1.394-3.113 3.113 1.394 3.112 3.113 3.112c1.72 0 3.113-1.393 3.113-3.112z"/><path d="m448.174 183.712c-1.719 0-3.113 1.394-3.113 3.113s1.394 3.112 3.113 3.112 3.113-1.393 3.113-3.112c-.001-1.719-1.394-3.113-3.113-3.113z"/><path d="m437.763 194.123c-1.719 0-3.113 1.394-3.113 3.113s1.393 3.112 3.113 3.112c1.719 0 3.113-1.393 3.113-3.112s-1.394-3.113-3.113-3.113z"/><path d="m448.174 203.778c-1.719 0-3.113 1.394-3.113 3.113s1.394 3.112 3.113 3.112 3.113-1.393 3.113-3.112c-.001-1.719-1.394-3.113-3.113-3.113z"/><path d="m437.763 214.189c-1.719 0-3.113 1.394-3.113 3.113s1.393 3.112 3.113 3.112c1.719 0 3.113-1.393 3.113-3.112s-1.394-3.113-3.113-3.113z"/><path d="m448.174 223.845c-1.719 0-3.113 1.394-3.113 3.113s1.394 3.112 3.113 3.112 3.113-1.393 3.113-3.112c-.001-1.72-1.394-3.113-3.113-3.113z"/><path d="m437.763 234.255c-1.719 0-3.113 1.394-3.113 3.113s1.393 3.112 3.113 3.112c1.719 0 3.113-1.393 3.113-3.112s-1.394-3.113-3.113-3.113z"/><path d="m448.174 243.911c-1.719 0-3.113 1.394-3.113 3.113s1.394 3.112 3.113 3.112 3.113-1.393 3.113-3.112c-.001-1.719-1.394-3.113-3.113-3.113z"/><path d="m437.763 254.322c-1.719 0-3.113 1.394-3.113 3.113s1.393 3.112 3.113 3.112c1.719 0 3.113-1.393 3.113-3.112 0-1.72-1.394-3.113-3.113-3.113z"/><path d="m448.174 263.977c-1.719 0-3.113 1.394-3.113 3.113s1.394 3.112 3.113 3.112 3.113-1.393 3.113-3.112c-.001-1.719-1.394-3.113-3.113-3.113z"/><path d="m437.763 274.388c-1.719 0-3.113 1.394-3.113 3.113s1.393 3.112 3.113 3.112c1.719 0 3.113-1.393 3.113-3.112s-1.394-3.113-3.113-3.113z"/><path d="m428.108 203.778c-1.719 0-3.112 1.394-3.112 3.113s1.394 3.112 3.112 3.112c1.719 0 3.113-1.393 3.113-3.112-.001-1.719-1.394-3.113-3.113-3.113z"/><path d="m417.697 214.189c-1.719 0-3.113 1.394-3.113 3.113s1.393 3.112 3.113 3.112c1.719 0 3.113-1.393 3.113-3.112-.001-1.719-1.394-3.113-3.113-3.113z"/><path d="m428.108 223.845c-1.719 0-3.112 1.394-3.112 3.113s1.394 3.112 3.112 3.112c1.719 0 3.113-1.393 3.113-3.112-.001-1.72-1.394-3.113-3.113-3.113z"/><path d="m417.697 234.255c-1.719 0-3.113 1.394-3.113 3.113s1.393 3.112 3.113 3.112c1.719 0 3.113-1.393 3.113-3.112-.001-1.719-1.394-3.113-3.113-3.113z"/><path d="m428.108 243.911c-1.719 0-3.112 1.394-3.112 3.113s1.394 3.112 3.112 3.112c1.719 0 3.113-1.393 3.113-3.112-.001-1.719-1.394-3.113-3.113-3.113z"/><path d="m417.697 254.322c-1.719 0-3.113 1.394-3.113 3.113s1.393 3.112 3.113 3.112c1.719 0 3.113-1.393 3.113-3.112-.001-1.72-1.394-3.113-3.113-3.113z"/><path d="m428.108 263.977c-1.719 0-3.112 1.394-3.112 3.113s1.394 3.112 3.112 3.112c1.719 0 3.113-1.393 3.113-3.112-.001-1.719-1.394-3.113-3.113-3.113z"/><path d="m417.697 274.388c-1.719 0-3.113 1.394-3.113 3.113s1.393 3.112 3.113 3.112c1.719 0 3.113-1.393 3.113-3.112-.001-1.719-1.394-3.113-3.113-3.113z"/><path d="m428.108 284.043c-1.719 0-3.112 1.394-3.112 3.113s1.394 3.112 3.112 3.112c1.719 0 3.113-1.393 3.113-3.112-.001-1.719-1.394-3.113-3.113-3.113z"/><path d="m414.588 297.533.009-.003c1.758-.701 3.501-1.447 5.235-2.218-.558-.528-1.306-.857-2.135-.857-1.708-.001-3.091 1.375-3.109 3.078z"/><path d="m408.041 223.845c-1.719 0-3.113 1.394-3.113 3.113s1.394 3.112 3.113 3.112 3.113-1.393 3.113-3.112c0-1.72-1.394-3.113-3.113-3.113z"/><path d="m397.63 234.255c-1.719 0-3.113 1.394-3.113 3.113s1.393 3.112 3.113 3.112c1.719 0 3.112-1.393 3.112-3.112.001-1.719-1.393-3.113-3.112-3.113z"/><path d="m408.041 243.911c-1.719 0-3.113 1.394-3.113 3.113s1.394 3.112 3.113 3.112 3.113-1.393 3.113-3.112-1.394-3.113-3.113-3.113z"/><path d="m397.63 254.322c-1.719 0-3.113 1.394-3.113 3.113s1.393 3.112 3.113 3.112c1.719 0 3.112-1.393 3.112-3.112.001-1.72-1.393-3.113-3.112-3.113z"/><path d="m408.041 263.977c-1.719 0-3.113 1.394-3.113 3.113s1.394 3.112 3.113 3.112 3.113-1.393 3.113-3.112-1.394-3.113-3.113-3.113z"/><path d="m397.63 274.388c-1.719 0-3.113 1.394-3.113 3.113s1.393 3.112 3.113 3.112c1.719 0 3.112-1.393 3.112-3.112.001-1.719-1.393-3.113-3.112-3.113z"/><path d="m408.041 284.043c-1.719 0-3.113 1.394-3.113 3.113s1.394 3.112 3.113 3.112 3.113-1.393 3.113-3.112-1.394-3.113-3.113-3.113z"/><path d="m397.63 294.454c-1.719 0-3.113 1.394-3.113 3.113s1.393 3.112 3.113 3.112c1.719 0 3.112-1.393 3.112-3.112.001-1.719-1.393-3.113-3.112-3.113z"/><path d="m387.975 243.911c-1.719 0-3.113 1.394-3.113 3.113s1.394 3.112 3.113 3.112 3.113-1.393 3.113-3.112-1.394-3.113-3.113-3.113z"/><path d="m377.564 254.322c-1.719 0-3.113 1.394-3.113 3.113s1.393 3.112 3.113 3.112c1.719 0 3.113-1.393 3.113-3.112 0-1.72-1.394-3.113-3.113-3.113z"/><path d="m387.975 263.977c-1.719 0-3.113 1.394-3.113 3.113s1.394 3.112 3.113 3.112 3.113-1.393 3.113-3.112-1.394-3.113-3.113-3.113z"/><path d="m377.564 274.388c-1.719 0-3.113 1.394-3.113 3.113s1.393 3.112 3.113 3.112c1.719 0 3.113-1.393 3.113-3.112s-1.394-3.113-3.113-3.113z"/><path d="m387.975 284.043c-1.719 0-3.113 1.394-3.113 3.113s1.394 3.112 3.113 3.112 3.113-1.393 3.113-3.112-1.394-3.113-3.113-3.113z"/><path d="m377.564 294.454c-1.719 0-3.113 1.394-3.113 3.113s1.393 3.112 3.113 3.112c1.719 0 3.113-1.393 3.113-3.112s-1.394-3.113-3.113-3.113z"/><path d="m387.975 304.11c-1.719 0-3.113 1.394-3.113 3.113 0 1.252.743 2.324 1.809 2.818 1.439-.718 2.884-1.427 4.333-2.127.051-.223.083-.453.083-.691.001-1.719-1.393-3.113-3.112-3.113z"/><path d="m374.796 316.238c1.038-.567 2.081-1.125 3.124-1.681-.118-.014-.234-.036-.356-.036-1.214 0-2.255.703-2.768 1.717z"/><path d="m357.498 254.322c-1.719 0-3.113 1.394-3.113 3.113s1.393 3.112 3.113 3.112c1.719 0 3.112-1.393 3.112-3.112 0-1.72-1.393-3.113-3.112-3.113z"/><path d="m367.884 244.023c-1.719 0-3.113 1.394-3.113 3.113s1.393 3.112 3.113 3.112c1.719 0 3.112-1.393 3.112-3.112s-1.393-3.113-3.112-3.113z"/><path d="m367.909 263.977c-1.719 0-3.113 1.394-3.113 3.113s1.394 3.112 3.113 3.112 3.113-1.393 3.113-3.112c-.001-1.719-1.394-3.113-3.113-3.113z"/><path d="m357.498 274.388c-1.719 0-3.113 1.394-3.113 3.113s1.393 3.112 3.113 3.112c1.719 0 3.112-1.393 3.112-3.112s-1.393-3.113-3.112-3.113z"/><path d="m367.909 284.043c-1.719 0-3.113 1.394-3.113 3.113s1.394 3.112 3.113 3.112 3.113-1.393 3.113-3.112c-.001-1.719-1.394-3.113-3.113-3.113z"/><path d="m357.498 294.454c-1.719 0-3.113 1.394-3.113 3.113s1.393 3.112 3.113 3.112c1.719 0 3.112-1.393 3.112-3.112s-1.393-3.113-3.112-3.113z"/><path d="m367.909 304.11c-1.719 0-3.113 1.394-3.113 3.113s1.394 3.112 3.113 3.112 3.113-1.393 3.113-3.112c-.001-1.719-1.394-3.113-3.113-3.113z"/><path d="m357.498 314.521c-1.719 0-3.113 1.394-3.113 3.113s1.393 3.112 3.113 3.112c1.719 0 3.112-1.393 3.112-3.112 0-1.72-1.393-3.113-3.112-3.113z"/><path d="m347.842 263.977c-1.719 0-3.113 1.394-3.113 3.113s1.394 3.112 3.113 3.112 3.113-1.393 3.113-3.112-1.394-3.113-3.113-3.113z"/><path d="m337.432 274.388c-1.719 0-3.113 1.394-3.113 3.113s1.393 3.112 3.113 3.112c1.719 0 3.113-1.393 3.113-3.112-.001-1.719-1.394-3.113-3.113-3.113z"/><path d="m347.842 284.043c-1.719 0-3.113 1.394-3.113 3.113s1.394 3.112 3.113 3.112 3.113-1.393 3.113-3.112-1.394-3.113-3.113-3.113z"/><path d="m337.432 294.454c-1.719 0-3.113 1.394-3.113 3.113s1.393 3.112 3.113 3.112c1.719 0 3.113-1.393 3.113-3.112-.001-1.719-1.394-3.113-3.113-3.113z"/><path d="m347.842 304.11c-1.719 0-3.113 1.394-3.113 3.113s1.394 3.112 3.113 3.112 3.113-1.393 3.113-3.112-1.394-3.113-3.113-3.113z"/><path d="m337.432 314.521c-1.719 0-3.113 1.394-3.113 3.113s1.393 3.112 3.113 3.112c1.719 0 3.113-1.393 3.113-3.112-.001-1.72-1.394-3.113-3.113-3.113z"/><path d="m347.842 324.176c-1.719 0-3.113 1.394-3.113 3.113s1.394 3.112 3.113 3.112 3.113-1.393 3.113-3.112-1.394-3.113-3.113-3.113z"/><path d="m337.432 334.587c-1.719 0-3.113 1.394-3.113 3.113 0 1.072.542 2.017 1.368 2.577 1.611-.96 3.219-1.938 4.82-2.946-.185-1.543-1.483-2.744-3.075-2.744z"/><path d="m317.365 274.388c-1.719 0-3.112 1.394-3.112 3.113s1.393 3.112 3.112 3.112 3.113-1.393 3.113-3.112-1.394-3.113-3.113-3.113z"/><path d="m327.752 264.09c-1.719 0-3.112 1.394-3.112 3.113s1.393 3.112 3.112 3.112 3.113-1.393 3.113-3.112c-.001-1.72-1.394-3.113-3.113-3.113z"/><path d="m327.776 284.043c-1.719 0-3.113 1.394-3.113 3.113s1.394 3.112 3.113 3.112 3.113-1.393 3.113-3.112-1.394-3.113-3.113-3.113z"/><path d="m317.365 294.454c-1.719 0-3.112 1.394-3.112 3.113s1.393 3.112 3.112 3.112 3.113-1.393 3.113-3.112-1.394-3.113-3.113-3.113z"/><path d="m327.776 304.11c-1.719 0-3.113 1.394-3.113 3.113s1.394 3.112 3.113 3.112 3.113-1.393 3.113-3.112-1.394-3.113-3.113-3.113z"/><path d="m317.365 314.521c-1.719 0-3.112 1.394-3.112 3.113s1.393 3.112 3.112 3.112 3.113-1.393 3.113-3.112c0-1.72-1.394-3.113-3.113-3.113z"/><path d="m327.776 324.176c-1.719 0-3.113 1.394-3.113 3.113s1.394 3.112 3.113 3.112 3.113-1.393 3.113-3.112-1.394-3.113-3.113-3.113z"/><path d="m317.365 334.587c-1.719 0-3.112 1.394-3.112 3.113s1.393 3.112 3.112 3.112 3.113-1.393 3.113-3.112-1.394-3.113-3.113-3.113z"/><path d="m324.848 346.338c1.24-.649 2.479-1.306 3.715-1.983-.253-.066-.513-.113-.787-.113-1.361 0-2.505.879-2.928 2.096z"/><path d="m307.71 284.043c-1.719 0-3.113 1.394-3.113 3.113s1.394 3.112 3.113 3.112 3.113-1.393 3.113-3.112c-.001-1.719-1.394-3.113-3.113-3.113z"/><path d="m297.299 294.454c-1.719 0-3.113 1.394-3.113 3.113s1.394 3.112 3.113 3.112 3.113-1.393 3.113-3.112c-.001-1.719-1.394-3.113-3.113-3.113z"/><path d="m307.71 304.11c-1.719 0-3.113 1.394-3.113 3.113s1.394 3.112 3.113 3.112 3.113-1.393 3.113-3.112c-.001-1.719-1.394-3.113-3.113-3.113z"/><path d="m297.299 314.521c-1.719 0-3.113 1.394-3.113 3.113s1.394 3.112 3.113 3.112 3.113-1.393 3.113-3.112c-.001-1.72-1.394-3.113-3.113-3.113z"/><path d="m307.71 324.176c-1.719 0-3.113 1.394-3.113 3.113s1.394 3.112 3.113 3.112 3.113-1.393 3.113-3.112c-.001-1.719-1.394-3.113-3.113-3.113z"/><path d="m297.299 334.587c-1.719 0-3.113 1.394-3.113 3.113s1.394 3.112 3.113 3.112 3.113-1.393 3.113-3.112c-.001-1.719-1.394-3.113-3.113-3.113z"/><path d="m307.71 344.242c-1.719 0-3.113 1.394-3.113 3.113s1.394 3.112 3.113 3.112 3.113-1.393 3.113-3.112c-.001-1.719-1.394-3.113-3.113-3.113z"/><path d="m297.299 354.653c-1.719 0-3.113 1.394-3.113 3.113 0 .542.151 1.045.395 1.489 1.924-.64 3.85-1.316 5.776-2.026-.255-1.462-1.523-2.576-3.058-2.576z"/><path d="m287.643 304.11c-1.719 0-3.113 1.394-3.113 3.113s1.394 3.112 3.113 3.112 3.113-1.393 3.113-3.112-1.394-3.113-3.113-3.113z"/><path d="m277.233 314.521c-1.719 0-3.112 1.394-3.112 3.113s1.393 3.112 3.112 3.112 3.113-1.393 3.113-3.112c-.001-1.72-1.394-3.113-3.113-3.113z"/><path d="m287.643 324.176c-1.719 0-3.113 1.394-3.113 3.113s1.394 3.112 3.113 3.112 3.113-1.393 3.113-3.112-1.394-3.113-3.113-3.113z"/><path d="m277.233 334.587c-1.719 0-3.112 1.394-3.112 3.113s1.393 3.112 3.112 3.112 3.113-1.393 3.113-3.112c-.001-1.719-1.394-3.113-3.113-3.113z"/><path d="m287.643 344.242c-1.719 0-3.113 1.394-3.113 3.113s1.394 3.112 3.113 3.112 3.113-1.393 3.113-3.112-1.394-3.113-3.113-3.113z"/><path d="m277.233 354.653c-1.719 0-3.112 1.394-3.112 3.113s1.393 3.112 3.112 3.112 3.113-1.393 3.113-3.112c-.001-1.719-1.394-3.113-3.113-3.113z"/><path d="m267.577 304.11c-1.719 0-3.113 1.394-3.113 3.113s1.394 3.112 3.113 3.112 3.113-1.393 3.113-3.112-1.394-3.113-3.113-3.113z"/><path d="m277.259 294.427c-1.719 0-3.113 1.394-3.113 3.113s1.394 3.112 3.113 3.112 3.113-1.393 3.113-3.112-1.394-3.113-3.113-3.113z"/><path d="m257.166 314.521c-1.719 0-3.113 1.394-3.113 3.113s1.394 3.112 3.113 3.112 3.112-1.393 3.112-3.112c.001-1.72-1.393-3.113-3.112-3.113z"/><path d="m267.577 324.176c-1.719 0-3.113 1.394-3.113 3.113s1.394 3.112 3.113 3.112 3.113-1.393 3.113-3.112-1.394-3.113-3.113-3.113z"/><path d="m257.166 334.587c-1.719 0-3.113 1.394-3.113 3.113s1.394 3.112 3.113 3.112 3.112-1.393 3.112-3.112c.001-1.719-1.393-3.113-3.112-3.113z"/><path d="m267.577 344.242c-1.719 0-3.113 1.394-3.113 3.113s1.394 3.112 3.113 3.112 3.113-1.393 3.113-3.112-1.394-3.113-3.113-3.113z"/><path d="m257.166 354.653c-1.719 0-3.113 1.394-3.113 3.113s1.394 3.112 3.113 3.112 3.112-1.393 3.112-3.112c.001-1.719-1.393-3.113-3.112-3.113z"/><path d="m267.577 364.309c-1.371 0-2.522.893-2.937 2.124 1.797-.261 3.601-.557 5.41-.882-.568-.75-1.459-1.242-2.473-1.242z"/><path d="m237.1 314.521c-1.719 0-3.113 1.394-3.113 3.113s1.394 3.112 3.113 3.112 3.113-1.393 3.113-3.112c-.001-1.72-1.394-3.113-3.113-3.113z"/><path d="m247.511 324.176c-1.719 0-3.113 1.394-3.113 3.113s1.394 3.112 3.113 3.112 3.113-1.393 3.113-3.112c-.001-1.719-1.394-3.113-3.113-3.113z"/><path d="m237.1 340.812c1.719 0 3.113-1.393 3.113-3.112s-1.394-3.113-3.113-3.113-3.113 1.394-3.113 3.113 1.394 3.112 3.113 3.112z"/><path d="m247.511 344.242c-1.719 0-3.113 1.394-3.113 3.113s1.394 3.112 3.113 3.112 3.113-1.393 3.113-3.112c-.001-1.719-1.394-3.113-3.113-3.113z"/><path d="m237.1 360.878c1.719 0 3.113-1.393 3.113-3.112s-1.394-3.113-3.113-3.113-3.113 1.394-3.113 3.113 1.394 3.112 3.113 3.112z"/><path d="m250.623 367.422c0-1.719-1.394-3.113-3.113-3.113s-3.113 1.394-3.113 3.113c0 .191.023.377.056.559 2.03-.011 4.074-.072 6.13-.174.017-.128.04-.254.04-.385z"/><path d="m227.445 330.401c1.719 0 3.113-1.393 3.113-3.112s-1.394-3.113-3.113-3.113-3.113 1.394-3.113 3.113 1.393 3.112 3.113 3.112z"/><path d="m217.034 334.587c-1.719 0-3.113 1.394-3.113 3.113s1.394 3.112 3.113 3.112 3.113-1.393 3.113-3.112c-.001-1.719-1.394-3.113-3.113-3.113z"/><path d="m227.445 350.468c1.719 0 3.113-1.393 3.113-3.112s-1.394-3.113-3.113-3.113-3.113 1.394-3.113 3.113c0 1.718 1.393 3.112 3.113 3.112z"/><path d="m217.034 354.653c-1.719 0-3.113 1.394-3.113 3.113s1.394 3.112 3.113 3.112 3.113-1.393 3.113-3.112c-.001-1.719-1.394-3.113-3.113-3.113z"/><path d="m227.445 364.309c-1.409 0-2.586.943-2.969 2.227 2.004.311 4.028.572 6.071.782-.056-1.67-1.419-3.009-3.102-3.009z"/><path d="m207.378 324.176c-1.719 0-3.113 1.394-3.113 3.113s1.394 3.112 3.113 3.112 3.113-1.393 3.113-3.112-1.394-3.113-3.113-3.113z"/><path d="m217.061 314.67c-1.719 0-3.113 1.394-3.113 3.113s1.394 3.112 3.113 3.112 3.113-1.393 3.113-3.112c-.001-1.719-1.395-3.113-3.113-3.113z"/><path d="m196.967 340.812c1.719 0 3.113-1.393 3.113-3.112s-1.394-3.113-3.113-3.113-3.113 1.394-3.113 3.113c.001 1.719 1.394 3.112 3.113 3.112z"/><path d="m207.378 344.242c-1.719 0-3.113 1.394-3.113 3.113s1.394 3.112 3.113 3.112 3.113-1.393 3.113-3.112-1.394-3.113-3.113-3.113z"/><path d="m196.967 354.653c-1.438 0-2.636.98-2.993 2.305 1.819.915 3.673 1.769 5.557 2.569.345-.501.548-1.107.548-1.761.001-1.719-1.393-3.113-3.112-3.113z"/><path d="m187.312 324.176c-1.719 0-3.113 1.394-3.113 3.113s1.394 3.112 3.113 3.112 3.113-1.393 3.113-3.112c-.001-1.719-1.394-3.113-3.113-3.113z"/><path d="m176.837 314.494c-1.719 0-3.112 1.394-3.112 3.113s1.394 3.112 3.112 3.112c1.719 0 3.113-1.393 3.113-3.112 0-1.72-1.394-3.113-3.113-3.113z"/><path d="m176.901 340.812c1.719 0 3.113-1.393 3.113-3.112s-1.394-3.113-3.113-3.113-3.113 1.394-3.113 3.113 1.394 3.112 3.113 3.112z"/><path d="m187.312 344.242c-1.719 0-3.113 1.394-3.113 3.113s1.394 3.112 3.113 3.112 3.113-1.393 3.113-3.112c-.001-1.719-1.394-3.113-3.113-3.113z"/><path d="m159.947 317.633c0-1.719-1.394-3.113-3.113-3.113-1.346 0-2.481.859-2.916 2.055.678 1.372 1.388 2.725 2.131 4.059.252.066.512.112.785.112 1.72 0 3.113-1.393 3.113-3.113z"/><path d="m167.246 324.176c-1.719 0-3.113 1.394-3.113 3.113s1.394 3.112 3.113 3.112 3.113-1.393 3.113-3.112c-.001-1.719-1.394-3.113-3.113-3.113z"/></g><g fill="#31373d"><path d="m462.527 45.46c-61.997-60.353-160.667-60.531-219.95-.397-14.56 14.769-25.733 32.027-33.209 51.292-8.527 21.974-20.115 43.79-35.426 66.694-20.929 31.308-33.238 66.135-34.66 98.064-.768 17.246 1.52 33.147 6.698 47.291l-72.303 72.303c-8.454-8.003-19.902-12.362-31.549-11.941-12.228.421-23.407 5.759-31.478 15.029-14.188 16.296-14.202 40.884-.031 57.193 11.787 13.567 30.275 18.268 46.588 12.941-5.326 16.313-.625 34.803 12.941 46.589 8.149 7.08 18.362 10.618 28.577 10.618 10.23 0 20.462-3.551 28.615-10.65 9.27-8.071 14.608-19.25 15.03-31.478.416-12.059-4.236-23.866-12.764-32.394-.001-.002-.044-.044-.046-.046-.323-.322-.501-.736-.502-1.165 0-.263.07-.649.409-.988l70.366-70.366c13.097 5.256 27.779 7.952 43.705 7.952 2.244 0 4.512-.054 6.804-.161 32.07-1.499 67.011-13.955 98.386-35.076 20.919-14.082 43.581-26.027 67.354-35.507 19.091-7.613 36.172-18.874 50.767-33.469 28.885-28.885 44.64-67.568 44.362-108.922-.287-42.849-17.577-83.124-48.684-113.406zm-338.735 383.279c-1.782 1.781-2.762 4.15-2.76 6.67.002 2.576 1.018 5.006 2.852 6.834.008.009.037.038.046.046 7.063 7.063 10.764 16.454 10.419 26.442-.345 9.98-4.706 19.108-12.279 25.702-13.295 11.575-33.353 11.586-46.658.027-13.669-11.874-16.323-32.073-6.175-46.983 1.085-1.594.883-3.733-.48-5.096-.776-.776-1.804-1.176-2.839-1.176-.783 0-1.57.228-2.257.696-14.911 10.146-35.109 7.492-46.983-6.175-11.56-13.306-11.549-33.364.025-46.658 6.594-7.574 15.722-11.935 25.702-12.279 9.988-.35 19.379 3.356 26.441 10.417 1.29 1.291 3.009 2.004 4.841 2.004h.001c1.83 0 3.549-.711 4.84-2.002l70.784-70.785c4.672 9.976 10.917 18.939 18.689 26.711 7.067 7.067 15.115 12.875 24.013 17.383zm337.382-166.625c-13.82 13.82-29.991 24.481-48.064 31.688-24.303 9.691-47.472 21.905-68.864 36.305-33.338 22.442-68.802 33.792-100.394 33.789-27.739-.002-52.494-8.755-70.175-26.436-37.643-37.643-34.79-107.528 6.936-169.949 15.642-23.398 27.495-45.722 36.236-68.25 7.078-18.239 17.657-34.577 31.443-48.561 28.009-28.411 65.299-42.603 102.955-42.603 37.896 0 76.163 14.382 105.68 43.115 29.556 28.772 45.984 67.023 46.257 107.708.265 39.19-14.655 75.839-42.01 103.194z"/><path d="m346.16 103.1c-15.009 0-27.219-12.21-27.219-27.219s12.211-27.22 27.219-27.22c15.009 0 27.219 12.211 27.219 27.22s-12.211 27.219-27.219 27.219zm0-46.412c-10.583 0-19.193 8.61-19.193 19.193s8.61 19.192 19.193 19.192 19.193-8.609 19.193-19.192-8.61-19.193-19.193-19.193z"/><path d="m308.127 179.348c-10.439 0-18.931-8.493-18.931-18.932s8.492-18.931 18.931-18.931c10.438 0 18.931 8.492 18.931 18.931s-8.493 18.932-18.931 18.932zm0-29.836c-6.013 0-10.905 4.891-10.905 10.904s4.892 10.905 10.905 10.905 10.904-4.892 10.904-10.905-4.892-10.904-10.904-10.904z"/><ellipse cx="395.104" cy="129.888" rx="13.924" ry="13.924" transform="matrix(.707 -.707 .707 .707 23.879 317.424)"/><ellipse cx="222.665" cy="187.802" rx="13.924" ry="13.924" transform="matrix(.231 -.973 .973 .231 -11.517 361.031)"/></g></g></svg>