<svg id="Capa_1" enable-background="new 0 0 510.457 510.457" height="512" viewBox="0 0 510.457 510.457" width="512" xmlns="http://www.w3.org/2000/svg"><g><circle cx="255.228" cy="255.228" fill="#f9fbfc" r="251.229"/><g fill="#eaa895"><g><path d="m500.388 212.454c-1.695 0-3.069 1.374-3.069 3.068 0 1.695 1.374 3.069 3.069 3.069 1.528 0 2.785-1.12 3.02-2.582-.1-.635-.207-1.267-.311-1.9-.513-.98-1.527-1.655-2.709-1.655z"/><path d="m500.388 232.237c-1.695 0-3.069 1.374-3.069 3.069s1.374 3.069 3.069 3.069 3.069-1.374 3.069-3.069-1.374-3.069-3.069-3.069z"/><path d="m500.388 252.021c-1.695 0-3.069 1.374-3.069 3.069 0 1.694 1.374 3.068 3.069 3.068s3.069-1.374 3.069-3.068c0-1.695-1.374-3.069-3.069-3.069z"/><path d="m500.388 271.805c-1.695 0-3.069 1.374-3.069 3.068 0 1.695 1.374 3.069 3.069 3.069s3.069-1.374 3.069-3.069-1.374-3.068-3.069-3.068z"/><path d="m500.388 291.588c-1.695 0-3.069 1.374-3.069 3.069s1.374 3.068 3.069 3.068c1.223 0 2.27-.72 2.763-1.755.089-.548.186-1.094.272-1.643-.166-1.538-1.453-2.739-3.035-2.739z"/><path d="m480.604 153.104c-1.695 0-3.069 1.374-3.069 3.068 0 1.695 1.374 3.069 3.069 3.069s3.069-1.374 3.069-3.069-1.374-3.068-3.069-3.068z"/><path d="m480.604 172.887c-1.695 0-3.069 1.374-3.069 3.069s1.374 3.069 3.069 3.069 3.069-1.374 3.069-3.069-1.374-3.069-3.069-3.069z"/><path d="m490.869 182.406c-1.695 0-3.069 1.374-3.069 3.068 0 1.695 1.374 3.069 3.069 3.069s3.069-1.373 3.069-3.069c0-1.694-1.374-3.068-3.069-3.068z"/><path d="m480.604 192.67c-1.695 0-3.069 1.374-3.069 3.069 0 1.694 1.374 3.068 3.069 3.068s3.069-1.374 3.069-3.068c0-1.695-1.374-3.069-3.069-3.069z"/><path d="m490.869 202.189c-1.695 0-3.069 1.374-3.069 3.069s1.374 3.069 3.069 3.069 3.069-1.374 3.069-3.069-1.374-3.069-3.069-3.069z"/><path d="m480.604 212.454c-1.695 0-3.069 1.374-3.069 3.068 0 1.695 1.374 3.069 3.069 3.069s3.069-1.374 3.069-3.069c0-1.694-1.374-3.068-3.069-3.068z"/><path d="m490.869 221.973c-1.695 0-3.069 1.374-3.069 3.069s1.374 3.068 3.069 3.068 3.069-1.374 3.069-3.068c0-1.695-1.374-3.069-3.069-3.069z"/><path d="m480.604 232.237c-1.695 0-3.069 1.374-3.069 3.069s1.374 3.069 3.069 3.069 3.069-1.374 3.069-3.069-1.374-3.069-3.069-3.069z"/><path d="m490.869 241.757c-1.695 0-3.069 1.374-3.069 3.068 0 1.695 1.374 3.069 3.069 3.069s3.069-1.374 3.069-3.069c0-1.694-1.374-3.068-3.069-3.068z"/><path d="m480.604 252.021c-1.695 0-3.069 1.374-3.069 3.069 0 1.694 1.374 3.068 3.069 3.068s3.069-1.374 3.069-3.068c0-1.695-1.374-3.069-3.069-3.069z"/><path d="m490.869 261.54c-1.695 0-3.069 1.374-3.069 3.069s1.374 3.069 3.069 3.069 3.069-1.374 3.069-3.069-1.374-3.069-3.069-3.069z"/><path d="m480.604 271.805c-1.695 0-3.069 1.374-3.069 3.068 0 1.695 1.374 3.069 3.069 3.069s3.069-1.374 3.069-3.069-1.374-3.068-3.069-3.068z"/><path d="m490.869 281.324c-1.695 0-3.069 1.374-3.069 3.069s1.374 3.068 3.069 3.068 3.069-1.374 3.069-3.068c0-1.695-1.374-3.069-3.069-3.069z"/><path d="m480.604 291.588c-1.695 0-3.069 1.374-3.069 3.069s1.374 3.068 3.069 3.068 3.069-1.374 3.069-3.068-1.374-3.069-3.069-3.069z"/><path d="m490.869 301.107c-1.695 0-3.069 1.374-3.069 3.068 0 1.695 1.374 3.069 3.069 3.069s3.069-1.374 3.069-3.069c0-1.694-1.374-3.068-3.069-3.068z"/><path d="m480.604 311.372c-1.695 0-3.069 1.373-3.069 3.068s1.374 3.069 3.069 3.069 3.069-1.374 3.069-3.069-1.374-3.068-3.069-3.068z"/><path d="m490.869 320.891c-1.695 0-3.069 1.374-3.069 3.069s1.374 3.069 3.069 3.069 3.069-1.374 3.069-3.069-1.374-3.069-3.069-3.069z"/><path d="m480.604 331.155c-1.695 0-3.069 1.374-3.069 3.069s1.374 3.069 3.069 3.069 3.069-1.374 3.069-3.069-1.374-3.069-3.069-3.069z"/><path d="m480.604 350.939c-1.695 0-3.069 1.374-3.069 3.069s1.374 3.068 3.069 3.068 3.069-1.374 3.069-3.068-1.374-3.069-3.069-3.069z"/><path d="m460.821 113.536c-1.695 0-3.069 1.374-3.069 3.069s1.374 3.069 3.069 3.069 3.069-1.374 3.069-3.069-1.374-3.069-3.069-3.069z"/><path d="m460.821 133.32c-1.695 0-3.069 1.374-3.069 3.069 0 1.694 1.374 3.068 3.069 3.068s3.069-1.374 3.069-3.068c0-1.695-1.374-3.069-3.069-3.069z"/><path d="m471.085 142.839c-1.695 0-3.069 1.374-3.069 3.069s1.374 3.069 3.069 3.069 3.069-1.374 3.069-3.069-1.374-3.069-3.069-3.069z"/><path d="m460.821 153.104c-1.695 0-3.069 1.374-3.069 3.068 0 1.695 1.374 3.069 3.069 3.069s3.069-1.374 3.069-3.069-1.374-3.068-3.069-3.068z"/><path d="m471.085 162.622c-1.695 0-3.069 1.374-3.069 3.069s1.374 3.068 3.069 3.068 3.069-1.374 3.069-3.068-1.374-3.069-3.069-3.069z"/><path d="m460.821 172.887c-1.695 0-3.069 1.374-3.069 3.069s1.374 3.069 3.069 3.069 3.069-1.374 3.069-3.069-1.374-3.069-3.069-3.069z"/><path d="m471.085 182.406c-1.695 0-3.069 1.374-3.069 3.068 0 1.695 1.374 3.069 3.069 3.069s3.069-1.373 3.069-3.069c0-1.694-1.374-3.068-3.069-3.068z"/><path d="m460.821 192.67c-1.695 0-3.069 1.374-3.069 3.069 0 1.694 1.374 3.068 3.069 3.068s3.069-1.374 3.069-3.068c0-1.695-1.374-3.069-3.069-3.069z"/><path d="m471.085 202.189c-1.695 0-3.069 1.374-3.069 3.069s1.374 3.069 3.069 3.069 3.069-1.374 3.069-3.069-1.374-3.069-3.069-3.069z"/><path d="m460.821 212.454c-1.695 0-3.069 1.374-3.069 3.068 0 1.695 1.374 3.069 3.069 3.069s3.069-1.374 3.069-3.069c0-1.694-1.374-3.068-3.069-3.068z"/><path d="m471.085 221.973c-1.695 0-3.069 1.374-3.069 3.069s1.374 3.068 3.069 3.068 3.069-1.374 3.069-3.068c0-1.695-1.374-3.069-3.069-3.069z"/><path d="m460.821 232.237c-1.695 0-3.069 1.374-3.069 3.069s1.374 3.069 3.069 3.069 3.069-1.374 3.069-3.069-1.374-3.069-3.069-3.069z"/><path d="m471.085 241.757c-1.695 0-3.069 1.374-3.069 3.068 0 1.695 1.374 3.069 3.069 3.069s3.069-1.374 3.069-3.069c0-1.694-1.374-3.068-3.069-3.068z"/><path d="m460.821 252.021c-1.695 0-3.069 1.374-3.069 3.069 0 1.694 1.374 3.068 3.069 3.068s3.069-1.374 3.069-3.068c0-1.695-1.374-3.069-3.069-3.069z"/><path d="m471.085 261.54c-1.695 0-3.069 1.374-3.069 3.069s1.374 3.069 3.069 3.069 3.069-1.374 3.069-3.069-1.374-3.069-3.069-3.069z"/><path d="m460.821 271.805c-1.695 0-3.069 1.374-3.069 3.068 0 1.695 1.374 3.069 3.069 3.069s3.069-1.374 3.069-3.069-1.374-3.068-3.069-3.068z"/><path d="m471.085 281.324c-1.695 0-3.069 1.374-3.069 3.069s1.374 3.068 3.069 3.068 3.069-1.374 3.069-3.068c0-1.695-1.374-3.069-3.069-3.069z"/><path d="m460.821 291.588c-1.695 0-3.069 1.374-3.069 3.069s1.374 3.068 3.069 3.068 3.069-1.374 3.069-3.068-1.374-3.069-3.069-3.069z"/><path d="m471.085 301.107c-1.695 0-3.069 1.374-3.069 3.068 0 1.695 1.374 3.069 3.069 3.069s3.069-1.374 3.069-3.069c0-1.694-1.374-3.068-3.069-3.068z"/><path d="m460.821 311.372c-1.695 0-3.069 1.373-3.069 3.068s1.374 3.069 3.069 3.069 3.069-1.374 3.069-3.069-1.374-3.068-3.069-3.068z"/><path d="m471.085 320.891c-1.695 0-3.069 1.374-3.069 3.069s1.374 3.069 3.069 3.069 3.069-1.374 3.069-3.069-1.374-3.069-3.069-3.069z"/><path d="m460.821 331.155c-1.695 0-3.069 1.374-3.069 3.069s1.374 3.069 3.069 3.069 3.069-1.374 3.069-3.069-1.374-3.069-3.069-3.069z"/><path d="m471.085 340.674c-1.695 0-3.069 1.374-3.069 3.069s1.374 3.068 3.069 3.068 3.069-1.374 3.069-3.068c0-1.695-1.374-3.069-3.069-3.069z"/><path d="m460.821 350.939c-1.695 0-3.069 1.374-3.069 3.069s1.374 3.068 3.069 3.068 3.069-1.374 3.069-3.068-1.374-3.069-3.069-3.069z"/><path d="m471.085 360.458c-1.695 0-3.069 1.374-3.069 3.068 0 1.695 1.374 3.069 3.069 3.069s3.069-1.374 3.069-3.069c0-1.694-1.374-3.068-3.069-3.068z"/><path d="m460.821 370.722c-1.695 0-3.069 1.374-3.069 3.068s1.374 3.069 3.069 3.069 3.069-1.374 3.069-3.069-1.374-3.068-3.069-3.068z"/><path d="m460.821 390.505c-1.695 0-3.069 1.374-3.069 3.069s1.374 3.069 3.069 3.069 3.069-1.374 3.069-3.069-1.374-3.069-3.069-3.069z"/><path d="m441.038 99.89c1.695 0 3.069-1.374 3.069-3.069s-1.374-3.068-3.069-3.068-3.069 1.374-3.069 3.068c0 1.695 1.374 3.069 3.069 3.069z"/><path d="m451.302 103.272c-1.695 0-3.069 1.374-3.069 3.069s1.374 3.068 3.069 3.068 3.069-1.374 3.069-3.068c0-1.695-1.374-3.069-3.069-3.069z"/><path d="m441.038 119.674c1.695 0 3.069-1.374 3.069-3.069s-1.374-3.069-3.069-3.069-3.069 1.374-3.069 3.069 1.374 3.069 3.069 3.069z"/><path d="m451.302 123.056c-1.695 0-3.069 1.374-3.069 3.068 0 1.695 1.374 3.069 3.069 3.069s3.069-1.374 3.069-3.069c0-1.694-1.374-3.068-3.069-3.068z"/><path d="m441.038 139.457c1.695 0 3.069-1.374 3.069-3.068 0-1.695-1.374-3.069-3.069-3.069s-3.069 1.374-3.069 3.069c0 1.694 1.374 3.068 3.069 3.068z"/><path d="m431.464 129.147c1.695 0 3.069-1.374 3.069-3.068 0-1.695-1.374-3.069-3.069-3.069s-3.069 1.374-3.069 3.069c0 1.694 1.374 3.068 3.069 3.068z"/><path d="m451.302 142.839c-1.695 0-3.069 1.374-3.069 3.069s1.374 3.069 3.069 3.069 3.069-1.374 3.069-3.069-1.374-3.069-3.069-3.069z"/><path d="m451.302 162.622c-1.695 0-3.069 1.374-3.069 3.069s1.374 3.068 3.069 3.068 3.069-1.374 3.069-3.068-1.374-3.069-3.069-3.069z"/><path d="m451.302 320.891c-1.695 0-3.069 1.374-3.069 3.069s1.374 3.069 3.069 3.069 3.069-1.374 3.069-3.069-1.374-3.069-3.069-3.069z"/><path d="m451.302 340.674c-1.695 0-3.069 1.374-3.069 3.069s1.374 3.068 3.069 3.068 3.069-1.374 3.069-3.068c0-1.695-1.374-3.069-3.069-3.069z"/><path d="m441.038 350.939c-1.695 0-3.069 1.374-3.069 3.069s1.374 3.068 3.069 3.068 3.069-1.374 3.069-3.068-1.375-3.069-3.069-3.069z"/><path d="m451.302 360.458c-1.695 0-3.069 1.374-3.069 3.068 0 1.695 1.374 3.069 3.069 3.069s3.069-1.374 3.069-3.069c0-1.694-1.374-3.068-3.069-3.068z"/><path d="m441.038 370.722c-1.695 0-3.069 1.374-3.069 3.068s1.374 3.069 3.069 3.069 3.069-1.374 3.069-3.069-1.375-3.068-3.069-3.068z"/><path d="m451.302 380.241c-1.695 0-3.069 1.374-3.069 3.069s1.374 3.069 3.069 3.069 3.069-1.374 3.069-3.069-1.374-3.069-3.069-3.069z"/><path d="m441.038 390.505c-1.695 0-3.069 1.374-3.069 3.069s1.374 3.069 3.069 3.069 3.069-1.374 3.069-3.069c-.001-1.695-1.375-3.069-3.069-3.069z"/><path d="m451.302 400.025c-1.695 0-3.069 1.374-3.069 3.069s1.374 3.068 3.069 3.068 3.069-1.374 3.069-3.068c0-1.695-1.374-3.069-3.069-3.069z"/><path d="m441.038 410.289c-1.695 0-3.069 1.374-3.069 3.069s1.374 3.068 3.069 3.068 3.069-1.374 3.069-3.068c-.001-1.695-1.375-3.069-3.069-3.069z"/><path d="m421.254 80.106c1.695 0 3.069-1.374 3.069-3.068 0-1.695-1.374-3.069-3.069-3.069s-3.069 1.374-3.069 3.069c0 1.694 1.374 3.068 3.069 3.068z"/><path d="m431.518 89.626c1.695 0 3.069-1.374 3.069-3.069s-1.374-3.068-3.069-3.068-3.069 1.373-3.069 3.068 1.374 3.069 3.069 3.069z"/><path d="m421.254 99.89c1.695 0 3.069-1.374 3.069-3.069s-1.374-3.068-3.069-3.068-3.069 1.374-3.069 3.068c0 1.695 1.374 3.069 3.069 3.069z"/><path d="m411.68 89.647c1.695 0 3.069-1.374 3.069-3.069s-1.374-3.068-3.069-3.068-3.069 1.374-3.069 3.068c.001 1.695 1.375 3.069 3.069 3.069z"/><path d="m431.518 109.409c1.695 0 3.069-1.374 3.069-3.068 0-1.695-1.374-3.069-3.069-3.069s-3.069 1.374-3.069 3.069 1.374 3.068 3.069 3.068z"/><path d="m431.518 360.458c-1.695 0-3.069 1.374-3.069 3.068 0 1.695 1.374 3.069 3.069 3.069s3.069-1.374 3.069-3.069c0-1.694-1.374-3.068-3.069-3.068z"/><path d="m421.254 370.722c-1.695 0-3.069 1.374-3.069 3.068s1.374 3.069 3.069 3.069 3.069-1.374 3.069-3.069-1.374-3.068-3.069-3.068z"/><path d="m431.518 380.241c-1.695 0-3.069 1.374-3.069 3.069s1.374 3.069 3.069 3.069 3.069-1.374 3.069-3.069-1.374-3.069-3.069-3.069z"/><path d="m421.254 390.505c-1.695 0-3.069 1.374-3.069 3.069s1.374 3.069 3.069 3.069 3.069-1.374 3.069-3.069-1.374-3.069-3.069-3.069z"/><path d="m431.518 400.025c-1.695 0-3.069 1.374-3.069 3.069s1.374 3.068 3.069 3.068 3.069-1.374 3.069-3.068c0-1.695-1.374-3.069-3.069-3.069z"/><path d="m421.254 410.289c-1.695 0-3.069 1.374-3.069 3.069s1.374 3.068 3.069 3.068 3.069-1.374 3.069-3.068c0-1.695-1.374-3.069-3.069-3.069z"/><path d="m431.518 419.809c-1.695 0-3.069 1.374-3.069 3.068 0 1.695 1.374 3.069 3.069 3.069s3.069-1.374 3.069-3.069-1.374-3.068-3.069-3.068z"/><path d="m421.254 430.073c-1.695 0-3.069 1.374-3.069 3.068 0 1.695 1.374 3.069 3.069 3.069s3.069-1.374 3.069-3.069-1.374-3.068-3.069-3.068z"/><path d="m404.539 57.254c0-1.695-1.374-3.069-3.069-3.069s-3.069 1.374-3.069 3.069 1.374 3.069 3.069 3.069 3.069-1.374 3.069-3.069z"/><path d="m411.735 69.842c1.695 0 3.069-1.374 3.069-3.069 0-1.694-1.374-3.068-3.069-3.068s-3.069 1.374-3.069 3.068c0 1.696 1.374 3.069 3.069 3.069z"/><path d="m411.735 380.241c-1.695 0-3.069 1.374-3.069 3.069s1.374 3.069 3.069 3.069 3.069-1.374 3.069-3.069c-.001-1.695-1.375-3.069-3.069-3.069z"/><path d="m401.471 390.505c-1.695 0-3.069 1.374-3.069 3.069s1.374 3.069 3.069 3.069 3.069-1.374 3.069-3.069c-.001-1.695-1.375-3.069-3.069-3.069z"/><path d="m411.735 400.025c-1.695 0-3.069 1.374-3.069 3.069s1.374 3.068 3.069 3.068 3.069-1.374 3.069-3.068c-.001-1.695-1.375-3.069-3.069-3.069z"/><path d="m401.471 410.289c-1.695 0-3.069 1.374-3.069 3.069s1.374 3.068 3.069 3.068 3.069-1.374 3.069-3.068c-.001-1.695-1.375-3.069-3.069-3.069z"/><path d="m411.735 419.809c-1.695 0-3.069 1.374-3.069 3.068 0 1.695 1.374 3.069 3.069 3.069s3.069-1.374 3.069-3.069c-.001-1.695-1.375-3.068-3.069-3.068z"/><path d="m401.471 430.073c-1.695 0-3.069 1.374-3.069 3.068 0 1.695 1.374 3.069 3.069 3.069s3.069-1.374 3.069-3.069c-.001-1.695-1.375-3.068-3.069-3.068z"/><path d="m411.735 439.592c-1.695 0-3.069 1.374-3.069 3.069s1.374 3.069 3.069 3.069 3.069-1.374 3.069-3.069c-.001-1.695-1.375-3.069-3.069-3.069z"/><path d="m401.471 449.856c-1.695 0-3.069 1.374-3.069 3.069s1.374 3.069 3.069 3.069 3.069-1.374 3.069-3.069-1.375-3.069-3.069-3.069z"/><path d="m388.883 46.99c0 1.695 1.374 3.069 3.069 3.069s3.069-1.374 3.069-3.069c0-.188-.023-.371-.056-.55-1.226-.822-2.459-1.635-3.7-2.435-1.363.313-2.382 1.527-2.382 2.985z"/><path d="m391.951 400.025c-1.695 0-3.069 1.374-3.069 3.069s1.374 3.068 3.069 3.068 3.069-1.374 3.069-3.068c0-1.695-1.374-3.069-3.069-3.069z"/><path d="m381.687 410.289c-1.695 0-3.069 1.374-3.069 3.069s1.374 3.068 3.069 3.068 3.069-1.374 3.069-3.068c0-1.695-1.374-3.069-3.069-3.069z"/><path d="m391.951 419.809c-1.695 0-3.069 1.374-3.069 3.068 0 1.695 1.374 3.069 3.069 3.069s3.069-1.374 3.069-3.069-1.374-3.068-3.069-3.068z"/><path d="m381.687 430.073c-1.695 0-3.069 1.374-3.069 3.068 0 1.695 1.374 3.069 3.069 3.069s3.069-1.374 3.069-3.069-1.374-3.068-3.069-3.068z"/><path d="m391.951 439.592c-1.695 0-3.069 1.374-3.069 3.069s1.374 3.069 3.069 3.069 3.069-1.374 3.069-3.069-1.374-3.069-3.069-3.069z"/><path d="m381.687 449.856c-1.695 0-3.069 1.374-3.069 3.069s1.374 3.069 3.069 3.069 3.069-1.374 3.069-3.069-1.374-3.069-3.069-3.069z"/><path d="m391.951 459.375c-1.695 0-3.069 1.374-3.069 3.069 0 1.694 1.374 3.068 3.069 3.068.377 0 .734-.077 1.068-.202.385-.253.77-.504 1.153-.759.522-.55.848-1.289.848-2.107 0-1.694-1.374-3.069-3.069-3.069z"/><path d="m372.168 419.809c-1.695 0-3.069 1.374-3.069 3.068 0 1.695 1.374 3.069 3.069 3.069s3.069-1.374 3.069-3.069c-.001-1.695-1.375-3.068-3.069-3.068z"/><path d="m361.904 430.073c-1.695 0-3.069 1.374-3.069 3.068 0 1.695 1.374 3.069 3.069 3.069s3.069-1.374 3.069-3.069c-.001-1.695-1.375-3.068-3.069-3.068z"/><path d="m372.168 439.592c-1.695 0-3.069 1.374-3.069 3.069s1.374 3.069 3.069 3.069 3.069-1.374 3.069-3.069c-.001-1.695-1.375-3.069-3.069-3.069z"/><path d="m361.904 449.856c-1.695 0-3.069 1.374-3.069 3.069s1.374 3.069 3.069 3.069 3.069-1.374 3.069-3.069-1.375-3.069-3.069-3.069z"/><path d="m372.168 459.375c-1.695 0-3.069 1.374-3.069 3.069 0 1.694 1.374 3.068 3.069 3.068s3.069-1.374 3.069-3.068c-.001-1.694-1.375-3.069-3.069-3.069z"/><path d="m361.904 469.64c-1.695 0-3.069 1.374-3.069 3.069s1.374 3.068 3.069 3.068 3.069-1.374 3.069-3.068-1.375-3.069-3.069-3.069z"/><path d="m352.384 425.946c1.694 0 3.069-1.374 3.069-3.069 0-.616-.186-1.188-.499-1.668-1.599 1.257-3.214 2.494-4.844 3.712.562.624 1.368 1.025 2.274 1.025z"/><path d="m352.384 439.592c-1.695 0-3.069 1.374-3.069 3.069s1.374 3.069 3.069 3.069c1.694 0 3.069-1.374 3.069-3.069s-1.374-3.069-3.069-3.069z"/><path d="m342.12 449.856c-1.695 0-3.069 1.374-3.069 3.069s1.374 3.069 3.069 3.069 3.069-1.374 3.069-3.069-1.374-3.069-3.069-3.069z"/><path d="m352.384 459.375c-1.695 0-3.069 1.374-3.069 3.069 0 1.694 1.374 3.068 3.069 3.068 1.694 0 3.069-1.374 3.069-3.068s-1.374-3.069-3.069-3.069z"/><path d="m342.12 469.64c-1.695 0-3.069 1.374-3.069 3.069s1.374 3.068 3.069 3.068 3.069-1.374 3.069-3.068-1.374-3.069-3.069-3.069z"/><path d="m352.384 479.159c-1.695 0-3.069 1.374-3.069 3.068s1.374 3.069 3.069 3.069c1.694 0 3.069-1.374 3.069-3.069s-1.374-3.068-3.069-3.068z"/><path d="m332.601 439.592c-1.695 0-3.069 1.374-3.069 3.069s1.374 3.069 3.069 3.069 3.069-1.374 3.069-3.069c-.001-1.695-1.375-3.069-3.069-3.069z"/><path d="m342.04 430.085c-1.695 0-3.069 1.374-3.069 3.069s1.374 3.069 3.069 3.069 3.069-1.374 3.069-3.069-1.374-3.069-3.069-3.069z"/><path d="m322.336 449.856c-1.695 0-3.069 1.374-3.069 3.069s1.374 3.069 3.069 3.069 3.069-1.374 3.069-3.069-1.374-3.069-3.069-3.069z"/><path d="m332.601 459.375c-1.695 0-3.069 1.374-3.069 3.069 0 1.694 1.374 3.068 3.069 3.068s3.069-1.374 3.069-3.068c-.001-1.694-1.375-3.069-3.069-3.069z"/><path d="m322.336 469.64c-1.695 0-3.069 1.374-3.069 3.069s1.374 3.068 3.069 3.068 3.069-1.374 3.069-3.068-1.374-3.069-3.069-3.069z"/><path d="m332.601 479.159c-1.695 0-3.069 1.374-3.069 3.068s1.374 3.069 3.069 3.069 3.069-1.374 3.069-3.069-1.375-3.068-3.069-3.068z"/><path d="m322.336 489.423c-1.695 0-3.069 1.374-3.069 3.068s1.374 3.069 3.069 3.069 3.069-1.374 3.069-3.069-1.374-3.068-3.069-3.068z"/><path d="m312.817 459.375c-1.695 0-3.069 1.374-3.069 3.069 0 1.694 1.374 3.068 3.069 3.068s3.069-1.374 3.069-3.068-1.374-3.069-3.069-3.069z"/><path d="m302.553 469.64c-1.695 0-3.069 1.374-3.069 3.069s1.374 3.068 3.069 3.068 3.069-1.374 3.069-3.068-1.374-3.069-3.069-3.069z"/><path d="m312.817 479.159c-1.695 0-3.069 1.374-3.069 3.068s1.374 3.069 3.069 3.069 3.069-1.374 3.069-3.069-1.374-3.068-3.069-3.068z"/><path d="m302.553 489.423c-1.695 0-3.069 1.374-3.069 3.068s1.374 3.069 3.069 3.069 3.069-1.374 3.069-3.069-1.374-3.068-3.069-3.068z"/><path d="m293.034 459.375c-1.695 0-3.069 1.374-3.069 3.069 0 1.694 1.374 3.068 3.069 3.068s3.069-1.374 3.069-3.068c-.001-1.694-1.375-3.069-3.069-3.069z"/><path d="m282.77 469.64c-1.695 0-3.069 1.374-3.069 3.069s1.374 3.068 3.069 3.068 3.069-1.374 3.069-3.068-1.375-3.069-3.069-3.069z"/><path d="m293.034 479.159c-1.695 0-3.069 1.374-3.069 3.068s1.374 3.069 3.069 3.069 3.069-1.374 3.069-3.069-1.375-3.068-3.069-3.068z"/><path d="m282.77 489.423c-1.695 0-3.069 1.374-3.069 3.068s1.374 3.069 3.069 3.069 3.069-1.374 3.069-3.069-1.375-3.068-3.069-3.068z"/><path d="m296.102 502.011c0-1.695-1.374-3.069-3.069-3.069s-3.069 1.374-3.069 3.069c0 .742.274 1.414.713 1.944 1.738-.246 3.469-.508 5.195-.789.147-.356.23-.745.23-1.155z"/><path d="m262.986 469.64c-1.695 0-3.069 1.374-3.069 3.069s1.374 3.068 3.069 3.068 3.069-1.374 3.069-3.068-1.374-3.069-3.069-3.069z"/><path d="m273.25 479.159c-1.695 0-3.069 1.374-3.069 3.068s1.374 3.069 3.069 3.069 3.069-1.374 3.069-3.069-1.374-3.068-3.069-3.068z"/><path d="m262.986 489.423c-1.695 0-3.069 1.374-3.069 3.068s1.374 3.069 3.069 3.069 3.069-1.374 3.069-3.069-1.374-3.068-3.069-3.068z"/><path d="m273.25 498.942c-1.695 0-3.069 1.374-3.069 3.069s1.374 3.069 3.069 3.069 3.069-1.374 3.069-3.069-1.374-3.069-3.069-3.069z"/><path d="m250.398 482.228c0 1.695 1.374 3.069 3.069 3.069s3.069-1.374 3.069-3.069-1.374-3.068-3.069-3.068c-1.695-.001-3.069 1.373-3.069 3.068z"/><path d="m243.202 489.423c-1.695 0-3.069 1.374-3.069 3.068s1.374 3.069 3.069 3.069 3.069-1.374 3.069-3.069-1.374-3.068-3.069-3.068z"/><path d="m256.535 502.011c0-1.695-1.374-3.069-3.069-3.069s-3.069 1.374-3.069 3.069 1.374 3.069 3.069 3.069 3.069-1.374 3.069-3.069z"/><path d="m233.683 479.159c-1.695 0-3.069 1.374-3.069 3.068s1.374 3.069 3.069 3.069 3.069-1.374 3.069-3.069-1.374-3.068-3.069-3.068z"/><path d="m243.19 469.719c-1.695 0-3.069 1.374-3.069 3.068s1.374 3.069 3.069 3.069 3.069-1.374 3.069-3.069-1.374-3.068-3.069-3.068z"/><path d="m223.419 489.423c-1.695 0-3.069 1.374-3.069 3.068s1.374 3.069 3.069 3.069 3.069-1.374 3.069-3.069-1.374-3.068-3.069-3.068z"/><path d="m233.683 498.942c-1.695 0-3.069 1.374-3.069 3.069s1.374 3.069 3.069 3.069 3.069-1.374 3.069-3.069-1.374-3.069-3.069-3.069z"/><path d="m210.831 482.228c0 1.695 1.374 3.069 3.069 3.069s3.069-1.374 3.069-3.069-1.374-3.068-3.069-3.068c-1.695-.001-3.069 1.373-3.069 3.068z"/><path d="m203.635 495.56c1.695 0 3.069-1.374 3.069-3.069s-1.374-3.068-3.069-3.068-3.069 1.374-3.069 3.068 1.374 3.069 3.069 3.069z"/><path d="m191.047 482.228c0 1.695 1.374 3.069 3.069 3.069s3.069-1.374 3.069-3.069-1.374-3.068-3.069-3.068c-1.695-.001-3.069 1.373-3.069 3.068z"/><path d="m183.852 489.423c-1.695 0-3.069 1.374-3.069 3.068s1.374 3.069 3.069 3.069 3.069-1.374 3.069-3.069-1.374-3.068-3.069-3.068z"/><path d="m171.264 482.228c0 1.695 1.374 3.069 3.069 3.069s3.069-1.374 3.069-3.069-1.374-3.068-3.069-3.068c-1.695-.001-3.069 1.373-3.069 3.068z"/><path d="m141.216 472.708c0 1.695 1.374 3.068 3.069 3.068s3.069-1.374 3.069-3.068-1.374-3.069-3.069-3.069c-1.695.001-3.069 1.375-3.069 3.069z"/><path d="m157.618 482.228c0-1.695-1.374-3.068-3.069-3.068s-3.069 1.374-3.069 3.068c0 .958.448 1.803 1.136 2.365.491.22.982.44 1.475.657.151.023.301.046.458.046 1.695 0 3.069-1.374 3.069-3.068z"/></g><path d="m258.797 237.721c0-32.087-19.783-32.087-19.783-64.175 0-24.768 11.788-30.417 17.165-46.463 2.922-8.718-3.731-17.709-12.926-17.709h-27.233c2.717 0 4.683 8.991 3.819 17.709-1.589 16.046-10.83 19.429-10.83 44.196 0 32.087 16.246 32.891 16.246 64.978 0 32.088-16.246 31.285-16.246 63.373 0 32.09 16.246 32.893 16.246 64.983 0 28.538-9.265 33.16-10.289 56.08-.246 5.513-1.661 9.562-3.309 9.562h16.832c5.576 0 10.365-4.049 11.198-9.562 3.463-22.92 19.11-26.079 19.11-54.617 0-32.089-19.783-32.089-19.783-64.179 0-32.088 19.783-32.088 19.783-64.176z"/><path d="m111.301 403.358c1.385-18.917 10.021-24.98 10.021-51.501 0-32.087-16.246-32.891-16.246-64.978 0-32.088 16.246-31.285 16.246-63.373 0-32.09-16.246-32.893-16.246-64.983 0-27.903 10.178-29.277 11.331-50.849.343-6.422 2.011-11.064 3.94-11.064h-15.503c-6.526 0-12.171 4.642-13.333 11.064-3.903 21.572-18.861 25.212-18.861 53.115 0 32.09 19.783 32.09 19.784 64.18 0 32.088-19.784 32.088-19.784 64.177 0 32.087 19.783 32.087 19.784 64.175 0 26.521-13.516 31.121-18.205 50.038-1.779 7.177 3.603 14.134 10.997 14.134h29.325c-2.185-.001-3.776-6.958-3.25-14.135z"/><path d="m199.069 364.621c0-32.087-16.246-32.891-16.246-64.978 0-32.088 16.246-31.285 16.246-63.373 0-32.09-16.246-32.893-16.246-64.983 0-27.903 10.178-29.277 11.332-50.849.343-6.421 2.011-11.064 3.94-11.064h-15.503c-1.199 0-2.367.16-3.485.455-.145-7.062-5.994-13.219-13.601-13.219h-27.233c2.717 0 4.683 8.991 3.819 17.709-1.589 16.046-10.83 19.428-10.83 44.196 0 32.087 16.246 32.891 16.246 64.978 0 32.088-16.246 31.285-16.246 63.373 0 32.09 16.246 32.894 16.246 64.983 0 28.539-9.265 33.161-10.288 56.081-.246 5.513-1.661 9.562-3.309 9.562h16.832c.332 0 .661-.017.987-.044-.858 6.684 4.307 12.809 11.244 12.809h29.324c-2.185 0-3.775-6.957-3.25-14.134 1.386-18.917 10.021-24.981 10.021-51.502z"/></g><ellipse cx="336.999" cy="285.235" fill="#e9c278" rx="53.892" ry="53.892" transform="matrix(.16 -.987 .987 .16 1.466 572.192)"/><path d="m336.999 343.126c-31.922 0-57.892-25.97-57.892-57.892s25.97-57.892 57.892-57.892 57.892 25.97 57.892 57.892-25.97 57.892-57.892 57.892zm0-107.783c-27.511 0-49.892 22.381-49.892 49.892s22.381 49.892 49.892 49.892 49.892-22.381 49.892-49.892-22.381-49.892-49.892-49.892z" fill="#31373d"/><path d="m255.229 510.457c-68.174 0-132.268-26.549-180.474-74.755-48.206-48.206-74.755-112.3-74.755-180.473s26.549-132.268 74.755-180.474 112.3-74.755 180.474-74.755 132.268 26.549 180.474 74.755 74.755 112.3 74.755 180.474-26.549 132.268-74.755 180.474c-48.207 48.205-112.301 74.754-180.474 74.754zm0-502.457c-136.323 0-247.229 110.906-247.229 247.229s110.906 247.229 247.229 247.229 247.229-110.906 247.229-247.229-110.907-247.229-247.229-247.229z" fill="#31373d"/><path d="m462.204 215.775c-.778-23.351-10.564-45.196-27.552-61.511-7.352-7.06-15.685-12.718-24.668-16.864-35.586-46.628-91.706-76.786-154.756-76.786-39.405 0-76.104 11.783-106.78 31.995h-43.605c-8.501 0-15.763 6.036-17.268 14.353-1.524 8.424-4.882 13.871-8.438 19.639-5.156 8.362-10.487 17.01-10.487 34.188 0 10.856 2.131 18.302 4.999 24.425-8.413 21.736-13.035 45.344-13.035 70.015 0 36.579 10.156 70.825 27.78 100.089-.388 13.57-4.698 20.592-9.257 27.989-3.337 5.412-6.788 11.01-8.791 19.089-1.15 4.642-.124 9.46 2.816 13.218 2.923 3.736 7.319 5.879 12.062 5.879h62.649c.424 2.475 1.436 4.84 3.037 6.887 2.923 3.735 7.319 5.878 12.062 5.878h15.999c23.429 10.022 49.203 15.585 76.256 15.585 55.578 0 105.764-23.441 141.257-60.929 9.196-5.295 17.738-11.858 25.403-19.596 22.307-22.521 34.592-52.382 34.592-84.082 0-4.897-.301-9.829-.895-14.661-.979-7.974-.122-16.322 2.551-24.813 3.042-9.663 4.41-19.751 4.069-29.987zm-206.975-147.161c55.786 0 105.914 24.624 140.139 63.552-7.524-1.982-15.337-3.012-23.293-2.981-27.517.16-53.05 12.69-70.053 34.377-4.781 6.097-10.892 11.021-18.161 14.638-12.155 6.045-23.133 14.096-32.522 23.753-4.403-7.206-8.325-14.512-8.325-28.406 0-14.909 4.516-22.232 9.297-29.986 2.763-4.482 5.62-9.117 7.661-15.205 1.788-5.336.916-11.033-2.393-15.631-3.311-4.603-8.666-7.35-14.326-7.35h-60.661c-.043 0-.085.005-.128.006-.546-1.906-1.421-3.738-2.632-5.421-3.312-4.603-8.667-7.35-14.326-7.35h-1.725c27.041-15.269 58.242-23.996 91.448-23.996zm-176.422 125.829c.11.178.22.358.329.536 4.781 7.755 9.297 15.079 9.297 29.99 0 14.91-4.516 22.235-9.297 29.989-3.687 5.981-7.454 12.126-9.306 21.416-.788-6.943-1.216-13.995-1.216-21.145.001-21.277 3.603-41.722 10.193-60.786zm69.733 219.049h-63.314c-2.266 0-4.366-1.023-5.762-2.808-1.414-1.808-1.906-4.127-1.352-6.364 1.702-6.868 4.681-11.7 7.835-16.815 5.155-8.361 10.486-17.008 10.486-34.185 0-17.178-5.331-25.825-10.487-34.188-4.78-7.754-9.296-15.078-9.296-29.987 0-14.91 4.516-22.234 9.296-29.988 5.156-8.363 10.487-17.01 10.487-34.188s-5.331-25.826-10.486-34.189c-4.781-7.755-9.297-15.079-9.297-29.99s4.516-22.235 9.297-29.99c3.789-6.146 7.707-12.501 9.501-22.413.816-4.506 4.767-7.776 9.396-7.776h60.662c3.139 0 5.993 1.466 7.832 4.021.592.823 1.029 1.712 1.328 2.635-4.776 2.406-8.341 6.921-9.343 12.461-1.523 8.424-4.882 13.871-8.438 19.639-5.156 8.362-10.487 17.01-10.487 34.188s5.331 25.826 10.487 34.189c4.781 7.755 9.297 15.079 9.297 29.99 0 14.91-4.516 22.234-9.297 29.988-5.156 8.362-10.487 17.01-10.487 34.188s5.331 25.824 10.487 34.187c4.781 7.754 9.297 15.078 9.297 29.988 0 14.908-4.516 22.233-9.297 29.985-3.102 5.032-6.301 10.225-8.345 17.422zm8.672 9.957c-1.414-1.808-1.907-4.127-1.352-6.364 1.702-6.868 4.682-11.7 7.835-16.815 5.156-8.361 10.487-17.008 10.487-34.185 0-17.178-5.331-25.825-10.487-34.188-4.781-7.754-9.297-15.078-9.297-29.987 0-14.91 4.516-22.235 9.297-29.989 5.156-8.362 10.487-17.01 10.487-34.188 0-17.179-5.331-25.826-10.487-34.189-4.781-7.755-9.297-15.079-9.297-29.99s4.516-22.235 9.297-29.99c3.789-6.146 7.707-12.501 9.501-22.413.815-4.506 4.767-7.776 9.396-7.776h60.661c3.139 0 5.994 1.466 7.833 4.021 1.786 2.483 2.261 5.551 1.3 8.417-1.748 5.216-4.243 9.263-6.886 13.548-5.155 8.362-10.486 17.009-10.486 34.186 0 17.178 5.331 25.825 10.487 34.188 4.78 7.754 9.296 15.078 9.296 29.987 0 14.91-4.516 22.235-9.297 29.989-5.155 8.362-10.486 17.01-10.486 34.188 0 17.179 5.331 25.826 10.486 34.19 4.781 7.755 9.297 15.079 9.297 29.99s-4.516 22.235-9.297 29.99c-3.997 6.483-8.13 13.188-9.769 24.029-.53 3.512-3.645 6.16-7.242 6.16h-65.516c-2.265-.001-4.366-1.025-5.761-2.809zm98.017 18.393c-18.281 0-35.95-2.659-52.656-7.585h25.917c7.521 0 14.035-5.573 15.152-12.965 1.395-9.228 4.928-14.958 8.669-21.026 3.816-6.19 7.723-12.547 9.498-22.396 21.305 17.401 47.564 26.848 75.193 26.847.408 0 .82-.002 1.228-.006 12.415-.126 24.528-2.143 36.014-5.897-32.326 26.848-73.808 43.028-119.015 43.028zm195.277-198.485c-3.018 9.591-3.98 19.076-2.859 28.191.554 4.51.834 9.114.834 13.686 0 60.853-49.494 110.862-110.331 111.477-27.992.314-54.548-9.821-75.393-28.558.018-.685.041-1.362.041-2.076 0-17.179-5.331-25.826-10.486-34.189-4.781-7.755-9.297-15.079-9.297-29.99 0-14.91 4.516-22.234 9.297-29.988 5.155-8.363 10.486-17.01 10.486-34.189 0-13.513-3.302-21.741-7.22-28.71 8.945-9.52 19.642-17.58 31.845-23.649 8.344-4.149 15.373-9.823 20.894-16.864 15.488-19.754 38.744-31.167 63.805-31.312.157-.001.311-.001.469-.001 43.598 0 80.166 35.28 81.618 78.858v.001c.311 9.328-.936 18.517-3.703 27.313z" fill="#31373d"/></g></svg>