<svg id="Capa_1" enable-background="new 0 0 511.458 511.458" height="512" viewBox="0 0 511.458 511.458" width="512" xmlns="http://www.w3.org/2000/svg"><g><path d="m255.731 507.436c-20.178 0-36.535-16.357-36.535-36.535v-134.815h73.07v134.816c0 20.177-16.357 36.534-36.535 36.534z" fill="#f9fbfc"/><g fill="#eaa895"><path d="m283.211 396.269c-1.691 0-3.062 1.371-3.062 3.062s1.371 3.062 3.062 3.062 3.062-1.371 3.062-3.062c0-1.692-1.371-3.062-3.062-3.062z"/><path d="m283.211 416.008c-1.691 0-3.062 1.371-3.062 3.062s1.371 3.061 3.062 3.061 3.062-1.371 3.062-3.061c0-1.691-1.371-3.062-3.062-3.062z"/><path d="m263.472 396.269c-1.691 0-3.062 1.371-3.062 3.062s1.371 3.062 3.062 3.062 3.062-1.371 3.062-3.062c0-1.692-1.371-3.062-3.062-3.062z"/><path d="m273.713 405.767c-1.691 0-3.062 1.371-3.062 3.062s1.371 3.061 3.062 3.061 3.062-1.371 3.062-3.061c0-1.692-1.371-3.062-3.062-3.062z"/><path d="m263.472 416.008c-1.691 0-3.062 1.371-3.062 3.062s1.371 3.061 3.062 3.061 3.062-1.371 3.062-3.061c0-1.691-1.371-3.062-3.062-3.062z"/><path d="m273.713 425.506c-1.691 0-3.062 1.371-3.062 3.062s1.371 3.061 3.062 3.061 3.062-1.371 3.062-3.061c0-1.692-1.371-3.062-3.062-3.062z"/><path d="m243.733 396.269c-1.691 0-3.062 1.371-3.062 3.062s1.371 3.062 3.062 3.062 3.062-1.371 3.062-3.062c0-1.692-1.371-3.062-3.062-3.062z"/><path d="m253.974 405.767c-1.691 0-3.062 1.371-3.062 3.062s1.371 3.061 3.062 3.061 3.062-1.371 3.062-3.061c0-1.692-1.371-3.062-3.062-3.062z"/><path d="m243.733 416.008c-1.691 0-3.062 1.371-3.062 3.062s1.371 3.061 3.062 3.061 3.062-1.371 3.062-3.061c0-1.691-1.371-3.062-3.062-3.062z"/><path d="m253.974 425.506c-1.691 0-3.062 1.371-3.062 3.062s1.371 3.061 3.062 3.061 3.062-1.371 3.062-3.061c0-1.692-1.371-3.062-3.062-3.062z"/><path d="m220.932 399.331c0 1.691 1.371 3.062 3.062 3.062s3.062-1.371 3.062-3.062-1.371-3.062-3.062-3.062-3.062 1.37-3.062 3.062z"/><path d="m234.235 405.767c-1.691 0-3.062 1.371-3.062 3.062s1.371 3.061 3.062 3.061 3.062-1.371 3.062-3.061c0-1.692-1.371-3.062-3.062-3.062z"/><path d="m223.994 422.131c1.691 0 3.062-1.371 3.062-3.061 0-1.691-1.371-3.062-3.062-3.062s-3.062 1.371-3.062 3.062 1.371 3.061 3.062 3.061z"/><path d="m234.235 425.506c-1.691 0-3.062 1.371-3.062 3.062s1.371 3.061 3.062 3.061 3.062-1.371 3.062-3.061c0-1.692-1.371-3.062-3.062-3.062z"/></g><path d="m349.431 394.577h-187.4c-21.91 0-39.272-18.495-37.889-40.361l18.062-285.611c2.296-36.31 32.415-64.584 68.797-64.584h87.201c36.173 0 66.193 27.96 68.76 64.042l20.338 285.855c1.563 21.973-15.841 40.659-37.869 40.659z" fill="#e9c278"/><g fill="#f9fbfc"><path d="m381.906 301.012c-1.691 0-3.062 1.371-3.062 3.061 0 1.691 1.371 3.062 3.062 3.062.773 0 1.472-.296 2.01-.769l-.345-4.857c-.479-.312-1.049-.497-1.665-.497z"/><path d="m381.906 320.75c-1.691 0-3.062 1.371-3.062 3.062s1.371 3.062 3.062 3.062 3.062-1.371 3.062-3.062-1.371-3.062-3.062-3.062z"/><path d="m381.906 340.489c-1.691 0-3.062 1.371-3.062 3.062s1.371 3.062 3.062 3.062 3.062-1.37 3.062-3.062c0-1.69-1.371-3.062-3.062-3.062z"/><path d="m381.906 366.352c1.691 0 3.062-1.371 3.062-3.062s-1.371-3.062-3.062-3.062-3.062 1.371-3.062 3.062 1.371 3.062 3.062 3.062z"/><path d="m362.167 64.142c-1.691 0-3.062 1.371-3.062 3.062s1.371 3.062 3.062 3.062 3.062-1.371 3.062-3.062-1.371-3.062-3.062-3.062z"/><path d="m362.167 83.881c-1.691 0-3.062 1.371-3.062 3.062s1.371 3.062 3.062 3.062 3.062-1.371 3.062-3.062-1.371-3.062-3.062-3.062z"/><path d="m362.167 103.62c-1.691 0-3.062 1.371-3.062 3.062s1.371 3.062 3.062 3.062 3.062-1.371 3.062-3.062-1.371-3.062-3.062-3.062z"/><path d="m362.167 123.36c-1.691 0-3.062 1.371-3.062 3.062s1.371 3.062 3.062 3.062 3.062-1.371 3.062-3.062c0-1.692-1.371-3.062-3.062-3.062z"/><path d="m362.167 143.099c-1.691 0-3.062 1.371-3.062 3.062s1.371 3.062 3.062 3.062 3.062-1.371 3.062-3.062c0-1.692-1.371-3.062-3.062-3.062z"/><path d="m362.167 162.838c-1.691 0-3.062 1.371-3.062 3.062s1.371 3.062 3.062 3.062 3.062-1.371 3.062-3.062c0-1.692-1.371-3.062-3.062-3.062z"/><path d="m372.408 172.336c-1.691 0-3.062 1.371-3.062 3.062s1.371 3.061 3.062 3.061c.939 0 1.769-.432 2.331-1.097l-.302-4.242c-.541-.482-1.247-.784-2.029-.784z"/><path d="m362.167 182.577c-1.691 0-3.062 1.371-3.062 3.062s1.371 3.061 3.062 3.061 3.062-1.371 3.062-3.061c0-1.691-1.371-3.062-3.062-3.062z"/><path d="m372.408 192.075c-1.691 0-3.062 1.371-3.062 3.062s1.371 3.061 3.062 3.061 3.062-1.371 3.062-3.061c0-1.691-1.371-3.062-3.062-3.062z"/><path d="m362.167 202.316c-1.691 0-3.062 1.371-3.062 3.062s1.371 3.061 3.062 3.061 3.062-1.371 3.062-3.061c0-1.691-1.371-3.062-3.062-3.062z"/><path d="m372.408 211.814c-1.691 0-3.062 1.371-3.062 3.062s1.371 3.061 3.062 3.061 3.062-1.371 3.062-3.061c0-1.691-1.371-3.062-3.062-3.062z"/><path d="m362.167 222.055c-1.691 0-3.062 1.371-3.062 3.061 0 1.691 1.371 3.062 3.062 3.062s3.062-1.371 3.062-3.062c0-1.69-1.371-3.061-3.062-3.061z"/><path d="m372.408 231.553c-1.691 0-3.062 1.371-3.062 3.062s1.371 3.061 3.062 3.061 3.062-1.371 3.062-3.061c0-1.691-1.371-3.062-3.062-3.062z"/><path d="m362.167 241.794c-1.691 0-3.062 1.371-3.062 3.061 0 1.691 1.371 3.062 3.062 3.062s3.062-1.371 3.062-3.062c0-1.69-1.371-3.061-3.062-3.061z"/><path d="m372.408 251.292c-1.691 0-3.062 1.371-3.062 3.061 0 1.691 1.371 3.062 3.062 3.062s3.062-1.371 3.062-3.062c0-1.69-1.371-3.061-3.062-3.061z"/><path d="m362.167 261.534c-1.691 0-3.062 1.37-3.062 3.061s1.371 3.062 3.062 3.062 3.062-1.371 3.062-3.062-1.371-3.061-3.062-3.061z"/><path d="m372.408 271.031c-1.691 0-3.062 1.371-3.062 3.061 0 1.691 1.371 3.062 3.062 3.062s3.062-1.371 3.062-3.062c0-1.69-1.371-3.061-3.062-3.061z"/><path d="m362.167 281.273c-1.691 0-3.062 1.37-3.062 3.061s1.371 3.062 3.062 3.062 3.062-1.371 3.062-3.062-1.371-3.061-3.062-3.061z"/><path d="m372.408 290.77c-1.691 0-3.062 1.371-3.062 3.062s1.371 3.062 3.062 3.062 3.062-1.371 3.062-3.062-1.371-3.062-3.062-3.062z"/><path d="m362.167 301.012c-1.691 0-3.062 1.371-3.062 3.061 0 1.691 1.371 3.062 3.062 3.062s3.062-1.371 3.062-3.062-1.371-3.061-3.062-3.061z"/><path d="m372.408 310.51c-1.691 0-3.062 1.371-3.062 3.061 0 1.691 1.371 3.062 3.062 3.062s3.062-1.371 3.062-3.062-1.371-3.061-3.062-3.061z"/><path d="m362.167 320.75c-1.691 0-3.062 1.371-3.062 3.062s1.371 3.062 3.062 3.062 3.062-1.371 3.062-3.062-1.371-3.062-3.062-3.062z"/><path d="m372.408 330.248c-1.691 0-3.062 1.371-3.062 3.062s1.371 3.062 3.062 3.062 3.062-1.371 3.062-3.062-1.371-3.062-3.062-3.062z"/><path d="m362.167 340.489c-1.691 0-3.062 1.371-3.062 3.062s1.371 3.062 3.062 3.062 3.062-1.37 3.062-3.062c0-1.69-1.371-3.062-3.062-3.062z"/><path d="m372.408 349.987c-1.691 0-3.062 1.371-3.062 3.062s1.371 3.062 3.062 3.062 3.062-1.371 3.062-3.062-1.371-3.062-3.062-3.062z"/><path d="m362.167 360.228c-1.691 0-3.062 1.371-3.062 3.062s1.371 3.062 3.062 3.062 3.062-1.371 3.062-3.062-1.371-3.062-3.062-3.062z"/><path d="m372.408 375.85c1.691 0 3.062-1.371 3.062-3.062s-1.371-3.062-3.062-3.062-3.062 1.371-3.062 3.062c.001 1.691 1.371 3.062 3.062 3.062z"/><path d="m362.167 379.968c-1.691 0-3.062 1.371-3.062 3.062s1.371 3.062 3.062 3.062 3.062-1.371 3.062-3.062-1.371-3.062-3.062-3.062z"/><path d="m342.428 24.664c-1.691 0-3.062 1.371-3.062 3.062s1.371 3.062 3.062 3.062 3.062-1.371 3.062-3.062-1.371-3.062-3.062-3.062z"/><path d="m352.669 34.162c-1.691 0-3.062 1.371-3.062 3.061 0 1.691 1.371 3.062 3.062 3.062s3.062-1.371 3.062-3.062c0-1.69-1.371-3.061-3.062-3.061z"/><path d="m342.428 44.403c-1.691 0-3.062 1.371-3.062 3.062s1.371 3.062 3.062 3.062 3.062-1.371 3.062-3.062-1.371-3.062-3.062-3.062z"/><path d="m352.669 53.902c-1.691 0-3.062 1.371-3.062 3.061 0 1.691 1.371 3.062 3.062 3.062s3.062-1.371 3.062-3.062-1.371-3.061-3.062-3.061z"/><path d="m342.428 64.142c-1.691 0-3.062 1.371-3.062 3.062s1.371 3.062 3.062 3.062 3.062-1.371 3.062-3.062-1.371-3.062-3.062-3.062z"/><path d="m352.669 73.64c-1.691 0-3.062 1.371-3.062 3.062s1.371 3.062 3.062 3.062 3.062-1.371 3.062-3.062-1.371-3.062-3.062-3.062z"/><path d="m342.428 83.881c-1.691 0-3.062 1.371-3.062 3.062s1.371 3.062 3.062 3.062 3.062-1.371 3.062-3.062-1.371-3.062-3.062-3.062z"/><path d="m352.669 93.379c-1.691 0-3.062 1.371-3.062 3.062s1.371 3.062 3.062 3.062 3.062-1.371 3.062-3.062c0-1.69-1.371-3.062-3.062-3.062z"/><path d="m342.428 103.62c-1.691 0-3.062 1.371-3.062 3.062s1.371 3.062 3.062 3.062 3.062-1.371 3.062-3.062-1.371-3.062-3.062-3.062z"/><path d="m352.669 113.118c-1.691 0-3.062 1.371-3.062 3.062s1.371 3.062 3.062 3.062 3.062-1.371 3.062-3.062c0-1.69-1.371-3.062-3.062-3.062z"/><path d="m342.428 123.36c-1.691 0-3.062 1.371-3.062 3.062s1.371 3.062 3.062 3.062 3.062-1.371 3.062-3.062c0-1.692-1.371-3.062-3.062-3.062z"/><path d="m352.669 132.857c-1.691 0-3.062 1.371-3.062 3.062s1.371 3.062 3.062 3.062 3.062-1.371 3.062-3.062-1.371-3.062-3.062-3.062z"/><path d="m342.428 143.099c-1.691 0-3.062 1.371-3.062 3.062s1.371 3.062 3.062 3.062 3.062-1.371 3.062-3.062c0-1.692-1.371-3.062-3.062-3.062z"/><path d="m352.669 152.597c-1.691 0-3.062 1.371-3.062 3.062s1.371 3.062 3.062 3.062 3.062-1.371 3.062-3.062c0-1.692-1.371-3.062-3.062-3.062z"/><path d="m342.428 162.838c-1.691 0-3.062 1.371-3.062 3.062s1.371 3.062 3.062 3.062 3.062-1.371 3.062-3.062c0-1.692-1.371-3.062-3.062-3.062z"/><path d="m352.669 172.336c-1.691 0-3.062 1.371-3.062 3.062s1.371 3.061 3.062 3.061 3.062-1.371 3.062-3.061c0-1.692-1.371-3.062-3.062-3.062z"/><path d="m342.428 182.577c-1.691 0-3.062 1.371-3.062 3.062s1.371 3.061 3.062 3.061 3.062-1.371 3.062-3.061c0-1.691-1.371-3.062-3.062-3.062z"/><path d="m332.898 192.059c-1.691 0-3.062 1.371-3.062 3.062s1.371 3.061 3.062 3.061 3.062-1.371 3.062-3.061c0-1.692-1.371-3.062-3.062-3.062z"/><path d="m352.669 192.075c-1.691 0-3.062 1.371-3.062 3.062s1.371 3.061 3.062 3.061 3.062-1.371 3.062-3.061c0-1.691-1.371-3.062-3.062-3.062z"/><path d="m342.428 202.316c-1.691 0-3.062 1.371-3.062 3.062s1.371 3.061 3.062 3.061 3.062-1.371 3.062-3.061c0-1.691-1.371-3.062-3.062-3.062z"/><path d="m352.669 211.814c-1.691 0-3.062 1.371-3.062 3.062s1.371 3.061 3.062 3.061 3.062-1.371 3.062-3.061c0-1.691-1.371-3.062-3.062-3.062z"/><path d="m342.428 222.055c-1.691 0-3.062 1.371-3.062 3.061 0 1.691 1.371 3.062 3.062 3.062s3.062-1.371 3.062-3.062c0-1.69-1.371-3.061-3.062-3.061z"/><path d="m332.947 211.796c-1.691 0-3.062 1.371-3.062 3.061 0 1.691 1.371 3.062 3.062 3.062s3.062-1.371 3.062-3.062c-.001-1.691-1.371-3.061-3.062-3.061z"/><path d="m332.947 231.585c-1.691 0-3.062 1.371-3.062 3.062s1.371 3.062 3.062 3.062 3.062-1.371 3.062-3.062c-.001-1.691-1.371-3.062-3.062-3.062z"/><path d="m352.669 231.553c-1.691 0-3.062 1.371-3.062 3.062s1.371 3.061 3.062 3.061 3.062-1.371 3.062-3.061c0-1.691-1.371-3.062-3.062-3.062z"/><path d="m342.428 241.794c-1.691 0-3.062 1.371-3.062 3.061 0 1.691 1.371 3.062 3.062 3.062s3.062-1.371 3.062-3.062c0-1.69-1.371-3.061-3.062-3.061z"/><path d="m352.669 251.292c-1.691 0-3.062 1.371-3.062 3.061 0 1.691 1.371 3.062 3.062 3.062s3.062-1.371 3.062-3.062c0-1.69-1.371-3.061-3.062-3.061z"/><path d="m342.428 261.534c-1.691 0-3.062 1.37-3.062 3.061s1.371 3.062 3.062 3.062 3.062-1.371 3.062-3.062-1.371-3.061-3.062-3.061z"/><path d="m352.669 271.031c-1.691 0-3.062 1.371-3.062 3.061 0 1.691 1.371 3.062 3.062 3.062s3.062-1.371 3.062-3.062c0-1.69-1.371-3.061-3.062-3.061z"/><path d="m342.428 281.273c-1.691 0-3.062 1.37-3.062 3.061s1.371 3.062 3.062 3.062 3.062-1.371 3.062-3.062-1.371-3.061-3.062-3.061z"/><path d="m352.669 290.77c-1.691 0-3.062 1.371-3.062 3.062s1.371 3.062 3.062 3.062 3.062-1.371 3.062-3.062-1.371-3.062-3.062-3.062z"/><path d="m342.428 301.012c-1.691 0-3.062 1.371-3.062 3.061 0 1.691 1.371 3.062 3.062 3.062s3.062-1.371 3.062-3.062-1.371-3.061-3.062-3.061z"/><path d="m352.669 310.51c-1.691 0-3.062 1.371-3.062 3.061 0 1.691 1.371 3.062 3.062 3.062s3.062-1.371 3.062-3.062-1.371-3.061-3.062-3.061z"/><path d="m342.428 320.75c-1.691 0-3.062 1.371-3.062 3.062s1.371 3.062 3.062 3.062 3.062-1.371 3.062-3.062-1.371-3.062-3.062-3.062z"/><path d="m352.669 330.248c-1.691 0-3.062 1.371-3.062 3.062s1.371 3.062 3.062 3.062 3.062-1.371 3.062-3.062-1.371-3.062-3.062-3.062z"/><path d="m352.669 349.987c-1.691 0-3.062 1.371-3.062 3.062s1.371 3.062 3.062 3.062 3.062-1.371 3.062-3.062-1.371-3.062-3.062-3.062z"/><path d="m342.459 340.506c-1.691 0-3.062 1.371-3.062 3.062s1.371 3.062 3.062 3.062 3.062-1.371 3.062-3.062c-.001-1.691-1.372-3.062-3.062-3.062z"/><path d="m342.459 360.247c-1.691 0-3.062 1.371-3.062 3.062s1.371 3.062 3.062 3.062 3.062-1.371 3.062-3.062c-.001-1.691-1.372-3.062-3.062-3.062z"/><path d="m352.669 369.726c-1.691 0-3.062 1.371-3.062 3.062s1.371 3.062 3.062 3.062 3.062-1.371 3.062-3.062c0-1.69-1.371-3.062-3.062-3.062z"/><path d="m342.428 386.091c1.691 0 3.062-1.371 3.062-3.062s-1.371-3.062-3.062-3.062-3.062 1.371-3.062 3.062 1.371 3.062 3.062 3.062z"/><path d="m355.731 392.527c0-1.691-1.371-3.062-3.062-3.062s-3.062 1.371-3.062 3.062c0 .78.3 1.484.78 2.024 1.656-.041 3.287-.179 4.881-.425.289-.466.463-1.01.463-1.599z"/><path d="m332.93 20.547c1.691 0 3.062-1.371 3.062-3.062s-1.371-3.061-3.062-3.061-3.062 1.371-3.062 3.061c0 1.691 1.371 3.062 3.062 3.062z"/><circle cx="322.689" cy="27.726" r="3.062"/><path d="m313.159 40.318c1.691 0 3.062-1.371 3.062-3.062s-1.371-3.062-3.062-3.062-3.062 1.371-3.062 3.062 1.371 3.062 3.062 3.062z"/><path d="m332.93 40.286c1.691 0 3.062-1.371 3.062-3.062s-1.371-3.061-3.062-3.061-3.062 1.371-3.062 3.061c0 1.691 1.371 3.062 3.062 3.062z"/><circle cx="322.689" cy="47.465" r="3.062"/><path d="m332.93 60.025c1.691 0 3.062-1.371 3.062-3.062s-1.371-3.061-3.062-3.061-3.062 1.371-3.062 3.061c0 1.691 1.371 3.062 3.062 3.062z"/><path d="m332.93 79.764c1.691 0 3.062-1.371 3.062-3.062s-1.371-3.062-3.062-3.062-3.062 1.371-3.062 3.062 1.371 3.062 3.062 3.062z"/><path d="m322.719 70.234c1.691 0 3.062-1.371 3.062-3.062s-1.371-3.062-3.062-3.062-3.062 1.371-3.062 3.062c.001 1.691 1.371 3.062 3.062 3.062z"/><path d="m322.719 89.975c1.691 0 3.062-1.371 3.062-3.062s-1.371-3.062-3.062-3.062-3.062 1.371-3.062 3.062c.001 1.691 1.371 3.062 3.062 3.062z"/><path d="m332.93 99.503c1.691 0 3.062-1.371 3.062-3.062s-1.371-3.062-3.062-3.062-3.062 1.371-3.062 3.062 1.371 3.062 3.062 3.062z"/><path d="m332.93 119.242c1.691 0 3.062-1.371 3.062-3.062s-1.371-3.062-3.062-3.062-3.062 1.371-3.062 3.062 1.371 3.062 3.062 3.062z"/><path d="m332.93 138.981c1.691 0 3.062-1.371 3.062-3.062s-1.371-3.062-3.062-3.062-3.062 1.371-3.062 3.062 1.371 3.062 3.062 3.062z"/><path d="m332.93 158.721c1.691 0 3.062-1.371 3.062-3.062s-1.371-3.062-3.062-3.062-3.062 1.371-3.062 3.062c0 1.69 1.371 3.062 3.062 3.062z"/><path d="m332.93 178.459c1.691 0 3.062-1.371 3.062-3.061 0-1.691-1.371-3.062-3.062-3.062s-3.062 1.371-3.062 3.062c0 1.69 1.371 3.061 3.062 3.061z"/><path d="m335.992 392.527c0-1.691-1.371-3.062-3.062-3.062s-3.062 1.371-3.062 3.062c0 .792.308 1.506.802 2.05h4.52c.494-.543.802-1.258.802-2.05z"/><circle cx="302.95" cy="7.987" r="3.062"/><path d="m313.191 20.547c1.691 0 3.062-1.371 3.062-3.062s-1.371-3.061-3.062-3.061-3.062 1.371-3.062 3.061c0 1.691 1.371 3.062 3.062 3.062z"/><path d="m293.45 20.547c1.691 0 3.062-1.371 3.062-3.062s-1.371-3.061-3.062-3.061-3.062 1.371-3.062 3.061c0 1.691 1.371 3.062 3.062 3.062z"/><path d="m280.149 7.987c0 1.691 1.371 3.062 3.062 3.062s3.062-1.371 3.062-3.062-1.371-3.062-3.062-3.062-3.062 1.371-3.062 3.062z"/></g><path d="m391.312 353.632-20.337-285.853c-2.705-38.007-34.67-67.779-72.773-67.779h-87.201c-38.404 0-70.387 30.024-72.811 68.351l-18.062 285.611c-.739 11.696 3.271 22.843 11.292 31.387s18.892 13.25 30.611 13.25h53.144v72.303c0 22.363 18.194 40.556 40.556 40.556s40.556-18.194 40.556-40.556v-72.303h53.144c11.611 0 22.809-4.873 30.724-13.37 7.914-8.498 11.981-20.014 11.157-31.597zm-201.026 36.923v-260.537c0-13.104 10.661-23.765 23.766-23.765 13.104 0 23.765 10.661 23.765 23.765v260.537zm97.958 80.347c0 17.927-14.585 32.513-32.513 32.513s-32.513-14.586-32.513-32.513v-72.303h65.026zm32.932-80.347h-47.529v-260.683c0-13.024 10.661-23.619 23.765-23.619s23.765 10.595 23.765 23.619v260.683zm53.093-10.809c-6.492 6.971-15.313 10.809-24.838 10.809h-20.212v-260.683c0-17.459-14.269-31.662-31.808-31.662s-31.808 14.203-31.808 31.662v260.683h-19.743v-260.537c0-17.539-14.269-31.808-31.808-31.808-17.54 0-31.809 14.269-31.809 31.808v260.537h-20.211c-9.474 0-18.262-3.804-24.748-10.711-6.484-6.907-9.726-15.919-9.128-25.374l18.062-285.612c2.157-34.102 30.613-60.815 64.783-60.815h87.201c33.901 0 62.344 26.489 64.749 60.306l20.337 285.854c.677 9.501-2.527 18.573-9.019 25.543z" fill="#31373d"/></g></svg>