<svg id="Capa_1" enable-background="new 0 0 510.993 510.993" height="512" viewBox="0 0 510.993 510.993" width="512" xmlns="http://www.w3.org/2000/svg"><g><path d="m408.423 43.826-18.3-4.971c-25.082-6.813-50.939 7.997-57.753 33.079l-11.849 43.623-26.074-15.487c-3.325-2.044-4.837-6.085-3.671-9.811l35.611-75.14c2.62-8.371-7.585-14.767-13.977-8.76 0 0-66.078 43.628-78.079 56.747s-30.309 49.293-30.309 49.293c-.433.704-.824 1.423-1.185 2.149l-24.376-14.479c-3.325-2.044-4.837-6.085-3.671-9.811l35.611-75.14c2.62-8.371-7.585-14.767-13.977-8.76 0 0-66.078 43.628-78.079 56.747s-30.309 49.293-30.309 49.293c-7.752 12.608-3.816 29.114 8.792 36.866l87.68 52.666c15.929 9.568 36.593 4.527 46.326-11.303l8.749-14.229c1.722-2.8 2.977-5.753 3.808-8.769l57.103 34.3c15.93 9.568 36.593 4.527 46.326-11.303l8.279-13.464c.115.032.226.07.342.102l12.87 3.496c26.582 7.221 53.984-8.475 61.205-35.057l11.987-44.126c6.813-25.081-7.997-50.937-33.08-57.751z" fill="#e9c278"/><path d="m367.527 84.37c0 4.644-3.765 8.409-8.409 8.409s-8.409-3.765-8.409-8.409 3.765-8.409 8.409-8.409 8.409 3.765 8.409 8.409z" fill="#31373d"/><path d="m402.322 68.132c0 3.043-2.467 5.51-5.509 5.51-3.043 0-5.509-2.467-5.509-5.51s2.467-5.509 5.509-5.509c3.043 0 5.509 2.467 5.509 5.509z" fill="#31373d"/><path d="m64.319 152.668 22.934 303.891c2.144 28.402 27.614 50.427 58.317 50.427h224.653c30.719 0 56.197-22.048 58.32-50.466l22.693-303.852z" fill="#eaa895"/><g fill="#f9fbfc"><path d="m442.55 217.612c-1.686 0-3.053 1.367-3.053 3.053s1.367 3.053 3.053 3.053 3.053-1.367 3.053-3.053-1.367-3.053-3.053-3.053z"/><path d="m442.55 237.297c-1.686 0-3.053 1.367-3.053 3.053s1.367 3.053 3.053 3.053c.751 0 1.43-.282 1.962-.732l.323-4.328c-.559-.635-1.371-1.046-2.285-1.046z"/><path d="m433.695 207.462h-1.234c-1.39.285-2.436 1.516-2.436 2.991 0 1.686 1.367 3.053 3.053 3.053s3.054-1.367 3.054-3.053c-.001-1.476-1.047-2.706-2.437-2.991z"/><path d="m422.865 223.719c1.686 0 3.053-1.367 3.053-3.053 0-1.687-1.367-3.053-3.053-3.053s-3.053 1.367-3.053 3.053c-.001 1.686 1.366 3.053 3.053 3.053z"/><path d="m433.078 227.084c-1.686 0-3.053 1.367-3.053 3.053s1.367 3.053 3.053 3.053 3.054-1.367 3.054-3.053c-.001-1.686-1.368-3.053-3.054-3.053z"/><path d="m422.865 243.404c1.686 0 3.053-1.367 3.053-3.053s-1.367-3.053-3.053-3.053-3.053 1.367-3.053 3.053 1.366 3.053 3.053 3.053z"/><path d="m433.078 246.769c-1.686 0-3.053 1.367-3.053 3.053s1.367 3.053 3.053 3.053 3.054-1.367 3.054-3.053-1.368-3.053-3.054-3.053z"/><path d="m422.865 263.09c1.686 0 3.053-1.367 3.053-3.054 0-1.686-1.367-3.053-3.053-3.053s-3.053 1.367-3.053 3.053c-.001 1.686 1.366 3.054 3.053 3.054z"/><path d="m433.078 266.454c-1.686 0-3.053 1.367-3.053 3.053 0 1.687 1.367 3.054 3.053 3.054s3.054-1.367 3.054-3.054c-.001-1.685-1.368-3.053-3.054-3.053z"/><path d="m422.865 282.775c1.686 0 3.053-1.367 3.053-3.054 0-1.686-1.367-3.053-3.053-3.053s-3.053 1.367-3.053 3.053c-.001 1.686 1.366 3.054 3.053 3.054z"/><path d="m433.078 286.14c-1.686 0-3.053 1.367-3.053 3.053 0 1.687 1.367 3.054 3.053 3.054s3.054-1.367 3.054-3.054c-.001-1.686-1.368-3.053-3.054-3.053z"/><path d="m422.865 302.46c1.686 0 3.053-1.367 3.053-3.053 0-1.687-1.367-3.054-3.053-3.054s-3.053 1.367-3.053 3.054c-.001 1.685 1.366 3.053 3.053 3.053z"/><path d="m433.078 305.825c-1.686 0-3.053 1.367-3.053 3.053s1.367 3.053 3.053 3.053 3.054-1.367 3.054-3.053c-.001-1.686-1.368-3.053-3.054-3.053z"/><circle cx="422.865" cy="319.091" r="3.053"/><path d="m433.078 325.51c-1.686 0-3.053 1.367-3.053 3.053s1.367 3.053 3.053 3.053 3.054-1.367 3.054-3.053c-.001-1.686-1.368-3.053-3.054-3.053z"/><path d="m422.865 341.83c1.686 0 3.053-1.367 3.053-3.053 0-1.687-1.367-3.053-3.053-3.053s-3.053 1.367-3.053 3.053c-.001 1.686 1.366 3.053 3.053 3.053z"/><path d="m433.078 345.195c-1.686 0-3.053 1.367-3.053 3.053 0 1.687 1.367 3.053 3.053 3.053s3.054-1.367 3.054-3.053c-.001-1.686-1.368-3.053-3.054-3.053z"/><path d="m422.865 361.515c1.686 0 3.053-1.367 3.053-3.054 0-1.686-1.367-3.053-3.053-3.053s-3.053 1.367-3.053 3.053c-.001 1.687 1.366 3.054 3.053 3.054z"/><path d="m433.078 364.88c-1.686 0-3.053 1.367-3.053 3.053 0 1.687 1.367 3.054 3.053 3.054.723 0 1.379-.262 1.903-.683l.331-4.439c-.558-.602-1.349-.985-2.234-.985z"/><path d="m422.865 381.2c1.686 0 3.053-1.367 3.053-3.054 0-1.686-1.367-3.053-3.053-3.053s-3.053 1.367-3.053 3.053c-.001 1.687 1.366 3.054 3.053 3.054z"/><path d="m422.865 400.886c1.686 0 3.053-1.367 3.053-3.053 0-1.687-1.367-3.054-3.053-3.054s-3.053 1.367-3.053 3.054c-.001 1.685 1.366 3.053 3.053 3.053z"/><path d="m422.865 420.571c1.686 0 3.053-1.367 3.053-3.053 0-1.687-1.367-3.053-3.053-3.053s-3.053 1.367-3.053 3.053c-.001 1.685 1.366 3.053 3.053 3.053z"/><circle cx="422.865" cy="437.202" r="3.053"/><path d="m422.865 459.941c1.686 0 3.053-1.367 3.053-3.054 0-1.686-1.367-3.053-3.053-3.053s-3.053 1.367-3.053 3.053c-.001 1.687 1.366 3.054 3.053 3.054z"/><path d="m414.009 207.462h-1.234c-1.391.285-2.436 1.516-2.436 2.991 0 1.686 1.367 3.053 3.053 3.053s3.053-1.367 3.053-3.053c.001-1.476-1.045-2.706-2.436-2.991z"/><path d="m403.179 217.612c-1.686 0-3.053 1.367-3.053 3.053s1.367 3.053 3.053 3.053 3.053-1.367 3.053-3.053c.001-1.686-1.366-3.053-3.053-3.053z"/><circle cx="413.393" cy="230.138" r="3.053"/><path d="m403.179 237.297c-1.686 0-3.053 1.367-3.053 3.053s1.367 3.053 3.053 3.053 3.053-1.367 3.053-3.053-1.366-3.053-3.053-3.053z"/><path d="m413.393 246.769c-1.686 0-3.053 1.367-3.053 3.053s1.367 3.053 3.053 3.053 3.053-1.367 3.053-3.053-1.367-3.053-3.053-3.053z"/><path d="m403.179 256.982c-1.686 0-3.053 1.367-3.053 3.053 0 1.687 1.367 3.054 3.053 3.054s3.053-1.367 3.053-3.054c.001-1.685-1.366-3.053-3.053-3.053z"/><path d="m413.393 266.454c-1.686 0-3.053 1.367-3.053 3.053 0 1.687 1.367 3.054 3.053 3.054s3.053-1.367 3.053-3.054c0-1.685-1.367-3.053-3.053-3.053z"/><path d="m403.179 276.668c-1.686 0-3.053 1.367-3.053 3.053 0 1.687 1.367 3.054 3.053 3.054s3.053-1.367 3.053-3.054c.001-1.686-1.366-3.053-3.053-3.053z"/><path d="m413.393 286.14c-1.686 0-3.053 1.367-3.053 3.053 0 1.687 1.367 3.054 3.053 3.054s3.053-1.367 3.053-3.054c0-1.686-1.367-3.053-3.053-3.053z"/><path d="m403.179 296.353c-1.686 0-3.053 1.367-3.053 3.054 0 1.686 1.367 3.053 3.053 3.053s3.053-1.367 3.053-3.053c.001-1.687-1.366-3.054-3.053-3.054z"/><path d="m413.393 305.825c-1.686 0-3.053 1.367-3.053 3.053s1.367 3.053 3.053 3.053 3.053-1.367 3.053-3.053-1.367-3.053-3.053-3.053z"/><path d="m403.179 316.038c-1.686 0-3.053 1.367-3.053 3.053s1.367 3.053 3.053 3.053 3.053-1.367 3.053-3.053c.001-1.686-1.366-3.053-3.053-3.053z"/><circle cx="413.393" cy="328.563" r="3.053"/><path d="m403.179 335.723c-1.686 0-3.053 1.367-3.053 3.053 0 1.687 1.367 3.053 3.053 3.053s3.053-1.367 3.053-3.053c.001-1.686-1.366-3.053-3.053-3.053z"/><circle cx="413.393" cy="348.249" r="3.053"/><path d="m403.179 355.408c-1.686 0-3.053 1.367-3.053 3.053 0 1.687 1.367 3.054 3.053 3.054s3.053-1.367 3.053-3.054c.001-1.686-1.366-3.053-3.053-3.053z"/><path d="m413.393 364.88c-1.686 0-3.053 1.367-3.053 3.053 0 1.687 1.367 3.054 3.053 3.054s3.053-1.367 3.053-3.054c0-1.686-1.367-3.053-3.053-3.053z"/><path d="m403.179 375.093c-1.686 0-3.053 1.367-3.053 3.053 0 1.687 1.367 3.054 3.053 3.054s3.053-1.367 3.053-3.054c.001-1.685-1.366-3.053-3.053-3.053z"/><path d="m413.393 384.565c-1.686 0-3.053 1.367-3.053 3.053 0 1.687 1.367 3.054 3.053 3.054s3.053-1.367 3.053-3.054c0-1.685-1.367-3.053-3.053-3.053z"/><path d="m403.179 394.778c-1.686 0-3.053 1.367-3.053 3.054 0 1.686 1.367 3.053 3.053 3.053s3.053-1.367 3.053-3.053c.001-1.686-1.366-3.054-3.053-3.054z"/><circle cx="413.393" cy="407.304" r="3.053"/><path d="m403.179 414.464c-1.686 0-3.053 1.367-3.053 3.053s1.367 3.053 3.053 3.053 3.053-1.367 3.053-3.053c.001-1.686-1.366-3.053-3.053-3.053z"/><path d="m413.393 423.936c-1.686 0-3.053 1.367-3.053 3.053s1.367 3.053 3.053 3.053 3.053-1.367 3.053-3.053-1.367-3.053-3.053-3.053z"/><path d="m403.179 434.149c-1.686 0-3.053 1.367-3.053 3.053 0 1.687 1.367 3.053 3.053 3.053s3.053-1.367 3.053-3.053c.001-1.686-1.366-3.053-3.053-3.053z"/><path d="m413.393 443.621c-1.686 0-3.053 1.367-3.053 3.053 0 1.687 1.367 3.053 3.053 3.053s3.053-1.367 3.053-3.053-1.367-3.053-3.053-3.053z"/><path d="m403.179 453.834c-1.686 0-3.053 1.367-3.053 3.053 0 1.687 1.367 3.054 3.053 3.054s3.053-1.367 3.053-3.054c.001-1.686-1.366-3.053-3.053-3.053z"/><path d="m413.393 463.306c-1.686 0-3.053 1.367-3.053 3.053 0 1.687 1.367 3.054 3.053 3.054s3.053-1.367 3.053-3.054c0-1.686-1.367-3.053-3.053-3.053z"/><path d="m403.179 473.519c-1.686 0-3.053 1.367-3.053 3.053 0 1.687 1.367 3.054 3.053 3.054s3.053-1.367 3.053-3.054c.001-1.686-1.366-3.053-3.053-3.053z"/><path d="m413.393 482.991c-1.686 0-3.053 1.367-3.053 3.053 0 1.687 1.367 3.054 3.053 3.054.083 0 .16-.018.241-.025.977-1.004 1.908-2.048 2.803-3.119-.049-1.643-1.389-2.963-3.044-2.963z"/><path d="m394.324 207.462h-1.234c-1.391.285-2.436 1.516-2.436 2.991 0 1.686 1.367 3.053 3.053 3.053s3.053-1.367 3.053-3.053c.001-1.476-1.045-2.706-2.436-2.991z"/><path d="m383.494 217.612c-1.686 0-3.053 1.367-3.053 3.053s1.367 3.053 3.053 3.053 3.053-1.367 3.053-3.053c.001-1.686-1.366-3.053-3.053-3.053z"/><path d="m393.707 227.084c-1.686 0-3.053 1.367-3.053 3.053s1.367 3.053 3.053 3.053 3.053-1.367 3.053-3.053c.001-1.686-1.366-3.053-3.053-3.053z"/><path d="m383.494 237.297c-1.686 0-3.053 1.367-3.053 3.053s1.367 3.053 3.053 3.053 3.053-1.367 3.053-3.053-1.366-3.053-3.053-3.053z"/><path d="m393.707 246.769c-1.686 0-3.053 1.367-3.053 3.053s1.367 3.053 3.053 3.053 3.053-1.367 3.053-3.053-1.366-3.053-3.053-3.053z"/><path d="m383.494 256.982c-1.686 0-3.053 1.367-3.053 3.053 0 1.687 1.367 3.054 3.053 3.054s3.053-1.367 3.053-3.054c.001-1.685-1.366-3.053-3.053-3.053z"/><path d="m393.707 266.454c-1.686 0-3.053 1.367-3.053 3.053 0 1.687 1.367 3.054 3.053 3.054s3.053-1.367 3.053-3.054c.001-1.685-1.366-3.053-3.053-3.053z"/><path d="m383.494 276.668c-1.686 0-3.053 1.367-3.053 3.053 0 1.687 1.367 3.054 3.053 3.054s3.053-1.367 3.053-3.054c.001-1.686-1.366-3.053-3.053-3.053z"/><path d="m393.707 286.14c-1.686 0-3.053 1.367-3.053 3.053 0 1.687 1.367 3.054 3.053 3.054s3.053-1.367 3.053-3.054c.001-1.686-1.366-3.053-3.053-3.053z"/><path d="m383.494 296.353c-1.686 0-3.053 1.367-3.053 3.054 0 1.686 1.367 3.053 3.053 3.053s3.053-1.367 3.053-3.053c.001-1.687-1.366-3.054-3.053-3.054z"/><path d="m393.707 305.825c-1.686 0-3.053 1.367-3.053 3.053s1.367 3.053 3.053 3.053 3.053-1.367 3.053-3.053c.001-1.686-1.366-3.053-3.053-3.053z"/><path d="m383.494 316.038c-1.686 0-3.053 1.367-3.053 3.053s1.367 3.053 3.053 3.053 3.053-1.367 3.053-3.053c.001-1.686-1.366-3.053-3.053-3.053z"/><path d="m393.707 325.51c-1.686 0-3.053 1.367-3.053 3.053s1.367 3.053 3.053 3.053 3.053-1.367 3.053-3.053c.001-1.686-1.366-3.053-3.053-3.053z"/><path d="m383.494 335.723c-1.686 0-3.053 1.367-3.053 3.053 0 1.687 1.367 3.053 3.053 3.053s3.053-1.367 3.053-3.053c.001-1.686-1.366-3.053-3.053-3.053z"/><path d="m393.707 345.195c-1.686 0-3.053 1.367-3.053 3.053 0 1.687 1.367 3.053 3.053 3.053s3.053-1.367 3.053-3.053c.001-1.686-1.366-3.053-3.053-3.053z"/><path d="m383.494 355.408c-1.686 0-3.053 1.367-3.053 3.053 0 1.687 1.367 3.054 3.053 3.054s3.053-1.367 3.053-3.054c.001-1.686-1.366-3.053-3.053-3.053z"/><path d="m393.707 364.88c-1.686 0-3.053 1.367-3.053 3.053 0 1.687 1.367 3.054 3.053 3.054s3.053-1.367 3.053-3.054c.001-1.686-1.366-3.053-3.053-3.053z"/><path d="m383.494 375.093c-1.686 0-3.053 1.367-3.053 3.053 0 1.687 1.367 3.054 3.053 3.054s3.053-1.367 3.053-3.054c.001-1.685-1.366-3.053-3.053-3.053z"/><path d="m393.707 384.565c-1.686 0-3.053 1.367-3.053 3.053 0 1.687 1.367 3.054 3.053 3.054s3.053-1.367 3.053-3.054c.001-1.685-1.366-3.053-3.053-3.053z"/><path d="m383.494 394.778c-1.686 0-3.053 1.367-3.053 3.054 0 1.686 1.367 3.053 3.053 3.053s3.053-1.367 3.053-3.053c.001-1.686-1.366-3.054-3.053-3.054z"/><path d="m393.707 404.251c-1.686 0-3.053 1.367-3.053 3.053s1.367 3.053 3.053 3.053 3.053-1.367 3.053-3.053c.001-1.686-1.366-3.053-3.053-3.053z"/><path d="m383.494 414.464c-1.686 0-3.053 1.367-3.053 3.053s1.367 3.053 3.053 3.053 3.053-1.367 3.053-3.053c.001-1.686-1.366-3.053-3.053-3.053z"/><path d="m393.707 423.936c-1.686 0-3.053 1.367-3.053 3.053s1.367 3.053 3.053 3.053 3.053-1.367 3.053-3.053c.001-1.686-1.366-3.053-3.053-3.053z"/><path d="m383.494 434.149c-1.686 0-3.053 1.367-3.053 3.053 0 1.687 1.367 3.053 3.053 3.053s3.053-1.367 3.053-3.053c.001-1.686-1.366-3.053-3.053-3.053z"/><path d="m393.707 443.621c-1.686 0-3.053 1.367-3.053 3.053 0 1.687 1.367 3.053 3.053 3.053s3.053-1.367 3.053-3.053c.001-1.686-1.366-3.053-3.053-3.053z"/><path d="m383.494 453.834c-1.686 0-3.053 1.367-3.053 3.053 0 1.687 1.367 3.054 3.053 3.054s3.053-1.367 3.053-3.054c.001-1.686-1.366-3.053-3.053-3.053z"/><path d="m393.707 463.306c-1.686 0-3.053 1.367-3.053 3.053 0 1.687 1.367 3.054 3.053 3.054s3.053-1.367 3.053-3.054c.001-1.686-1.366-3.053-3.053-3.053z"/><path d="m383.494 473.519c-1.686 0-3.053 1.367-3.053 3.053 0 1.687 1.367 3.054 3.053 3.054s3.053-1.367 3.053-3.054c.001-1.686-1.366-3.053-3.053-3.053z"/><path d="m393.707 482.991c-1.686 0-3.053 1.367-3.053 3.053 0 1.687 1.367 3.054 3.053 3.054s3.053-1.367 3.053-3.054c.001-1.686-1.366-3.053-3.053-3.053z"/><path d="m383.494 493.204c-1.686 0-3.053 1.367-3.053 3.054 0 1.686 1.367 3.053 3.053 3.053s3.053-1.367 3.053-3.053c.001-1.687-1.366-3.054-3.053-3.054z"/><path d="m374.022 227.084c-1.686 0-3.053 1.367-3.053 3.053s1.367 3.053 3.053 3.053 3.054-1.367 3.054-3.053-1.367-3.053-3.054-3.053z"/><path d="m374.022 246.769c-1.686 0-3.053 1.367-3.053 3.053s1.367 3.053 3.053 3.053 3.054-1.367 3.054-3.053-1.367-3.053-3.054-3.053z"/><path d="m374.022 266.454c-1.686 0-3.053 1.367-3.053 3.053 0 1.687 1.367 3.054 3.053 3.054s3.054-1.367 3.054-3.054c0-1.685-1.367-3.053-3.054-3.053z"/><path d="m374.022 286.14c-1.686 0-3.053 1.367-3.053 3.053 0 1.687 1.367 3.054 3.053 3.054s3.054-1.367 3.054-3.054c0-1.686-1.367-3.053-3.054-3.053z"/><path d="m374.022 305.825c-1.686 0-3.053 1.367-3.053 3.053s1.367 3.053 3.053 3.053 3.054-1.367 3.054-3.053-1.367-3.053-3.054-3.053z"/><path d="m374.022 325.51c-1.686 0-3.053 1.367-3.053 3.053s1.367 3.053 3.053 3.053 3.054-1.367 3.054-3.053-1.367-3.053-3.054-3.053z"/><path d="m374.022 345.195c-1.686 0-3.053 1.367-3.053 3.053 0 1.687 1.367 3.053 3.053 3.053s3.054-1.367 3.054-3.053-1.367-3.053-3.054-3.053z"/><path d="m363.809 355.408c-1.686 0-3.053 1.367-3.053 3.053 0 1.687 1.367 3.054 3.053 3.054s3.053-1.367 3.053-3.054c.001-1.686-1.367-3.053-3.053-3.053z"/><path d="m374.022 364.88c-1.686 0-3.053 1.367-3.053 3.053 0 1.687 1.367 3.054 3.053 3.054s3.054-1.367 3.054-3.054c0-1.686-1.367-3.053-3.054-3.053z"/><path d="m363.809 375.093c-1.686 0-3.053 1.367-3.053 3.053 0 1.687 1.367 3.054 3.053 3.054s3.053-1.367 3.053-3.054c.001-1.685-1.367-3.053-3.053-3.053z"/><path d="m374.022 384.565c-1.686 0-3.053 1.367-3.053 3.053 0 1.687 1.367 3.054 3.053 3.054s3.054-1.367 3.054-3.054c0-1.685-1.367-3.053-3.054-3.053z"/><path d="m363.809 394.778c-1.686 0-3.053 1.367-3.053 3.054 0 1.686 1.367 3.053 3.053 3.053s3.053-1.367 3.053-3.053c.001-1.686-1.367-3.054-3.053-3.054z"/><path d="m374.022 404.251c-1.686 0-3.053 1.367-3.053 3.053s1.367 3.053 3.053 3.053 3.054-1.367 3.054-3.053-1.367-3.053-3.054-3.053z"/><path d="m363.809 414.464c-1.686 0-3.053 1.367-3.053 3.053s1.367 3.053 3.053 3.053 3.053-1.367 3.053-3.053c.001-1.686-1.367-3.053-3.053-3.053z"/><path d="m374.022 423.936c-1.686 0-3.053 1.367-3.053 3.053s1.367 3.053 3.053 3.053 3.054-1.367 3.054-3.053-1.367-3.053-3.054-3.053z"/><circle cx="363.809" cy="437.202" r="3.053"/><path d="m374.022 443.621c-1.686 0-3.053 1.367-3.053 3.053 0 1.687 1.367 3.053 3.053 3.053s3.054-1.367 3.054-3.053-1.367-3.053-3.054-3.053z"/><path d="m363.809 453.834c-1.686 0-3.053 1.367-3.053 3.053 0 1.687 1.367 3.054 3.053 3.054s3.053-1.367 3.053-3.054c.001-1.686-1.367-3.053-3.053-3.053z"/><path d="m374.022 463.306c-1.686 0-3.053 1.367-3.053 3.053 0 1.687 1.367 3.054 3.053 3.054s3.054-1.367 3.054-3.054c0-1.686-1.367-3.053-3.054-3.053z"/><path d="m363.809 473.519c-1.686 0-3.053 1.367-3.053 3.053 0 1.687 1.367 3.054 3.053 3.054s3.053-1.367 3.053-3.054c.001-1.686-1.367-3.053-3.053-3.053z"/><path d="m374.022 482.991c-1.686 0-3.053 1.367-3.053 3.053 0 1.687 1.367 3.054 3.053 3.054s3.054-1.367 3.054-3.054c0-1.686-1.367-3.053-3.054-3.053z"/><path d="m363.809 493.204c-1.686 0-3.053 1.367-3.053 3.054 0 1.686 1.367 3.053 3.053 3.053s3.053-1.367 3.053-3.053c.001-1.687-1.367-3.054-3.053-3.054z"/><path d="m304.754 217.612c-1.686 0-3.054 1.367-3.054 3.053s1.367 3.053 3.054 3.053c1.686 0 3.053-1.367 3.053-3.053s-1.367-3.053-3.053-3.053z"/><path d="m304.754 237.297c-1.686 0-3.054 1.367-3.054 3.053s1.367 3.053 3.054 3.053c1.686 0 3.053-1.367 3.053-3.053s-1.367-3.053-3.053-3.053z"/><path d="m295.899 207.462h-1.234c-1.391.285-2.437 1.516-2.437 2.991 0 1.686 1.367 3.053 3.054 3.053 1.686 0 3.053-1.367 3.053-3.053 0-1.476-1.046-2.706-2.436-2.991z"/><path d="m285.068 217.612c-1.686 0-3.053 1.367-3.053 3.053s1.367 3.053 3.053 3.053 3.054-1.367 3.054-3.053-1.367-3.053-3.054-3.053z"/><path d="m295.282 227.084c-1.686 0-3.054 1.367-3.054 3.053s1.367 3.053 3.054 3.053c1.686 0 3.053-1.367 3.053-3.053s-1.367-3.053-3.053-3.053z"/><path d="m285.068 237.297c-1.686 0-3.053 1.367-3.053 3.053s1.367 3.053 3.053 3.053 3.054-1.367 3.054-3.053-1.367-3.053-3.054-3.053z"/><path d="m295.282 246.769c-1.686 0-3.054 1.367-3.054 3.053s1.367 3.053 3.054 3.053c1.686 0 3.053-1.367 3.053-3.053s-1.367-3.053-3.053-3.053z"/><path d="m276.213 207.462h-1.234c-1.39.285-2.436 1.516-2.436 2.991 0 1.686 1.367 3.053 3.053 3.053s3.054-1.367 3.054-3.053c0-1.476-1.046-2.706-2.437-2.991z"/><path d="m265.383 217.612c-1.686 0-3.053 1.367-3.053 3.053s1.367 3.053 3.053 3.053 3.053-1.367 3.053-3.053c.001-1.686-1.366-3.053-3.053-3.053z"/><path d="m275.596 227.084c-1.686 0-3.053 1.367-3.053 3.053s1.367 3.053 3.053 3.053 3.054-1.367 3.054-3.053-1.367-3.053-3.054-3.053z"/><path d="m265.383 237.297c-1.686 0-3.053 1.367-3.053 3.053s1.367 3.053 3.053 3.053 3.053-1.367 3.053-3.053-1.366-3.053-3.053-3.053z"/><path d="m275.596 246.769c-1.686 0-3.053 1.367-3.053 3.053s1.367 3.053 3.053 3.053 3.054-1.367 3.054-3.053-1.367-3.053-3.054-3.053z"/><path d="m256.528 207.462h-1.234c-1.391.285-2.437 1.516-2.437 2.991 0 1.686 1.367 3.053 3.053 3.053 1.687 0 3.054-1.367 3.054-3.053.001-1.476-1.045-2.706-2.436-2.991z"/><path d="m245.698 217.612c-1.686 0-3.054 1.367-3.054 3.053s1.367 3.053 3.054 3.053c1.686 0 3.053-1.367 3.053-3.053s-1.367-3.053-3.053-3.053z"/><circle cx="255.911" cy="230.138" r="3.053"/><path d="m245.698 237.297c-1.686 0-3.054 1.367-3.054 3.053s1.367 3.053 3.054 3.053c1.686 0 3.053-1.367 3.053-3.053s-1.367-3.053-3.053-3.053z"/><path d="m255.911 246.769c-1.686 0-3.053 1.367-3.053 3.053s1.367 3.053 3.053 3.053c1.687 0 3.054-1.367 3.054-3.053s-1.367-3.053-3.054-3.053z"/><path d="m236.843 207.462h-1.234c-1.39.285-2.437 1.516-2.437 2.991 0 1.686 1.367 3.053 3.054 3.053 1.686 0 3.053-1.367 3.053-3.053 0-1.476-1.046-2.706-2.436-2.991z"/><path d="m226.013 217.612c-1.686 0-3.053 1.367-3.053 3.053s1.367 3.053 3.053 3.053 3.053-1.367 3.053-3.053-1.367-3.053-3.053-3.053z"/><path d="m236.226 227.084c-1.686 0-3.054 1.367-3.054 3.053s1.367 3.053 3.054 3.053c1.686 0 3.053-1.367 3.053-3.053s-1.367-3.053-3.053-3.053z"/><path d="m226.013 237.297c-1.686 0-3.053 1.367-3.053 3.053s1.367 3.053 3.053 3.053 3.053-1.367 3.053-3.053-1.367-3.053-3.053-3.053z"/><path d="m236.226 246.769c-1.686 0-3.054 1.367-3.054 3.053s1.367 3.053 3.054 3.053c1.686 0 3.053-1.367 3.053-3.053s-1.367-3.053-3.053-3.053z"/><path d="m217.158 207.462h-1.234c-1.391.285-2.436 1.516-2.436 2.991 0 1.686 1.367 3.053 3.053 3.053s3.054-1.367 3.054-3.053c-.001-1.476-1.047-2.706-2.437-2.991z"/><path d="m206.328 217.612c-1.686 0-3.054 1.367-3.054 3.053s1.367 3.053 3.054 3.053c1.686 0 3.053-1.367 3.053-3.053s-1.367-3.053-3.053-3.053z"/><path d="m216.541 227.084c-1.686 0-3.053 1.367-3.053 3.053s1.367 3.053 3.053 3.053 3.054-1.367 3.054-3.053c-.001-1.686-1.368-3.053-3.054-3.053z"/><path d="m206.328 237.297c-1.686 0-3.054 1.367-3.054 3.053s1.367 3.053 3.054 3.053c1.686 0 3.053-1.367 3.053-3.053s-1.367-3.053-3.053-3.053z"/><path d="m216.541 246.769c-1.686 0-3.053 1.367-3.053 3.053s1.367 3.053 3.053 3.053 3.054-1.367 3.054-3.053-1.368-3.053-3.054-3.053z"/><path d="m197.473 207.462h-1.234c-1.39.285-2.437 1.516-2.437 2.991 0 1.686 1.367 3.053 3.054 3.053 1.686 0 3.053-1.367 3.053-3.053 0-1.476-1.046-2.706-2.436-2.991z"/><path d="m196.856 227.084c-1.686 0-3.054 1.367-3.054 3.053s1.367 3.053 3.054 3.053c1.686 0 3.053-1.367 3.053-3.053s-1.367-3.053-3.053-3.053z"/><path d="m196.856 246.769c-1.686 0-3.054 1.367-3.054 3.053s1.367 3.053 3.054 3.053c1.686 0 3.053-1.367 3.053-3.053s-1.367-3.053-3.053-3.053z"/><path d="m127.587 217.612c-1.686 0-3.053 1.367-3.053 3.053s1.367 3.053 3.053 3.053 3.053-1.367 3.053-3.053-1.367-3.053-3.053-3.053z"/><path d="m127.587 237.297c-1.686 0-3.053 1.367-3.053 3.053s1.367 3.053 3.053 3.053 3.053-1.367 3.053-3.053-1.367-3.053-3.053-3.053z"/><path d="m118.732 207.462h-1.234c-1.391.285-2.437 1.516-2.437 2.991 0 1.686 1.367 3.053 3.053 3.053s3.053-1.367 3.053-3.053c.002-1.476-1.044-2.706-2.435-2.991z"/><path d="m107.902 217.612c-1.686 0-3.054 1.367-3.054 3.053s1.367 3.053 3.054 3.053c1.686 0 3.053-1.367 3.053-3.053s-1.367-3.053-3.053-3.053z"/><circle cx="118.115" cy="230.138" r="3.053"/><path d="m107.902 237.297c-1.686 0-3.054 1.367-3.054 3.053s1.367 3.053 3.054 3.053c1.686 0 3.053-1.367 3.053-3.053s-1.367-3.053-3.053-3.053z"/><path d="m118.115 246.769c-1.686 0-3.053 1.367-3.053 3.053s1.367 3.053 3.053 3.053 3.053-1.367 3.053-3.053-1.367-3.053-3.053-3.053z"/><path d="m99.047 207.462h-1.234c-1.39.285-2.437 1.516-2.437 2.991 0 1.686 1.367 3.053 3.054 3.053 1.686 0 3.053-1.367 3.053-3.053 0-1.476-1.046-2.706-2.436-2.991z"/><path d="m88.217 217.612c-1.686 0-3.053 1.367-3.053 3.053s1.367 3.053 3.053 3.053 3.053-1.367 3.053-3.053-1.367-3.053-3.053-3.053z"/><path d="m98.43 227.084c-1.686 0-3.054 1.367-3.054 3.053s1.367 3.053 3.054 3.053c1.686 0 3.053-1.367 3.053-3.053s-1.367-3.053-3.053-3.053z"/><path d="m88.217 237.297c-1.686 0-3.053 1.367-3.053 3.053s1.367 3.053 3.053 3.053 3.053-1.367 3.053-3.053-1.367-3.053-3.053-3.053z"/><path d="m98.43 246.769c-1.686 0-3.054 1.367-3.054 3.053s1.367 3.053 3.054 3.053c1.686 0 3.053-1.367 3.053-3.053s-1.367-3.053-3.053-3.053z"/><path d="m79.362 207.462h-1.234c-1.39.285-2.436 1.516-2.436 2.991 0 1.686 1.367 3.053 3.053 3.053s3.054-1.367 3.054-3.053c-.001-1.476-1.047-2.706-2.437-2.991z"/><path d="m78.745 227.084c-1.686 0-3.053 1.367-3.053 3.053s1.367 3.053 3.053 3.053 3.054-1.367 3.054-3.053c-.001-1.686-1.368-3.053-3.054-3.053z"/><path d="m78.745 252.876c1.686 0 3.054-1.367 3.054-3.053s-1.367-3.053-3.054-3.053c-1.686 0-3.053 1.367-3.053 3.053s1.366 3.053 3.053 3.053z"/></g><path d="m435.007 139.38h-359.021c-16.386 0-29.669 13.283-29.669 29.669v7.933c0 16.385 13.283 29.668 29.669 29.668h52.052l20.023 299.111h64.269l-20.023-299.111h118.284l-20.57 299.111h66.026l20.57-299.111h58.389c16.385 0 29.669-13.283 29.669-29.668v-7.933c.001-16.386-13.282-29.669-29.668-29.669z" fill="#f9fbfc"/><g fill="#eaa895"><path d="m186.642 217.612c-1.686 0-3.053 1.367-3.053 3.053s1.367 3.053 3.053 3.053 3.053-1.367 3.053-3.053c.001-1.686-1.366-3.053-3.053-3.053z"/><path d="m193.936 230.984-.087-1.306c-.023.151-.046.302-.046.46-.001.295.055.575.133.846z"/><path d="m186.642 237.297c-1.686 0-3.053 1.367-3.053 3.053s1.367 3.053 3.053 3.053 3.053-1.367 3.053-3.053-1.366-3.053-3.053-3.053z"/><path d="m195.034 247.385c-.744.557-1.232 1.437-1.232 2.437 0 1.146.639 2.133 1.573 2.655z"/><path d="m177.17 207.399c-1.686 0-3.053 1.367-3.053 3.053s1.367 3.053 3.053 3.053 3.053-1.367 3.053-3.053c.001-1.686-1.366-3.053-3.053-3.053z"/><path d="m166.957 217.612c-1.686 0-3.053 1.367-3.053 3.053s1.367 3.053 3.053 3.053 3.053-1.367 3.053-3.053c.001-1.686-1.366-3.053-3.053-3.053z"/><path d="m177.17 227.084c-1.686 0-3.053 1.367-3.053 3.053s1.367 3.053 3.053 3.053 3.053-1.367 3.053-3.053c.001-1.686-1.366-3.053-3.053-3.053z"/><path d="m166.957 237.297c-1.686 0-3.053 1.367-3.053 3.053s1.367 3.053 3.053 3.053 3.053-1.367 3.053-3.053-1.366-3.053-3.053-3.053z"/><path d="m177.17 246.769c-1.686 0-3.053 1.367-3.053 3.053s1.367 3.053 3.053 3.053 3.053-1.367 3.053-3.053-1.366-3.053-3.053-3.053z"/><circle cx="157.485" cy="210.453" r="3.053"/><path d="m147.272 217.612c-1.686 0-3.053 1.367-3.053 3.053s1.367 3.053 3.053 3.053 3.053-1.367 3.053-3.053c.001-1.686-1.366-3.053-3.053-3.053z"/><circle cx="157.485" cy="230.138" r="3.053"/><path d="m147.272 237.297c-1.686 0-3.053 1.367-3.053 3.053s1.367 3.053 3.053 3.053 3.053-1.367 3.053-3.053-1.366-3.053-3.053-3.053z"/><path d="m157.485 246.769c-1.686 0-3.053 1.367-3.053 3.053s1.367 3.053 3.053 3.053 3.053-1.367 3.053-3.053-1.366-3.053-3.053-3.053z"/><path d="m137.8 207.399c-1.686 0-3.053 1.367-3.053 3.053s1.367 3.053 3.053 3.053 3.053-1.367 3.053-3.053c.001-1.686-1.367-3.053-3.053-3.053z"/><path d="m128.788 217.859.363 5.416c.889-.534 1.49-1.497 1.49-2.61-.001-1.259-.764-2.339-1.853-2.806z"/><path d="m137.8 227.084c-1.686 0-3.053 1.367-3.053 3.053s1.367 3.053 3.053 3.053 3.053-1.367 3.053-3.053c.001-1.686-1.367-3.053-3.053-3.053z"/><path d="m130.188 238.771.188 2.812c.167-.378.264-.793.264-1.233 0-.58-.171-1.117-.452-1.579z"/><path d="m137.8 252.876c1.686 0 3.053-1.367 3.053-3.053s-1.367-3.053-3.053-3.053-3.053 1.367-3.053 3.053 1.367 3.053 3.053 3.053z"/></g><g fill="#eaa895"><path d="m374.022 207.399c-1.686 0-3.053 1.367-3.053 3.053s1.367 3.053 3.053 3.053c.86 0 1.634-.358 2.189-.93l.269-3.92c-.555-.758-1.446-1.256-2.458-1.256z"/><path d="m363.809 217.612c-1.686 0-3.053 1.367-3.053 3.053s1.367 3.053 3.053 3.053 3.053-1.367 3.053-3.053c.001-1.686-1.367-3.053-3.053-3.053z"/><path d="m370.969 230.138c0 1.686 1.367 3.053 3.053 3.053.271 0 .529-.046.778-.113l.396-5.759c-.362-.151-.758-.235-1.174-.235-1.686 0-3.053 1.367-3.053 3.054z"/><path d="m363.809 237.297c-1.686 0-3.053 1.367-3.053 3.053s1.367 3.053 3.053 3.053 3.053-1.367 3.053-3.053-1.367-3.053-3.053-3.053z"/><path d="m370.969 249.823c0 1.488 1.065 2.724 2.474 2.995l.415-6.032c-1.608.087-2.889 1.407-2.889 3.037z"/><path d="m370.969 269.508c0 .969.46 1.821 1.163 2.381l.344-5c-.899.532-1.507 1.5-1.507 2.619z"/><path d="m363.809 296.353c-1.686 0-3.053 1.367-3.053 3.054 0 1.686 1.367 3.053 3.053 3.053s3.053-1.367 3.053-3.053c.001-1.687-1.367-3.054-3.053-3.054z"/><path d="m363.809 276.689c-1.686 0-3.053 1.367-3.053 3.054 0 1.686 1.367 3.053 3.053 3.053s3.053-1.367 3.053-3.053c.001-1.687-1.367-3.054-3.053-3.054z"/><path d="m363.809 257.025c-1.686 0-3.053 1.367-3.053 3.054 0 1.686 1.367 3.053 3.053 3.053s3.053-1.367 3.053-3.053c.001-1.686-1.367-3.054-3.053-3.054z"/><circle cx="363.809" cy="319.091" r="3.053"/><path d="m363.809 335.723c-1.686 0-3.053 1.367-3.053 3.053 0 1.687 1.367 3.053 3.053 3.053s3.053-1.367 3.053-3.053c.001-1.686-1.367-3.053-3.053-3.053z"/><path d="m363.809 355.408c-1.686 0-3.053 1.367-3.053 3.053 0 1.687 1.367 3.054 3.053 3.054.881 0 1.668-.379 2.226-.975l.264-3.837c-.553-.781-1.46-1.295-2.49-1.295z"/><path d="m360.756 378.147c0 1.687 1.367 3.054 3.053 3.054.284 0 .553-.051.813-.124l.394-5.733c-.371-.16-.778-.251-1.208-.251-1.685 0-3.052 1.368-3.052 3.054z"/><path d="m360.756 397.832c0 1.499 1.083 2.74 2.508 2.999l.415-6.039c-1.625.069-2.923 1.398-2.923 3.04z"/><path d="m360.756 417.517c0 .984.473 1.849 1.195 2.407l.347-5.046c-.917.528-1.542 1.505-1.542 2.639z"/><path d="m360.756 437.202c0 .014.004.027.004.041l.018-.255c-.006.072-.022.141-.022.214z"/><path d="m354.337 207.399c-1.686 0-3.054 1.367-3.054 3.053s1.367 3.053 3.054 3.053c1.686 0 3.053-1.367 3.053-3.053s-1.367-3.053-3.053-3.053z"/><path d="m344.124 217.612c-1.686 0-3.053 1.367-3.053 3.053s1.367 3.053 3.053 3.053 3.053-1.367 3.053-3.053-1.367-3.053-3.053-3.053z"/><path d="m354.337 227.084c-1.686 0-3.054 1.367-3.054 3.053s1.367 3.053 3.054 3.053c1.686 0 3.053-1.367 3.053-3.053s-1.367-3.053-3.053-3.053z"/><path d="m344.124 237.297c-1.686 0-3.053 1.367-3.053 3.053s1.367 3.053 3.053 3.053 3.053-1.367 3.053-3.053-1.367-3.053-3.053-3.053z"/><path d="m354.337 246.769c-1.686 0-3.054 1.367-3.054 3.053s1.367 3.053 3.054 3.053c1.686 0 3.053-1.367 3.053-3.053s-1.367-3.053-3.053-3.053z"/><path d="m334.652 207.399c-1.686 0-3.053 1.367-3.053 3.053s1.367 3.053 3.053 3.053 3.053-1.367 3.053-3.053-1.367-3.053-3.053-3.053z"/><path d="m324.439 217.612c-1.686 0-3.053 1.367-3.053 3.053s1.367 3.053 3.053 3.053 3.053-1.367 3.053-3.053-1.367-3.053-3.053-3.053z"/><path d="m334.652 227.084c-1.686 0-3.053 1.367-3.053 3.053s1.367 3.053 3.053 3.053 3.053-1.367 3.053-3.053-1.367-3.053-3.053-3.053z"/><path d="m324.439 237.297c-1.686 0-3.053 1.367-3.053 3.053s1.367 3.053 3.053 3.053 3.053-1.367 3.053-3.053-1.367-3.053-3.053-3.053z"/><path d="m334.652 246.769c-1.686 0-3.053 1.367-3.053 3.053s1.367 3.053 3.053 3.053 3.053-1.367 3.053-3.053-1.367-3.053-3.053-3.053z"/><path d="m314.967 207.399c-1.686 0-3.053 1.367-3.053 3.053s1.367 3.053 3.053 3.053 3.054-1.367 3.054-3.053c-.001-1.686-1.368-3.053-3.054-3.053z"/><path d="m314.967 227.084c-1.686 0-3.053 1.367-3.053 3.053s1.367 3.053 3.053 3.053 3.054-1.367 3.054-3.053c-.001-1.686-1.368-3.053-3.054-3.053z"/><path d="m314.967 252.876c1.686 0 3.054-1.367 3.054-3.053s-1.367-3.053-3.054-3.053-3.053 1.367-3.053 3.053 1.366 3.053 3.053 3.053z"/></g><path d="m436.465 135.41 8.904-32.78c7.382-27.174-8.721-55.288-35.895-62.671l-18.3-4.971c-13.166-3.576-26.933-1.81-38.77 4.969-11.837 6.78-20.324 17.763-23.9 30.927l-10.468 38.536-21.489-12.764c-1.697-1.043-2.503-3.061-2.01-4.973l35.472-74.848c.08-.168.148-.341.204-.519 1.728-5.52-.404-11.292-5.305-14.364-4.795-3.006-10.762-2.499-14.966 1.235-5.199 3.438-66.635 44.171-78.566 57.214-10.901 11.916-26.33 41.257-30.094 48.561l-20.719-12.306c-1.697-1.044-2.502-3.062-2.011-4.973l35.473-74.848c.08-.168.148-.341.203-.519 1.727-5.52-.405-11.292-5.305-14.364-4.796-3.006-10.762-2.498-14.964 1.235-5.199 3.438-66.636 44.171-78.567 57.214-11.967 13.081-29.395 47.172-30.854 50.044-4.72 7.772-5.571 16.829-3.113 24.928h-5.436c-18.569 0-33.676 15.107-33.676 33.676v7.933c0 14.546 9.271 26.965 22.214 31.665l18.732 248.214c2.291 30.354 29.662 54.133 62.312 54.133h224.653c32.674 0 60.047-23.796 62.316-54.175l18.695-250.339c10.392-5.74 17.449-16.808 17.449-29.497v-7.933c-.001-18.082-14.325-32.874-32.219-33.64zm-100.226-62.426c3.014-11.098 10.171-20.358 20.149-26.074 6.604-3.783 13.919-5.713 21.33-5.713 3.788 0 7.6.505 11.354 1.525l18.3 4.97c22.91 6.224 36.486 29.926 30.262 52.836l-9.465 34.844h-71.555c-2.868-3.687-6.42-6.852-10.563-9.313l-20.865-12.393zm-98.951-7.174c11.532-12.605 76.674-55.674 77.33-56.108.191-.126.37-.268.536-.424.973-.915 2.034-1.266 3.028-1.266.92 0 1.783.299 2.468.729 1.382.867 2.6 2.61 1.98 4.947l-35.474 74.853c-.08.168-.148.341-.203.519-1.716 5.482.503 11.412 5.449 14.453l49.557 29.436c1.228.73 2.385 1.544 3.478 2.422h-104.814c-2.866-3.686-6.414-6.852-10.556-9.313l-21.882-12.997c3.186-6.179 18.776-35.962 29.103-47.251zm-148.592 65.913c-1.412-5.922-.434-12.039 2.755-17.225.058-.094.112-.191.161-.29.181-.357 18.198-35.836 29.69-48.398 11.532-12.605 76.674-55.674 77.331-56.108.19-.126.37-.268.536-.424.973-.915 2.033-1.266 3.028-1.266.919 0 1.781.299 2.467.729 1.383.866 2.601 2.61 1.98 4.947l-35.474 74.854c-.08.168-.148.341-.203.52-1.715 5.482.504 11.412 5.449 14.452l49.558 29.436c1.23.731 2.393 1.542 3.488 2.422h-139.549c-.502-1.169-.915-2.385-1.217-3.649zm335.849 324.498c-1.959 26.219-25.82 46.758-54.324 46.758h-224.652c-28.483 0-52.343-20.522-54.321-46.722l-18.547-245.762c1.081.105 2.176.162 3.285.162h359.021c2.738 0 5.398-.337 7.949-.956zm36.123-279.239c0 14.15-11.512 25.661-25.661 25.661h-359.021c-14.15 0-25.661-11.512-25.661-25.661v-7.933c0-14.15 11.511-25.661 25.661-25.661h359.021c14.149 0 25.661 11.512 25.661 25.661z" fill="#31373d"/></g></svg>