<svg id="Capa_1" enable-background="new 0 0 510.969 510.969" height="512" viewBox="0 0 510.969 510.969" width="512" xmlns="http://www.w3.org/2000/svg"><g><path d="m465.481 357.941c22.065.06 40.143-17.56 41.469-39.835l.002-2.346c.003-1.091-.012-2.177-.031-3.263-1.48-82.489-67.429-148.917-148.513-148.45-13.659.079-26.868 2.078-39.392 5.746" fill="#e9c278"/><g fill="#f9fbfc"><path d="m496.048 264.568c0 1.695 1.374 3.07 3.07 3.07.111 0 .215-.021.323-.032-.614-1.894-1.266-3.771-1.95-5.631-.865.543-1.443 1.498-1.443 2.593z"/><path d="m499.117 281.288c-1.695 0-3.07 1.374-3.07 3.07 0 1.695 1.374 3.07 3.07 3.07 1.695 0 3.069-1.374 3.069-3.07.001-1.695-1.374-3.07-3.069-3.07z"/><path d="m499.117 301.078c-1.695 0-3.07 1.375-3.07 3.07s1.374 3.069 3.07 3.069c1.695 0 3.069-1.375 3.069-3.069.001-1.696-1.374-3.07-3.069-3.07z"/><path d="m506.95 315.521c0-1.01-.011-2.018-.029-3.023-.004-.207-.014-.413-.019-.62-.366.505-.587 1.121-.587 1.792 0 .698.242 1.335.635 1.851z"/><path d="m499.117 320.868c-1.695 0-3.07 1.374-3.07 3.07 0 1.695 1.374 3.069 3.07 3.069 1.695 0 3.069-1.374 3.069-3.069.001-1.696-1.374-3.07-3.069-3.07z"/><path d="m496.048 343.727c0 .163.023.32.048.477 1.008-1.124 1.963-2.298 2.849-3.529-1.614.091-2.897 1.415-2.897 3.052z"/><path d="m476.258 224.989c0 1.695 1.374 3.07 3.07 3.07.183 0 .36-.024.534-.054-1.047-1.514-2.114-3.013-3.213-4.485-.242.438-.391.934-.391 1.469z"/><path d="m479.327 241.709c-1.695 0-3.07 1.374-3.07 3.07 0 1.695 1.374 3.069 3.07 3.069 1.695 0 3.07-1.374 3.07-3.069 0-1.696-1.374-3.07-3.07-3.07z"/><path d="m489.595 251.231c-1.695 0-3.069 1.374-3.069 3.07s1.374 3.07 3.069 3.07 3.07-1.375 3.07-3.07-1.375-3.07-3.07-3.07z"/><path d="m479.327 261.499c-1.695 0-3.07 1.374-3.07 3.07 0 1.695 1.374 3.07 3.07 3.07 1.695 0 3.07-1.374 3.07-3.07s-1.374-3.07-3.07-3.07z"/><path d="m489.595 277.16c1.695 0 3.07-1.374 3.07-3.069s-1.375-3.07-3.07-3.07-3.069 1.374-3.069 3.07c-.001 1.695 1.373 3.069 3.069 3.069z"/><path d="m479.327 281.288c-1.695 0-3.07 1.374-3.07 3.07 0 1.695 1.374 3.07 3.07 3.07 1.695 0 3.07-1.374 3.07-3.07 0-1.695-1.374-3.07-3.07-3.07z"/><path d="m489.595 296.95c1.695 0 3.07-1.374 3.07-3.07 0-1.695-1.375-3.069-3.07-3.069s-3.069 1.374-3.069 3.069c-.001 1.696 1.373 3.07 3.069 3.07z"/><path d="m479.327 301.078c-1.695 0-3.07 1.375-3.07 3.07s1.374 3.069 3.07 3.069c1.695 0 3.07-1.375 3.07-3.069 0-1.696-1.374-3.07-3.07-3.07z"/><path d="m489.595 316.739c1.695 0 3.07-1.374 3.07-3.069s-1.375-3.07-3.07-3.07-3.069 1.374-3.069 3.07c-.001 1.695 1.373 3.069 3.069 3.069z"/><path d="m479.327 320.868c-1.695 0-3.07 1.374-3.07 3.07 0 1.695 1.374 3.069 3.07 3.069 1.695 0 3.07-1.374 3.07-3.069 0-1.696-1.374-3.07-3.07-3.07z"/><path d="m489.595 336.529c1.695 0 3.07-1.375 3.07-3.07s-1.375-3.069-3.07-3.069-3.069 1.374-3.069 3.069 1.373 3.07 3.069 3.07z"/><path d="m479.327 340.657c-1.695 0-3.07 1.374-3.07 3.07s1.374 3.07 3.07 3.07c1.695 0 3.07-1.374 3.07-3.07s-1.374-3.07-3.07-3.07z"/><path d="m486.831 351.936c.897-.55 1.776-1.127 2.627-1.742-1.164.052-2.153.746-2.627 1.742z"/><path d="m456.468 205.199c0 1.695 1.374 3.07 3.07 3.07 1.106 0 2.067-.59 2.607-1.468-1.416-1.41-2.861-2.79-4.332-4.14-.811.552-1.345 1.483-1.345 2.538z"/><path d="m469.805 217.791c.689 0 1.319-.235 1.831-.619-1.305-1.566-2.638-3.108-4.004-4.618-.554.555-.896 1.321-.896 2.168-.001 1.695 1.374 3.069 3.069 3.069z"/><path d="m459.538 221.919c-1.695 0-3.07 1.375-3.07 3.07s1.374 3.07 3.07 3.07c1.695 0 3.07-1.375 3.07-3.07-.001-1.695-1.375-3.07-3.07-3.07z"/><path d="m469.805 231.442c-1.695 0-3.07 1.374-3.07 3.07 0 1.695 1.374 3.07 3.07 3.07 1.695 0 3.07-1.374 3.07-3.07s-1.375-3.07-3.07-3.07z"/><path d="m459.538 241.709c-1.695 0-3.07 1.374-3.07 3.07 0 1.695 1.374 3.069 3.07 3.069 1.695 0 3.07-1.374 3.07-3.069-.001-1.696-1.375-3.07-3.07-3.07z"/><path d="m469.805 251.231c-1.695 0-3.07 1.374-3.07 3.07s1.374 3.07 3.07 3.07c1.695 0 3.07-1.375 3.07-3.07s-1.375-3.07-3.07-3.07z"/><path d="m469.805 271.021c-1.695 0-3.07 1.374-3.07 3.07 0 1.695 1.374 3.069 3.07 3.069 1.695 0 3.07-1.374 3.07-3.069 0-1.696-1.375-3.07-3.07-3.07z"/><path d="m469.805 310.6c-1.695 0-3.07 1.374-3.07 3.07 0 1.695 1.374 3.069 3.07 3.069 1.695 0 3.07-1.374 3.07-3.069 0-1.696-1.375-3.07-3.07-3.07z"/><path d="m469.805 330.39c-1.695 0-3.07 1.374-3.07 3.069s1.374 3.07 3.07 3.07c1.695 0 3.07-1.375 3.07-3.07s-1.375-3.069-3.07-3.069z"/><path d="m439.748 188.479c.003 0 .005-.001.008-.001-.931-.622-1.869-1.233-2.814-1.833.476 1.079 1.551 1.834 2.806 1.834z"/><path d="m450.016 198.002c.667 0 1.281-.219 1.784-.58-1.515-1.25-3.058-2.465-4.622-3.654-.148.359-.232.752-.232 1.164 0 1.695 1.374 3.07 3.07 3.07z"/><path d="m439.748 202.13c-1.695 0-3.07 1.374-3.07 3.07 0 1.695 1.374 3.07 3.07 3.07 1.695 0 3.07-1.374 3.07-3.07s-1.375-3.07-3.07-3.07z"/><path d="m450.016 211.652c-1.695 0-3.07 1.374-3.07 3.07 0 1.695 1.374 3.069 3.07 3.069 1.695 0 3.069-1.374 3.069-3.069 0-1.696-1.374-3.07-3.069-3.07z"/><path d="m419.958 182.34c-1.695 0-3.069 1.374-3.069 3.07 0 1.695 1.374 3.07 3.069 3.07s3.07-1.374 3.07-3.07-1.374-3.07-3.07-3.07z"/><circle cx="430.226" cy="194.932" r="3.07"/><path d="m407.366 175.142c0 1.695 1.374 3.07 3.07 3.07 1.695 0 3.07-1.374 3.07-3.07 0-.199-.022-.393-.059-.581-1.603-.648-3.217-1.274-4.847-1.865-.745.56-1.234 1.442-1.234 2.446z"/></g><path d="m472.677 354.249c6.206-1.543-7.823-21.401-7.44-35.655.279-10.396 6.995-23.34 4.788-36.029-1.925-11.066-12.909-20.394-16.979-31.853-3.845-10.825-1.256-25.396-7.633-35.478-6.092-9.631-19.832-13.043-28.771-21.048-8.233-7.373-13.214-21.079-24.289-26.318-9.711-4.593-23.184-.013-35.375-2.443-10.435-2.08-20.963-11.893-33.403-12.057-10.68-.141-21.69 9.145-33.966 10.627 0 0 115.31 73.343 121.738 127.771 6.427 54.428 16.492 73.629 61.33 62.483z" fill="#eaa895"/><g fill="#f9fbfc"><path d="m459.538 281.288c-1.695 0-3.07 1.374-3.07 3.07 0 1.695 1.374 3.07 3.07 3.07 1.695 0 3.07-1.374 3.07-3.07-.001-1.695-1.375-3.07-3.07-3.07z"/><path d="m459.538 301.078c-1.695 0-3.07 1.375-3.07 3.07s1.374 3.069 3.07 3.069c1.695 0 3.07-1.375 3.07-3.069-.001-1.696-1.375-3.07-3.07-3.07z"/><path d="m459.538 320.868c-1.695 0-3.07 1.374-3.07 3.07 0 1.695 1.374 3.069 3.07 3.069 1.695 0 3.07-1.374 3.07-3.069-.001-1.696-1.375-3.07-3.07-3.07z"/><path d="m459.538 340.657c-1.695 0-3.07 1.374-3.07 3.07s1.374 3.07 3.07 3.07c1.695 0 3.07-1.374 3.07-3.07s-1.375-3.07-3.07-3.07z"/><path d="m469.805 350.18c-1.695 0-3.07 1.374-3.07 3.069 0 .837.337 1.593.88 2.147 1.642-.342 3.316-.713 5.062-1.147.007-.002.013-.006.02-.007.108-.313.178-.643.178-.993 0-1.695-1.375-3.069-3.07-3.069z"/><path d="m439.748 221.919c-1.695 0-3.07 1.375-3.07 3.07s1.374 3.07 3.07 3.07c1.695 0 3.07-1.375 3.07-3.07s-1.375-3.07-3.07-3.07z"/><path d="m439.748 241.709c-1.695 0-3.07 1.374-3.07 3.07 0 1.695 1.374 3.069 3.07 3.069 1.695 0 3.07-1.374 3.07-3.069 0-1.696-1.375-3.07-3.07-3.07z"/><path d="m450.016 251.231c-1.695 0-3.07 1.374-3.07 3.07s1.374 3.07 3.07 3.07c1.695 0 3.069-1.375 3.069-3.07s-1.374-3.07-3.069-3.07z"/><path d="m439.748 261.499c-1.695 0-3.07 1.374-3.07 3.07 0 1.695 1.374 3.07 3.07 3.07 1.695 0 3.07-1.374 3.07-3.07s-1.375-3.07-3.07-3.07z"/><path d="m450.016 271.021c-1.695 0-3.07 1.374-3.07 3.07 0 1.695 1.374 3.069 3.07 3.069 1.695 0 3.069-1.374 3.069-3.069 0-1.696-1.374-3.07-3.069-3.07z"/><path d="m439.748 281.288c-1.695 0-3.07 1.374-3.07 3.07 0 1.695 1.374 3.07 3.07 3.07 1.695 0 3.07-1.374 3.07-3.07 0-1.695-1.375-3.07-3.07-3.07z"/><path d="m450.016 290.811c-1.695 0-3.07 1.374-3.07 3.069s1.374 3.07 3.07 3.07c1.695 0 3.069-1.374 3.069-3.07 0-1.695-1.374-3.069-3.069-3.069z"/><path d="m439.748 301.078c-1.695 0-3.07 1.375-3.07 3.07s1.374 3.069 3.07 3.069c1.695 0 3.07-1.375 3.07-3.069 0-1.696-1.375-3.07-3.07-3.07z"/><path d="m450.016 310.6c-1.695 0-3.07 1.374-3.07 3.07 0 1.695 1.374 3.069 3.07 3.069 1.695 0 3.069-1.374 3.069-3.069 0-1.696-1.374-3.07-3.069-3.07z"/><path d="m439.748 320.868c-1.695 0-3.07 1.374-3.07 3.07 0 1.695 1.374 3.069 3.07 3.069 1.695 0 3.07-1.374 3.07-3.069 0-1.696-1.375-3.07-3.07-3.07z"/><path d="m450.016 330.39c-1.695 0-3.07 1.374-3.07 3.069s1.374 3.07 3.07 3.07c1.695 0 3.069-1.375 3.069-3.07s-1.374-3.069-3.069-3.069z"/><path d="m439.748 340.657c-1.695 0-3.07 1.374-3.07 3.07s1.374 3.07 3.07 3.07c1.695 0 3.07-1.374 3.07-3.07s-1.375-3.07-3.07-3.07z"/><path d="m453.085 353.249c0-1.695-1.374-3.069-3.069-3.069s-3.07 1.374-3.07 3.069c0 1.696 1.374 3.07 3.07 3.07 1.695 0 3.069-1.374 3.069-3.07z"/><path d="m419.958 202.13c-1.695 0-3.069 1.374-3.069 3.07 0 1.695 1.374 3.07 3.069 3.07s3.07-1.374 3.07-3.07-1.374-3.07-3.07-3.07z"/><path d="m430.226 211.652c-1.695 0-3.07 1.374-3.07 3.07 0 1.695 1.375 3.069 3.07 3.069s3.07-1.374 3.07-3.069c0-1.696-1.375-3.07-3.07-3.07z"/><path d="m419.958 221.919c-1.695 0-3.069 1.375-3.069 3.07s1.374 3.07 3.069 3.07 3.07-1.375 3.07-3.07-1.374-3.07-3.07-3.07z"/><path d="m430.226 231.442c-1.695 0-3.07 1.374-3.07 3.07 0 1.695 1.375 3.07 3.07 3.07s3.07-1.374 3.07-3.07-1.375-3.07-3.07-3.07z"/><path d="m419.958 241.709c-1.695 0-3.069 1.374-3.069 3.07 0 1.695 1.374 3.069 3.069 3.069s3.07-1.374 3.07-3.069c0-1.696-1.374-3.07-3.07-3.07z"/><path d="m430.226 251.231c-1.695 0-3.07 1.374-3.07 3.07s1.375 3.07 3.07 3.07 3.07-1.375 3.07-3.07-1.375-3.07-3.07-3.07z"/><path d="m419.958 261.499c-1.695 0-3.069 1.374-3.069 3.07 0 1.695 1.374 3.07 3.069 3.07s3.07-1.374 3.07-3.07-1.374-3.07-3.07-3.07z"/><path d="m430.226 271.021c-1.695 0-3.07 1.374-3.07 3.07 0 1.695 1.375 3.069 3.07 3.069s3.07-1.374 3.07-3.069c0-1.696-1.375-3.07-3.07-3.07z"/><path d="m430.226 290.811c-1.695 0-3.07 1.374-3.07 3.069s1.375 3.07 3.07 3.07 3.07-1.374 3.07-3.07c0-1.695-1.375-3.069-3.07-3.069z"/><circle cx="430.226" cy="313.67" r="3.07"/><path d="m430.226 330.39c-1.695 0-3.07 1.374-3.07 3.069s1.375 3.07 3.07 3.07 3.07-1.375 3.07-3.07-1.375-3.069-3.07-3.069z"/><path d="m430.226 350.18c-.006 0-.012.002-.018.002.95.841 1.935 1.629 2.985 2.318-.336-1.331-1.532-2.32-2.967-2.32z"/><path d="m400.169 182.34c-1.695 0-3.07 1.374-3.07 3.07 0 1.695 1.374 3.07 3.07 3.07s3.069-1.374 3.069-3.07-1.374-3.07-3.069-3.07z"/><path d="m410.436 191.863c-1.695 0-3.07 1.374-3.07 3.069s1.374 3.07 3.07 3.07c1.695 0 3.07-1.374 3.07-3.07 0-1.695-1.375-3.069-3.07-3.069z"/><path d="m400.169 202.13c-1.695 0-3.07 1.374-3.07 3.07 0 1.695 1.374 3.07 3.07 3.07s3.069-1.374 3.069-3.07-1.374-3.07-3.069-3.07z"/><path d="m410.436 211.652c-1.695 0-3.07 1.374-3.07 3.07 0 1.695 1.374 3.069 3.07 3.069 1.695 0 3.07-1.374 3.07-3.069 0-1.696-1.375-3.07-3.07-3.07z"/><path d="m400.169 221.919c-1.695 0-3.07 1.375-3.07 3.07s1.374 3.07 3.07 3.07 3.069-1.375 3.069-3.07-1.374-3.07-3.069-3.07z"/><path d="m410.436 231.442c-1.695 0-3.07 1.374-3.07 3.07 0 1.695 1.374 3.07 3.07 3.07 1.695 0 3.07-1.374 3.07-3.07s-1.375-3.07-3.07-3.07z"/><path d="m390.647 172.072c-1.695 0-3.07 1.375-3.07 3.07s1.374 3.07 3.07 3.07c1.695 0 3.069-1.374 3.069-3.07 0-1.695-1.374-3.07-3.069-3.07z"/><path d="m380.379 182.34c-1.695 0-3.07 1.374-3.07 3.07 0 1.695 1.374 3.07 3.07 3.07 1.695 0 3.07-1.374 3.07-3.07s-1.375-3.07-3.07-3.07z"/><path d="m390.647 191.863c-1.695 0-3.07 1.374-3.07 3.069s1.374 3.07 3.07 3.07c1.695 0 3.069-1.374 3.069-3.07 0-1.695-1.374-3.069-3.069-3.069z"/><path d="m380.379 202.13c-1.695 0-3.07 1.374-3.07 3.07 0 1.695 1.374 3.07 3.07 3.07 1.695 0 3.07-1.374 3.07-3.07s-1.375-3.07-3.07-3.07z"/><path d="m390.647 211.652c-1.695 0-3.07 1.374-3.07 3.07 0 1.695 1.374 3.069 3.07 3.069 1.695 0 3.069-1.374 3.069-3.069 0-1.696-1.374-3.07-3.069-3.07z"/><path d="m370.857 172.072c-1.695 0-3.07 1.375-3.07 3.07s1.375 3.07 3.07 3.07 3.07-1.374 3.07-3.07c-.001-1.695-1.375-3.07-3.07-3.07z"/><path d="m360.59 182.34c-1.695 0-3.07 1.374-3.07 3.07 0 1.695 1.374 3.07 3.07 3.07 1.695 0 3.069-1.374 3.069-3.07s-1.374-3.07-3.069-3.07z"/><path d="m370.857 191.863c-1.695 0-3.07 1.374-3.07 3.069s1.375 3.07 3.07 3.07 3.07-1.374 3.07-3.07c-.001-1.695-1.375-3.069-3.07-3.069z"/><path d="m340.8 162.551c-1.695 0-3.07 1.374-3.07 3.07 0 1.695 1.374 3.07 3.07 3.07 1.695 0 3.07-1.374 3.07-3.07-.001-1.696-1.375-3.07-3.07-3.07z"/><path d="m351.067 172.072c-1.695 0-3.069 1.375-3.069 3.07s1.375 3.07 3.069 3.07c1.695 0 3.07-1.374 3.07-3.07 0-1.695-1.374-3.07-3.07-3.07z"/><path d="m317.941 165.62c0 1.695 1.374 3.07 3.07 3.07 1.695 0 3.07-1.374 3.07-3.07 0-1.695-1.374-3.07-3.07-3.07-1.696.001-3.07 1.375-3.07 3.07z"/></g><path d="m211.425 357.251 254.057.691c-22.886-.062-41.386-19.118-41.323-42.563v-.034c.227-83.622-65.886-151.389-147.534-151.524-81.743-.135-147.737 68.607-147.965 152.345l-.065 23.964c-.025 9.332 7.339 16.916 16.448 16.941l271.054.737" fill="#e9c278"/><g fill="#f9fbfc"><path d="m446.962 353.408c.084 1.62 1.413 2.911 3.054 2.911.753 0 1.434-.282 1.968-.733-1.729-.615-3.406-1.343-5.022-2.178z"/><path d="m416.889 284.358c0 1.695 1.374 3.07 3.069 3.07.614 0 1.184-.185 1.664-.496-.343-1.874-.711-3.739-1.121-5.589-.177-.032-.357-.055-.543-.055-1.695 0-3.069 1.375-3.069 3.07z"/><path d="m419.958 301.078c-1.695 0-3.069 1.375-3.069 3.07s1.374 3.069 3.069 3.069 3.07-1.375 3.07-3.069c0-1.696-1.374-3.07-3.07-3.07z"/><path d="m419.958 320.868c-1.695 0-3.069 1.374-3.069 3.07 0 1.695 1.374 3.069 3.069 3.069s3.07-1.374 3.07-3.069c0-1.696-1.374-3.07-3.07-3.07z"/><path d="m429.567 336.454c-.775-1.394-1.48-2.833-2.099-4.32-.194.403-.312.848-.312 1.325 0 1.469 1.033 2.693 2.411 2.995z"/><path d="m419.958 340.657c-1.695 0-3.069 1.374-3.069 3.07s1.374 3.07 3.069 3.07 3.07-1.374 3.07-3.07-1.374-3.07-3.07-3.07z"/><path d="m427.156 353.249c0 1.696 1.375 3.07 3.07 3.07s3.07-1.374 3.07-3.07c0-1.695-1.375-3.069-3.07-3.069s-3.07 1.374-3.07 3.069z"/><path d="m400.169 241.709c-1.695 0-3.07 1.374-3.07 3.07 0 1.695 1.374 3.069 3.07 3.069s3.069-1.374 3.069-3.069c0-1.696-1.374-3.07-3.069-3.07z"/><path d="m407.366 254.301c0 1.695 1.374 3.07 3.07 3.07.887 0 1.679-.381 2.24-.982-.714-1.738-1.468-3.453-2.243-5.157-1.694.002-3.067 1.375-3.067 3.069z"/><path d="m400.169 261.499c-1.695 0-3.07 1.374-3.07 3.07 0 1.695 1.374 3.07 3.07 3.07s3.069-1.374 3.069-3.07-1.374-3.07-3.069-3.07z"/><path d="m410.436 271.021c-1.695 0-3.07 1.374-3.07 3.07 0 1.695 1.374 3.069 3.07 3.069 1.695 0 3.07-1.374 3.07-3.069 0-1.696-1.375-3.07-3.07-3.07z"/><path d="m400.169 281.288c-1.695 0-3.07 1.374-3.07 3.07 0 1.695 1.374 3.07 3.07 3.07s3.069-1.374 3.069-3.07c0-1.695-1.374-3.07-3.069-3.07z"/><path d="m410.436 290.811c-1.695 0-3.07 1.374-3.07 3.069s1.374 3.07 3.07 3.07c1.695 0 3.07-1.374 3.07-3.07 0-1.695-1.375-3.069-3.07-3.069z"/><path d="m400.169 301.078c-1.695 0-3.07 1.375-3.07 3.07s1.374 3.069 3.07 3.069 3.069-1.375 3.069-3.069c0-1.696-1.374-3.07-3.069-3.07z"/><path d="m410.436 310.6c-1.695 0-3.07 1.374-3.07 3.07 0 1.695 1.374 3.069 3.07 3.069 1.695 0 3.07-1.374 3.07-3.069 0-1.696-1.375-3.07-3.07-3.07z"/><path d="m400.169 320.868c-1.695 0-3.07 1.374-3.07 3.07 0 1.695 1.374 3.069 3.07 3.069s3.069-1.374 3.069-3.069c0-1.696-1.374-3.07-3.069-3.07z"/><path d="m410.436 330.39c-1.695 0-3.07 1.374-3.07 3.069s1.374 3.07 3.07 3.07c1.695 0 3.07-1.375 3.07-3.07s-1.375-3.069-3.07-3.069z"/><path d="m400.169 340.657c-1.695 0-3.07 1.374-3.07 3.07s1.374 3.07 3.07 3.07 3.069-1.374 3.069-3.07-1.374-3.07-3.069-3.07z"/><path d="m410.436 350.18c-1.695 0-3.07 1.374-3.07 3.069 0 1.696 1.374 3.07 3.07 3.07 1.695 0 3.07-1.374 3.07-3.07 0-1.695-1.375-3.069-3.07-3.069z"/><path d="m380.379 208.269c.22 0 .434-.025.641-.069-1.194-1.224-2.415-2.421-3.65-3.603-.039.195-.061.396-.061.602.001 1.696 1.375 3.07 3.07 3.07z"/><path d="m389.356 217.498c-.549-.665-1.102-1.326-1.662-1.981.237.88.849 1.602 1.662 1.981z"/><path d="m380.379 221.919c-1.695 0-3.07 1.375-3.07 3.07s1.374 3.07 3.07 3.07c1.695 0 3.07-1.375 3.07-3.07s-1.375-3.07-3.07-3.07z"/><path d="m390.647 231.442c-1.695 0-3.07 1.374-3.07 3.07 0 1.695 1.374 3.07 3.07 3.07 1.695 0 3.069-1.374 3.069-3.07s-1.374-3.07-3.069-3.07z"/><path d="m380.379 241.709c-1.695 0-3.07 1.374-3.07 3.07 0 1.695 1.374 3.069 3.07 3.069 1.695 0 3.07-1.374 3.07-3.069 0-1.696-1.375-3.07-3.07-3.07z"/><path d="m390.647 251.231c-1.695 0-3.07 1.374-3.07 3.07s1.374 3.07 3.07 3.07c1.695 0 3.069-1.375 3.069-3.07s-1.374-3.07-3.069-3.07z"/><path d="m380.379 261.499c-1.695 0-3.07 1.374-3.07 3.07 0 1.695 1.374 3.07 3.07 3.07 1.695 0 3.07-1.374 3.07-3.07s-1.375-3.07-3.07-3.07z"/><path d="m390.647 271.021c-1.695 0-3.07 1.374-3.07 3.07 0 1.695 1.374 3.069 3.07 3.069 1.695 0 3.069-1.374 3.069-3.069 0-1.696-1.374-3.07-3.069-3.07z"/><path d="m390.647 290.811c-1.695 0-3.07 1.374-3.07 3.069s1.374 3.07 3.07 3.07c1.695 0 3.069-1.374 3.069-3.07 0-1.695-1.374-3.069-3.069-3.069z"/><path d="m390.647 310.6c-1.695 0-3.07 1.374-3.07 3.07 0 1.695 1.374 3.069 3.07 3.069 1.695 0 3.069-1.374 3.069-3.069 0-1.696-1.374-3.07-3.069-3.07z"/><path d="m390.647 330.39c-1.695 0-3.07 1.374-3.07 3.069s1.374 3.07 3.07 3.07c1.695 0 3.069-1.375 3.069-3.07s-1.374-3.069-3.069-3.069z"/><path d="m380.379 340.657c-1.695 0-3.07 1.374-3.07 3.07s1.374 3.07 3.07 3.07c1.695 0 3.07-1.374 3.07-3.07s-1.375-3.07-3.07-3.07z"/><path d="m390.647 350.18c-1.695 0-3.07 1.374-3.07 3.069 0 1.696 1.374 3.07 3.07 3.07 1.695 0 3.069-1.374 3.069-3.07 0-1.695-1.374-3.069-3.069-3.069z"/><path d="m369.758 197.79c-.498-.415-.996-.831-1.499-1.24.35.562.873.999 1.499 1.24z"/><path d="m360.59 202.13c-1.695 0-3.07 1.374-3.07 3.07 0 1.695 1.374 3.07 3.07 3.07 1.695 0 3.069-1.374 3.069-3.07s-1.374-3.07-3.069-3.07z"/><path d="m370.857 211.652c-1.695 0-3.07 1.374-3.07 3.07 0 1.695 1.375 3.069 3.07 3.069s3.07-1.374 3.07-3.069c-.001-1.696-1.375-3.07-3.07-3.07z"/><path d="m360.59 221.919c-1.695 0-3.07 1.375-3.07 3.07s1.374 3.07 3.07 3.07c1.695 0 3.069-1.375 3.069-3.07s-1.374-3.07-3.069-3.07z"/><path d="m370.857 231.442c-1.695 0-3.07 1.374-3.07 3.07 0 1.695 1.375 3.07 3.07 3.07s3.07-1.374 3.07-3.07c-.001-1.696-1.375-3.07-3.07-3.07z"/><path d="m370.857 350.18c-1.695 0-3.07 1.374-3.07 3.069 0 1.696 1.375 3.07 3.07 3.07s3.07-1.374 3.07-3.07c-.001-1.695-1.375-3.069-3.07-3.069z"/><path d="m340.8 182.34c-1.695 0-3.07 1.374-3.07 3.07 0 1.695 1.374 3.07 3.07 3.07 1.695 0 3.07-1.374 3.07-3.07-.001-1.696-1.375-3.07-3.07-3.07z"/><path d="m351.067 191.863c-1.695 0-3.069 1.374-3.069 3.069s1.375 3.07 3.069 3.07c1.695 0 3.07-1.374 3.07-3.07 0-1.695-1.374-3.069-3.07-3.069z"/><path d="m340.8 202.13c-1.695 0-3.07 1.374-3.07 3.07 0 1.695 1.374 3.07 3.07 3.07 1.695 0 3.07-1.374 3.07-3.07-.001-1.696-1.375-3.07-3.07-3.07z"/><path d="m351.067 211.652c-1.695 0-3.069 1.374-3.069 3.07 0 1.695 1.375 3.069 3.069 3.069 1.695 0 3.07-1.374 3.07-3.069 0-1.696-1.374-3.07-3.07-3.07z"/><path d="m331.278 178.212c1.454 0 2.665-1.014 2.982-2.371-1.845-.803-3.713-1.561-5.596-2.289-.284.465-.456 1.006-.456 1.591 0 1.695 1.374 3.069 3.07 3.069z"/><path d="m321.01 182.34c-1.695 0-3.07 1.374-3.07 3.07 0 1.695 1.374 3.07 3.07 3.07 1.695 0 3.07-1.374 3.07-3.07s-1.374-3.07-3.07-3.07z"/><path d="m331.278 191.863c-1.695 0-3.07 1.374-3.07 3.069s1.374 3.07 3.07 3.07c1.695 0 3.069-1.374 3.069-3.07 0-1.695-1.374-3.069-3.069-3.069z"/><path d="m298.151 165.62c0 1.695 1.375 3.07 3.07 3.07 1.39 0 2.551-.93 2.929-2.198-1.981-.385-3.974-.73-5.982-1.034-.004.055-.017.107-.017.162z"/><path d="m311.488 172.072c-1.695 0-3.07 1.375-3.07 3.07s1.374 3.07 3.07 3.07 3.07-1.374 3.07-3.07c0-1.695-1.375-3.07-3.07-3.07z"/></g><path d="m348.098 353.91c6.206-1.542-7.823-21.4-7.44-35.655.279-10.396 6.995-23.34 4.788-36.029-1.924-11.066-12.909-20.394-16.979-31.853-3.845-10.825-1.256-25.396-7.634-35.478-6.092-9.631-19.831-13.043-28.771-21.048-8.234-7.373-13.214-21.079-24.289-26.318-9.711-4.593-23.184-.013-35.375-2.443-10.435-2.08-20.963-11.893-33.403-12.057-10.68-.141-21.69 9.146-33.966 10.627 0 0 115.31 73.343 121.738 127.771s16.493 73.629 61.331 62.483z" fill="#eaa895"/><path d="m86.846 356.912 254.056.691c-22.885-.062-41.386-19.118-41.322-42.563v-.035c.227-83.622-65.886-151.389-147.534-151.524-81.743-.136-147.737 68.606-147.965 152.345l-.065 23.964c-.025 9.332 7.338 16.916 16.448 16.941l271.054.737" fill="#e9c278"/><g fill="#31373d"><path d="m510.936 312.428v-.001-.001c-.735-40.997-16.922-79.387-45.578-108.099-20.184-20.223-44.916-33.981-71.803-40.314-3.688-1.628-7.709-2.18-11.824-2.285-7.659-1.159-15.457-1.738-23.346-1.696-1.659.01-3.326.057-4.989.123-2.542-.995-5.186-2.338-7.926-3.731-6.418-3.264-13.692-6.963-21.844-7.07-6.468-.09-12.822 2.722-18.941 5.438-5.082 2.255-10.336 4.587-15.559 5.217-.343.042-.664.138-.972.257-3.816-.298-7.658-.455-11.523-.461h-.247c-6.894 0-13.681.486-20.334 1.415-7.023-1.008-14.158-1.529-21.369-1.529-.289 0-.586.001-.877.002-1.663.009-3.323.058-4.981.125-2.544-.995-5.19-2.339-7.932-3.734-6.417-3.264-13.692-6.963-21.844-7.07-6.448-.078-12.822 2.723-18.942 5.438-5.081 2.255-10.336 4.587-15.558 5.217-.343.041-.664.138-.972.258-3.816-.298-7.659-.455-11.524-.462-.087 0-.161 0-.248 0-83.452 0-151.505 70.089-151.74 156.351l-.063 23.963c-.015 5.567 2.091 10.813 5.933 14.769 3.866 3.982 9.023 6.184 14.52 6.199l320.008.87 125.01.34h.011.113c23.992-.002 43.909-19.135 45.366-43.613.005-.078.007-.157.007-.235l.002-2.338c.002-1.117-.014-2.23-.034-3.343zm-202.992-150.296c5.574-2.473 10.822-4.792 15.577-4.748 6.283.083 12.397 3.192 18.309 6.199 1.915.974 3.859 1.956 5.826 2.849.765 1.183 2.113 1.944 3.591 1.857.303-.017.611-.025.915-.04 1.333.458 2.676.846 4.03 1.115 5.801 1.157 11.614.871 17.241.595 2.55-.124 5.042-.244 7.407-.217 3.474.545 6.909 1.217 10.299 2.015 5.528 2.827 9.415 8.305 13.518 14.104 2.83 4.001 5.757 8.138 9.307 11.317 3.988 3.571 8.697 6.216 13.252 8.774 6.041 3.394 11.748 6.598 14.803 11.428 3.187 5.037 3.8 11.677 4.45 18.708.498 5.385 1.013 10.953 2.794 15.968 2.005 5.644 5.409 10.623 8.7 15.438 3.7 5.414 7.196 10.527 8.107 15.76 1.115 6.411-.629 13.229-2.314 19.822-1.399 5.472-2.721 10.641-2.531 15.669.415 10.996 2.992 16.184 5.062 20.352 1.967 3.959 3.388 6.82 2.406 14.652-.001.012 0 .023-.001.035-1.023.087-2.055.14-3.099.14-.033 0-.067 0-.101 0-20.634-.056-37.375-17.343-37.317-38.57.115-42.122-16.001-81.57-45.378-111.075-21.291-21.385-47.73-35.607-76.415-41.457.522-.23 1.044-.46 1.562-.69zm70.413 153.286-.002 2.225c-1.008 16.15-11.692 29.456-26.017 34.135.609-8.416-1.44-12.574-3.437-16.593-1.907-3.84-3.88-7.81-4.23-17.081-.146-3.865 1.035-8.485 2.287-13.377 1.807-7.069 3.855-15.081 2.444-23.188-1.208-6.949-5.366-13.033-9.388-18.916-3.001-4.392-6.106-8.933-7.761-13.594-1.444-4.067-1.891-8.901-2.365-14.019-.708-7.666-1.441-15.593-5.66-22.262-4.141-6.546-11.012-10.405-17.658-14.138-4.369-2.454-8.496-4.771-11.828-7.755-2.875-2.574-5.416-6.168-8.108-9.973-.993-1.403-2.018-2.848-3.094-4.287 54.245 20.315 93.669 73.343 94.787 135.635.018 1.059.033 2.118.03 3.188zm-194.992-153.624c5.575-2.474 10.827-4.778 15.578-4.749 6.283.083 12.397 3.192 18.309 6.199 4.64 2.359 9.438 4.799 14.361 5.781 5.802 1.156 11.618.871 17.24.595 2.495-.122 4.935-.24 7.255-.219 3.553.553 7.066 1.241 10.533 2.059 5.485 2.839 9.354 8.292 13.436 14.062 2.831 4.001 5.757 8.138 9.308 11.318 3.988 3.572 8.697 6.217 13.252 8.774 6.042 3.394 11.749 6.598 14.804 11.429 3.187 5.037 3.8 11.677 4.45 18.707.498 5.385 1.013 10.953 2.794 15.968 2.004 5.644 5.408 10.623 8.7 15.438 3.701 5.414 7.196 10.527 8.106 15.759 1.115 6.411-.629 13.229-2.314 19.822-1.399 5.472-2.721 10.641-2.531 15.669.415 10.996 2.993 16.184 5.064 20.352 1.967 3.96 3.388 6.82 2.405 14.652-.001.012 0 .023-.001.035-1.023.087-2.054.14-3.098.14-.033 0-.068 0-.101 0-20.634-.056-37.375-17.343-37.317-38.57.115-42.122-16.001-81.569-45.378-111.075-21.291-21.385-47.73-35.607-76.416-41.457.521-.229 1.043-.46 1.561-.689zm108.183 191.658c-.007 0-.013 0-.02 0l-204.671-.556c-.007 0-.013 0-.02 0l-66.363-.18c-3.314-.009-6.432-1.345-8.779-3.762-2.372-2.443-3.673-5.694-3.663-9.152l.065-23.964c.224-81.846 64.667-148.34 143.707-148.34h.234c37.826.063 73.513 15.018 100.488 42.111 27.862 27.984 43.146 65.411 43.038 105.42-.043 15.959 7.83 30.086 19.829 38.488zm124.58.339h-.021l-49.685-.135c11.331-7.828 19.071-20.743 19.959-35.649.005-.079.007-.157.007-.235l.002-2.338c.003-1.119-.012-2.233-.032-3.346-.735-40.997-16.922-79.387-45.577-108.099-16.375-16.406-35.754-28.561-56.838-35.95 35.09 1.853 67.936 16.571 93.163 41.909 27.862 27.984 43.146 65.411 43.037 105.421-.043 15.959 7.83 30.086 19.829 38.488zm86.806-35.809c-1.008 16.15-11.692 29.456-26.017 34.135.608-8.415-1.441-12.573-3.437-16.593-1.908-3.84-3.88-7.81-4.23-17.081-.146-3.865 1.035-8.485 2.287-13.376 1.807-7.069 3.855-15.081 2.444-23.189-1.208-6.95-5.367-13.033-9.389-18.916-3.002-4.392-6.107-8.933-7.762-13.593-1.444-4.067-1.891-8.901-2.365-14.019-.708-7.666-1.441-15.593-5.659-22.262-4.141-6.545-11.013-10.405-17.659-14.138-4.368-2.454-8.495-4.771-11.827-7.755-2.875-2.574-5.417-6.167-8.108-9.972-.999-1.411-2.03-2.866-3.113-4.313 54.257 20.311 93.688 73.359 94.806 135.66v.001c.018 1.057.033 2.116.03 3.187z"/><path d="m238.428 274.791c-.014 0-.025 0-.038 0-3.787-.01-7.336-1.525-9.996-4.265-2.635-2.714-4.08-6.309-4.069-10.125.01-3.815 1.475-7.402 4.124-10.102 2.666-2.716 6.21-4.21 9.98-4.21h.039c3.786.01 7.336 1.525 9.997 4.265 2.636 2.714 4.081 6.31 4.07 10.125-.023 7.899-6.348 14.311-14.107 14.312zm.001-20.67c-1.597 0-3.105.64-4.248 1.805-1.173 1.194-1.821 2.791-1.825 4.497v.001c-.005 1.706.634 3.307 1.8 4.507 1.139 1.174 2.65 1.823 4.255 1.828h.017c3.341 0 6.064-2.824 6.074-6.303.005-1.706-.635-3.306-1.8-4.507-1.14-1.174-2.651-1.823-4.255-1.828-.008 0-.013 0-.018 0zm-10.089 6.291h.01z"/><path d="m194.515 299.486c-.009 3.305 2.599 5.991 5.825 5.999 3.226.009 5.848-2.663 5.857-5.967.009-3.305-2.599-5.991-5.825-5.999-3.226-.01-5.848 2.662-5.857 5.967z"/><path d="m153.97 226.412c-.009 3.305 2.599 5.991 5.825 5.999 3.226.009 5.848-2.663 5.857-5.968s-2.599-5.991-5.825-5.999c-3.225-.009-5.848 2.663-5.857 5.968z"/><path d="m69.815 257.873c-.009 3.305 2.599 5.991 5.825 5.999 3.226.009 5.848-2.663 5.857-5.968s-2.599-5.991-5.825-5.999-5.848 2.663-5.857 5.968z"/><path d="m137.789 308.573c-.013 0-.024 0-.037 0-3.787-.01-7.336-1.525-9.996-4.265-2.635-2.714-4.08-6.309-4.069-10.125.01-3.815 1.475-7.403 4.124-10.102 2.666-2.717 6.209-4.211 9.98-4.211h.039c3.786.01 7.336 1.525 9.997 4.265 2.636 2.714 4.081 6.31 4.07 10.125-.023 7.9-6.348 14.313-14.108 14.313zm.002-20.67c-1.597 0-3.105.64-4.248 1.805-1.173 1.194-1.821 2.792-1.825 4.497v.001c-.005 1.706.634 3.307 1.8 4.507 1.139 1.174 2.65 1.823 4.255 1.828h.016c3.342 0 6.064-2.824 6.074-6.303.005-1.706-.634-3.307-1.8-4.507-1.14-1.175-2.651-1.824-4.255-1.828-.006 0-.011 0-.017 0zm-10.089 6.291h.01z"/><path d="m106.699 232.059c-.013 0-.026 0-.038 0-3.787-.01-7.336-1.525-9.996-4.265-2.635-2.714-4.08-6.309-4.069-10.125.01-3.815 1.475-7.402 4.124-10.102 2.666-2.716 6.21-4.21 9.98-4.21h.039c3.786.01 7.336 1.525 9.996 4.265 2.636 2.714 4.081 6.31 4.07 10.125-.021 7.9-6.346 14.312-14.106 14.312zm.002-20.67c-1.598 0-3.106.64-4.249 1.805-1.173 1.194-1.821 2.791-1.825 4.497v.001c-.005 1.706.634 3.307 1.8 4.507 1.139 1.174 2.65 1.823 4.255 1.828h.017c3.341 0 6.064-2.824 6.073-6.303.005-1.706-.634-3.306-1.8-4.507-1.14-1.174-2.651-1.823-4.256-1.828-.004 0-.01 0-.015 0zm-10.089 6.291h.01z"/></g></g></svg>