<svg id="Capa_1" enable-background="new 0 0 510.694 510.694" height="512" viewBox="0 0 510.694 510.694" width="512" xmlns="http://www.w3.org/2000/svg"><g><path d="m22.445 505.387 407.291-194.47c3.823-1.825 4.691-6.884 1.695-9.879l-221.774-221.776c-2.996-2.996-8.054-2.128-9.879 1.696l-194.47 407.291c-5.221 10.935 6.202 22.358 17.137 17.138z" fill="#e9c278"/><g fill="#f9fbfc"><path d="m379.143 319.175c-1.706 0-3.088 1.383-3.088 3.088s1.383 3.088 3.088 3.088c1.706 0 3.088-1.383 3.088-3.088s-1.382-3.088-3.088-3.088z"/><path d="m369.564 328.755c-1.705 0-3.088 1.383-3.088 3.088 0 1.706 1.383 3.088 3.088 3.088 1.706 0 3.088-1.382 3.088-3.088 0-1.705-1.383-3.088-3.088-3.088z"/><path d="m359.235 339.084c-1.705 0-3.088 1.383-3.088 3.088 0 1.342.862 2.473 2.058 2.898l3.931-1.877c.113-.321.187-.661.187-1.022 0-1.704-1.383-3.087-3.088-3.087z"/><path d="m319.418 259.45c-1.706 0-3.088 1.383-3.088 3.088s1.383 3.088 3.088 3.088 3.088-1.382 3.088-3.088-1.383-3.088-3.088-3.088z"/><path d="m309.838 249.121c-1.705 0-3.088 1.382-3.088 3.088s1.383 3.088 3.088 3.088c1.706 0 3.088-1.382 3.088-3.088s-1.382-3.088-3.088-3.088z"/><path d="m299.509 259.45c-1.706 0-3.088 1.383-3.088 3.088s1.383 3.088 3.088 3.088 3.088-1.382 3.088-3.088-1.383-3.088-3.088-3.088z"/><path d="m309.838 269.029c-1.705 0-3.088 1.382-3.088 3.088 0 1.705 1.383 3.088 3.088 3.088 1.706 0 3.088-1.383 3.088-3.088s-1.382-3.088-3.088-3.088z"/><path d="m299.509 279.358c-1.706 0-3.088 1.382-3.088 3.088 0 1.705 1.383 3.088 3.088 3.088s3.088-1.383 3.088-3.088-1.383-3.088-3.088-3.088z"/><path d="m299.509 358.993c-1.706 0-3.088 1.382-3.088 3.088s1.383 3.088 3.088 3.088 3.088-1.382 3.088-3.088-1.383-3.088-3.088-3.088z"/><path d="m289.93 269.029c-1.706 0-3.088 1.382-3.088 3.088 0 1.705 1.383 3.088 3.088 3.088s3.088-1.383 3.088-3.088-1.383-3.088-3.088-3.088z"/><path d="m279.6 339.084c-1.706 0-3.088 1.383-3.088 3.088 0 1.706 1.383 3.088 3.088 3.088s3.088-1.382 3.088-3.088c0-1.705-1.382-3.088-3.088-3.088z"/><path d="m289.93 348.664c-1.706 0-3.088 1.382-3.088 3.088 0 1.705 1.383 3.088 3.088 3.088s3.088-1.383 3.088-3.088c0-1.706-1.383-3.088-3.088-3.088z"/><path d="m279.6 358.993c-1.706 0-3.088 1.382-3.088 3.088s1.383 3.088 3.088 3.088 3.088-1.382 3.088-3.088-1.382-3.088-3.088-3.088z"/><path d="m259.692 219.633c-1.706 0-3.088 1.382-3.088 3.088s1.383 3.088 3.088 3.088 3.088-1.383 3.088-3.088c0-1.706-1.383-3.088-3.088-3.088z"/><path d="m270.021 348.664c-1.705 0-3.088 1.382-3.088 3.088 0 1.705 1.383 3.088 3.088 3.088 1.706 0 3.088-1.383 3.088-3.088 0-1.706-1.383-3.088-3.088-3.088z"/><path d="m259.692 358.993c-1.706 0-3.088 1.382-3.088 3.088s1.383 3.088 3.088 3.088 3.088-1.382 3.088-3.088-1.383-3.088-3.088-3.088z"/><path d="m270.021 368.572c-1.705 0-3.088 1.382-3.088 3.088s1.383 3.088 3.088 3.088c1.706 0 3.088-1.383 3.088-3.088s-1.383-3.088-3.088-3.088z"/><path d="m259.692 378.901c-1.706 0-3.088 1.382-3.088 3.088 0 1.705 1.383 3.088 3.088 3.088s3.088-1.383 3.088-3.088-1.383-3.088-3.088-3.088z"/><path d="m239.783 179.815c-1.706 0-3.088 1.383-3.088 3.088 0 1.706 1.383 3.088 3.088 3.088s3.088-1.382 3.088-3.088c0-1.705-1.382-3.088-3.088-3.088z"/><path d="m250.112 189.395c-1.705 0-3.088 1.382-3.088 3.088s1.383 3.088 3.088 3.088c1.706 0 3.088-1.383 3.088-3.088s-1.382-3.088-3.088-3.088z"/><path d="m239.783 199.724c-1.706 0-3.088 1.382-3.088 3.088 0 1.705 1.383 3.088 3.088 3.088s3.088-1.383 3.088-3.088c0-1.706-1.382-3.088-3.088-3.088z"/><path d="m250.112 209.304c-1.705 0-3.088 1.382-3.088 3.088s1.383 3.088 3.088 3.088c1.706 0 3.088-1.382 3.088-3.088.001-1.706-1.382-3.088-3.088-3.088z"/><path d="m239.783 219.633c-1.706 0-3.088 1.382-3.088 3.088s1.383 3.088 3.088 3.088 3.088-1.383 3.088-3.088c0-1.706-1.382-3.088-3.088-3.088z"/><path d="m250.112 229.212c-1.705 0-3.088 1.383-3.088 3.088s1.383 3.088 3.088 3.088c1.706 0 3.088-1.382 3.088-3.088.001-1.705-1.382-3.088-3.088-3.088z"/><path d="m250.112 348.664c-1.705 0-3.088 1.382-3.088 3.088 0 1.705 1.383 3.088 3.088 3.088 1.706 0 3.088-1.383 3.088-3.088.001-1.706-1.382-3.088-3.088-3.088z"/><path d="m239.783 358.993c-1.706 0-3.088 1.382-3.088 3.088s1.383 3.088 3.088 3.088 3.088-1.382 3.088-3.088-1.382-3.088-3.088-3.088z"/><path d="m250.112 368.572c-1.705 0-3.088 1.382-3.088 3.088s1.383 3.088 3.088 3.088c1.706 0 3.088-1.383 3.088-3.088.001-1.705-1.382-3.088-3.088-3.088z"/><path d="m239.783 378.901c-1.706 0-3.088 1.382-3.088 3.088 0 1.705 1.383 3.088 3.088 3.088s3.088-1.383 3.088-3.088-1.382-3.088-3.088-3.088z"/><path d="m250.112 388.48c-1.705 0-3.088 1.383-3.088 3.088 0 1.706 1.383 3.088 3.088 3.088 1.706 0 3.088-1.382 3.088-3.088.001-1.705-1.382-3.088-3.088-3.088z"/><path d="m219.875 159.907c-1.706 0-3.088 1.383-3.088 3.088 0 1.706 1.383 3.088 3.088 3.088s3.088-1.382 3.088-3.088c0-1.705-1.383-3.088-3.088-3.088z"/><path d="m230.204 169.486c-1.706 0-3.088 1.382-3.088 3.088s1.383 3.088 3.088 3.088 3.088-1.382 3.088-3.088c0-1.705-1.383-3.088-3.088-3.088z"/><path d="m219.875 179.815c-1.706 0-3.088 1.383-3.088 3.088 0 1.706 1.383 3.088 3.088 3.088s3.088-1.382 3.088-3.088c0-1.705-1.383-3.088-3.088-3.088z"/><path d="m230.204 189.395c-1.706 0-3.088 1.382-3.088 3.088s1.383 3.088 3.088 3.088 3.088-1.383 3.088-3.088-1.383-3.088-3.088-3.088z"/><path d="m219.875 199.724c-1.706 0-3.088 1.382-3.088 3.088 0 1.705 1.383 3.088 3.088 3.088s3.088-1.383 3.088-3.088c0-1.706-1.383-3.088-3.088-3.088z"/><circle cx="230.204" cy="212.392" r="3.088"/><path d="m230.204 368.572c-1.706 0-3.088 1.382-3.088 3.088s1.383 3.088 3.088 3.088 3.088-1.383 3.088-3.088-1.383-3.088-3.088-3.088z"/><path d="m219.875 378.901c-1.706 0-3.088 1.382-3.088 3.088 0 1.705 1.383 3.088 3.088 3.088s3.088-1.383 3.088-3.088-1.383-3.088-3.088-3.088z"/><path d="m230.204 388.48c-1.706 0-3.088 1.383-3.088 3.088 0 1.706 1.383 3.088 3.088 3.088s3.088-1.382 3.088-3.088c0-1.705-1.383-3.088-3.088-3.088z"/><path d="m219.875 398.809c-1.706 0-3.088 1.383-3.088 3.088s1.383 3.088 3.088 3.088 3.088-1.382 3.088-3.088c0-1.705-1.383-3.088-3.088-3.088z"/><path d="m199.966 139.999c-1.706 0-3.088 1.382-3.088 3.088s1.382 3.088 3.088 3.088c1.705 0 3.088-1.383 3.088-3.088 0-1.706-1.382-3.088-3.088-3.088z"/><path d="m210.295 149.578c-1.705 0-3.088 1.383-3.088 3.088s1.383 3.088 3.088 3.088c1.706 0 3.088-1.382 3.088-3.088 0-1.705-1.382-3.088-3.088-3.088z"/><path d="m199.966 159.907c-1.706 0-3.088 1.383-3.088 3.088 0 1.706 1.382 3.088 3.088 3.088 1.705 0 3.088-1.382 3.088-3.088 0-1.705-1.382-3.088-3.088-3.088z"/><path d="m210.295 169.486c-1.705 0-3.088 1.382-3.088 3.088s1.383 3.088 3.088 3.088c1.706 0 3.088-1.382 3.088-3.088 0-1.705-1.382-3.088-3.088-3.088z"/><path d="m199.966 179.815c-1.706 0-3.088 1.383-3.088 3.088 0 1.706 1.382 3.088 3.088 3.088 1.705 0 3.088-1.382 3.088-3.088 0-1.705-1.382-3.088-3.088-3.088z"/><path d="m210.295 195.571c1.706 0 3.088-1.383 3.088-3.088s-1.383-3.088-3.088-3.088-3.088 1.382-3.088 3.088 1.383 3.088 3.088 3.088z"/><path d="m210.295 368.572c-1.705 0-3.088 1.382-3.088 3.088s1.383 3.088 3.088 3.088c1.706 0 3.088-1.383 3.088-3.088s-1.382-3.088-3.088-3.088z"/><path d="m219.881 359.02c-1.705 0-3.088 1.382-3.088 3.088s1.383 3.088 3.088 3.088 3.088-1.383 3.088-3.088-1.382-3.088-3.088-3.088z"/><path d="m199.966 378.901c-1.706 0-3.088 1.382-3.088 3.088 0 1.705 1.382 3.088 3.088 3.088 1.705 0 3.088-1.383 3.088-3.088s-1.382-3.088-3.088-3.088z"/><path d="m210.295 388.48c-1.705 0-3.088 1.383-3.088 3.088 0 1.706 1.383 3.088 3.088 3.088 1.706 0 3.088-1.382 3.088-3.088 0-1.705-1.382-3.088-3.088-3.088z"/><path d="m199.966 398.809c-1.706 0-3.088 1.383-3.088 3.088s1.382 3.088 3.088 3.088c1.705 0 3.088-1.382 3.088-3.088 0-1.705-1.382-3.088-3.088-3.088z"/><path d="m210.295 408.389c-1.705 0-3.088 1.382-3.088 3.088s1.383 3.088 3.088 3.088c1.706 0 3.088-1.382 3.088-3.088s-1.382-3.088-3.088-3.088z"/><path d="m190.387 129.669c-1.706 0-3.088 1.383-3.088 3.088s1.383 3.088 3.088 3.088 3.088-1.383 3.088-3.088-1.383-3.088-3.088-3.088z"/><path d="m180.058 139.999c-1.706 0-3.088 1.382-3.088 3.088s1.383 3.088 3.088 3.088 3.088-1.383 3.088-3.088c0-1.706-1.383-3.088-3.088-3.088z"/><path d="m180.058 159.907c-1.706 0-3.088 1.383-3.088 3.088 0 1.706 1.383 3.088 3.088 3.088s3.088-1.382 3.088-3.088c0-1.705-1.383-3.088-3.088-3.088z"/><path d="m190.387 169.486c-1.706 0-3.088 1.382-3.088 3.088s1.383 3.088 3.088 3.088 3.088-1.382 3.088-3.088c0-1.705-1.383-3.088-3.088-3.088z"/><path d="m190.387 388.48c-1.706 0-3.088 1.383-3.088 3.088 0 1.706 1.383 3.088 3.088 3.088s3.088-1.382 3.088-3.088c0-1.705-1.383-3.088-3.088-3.088z"/><path d="m180.058 398.809c-1.706 0-3.088 1.383-3.088 3.088s1.383 3.088 3.088 3.088 3.088-1.382 3.088-3.088c0-1.705-1.383-3.088-3.088-3.088z"/><path d="m190.387 408.389c-1.706 0-3.088 1.382-3.088 3.088s1.383 3.088 3.088 3.088 3.088-1.382 3.088-3.088-1.383-3.088-3.088-3.088z"/><path d="m180.058 418.718c-1.706 0-3.088 1.383-3.088 3.088s1.383 3.088 3.088 3.088 3.088-1.382 3.088-3.088c0-1.705-1.383-3.088-3.088-3.088z"/><path d="m170.478 155.754c1.706 0 3.088-1.382 3.088-3.088s-1.383-3.088-3.088-3.088-3.088 1.383-3.088 3.088c0 1.706 1.382 3.088 3.088 3.088z"/><path d="m170.478 388.48c-1.706 0-3.088 1.383-3.088 3.088 0 1.706 1.382 3.088 3.088 3.088s3.088-1.382 3.088-3.088c0-1.705-1.382-3.088-3.088-3.088z"/><path d="m180.064 378.929c-1.705 0-3.088 1.383-3.088 3.088s1.383 3.088 3.088 3.088c1.706 0 3.088-1.382 3.088-3.088s-1.382-3.088-3.088-3.088z"/><path d="m160.149 398.809c-1.706 0-3.088 1.383-3.088 3.088s1.383 3.088 3.088 3.088 3.088-1.382 3.088-3.088c0-1.705-1.383-3.088-3.088-3.088z"/><path d="m170.478 408.389c-1.706 0-3.088 1.382-3.088 3.088s1.382 3.088 3.088 3.088 3.088-1.382 3.088-3.088-1.382-3.088-3.088-3.088z"/><path d="m160.149 418.718c-1.706 0-3.088 1.383-3.088 3.088s1.383 3.088 3.088 3.088 3.088-1.382 3.088-3.088c0-1.705-1.383-3.088-3.088-3.088z"/><path d="m173.566 431.386c0-1.706-1.383-3.088-3.088-3.088s-3.088 1.382-3.088 3.088 1.382 3.088 3.088 3.088c.21 0 .415-.022.614-.062l1.302-.622c.709-.566 1.172-1.427 1.172-2.404z"/><path d="m150.57 408.389c-1.706 0-3.088 1.382-3.088 3.088s1.383 3.088 3.088 3.088 3.088-1.382 3.088-3.088-1.383-3.088-3.088-3.088z"/><path d="m140.24 418.718c-1.706 0-3.088 1.383-3.088 3.088s1.382 3.088 3.088 3.088c1.705 0 3.088-1.382 3.088-3.088 0-1.705-1.382-3.088-3.088-3.088z"/><path d="m150.57 428.298c-1.706 0-3.088 1.382-3.088 3.088s1.383 3.088 3.088 3.088 3.088-1.383 3.088-3.088-1.383-3.088-3.088-3.088z"/><path d="m140.24 438.627c-1.706 0-3.088 1.382-3.088 3.088s1.382 3.088 3.088 3.088c1.705 0 3.088-1.383 3.088-3.088 0-1.706-1.382-3.088-3.088-3.088z"/><path d="m130.661 408.389c-1.705 0-3.088 1.382-3.088 3.088s1.383 3.088 3.088 3.088c1.706 0 3.088-1.382 3.088-3.088s-1.383-3.088-3.088-3.088z"/><path d="m140.247 398.803c-1.705 0-3.088 1.382-3.088 3.088s1.383 3.088 3.088 3.088 3.088-1.382 3.088-3.088c0-1.705-1.383-3.088-3.088-3.088z"/><path d="m120.332 418.718c-1.705 0-3.088 1.383-3.088 3.088s1.383 3.088 3.088 3.088c1.706 0 3.088-1.382 3.088-3.088 0-1.705-1.383-3.088-3.088-3.088z"/><path d="m130.661 428.298c-1.705 0-3.088 1.382-3.088 3.088s1.383 3.088 3.088 3.088c1.706 0 3.088-1.383 3.088-3.088s-1.383-3.088-3.088-3.088z"/><path d="m120.332 438.627c-1.705 0-3.088 1.382-3.088 3.088s1.383 3.088 3.088 3.088c1.706 0 3.088-1.383 3.088-3.088 0-1.706-1.383-3.088-3.088-3.088z"/><path d="m100.423 418.718c-1.706 0-3.088 1.383-3.088 3.088s1.382 3.088 3.088 3.088c1.705 0 3.088-1.382 3.088-3.088 0-1.705-1.382-3.088-3.088-3.088z"/><path d="m110.752 428.298c-1.706 0-3.088 1.382-3.088 3.088s1.383 3.088 3.088 3.088 3.088-1.383 3.088-3.088-1.382-3.088-3.088-3.088z"/><path d="m100.423 438.627c-1.706 0-3.088 1.382-3.088 3.088s1.382 3.088 3.088 3.088c1.705 0 3.088-1.383 3.088-3.088 0-1.706-1.382-3.088-3.088-3.088z"/><path d="m110.752 448.206c-1.706 0-3.088 1.383-3.088 3.088s1.383 3.088 3.088 3.088 3.088-1.383 3.088-3.088-1.382-3.088-3.088-3.088z"/><path d="m100.423 458.535c-1.706 0-3.088 1.382-3.088 3.088 0 1.705 1.382 3.088 3.088 3.088 1.705 0 3.088-1.383 3.088-3.088s-1.382-3.088-3.088-3.088z"/><path d="m90.844 428.298c-1.705 0-3.088 1.382-3.088 3.088s1.383 3.088 3.088 3.088 3.088-1.383 3.088-3.088-1.383-3.088-3.088-3.088z"/><path d="m80.515 438.627c-1.705 0-3.088 1.382-3.088 3.088s1.383 3.088 3.088 3.088 3.088-1.383 3.088-3.088c0-1.706-1.383-3.088-3.088-3.088z"/><path d="m90.844 448.206c-1.705 0-3.088 1.383-3.088 3.088s1.383 3.088 3.088 3.088 3.088-1.383 3.088-3.088-1.383-3.088-3.088-3.088z"/><path d="m80.515 458.535c-1.705 0-3.088 1.382-3.088 3.088 0 1.705 1.383 3.088 3.088 3.088s3.088-1.383 3.088-3.088-1.383-3.088-3.088-3.088z"/><path d="m90.844 468.115c-1.705 0-3.088 1.383-3.088 3.088 0 .99.474 1.862 1.199 2.427l4.972-2.374c0-.018.005-.035.005-.053 0-1.705-1.383-3.088-3.088-3.088z"/><path d="m60.606 438.627c-1.706 0-3.088 1.382-3.088 3.088s1.383 3.088 3.088 3.088 3.088-1.383 3.088-3.088c0-1.706-1.382-3.088-3.088-3.088z"/><path d="m70.935 448.206c-1.705 0-3.088 1.383-3.088 3.088s1.383 3.088 3.088 3.088 3.088-1.383 3.088-3.088-1.382-3.088-3.088-3.088z"/><path d="m60.606 458.535c-1.706 0-3.088 1.382-3.088 3.088 0 1.705 1.383 3.088 3.088 3.088s3.088-1.383 3.088-3.088-1.382-3.088-3.088-3.088z"/><path d="m70.935 468.115c-1.705 0-3.088 1.383-3.088 3.088s1.383 3.088 3.088 3.088 3.088-1.382 3.088-3.088-1.382-3.088-3.088-3.088z"/><path d="m60.606 478.444c-1.706 0-3.088 1.383-3.088 3.088s1.383 3.088 3.088 3.088 3.088-1.383 3.088-3.088c0-1.706-1.382-3.088-3.088-3.088z"/><circle cx="51.027" cy="451.294" r="3.088"/><path d="m40.698 458.535c-1.706 0-3.088 1.382-3.088 3.088 0 1.705 1.383 3.088 3.088 3.088s3.088-1.383 3.088-3.088-1.383-3.088-3.088-3.088z"/><path d="m51.027 468.115c-1.706 0-3.088 1.383-3.088 3.088s1.382 3.088 3.088 3.088c1.705 0 3.088-1.382 3.088-3.088s-1.383-3.088-3.088-3.088z"/><path d="m40.698 478.444c-1.706 0-3.088 1.383-3.088 3.088s1.383 3.088 3.088 3.088 3.088-1.383 3.088-3.088c0-1.706-1.383-3.088-3.088-3.088z"/><path d="m20.789 464.712c1.706 0 3.088-1.383 3.088-3.088 0-1.706-1.383-3.088-3.088-3.088-.54 0-1.041.151-1.483.395l-1.55 3.246c.262 1.44 1.517 2.535 3.033 2.535z"/><path d="m31.118 468.115c-1.705 0-3.088 1.383-3.088 3.088s1.383 3.088 3.088 3.088 3.088-1.382 3.088-3.088-1.382-3.088-3.088-3.088z"/><path d="m20.789 478.444c-1.705 0-3.088 1.383-3.088 3.088s1.383 3.088 3.088 3.088c1.706 0 3.088-1.383 3.088-3.088 0-1.706-1.383-3.088-3.088-3.088z"/><path d="m31.118 488.023c-1.705 0-3.088 1.383-3.088 3.088 0 1.706 1.383 3.088 3.088 3.088s3.088-1.382 3.088-3.088c0-1.705-1.382-3.088-3.088-3.088z"/><path d="m20.789 504.528c1.706 0 3.088-1.382 3.088-3.088 0-1.705-1.383-3.088-3.088-3.088s-3.088 1.383-3.088 3.088c0 1.706 1.382 3.088 3.088 3.088z"/><path d="m11.21 494.199c1.705 0 3.088-1.382 3.088-3.088 0-1.705-1.383-3.088-3.088-3.088-1.706 0-3.088 1.383-3.088 3.088-.001 1.706 1.382 3.088 3.088 3.088z"/></g><path d="m454.044 270.536c2.83-2.438 5.598-4.983 8.282-7.667 59.233-59.233 59.233-155.268 0-214.5-59.233-59.233-155.268-59.233-214.5 0-2.684 2.684-5.229 5.452-7.667 8.282l-.127-.127c-15.251-15.251-39.977-15.251-55.227 0-15.251 15.251-15.251 39.977 0 55.228l93.618 93.618-13.324 13.324c-10.237 10.237-10.237 26.835 0 37.072 10.237 10.237 26.835 10.237 37.073 0l13.323-13.324 21.388 21.388-41.23 41.23c-11.025 11.025-11.024 28.899 0 39.924 11.025 11.025 28.899 11.025 39.924 0l41.23-41.23 22.137 22.136c15.251 15.251 39.977 15.251 55.228 0s15.251-39.977 0-55.227z" fill="#eaa895"/><g fill="#f9fbfc"><path d="m500.82 120.09c-1.706 0-3.088 1.382-3.088 3.088 0 1.705 1.383 3.088 3.088 3.088 1.192 0 2.215-.684 2.73-1.673-.268-1.287-.551-2.571-.853-3.852-.521-.403-1.167-.651-1.877-.651z"/><path d="m500.82 139.998c-1.706 0-3.088 1.383-3.088 3.088 0 1.706 1.383 3.088 3.088 3.088s3.088-1.383 3.088-3.088-1.383-3.088-3.088-3.088z"/><path d="m500.82 159.907c-1.706 0-3.088 1.383-3.088 3.088 0 1.706 1.383 3.088 3.088 3.088s3.088-1.382 3.088-3.088c0-1.705-1.383-3.088-3.088-3.088z"/><path d="m500.82 179.815c-1.706 0-3.088 1.383-3.088 3.088 0 1.706 1.383 3.088 3.088 3.088s3.088-1.382 3.088-3.088c0-1.705-1.383-3.088-3.088-3.088z"/><path d="m497.732 202.812c0 .805.315 1.53.819 2.08.58-1.694 1.129-3.396 1.648-5.105-1.408.287-2.467 1.532-2.467 3.025z"/><path d="m480.911 80.272c-1.706 0-3.088 1.383-3.088 3.088s1.383 3.088 3.088 3.088 3.088-1.382 3.088-3.088c0-1.705-1.382-3.088-3.088-3.088z"/><path d="m488.152 92.94c0 1.706 1.383 3.088 3.088 3.088 1.148 0 2.139-.635 2.671-1.565-.673-1.527-1.375-3.045-2.1-4.554-.185-.035-.375-.057-.571-.057-1.705 0-3.088 1.383-3.088 3.088z"/><path d="m480.911 100.181c-1.706 0-3.088 1.382-3.088 3.088 0 1.705 1.383 3.088 3.088 3.088s3.088-1.383 3.088-3.088c0-1.706-1.382-3.088-3.088-3.088z"/><path d="m491.24 109.76c-1.705 0-3.088 1.383-3.088 3.088s1.383 3.088 3.088 3.088c1.706 0 3.088-1.383 3.088-3.088s-1.382-3.088-3.088-3.088z"/><path d="m480.911 120.09c-1.706 0-3.088 1.382-3.088 3.088 0 1.705 1.383 3.088 3.088 3.088s3.088-1.383 3.088-3.088c0-1.706-1.382-3.088-3.088-3.088z"/><path d="m491.24 129.669c-1.705 0-3.088 1.383-3.088 3.088s1.383 3.088 3.088 3.088c1.706 0 3.088-1.382 3.088-3.088 0-1.705-1.382-3.088-3.088-3.088z"/><path d="m480.911 139.998c-1.706 0-3.088 1.383-3.088 3.088 0 1.706 1.383 3.088 3.088 3.088s3.088-1.383 3.088-3.088-1.382-3.088-3.088-3.088z"/><path d="m491.24 149.578c-1.705 0-3.088 1.383-3.088 3.088s1.383 3.088 3.088 3.088c1.706 0 3.088-1.382 3.088-3.088 0-1.705-1.382-3.088-3.088-3.088z"/><path d="m480.911 159.907c-1.706 0-3.088 1.383-3.088 3.088 0 1.706 1.383 3.088 3.088 3.088s3.088-1.382 3.088-3.088c0-1.705-1.382-3.088-3.088-3.088z"/><path d="m491.24 169.486c-1.705 0-3.088 1.382-3.088 3.088 0 1.705 1.383 3.088 3.088 3.088 1.706 0 3.088-1.383 3.088-3.088s-1.382-3.088-3.088-3.088z"/><path d="m480.911 179.815c-1.706 0-3.088 1.383-3.088 3.088 0 1.706 1.383 3.088 3.088 3.088s3.088-1.382 3.088-3.088c0-1.705-1.382-3.088-3.088-3.088z"/><path d="m491.24 189.395c-1.705 0-3.088 1.382-3.088 3.088s1.383 3.088 3.088 3.088c1.706 0 3.088-1.383 3.088-3.088s-1.382-3.088-3.088-3.088z"/><path d="m480.911 199.724c-1.706 0-3.088 1.382-3.088 3.088 0 1.705 1.383 3.088 3.088 3.088s3.088-1.383 3.088-3.088c0-1.706-1.382-3.088-3.088-3.088z"/><path d="m491.24 209.303c-1.705 0-3.088 1.383-3.088 3.088 0 1.706 1.383 3.088 3.088 3.088 1.706 0 3.088-1.382 3.088-3.088 0-1.705-1.382-3.088-3.088-3.088z"/><path d="m480.911 219.633c-1.706 0-3.088 1.382-3.088 3.088s1.383 3.088 3.088 3.088 3.088-1.382 3.088-3.088-1.382-3.088-3.088-3.088z"/><path d="m477.823 242.629c0 .558.16 1.074.419 1.527 1.086-1.507 2.145-3.028 3.169-4.564-.164-.027-.328-.051-.5-.051-1.705 0-3.088 1.383-3.088 3.088z"/><path d="m460.495 46.58c-.827-.8-1.661-1.588-2.502-2.365.271 1.219 1.26 2.159 2.502 2.365z"/><path d="m464.091 63.452c0-1.705-1.383-3.088-3.088-3.088-1.706 0-3.088 1.383-3.088 3.088 0 1.706 1.383 3.088 3.088 3.088s3.088-1.382 3.088-3.088z"/><path d="m471.332 69.944c-1.706 0-3.088 1.382-3.088 3.088s1.383 3.088 3.088 3.088 3.088-1.382 3.088-3.088-1.383-3.088-3.088-3.088z"/><path d="m471.332 89.852c-1.706 0-3.088 1.382-3.088 3.088s1.383 3.088 3.088 3.088 3.088-1.383 3.088-3.088-1.383-3.088-3.088-3.088z"/><path d="m471.332 109.76c-1.706 0-3.088 1.383-3.088 3.088s1.383 3.088 3.088 3.088 3.088-1.383 3.088-3.088-1.383-3.088-3.088-3.088z"/><path d="m471.332 129.669c-1.706 0-3.088 1.383-3.088 3.088s1.383 3.088 3.088 3.088 3.088-1.382 3.088-3.088c0-1.705-1.383-3.088-3.088-3.088z"/><path d="m471.332 149.578c-1.706 0-3.088 1.383-3.088 3.088s1.383 3.088 3.088 3.088 3.088-1.382 3.088-3.088c0-1.705-1.383-3.088-3.088-3.088z"/><path d="m460.947 159.885c-1.705 0-3.088 1.383-3.088 3.088s1.383 3.088 3.088 3.088c1.706 0 3.088-1.382 3.088-3.088s-1.383-3.088-3.088-3.088z"/><path d="m471.332 169.486c-1.706 0-3.088 1.382-3.088 3.088 0 1.705 1.383 3.088 3.088 3.088s3.088-1.383 3.088-3.088-1.383-3.088-3.088-3.088z"/><path d="m461.003 179.815c-1.706 0-3.088 1.383-3.088 3.088 0 1.706 1.383 3.088 3.088 3.088s3.088-1.382 3.088-3.088c0-1.705-1.383-3.088-3.088-3.088z"/><path d="m471.332 189.395c-1.706 0-3.088 1.382-3.088 3.088s1.383 3.088 3.088 3.088 3.088-1.383 3.088-3.088-1.383-3.088-3.088-3.088z"/><path d="m461.003 199.724c-1.706 0-3.088 1.382-3.088 3.088 0 1.705 1.383 3.088 3.088 3.088s3.088-1.383 3.088-3.088c0-1.706-1.383-3.088-3.088-3.088z"/><path d="m471.332 209.303c-1.706 0-3.088 1.383-3.088 3.088 0 1.706 1.383 3.088 3.088 3.088s3.088-1.382 3.088-3.088c0-1.705-1.383-3.088-3.088-3.088z"/><circle cx="461.003" cy="222.721" r="3.088"/><path d="m471.332 229.212c-1.706 0-3.088 1.382-3.088 3.088s1.383 3.088 3.088 3.088 3.088-1.382 3.088-3.088-1.383-3.088-3.088-3.088z"/><path d="m461.003 239.541c-1.706 0-3.088 1.383-3.088 3.088 0 1.706 1.383 3.088 3.088 3.088s3.088-1.382 3.088-3.088c0-1.705-1.383-3.088-3.088-3.088z"/><path d="m471.332 249.121c-1.706 0-3.088 1.382-3.088 3.088 0 1.135.619 2.116 1.531 2.653 1.331-1.535 2.622-3.092 3.881-4.667-.567-.653-1.392-1.074-2.324-1.074z"/><path d="m461.003 259.45c-1.706 0-3.088 1.382-3.088 3.088 0 1.265.763 2.35 1.852 2.827.86-.821 1.714-1.65 2.559-2.495.512-.512 1.009-1.034 1.513-1.552-.474-1.099-1.564-1.868-2.836-1.868z"/><path d="m451.423 189.395c-1.706 0-3.088 1.382-3.088 3.088s1.383 3.088 3.088 3.088 3.088-1.383 3.088-3.088-1.382-3.088-3.088-3.088z"/><path d="m441.038 199.702c-1.705 0-3.088 1.382-3.088 3.088 0 1.705 1.383 3.088 3.088 3.088 1.706 0 3.088-1.383 3.088-3.088 0-1.706-1.382-3.088-3.088-3.088z"/><path d="m451.423 209.303c-1.706 0-3.088 1.383-3.088 3.088 0 1.706 1.383 3.088 3.088 3.088s3.088-1.382 3.088-3.088c0-1.705-1.382-3.088-3.088-3.088z"/><circle cx="441.094" cy="222.721" r="3.088"/><path d="m451.423 229.212c-1.706 0-3.088 1.382-3.088 3.088s1.383 3.088 3.088 3.088 3.088-1.382 3.088-3.088-1.382-3.088-3.088-3.088z"/><path d="m441.094 239.541c-1.706 0-3.088 1.383-3.088 3.088 0 1.706 1.383 3.088 3.088 3.088 1.706 0 3.088-1.382 3.088-3.088 0-1.705-1.382-3.088-3.088-3.088z"/><path d="m451.423 249.121c-1.706 0-3.088 1.382-3.088 3.088s1.383 3.088 3.088 3.088 3.088-1.383 3.088-3.088c0-1.706-1.382-3.088-3.088-3.088z"/><path d="m431.515 229.212c-1.706 0-3.088 1.382-3.088 3.088s1.383 3.088 3.088 3.088 3.088-1.382 3.088-3.088-1.383-3.088-3.088-3.088z"/></g><g fill="#31373d"><path d="m465.165 265.71c60.705-60.704 60.705-159.477 0-220.182-60.703-60.704-159.476-60.704-220.181 0-1.768 1.768-3.462 3.582-5.125 5.415-7.704-6.392-17.305-9.875-27.441-9.875-11.504 0-22.32 4.48-30.454 12.615-8.135 8.135-12.615 18.95-12.615 30.454 0 10.629 3.831 20.664 10.828 28.546l-178.494 373.835c-3.123 6.539-1.829 14.075 3.294 19.199 3.268 3.268 7.516 4.978 11.862 4.978 2.468 0 4.968-.552 7.336-1.682l373.835-178.496c7.882 6.997 17.917 10.829 28.546 10.829 11.504 0 22.319-4.48 30.454-12.615 15.818-15.819 16.729-40.977 2.747-57.879 1.834-1.665 3.64-3.374 5.408-5.142zm-110.09-257.68c37.807 0 75.628 14.397 104.41 43.179 57.571 57.571 57.571 151.248 0 208.819-1.722 1.722-3.482 3.383-5.268 5l-208.54-208.54c1.617-1.787 3.266-3.556 4.988-5.278 28.79-28.79 66.594-43.18 104.41-43.18zm-334.361 493.731c-4.158 1.986-7.92.41-10.056-1.725-2.135-2.136-3.71-5.899-1.725-10.056l47.904-100.33 16.602 86.937zm60.222-28.753-18.256-95.595 35.272-73.872 28.299 147.83zm52.81-25.216-29.955-156.48 35.721-74.812 40.224 209.334zm53.483-25.537-41.854-217.821-.113.022 36.28-75.985 53.172 271.111zm54.972-26.247-53.963-275.141 62.756 62.756 7.171 37.318c-3.095 4.819-4.761 10.424-4.761 16.288 0 8.075 3.145 15.667 8.854 21.377 1.175 1.175 2.434 2.236 3.757 3.188l21.621 112.52zm32.846-129.784c2.753.812 5.637 1.236 8.588 1.236 8.075 0 15.666-3.145 21.376-8.855l10.484-10.483 8.724 8.724 2.244 11.721-33.65 33.651c-4.002 4.002-6.725 8.806-8.179 13.897zm20.081 104.513-4.987-25.956c.819 1.055 1.703 2.074 2.671 3.042 6.286 6.287 14.543 9.431 22.802 9.43 8.258 0 16.516-3.144 22.803-9.429l2.701-2.701.641 3.349zm54.126-25.843-1.27-6.637 28.823-28.823 15.096 15.096zm102.076-21.845c-6.618 6.618-15.416 10.262-24.774 10.262s-18.156-3.644-24.773-10.262l-22.137-22.136c-1.569-1.568-4.113-1.568-5.68 0l-41.23 41.23c-9.442 9.439-24.803 9.442-34.244 0-9.44-9.44-9.44-24.801 0-34.242l41.23-41.23c1.569-1.569 1.569-4.112 0-5.681l-21.388-21.388c-.785-.784-1.812-1.176-2.84-1.176s-2.057.392-2.84 1.176l-13.324 13.324c-4.193 4.193-9.767 6.502-15.696 6.502s-11.504-2.309-15.696-6.502c-4.192-4.192-6.5-9.766-6.5-15.695 0-5.93 2.309-11.504 6.501-15.697l13.323-13.324c1.569-1.569 1.569-4.112 0-5.681l-93.617-93.618c-6.617-6.617-10.262-15.414-10.262-24.773 0-9.358 3.645-18.156 10.262-24.773s15.415-10.262 24.773-10.262 18.156 3.645 24.773 10.262l214.139 214.138c13.66 13.66 13.66 35.886 0 49.546zm-190.209-129.3 11.62 11.62-7.874 7.875z"/><path d="m364.562 70.204c-2.218 0-4.017-1.799-4.017-4.017 0-9.451-7.689-17.139-17.139-17.139s-17.139 7.688-17.139 17.139c0 2.218-1.799 4.017-4.017 4.017s-4.017-1.799-4.017-4.017c0-13.881 11.293-25.173 25.173-25.173s25.173 11.293 25.173 25.173c0 2.219-1.799 4.017-4.017 4.017z"/><path d="m425.515 107.199c-2.218 0-4.017-1.799-4.017-4.017 0-9.451-7.689-17.139-17.139-17.139s-17.139 7.688-17.139 17.139c0 2.218-1.799 4.017-4.017 4.017s-4.017-1.799-4.017-4.017c0-13.881 11.293-25.173 25.173-25.173s25.173 11.293 25.173 25.173c0 2.218-1.799 4.017-4.017 4.017z"/></g></g></svg>