<svg id="Capa_1" enable-background="new 0 0 510.653 510.653" height="512" viewBox="0 0 510.653 510.653" width="512" xmlns="http://www.w3.org/2000/svg"><g><path d="m474.6 270.373v112.702h-96.998v31.857h96.998 31.857v-31.857-112.702z" fill="#e9c278"/><path d="m506.458 266.362h-31.858c-2.215 0-4.011 1.796-4.011 4.011v108.69h-92.987c-2.215 0-4.011 1.796-4.011 4.011v31.858c0 2.215 1.796 4.011 4.011 4.011h18.248v87.698c0 2.215 1.796 4.011 4.011 4.011h16.411c2.215 0 4.011-1.796 4.011-4.011v-87.698h51.885v87.698c0 2.215 1.796 4.011 4.011 4.011h16.411c2.215 0 4.011-1.796 4.011-4.011v-87.698h9.855c2.215 0 4.011-1.796 4.011-4.011v-144.559c.002-2.215-1.794-4.011-4.009-4.011zm-4.012 144.559h-120.833v-23.836h92.987c2.215 0 4.011-1.796 4.011-4.011v-108.69h23.835z" fill="#31373d"/><path d="m36.053 270.373v112.702h96.999v31.857h-96.999-31.857v-31.857-112.702z" fill="#e9c278"/><path d="m133.052 379.063h-92.988v-108.69c0-2.215-1.796-4.011-4.011-4.011h-31.857c-2.215 0-4.011 1.796-4.011 4.011v144.559c0 2.215 1.796 4.011 4.011 4.011h9.855v87.698c0 2.215 1.796 4.011 4.011 4.011h16.41c2.215 0 4.011-1.796 4.011-4.011v-87.698h51.885v87.698c0 2.215 1.796 4.011 4.011 4.011h16.411c2.215 0 4.011-1.796 4.011-4.011v-87.698h18.249c2.215 0 4.011-1.796 4.011-4.011v-31.858c.002-2.215-1.794-4.011-4.009-4.011zm-4.012 31.858h-120.833v-136.537h23.835v108.69c0 2.215 1.796 4.011 4.011 4.011h92.987z" fill="#31373d"/><g><path d="m313.382 506.03h-114.023v-20.4c0-8.994 7.291-16.285 16.285-16.285h81.455c8.994 0 16.284 7.291 16.284 16.285v20.4z" fill="#f9fbfc"/><path d="m395.803 339.986h-278.866c-10.13 0-18.342-8.212-18.342-18.342 0-10.13 8.212-18.342 18.342-18.342h278.866c10.13 0 18.342 8.212 18.342 18.342.001 10.13-8.212 18.342-18.342 18.342z" fill="#e9c278"/><path d="m489.468 157.091c1.333-2.175 1.049-5.302-1.572-6.967l-228.811-145.33c-1.657-1.053-3.772-1.053-5.429 0l-228.811 145.33c-2.622 1.665-2.906 4.792-1.572 6.967h-1.123c0 25.812 20.925 46.737 46.738 46.737 25.018 0 45.444-19.656 46.678-44.367h.854c1.234 24.711 21.66 44.367 46.678 44.367s45.443-19.656 46.678-44.367h.12c1.234 24.711 21.66 44.367 46.678 44.367s45.444-19.656 46.678-44.367h.12c1.234 24.711 21.66 44.367 46.678 44.367 25.017 0 45.443-19.656 46.677-44.367h.12c1.234 24.711 21.66 44.367 46.678 44.367 25.812 0 46.738-20.925 46.738-46.737z" fill="#eaa895"/><g fill="#f9fbfc"><path d="m383.229 162.628c-1.7 0-3.078 1.378-3.078 3.078s1.378 3.078 3.078 3.078 3.078-1.378 3.078-3.078-1.378-3.078-3.078-3.078z"/><path d="m383.229 182.474c-1.7 0-3.078 1.378-3.078 3.078s1.378 3.079 3.078 3.079c.72 0 1.375-.258 1.899-.673.254-.289.508-.577.754-.872.263-.453.424-.973.424-1.535.001-1.699-1.377-3.077-3.077-3.077z"/><path d="m363.383 162.628c-1.7 0-3.078 1.378-3.078 3.078s1.378 3.078 3.078 3.078 3.078-1.378 3.078-3.078-1.378-3.078-3.078-3.078z"/><path d="m373.679 172.177c-1.7 0-3.078 1.378-3.078 3.078s1.378 3.079 3.078 3.079 3.078-1.379 3.078-3.079-1.378-3.078-3.078-3.078z"/><path d="m363.383 182.474c-1.7 0-3.078 1.378-3.078 3.078s1.378 3.079 3.078 3.079 3.078-1.379 3.078-3.079-1.378-3.078-3.078-3.078z"/><path d="m373.679 192.023c-1.7 0-3.078 1.378-3.078 3.078 0 1.343.863 2.472 2.061 2.893 1.4-.775 2.753-1.623 4.06-2.533.014-.12.036-.237.036-.36 0-1.7-1.379-3.078-3.079-3.078z"/><path d="m343.536 162.628c-1.7 0-3.079 1.378-3.079 3.078s1.378 3.078 3.079 3.078c1.7 0 3.078-1.378 3.078-3.078s-1.377-3.078-3.078-3.078z"/><path d="m353.833 172.177c-1.7 0-3.079 1.378-3.079 3.078s1.378 3.079 3.079 3.079c1.7 0 3.078-1.379 3.078-3.079s-1.378-3.078-3.078-3.078z"/><path d="m343.536 182.474c-1.7 0-3.079 1.378-3.079 3.078s1.378 3.079 3.079 3.079c1.7 0 3.078-1.379 3.078-3.079s-1.377-3.078-3.078-3.078z"/><path d="m353.833 192.023c-1.7 0-3.079 1.378-3.079 3.078 0 1.701 1.378 3.079 3.079 3.079 1.7 0 3.078-1.378 3.078-3.079.001-1.7-1.378-3.078-3.078-3.078z"/><path d="m323.69 162.628c-1.7 0-3.078 1.378-3.078 3.078s1.378 3.078 3.078 3.078 3.078-1.378 3.078-3.078-1.378-3.078-3.078-3.078z"/><path d="m333.987 172.177c-1.7 0-3.078 1.378-3.078 3.078s1.378 3.079 3.078 3.079 3.079-1.379 3.079-3.079-1.379-3.078-3.079-3.078z"/><path d="m323.69 182.474c-1.7 0-3.078 1.378-3.078 3.078s1.378 3.079 3.078 3.079 3.078-1.379 3.078-3.079-1.378-3.078-3.078-3.078z"/><path d="m333.987 192.023c-1.7 0-3.078 1.378-3.078 3.078 0 1.701 1.378 3.079 3.078 3.079s3.079-1.378 3.079-3.079c-.001-1.7-1.379-3.078-3.079-3.078z"/><path d="m314.141 172.177c-1.7 0-3.078 1.378-3.078 3.078s1.378 3.079 3.078 3.079 3.078-1.379 3.078-3.079-1.378-3.078-3.078-3.078z"/><path d="m482.46 162.628c-1.7 0-3.078 1.378-3.078 3.078s1.378 3.078 3.078 3.078 3.078-1.378 3.078-3.078-1.378-3.078-3.078-3.078z"/><circle cx="462.613" cy="165.706" r="3.078"/><path d="m472.91 172.177c-1.7 0-3.078 1.378-3.078 3.078s1.378 3.079 3.078 3.079 3.078-1.379 3.078-3.079-1.378-3.078-3.078-3.078z"/><path d="m462.613 182.474c-1.7 0-3.079 1.378-3.079 3.078s1.378 3.079 3.079 3.079 3.078-1.379 3.078-3.079-1.377-3.078-3.078-3.078z"/><path d="m442.767 162.628c-1.7 0-3.079 1.378-3.079 3.078s1.378 3.078 3.079 3.078 3.078-1.378 3.078-3.078-1.378-3.078-3.078-3.078z"/><path d="m453.064 172.177c-1.7 0-3.078 1.378-3.078 3.078s1.378 3.079 3.078 3.079 3.078-1.379 3.078-3.079-1.378-3.078-3.078-3.078z"/><path d="m442.767 182.474c-1.7 0-3.079 1.378-3.079 3.078s1.378 3.079 3.079 3.079 3.078-1.379 3.078-3.079-1.378-3.078-3.078-3.078z"/><path d="m453.064 192.023c-1.7 0-3.078 1.378-3.078 3.078 0 1.701 1.378 3.079 3.078 3.079s3.078-1.378 3.078-3.079c0-1.7-1.378-3.078-3.078-3.078z"/><circle cx="422.921" cy="165.706" r="3.078"/><path d="m433.218 172.177c-1.7 0-3.078 1.378-3.078 3.078s1.378 3.079 3.078 3.079 3.079-1.379 3.079-3.079-1.379-3.078-3.079-3.078z"/><path d="m422.921 182.474c-1.7 0-3.078 1.378-3.078 3.078s1.378 3.079 3.078 3.079 3.079-1.379 3.079-3.079-1.379-3.078-3.079-3.078z"/><path d="m433.218 192.023c-1.7 0-3.078 1.378-3.078 3.078 0 1.701 1.378 3.079 3.078 3.079s3.079-1.378 3.079-3.079c-.001-1.7-1.379-3.078-3.079-3.078z"/><path d="m403.075 162.628c-1.7 0-3.078 1.378-3.078 3.078s1.378 3.078 3.078 3.078 3.078-1.378 3.078-3.078-1.378-3.078-3.078-3.078z"/><path d="m413.372 172.177c-1.7 0-3.078 1.378-3.078 3.078s1.378 3.079 3.078 3.079 3.078-1.379 3.078-3.079-1.378-3.078-3.078-3.078z"/><path d="m462.613 142.781c-1.7 0-3.079 1.379-3.079 3.079s1.378 3.078 3.079 3.078 3.078-1.378 3.078-3.078c.001-1.7-1.377-3.079-3.078-3.079z"/><path d="m472.91 152.332c-1.7 0-3.078 1.378-3.078 3.078s1.378 3.078 3.078 3.078 3.078-1.378 3.078-3.078c.001-1.701-1.378-3.078-3.078-3.078z"/><path d="m442.767 122.935c-1.7 0-3.079 1.378-3.079 3.079 0 1.7 1.378 3.078 3.079 3.078s3.078-1.378 3.078-3.078c.001-1.701-1.378-3.079-3.078-3.079z"/><path d="m453.064 132.485c-1.7 0-3.078 1.379-3.078 3.079s1.378 3.078 3.078 3.078 3.078-1.378 3.078-3.078-1.378-3.079-3.078-3.079z"/><path d="m442.767 142.781c-1.7 0-3.079 1.379-3.079 3.079s1.378 3.078 3.079 3.078 3.078-1.378 3.078-3.078c.001-1.7-1.378-3.079-3.078-3.079z"/><path d="m453.064 152.332c-1.7 0-3.078 1.378-3.078 3.078s1.378 3.078 3.078 3.078 3.078-1.378 3.078-3.078c0-1.701-1.378-3.078-3.078-3.078z"/><path d="m422.921 122.935c-1.7 0-3.078 1.378-3.078 3.079 0 1.7 1.378 3.078 3.078 3.078s3.079-1.378 3.079-3.078c0-1.701-1.379-3.079-3.079-3.079z"/><path d="m433.218 132.485c-1.7 0-3.078 1.379-3.078 3.079s1.378 3.078 3.078 3.078 3.079-1.378 3.079-3.078c-.001-1.7-1.379-3.079-3.079-3.079z"/><path d="m422.921 142.781c-1.7 0-3.078 1.379-3.078 3.079s1.378 3.078 3.078 3.078 3.079-1.378 3.079-3.078-1.379-3.079-3.079-3.079z"/><circle cx="433.218" cy="155.41" r="3.078"/><path d="m403.075 103.089c-1.7 0-3.078 1.378-3.078 3.078s1.378 3.079 3.078 3.079 3.078-1.379 3.078-3.079-1.378-3.078-3.078-3.078z"/><path d="m413.372 112.639c-1.7 0-3.078 1.378-3.078 3.078s1.378 3.079 3.078 3.079 3.078-1.379 3.078-3.079-1.378-3.078-3.078-3.078z"/><path d="m403.075 122.935c-1.7 0-3.078 1.378-3.078 3.079 0 1.7 1.378 3.078 3.078 3.078s3.078-1.378 3.078-3.078c0-1.701-1.378-3.079-3.078-3.079z"/><path d="m413.372 132.485c-1.7 0-3.078 1.379-3.078 3.079s1.378 3.078 3.078 3.078 3.078-1.378 3.078-3.078-1.378-3.079-3.078-3.079z"/><path d="m403.075 142.781c-1.7 0-3.078 1.379-3.078 3.079s1.378 3.078 3.078 3.078 3.078-1.378 3.078-3.078-1.378-3.079-3.078-3.079z"/><path d="m413.372 152.332c-1.7 0-3.078 1.378-3.078 3.078s1.378 3.078 3.078 3.078 3.078-1.378 3.078-3.078c0-1.701-1.378-3.078-3.078-3.078z"/><path d="m382.684 83.298c-1.439.257-2.534 1.51-2.534 3.023 0 1.7 1.378 3.078 3.078 3.078s3.078-1.378 3.078-3.078c0-.277-.049-.541-.117-.796z"/><path d="m393.525 92.793c-1.7 0-3.078 1.378-3.078 3.078s1.378 3.079 3.078 3.079 3.078-1.379 3.078-3.079c.001-1.7-1.378-3.078-3.078-3.078z"/><path d="m383.229 103.089c-1.7 0-3.078 1.378-3.078 3.078s1.378 3.079 3.078 3.079 3.078-1.379 3.078-3.079-1.378-3.078-3.078-3.078z"/><path d="m393.525 112.639c-1.7 0-3.078 1.378-3.078 3.078s1.378 3.079 3.078 3.079 3.078-1.379 3.078-3.079c.001-1.7-1.378-3.078-3.078-3.078z"/><path d="m383.229 122.935c-1.7 0-3.078 1.378-3.078 3.079 0 1.7 1.378 3.078 3.078 3.078s3.078-1.378 3.078-3.078c0-1.701-1.378-3.079-3.078-3.079z"/><path d="m393.525 132.485c-1.7 0-3.078 1.379-3.078 3.079s1.378 3.078 3.078 3.078 3.078-1.378 3.078-3.078c.001-1.7-1.378-3.079-3.078-3.079z"/><path d="m383.229 142.781c-1.7 0-3.078 1.379-3.078 3.079s1.378 3.078 3.078 3.078 3.078-1.378 3.078-3.078-1.378-3.079-3.078-3.079z"/><circle cx="393.525" cy="155.41" r="3.078"/><path d="m363.383 83.243c-1.7 0-3.078 1.378-3.078 3.078s1.378 3.078 3.078 3.078 3.078-1.378 3.078-3.078-1.378-3.078-3.078-3.078z"/><path d="m373.679 92.793c-1.7 0-3.078 1.378-3.078 3.078s1.378 3.079 3.078 3.079 3.078-1.379 3.078-3.079c.001-1.7-1.378-3.078-3.078-3.078z"/><path d="m363.383 103.089c-1.7 0-3.078 1.378-3.078 3.078s1.378 3.079 3.078 3.079 3.078-1.379 3.078-3.079-1.378-3.078-3.078-3.078z"/><path d="m373.679 112.639c-1.7 0-3.078 1.378-3.078 3.078s1.378 3.079 3.078 3.079 3.078-1.379 3.078-3.079c.001-1.7-1.378-3.078-3.078-3.078z"/><path d="m363.383 122.935c-1.7 0-3.078 1.378-3.078 3.079 0 1.7 1.378 3.078 3.078 3.078s3.078-1.378 3.078-3.078c0-1.701-1.378-3.079-3.078-3.079z"/><path d="m373.679 132.485c-1.7 0-3.078 1.379-3.078 3.079s1.378 3.078 3.078 3.078 3.078-1.378 3.078-3.078c.001-1.7-1.378-3.079-3.078-3.079z"/><path d="m363.383 142.781c-1.7 0-3.078 1.379-3.078 3.079s1.378 3.078 3.078 3.078 3.078-1.378 3.078-3.078-1.378-3.079-3.078-3.079z"/><path d="m373.679 152.332c-1.7 0-3.078 1.378-3.078 3.078s1.378 3.078 3.078 3.078 3.078-1.378 3.078-3.078c.001-1.701-1.378-3.078-3.078-3.078z"/><path d="m343.536 63.397c-1.7 0-3.079 1.379-3.079 3.079s1.378 3.078 3.079 3.078c1.7 0 3.078-1.378 3.078-3.078.001-1.701-1.377-3.079-3.078-3.079z"/><path d="m353.833 72.946c-1.7 0-3.079 1.379-3.079 3.079s1.378 3.078 3.079 3.078c1.7 0 3.078-1.378 3.078-3.078.001-1.7-1.378-3.079-3.078-3.079z"/><path d="m343.536 83.243c-1.7 0-3.079 1.378-3.079 3.078s1.378 3.078 3.079 3.078c1.7 0 3.078-1.378 3.078-3.078.001-1.7-1.377-3.078-3.078-3.078z"/><path d="m353.833 92.793c-1.7 0-3.079 1.378-3.079 3.078s1.378 3.079 3.079 3.079c1.7 0 3.078-1.379 3.078-3.079.001-1.7-1.378-3.078-3.078-3.078z"/><path d="m343.536 103.089c-1.7 0-3.079 1.378-3.079 3.078s1.378 3.079 3.079 3.079c1.7 0 3.078-1.379 3.078-3.079.001-1.7-1.377-3.078-3.078-3.078z"/><path d="m353.833 112.639c-1.7 0-3.079 1.378-3.079 3.078s1.378 3.079 3.079 3.079c1.7 0 3.078-1.379 3.078-3.079.001-1.7-1.378-3.078-3.078-3.078z"/><path d="m343.536 122.935c-1.7 0-3.079 1.378-3.079 3.079 0 1.7 1.378 3.078 3.079 3.078 1.7 0 3.078-1.378 3.078-3.078.001-1.701-1.377-3.079-3.078-3.079z"/><path d="m353.833 132.485c-1.7 0-3.079 1.379-3.079 3.079s1.378 3.078 3.079 3.078c1.7 0 3.078-1.378 3.078-3.078.001-1.7-1.378-3.079-3.078-3.079z"/><path d="m343.536 142.781c-1.7 0-3.079 1.379-3.079 3.079s1.378 3.078 3.079 3.078c1.7 0 3.078-1.378 3.078-3.078.001-1.7-1.377-3.079-3.078-3.079z"/><circle cx="353.833" cy="155.41" r="3.078"/><path d="m333.987 53.1c-1.7 0-3.078 1.379-3.078 3.079s1.378 3.078 3.078 3.078 3.079-1.378 3.079-3.078-1.379-3.079-3.079-3.079z"/><path d="m323.69 63.397c-1.7 0-3.078 1.379-3.078 3.079s1.378 3.078 3.078 3.078 3.078-1.378 3.078-3.078c.001-1.701-1.378-3.079-3.078-3.079z"/><path d="m333.987 72.946c-1.7 0-3.078 1.379-3.078 3.079s1.378 3.078 3.078 3.078 3.079-1.378 3.079-3.078c-.001-1.7-1.379-3.079-3.079-3.079z"/><path d="m323.69 83.243c-1.7 0-3.078 1.378-3.078 3.078s1.378 3.078 3.078 3.078 3.078-1.378 3.078-3.078c.001-1.7-1.378-3.078-3.078-3.078z"/><path d="m333.987 92.793c-1.7 0-3.078 1.378-3.078 3.078s1.378 3.079 3.078 3.079 3.079-1.379 3.079-3.079c-.001-1.7-1.379-3.078-3.079-3.078z"/><path d="m323.69 103.089c-1.7 0-3.078 1.378-3.078 3.078s1.378 3.079 3.078 3.079 3.078-1.379 3.078-3.079c.001-1.7-1.378-3.078-3.078-3.078z"/><path d="m333.987 112.639c-1.7 0-3.078 1.378-3.078 3.078s1.378 3.079 3.078 3.079 3.079-1.379 3.079-3.079c-.001-1.7-1.379-3.078-3.079-3.078z"/><path d="m323.69 122.935c-1.7 0-3.078 1.378-3.078 3.079 0 1.7 1.378 3.078 3.078 3.078s3.078-1.378 3.078-3.078c.001-1.701-1.378-3.079-3.078-3.079z"/><path d="m333.987 132.485c-1.7 0-3.078 1.379-3.078 3.079s1.378 3.078 3.078 3.078 3.079-1.378 3.079-3.078c-.001-1.7-1.379-3.079-3.079-3.079z"/><path d="m323.69 142.781c-1.7 0-3.078 1.379-3.078 3.079s1.378 3.078 3.078 3.078 3.078-1.378 3.078-3.078c.001-1.7-1.378-3.079-3.078-3.079z"/><circle cx="333.987" cy="155.41" r="3.078"/><path d="m303.844 43.551c-1.7 0-3.078 1.378-3.078 3.079 0 1.7 1.378 3.078 3.078 3.078s3.078-1.378 3.078-3.078c0-1.701-1.378-3.079-3.078-3.079z"/><path d="m314.141 53.1c-1.7 0-3.078 1.379-3.078 3.079s1.378 3.078 3.078 3.078 3.078-1.378 3.078-3.078-1.378-3.079-3.078-3.079z"/><path d="m303.844 63.397c-1.7 0-3.078 1.379-3.078 3.079s1.378 3.078 3.078 3.078 3.078-1.378 3.078-3.078c0-1.701-1.378-3.079-3.078-3.079z"/><path d="m314.141 72.946c-1.7 0-3.078 1.379-3.078 3.079s1.378 3.078 3.078 3.078 3.078-1.378 3.078-3.078-1.378-3.079-3.078-3.079z"/><path d="m303.844 83.243c-1.7 0-3.078 1.378-3.078 3.078s1.378 3.078 3.078 3.078 3.078-1.378 3.078-3.078-1.378-3.078-3.078-3.078z"/><path d="m314.141 92.793c-1.7 0-3.078 1.378-3.078 3.078s1.378 3.079 3.078 3.079 3.078-1.379 3.078-3.079-1.378-3.078-3.078-3.078z"/><path d="m303.844 103.089c-1.7 0-3.078 1.378-3.078 3.078s1.378 3.079 3.078 3.079 3.078-1.379 3.078-3.079-1.378-3.078-3.078-3.078z"/><path d="m314.141 112.639c-1.7 0-3.078 1.378-3.078 3.078s1.378 3.079 3.078 3.079 3.078-1.379 3.078-3.079-1.378-3.078-3.078-3.078z"/><path d="m303.844 122.935c-1.7 0-3.078 1.378-3.078 3.079 0 1.7 1.378 3.078 3.078 3.078s3.078-1.378 3.078-3.078c0-1.701-1.378-3.079-3.078-3.079z"/><path d="m314.141 132.485c-1.7 0-3.078 1.379-3.078 3.079s1.378 3.078 3.078 3.078 3.078-1.378 3.078-3.078-1.378-3.079-3.078-3.079z"/><path d="m303.844 142.781c-1.7 0-3.078 1.379-3.078 3.079s1.378 3.078 3.078 3.078 3.078-1.378 3.078-3.078-1.378-3.079-3.078-3.079z"/><path d="m314.141 152.332c-1.7 0-3.078 1.378-3.078 3.078s1.378 3.078 3.078 3.078 3.078-1.378 3.078-3.078c0-1.701-1.378-3.078-3.078-3.078z"/><path d="m283.998 29.862c1.7 0 3.079-1.379 3.079-3.079s-1.378-3.078-3.079-3.078c-1.7 0-3.078 1.378-3.078 3.078-.001 1.7 1.378 3.079 3.078 3.079z"/><path d="m294.295 33.254c-1.7 0-3.078 1.378-3.078 3.078s1.378 3.079 3.078 3.079 3.078-1.379 3.078-3.079-1.378-3.078-3.078-3.078z"/><path d="m283.998 49.708c1.7 0 3.079-1.378 3.079-3.078 0-1.701-1.378-3.079-3.079-3.079-1.7 0-3.078 1.378-3.078 3.079-.001 1.7 1.378 3.078 3.078 3.078z"/><path d="m294.295 53.1c-1.7 0-3.078 1.379-3.078 3.079s1.378 3.078 3.078 3.078 3.078-1.378 3.078-3.078-1.378-3.079-3.078-3.079z"/><path d="m283.998 69.554c1.7 0 3.079-1.378 3.079-3.078s-1.378-3.079-3.079-3.079c-1.7 0-3.078 1.379-3.078 3.079-.001 1.7 1.378 3.078 3.078 3.078z"/><path d="m274.463 53.074c-1.7 0-3.078 1.379-3.078 3.079s1.378 3.078 3.078 3.078 3.078-1.378 3.078-3.078-1.378-3.079-3.078-3.079z"/><path d="m294.295 72.946c-1.7 0-3.078 1.379-3.078 3.079s1.378 3.078 3.078 3.078 3.078-1.378 3.078-3.078-1.378-3.079-3.078-3.079z"/><path d="m294.295 92.793c-1.7 0-3.078 1.378-3.078 3.078s1.378 3.079 3.078 3.079 3.078-1.379 3.078-3.079-1.378-3.078-3.078-3.078z"/><path d="m284.05 83.179c-1.7 0-3.078 1.378-3.078 3.078s1.378 3.079 3.078 3.079 3.079-1.379 3.079-3.079-1.379-3.078-3.079-3.078z"/><path d="m294.295 112.639c-1.7 0-3.078 1.378-3.078 3.078s1.378 3.079 3.078 3.079 3.078-1.379 3.078-3.079-1.378-3.078-3.078-3.078z"/><path d="m274.448 19.565c1.693 0 3.065-1.368 3.076-3.059l-4.395-2.791c-1.038.496-1.76 1.545-1.76 2.772.001 1.699 1.379 3.078 3.079 3.078z"/><path d="m274.448 39.411c1.7 0 3.078-1.379 3.078-3.079s-1.378-3.078-3.078-3.078-3.079 1.378-3.079 3.078 1.379 3.079 3.079 3.079z"/><path d="m264.204 23.718c-1.7 0-3.078 1.378-3.078 3.078s1.378 3.079 3.078 3.079 3.079-1.379 3.079-3.079-1.379-3.078-3.079-3.078z"/></g><path d="m494.108 156.013c.667-3.621-.889-7.261-4.061-9.275l-228.81-145.329c-2.957-1.877-6.775-1.878-9.731-.001l-228.812 145.33c-2.985 1.896-4.541 5.232-4.158 8.64-.248.521-.398 1.098-.398 1.714 0 27.983 22.766 50.748 50.749 50.748 21.334 0 39.617-13.239 47.105-31.929 7.488 18.689 25.77 31.929 47.104 31.929 20.996 0 39.033-12.825 46.738-31.046 5.681 13.434 16.981 23.928 30.94 28.518v93.979h-123.836c-12.326 0-22.354 10.027-22.354 22.353s10.028 22.354 22.354 22.354h123.837v121.338h-25.085c-11.217 0-20.342 9.125-20.342 20.341v20.353c0 2.215 1.796 4.011 4.011 4.011h114.024c2.215 0 4.011-1.796 4.011-4.011v-20.353c0-11.216-9.125-20.341-20.342-20.341h-25.085v-121.339h123.837c12.326 0 22.354-10.028 22.354-22.354s-10.028-22.353-22.354-22.353h-123.838v-93.844c14.145-4.52 25.609-15.088 31.344-28.652 7.705 18.22 25.742 31.045 46.738 31.045s39.033-12.825 46.738-31.045c7.704 18.22 25.741 31.045 46.737 31.045 27.983 0 50.749-22.765 50.749-50.748.001-.376-.068-.733-.164-1.078zm-425.22 43.804c-21.409 0-39.187-15.828-42.255-36.395.306.03.613.051.927.051h83.553c-3.092 20.54-20.837 36.344-42.225 36.344zm94.209 0c-21.389 0-39.133-15.804-42.224-36.344h84.449c-3.091 20.54-20.836 36.344-42.225 36.344zm133.955 273.541c6.794 0 12.32 5.526 12.32 12.319v16.342h-106.002v-16.342c0-6.793 5.526-12.319 12.32-12.319zm98.751-166.045c7.902 0 14.331 6.428 14.331 14.33s-6.429 14.331-14.331 14.331h-278.865c-7.902 0-14.331-6.429-14.331-14.331s6.429-14.33 14.331-14.33zm-139.23-107.496c-21.389 0-39.134-15.804-42.225-36.344h84.449c-3.091 20.54-20.835 36.344-42.224 36.344zm93.475 0c-21.389 0-39.134-15.804-42.225-36.344h84.45c-3.091 20.54-20.836 36.344-42.225 36.344zm93.476 0c-21.389 0-39.133-15.804-42.224-36.344h83.882c.2 0 .397-.012.593-.023-3.08 20.553-20.852 36.367-42.251 36.367zm42.668-45.126c-.146.503-.486.759-1.01.759h-457.623c-.524 0-.864-.255-1.01-.758-.147-.503.003-.901.446-1.181l228.812-145.33c0-.001 0-.001.001-.001.17-.109.367-.163.563-.163s.393.054.564.164l228.811 145.33c.442.28.592.677.446 1.18z" fill="#31373d"/></g></g></svg>