<svg id="Capa_1" enable-background="new 0 0 509.941 509.941" height="512" viewBox="0 0 509.941 509.941" width="512" xmlns="http://www.w3.org/2000/svg"><g><path d="m426.918 135.173c-24.522-47.193-93.41-81.186-174.563-81.186-82.298 0-151.977 34.959-175.569 83.191-7.626 3.786-12.59 11.781-11.74 20.65l29.088 303.382c2.43 25.345 24.449 44.73 50.806 44.73h220.06c26.357 0 48.376-19.386 50.806-44.73l29.088-303.382c1.066-11.107-6.99-20.843-17.976-22.655z" fill="#eaa895"/><g fill="#f9fbfc"><path d="m371.207 102.535c-.543-.479-1.249-.78-2.031-.78-1.702 0-3.082 1.38-3.082 3.082s1.38 3.082 3.082 3.082 3.082-1.38 3.082-3.082c0-.827-.33-1.575-.861-2.129-.062-.06-.133-.109-.19-.173z"/><path d="m369.176 121.625c-1.702 0-3.082 1.38-3.082 3.082s1.38 3.082 3.082 3.082 3.082-1.38 3.082-3.082-1.38-3.082-3.082-3.082z"/><path d="m359.615 91.446c-1.702 0-3.082 1.38-3.082 3.082s1.38 3.082 3.082 3.082 3.082-1.38 3.082-3.082-1.38-3.082-3.082-3.082z"/><circle cx="349.306" cy="104.837" r="3.082"/><path d="m359.615 111.315c-1.702 0-3.082 1.38-3.082 3.082 0 1.703 1.38 3.082 3.082 3.082s3.082-1.379 3.082-3.082c0-1.702-1.38-3.082-3.082-3.082z"/><path d="m349.306 121.625c-1.702 0-3.082 1.38-3.082 3.082s1.38 3.082 3.082 3.082 3.082-1.38 3.082-3.082-1.38-3.082-3.082-3.082z"/><path d="m359.615 131.186c-1.702 0-3.082 1.38-3.082 3.082s1.38 3.082 3.082 3.082 3.082-1.38 3.082-3.082c0-1.703-1.38-3.082-3.082-3.082z"/><path d="m349.306 141.494c-1.702 0-3.082 1.38-3.082 3.082s1.38 3.082 3.082 3.082 3.082-1.38 3.082-3.082-1.38-3.082-3.082-3.082z"/><path d="m339.745 131.186c-1.702 0-3.082 1.38-3.082 3.082s1.38 3.082 3.082 3.082 3.082-1.38 3.082-3.082c0-1.703-1.38-3.082-3.082-3.082z"/><path d="m339.745 151.056c-1.702 0-3.082 1.379-3.082 3.081 0 1.703 1.38 3.083 3.082 3.083s3.082-1.38 3.082-3.083c0-1.702-1.38-3.081-3.082-3.081z"/><path d="m329.436 161.364c-1.702 0-3.082 1.38-3.082 3.082s1.38 3.082 3.082 3.082 3.082-1.38 3.082-3.082-1.38-3.082-3.082-3.082z"/><path d="m339.745 170.925c-1.702 0-3.082 1.38-3.082 3.082s1.38 3.082 3.082 3.082 3.082-1.38 3.082-3.082-1.38-3.082-3.082-3.082z"/><path d="m319.875 170.925c-1.702 0-3.082 1.38-3.082 3.082s1.38 3.082 3.082 3.082 3.082-1.38 3.082-3.082-1.379-3.082-3.082-3.082z"/><path d="m300.006 91.446c-1.702 0-3.082 1.38-3.082 3.082s1.38 3.082 3.082 3.082 3.082-1.38 3.082-3.082-1.38-3.082-3.082-3.082z"/><circle cx="289.697" cy="104.837" r="3.082"/><path d="m300.006 111.315c-1.702 0-3.082 1.38-3.082 3.082 0 1.703 1.38 3.082 3.082 3.082s3.082-1.379 3.082-3.082c0-1.702-1.38-3.082-3.082-3.082z"/><path d="m289.697 121.625c-1.702 0-3.082 1.38-3.082 3.082s1.38 3.082 3.082 3.082 3.082-1.38 3.082-3.082-1.38-3.082-3.082-3.082z"/><circle cx="289.697" cy="243.925" r="3.082"/><path d="m300.006 250.403c-1.702 0-3.082 1.38-3.082 3.082s1.38 3.082 3.082 3.082 3.082-1.38 3.082-3.082-1.38-3.082-3.082-3.082z"/><path d="m289.697 260.712c-1.702 0-3.082 1.38-3.082 3.082s1.38 3.082 3.082 3.082 3.082-1.38 3.082-3.082-1.38-3.082-3.082-3.082z"/><path d="m280.136 230.534c-1.702 0-3.082 1.379-3.082 3.082 0 1.702 1.38 3.082 3.082 3.082s3.082-1.38 3.082-3.082c0-1.703-1.38-3.082-3.082-3.082z"/><path d="m280.136 250.403c-1.702 0-3.082 1.38-3.082 3.082s1.38 3.082 3.082 3.082 3.082-1.38 3.082-3.082-1.38-3.082-3.082-3.082z"/><path d="m283.131 274.057c.053-.227.088-.46.088-.702 0-1.701-1.38-3.081-3.082-3.081s-3.082 1.38-3.082 3.081c0 .242.035.476.088.702z"/><path d="m249.958 62.016c-1.702 0-3.082 1.38-3.082 3.082s1.38 3.082 3.082 3.082 3.082-1.38 3.082-3.082-1.38-3.082-3.082-3.082z"/><path d="m249.958 81.886c-1.702 0-3.082 1.38-3.082 3.082s1.38 3.082 3.082 3.082 3.082-1.38 3.082-3.082-1.38-3.082-3.082-3.082z"/><path d="m230.088 62.016c-1.702 0-3.082 1.38-3.082 3.082s1.38 3.082 3.082 3.082 3.082-1.38 3.082-3.082-1.38-3.082-3.082-3.082z"/><path d="m240.397 71.576c-1.702 0-3.082 1.38-3.082 3.082s1.38 3.082 3.082 3.082 3.082-1.38 3.082-3.082-1.38-3.082-3.082-3.082z"/><path d="m230.088 81.886c-1.702 0-3.082 1.38-3.082 3.082s1.38 3.082 3.082 3.082 3.082-1.38 3.082-3.082-1.38-3.082-3.082-3.082z"/><path d="m240.397 91.446c-1.702 0-3.082 1.38-3.082 3.082s1.38 3.082 3.082 3.082 3.082-1.38 3.082-3.082-1.38-3.082-3.082-3.082z"/><path d="m230.088 101.755c-1.702 0-3.082 1.38-3.082 3.082s1.38 3.082 3.082 3.082 3.082-1.38 3.082-3.082-1.38-3.082-3.082-3.082z"/><path d="m230.088 240.843c-1.702 0-3.082 1.38-3.082 3.082s1.38 3.082 3.082 3.082 3.082-1.38 3.082-3.082-1.38-3.082-3.082-3.082z"/><path d="m220.527 71.576c-1.702 0-3.082 1.38-3.082 3.082s1.38 3.082 3.082 3.082 3.082-1.38 3.082-3.082-1.379-3.082-3.082-3.082z"/><path d="m210.219 81.886c-1.702 0-3.082 1.38-3.082 3.082s1.38 3.082 3.082 3.082 3.082-1.38 3.082-3.082-1.38-3.082-3.082-3.082z"/><path d="m220.527 91.446c-1.702 0-3.082 1.38-3.082 3.082s1.38 3.082 3.082 3.082 3.082-1.38 3.082-3.082-1.379-3.082-3.082-3.082z"/><path d="m220.527 250.403c-1.702 0-3.082 1.38-3.082 3.082s1.38 3.082 3.082 3.082 3.082-1.38 3.082-3.082-1.379-3.082-3.082-3.082z"/><path d="m210.219 260.712c-1.702 0-3.082 1.38-3.082 3.082s1.38 3.082 3.082 3.082 3.082-1.38 3.082-3.082-1.38-3.082-3.082-3.082z"/><path d="m190.349 181.233c-1.702 0-3.082 1.38-3.082 3.082s1.38 3.082 3.082 3.082 3.082-1.38 3.082-3.082-1.38-3.082-3.082-3.082z"/><path d="m200.658 190.795c-1.702 0-3.082 1.38-3.082 3.081 0 1.703 1.38 3.082 3.082 3.082s3.082-1.379 3.082-3.082c0-1.701-1.38-3.081-3.082-3.081z"/><path d="m190.349 201.104c-1.702 0-3.082 1.38-3.082 3.082s1.38 3.082 3.082 3.082 3.082-1.38 3.082-3.082c0-1.703-1.38-3.082-3.082-3.082z"/><path d="m170.479 121.625c-1.702 0-3.082 1.38-3.082 3.082s1.38 3.082 3.082 3.082 3.082-1.38 3.082-3.082-1.38-3.082-3.082-3.082z"/><path d="m180.788 131.186c-1.702 0-3.082 1.38-3.082 3.082s1.38 3.082 3.082 3.082 3.082-1.38 3.082-3.082c0-1.703-1.38-3.082-3.082-3.082z"/><path d="m170.479 141.494c-1.702 0-3.082 1.38-3.082 3.082s1.38 3.082 3.082 3.082 3.082-1.38 3.082-3.082-1.38-3.082-3.082-3.082z"/><path d="m180.788 190.795c-1.702 0-3.082 1.38-3.082 3.081 0 1.703 1.38 3.082 3.082 3.082s3.082-1.379 3.082-3.082c0-1.701-1.38-3.081-3.082-3.081z"/><path d="m170.479 201.104c-1.702 0-3.082 1.38-3.082 3.082s1.38 3.082 3.082 3.082 3.082-1.38 3.082-3.082c0-1.703-1.38-3.082-3.082-3.082z"/><circle cx="180.788" cy="213.746" r="3.082"/><path d="m160.919 71.576c-1.702 0-3.082 1.38-3.082 3.082s1.38 3.082 3.082 3.082 3.082-1.38 3.082-3.082-1.38-3.082-3.082-3.082z"/><path d="m150.61 81.886c-1.702 0-3.082 1.38-3.082 3.082s1.38 3.082 3.082 3.082 3.082-1.38 3.082-3.082-1.38-3.082-3.082-3.082z"/><path d="m160.919 131.186c-1.702 0-3.082 1.38-3.082 3.082s1.38 3.082 3.082 3.082 3.082-1.38 3.082-3.082c0-1.703-1.38-3.082-3.082-3.082z"/><circle cx="121.179" cy="94.528" r="3.082"/><path d="m110.87 101.755c-1.702 0-3.082 1.38-3.082 3.082s1.38 3.082 3.082 3.082 3.082-1.38 3.082-3.082-1.379-3.082-3.082-3.082z"/><path d="m101.31 111.315c-1.702 0-3.082 1.38-3.082 3.082 0 1.703 1.38 3.082 3.082 3.082s3.082-1.379 3.082-3.082c0-1.702-1.38-3.082-3.082-3.082z"/><path d="m91.001 121.625c-1.702 0-3.082 1.38-3.082 3.082s1.38 3.082 3.082 3.082 3.082-1.38 3.082-3.082-1.38-3.082-3.082-3.082z"/></g><path d="m331.685 43.102c-15.55-23.556-42.253-39.101-72.59-39.101-45.871 0-83.44 35.531-86.692 80.574-.249-.002-.497-.01-.747-.01-34.907 0-65.002 20.579-78.831 50.265h41.743c9.455-9.564 22.577-15.495 37.088-15.495 1.812 0 3.601.093 5.365.273 3.418 9.78 8.529 18.767 14.991 26.599-.537-.01-1.074-.021-1.614-.021-11.102 0-21.715 2.085-31.476 5.878v39.465c8.749-6.633 19.65-10.573 31.476-10.573 10.995 0 21.189 3.41 29.599 9.22-14.24 7.185-26.22 18.18-34.634 31.636-4.369 1.188-8.962 1.833-13.707 1.833-3.53 0-6.977-.355-10.31-1.024 4.236 13.723 12.187 26.345 23.845 34.743.163-.025.323-.061.486-.087 6.477 4.429 13.977 7.657 21.264 10.501.006-6.491 1.208-12.699 3.38-18.43 12.394-6.167 23.1-15.204 31.262-26.243.63 3.239.969 6.582.969 10.006 0 16.272-7.455 30.801-19.133 40.365 13.726 2.941 27.661 3.857 41.663 4.125 7.77-13.016 12.24-28.229 12.24-44.49 0-4.973-.424-9.846-1.226-14.59 20.098 6.933 34.631 25.8 35.123 48.139 3.785-1.45 7.473-3.182 10.978-5.205 2.381-2.036 4.607-4.24 6.688-6.426 4.564-4.795 9.05-10.243 12.151-16.238-2.797-7.893-6.715-15.255-11.54-21.913 6.994-.071 13.786-.976 20.292-2.604v-36.651c-6.471 2.883-13.629 4.499-21.171 4.499-12.712 0-24.358-4.553-33.407-12.11 29.979-13.712 50.809-43.964 50.809-79.085 0-3.498-.213-6.946-.614-10.336 20.564 6.99 35.366 26.449 35.366 49.378 0 1.16-.052 2.308-.126 3.449h34.822c.045-1.145.074-2.294.074-3.449 0-46.983-37.271-85.25-83.856-86.867zm-124.745 47.823c0-28.805 23.35-52.155 52.155-52.155 12.712 0 24.358 4.553 33.407 12.11-27.301 12.488-47.012 38.693-50.315 69.802-8.95-12.402-21.089-22.35-35.218-28.639-.008-.373-.029-.743-.029-1.118zm70.456 48.843c-.605-3.176-.933-6.449-.933-9.802 0-22.364 14.079-41.433 33.854-48.846.604 3.177.933 6.451.933 9.804 0 22.364-14.08 41.432-33.854 48.844z" fill="#e9c278"/><g fill="#f9fbfc"><path d="m428.785 141.494c-1.702 0-3.082 1.38-3.082 3.082s1.38 3.082 3.082 3.082 3.082-1.38 3.082-3.082-1.38-3.082-3.082-3.082z"/><path d="m439.093 151.056c-1.702 0-3.082 1.379-3.082 3.081 0 1.703 1.38 3.083 3.082 3.083s3.082-1.38 3.082-3.083c.001-1.702-1.38-3.081-3.082-3.081z"/><path d="m428.785 161.364c-1.702 0-3.082 1.38-3.082 3.082s1.38 3.082 3.082 3.082 3.082-1.38 3.082-3.082-1.38-3.082-3.082-3.082z"/><path d="m439.093 177.089c1.702 0 3.082-1.38 3.082-3.082s-1.38-3.082-3.082-3.082-3.082 1.38-3.082 3.082 1.38 3.082 3.082 3.082z"/><path d="m428.785 181.233c-1.702 0-3.082 1.38-3.082 3.082s1.38 3.082 3.082 3.082 3.082-1.38 3.082-3.082-1.38-3.082-3.082-3.082z"/><path d="m439.093 190.795c-1.702 0-3.082 1.38-3.082 3.081 0 1.703 1.38 3.082 3.082 3.082.829 0 1.579-.331 2.133-.863l.383-3.99c-.558-.791-1.475-1.31-2.516-1.31z"/><path d="m428.785 201.104c-1.702 0-3.082 1.38-3.082 3.082s1.38 3.082 3.082 3.082 3.082-1.38 3.082-3.082c0-1.703-1.38-3.082-3.082-3.082z"/><path d="m428.785 220.973c-1.702 0-3.082 1.38-3.082 3.082s1.38 3.082 3.082 3.082 3.082-1.38 3.082-3.082c0-1.703-1.38-3.082-3.082-3.082z"/><path d="m428.785 240.843c-1.702 0-3.082 1.38-3.082 3.082s1.38 3.082 3.082 3.082 3.082-1.38 3.082-3.082-1.38-3.082-3.082-3.082z"/><path d="m428.785 260.712c-1.702 0-3.082 1.38-3.082 3.082s1.38 3.082 3.082 3.082 3.082-1.38 3.082-3.082-1.38-3.082-3.082-3.082z"/><path d="m428.785 280.582c-1.702 0-3.082 1.38-3.082 3.082s1.38 3.082 3.082 3.082 3.082-1.38 3.082-3.082-1.38-3.082-3.082-3.082z"/><path d="m428.785 300.451c-1.702 0-3.082 1.38-3.082 3.082s1.38 3.082 3.082 3.082c.725 0 1.383-.261 1.91-.68l.422-4.396c-.566-.66-1.395-1.088-2.332-1.088z"/><path d="m408.915 141.494c-1.702 0-3.082 1.38-3.082 3.082s1.38 3.082 3.082 3.082 3.082-1.38 3.082-3.082-1.38-3.082-3.082-3.082z"/><path d="m419.224 151.056c-1.702 0-3.082 1.379-3.082 3.081 0 1.703 1.38 3.083 3.082 3.083s3.082-1.38 3.082-3.083c0-1.702-1.38-3.081-3.082-3.081z"/><path d="m408.915 167.528c1.702 0 3.082-1.38 3.082-3.082s-1.38-3.082-3.082-3.082-3.082 1.38-3.082 3.082 1.38 3.082 3.082 3.082z"/><path d="m419.224 170.925c-1.702 0-3.082 1.38-3.082 3.082s1.38 3.082 3.082 3.082 3.082-1.38 3.082-3.082-1.38-3.082-3.082-3.082z"/><path d="m408.915 187.398c1.702 0 3.082-1.38 3.082-3.082s-1.38-3.082-3.082-3.082-3.082 1.38-3.082 3.082 1.38 3.082 3.082 3.082z"/><path d="m419.224 190.795c-1.702 0-3.082 1.38-3.082 3.081 0 1.703 1.38 3.082 3.082 3.082s3.082-1.379 3.082-3.082c0-1.701-1.38-3.081-3.082-3.081z"/><path d="m408.915 207.268c1.702 0 3.082-1.38 3.082-3.082s-1.38-3.082-3.082-3.082-3.082 1.38-3.082 3.082 1.38 3.082 3.082 3.082z"/><path d="m419.224 210.664c-1.702 0-3.082 1.38-3.082 3.082s1.38 3.082 3.082 3.082 3.082-1.38 3.082-3.082-1.38-3.082-3.082-3.082z"/><path d="m408.915 227.137c1.702 0 3.082-1.38 3.082-3.082s-1.38-3.082-3.082-3.082-3.082 1.38-3.082 3.082 1.38 3.082 3.082 3.082z"/><path d="m419.224 230.534c-1.702 0-3.082 1.379-3.082 3.082 0 1.702 1.38 3.082 3.082 3.082s3.082-1.38 3.082-3.082c0-1.703-1.38-3.082-3.082-3.082z"/><path d="m408.915 247.007c1.702 0 3.082-1.38 3.082-3.082s-1.38-3.082-3.082-3.082-3.082 1.38-3.082 3.082 1.38 3.082 3.082 3.082z"/><path d="m419.224 250.403c-1.702 0-3.082 1.38-3.082 3.082s1.38 3.082 3.082 3.082 3.082-1.38 3.082-3.082-1.38-3.082-3.082-3.082z"/><path d="m408.915 266.876c1.702 0 3.082-1.38 3.082-3.082s-1.38-3.082-3.082-3.082-3.082 1.38-3.082 3.082 1.38 3.082 3.082 3.082z"/><path d="m419.224 270.273c-1.702 0-3.082 1.38-3.082 3.081 0 1.703 1.38 3.083 3.082 3.083s3.082-1.38 3.082-3.083c0-1.701-1.38-3.081-3.082-3.081z"/><path d="m408.915 286.746c1.702 0 3.082-1.38 3.082-3.082s-1.38-3.082-3.082-3.082-3.082 1.38-3.082 3.082 1.38 3.082 3.082 3.082z"/><path d="m419.224 290.143c-1.702 0-3.082 1.38-3.082 3.082s1.38 3.082 3.082 3.082 3.082-1.38 3.082-3.082c0-1.703-1.38-3.082-3.082-3.082z"/><path d="m408.915 306.615c1.702 0 3.082-1.38 3.082-3.082s-1.38-3.082-3.082-3.082-3.082 1.38-3.082 3.082 1.38 3.082 3.082 3.082z"/><path d="m419.224 310.013c-1.702 0-3.082 1.38-3.082 3.082s1.38 3.082 3.082 3.082 3.082-1.38 3.082-3.082-1.38-3.082-3.082-3.082z"/><path d="m408.915 326.485c1.702 0 3.082-1.38 3.082-3.082s-1.38-3.082-3.082-3.082-3.082 1.38-3.082 3.082 1.38 3.082 3.082 3.082z"/><path d="m419.224 329.882c-1.702 0-3.082 1.38-3.082 3.082s1.38 3.082 3.082 3.082 3.082-1.38 3.082-3.082-1.38-3.082-3.082-3.082z"/><path d="m408.915 425.833c1.702 0 3.082-1.38 3.082-3.082s-1.38-3.082-3.082-3.082-3.082 1.38-3.082 3.082 1.38 3.082 3.082 3.082z"/><path d="m408.915 445.703c1.702 0 3.082-1.38 3.082-3.082s-1.38-3.082-3.082-3.082-3.082 1.38-3.082 3.082 1.38 3.082 3.082 3.082z"/><path d="m408.915 465.572c1.702 0 3.082-1.38 3.082-3.082s-1.38-3.082-3.082-3.082-3.082 1.38-3.082 3.082 1.38 3.082 3.082 3.082z"/><path d="m399.354 151.056c-1.702 0-3.082 1.379-3.082 3.081 0 1.703 1.38 3.083 3.082 3.083s3.082-1.38 3.082-3.083c0-1.702-1.38-3.081-3.082-3.081z"/><path d="m389.036 141.542c-1.702 0-3.082 1.379-3.082 3.081 0 1.703 1.38 3.083 3.082 3.083s3.082-1.38 3.082-3.083-1.38-3.081-3.082-3.081z"/><path d="m389.045 161.364c-1.702 0-3.082 1.38-3.082 3.082s1.38 3.082 3.082 3.082 3.082-1.38 3.082-3.082-1.379-3.082-3.082-3.082z"/><path d="m399.354 170.925c-1.702 0-3.082 1.38-3.082 3.082s1.38 3.082 3.082 3.082 3.082-1.38 3.082-3.082-1.38-3.082-3.082-3.082z"/><path d="m389.045 181.233c-1.702 0-3.082 1.38-3.082 3.082s1.38 3.082 3.082 3.082 3.082-1.38 3.082-3.082-1.379-3.082-3.082-3.082z"/><path d="m399.354 190.795c-1.702 0-3.082 1.38-3.082 3.081 0 1.703 1.38 3.082 3.082 3.082s3.082-1.379 3.082-3.082c0-1.701-1.38-3.081-3.082-3.081z"/><path d="m389.045 201.104c-1.702 0-3.082 1.38-3.082 3.082s1.38 3.082 3.082 3.082 3.082-1.38 3.082-3.082c0-1.703-1.379-3.082-3.082-3.082z"/><path d="m399.354 210.664c-1.702 0-3.082 1.38-3.082 3.082s1.38 3.082 3.082 3.082 3.082-1.38 3.082-3.082-1.38-3.082-3.082-3.082z"/><path d="m389.045 220.973c-1.702 0-3.082 1.38-3.082 3.082s1.38 3.082 3.082 3.082 3.082-1.38 3.082-3.082c0-1.703-1.379-3.082-3.082-3.082z"/><path d="m399.354 230.534c-1.702 0-3.082 1.379-3.082 3.082 0 1.702 1.38 3.082 3.082 3.082s3.082-1.38 3.082-3.082c0-1.703-1.38-3.082-3.082-3.082z"/><path d="m389.045 240.843c-1.702 0-3.082 1.38-3.082 3.082s1.38 3.082 3.082 3.082 3.082-1.38 3.082-3.082-1.379-3.082-3.082-3.082z"/><path d="m399.354 250.403c-1.702 0-3.082 1.38-3.082 3.082s1.38 3.082 3.082 3.082 3.082-1.38 3.082-3.082-1.38-3.082-3.082-3.082z"/><path d="m389.045 260.712c-1.702 0-3.082 1.38-3.082 3.082s1.38 3.082 3.082 3.082 3.082-1.38 3.082-3.082-1.379-3.082-3.082-3.082z"/><path d="m399.354 270.273c-1.702 0-3.082 1.38-3.082 3.081 0 1.703 1.38 3.083 3.082 3.083s3.082-1.38 3.082-3.083c0-1.701-1.38-3.081-3.082-3.081z"/><path d="m389.045 280.582c-1.702 0-3.082 1.38-3.082 3.082s1.38 3.082 3.082 3.082 3.082-1.38 3.082-3.082-1.379-3.082-3.082-3.082z"/><path d="m399.354 290.143c-1.702 0-3.082 1.38-3.082 3.082s1.38 3.082 3.082 3.082 3.082-1.38 3.082-3.082c0-1.703-1.38-3.082-3.082-3.082z"/><path d="m389.045 300.451c-1.702 0-3.082 1.38-3.082 3.082s1.38 3.082 3.082 3.082 3.082-1.38 3.082-3.082-1.379-3.082-3.082-3.082z"/><path d="m399.354 310.013c-1.702 0-3.082 1.38-3.082 3.082s1.38 3.082 3.082 3.082 3.082-1.38 3.082-3.082-1.38-3.082-3.082-3.082z"/><path d="m389.045 320.321c-1.702 0-3.082 1.38-3.082 3.082s1.38 3.082 3.082 3.082 3.082-1.38 3.082-3.082-1.379-3.082-3.082-3.082z"/><path d="m399.354 329.882c-1.702 0-3.082 1.38-3.082 3.082s1.38 3.082 3.082 3.082 3.082-1.38 3.082-3.082-1.38-3.082-3.082-3.082z"/><path d="m389.045 419.669c-1.702 0-3.082 1.38-3.082 3.082s1.38 3.082 3.082 3.082 3.082-1.38 3.082-3.082-1.379-3.082-3.082-3.082z"/><path d="m399.354 429.23c-1.702 0-3.082 1.38-3.082 3.082s1.38 3.082 3.082 3.082 3.082-1.38 3.082-3.082-1.38-3.082-3.082-3.082z"/><path d="m389.045 439.539c-1.702 0-3.082 1.38-3.082 3.082s1.38 3.082 3.082 3.082 3.082-1.38 3.082-3.082-1.379-3.082-3.082-3.082z"/><path d="m399.354 449.1c-1.702 0-3.082 1.38-3.082 3.082s1.38 3.082 3.082 3.082 3.082-1.38 3.082-3.082c0-1.703-1.38-3.082-3.082-3.082z"/><path d="m389.045 459.408c-1.702 0-3.082 1.38-3.082 3.082s1.38 3.082 3.082 3.082 3.082-1.38 3.082-3.082-1.379-3.082-3.082-3.082z"/><path d="m399.354 468.97c-1.702 0-3.082 1.38-3.082 3.082s1.38 3.082 3.082 3.082 3.082-1.38 3.082-3.082-1.38-3.082-3.082-3.082z"/><path d="m389.045 479.278c-1.702 0-3.082 1.38-3.082 3.082s1.38 3.082 3.082 3.082 3.082-1.38 3.082-3.082-1.379-3.082-3.082-3.082z"/><path d="m379.484 270.273c-1.702 0-3.082 1.38-3.082 3.081 0 1.703 1.38 3.083 3.082 3.083s3.082-1.38 3.082-3.083c.001-1.701-1.38-3.081-3.082-3.081z"/><path d="m379.484 250.441c-1.702 0-3.082 1.38-3.082 3.081 0 1.703 1.38 3.083 3.082 3.083s3.082-1.38 3.082-3.083c.001-1.701-1.38-3.081-3.082-3.081z"/><path d="m379.484 230.609c-1.702 0-3.082 1.38-3.082 3.081 0 1.703 1.38 3.083 3.082 3.083s3.082-1.38 3.082-3.083c.001-1.702-1.38-3.081-3.082-3.081z"/><path d="m379.484 290.143c-1.702 0-3.082 1.38-3.082 3.082s1.38 3.082 3.082 3.082 3.082-1.38 3.082-3.082c.001-1.703-1.38-3.082-3.082-3.082z"/><path d="m379.484 310.013c-1.702 0-3.082 1.38-3.082 3.082s1.38 3.082 3.082 3.082 3.082-1.38 3.082-3.082c.001-1.702-1.38-3.082-3.082-3.082z"/><path d="m379.484 329.882c-1.702 0-3.082 1.38-3.082 3.082s1.38 3.082 3.082 3.082 3.082-1.38 3.082-3.082c.001-1.702-1.38-3.082-3.082-3.082z"/><path d="m369.176 419.669c-1.702 0-3.082 1.38-3.082 3.082s1.38 3.082 3.082 3.082 3.082-1.38 3.082-3.082-1.38-3.082-3.082-3.082z"/><path d="m359.661 429.317c-1.702 0-3.082 1.38-3.082 3.082s1.38 3.082 3.082 3.082 3.082-1.38 3.082-3.082-1.379-3.082-3.082-3.082z"/><path d="m379.484 429.23c-1.702 0-3.082 1.38-3.082 3.082s1.38 3.082 3.082 3.082 3.082-1.38 3.082-3.082c.001-1.702-1.38-3.082-3.082-3.082z"/><path d="m369.176 439.539c-1.702 0-3.082 1.38-3.082 3.082s1.38 3.082 3.082 3.082 3.082-1.38 3.082-3.082-1.38-3.082-3.082-3.082z"/><path d="m379.484 449.1c-1.702 0-3.082 1.38-3.082 3.082s1.38 3.082 3.082 3.082 3.082-1.38 3.082-3.082c.001-1.703-1.38-3.082-3.082-3.082z"/><path d="m369.176 459.408c-1.702 0-3.082 1.38-3.082 3.082s1.38 3.082 3.082 3.082 3.082-1.38 3.082-3.082-1.38-3.082-3.082-3.082z"/><path d="m379.484 468.97c-1.702 0-3.082 1.38-3.082 3.082s1.38 3.082 3.082 3.082 3.082-1.38 3.082-3.082c.001-1.702-1.38-3.082-3.082-3.082z"/><path d="m369.176 479.278c-1.702 0-3.082 1.38-3.082 3.082s1.38 3.082 3.082 3.082 3.082-1.38 3.082-3.082-1.38-3.082-3.082-3.082z"/><path d="m379.484 488.839c-1.702 0-3.082 1.38-3.082 3.082s1.38 3.082 3.082 3.082 3.082-1.38 3.082-3.082c.001-1.702-1.38-3.082-3.082-3.082z"/><path d="m369.176 505.311c1.702 0 3.082-1.379 3.082-3.082 0-1.702-1.38-3.082-3.082-3.082s-3.082 1.38-3.082 3.082c0 1.704 1.379 3.082 3.082 3.082z"/><path d="m359.615 449.1c-1.702 0-3.082 1.38-3.082 3.082s1.38 3.082 3.082 3.082 3.082-1.38 3.082-3.082c0-1.703-1.38-3.082-3.082-3.082z"/><path d="m349.306 459.408c-1.702 0-3.082 1.38-3.082 3.082s1.38 3.082 3.082 3.082 3.082-1.38 3.082-3.082-1.38-3.082-3.082-3.082z"/><path d="m359.615 468.97c-1.702 0-3.082 1.38-3.082 3.082s1.38 3.082 3.082 3.082 3.082-1.38 3.082-3.082-1.38-3.082-3.082-3.082z"/><path d="m349.306 479.278c-1.702 0-3.082 1.38-3.082 3.082s1.38 3.082 3.082 3.082 3.082-1.38 3.082-3.082-1.38-3.082-3.082-3.082z"/><path d="m359.615 488.839c-1.702 0-3.082 1.38-3.082 3.082s1.38 3.082 3.082 3.082 3.082-1.38 3.082-3.082-1.38-3.082-3.082-3.082z"/><circle cx="349.306" cy="502.229" r="3.082"/><path d="m339.745 468.97c-1.702 0-3.082 1.38-3.082 3.082s1.38 3.082 3.082 3.082 3.082-1.38 3.082-3.082-1.38-3.082-3.082-3.082z"/><path d="m329.436 479.278c-1.702 0-3.082 1.38-3.082 3.082s1.38 3.082 3.082 3.082 3.082-1.38 3.082-3.082-1.38-3.082-3.082-3.082z"/><circle cx="339.745" cy="491.921" r="3.082"/><path d="m329.436 499.147c-1.702 0-3.082 1.38-3.082 3.082 0 1.703 1.38 3.082 3.082 3.082s3.082-1.379 3.082-3.082c0-1.702-1.38-3.082-3.082-3.082z"/><path d="m319.875 468.97c-1.702 0-3.082 1.38-3.082 3.082s1.38 3.082 3.082 3.082 3.082-1.38 3.082-3.082-1.379-3.082-3.082-3.082z"/><path d="m309.567 479.278c-1.702 0-3.082 1.38-3.082 3.082s1.38 3.082 3.082 3.082 3.082-1.38 3.082-3.082-1.38-3.082-3.082-3.082z"/><circle cx="319.875" cy="491.921" r="3.082"/><path d="m309.567 499.147c-1.702 0-3.082 1.38-3.082 3.082 0 1.703 1.38 3.082 3.082 3.082s3.082-1.379 3.082-3.082c0-1.702-1.38-3.082-3.082-3.082z"/><path d="m300.006 468.97c-1.702 0-3.082 1.38-3.082 3.082s1.38 3.082 3.082 3.082 3.082-1.38 3.082-3.082-1.38-3.082-3.082-3.082z"/><path d="m289.697 479.278c-1.702 0-3.082 1.38-3.082 3.082s1.38 3.082 3.082 3.082 3.082-1.38 3.082-3.082-1.38-3.082-3.082-3.082z"/><path d="m300.006 488.839c-1.702 0-3.082 1.38-3.082 3.082s1.38 3.082 3.082 3.082 3.082-1.38 3.082-3.082-1.38-3.082-3.082-3.082z"/><circle cx="289.697" cy="502.229" r="3.082"/><path d="m280.136 468.97c-1.702 0-3.082 1.38-3.082 3.082s1.38 3.082 3.082 3.082 3.082-1.38 3.082-3.082-1.38-3.082-3.082-3.082z"/><path d="m269.827 479.278c-1.702 0-3.082 1.38-3.082 3.082s1.38 3.082 3.082 3.082 3.082-1.38 3.082-3.082-1.379-3.082-3.082-3.082z"/><path d="m280.136 488.839c-1.702 0-3.082 1.38-3.082 3.082s1.38 3.082 3.082 3.082 3.082-1.38 3.082-3.082-1.38-3.082-3.082-3.082z"/><circle cx="269.827" cy="502.229" r="3.082"/><path d="m260.267 468.97c-1.702 0-3.082 1.38-3.082 3.082s1.38 3.082 3.082 3.082 3.082-1.38 3.082-3.082-1.38-3.082-3.082-3.082z"/><path d="m249.958 479.278c-1.702 0-3.082 1.38-3.082 3.082s1.38 3.082 3.082 3.082 3.082-1.38 3.082-3.082-1.38-3.082-3.082-3.082z"/><circle cx="260.267" cy="491.921" r="3.082"/><path d="m249.958 499.147c-1.702 0-3.082 1.38-3.082 3.082 0 1.703 1.38 3.082 3.082 3.082s3.082-1.379 3.082-3.082c0-1.702-1.38-3.082-3.082-3.082z"/><path d="m240.397 468.97c-1.702 0-3.082 1.38-3.082 3.082s1.38 3.082 3.082 3.082 3.082-1.38 3.082-3.082-1.38-3.082-3.082-3.082z"/><path d="m230.088 479.278c-1.702 0-3.082 1.38-3.082 3.082s1.38 3.082 3.082 3.082 3.082-1.38 3.082-3.082-1.38-3.082-3.082-3.082z"/><path d="m240.397 488.839c-1.702 0-3.082 1.38-3.082 3.082s1.38 3.082 3.082 3.082 3.082-1.38 3.082-3.082-1.38-3.082-3.082-3.082z"/><path d="m230.088 499.147c-1.702 0-3.082 1.38-3.082 3.082 0 1.703 1.38 3.082 3.082 3.082s3.082-1.379 3.082-3.082c0-1.702-1.38-3.082-3.082-3.082z"/><path d="m220.527 468.97c-1.702 0-3.082 1.38-3.082 3.082s1.38 3.082 3.082 3.082 3.082-1.38 3.082-3.082-1.379-3.082-3.082-3.082z"/><path d="m210.219 479.278c-1.702 0-3.082 1.38-3.082 3.082s1.38 3.082 3.082 3.082 3.082-1.38 3.082-3.082-1.38-3.082-3.082-3.082z"/><path d="m220.527 488.839c-1.702 0-3.082 1.38-3.082 3.082s1.38 3.082 3.082 3.082 3.082-1.38 3.082-3.082-1.379-3.082-3.082-3.082z"/><circle cx="210.219" cy="502.229" r="3.082"/><path d="m200.658 468.97c-1.702 0-3.082 1.38-3.082 3.082s1.38 3.082 3.082 3.082 3.082-1.38 3.082-3.082-1.38-3.082-3.082-3.082z"/><path d="m190.349 479.278c-1.702 0-3.082 1.38-3.082 3.082s1.38 3.082 3.082 3.082 3.082-1.38 3.082-3.082-1.38-3.082-3.082-3.082z"/><circle cx="200.658" cy="491.921" r="3.082"/><path d="m190.349 499.147c-1.702 0-3.082 1.38-3.082 3.082 0 1.703 1.38 3.082 3.082 3.082s3.082-1.379 3.082-3.082c0-1.702-1.38-3.082-3.082-3.082z"/><path d="m180.788 468.97c-1.702 0-3.082 1.38-3.082 3.082s1.38 3.082 3.082 3.082 3.082-1.38 3.082-3.082-1.38-3.082-3.082-3.082z"/><path d="m170.479 479.278c-1.702 0-3.082 1.38-3.082 3.082s1.38 3.082 3.082 3.082 3.082-1.38 3.082-3.082-1.38-3.082-3.082-3.082z"/><circle cx="180.788" cy="491.921" r="3.082"/><path d="m170.479 499.147c-1.702 0-3.082 1.38-3.082 3.082 0 1.703 1.38 3.082 3.082 3.082s3.082-1.379 3.082-3.082c0-1.702-1.38-3.082-3.082-3.082z"/><path d="m160.919 468.97c-1.702 0-3.082 1.38-3.082 3.082s1.38 3.082 3.082 3.082 3.082-1.38 3.082-3.082-1.38-3.082-3.082-3.082z"/><path d="m147.528 482.36c0 1.702 1.38 3.082 3.082 3.082s3.082-1.38 3.082-3.082-1.38-3.082-3.082-3.082-3.082 1.38-3.082 3.082z"/><path d="m160.919 488.839c-1.702 0-3.082 1.38-3.082 3.082s1.38 3.082 3.082 3.082 3.082-1.38 3.082-3.082-1.38-3.082-3.082-3.082z"/><circle cx="150.61" cy="502.229" r="3.082"/><path d="m141.049 468.97c-1.702 0-3.082 1.38-3.082 3.082s1.38 3.082 3.082 3.082 3.082-1.38 3.082-3.082-1.38-3.082-3.082-3.082z"/><path d="m130.74 485.442c1.702 0 3.082-1.38 3.082-3.082s-1.38-3.082-3.082-3.082-3.082 1.38-3.082 3.082 1.38 3.082 3.082 3.082z"/><path d="m144.131 491.921c0-1.702-1.38-3.082-3.082-3.082s-3.082 1.38-3.082 3.082 1.38 3.082 3.082 3.082 3.082-1.38 3.082-3.082z"/><path d="m133.822 502.229c0-1.702-1.38-3.082-3.082-3.082s-3.082 1.38-3.082 3.082c0 .297.055.578.133.851 1.628.561 3.297 1.037 4.995 1.438.631-.563 1.036-1.375 1.036-2.289z"/><path d="m121.179 475.134c1.702 0 3.082-1.38 3.082-3.082s-1.38-3.082-3.082-3.082-3.082 1.38-3.082 3.082 1.38 3.082 3.082 3.082z"/><path d="m110.87 485.442c1.702 0 3.082-1.38 3.082-3.082s-1.38-3.082-3.082-3.082-3.082 1.38-3.082 3.082 1.38 3.082 3.082 3.082z"/><circle cx="121.179" cy="491.921" r="3.082"/><path d="m104.392 472.052c0-1.702-1.38-3.082-3.082-3.082s-3.082 1.38-3.082 3.082 1.38 3.082 3.082 3.082 3.082-1.38 3.082-3.082z"/></g><path d="m419.491 415.571-328.666-.963-8.668-76.092h346.447z" fill="#f9fbfc"/><g fill="#eaa895"><path d="m408.915 346.354c1.702 0 3.082-1.38 3.082-3.082s-1.38-3.082-3.082-3.082-3.082 1.38-3.082 3.082c0 1.703 1.38 3.082 3.082 3.082z"/><path d="m419.224 349.752c-1.702 0-3.082 1.38-3.082 3.082s1.38 3.082 3.082 3.082 3.082-1.38 3.082-3.082-1.38-3.082-3.082-3.082z"/><path d="m408.915 366.225c1.702 0 3.082-1.38 3.082-3.082s-1.38-3.082-3.082-3.082-3.082 1.38-3.082 3.082 1.38 3.082 3.082 3.082z"/><path d="m419.224 375.785c1.702 0 3.082-1.38 3.082-3.082s-1.38-3.082-3.082-3.082-3.082 1.38-3.082 3.082 1.38 3.082 3.082 3.082z"/><path d="m408.915 386.094c1.702 0 3.082-1.38 3.082-3.082s-1.38-3.082-3.082-3.082-3.082 1.38-3.082 3.082 1.38 3.082 3.082 3.082z"/><path d="m419.224 389.491c-1.702 0-3.082 1.38-3.082 3.082s1.38 3.082 3.082 3.082c1.287 0 2.388-.791 2.849-1.911l.19-1.605c-.213-1.494-1.485-2.648-3.039-2.648z"/><path d="m408.915 405.964c1.702 0 3.082-1.38 3.082-3.082s-1.38-3.082-3.082-3.082-3.082 1.38-3.082 3.082 1.38 3.082 3.082 3.082z"/><path d="m389.045 346.354c1.702 0 3.082-1.38 3.082-3.082s-1.38-3.082-3.082-3.082-3.082 1.38-3.082 3.082c0 1.703 1.38 3.082 3.082 3.082z"/><path d="m399.354 355.916c1.702 0 3.082-1.38 3.082-3.082s-1.38-3.082-3.082-3.082-3.082 1.38-3.082 3.082 1.38 3.082 3.082 3.082z"/><path d="m389.045 366.225c1.702 0 3.082-1.38 3.082-3.082s-1.38-3.082-3.082-3.082-3.082 1.38-3.082 3.082 1.38 3.082 3.082 3.082z"/><path d="m399.354 375.785c1.702 0 3.082-1.38 3.082-3.082s-1.38-3.082-3.082-3.082-3.082 1.38-3.082 3.082 1.38 3.082 3.082 3.082z"/><path d="m389.045 386.094c1.702 0 3.082-1.38 3.082-3.082s-1.38-3.082-3.082-3.082-3.082 1.38-3.082 3.082 1.38 3.082 3.082 3.082z"/><path d="m399.354 395.655c1.702 0 3.082-1.38 3.082-3.082s-1.38-3.082-3.082-3.082-3.082 1.38-3.082 3.082 1.38 3.082 3.082 3.082z"/><path d="m389.045 405.964c1.702 0 3.082-1.38 3.082-3.082s-1.38-3.082-3.082-3.082-3.082 1.38-3.082 3.082 1.38 3.082 3.082 3.082z"/><path d="m402.436 412.442c0-1.702-1.38-3.082-3.082-3.082s-3.082 1.38-3.082 3.082c0 1.658 1.312 3 2.953 3.069l.25.001c1.645-.065 2.961-1.409 2.961-3.07z"/><path d="m379.484 355.916c1.702 0 3.082-1.38 3.082-3.082s-1.38-3.082-3.082-3.082-3.082 1.38-3.082 3.082 1.38 3.082 3.082 3.082z"/><path d="m369.166 346.268c1.702 0 3.082-1.38 3.082-3.082s-1.38-3.082-3.082-3.082-3.082 1.38-3.082 3.082 1.38 3.082 3.082 3.082z"/><path d="m369.166 366.1c1.702 0 3.082-1.38 3.082-3.082s-1.38-3.082-3.082-3.082-3.082 1.38-3.082 3.082 1.38 3.082 3.082 3.082z"/><path d="m379.484 375.785c1.702 0 3.082-1.38 3.082-3.082s-1.38-3.082-3.082-3.082-3.082 1.38-3.082 3.082 1.38 3.082 3.082 3.082z"/><path d="m369.176 379.93c-1.702 0-3.082 1.38-3.082 3.082s1.38 3.082 3.082 3.082 3.082-1.38 3.082-3.082-1.38-3.082-3.082-3.082z"/><path d="m379.484 395.655c1.702 0 3.082-1.38 3.082-3.082s-1.38-3.082-3.082-3.082-3.082 1.38-3.082 3.082 1.38 3.082 3.082 3.082z"/><path d="m369.176 399.8c-1.702 0-3.082 1.38-3.082 3.082s1.38 3.082 3.082 3.082 3.082-1.38 3.082-3.082-1.38-3.082-3.082-3.082z"/><path d="m382.567 412.442c0-1.702-1.38-3.082-3.082-3.082s-3.082 1.38-3.082 3.082c0 1.477 1.041 2.709 2.428 3.01l1.296.004c1.393-.296 2.44-1.531 2.44-3.014z"/></g><path d="m442.543 139.336c-3.455-3.802-7.987-6.451-12.954-7.684-3.121-5.753-6.893-11.341-11.299-16.725-6.91-41.338-41.803-73.317-84.478-75.734-16.432-23.662-43.79-39.193-74.717-39.193-39.784 0-73.661 25.693-85.962 61.351-19.491 5.912-37.465 14.039-53.157 24.199-21.41 13.863-37.065 30.516-46.248 48.734-2.35 1.332-4.491 3.03-6.329 5.052-4.75 5.228-6.999 11.931-6.333 18.875l29.089 303.382c2.642 27.563 26.195 48.349 54.787 48.349h220.058c28.592 0 52.147-20.785 54.788-48.349l29.088-303.382c.666-6.944-1.583-13.647-6.333-18.875zm-23.01-8.974c.105.169.215.336.32.505h-.33c.002-.169.006-.337.01-.505zm-7.992-.395c0 .302-.015.6-.018.9h-26.766c.005-.3.015-.599.015-.9 0-30.964-25.19-56.155-56.154-56.155s-56.155 25.191-56.155 56.155 25.191 56.154 56.155 56.154c6.45 0 12.644-1.105 18.417-3.115v15.736c0 4.192-.383 8.298-1.084 12.301-4.706 1.008-9.555 1.625-14.517 1.794-15.997-21.001-40.901-34.864-69.036-35.874.109-1.812.183-3.634.183-5.473 0-19.223-6.001-37.067-16.222-51.771 5.066-40.903 40.006-72.678 82.259-72.678 45.724.001 82.923 37.201 82.923 82.926zm-131.079 0c0-18.812 10.848-35.127 26.612-43.048.113 1.32.176 2.656.176 4.006 0 18.809-10.847 35.119-26.608 43.04-.11-1.32-.18-2.651-.18-3.998zm34.787-39.042c0-2.399-.164-4.76-.46-7.08 4.383-1.316 9.023-2.033 13.829-2.033 4.532 0 8.915.643 13.076 1.819.213 2.403.327 4.835.327 7.294 0 32.525-18.831 60.723-46.155 74.299-6.599-6.134-11.483-14.088-13.834-23.06 19.557-8.789 33.217-28.443 33.217-51.239zm34.771 0c0-1.387-.044-2.763-.108-4.134 15.899 7.873 26.86 24.265 26.86 43.176 0 .303-.022.6-.027.9h-3.94c-14.209 0-25.77 11.226-25.77 25.023v18.544c-5.678 2.363-11.893 3.686-18.417 3.686-9.479 0-18.32-2.765-25.78-7.513 28.098-15.486 47.182-45.393 47.182-79.682zm-6.124 128.66c-.876 2.86-1.905 5.657-3.117 8.363-1.249-2.548-2.621-5.025-4.094-7.434 2.432-.214 4.836-.525 7.211-.929zm-105.347 13.372c0 .052.004.102.004.153 0 15.016-6.924 28.427-17.731 37.263-3.382-.825-6.678-1.86-9.867-3.101.061-5.296.992-10.383 2.637-15.14 9.403-4.914 17.838-11.429 24.957-19.175zm-16.858 4.602c3.106-3.833 6.783-7.185 10.908-9.915-3.333 3.617-6.984 6.935-10.908 9.915zm24.862-4.449c0-3.1-.28-6.131-.77-9.093.702-.988 1.392-1.986 2.055-3.003 3.613-.87 7.38-1.342 11.257-1.342 4.652 0 9.15.667 13.407 1.903.529 3.772.821 7.618.821 11.534 0 14.307-3.663 27.764-10.071 39.52h-23.689c-2.993 0-5.939-.188-8.842-.513 9.785-10.108 15.832-23.857 15.832-39.006zm34.769 0c0-2.758-.129-5.485-.372-8.181 14.4 7.373 24.618 21.795 26.09 38.685-10.376 5.471-22.2 8.69-34.765 8.986 5.789-11.951 9.047-25.344 9.047-39.49zm-22.227-21.437c-29.583 0-53.879 22.998-55.989 52.052-9.143-4.785-17.153-11.323-23.581-19.125 10.072-34.448 41.911-59.696 79.57-59.696 34.793 0 64.616 21.554 76.902 51.997-5.491 8.741-12.819 16.288-21.449 22.175-4.217-26.819-27.468-47.403-55.453-47.403zm-87.439 7.972c-1.933 0-3.839-.118-5.714-.341-1.969-6.529-3.034-13.427-3.034-20.561v-5.122c7.801-5.451 17.273-8.664 27.49-8.664 7.768 0 15.099 1.871 21.603 5.152-11.682 7.105-21.652 16.755-29.11 28.194-3.606.871-7.365 1.342-11.235 1.342zm6.075 7.657c-1.496 2.991-2.836 6.073-4 9.24-1.78-2.87-3.36-5.867-4.731-8.97.881.042 1.765.072 2.656.072 2.054.001 4.079-.124 6.075-.342zm-6.075-138.736c45.725 0 82.924 37.199 82.924 82.924 0 1.868-.09 3.714-.216 5.55-9.725.501-19.048 2.537-27.736 5.871.77-3.688 1.182-7.507 1.182-11.421 0-30.964-25.19-56.154-56.154-56.154-14.996 0-28.628 5.918-38.708 15.531h-33.551c14.237-25.224 41.286-42.301 72.259-42.301zm110.981-36.995c-9.922-1.043-20.038-1.584-30.282-1.584-6.606 0-13.154.239-19.636.678 7.582-4.984 16.643-7.896 26.375-7.896 9.484 0 18.325 2.772 25.785 7.527-.753.416-1.501.84-2.242 1.275zm-60.048 8.002c9.686-1.036 19.627-1.586 29.766-1.586 6.728 0 13.366.247 19.903.711-16.339 12.955-28.15 31.387-32.599 52.508-7.987-8.999-17.73-16.402-28.683-21.68.328-11.42 4.646-21.851 11.613-29.953zm-28.499 82.698c-4.217-5.335-7.802-11.189-10.623-17.463 11.671 2.955 21.659 10.177 28.193 19.908-5.671-1.364-11.546-2.198-17.57-2.445zm-22.434-18.935c.856 0 1.704.037 2.55.081 2.593 6.756 5.966 13.123 10.013 18.996-7.995.541-15.714 2.104-23.015 4.585-2.862-7.271-9.105-12.933-16.868-15.13 7.768-5.375 17.18-8.532 27.32-8.532zm18.742 26.85c9.197 0 18.035 1.536 26.308 4.315 2 5.287 3.104 11.011 3.104 16.989 0 4.427-.607 8.713-1.732 12.787-8.175-4.654-17.62-7.321-27.68-7.321-9.984 0-19.359 2.631-27.49 7.22v-28.285c0-.331-.029-.655-.042-.983 8.619-3.049 17.882-4.722 27.532-4.722zm68.697-142.186c26.163 0 49.517 12.192 64.724 31.181-10.854.567-21.205 3.048-30.73 7.109-9.444-7.214-21.219-11.521-33.994-11.521-29.37 0-53.529 22.67-55.939 51.428-8.277-3.067-17.118-4.964-26.321-5.483 5.051-40.921 39.996-72.714 82.26-72.714zm-88.629 62.606c-.75 3.271-1.3 6.617-1.685 10.012-34.323 1.072-63.901 21.261-78.441 50.249h-3.615c-.65 0-1.297.032-1.941.08 16.168-26.135 46.863-47.612 85.682-60.341zm270.447 86.841-29.088 303.382c-2.247 23.438-22.378 41.112-46.825 41.112h-220.059c-24.447 0-44.577-17.675-46.824-41.112l-29.089-303.382c-.447-4.672 1.076-9.192 4.291-12.73 3.378-3.718 8.264-5.85 13.405-5.85h50.413c9.799 0 17.771 7.637 17.771 17.023v42.852c0 45.153 37.976 81.888 84.654 81.888h30.817c46.679 0 84.654-36.734 84.654-81.888v-42.852c0-9.387 7.972-17.023 17.77-17.023h50.413c5.142 0 10.027 2.132 13.405 5.85 3.216 3.538 4.739 8.058 4.292 12.73z" fill="#31373d"/></g></svg>