<svg id="Capa_1" enable-background="new 0 0 510.875 510.875" height="512" viewBox="0 0 510.875 510.875" width="512" xmlns="http://www.w3.org/2000/svg"><g><path d="m339.292 119.376h-220.054c-12.99 0-23.558 9.752-23.558 21.739v8.691c0 9.605 6.789 17.77 16.17 20.638l-4.254.01 17.115 318.56c.617 10.833 10.362 19.32 22.186 19.32h165.392c11.779 0 21.523-8.452 22.182-19.244l16.573-319.182-2.811.006c8.567-3.256 14.616-11.041 14.616-20.107v-8.691c.001-11.988-10.567-21.74-23.557-21.74z" fill="#f9fbfc"/><g fill="#eaa895"><path d="m341.12 177.221c-1.686 0-3.052 1.367-3.052 3.052 0 1.686 1.367 3.052 3.052 3.052 1.686 0 3.052-1.366 3.052-3.052s-1.367-3.052-3.052-3.052z"/><path d="m330.91 187.43c-1.686 0-3.052 1.367-3.052 3.053 0 1.685 1.367 3.052 3.052 3.052 1.686 0 3.052-1.367 3.052-3.052.001-1.686-1.366-3.053-3.052-3.053z"/><path d="m341.12 196.899c-1.686 0-3.052 1.367-3.052 3.052 0 1.686 1.367 3.052 3.052 3.052 1.686 0 3.052-1.366 3.052-3.052s-1.367-3.052-3.052-3.052z"/><path d="m330.91 207.108c-1.686 0-3.052 1.366-3.052 3.052s1.367 3.052 3.052 3.052c1.686 0 3.052-1.367 3.052-3.052.001-1.686-1.366-3.052-3.052-3.052z"/><path d="m341.12 216.576c-1.686 0-3.052 1.367-3.052 3.052 0 1.686 1.367 3.052 3.052 3.052 1.686 0 3.052-1.367 3.052-3.052s-1.367-3.052-3.052-3.052z"/><path d="m330.91 226.785c-1.686 0-3.052 1.367-3.052 3.052s1.367 3.052 3.052 3.052c1.686 0 3.052-1.367 3.052-3.052s-1.366-3.052-3.052-3.052z"/><path d="m341.12 236.254c-1.686 0-3.052 1.366-3.052 3.052s1.367 3.053 3.052 3.053c1.686 0 3.052-1.367 3.052-3.053s-1.367-3.052-3.052-3.052z"/><path d="m330.91 246.463c-1.686 0-3.052 1.367-3.052 3.053s1.367 3.052 3.052 3.052c1.686 0 3.052-1.366 3.052-3.052.001-1.686-1.366-3.053-3.052-3.053z"/><path d="m341.12 255.932c-1.686 0-3.052 1.367-3.052 3.052 0 1.686 1.367 3.052 3.052 3.052 1.686 0 3.052-1.367 3.052-3.052s-1.367-3.052-3.052-3.052z"/><path d="m330.91 266.141c-1.686 0-3.052 1.367-3.052 3.052 0 1.686 1.367 3.052 3.052 3.052 1.686 0 3.052-1.366 3.052-3.052.001-1.685-1.366-3.052-3.052-3.052z"/><path d="m341.12 275.609c-1.686 0-3.052 1.367-3.052 3.052 0 1.686 1.367 3.052 3.052 3.052 1.686 0 3.052-1.366 3.052-3.052 0-1.685-1.367-3.052-3.052-3.052z"/><path d="m330.91 285.819c-1.686 0-3.052 1.366-3.052 3.052s1.367 3.052 3.052 3.052c1.686 0 3.052-1.366 3.052-3.052.001-1.686-1.366-3.052-3.052-3.052z"/><path d="m341.12 295.287c-1.686 0-3.052 1.366-3.052 3.052s1.367 3.052 3.052 3.052c1.686 0 3.052-1.367 3.052-3.052s-1.367-3.052-3.052-3.052z"/><path d="m330.91 305.497c-1.686 0-3.052 1.366-3.052 3.052 0 1.685 1.367 3.052 3.052 3.052 1.686 0 3.052-1.366 3.052-3.052.001-1.686-1.366-3.052-3.052-3.052z"/><path d="m341.12 314.965c-1.686 0-3.052 1.366-3.052 3.052s1.367 3.052 3.052 3.052c.789 0 1.5-.307 2.042-.798l.259-4.24c-.56-.647-1.378-1.066-2.301-1.066z"/><path d="m330.91 325.174c-1.686 0-3.052 1.366-3.052 3.052 0 1.685 1.367 3.052 3.052 3.052 1.686 0 3.052-1.366 3.052-3.052.001-1.685-1.366-3.052-3.052-3.052z"/><path d="m330.91 344.852c-1.686 0-3.052 1.366-3.052 3.052s1.367 3.053 3.052 3.053c1.686 0 3.052-1.367 3.052-3.053.001-1.686-1.366-3.052-3.052-3.052z"/><path d="m330.91 364.53c-1.686 0-3.052 1.367-3.052 3.052 0 1.686 1.367 3.052 3.052 3.052 1.686 0 3.052-1.367 3.052-3.052.001-1.685-1.366-3.052-3.052-3.052z"/><path d="m330.91 384.207c-1.686 0-3.052 1.367-3.052 3.052 0 1.686 1.367 3.052 3.052 3.052 1.686 0 3.052-1.366 3.052-3.052.001-1.685-1.366-3.052-3.052-3.052z"/><path d="m330.91 403.885c-1.686 0-3.052 1.367-3.052 3.052 0 1.686 1.367 3.052 3.052 3.052 1.686 0 3.052-1.366 3.052-3.052.001-1.685-1.366-3.052-3.052-3.052z"/><path d="m330.91 423.563c-1.686 0-3.052 1.366-3.052 3.052s1.367 3.052 3.052 3.052c1.686 0 3.052-1.366 3.052-3.052.001-1.685-1.366-3.052-3.052-3.052z"/><path d="m330.91 443.241c-1.686 0-3.052 1.366-3.052 3.052 0 1.685 1.367 3.052 3.052 3.052 1.686 0 3.052-1.366 3.052-3.052.001-1.686-1.366-3.052-3.052-3.052z"/><path d="m330.91 462.918c-1.686 0-3.052 1.366-3.052 3.052 0 1.685 1.367 3.052 3.052 3.052 1.686 0 3.052-1.366 3.052-3.052.001-1.685-1.366-3.052-3.052-3.052z"/><path d="m330.91 482.596c-1.686 0-3.052 1.367-3.052 3.052 0 1.686 1.367 3.053 3.052 3.053.773 0 1.471-.297 2.009-.771l.263-4.302c-.559-.628-1.364-1.032-2.272-1.032z"/><path d="m321.442 177.221c-1.686 0-3.052 1.367-3.052 3.052 0 1.686 1.367 3.052 3.052 3.052s3.052-1.366 3.052-3.052-1.366-3.052-3.052-3.052z"/><path d="m311.233 193.534c1.686 0 3.052-1.367 3.052-3.052 0-1.686-1.367-3.053-3.052-3.053-1.686 0-3.052 1.367-3.052 3.053-.001 1.686 1.366 3.052 3.052 3.052z"/><path d="m321.442 196.899c-1.686 0-3.052 1.367-3.052 3.052 0 1.686 1.367 3.052 3.052 3.052s3.052-1.366 3.052-3.052-1.366-3.052-3.052-3.052z"/><path d="m311.233 213.212c1.686 0 3.052-1.367 3.052-3.052 0-1.686-1.367-3.052-3.052-3.052-1.686 0-3.052 1.366-3.052 3.052-.001 1.686 1.366 3.052 3.052 3.052z"/><path d="m301.758 222.686c1.686 0 3.052-1.366 3.052-3.052s-1.367-3.052-3.052-3.052-3.052 1.366-3.052 3.052 1.367 3.052 3.052 3.052z"/><path d="m321.442 216.576c-1.686 0-3.052 1.367-3.052 3.052 0 1.686 1.367 3.052 3.052 3.052s3.052-1.367 3.052-3.052-1.366-3.052-3.052-3.052z"/><circle cx="311.233" cy="229.838" r="3.052"/><path d="m321.442 236.254c-1.686 0-3.052 1.366-3.052 3.052s1.367 3.053 3.052 3.053 3.052-1.367 3.052-3.053-1.366-3.052-3.052-3.052z"/><path d="m311.233 252.568c1.686 0 3.052-1.366 3.052-3.052s-1.367-3.053-3.052-3.053c-1.686 0-3.052 1.367-3.052 3.053-.001 1.686 1.366 3.052 3.052 3.052z"/><path d="m311.233 272.246c1.686 0 3.052-1.366 3.052-3.052 0-1.685-1.367-3.052-3.052-3.052-1.686 0-3.052 1.367-3.052 3.052-.001 1.685 1.366 3.052 3.052 3.052z"/><path d="m311.233 291.923c1.686 0 3.052-1.366 3.052-3.052s-1.367-3.052-3.052-3.052c-1.686 0-3.052 1.366-3.052 3.052-.001 1.686 1.366 3.052 3.052 3.052z"/><path d="m321.442 295.287c-1.686 0-3.052 1.366-3.052 3.052s1.367 3.052 3.052 3.052 3.052-1.367 3.052-3.052-1.366-3.052-3.052-3.052z"/><path d="m311.233 311.601c1.686 0 3.052-1.366 3.052-3.052s-1.367-3.052-3.052-3.052c-1.686 0-3.052 1.366-3.052 3.052-.001 1.686 1.366 3.052 3.052 3.052z"/><path d="m321.442 314.965c-1.686 0-3.052 1.366-3.052 3.052s1.367 3.052 3.052 3.052 3.052-1.366 3.052-3.052c0-1.685-1.366-3.052-3.052-3.052z"/><path d="m311.233 331.279c1.686 0 3.052-1.366 3.052-3.052s-1.367-3.052-3.052-3.052c-1.686 0-3.052 1.366-3.052 3.052-.001 1.685 1.366 3.052 3.052 3.052z"/><path d="m321.442 334.643c-1.686 0-3.052 1.367-3.052 3.052 0 1.686 1.367 3.052 3.052 3.052s3.052-1.366 3.052-3.052-1.366-3.052-3.052-3.052z"/><path d="m311.233 350.957c1.686 0 3.052-1.367 3.052-3.053s-1.367-3.052-3.052-3.052c-1.686 0-3.052 1.366-3.052 3.052-.001 1.686 1.366 3.053 3.052 3.053z"/><path d="m321.442 354.32c-1.686 0-3.052 1.367-3.052 3.052 0 1.686 1.367 3.052 3.052 3.052s3.052-1.366 3.052-3.052c0-1.685-1.366-3.052-3.052-3.052z"/><circle cx="311.233" cy="367.582" r="3.052"/><path d="m321.442 373.998c-1.686 0-3.052 1.366-3.052 3.052s1.367 3.052 3.052 3.052 3.052-1.367 3.052-3.052-1.366-3.052-3.052-3.052z"/><path d="m311.233 390.312c1.686 0 3.052-1.366 3.052-3.052 0-1.685-1.367-3.052-3.052-3.052-1.686 0-3.052 1.367-3.052 3.052-.001 1.686 1.366 3.052 3.052 3.052z"/><path d="m321.442 393.676c-1.686 0-3.052 1.367-3.052 3.052 0 1.686 1.367 3.052 3.052 3.052s3.052-1.366 3.052-3.052c0-1.685-1.366-3.052-3.052-3.052z"/><path d="m311.233 409.99c1.686 0 3.052-1.366 3.052-3.052 0-1.685-1.367-3.052-3.052-3.052-1.686 0-3.052 1.367-3.052 3.052-.001 1.685 1.366 3.052 3.052 3.052z"/><path d="m321.442 413.354c-1.686 0-3.052 1.366-3.052 3.052s1.367 3.052 3.052 3.052 3.052-1.367 3.052-3.052c0-1.686-1.366-3.052-3.052-3.052z"/><path d="m321.442 433.032c-1.686 0-3.052 1.366-3.052 3.052s1.367 3.053 3.052 3.053 3.052-1.367 3.052-3.053-1.366-3.052-3.052-3.052z"/><path d="m311.233 449.345c1.686 0 3.052-1.366 3.052-3.052s-1.367-3.052-3.052-3.052c-1.686 0-3.052 1.366-3.052 3.052-.001 1.686 1.366 3.052 3.052 3.052z"/><path d="m321.442 452.709c-1.686 0-3.052 1.366-3.052 3.052 0 1.685 1.367 3.052 3.052 3.052s3.052-1.367 3.052-3.052-1.366-3.052-3.052-3.052z"/><path d="m311.233 469.023c1.686 0 3.052-1.366 3.052-3.052s-1.367-3.052-3.052-3.052c-1.686 0-3.052 1.366-3.052 3.052-.001 1.685 1.366 3.052 3.052 3.052z"/><path d="m321.442 472.387c-1.686 0-3.052 1.367-3.052 3.053 0 1.685 1.367 3.052 3.052 3.052s3.052-1.366 3.052-3.052c0-1.687-1.366-3.053-3.052-3.053z"/><path d="m311.233 488.701c1.686 0 3.052-1.367 3.052-3.053s-1.367-3.052-3.052-3.052c-1.686 0-3.052 1.367-3.052 3.052-.001 1.687 1.366 3.053 3.052 3.053z"/><path d="m321.442 498.169c1.686 0 3.052-1.366 3.052-3.052s-1.367-3.052-3.052-3.052-3.052 1.367-3.052 3.052c0 1.686 1.366 3.052 3.052 3.052z"/><path d="m314.285 505.326c0-1.685-1.367-3.052-3.052-3.052-1.686 0-3.052 1.366-3.052 3.052 0 .56.161 1.077.424 1.527h5.257c.262-.45.423-.967.423-1.527z"/><path d="m301.764 275.609c-1.686 0-3.052 1.367-3.052 3.052 0 1.686 1.367 3.052 3.052 3.052 1.686 0 3.052-1.366 3.052-3.052 0-1.685-1.366-3.052-3.052-3.052z"/><path d="m301.764 295.287c-1.686 0-3.052 1.366-3.052 3.052s1.367 3.052 3.052 3.052c1.686 0 3.052-1.367 3.052-3.052s-1.366-3.052-3.052-3.052z"/><path d="m301.764 314.965c-1.686 0-3.052 1.366-3.052 3.052s1.367 3.052 3.052 3.052c1.686 0 3.052-1.366 3.052-3.052 0-1.685-1.366-3.052-3.052-3.052z"/><path d="m301.764 334.643c-1.686 0-3.052 1.367-3.052 3.052 0 1.686 1.367 3.052 3.052 3.052 1.686 0 3.052-1.366 3.052-3.052s-1.366-3.052-3.052-3.052z"/><path d="m301.764 354.32c-1.686 0-3.052 1.367-3.052 3.052 0 1.686 1.367 3.052 3.052 3.052 1.686 0 3.052-1.366 3.052-3.052 0-1.685-1.366-3.052-3.052-3.052z"/><path d="m301.764 373.998c-1.686 0-3.052 1.366-3.052 3.052s1.367 3.052 3.052 3.052c1.686 0 3.052-1.367 3.052-3.052s-1.366-3.052-3.052-3.052z"/><path d="m301.764 393.676c-1.686 0-3.052 1.367-3.052 3.052 0 1.686 1.367 3.052 3.052 3.052 1.686 0 3.052-1.366 3.052-3.052 0-1.685-1.366-3.052-3.052-3.052z"/><path d="m301.764 413.354c-1.686 0-3.052 1.366-3.052 3.052s1.367 3.052 3.052 3.052c1.686 0 3.052-1.367 3.052-3.052 0-1.686-1.366-3.052-3.052-3.052z"/><path d="m291.555 429.668c1.686 0 3.052-1.366 3.052-3.052s-1.367-3.052-3.052-3.052c-1.366 0-2.509.904-2.898 2.141l-.093 1.517c.281 1.395 1.513 2.446 2.991 2.446z"/><path d="m301.764 433.032c-1.686 0-3.052 1.366-3.052 3.052s1.367 3.053 3.052 3.053c1.686 0 3.052-1.367 3.052-3.053s-1.366-3.052-3.052-3.052z"/><path d="m291.555 443.241c-1.686 0-3.052 1.366-3.052 3.052 0 1.685 1.367 3.052 3.052 3.052 1.686 0 3.052-1.366 3.052-3.052s-1.366-3.052-3.052-3.052z"/><path d="m301.764 452.709c-1.686 0-3.052 1.366-3.052 3.052 0 1.685 1.367 3.052 3.052 3.052 1.686 0 3.052-1.367 3.052-3.052s-1.366-3.052-3.052-3.052z"/><path d="m291.555 462.918c-1.686 0-3.052 1.366-3.052 3.052 0 1.685 1.367 3.052 3.052 3.052 1.686 0 3.052-1.366 3.052-3.052 0-1.685-1.366-3.052-3.052-3.052z"/><path d="m301.764 472.387c-1.686 0-3.052 1.367-3.052 3.053 0 1.685 1.367 3.052 3.052 3.052 1.686 0 3.052-1.366 3.052-3.052 0-1.687-1.366-3.053-3.052-3.053z"/><path d="m291.555 482.596c-1.686 0-3.052 1.367-3.052 3.052 0 1.686 1.367 3.053 3.052 3.053 1.686 0 3.052-1.367 3.052-3.053 0-1.685-1.366-3.052-3.052-3.052z"/><path d="m301.764 492.065c-1.686 0-3.052 1.367-3.052 3.052 0 1.686 1.367 3.052 3.052 3.052 1.686 0 3.052-1.366 3.052-3.052s-1.366-3.052-3.052-3.052z"/><path d="m294.607 505.326c0-1.685-1.367-3.052-3.052-3.052-1.686 0-3.052 1.366-3.052 3.052 0 .56.161 1.077.424 1.527h5.256c.263-.45.424-.967.424-1.527z"/></g><path d="m294.272 483.542h-131.106c-7.385 0-13.474-4.797-13.853-10.911l-15.294-247.257h190.493l-16.39 247.299c-.405 6.097-6.485 10.869-13.85 10.869z" fill="#e9c278"/><g fill="#f9fbfc"><circle cx="311.233" cy="229.838" r="3.052"/><path d="m321.442 236.254c-1.686 0-3.052 1.366-3.052 3.052s1.367 3.053 3.052 3.053c.766 0 1.458-.293 1.994-.759l.285-4.305c-.559-.633-1.368-1.041-2.279-1.041z"/><path d="m311.233 246.463c-1.686 0-3.052 1.367-3.052 3.053s1.367 3.052 3.052 3.052c1.686 0 3.052-1.366 3.052-3.052s-1.367-3.053-3.052-3.053z"/><path d="m301.758 236.252c-1.686 0-3.052 1.367-3.052 3.053s1.367 3.052 3.052 3.052 3.052-1.367 3.052-3.052c.001-1.686-1.366-3.053-3.052-3.053z"/><path d="m301.758 255.937c-1.686 0-3.052 1.367-3.052 3.052 0 1.686 1.367 3.052 3.052 3.052s3.052-1.366 3.052-3.052c.001-1.685-1.366-3.052-3.052-3.052z"/><path d="m311.233 266.141c-1.686 0-3.052 1.367-3.052 3.052 0 1.686 1.367 3.052 3.052 3.052 1.686 0 3.052-1.366 3.052-3.052 0-1.685-1.367-3.052-3.052-3.052z"/><path d="m311.233 285.819c-1.686 0-3.052 1.366-3.052 3.052s1.367 3.052 3.052 3.052c1.686 0 3.052-1.366 3.052-3.052s-1.367-3.052-3.052-3.052z"/><path d="m318.39 298.339c0 .953.446 1.793 1.13 2.353l.328-4.945c-.872.538-1.458 1.493-1.458 2.592z"/><path d="m311.233 305.497c-1.686 0-3.052 1.366-3.052 3.052 0 1.685 1.367 3.052 3.052 3.052 1.686 0 3.052-1.366 3.052-3.052s-1.367-3.052-3.052-3.052z"/><path d="m311.233 325.174c-1.686 0-3.052 1.366-3.052 3.052 0 1.685 1.367 3.052 3.052 3.052 1.686 0 3.052-1.366 3.052-3.052 0-1.685-1.367-3.052-3.052-3.052z"/><path d="m311.233 344.852c-1.686 0-3.052 1.366-3.052 3.052s1.367 3.053 3.052 3.053c1.686 0 3.052-1.367 3.052-3.053s-1.367-3.052-3.052-3.052z"/><circle cx="311.233" cy="367.582" r="3.052"/><path d="m311.233 384.207c-1.686 0-3.052 1.367-3.052 3.052 0 1.686 1.367 3.052 3.052 3.052.996 0 1.871-.484 2.428-1.222l.22-3.32c-.523-.927-1.507-1.562-2.648-1.562z"/><path d="m308.18 406.937c0 1.686 1.367 3.052 3.052 3.052.373 0 .726-.077 1.057-.199l.367-5.538c-.427-.227-.906-.368-1.423-.368-1.686.001-3.053 1.368-3.053 3.053z"/><path d="m308.18 446.293c0 1.122.613 2.093 1.516 2.623l.361-5.439c-1.102.461-1.877 1.547-1.877 2.816z"/><path d="m308.18 465.971c0 .466.113.903.299 1.298l.196-2.957c-.31.478-.495 1.046-.495 1.659z"/><path d="m301.764 275.609c-1.686 0-3.052 1.367-3.052 3.052 0 1.686 1.367 3.052 3.052 3.052 1.686 0 3.052-1.366 3.052-3.052 0-1.685-1.366-3.052-3.052-3.052z"/><path d="m301.764 295.287c-1.686 0-3.052 1.366-3.052 3.052s1.367 3.052 3.052 3.052c1.686 0 3.052-1.367 3.052-3.052s-1.366-3.052-3.052-3.052z"/><path d="m301.764 314.965c-1.686 0-3.052 1.366-3.052 3.052s1.367 3.052 3.052 3.052c1.686 0 3.052-1.366 3.052-3.052 0-1.685-1.366-3.052-3.052-3.052z"/><path d="m301.764 334.643c-1.686 0-3.052 1.367-3.052 3.052 0 1.686 1.367 3.052 3.052 3.052 1.686 0 3.052-1.366 3.052-3.052s-1.366-3.052-3.052-3.052z"/><path d="m301.764 354.32c-1.686 0-3.052 1.367-3.052 3.052 0 1.686 1.367 3.052 3.052 3.052 1.686 0 3.052-1.366 3.052-3.052 0-1.685-1.366-3.052-3.052-3.052z"/><path d="m301.764 373.998c-1.686 0-3.052 1.366-3.052 3.052s1.367 3.052 3.052 3.052c1.686 0 3.052-1.367 3.052-3.052s-1.366-3.052-3.052-3.052z"/><path d="m301.764 393.676c-1.686 0-3.052 1.367-3.052 3.052 0 1.686 1.367 3.052 3.052 3.052 1.686 0 3.052-1.366 3.052-3.052 0-1.685-1.366-3.052-3.052-3.052z"/><path d="m291.553 384.202c-1.686 0-3.052 1.366-3.052 3.052s1.367 3.052 3.052 3.052c1.686 0 3.052-1.366 3.052-3.052.001-1.686-1.366-3.052-3.052-3.052z"/><path d="m301.764 413.354c-1.686 0-3.052 1.366-3.052 3.052s1.367 3.052 3.052 3.052c1.686 0 3.052-1.367 3.052-3.052 0-1.686-1.366-3.052-3.052-3.052z"/><path d="m291.555 429.668c1.686 0 3.052-1.366 3.052-3.052s-1.367-3.052-3.052-3.052c-1.366 0-2.509.904-2.898 2.141l-.093 1.517c.281 1.395 1.513 2.446 2.991 2.446z"/><path d="m301.764 433.032c-1.686 0-3.052 1.366-3.052 3.052s1.367 3.053 3.052 3.053c1.686 0 3.052-1.367 3.052-3.053s-1.366-3.052-3.052-3.052z"/><path d="m291.555 443.241c-1.686 0-3.052 1.366-3.052 3.052 0 1.685 1.367 3.052 3.052 3.052 1.686 0 3.052-1.366 3.052-3.052s-1.366-3.052-3.052-3.052z"/><path d="m301.764 452.709c-1.686 0-3.052 1.366-3.052 3.052 0 1.685 1.367 3.052 3.052 3.052 1.686 0 3.052-1.367 3.052-3.052s-1.366-3.052-3.052-3.052z"/><path d="m291.555 469.023c1.686 0 3.052-1.366 3.052-3.052s-1.367-3.052-3.052-3.052c-1.686 0-3.052 1.366-3.052 3.052 0 1.685 1.366 3.052 3.052 3.052z"/><path d="m301.764 472.387c-1.686 0-3.052 1.367-3.052 3.053 0 1.685 1.367 3.052 3.052 3.052 1.686 0 3.052-1.366 3.052-3.052 0-1.687-1.366-3.053-3.052-3.053z"/><path d="m291.555 482.596c-.867 0-1.645.366-2.201.946h4.402c-.556-.58-1.334-.946-2.201-.946z"/></g><path d="m236.39 171.351-62.993 278.019c-1.589 6.988 2.788 13.942 9.776 15.531.969.22 1.936.326 2.889.326 5.923 0 11.273-4.082 12.642-10.102l64.296-283.773h-26.61z" fill="#eaa895"/><path d="m415.166 11.933c-2.796-6.599-10.413-9.68-17.01-6.885l-112.143 47.754c-15.751 6.673-27.419 20.617-31.213 37.297l-6.822 30.11h26.61l5.518-24.355c1.949-8.567 7.942-15.729 16.032-19.157l112.143-47.753c6.599-2.796 9.681-10.412 6.885-17.011z" fill="#eaa895"/><path d="m170.505 291.982c-8.065 0-14.627-6.561-14.627-14.626s6.561-14.627 14.627-14.627c8.065 0 14.626 6.561 14.626 14.627.001 8.065-6.561 14.626-14.626 14.626zm0-21.211c-3.631 0-6.585 2.954-6.585 6.585s2.954 6.584 6.585 6.584 6.585-2.954 6.585-6.584c0-3.631-2.954-6.585-6.585-6.585z" fill="#31373d"/><path d="m262.836 364.038c-8.065 0-14.627-6.561-14.627-14.627 0-8.065 6.561-14.626 14.627-14.626 8.065 0 14.626 6.561 14.626 14.626s-6.561 14.627-14.626 14.627zm0-21.211c-3.631 0-6.585 2.954-6.585 6.585s2.954 6.585 6.585 6.585 6.585-2.954 6.585-6.585-2.954-6.585-6.585-6.585z" fill="#31373d"/><path d="m267.665 459.592-36.844-15.79c-4.59-1.967-6.716-7.283-4.749-11.873l15.79-36.844c1.967-4.59 7.283-6.716 11.873-4.749l36.844 15.79c4.59 1.967 6.716 7.283 4.749 11.873l-15.79 36.844c-1.967 4.59-7.283 6.716-11.873 4.749z" fill="#f9fbfc"/><path d="m221.548 382.732-42.859 10.292c-5.408 1.298-10.844-2.033-12.143-7.44l-10.292-42.859c-1.299-5.408 2.033-10.844 7.44-12.143l42.859-10.292c5.408-1.299 10.844 2.032 12.143 7.44l10.292 42.859c1.299 5.408-2.032 10.844-7.44 12.143z" fill="#f9fbfc"/><g fill="#31373d"><path d="m271.184 464.329c-1.721 0-3.467-.34-5.146-1.06l-36.757-15.753c-3.219-1.38-5.707-3.93-7.008-7.181s-1.257-6.815.123-10.033l15.753-36.757c1.38-3.219 3.93-5.707 7.181-7.008 3.25-1.301 6.814-1.257 10.033.123l36.757 15.753c3.219 1.38 5.707 3.93 7.008 7.181s1.257 6.815-.122 10.033l-15.753 36.757c-2.129 4.964-6.981 7.945-12.069 7.945zm-1.978-8.452c2.568 1.1 5.554-.093 6.655-2.662l15.753-36.757c1.101-2.569-.093-5.554-2.662-6.655l-36.757-15.753c-2.569-1.1-5.554.093-6.655 2.662l-15.753 36.757c-1.101 2.568.093 5.554 2.662 6.655z"/><path d="m418.868 10.364c-3.657-8.629-13.653-12.675-22.288-9.016l-112.136 47.752c-16.937 7.176-29.484 22.17-33.565 40.111l-6.099 26.919h-129.677c-13.478 0-24.444 10.965-24.444 24.444v9.773c0 8.7 4.572 16.348 11.436 20.681l18.275 320.528c.618 10.833 10.362 19.32 22.186 19.32h171.984c11.779 0 21.523-8.453 22.182-19.244l19.58-320.518c6.939-4.318 11.569-12.01 11.569-20.766v-9.773c0-13.478-10.966-24.444-24.444-24.444h-63.793l4.392-19.384c1.663-7.31 6.777-13.421 13.687-16.349l112.136-47.75c8.63-3.658 12.676-13.654 9.019-22.284zm-90.173 480.776c-.4 6.556-6.618 11.692-14.155 11.692h-171.984c-7.564 0-13.782-5.155-14.157-11.736l-18.062-316.777c1.542.306 3.134.47 4.765.47h116.386l-10.55 46.564h-86.919c-1.11 0-2.17.458-2.93 1.267-.76.808-1.152 1.895-1.083 3.002l15.294 247.258c.509 8.234 8.357 14.683 17.866 14.683h131.105c9.472 0 17.318-6.423 17.862-14.623l16.39-247.299c.074-1.11-.316-2.201-1.076-3.014-.76-.812-1.823-1.273-2.936-1.273h-68.717l10.55-46.564h77.084c1.58 0 3.123-.156 4.62-.444zm-150.893-102.038c-1.585.379-3.223.121-4.612-.73-1.39-.852-2.365-2.193-2.745-3.778l-10.268-42.757c-.785-3.271 1.237-6.572 4.508-7.357l42.757-10.268c.477-.114.958-.171 1.436-.171 1.111 0 2.204.306 3.176.901 1.39.852 2.365 2.193 2.745 3.778l10.268 42.756c.786 3.272-1.237 6.572-4.508 7.357-.001 0-.001 0-.001 0zm31.583.686-14.602 64.444c-.919 4.04-4.586 6.973-8.721 6.973-.667 0-1.339-.076-1.998-.226-4.815-1.095-7.841-5.903-6.746-10.722l12.644-55.806zm-10.335-71.831-36.243 8.704c-7.583 1.821-12.271 9.471-10.45 17.054l10.267 42.757c.882 3.673 3.142 6.783 6.363 8.757 2.252 1.38 4.786 2.089 7.362 2.089 1.108 0 2.224-.131 3.329-.396l1.564-.375-11.767 51.932c-2.078 9.139 3.666 18.265 12.805 20.343 1.243.283 2.515.426 3.781.426 7.98 0 14.791-5.441 16.563-13.234l15.479-68.318 4.331-1.04h-.001c7.583-1.821 12.271-9.471 10.451-17.055l-5.496-22.885 26.581-117.318h66.243l-16.102 243.01c-.26 3.922-4.674 7.114-9.838 7.114h-131.106c-5.182 0-9.596-3.202-9.84-7.138l-15.03-242.987h80.82zm24.098 11.09-.529-2.204c-.882-3.673-3.142-6.783-6.363-8.757-2.592-1.588-5.556-2.27-8.531-2.023l32.009-141.272h18.365zm120.28-204.875c9.044 0 16.402 7.358 16.402 16.402v9.773c0 9.044-7.358 16.402-16.402 16.402h-228.325c-9.044 0-16.402-7.358-16.402-16.402v-9.773c0-9.044 7.358-16.402 16.402-16.402zm63.278-98.927-112.136 47.75c-9.277 3.932-16.149 12.144-18.385 21.971l-4.795 21.164h-18.365l5.696-25.139c3.508-15.425 14.297-28.317 28.867-34.49l112.136-47.75c1.137-.482 2.319-.71 3.482-.71 3.49 0 6.813 2.052 8.258 5.461 1.926 4.547-.205 9.813-4.758 11.743z"/></g></g></svg>