<svg id="Capa_1" enable-background="new 0 0 511.085 511.085" height="512" viewBox="0 0 511.085 511.085" width="512" xmlns="http://www.w3.org/2000/svg"><g><path d="m258.244 161.343 26.265 13.703 81.118-155.485c3.553-6.811-22.712-20.514-26.265-13.703z" fill="#e9c278"/><ellipse cx="262.941" cy="62.42" fill="#eaa895" rx="28.797" ry="28.797" transform="matrix(.848 -.531 .531 .848 6.957 149.058)"/><path d="m304.868 124.77c-6.177-28.08-31.189-49.097-61.124-49.097-29.807 0-54.73 20.838-61.041 48.736-20.592 3.783-36.199 21.811-36.199 43.496 0 24.432 19.806 44.238 44.238 44.238 13.033 0 24.747-5.638 32.842-14.605 6.328 2.152 13.104 3.337 20.16 3.337 8.322 0 16.257-1.637 23.521-4.586 7.958 9.194 19.706 15.019 32.82 15.019 23.971 0 43.404-19.432 43.404-43.404-.001-22.352-16.902-40.752-38.621-43.134z" fill="#f9fbfc"/><g fill="#eaa895"><path d="m329.398 137.97c-1.68 0-3.042 1.362-3.042 3.042s1.362 3.042 3.042 3.042 3.042-1.362 3.042-3.042-1.362-3.042-3.042-3.042z"/><path d="m336.531 150.449c0 1.68 1.362 3.042 3.042 3.042.482 0 .932-.122 1.336-.322-.691-1.914-1.513-3.766-2.455-5.544-1.124.447-1.923 1.54-1.923 2.824z"/><path d="m329.398 157.583c-1.68 0-3.042 1.362-3.042 3.042s1.362 3.042 3.042 3.042 3.042-1.362 3.042-3.042c0-1.681-1.362-3.042-3.042-3.042z"/><path d="m336.531 170.061c0 1.68 1.362 3.042 3.042 3.042s3.042-1.362 3.042-3.042-1.362-3.042-3.042-3.042-3.042 1.362-3.042 3.042z"/><path d="m329.398 177.195c-1.68 0-3.042 1.362-3.042 3.042s1.362 3.042 3.042 3.042 3.042-1.362 3.042-3.042-1.362-3.042-3.042-3.042z"/><path d="m336.531 189.674c0 .47.116.91.306 1.308.874-1.388 1.671-2.827 2.386-4.314-1.513.175-2.692 1.446-2.692 3.006z"/><path d="m329.398 196.807c-1.68 0-3.042 1.362-3.042 3.042 0 .768.294 1.462.765 1.998 1.584-1.262 3.074-2.636 4.466-4.104-.554-.575-1.328-.936-2.189-.936z"/><path d="m316.919 130.837c0 1.68 1.362 3.042 3.042 3.042 1.609 0 2.913-1.254 3.021-2.836-1.558-.969-3.178-1.846-4.859-2.616-.727.556-1.204 1.424-1.204 2.41z"/><path d="m309.786 137.97c-1.68 0-3.042 1.362-3.042 3.042s1.362 3.042 3.042 3.042 3.042-1.362 3.042-3.042-1.362-3.042-3.042-3.042z"/><circle cx="319.961" cy="150.449" r="3.042"/><path d="m309.786 157.583c-1.68 0-3.042 1.362-3.042 3.042s1.362 3.042 3.042 3.042 3.042-1.362 3.042-3.042c0-1.681-1.362-3.042-3.042-3.042z"/><circle cx="319.961" cy="170.061" r="3.042"/><path d="m309.786 177.195c-1.68 0-3.042 1.362-3.042 3.042s1.362 3.042 3.042 3.042 3.042-1.362 3.042-3.042-1.362-3.042-3.042-3.042z"/><path d="m319.961 186.631c-1.68 0-3.042 1.362-3.042 3.042s1.362 3.042 3.042 3.042 3.042-1.362 3.042-3.042-1.362-3.042-3.042-3.042z"/><path d="m309.786 202.891c1.68 0 3.042-1.362 3.042-3.042s-1.362-3.042-3.042-3.042-3.042 1.362-3.042 3.042 1.362 3.042 3.042 3.042z"/><path d="m319.961 206.243c-1.101 0-2.056.59-2.59 1.466 1.011-.439 2.001-.915 2.971-1.427-.126-.016-.251-.039-.381-.039z"/><path d="m297.307 111.225c0 1.68 1.362 3.042 3.042 3.042.389 0 .757-.08 1.099-.213-.786-1.865-1.651-3.689-2.606-5.457-.913.525-1.535 1.499-1.535 2.628z"/><path d="m290.174 118.358c-1.68 0-3.042 1.362-3.042 3.042s1.362 3.042 3.042 3.042 3.042-1.362 3.042-3.042-1.362-3.042-3.042-3.042z"/><path d="m280.711 108.174c-1.68 0-3.042 1.362-3.042 3.042s1.362 3.042 3.042 3.042 3.042-1.362 3.042-3.042-1.362-3.042-3.042-3.042z"/><path d="m300.349 127.795c-1.68 0-3.042 1.362-3.042 3.042s1.362 3.042 3.042 3.042 3.042-1.362 3.042-3.042-1.362-3.042-3.042-3.042z"/><path d="m290.174 137.97c-1.68 0-3.042 1.362-3.042 3.042s1.362 3.042 3.042 3.042 3.042-1.362 3.042-3.042-1.362-3.042-3.042-3.042z"/><path d="m300.349 147.407c-1.68 0-3.042 1.362-3.042 3.042s1.362 3.042 3.042 3.042 3.042-1.362 3.042-3.042-1.362-3.042-3.042-3.042z"/><path d="m290.174 157.583c-1.68 0-3.042 1.362-3.042 3.042s1.362 3.042 3.042 3.042 3.042-1.362 3.042-3.042c0-1.681-1.362-3.042-3.042-3.042z"/><path d="m300.349 167.019c-1.68 0-3.042 1.362-3.042 3.042s1.362 3.042 3.042 3.042 3.042-1.362 3.042-3.042-1.362-3.042-3.042-3.042z"/><path d="m290.174 177.195c-1.68 0-3.042 1.362-3.042 3.042s1.362 3.042 3.042 3.042 3.042-1.362 3.042-3.042-1.362-3.042-3.042-3.042z"/><path d="m300.349 192.716c1.68 0 3.042-1.362 3.042-3.042s-1.362-3.042-3.042-3.042-3.042 1.362-3.042 3.042 1.362 3.042 3.042 3.042z"/><path d="m290.174 196.807c-1.68 0-3.042 1.362-3.042 3.042s1.362 3.042 3.042 3.042 3.042-1.362 3.042-3.042-1.362-3.042-3.042-3.042z"/><path d="m303.391 209.286c0-1.68-1.362-3.042-3.042-3.042-1.581 0-2.865 1.21-3.013 2.752 1.876.636 3.808 1.146 5.789 1.524.169-.378.266-.794.266-1.234z"/><path d="m270.562 118.358c-1.68 0-3.042 1.362-3.042 3.042s1.362 3.042 3.042 3.042 3.042-1.362 3.042-3.042-1.362-3.042-3.042-3.042z"/><circle cx="280.737" cy="130.837" r="3.042"/><path d="m270.562 137.97c-1.68 0-3.042 1.362-3.042 3.042s1.362 3.042 3.042 3.042 3.042-1.362 3.042-3.042-1.362-3.042-3.042-3.042z"/><circle cx="280.737" cy="150.449" r="3.042"/><path d="m270.562 157.583c-1.68 0-3.042 1.362-3.042 3.042s1.362 3.042 3.042 3.042 3.042-1.362 3.042-3.042c0-1.681-1.362-3.042-3.042-3.042z"/><circle cx="280.737" cy="170.061" r="3.042"/><path d="m270.562 183.279c1.68 0 3.042-1.362 3.042-3.042s-1.362-3.042-3.042-3.042-3.042 1.362-3.042 3.042 1.361 3.042 3.042 3.042z"/><path d="m283.779 189.674c0-1.68-1.362-3.042-3.042-3.042s-3.042 1.362-3.042 3.042 1.362 3.042 3.042 3.042 3.042-1.362 3.042-3.042z"/><path d="m270.562 196.807c-.804 0-1.53.317-2.073.827.461.485.932.961 1.413 1.428 1.078-.266 2.141-.568 3.196-.888-.545-.824-1.476-1.367-2.536-1.367z"/><ellipse cx="261.125" cy="130.837" rx="3.042" ry="3.042" transform="matrix(1 -.011 .011 1 -1.477 2.99)"/><path d="m250.949 137.97c-1.68 0-3.042 1.362-3.042 3.042s1.362 3.042 3.042 3.042 3.042-1.362 3.042-3.042c.001-1.68-1.361-3.042-3.042-3.042z"/><ellipse cx="261.125" cy="150.449" rx="3.042" ry="3.042" transform="matrix(.012 -1 1 .012 107.562 409.755)"/><path d="m250.949 157.583c-1.68 0-3.042 1.362-3.042 3.042s1.362 3.042 3.042 3.042 3.042-1.362 3.042-3.042c.001-1.681-1.361-3.042-3.042-3.042z"/><ellipse cx="261.125" cy="170.061" rx="3.042" ry="3.042" transform="matrix(.012 -1 1 .012 87.952 429.133)"/><path d="m250.949 177.195c-1.68 0-3.042 1.362-3.042 3.042s1.362 3.042 3.042 3.042 3.042-1.362 3.042-3.042c.001-1.68-1.361-3.042-3.042-3.042z"/><path d="m261.125 192.716c1.68 0 3.042-1.362 3.042-3.042s-1.362-3.042-3.042-3.042-3.042 1.362-3.042 3.042 1.362 3.042 3.042 3.042z"/><path d="m250.949 196.807c-1.68 0-3.042 1.362-3.042 3.042 0 .207.021.409.061.605.451.051.895.122 1.349.163 1.569-.139 3.122-.337 4.656-.59.004-.06.018-.117.018-.178.001-1.68-1.361-3.042-3.042-3.042z"/><path d="m241.512 147.407c-1.68 0-3.042 1.362-3.042 3.042s1.362 3.042 3.042 3.042 3.042-1.362 3.042-3.042c.001-1.68-1.361-3.042-3.042-3.042z"/><path d="m231.337 157.583c-1.68 0-3.042 1.362-3.042 3.042s1.362 3.042 3.042 3.042 3.042-1.362 3.042-3.042c0-1.681-1.362-3.042-3.042-3.042z"/><path d="m241.512 167.019c-1.68 0-3.042 1.362-3.042 3.042s1.362 3.042 3.042 3.042 3.042-1.362 3.042-3.042-1.361-3.042-3.042-3.042z"/><path d="m231.337 183.279c1.68 0 3.042-1.362 3.042-3.042s-1.362-3.042-3.042-3.042-3.042 1.362-3.042 3.042 1.362 3.042 3.042 3.042z"/><path d="m241.512 192.716c1.68 0 3.042-1.362 3.042-3.042s-1.362-3.042-3.042-3.042-3.042 1.362-3.042 3.042 1.362 3.042 3.042 3.042z"/><path d="m231.337 196.807c-1.369 0-2.513.91-2.895 2.154 1.341.336 2.697.636 4.071.887.501-.48.99-.972 1.471-1.472-.52-.932-1.504-1.569-2.647-1.569z"/><circle cx="221.9" cy="170.061" r="3.042"/><path d="m211.725 177.195c-1.68 0-3.042 1.362-3.042 3.042s1.362 3.042 3.042 3.042 3.042-1.362 3.042-3.042-1.362-3.042-3.042-3.042z"/><path d="m221.9 192.716c1.68 0 3.042-1.362 3.042-3.042s-1.362-3.042-3.042-3.042-3.042 1.362-3.042 3.042 1.362 3.042 3.042 3.042z"/><path d="m211.725 196.807c-1.68 0-3.042 1.362-3.042 3.042s1.362 3.042 3.042 3.042 3.042-1.362 3.042-3.042-1.362-3.042-3.042-3.042z"/><path d="m202.288 192.716c1.68 0 3.042-1.362 3.042-3.042s-1.362-3.042-3.042-3.042c-.219 0-.431.025-.636.069-.49 1.769-.868 3.585-1.136 5.436.5.36 1.109.579 1.772.579z"/><path d="m205.33 209.286c0-1.68-1.362-3.042-3.042-3.042-.534 0-1.028.149-1.464.391.26 1.39.56 2.766.946 4.108 1.195-.306 2.368-.667 3.521-1.068.017-.129.039-.256.039-.389z"/></g><g fill="#e9c278"><path d="m286.073 468.619h-11.997c-5.592 0-10.125-4.533-10.125-10.125v-8.547h-36.327v8.547c0 5.592-4.533 10.125-10.125 10.125h-11.996c-21.238 0-38.454 17.216-38.454 38.454h157.478c0-21.238-17.216-38.454-38.454-38.454z"/><path d="m267.928 449.742c7.898 0 14.301-6.403 14.301-14.302v-.696c0-7.899-6.403-14.302-14.301-14.302h-44.281c-7.898 0-14.301 6.403-14.301 14.302v.696c0 7.898 6.403 14.302 14.301 14.302z"/><path d="m145.097 175.549v142.992c0 55.872 45.293 101.166 101.166 101.166 55.872 0 101.166-45.294 101.166-101.166v-142.992c0 .361-202.332 0-202.332 0z"/></g><g fill="#f9fbfc"><path d="m338.772 177.195c-1.68 0-3.042 1.362-3.042 3.042s1.362 3.042 3.042 3.042 3.042-1.362 3.042-3.042-1.362-3.042-3.042-3.042z"/><path d="m347.429 192.295v-5.243c-.907.527-1.524 1.497-1.524 2.622 0 1.124.617 2.095 1.524 2.621z"/><path d="m338.772 196.807c-1.68 0-3.042 1.362-3.042 3.042s1.362 3.042 3.042 3.042 3.042-1.362 3.042-3.042-1.362-3.042-3.042-3.042z"/><path d="m347.429 211.907v-5.243c-.907.526-1.524 1.497-1.524 2.622s.617 2.095 1.524 2.621z"/><path d="m338.772 216.419c-1.68 0-3.042 1.362-3.042 3.042s1.362 3.042 3.042 3.042 3.042-1.362 3.042-3.042-1.362-3.042-3.042-3.042z"/><path d="m347.429 231.52v-5.243c-.907.527-1.524 1.497-1.524 2.622 0 1.123.617 2.094 1.524 2.621z"/><path d="m338.772 236.031c-1.68 0-3.042 1.362-3.042 3.042s1.362 3.042 3.042 3.042 3.042-1.362 3.042-3.042-1.362-3.042-3.042-3.042z"/><path d="m347.429 251.132v-5.243c-.907.526-1.524 1.498-1.524 2.622 0 1.123.617 2.094 1.524 2.621z"/><path d="m338.772 255.643c-1.68 0-3.042 1.362-3.042 3.042s1.362 3.042 3.042 3.042 3.042-1.362 3.042-3.042-1.362-3.042-3.042-3.042z"/><path d="m347.429 270.744v-5.243c-.907.526-1.524 1.497-1.524 2.622 0 1.124.617 2.094 1.524 2.621z"/><path d="m338.772 275.256c-1.68 0-3.042 1.362-3.042 3.042s1.362 3.042 3.042 3.042 3.042-1.362 3.042-3.042c0-1.681-1.362-3.042-3.042-3.042z"/><path d="m347.429 290.356v-5.243c-.907.527-1.524 1.498-1.524 2.622s.617 2.094 1.524 2.621z"/><path d="m338.772 294.868c-1.68 0-3.042 1.362-3.042 3.042s1.362 3.042 3.042 3.042 3.042-1.362 3.042-3.042-1.362-3.042-3.042-3.042z"/><path d="m347.429 309.968v-5.243c-.907.526-1.524 1.498-1.524 2.621 0 1.125.617 2.096 1.524 2.622z"/><circle cx="338.772" cy="317.522" r="3.042"/><path d="m345.905 326.959c0 .876.376 1.66.969 2.215.164-1.57.289-3.151.38-4.742-.813.546-1.349 1.474-1.349 2.527z"/><path d="m338.772 334.092c-1.68 0-3.042 1.362-3.042 3.042s1.362 3.042 3.042 3.042 3.042-1.361 3.042-3.042c0-1.68-1.362-3.042-3.042-3.042z"/><path d="m335.73 356.746c0 1.644 1.306 2.974 2.936 3.031.772-1.726 1.493-3.48 2.169-5.255-.543-.504-1.264-.818-2.063-.818-1.68 0-3.042 1.362-3.042 3.042z"/><path d="m319.16 177.195c-1.68 0-3.042 1.362-3.042 3.042s1.362 3.042 3.042 3.042 3.042-1.362 3.042-3.042-1.362-3.042-3.042-3.042z"/><path d="m329.335 186.631c-1.68 0-3.042 1.362-3.042 3.042s1.362 3.042 3.042 3.042 3.042-1.362 3.042-3.042-1.362-3.042-3.042-3.042z"/><path d="m319.16 196.807c-1.68 0-3.042 1.362-3.042 3.042s1.362 3.042 3.042 3.042 3.042-1.362 3.042-3.042-1.362-3.042-3.042-3.042z"/><path d="m329.335 206.243c-1.68 0-3.042 1.362-3.042 3.042s1.362 3.042 3.042 3.042 3.042-1.362 3.042-3.042-1.362-3.042-3.042-3.042z"/><path d="m319.16 216.419c-1.68 0-3.042 1.362-3.042 3.042s1.362 3.042 3.042 3.042 3.042-1.362 3.042-3.042-1.362-3.042-3.042-3.042z"/><path d="m329.335 225.856c-1.68 0-3.042 1.362-3.042 3.042s1.362 3.042 3.042 3.042 3.042-1.362 3.042-3.042-1.362-3.042-3.042-3.042z"/><path d="m319.16 236.031c-1.68 0-3.042 1.362-3.042 3.042s1.362 3.042 3.042 3.042 3.042-1.362 3.042-3.042-1.362-3.042-3.042-3.042z"/><path d="m329.335 245.468c-1.68 0-3.042 1.362-3.042 3.042s1.362 3.042 3.042 3.042 3.042-1.362 3.042-3.042-1.362-3.042-3.042-3.042z"/><path d="m319.16 255.643c-1.68 0-3.042 1.362-3.042 3.042s1.362 3.042 3.042 3.042 3.042-1.362 3.042-3.042-1.362-3.042-3.042-3.042z"/><path d="m329.335 265.08c-1.68 0-3.042 1.362-3.042 3.042s1.362 3.042 3.042 3.042 3.042-1.362 3.042-3.042-1.362-3.042-3.042-3.042z"/><path d="m319.16 275.256c-1.68 0-3.042 1.362-3.042 3.042s1.362 3.042 3.042 3.042 3.042-1.362 3.042-3.042c0-1.681-1.362-3.042-3.042-3.042z"/><path d="m329.335 284.693c-1.68 0-3.042 1.361-3.042 3.042 0 1.68 1.362 3.042 3.042 3.042s3.042-1.362 3.042-3.042c0-1.681-1.362-3.042-3.042-3.042z"/><path d="m319.16 294.868c-1.68 0-3.042 1.362-3.042 3.042s1.362 3.042 3.042 3.042 3.042-1.362 3.042-3.042-1.362-3.042-3.042-3.042z"/><path d="m329.335 304.304c-1.68 0-3.042 1.362-3.042 3.042s1.362 3.042 3.042 3.042 3.042-1.362 3.042-3.042c0-1.679-1.362-3.042-3.042-3.042z"/><circle cx="319.16" cy="317.522" r="3.042"/><path d="m329.335 323.917c-1.68 0-3.042 1.362-3.042 3.042s1.362 3.042 3.042 3.042 3.042-1.362 3.042-3.042-1.362-3.042-3.042-3.042z"/><path d="m319.16 334.092c-1.68 0-3.042 1.362-3.042 3.042s1.362 3.042 3.042 3.042 3.042-1.361 3.042-3.042c0-1.68-1.362-3.042-3.042-3.042z"/><path d="m329.335 343.529c-1.68 0-3.042 1.362-3.042 3.042s1.362 3.042 3.042 3.042 3.042-1.362 3.042-3.042-1.362-3.042-3.042-3.042z"/><circle cx="319.16" cy="356.746" r="3.042"/><path d="m329.335 363.141c-1.68 0-3.042 1.362-3.042 3.042s1.362 3.042 3.042 3.042 3.042-1.362 3.042-3.042-1.362-3.042-3.042-3.042z"/><path d="m319.16 379.401c1.68 0 3.042-1.362 3.042-3.042s-1.362-3.042-3.042-3.042-3.042 1.362-3.042 3.042 1.362 3.042 3.042 3.042z"/><path d="m309.723 323.917c-1.68 0-3.042 1.362-3.042 3.042s1.362 3.042 3.042 3.042 3.042-1.362 3.042-3.042-1.362-3.042-3.042-3.042z"/><path d="m309.723 343.529c-1.68 0-3.042 1.362-3.042 3.042s1.362 3.042 3.042 3.042 3.042-1.362 3.042-3.042-1.362-3.042-3.042-3.042z"/><path d="m299.548 353.704c-1.68 0-3.042 1.362-3.042 3.042s1.362 3.042 3.042 3.042 3.042-1.362 3.042-3.042-1.362-3.042-3.042-3.042z"/><path d="m309.723 363.141c-1.68 0-3.042 1.362-3.042 3.042s1.362 3.042 3.042 3.042 3.042-1.362 3.042-3.042-1.362-3.042-3.042-3.042z"/><path d="m299.548 373.316c-1.68 0-3.042 1.362-3.042 3.042s1.362 3.042 3.042 3.042 3.042-1.362 3.042-3.042-1.362-3.042-3.042-3.042z"/><path d="m309.723 382.753c-1.68 0-3.042 1.362-3.042 3.042s1.362 3.042 3.042 3.042 3.042-1.362 3.042-3.042-1.362-3.042-3.042-3.042z"/><path d="m299.548 392.928c-1.68 0-3.042 1.362-3.042 3.042s1.362 3.042 3.042 3.042 3.042-1.362 3.042-3.042-1.362-3.042-3.042-3.042z"/><path d="m293.108 347.014c-.62.804-1.249 1.6-1.893 2.385.999-.391 1.732-1.291 1.893-2.385z"/><path d="m290.111 363.141c-1.68 0-3.042 1.362-3.042 3.042s1.362 3.042 3.042 3.042 3.042-1.362 3.042-3.042-1.362-3.042-3.042-3.042z"/><path d="m279.935 373.316c-1.68 0-3.042 1.362-3.042 3.042s1.362 3.042 3.042 3.042 3.042-1.362 3.042-3.042c.001-1.68-1.361-3.042-3.042-3.042z"/><path d="m290.111 382.753c-1.68 0-3.042 1.362-3.042 3.042s1.362 3.042 3.042 3.042 3.042-1.362 3.042-3.042-1.362-3.042-3.042-3.042z"/><circle cx="279.935" cy="395.971" r="3.042"/><path d="m290.111 408.449c1.68 0 3.042-1.362 3.042-3.042s-1.362-3.042-3.042-3.042-3.042 1.362-3.042 3.042c0 1.681 1.362 3.042 3.042 3.042z"/><path d="m279.935 412.541c-1.466 0-2.689 1.038-2.977 2.419 1.657-.527 3.295-1.096 4.913-1.706-.527-.439-1.196-.713-1.936-.713z"/><path d="m270.499 382.753c-1.68 0-3.042 1.362-3.042 3.042s1.362 3.042 3.042 3.042 3.042-1.362 3.042-3.042-1.362-3.042-3.042-3.042z"/><circle cx="260.323" cy="395.971" r="3.042"/><path d="m270.499 402.366c-1.68 0-3.042 1.362-3.042 3.042s1.362 3.042 3.042 3.042 3.042-1.362 3.042-3.042c0-1.681-1.362-3.042-3.042-3.042z"/><circle cx="260.323" cy="415.583" r="3.042"/><path d="m247.844 385.795c0 1.68 1.362 3.042 3.042 3.042s3.042-1.362 3.042-3.042-1.362-3.042-3.042-3.042-3.042 1.362-3.042 3.042z"/><path d="m228.279 385.795c0 1.68 1.362 3.042 3.042 3.042s3.042-1.362 3.042-3.042-1.362-3.042-3.042-3.042-3.042 1.362-3.042 3.042z"/><path d="m188.92 385.871c0 1.68 1.362 3.042 3.042 3.042s3.042-1.362 3.042-3.042-1.362-3.042-3.042-3.042c-1.68.001-3.042 1.362-3.042 3.042z"/><path d="m257.284 376.431c0 1.68 1.362 3.042 3.042 3.042s3.042-1.362 3.042-3.042-1.362-3.042-3.042-3.042-3.042 1.362-3.042 3.042z"/><path d="m240.711 392.928c-1.68 0-3.042 1.362-3.042 3.042s1.362 3.042 3.042 3.042 3.042-1.362 3.042-3.042-1.362-3.042-3.042-3.042z"/><path d="m250.886 408.449c1.68 0 3.042-1.362 3.042-3.042s-1.362-3.042-3.042-3.042-3.042 1.362-3.042 3.042c0 1.681 1.362 3.042 3.042 3.042z"/><path d="m243.753 415.583c0-1.68-1.362-3.042-3.042-3.042s-3.042 1.362-3.042 3.042 1.362 3.042 3.042 3.042 3.042-1.362 3.042-3.042z"/><circle cx="221.099" cy="395.971" r="3.042"/><path d="m234.316 405.407c0-1.68-1.362-3.042-3.042-3.042s-3.042 1.362-3.042 3.042 1.362 3.042 3.042 3.042 3.042-1.361 3.042-3.042z"/><path d="m224.141 415.583c0-1.68-1.362-3.042-3.042-3.042s-3.042 1.362-3.042 3.042c0 .044.011.085.013.129 1.851.536 3.721 1.026 5.614 1.457.285-.463.457-1.003.457-1.586z"/><path d="m198.445 395.971c0 1.68 1.362 3.042 3.042 3.042s3.042-1.362 3.042-3.042-1.362-3.042-3.042-3.042c-1.68-.001-3.042 1.361-3.042 3.042z"/><path d="m211.662 402.366c-1.68 0-3.042 1.362-3.042 3.042s1.362 3.042 3.042 3.042 3.042-1.362 3.042-3.042c0-1.681-1.362-3.042-3.042-3.042z"/><path d="m184.917 395.971c0-1.68-1.362-3.042-3.042-3.042-1.085 0-2.031.573-2.57 1.428 1.501 1.327 3.041 2.611 4.62 3.848.606-.557.992-1.347.992-2.234z"/><path d="m195.092 405.407c0-1.68-1.362-3.042-3.042-3.042-.619 0-1.194.187-1.674.505 1.529 1.016 3.092 1.986 4.678 2.919.016-.126.038-.251.038-.382z"/><path d="m162.262 373.316c-.332 0-.645.066-.944.164 1.054 1.627 2.156 3.22 3.3 4.78.423-.522.686-1.178.686-1.903 0-1.679-1.361-3.041-3.042-3.041z"/><path d="m175.48 385.795c0-1.68-1.362-3.042-3.042-3.042-1.252 0-2.325.757-2.792 1.837 1.204 1.396 2.446 2.758 3.724 4.086 1.221-.395 2.11-1.528 2.11-2.881z"/></g><path d="m357.015 4.044c-3.826-1.996-7.718-3.361-10.959-3.844-6.676-.996-9.288 1.956-10.251 3.803l-45.312 86.852c-1.512-1.494-3.089-2.927-4.745-4.275-.118-.096-.242-.186-.361-.281 6.368-5.987 10.363-14.47 10.363-23.879 0-12.003-6.483-22.515-16.127-28.235 2.979-6.95 9.533-16.383 12.508-19.488 1.533-1.6 1.478-4.14-.121-5.672-1.6-1.532-4.139-1.479-5.673.121-3.766 3.93-10.658 13.913-14.066 21.825-2.959-.88-6.089-1.359-9.33-1.359-18.09 0-32.808 14.718-32.808 32.808 0 3.612.6 7.083 1.684 10.335-10.912 1.994-21.253 6.685-29.929 13.706-10.938 8.854-18.852 21.045-22.476 34.546-21.545 5.172-36.921 24.492-36.921 46.899 0 1.496.095 2.968.232 4.428-.159.118-.318.235-.46.377-.754.753-1.178 1.774-1.178 2.84v142.992c0 46.965 30.943 86.835 73.512 100.303-5.524 3.157-9.264 9.095-9.264 15.901v.696c0 10.087 8.196 18.292 18.278 18.311v4.742c0 3.371-2.742 6.113-6.113 6.113h-11.996c-23.416 0-42.466 19.05-42.466 42.466 0 1.064.423 2.084 1.175 2.837.753.752 1.773 1.175 2.837 1.175h157.479c2.215 0 4.012-1.796 4.012-4.012 0-23.416-19.05-42.466-42.466-42.466h-11.996c-3.371 0-6.113-2.743-6.113-6.113v-4.742c10.081-.019 18.278-8.225 18.278-18.311v-.696c0-6.67-3.595-12.5-8.938-15.703 42.891-13.275 74.137-53.306 74.137-100.501v-142.994c0-2.215-1.796-4.012-4.012-4.012-.031 0-.062.005-.093.005.096-1.202.164-2.411.164-3.637 0-20.457-12.935-38.079-31.442-44.658l53.125-101.83c3.334-6.389-4.1-13.163-12.168-17.373zm-94.074 33.591c13.666 0 24.785 11.118 24.785 24.785 0 7.702-3.54 14.584-9.068 19.133-10.439-6.42-22.561-9.892-34.914-9.892-1.25 0-2.495.049-3.739.119-1.185-2.891-1.848-6.048-1.848-9.36-.001-13.667 11.117-24.785 24.784-24.785zm-113.832 280.906v-138.974c7.053.012 22.808.038 42.502.066v129.917c0 49.399 15.264 90.22 36.946 104.523-45.145-8.347-79.448-48.007-79.448-95.532zm97.017 93.021c-.113-.01-.222-.034-.338-.034-25.017 0-46.152-46.701-46.152-101.978v-129.906c14.418.019 30.448.038 46.488.052 16.032.014 32.062.023 46.492.024v129.83c0 55.278-21.135 101.978-46.153 101.978-.115 0-.224.024-.337.034zm27.951 61.069h11.996c17.634 0 32.216 13.323 34.21 30.431l-148.991-.001c1.994-17.108 16.576-30.43 34.21-30.43h11.996c7.795 0 14.137-6.342 14.137-14.137v-4.535h28.304v4.535c.001 7.795 6.343 14.137 14.138 14.137zm4.141-37.191c0 5.674-4.616 10.29-10.289 10.29h-44.281c-5.674 0-10.29-4.616-10.29-10.29v-.696c0-5.674 4.616-10.29 10.29-10.29h44.281c5.673 0 10.289 4.616 10.289 10.29zm65.199-116.899c0 47.663-34.5 87.418-79.839 95.607 21.744-14.233 37.062-55.111 37.062-104.598v-129.829c5.324-.001 10.366-.003 15.025-.007 9.499-.009 17.423-.024 22.983-.048 1.92-.009 3.485-.016 4.768-.029v138.904zm-3.941-150.636c0 1.263-.083 2.504-.202 3.736-28.682.133-128.709.01-188.57-.094-.111-1.201-.189-2.412-.189-3.642 0-19.414 13.842-36.047 32.912-39.551 1.579-.29 2.834-1.494 3.188-3.06 6.075-26.854 29.567-45.61 57.128-45.61 27.291 0 51.35 19.324 57.206 45.947.37 1.681 1.77 2.938 3.481 3.126 19.98 2.192 35.046 19.021 35.046 39.148zm-31.365-46.772c-2.31-8.676-6.396-16.805-11.912-23.868l3.392-6.502 26.699-4.475zm22.829-43.76-26.699 4.475 10.741-20.588 26.698-4.475zm15.392-29.503-26.698 4.475 10.638-20.39 26.698-4.475zm15.289-29.305-26.698 4.475 7.81-14.97c1.243-.291 5.201.287 10.571 3.088 5.37 2.802 8.104 5.719 8.58 6.903z" fill="#31373d"/></g></svg>