<svg id="Capa_1" enable-background="new 0 0 511.297 511.297" height="512" viewBox="0 0 511.297 511.297" width="512" xmlns="http://www.w3.org/2000/svg"><g><path d="m350.209 34.956c-15.47-15.754-37.684-23.317-56.911-16.982l-81.148 26.737c-43.286-40.563-194.678 88.816-163.206 138.665l-39.96 78.36c-10.158 19.919-4.108 46.021 12.537 64.187 4.864 95.747 79.537 162.997 121.159 168.731 53.766 7.407 25.365-33.587 25.365-33.587-16.405-28.131-23.971-52.097-26.42-71.992 15.622 1.274 29.728-6.211 35.925-20.67l17.559-40.967c10.581.511 20.762-2.491 28.754-9.343l93.996-80.589c7.732-6.629 12.228-15.829 13.518-25.96l41.602-10.695c16.734-4.302 26.605-19.318 25.992-37.037 20.174 4.994 44.112 16.208 71.232 38.194 0 0 36.177 34.327 37.066-19.94.71-43.307-57.825-131.305-157.06-147.112z" fill="#eaa895"/><g fill="#f9fbfc"><g><path d="m163.09 454.774c-1.723 0-3.119 1.397-3.119 3.12s1.397 3.119 3.119 3.119c1.723 0 3.119-1.396 3.119-3.119 0-.017-.005-.033-.005-.051-.487-.861-.967-1.719-1.438-2.573-.485-.31-1.058-.496-1.676-.496z"/><path d="m163.09 474.884c-1.723 0-3.119 1.397-3.119 3.12s1.397 3.119 3.119 3.119c1.723 0 3.119-1.396 3.119-3.119s-1.396-3.12-3.119-3.12z"/><path d="m173.523 484.56c-1.723 0-3.119 1.397-3.119 3.119 0 1.204.689 2.236 1.688 2.756 1.584-1.578 2.544-3.427 3.032-5.421-.469-.281-1.013-.454-1.601-.454z"/><path d="m139.861 397.564c0 1.723 1.397 3.119 3.119 3.119.195 0 .384-.023.57-.057-.436-2.081-.812-4.119-1.142-6.123-1.449.269-2.547 1.534-2.547 3.061z"/><path d="m142.98 414.554c-1.723 0-3.119 1.397-3.119 3.12s1.397 3.119 3.119 3.119c1.723 0 3.119-1.396 3.119-3.119s-1.396-3.12-3.119-3.12z"/><path d="m150.294 427.35c0 1.516 1.082 2.776 2.514 3.058-.672-1.65-1.301-3.276-1.909-4.89-.376.516-.605 1.145-.605 1.832z"/><path d="m142.98 434.664c-1.723 0-3.119 1.397-3.119 3.12s1.397 3.119 3.119 3.119c1.723 0 3.119-1.396 3.119-3.119s-1.396-3.12-3.119-3.12z"/><path d="m153.414 444.341c-1.722 0-3.119 1.397-3.119 3.12s1.397 3.119 3.119 3.119c1.723 0 3.119-1.396 3.119-3.119 0-1.724-1.397-3.12-3.119-3.12z"/><path d="m142.98 454.774c-1.723 0-3.119 1.397-3.119 3.12s1.397 3.119 3.119 3.119c1.723 0 3.119-1.396 3.119-3.119s-1.396-3.12-3.119-3.12z"/><path d="m153.414 464.451c-1.722 0-3.119 1.397-3.119 3.12s1.397 3.119 3.119 3.119c1.723 0 3.119-1.396 3.119-3.119 0-1.724-1.397-3.12-3.119-3.12z"/><path d="m142.98 474.884c-1.723 0-3.119 1.397-3.119 3.12s1.397 3.119 3.119 3.119c1.723 0 3.119-1.396 3.119-3.119s-1.396-3.12-3.119-3.12z"/><path d="m122.843 474.884c-1.723 0-3.119 1.397-3.119 3.12s1.396 3.119 3.119 3.119 3.119-1.396 3.119-3.119-1.396-3.12-3.119-3.12z"/><path d="m156.533 487.68c0-1.723-1.397-3.119-3.119-3.119s-3.119 1.397-3.119 3.119c0 1.723 1.397 3.119 3.119 3.119s3.119-1.396 3.119-3.119z"/><path d="m122.87 394.445c-1.723 0-3.119 1.397-3.119 3.12s1.397 3.119 3.119 3.119c1.723 0 3.119-1.396 3.119-3.119.001-1.724-1.396-3.12-3.119-3.12z"/><path d="m133.304 410.36c1.723 0 3.119-1.396 3.119-3.119s-1.396-3.12-3.119-3.12-3.119 1.397-3.119 3.12c-.001 1.722 1.396 3.119 3.119 3.119z"/><path d="m133.304 430.469c1.723 0 3.119-1.396 3.119-3.119s-1.396-3.12-3.119-3.12-3.119 1.397-3.119 3.12 1.396 3.119 3.119 3.119z"/><path d="m122.87 420.766c1.723 0 3.119-1.396 3.119-3.119s-1.396-3.12-3.119-3.12-3.119 1.397-3.119 3.12 1.397 3.119 3.119 3.119z"/><path d="m130.184 487.68c0 1.723 1.397 3.119 3.119 3.119 1.723 0 3.119-1.396 3.119-3.119s-1.396-3.119-3.119-3.119c-1.722-.001-3.119 1.396-3.119 3.119z"/><path d="m113.194 390.25c1.723 0 3.119-1.396 3.119-3.119s-1.396-3.12-3.119-3.12-3.119 1.397-3.119 3.12 1.396 3.119 3.119 3.119z"/></g><g><path d="m503.305 158.881c-.393-1.228-.811-2.469-1.26-3.723-.127.34-.206.704-.206 1.087-.001 1.114.587 2.084 1.466 2.636z"/><path d="m504.958 173.236c-1.723 0-3.119 1.397-3.119 3.12s1.397 3.119 3.119 3.119c.876 0 1.665-.363 2.232-.945-.081-1.529-.228-3.103-.44-4.722-.508-.358-1.124-.572-1.792-.572z"/><path d="m504.958 193.346c-1.723 0-3.119 1.397-3.119 3.12s1.397 3.119 3.119 3.119c.059 0 .114-.014.172-.017.491-1.743.909-3.692 1.242-5.868-.427-.219-.902-.354-1.414-.354z"/><path d="m484.848 133.016c-1.723 0-3.119 1.397-3.119 3.12s1.397 3.119 3.119 3.119c1.723 0 3.119-1.396 3.119-3.119s-1.396-3.12-3.119-3.12z"/><path d="m495.281 142.693c-1.723 0-3.119 1.397-3.119 3.12s1.397 3.119 3.119 3.119c1.639 0 2.968-1.269 3.095-2.876-.411-.919-.838-1.842-1.277-2.77-.512-.37-1.137-.593-1.818-.593z"/><path d="m484.848 159.365c1.723 0 3.119-1.396 3.119-3.119s-1.397-3.12-3.119-3.12c-1.723 0-3.119 1.397-3.119 3.12 0 1.722 1.396 3.119 3.119 3.119z"/><path d="m495.281 162.802c-1.723 0-3.119 1.397-3.119 3.12s1.397 3.119 3.119 3.119c1.723 0 3.119-1.396 3.119-3.119s-1.396-3.12-3.119-3.12z"/><path d="m484.848 179.475c1.723 0 3.119-1.396 3.119-3.119s-1.397-3.12-3.119-3.12c-1.723 0-3.119 1.397-3.119 3.12 0 1.722 1.396 3.119 3.119 3.119z"/><path d="m495.281 189.151c1.723 0 3.119-1.396 3.119-3.119s-1.397-3.12-3.119-3.12c-1.723 0-3.119 1.397-3.119 3.12s1.397 3.119 3.119 3.119z"/><path d="m484.848 199.584c1.723 0 3.119-1.396 3.119-3.119s-1.397-3.12-3.119-3.12c-1.723 0-3.119 1.397-3.119 3.12s1.396 3.119 3.119 3.119z"/><path d="m495.281 209.261c1.723 0 3.119-1.396 3.119-3.119s-1.397-3.12-3.119-3.12c-1.723 0-3.119 1.397-3.119 3.12s1.397 3.119 3.119 3.119z"/><path d="m475.172 162.802c-1.723 0-3.119 1.397-3.119 3.12s1.397 3.119 3.119 3.119c1.723 0 3.119-1.396 3.119-3.119s-1.397-3.12-3.119-3.12z"/><path d="m464.738 179.475c1.723 0 3.119-1.396 3.119-3.119s-1.397-3.12-3.119-3.12c-1.723 0-3.119 1.397-3.119 3.12 0 1.722 1.396 3.119 3.119 3.119z"/><path d="m475.172 182.912c-1.723 0-3.119 1.397-3.119 3.12s1.397 3.119 3.119 3.119c1.723 0 3.119-1.396 3.119-3.119s-1.397-3.12-3.119-3.12z"/><path d="m467.857 196.465c0-1.723-1.397-3.12-3.119-3.12-1.368 0-2.518.887-2.939 2.113 1.55 1.16 3.113 2.359 4.686 3.59.828-.559 1.372-1.507 1.372-2.583z"/><path d="m478.291 206.142c0-1.723-1.397-3.12-3.119-3.12-.98 0-1.844.462-2.416 1.169 1.306 1.048 3.043 2.346 5.047 3.613.305-.482.488-1.049.488-1.662z"/><path d="m444.628 153.126c-1.723 0-3.119 1.397-3.119 3.12s1.397 3.119 3.119 3.119c1.723 0 3.119-1.396 3.119-3.119.001-1.723-1.396-3.12-3.119-3.12z"/><path d="m455.062 162.802c-1.723 0-3.119 1.397-3.119 3.12s1.397 3.119 3.119 3.119c1.723 0 3.119-1.396 3.119-3.119s-1.397-3.12-3.119-3.12z"/><path d="m464.761 153.188c-1.723 0-3.119 1.397-3.119 3.12s1.397 3.119 3.119 3.119c1.723 0 3.119-1.396 3.119-3.119s-1.397-3.12-3.119-3.12z"/><path d="m475.134 142.73c-1.723 0-3.119 1.397-3.119 3.12s1.397 3.119 3.119 3.119c1.723 0 3.119-1.396 3.119-3.119s-1.396-3.12-3.119-3.12z"/><path d="m475.134 122.657c-1.723 0-3.119 1.397-3.119 3.12s1.397 3.119 3.119 3.119c1.723 0 3.119-1.396 3.119-3.119s-1.396-3.12-3.119-3.12z"/><path d="m444.628 173.236c-1.723 0-3.119 1.397-3.119 3.12s1.397 3.119 3.119 3.119c1.723 0 3.119-1.396 3.119-3.119.001-1.723-1.396-3.12-3.119-3.12z"/><path d="m455.062 182.912c-1.723 0-3.119 1.397-3.119 3.12s1.397 3.119 3.119 3.119c1.723 0 3.119-1.396 3.119-3.119s-1.397-3.12-3.119-3.12z"/><path d="m421.399 156.246c0 1.723 1.397 3.119 3.119 3.119 1.723 0 3.119-1.396 3.119-3.119s-1.397-3.12-3.119-3.12-3.119 1.397-3.119 3.12z"/><path d="m434.952 162.802c-1.723 0-3.119 1.397-3.119 3.12s1.397 3.119 3.119 3.119c1.723 0 3.119-1.396 3.119-3.119s-1.396-3.12-3.119-3.12z"/><path d="m411.723 145.812c0 1.723 1.397 3.119 3.119 3.119 1.723 0 3.119-1.396 3.119-3.119s-1.396-3.12-3.119-3.12c-1.723.001-3.119 1.397-3.119 3.12z"/><path d="m401.265 136.113c0 1.723 1.397 3.119 3.119 3.119 1.723 0 3.119-1.396 3.119-3.119s-1.396-3.12-3.119-3.12c-1.723.001-3.119 1.397-3.119 3.12z"/><path d="m431.795 145.812c0 1.723 1.397 3.119 3.119 3.119 1.723 0 3.119-1.396 3.119-3.119s-1.396-3.12-3.119-3.12c-1.722.001-3.119 1.397-3.119 3.12z"/><path d="m404.408 153.126c-1.723 0-3.119 1.397-3.119 3.12s1.396 3.119 3.119 3.119 3.119-1.396 3.119-3.119c.001-1.723-1.396-3.12-3.119-3.12z"/><path d="m417.961 165.922c0-1.723-1.396-3.12-3.119-3.12s-3.119 1.397-3.119 3.12c0 .772.291 1.469.756 2.014.936.339 1.879.692 2.829 1.058 1.5-.226 2.653-1.509 2.653-3.072z"/></g><g><path d="m183.2 334.115c-1.723 0-3.119 1.397-3.119 3.12s1.396 3.119 3.119 3.119 3.119-1.396 3.119-3.119-1.396-3.12-3.119-3.12z"/><path d="m180.081 357.344c0 .982.463 1.847 1.172 2.419l2.356-5.497c-.135-.018-.268-.041-.409-.041-1.723 0-3.119 1.397-3.119 3.119z"/><path d="m162.692 314.045c-1.533.197-2.721 1.493-2.721 3.079 0 1.723 1.397 3.119 3.119 3.119 1.723 0 3.119-1.396 3.119-3.119 0-.228-.028-.45-.074-.664-1.17-.771-2.319-1.575-3.443-2.415z"/><path d="m173.523 323.681c-1.723 0-3.119 1.397-3.119 3.12s1.397 3.119 3.119 3.119c1.723 0 3.119-1.396 3.119-3.119.001-1.723-1.396-3.12-3.119-3.12z"/><path d="m163.09 334.115c-1.723 0-3.119 1.397-3.119 3.12s1.397 3.119 3.119 3.119c1.723 0 3.119-1.396 3.119-3.119s-1.396-3.12-3.119-3.12z"/><path d="m173.523 343.791c-1.723 0-3.119 1.397-3.119 3.119 0 1.723 1.397 3.119 3.119 3.119 1.723 0 3.119-1.396 3.119-3.119.001-1.722-1.396-3.119-3.119-3.119z"/><path d="m163.09 354.225c-1.723 0-3.119 1.397-3.119 3.12s1.397 3.119 3.119 3.119c1.723 0 3.119-1.396 3.119-3.119s-1.396-3.12-3.119-3.12z"/><path d="m173.523 370.14c1.723 0 3.119-1.396 3.119-3.119s-1.397-3.12-3.119-3.12c-1.723 0-3.119 1.397-3.119 3.12s1.397 3.119 3.119 3.119z"/><path d="m163.09 374.335c-1.723 0-3.119 1.397-3.119 3.12s1.397 3.119 3.119 3.119c1.723 0 3.119-1.396 3.119-3.119 0-1.724-1.396-3.12-3.119-3.12z"/><path d="m151.804 304.031c-.902.547-1.51 1.529-1.51 2.66 0 1.723 1.397 3.119 3.119 3.119 1.086 0 2.04-.556 2.599-1.397-1.462-1.396-2.86-2.864-4.208-4.382z"/><path d="m142.98 314.005c-1.723 0-3.119 1.397-3.119 3.12s1.397 3.119 3.119 3.119c1.723 0 3.119-1.396 3.119-3.119s-1.396-3.12-3.119-3.12z"/><path d="m133.286 323.699c-1.723 0-3.119 1.397-3.119 3.119 0 1.723 1.396 3.119 3.119 3.119s3.119-1.396 3.119-3.119c.001-1.722-1.396-3.119-3.119-3.119z"/><path d="m153.414 323.681c-1.722 0-3.119 1.397-3.119 3.12s1.397 3.119 3.119 3.119c1.723 0 3.119-1.396 3.119-3.119s-1.397-3.12-3.119-3.12z"/><path d="m142.98 334.115c-1.723 0-3.119 1.397-3.119 3.12s1.397 3.119 3.119 3.119c1.723 0 3.119-1.396 3.119-3.119s-1.396-3.12-3.119-3.12z"/><path d="m153.414 343.791c-1.722 0-3.119 1.397-3.119 3.119 0 1.723 1.397 3.119 3.119 3.119 1.723 0 3.119-1.396 3.119-3.119 0-1.722-1.397-3.119-3.119-3.119z"/><path d="m142.98 354.225c-1.723 0-3.119 1.397-3.119 3.12s1.397 3.119 3.119 3.119c1.723 0 3.119-1.396 3.119-3.119s-1.396-3.12-3.119-3.12z"/><path d="m153.414 363.901c-1.722 0-3.119 1.397-3.119 3.12s1.397 3.119 3.119 3.119c1.723 0 3.119-1.396 3.119-3.119s-1.397-3.12-3.119-3.12z"/><path d="m142.98 374.335c-1.723 0-3.119 1.397-3.119 3.12s1.397 3.119 3.119 3.119c1.723 0 3.119-1.396 3.119-3.119 0-1.724-1.396-3.12-3.119-3.12z"/><path d="m156.533 387.131c0-1.723-1.397-3.12-3.119-3.12s-3.119 1.397-3.119 3.12c0 .612.183 1.179.488 1.661 1.959-.288 3.869-.723 5.715-1.303.013-.119.035-.236.035-.358z"/><path d="m133.304 343.791c-1.723 0-3.119 1.397-3.119 3.119 0 1.723 1.397 3.119 3.119 3.119 1.723 0 3.119-1.396 3.119-3.119 0-1.722-1.396-3.119-3.119-3.119z"/><path d="m122.87 354.225c-1.723 0-3.119 1.397-3.119 3.12s1.397 3.119 3.119 3.119c1.723 0 3.119-1.396 3.119-3.119.001-1.723-1.396-3.12-3.119-3.12z"/><path d="m133.304 363.901c-1.723 0-3.119 1.397-3.119 3.12s1.397 3.119 3.119 3.119c1.723 0 3.119-1.396 3.119-3.119s-1.396-3.12-3.119-3.12z"/><path d="m122.87 374.335c-1.723 0-3.119 1.397-3.119 3.12s1.397 3.119 3.119 3.119c1.723 0 3.119-1.396 3.119-3.119.001-1.724-1.396-3.12-3.119-3.12z"/><path d="m136.423 387.131c0-1.723-1.396-3.12-3.119-3.12-1.549 0-2.825 1.132-3.068 2.612 1.991.694 3.982 1.249 5.961 1.661.143-.358.226-.745.226-1.153z"/><path d="m110.075 367.021c0 1.723 1.397 3.119 3.119 3.119 1.723 0 3.119-1.396 3.119-3.119s-1.396-3.12-3.119-3.12-3.119 1.397-3.119 3.12z"/></g><g><path d="m384.299 133.016c-1.723 0-3.119 1.397-3.119 3.12s1.397 3.119 3.119 3.119c1.723 0 3.119-1.396 3.119-3.119s-1.397-3.12-3.119-3.12z"/><path d="m374.6 142.715c-1.723 0-3.119 1.397-3.119 3.12s1.397 3.119 3.119 3.119c1.723 0 3.119-1.396 3.119-3.119s-1.397-3.12-3.119-3.12z"/><path d="m391.613 145.812c0 1.723 1.397 3.119 3.119 3.119.451 0 .877-.1 1.264-.272l-1.994-5.871c-1.369.33-2.389 1.554-2.389 3.024z"/><path d="m384.299 153.126c-1.723 0-3.119 1.397-3.119 3.12s1.397 3.119 3.119 3.119c1.723 0 3.119-1.396 3.119-3.119s-1.397-3.12-3.119-3.12z"/><path d="m391.613 165.922c0 1.723 1.397 3.119 3.119 3.119 1.723 0 3.119-1.396 3.119-3.119s-1.397-3.12-3.119-3.12-3.119 1.397-3.119 3.12z"/><path d="m384.299 173.236c-1.723 0-3.119 1.397-3.119 3.12s1.397 3.119 3.119 3.119c1.723 0 3.119-1.396 3.119-3.119s-1.397-3.12-3.119-3.12z"/><path d="m364.189 153.126c-1.723 0-3.119 1.397-3.119 3.12s1.397 3.119 3.119 3.119 3.119-1.396 3.119-3.119-1.396-3.12-3.119-3.12z"/><path d="m374.622 162.802c-1.723 0-3.119 1.397-3.119 3.12s1.397 3.119 3.119 3.119c1.723 0 3.119-1.396 3.119-3.119s-1.396-3.12-3.119-3.12z"/><path d="m364.189 173.236c-1.723 0-3.119 1.397-3.119 3.12s1.397 3.119 3.119 3.119 3.119-1.396 3.119-3.119-1.396-3.12-3.119-3.12z"/><path d="m374.622 182.912c-1.723 0-3.119 1.397-3.119 3.12s1.397 3.119 3.119 3.119c1.723 0 3.119-1.396 3.119-3.119.001-1.723-1.396-3.12-3.119-3.12z"/><path d="m364.189 193.346c-1.723 0-3.119 1.397-3.119 3.12s1.397 3.119 3.119 3.119 3.119-1.396 3.119-3.119-1.396-3.12-3.119-3.12z"/><path d="m354.512 162.802c-1.723 0-3.119 1.397-3.119 3.12s1.397 3.119 3.119 3.119c1.723 0 3.119-1.396 3.119-3.119s-1.396-3.12-3.119-3.12z"/><path d="m344.079 173.236c-1.723 0-3.119 1.397-3.119 3.12s1.396 3.119 3.119 3.119 3.119-1.396 3.119-3.119-1.396-3.12-3.119-3.12z"/><path d="m354.512 182.912c-1.723 0-3.119 1.397-3.119 3.12s1.397 3.119 3.119 3.119c1.723 0 3.119-1.396 3.119-3.119.001-1.723-1.396-3.12-3.119-3.12z"/><path d="m344.079 193.346c-1.723 0-3.119 1.397-3.119 3.12s1.396 3.119 3.119 3.119 3.119-1.396 3.119-3.119-1.396-3.12-3.119-3.12z"/><path d="m354.512 203.022c-1.723 0-3.119 1.397-3.119 3.12 0 .086.018.167.025.25l5.935-1.526c-.488-1.085-1.573-1.844-2.841-1.844z"/><path d="m334.402 162.802c-1.722 0-3.119 1.397-3.119 3.12s1.397 3.119 3.119 3.119c1.723 0 3.119-1.396 3.119-3.119s-1.396-3.12-3.119-3.12z"/><path d="m334.402 182.912c-1.722 0-3.119 1.397-3.119 3.12s1.397 3.119 3.119 3.119c1.723 0 3.119-1.396 3.119-3.119.001-1.723-1.396-3.12-3.119-3.12z"/><path d="m334.402 203.022c-1.722 0-3.119 1.397-3.119 3.12s1.397 3.119 3.119 3.119c1.723 0 3.119-1.396 3.119-3.119.001-1.723-1.396-3.12-3.119-3.12z"/></g><g><path d="m320.85 176.356c0 1.723 1.397 3.119 3.119 3.119.456 0 .886-.103 1.277-.279-.927-1.82-1.954-3.615-3.078-5.38-.795.565-1.318 1.489-1.318 2.54z"/><path d="m320.85 196.465c0 1.723 1.397 3.119 3.119 3.119 1.723 0 3.119-1.396 3.119-3.119s-1.397-3.12-3.119-3.12c-1.723.001-3.119 1.398-3.119 3.12z"/><path d="m331.283 206.142c0 .558.159 1.074.415 1.528.049-1.049.076-2.102.059-3.164-.295.476-.474 1.033-.474 1.636z"/><path d="m323.969 219.694c1.723 0 3.119-1.396 3.119-3.119s-1.397-3.12-3.119-3.12c-1.723 0-3.119 1.397-3.119 3.12s1.396 3.119 3.119 3.119z"/><path d="m303.859 153.126c-1.723 0-3.119 1.397-3.119 3.12s1.397 3.119 3.119 3.119c1.723 0 3.119-1.396 3.119-3.119s-1.396-3.12-3.119-3.12z"/><path d="m313.665 162.866c-1.422.291-2.492 1.548-2.492 3.056 0 1.723 1.397 3.119 3.119 3.119 1.334 0 2.463-.841 2.91-2.018-.211-.254-.412-.512-.628-.764z"/><path d="m303.859 173.236c-1.723 0-3.119 1.397-3.119 3.12s1.397 3.119 3.119 3.119c1.723 0 3.119-1.396 3.119-3.119s-1.396-3.12-3.119-3.12z"/><path d="m294.152 162.813c-1.723 0-3.119 1.397-3.119 3.12s1.397 3.119 3.119 3.119c1.723 0 3.119-1.396 3.119-3.119.001-1.723-1.396-3.12-3.119-3.12z"/><path d="m314.293 182.912c-1.723 0-3.119 1.397-3.119 3.12s1.397 3.119 3.119 3.119c1.723 0 3.119-1.396 3.119-3.119s-1.397-3.12-3.119-3.12z"/><path d="m303.859 193.346c-1.723 0-3.119 1.397-3.119 3.12s1.397 3.119 3.119 3.119c1.723 0 3.119-1.396 3.119-3.119s-1.396-3.12-3.119-3.12z"/><path d="m314.293 203.022c-1.723 0-3.119 1.397-3.119 3.12s1.397 3.119 3.119 3.119c1.723 0 3.119-1.396 3.119-3.119s-1.397-3.12-3.119-3.12z"/><path d="m303.859 213.456c-1.723 0-3.119 1.397-3.119 3.12s1.397 3.119 3.119 3.119c1.723 0 3.119-1.396 3.119-3.119s-1.396-3.12-3.119-3.12z"/><path d="m314.293 223.132c-1.723 0-3.119 1.397-3.119 3.12s1.397 3.119 3.119 3.119c1.723 0 3.119-1.396 3.119-3.119s-1.397-3.12-3.119-3.12z"/><path d="m303.859 233.566c-1.723 0-3.119 1.397-3.119 3.12s1.397 3.119 3.119 3.119c1.723 0 3.119-1.396 3.119-3.119 0-1.724-1.396-3.12-3.119-3.12z"/><path d="m294.183 142.693c-1.723 0-3.119 1.397-3.119 3.12s1.397 3.119 3.119 3.119c1.723 0 3.119-1.396 3.119-3.119 0-1.724-1.397-3.12-3.119-3.12z"/><path d="m294.183 182.912c-1.723 0-3.119 1.397-3.119 3.12s1.397 3.119 3.119 3.119c1.723 0 3.119-1.396 3.119-3.119s-1.397-3.12-3.119-3.12z"/><path d="m283.749 193.346c-1.723 0-3.119 1.397-3.119 3.12s1.397 3.119 3.119 3.119c1.723 0 3.119-1.396 3.119-3.119.001-1.723-1.396-3.12-3.119-3.12z"/><path d="m294.183 203.022c-1.723 0-3.119 1.397-3.119 3.12s1.397 3.119 3.119 3.119c1.723 0 3.119-1.396 3.119-3.119s-1.397-3.12-3.119-3.12z"/><path d="m283.749 213.456c-1.723 0-3.119 1.397-3.119 3.12s1.397 3.119 3.119 3.119c1.723 0 3.119-1.396 3.119-3.119s-1.396-3.12-3.119-3.12z"/><path d="m294.183 223.132c-1.723 0-3.119 1.397-3.119 3.12s1.397 3.119 3.119 3.119c1.723 0 3.119-1.396 3.119-3.119s-1.397-3.12-3.119-3.12z"/><path d="m283.749 233.566c-1.723 0-3.119 1.397-3.119 3.12s1.397 3.119 3.119 3.119c1.723 0 3.119-1.396 3.119-3.119.001-1.724-1.396-3.12-3.119-3.12z"/><path d="m294.183 243.242c-1.723 0-3.119 1.397-3.119 3.12s1.397 3.119 3.119 3.119c1.723 0 3.119-1.396 3.119-3.119s-1.397-3.12-3.119-3.12z"/><path d="m283.749 253.675c-1.723 0-3.119 1.397-3.119 3.12s1.397 3.119 3.119 3.119c1.723 0 3.119-1.396 3.119-3.119.001-1.723-1.396-3.12-3.119-3.12z"/><path d="m274.073 203.022c-1.723 0-3.119 1.397-3.119 3.12s1.397 3.119 3.119 3.119c1.723 0 3.119-1.396 3.119-3.119s-1.396-3.12-3.119-3.12z"/><path d="m263.639 213.456c-1.723 0-3.119 1.397-3.119 3.12s1.397 3.119 3.119 3.119c1.723 0 3.119-1.396 3.119-3.119s-1.396-3.12-3.119-3.12z"/><path d="m274.073 223.132c-1.723 0-3.119 1.397-3.119 3.12s1.397 3.119 3.119 3.119c1.723 0 3.119-1.396 3.119-3.119s-1.396-3.12-3.119-3.12z"/><path d="m263.639 233.566c-1.723 0-3.119 1.397-3.119 3.12s1.397 3.119 3.119 3.119c1.723 0 3.119-1.396 3.119-3.119.001-1.724-1.396-3.12-3.119-3.12z"/><path d="m274.073 243.242c-1.723 0-3.119 1.397-3.119 3.12s1.397 3.119 3.119 3.119c1.723 0 3.119-1.396 3.119-3.119s-1.396-3.12-3.119-3.12z"/><path d="m263.639 253.675c-1.723 0-3.119 1.397-3.119 3.12s1.397 3.119 3.119 3.119c1.723 0 3.119-1.396 3.119-3.119.001-1.723-1.396-3.12-3.119-3.12z"/><path d="m274.073 263.352c-1.723 0-3.119 1.397-3.119 3.12s1.397 3.119 3.119 3.119c1.723 0 3.119-1.396 3.119-3.119s-1.396-3.12-3.119-3.12z"/><path d="m263.639 273.785c-1.723 0-3.119 1.397-3.119 3.12s1.397 3.119 3.119 3.119c1.723 0 3.119-1.396 3.119-3.119s-1.396-3.12-3.119-3.12z"/><path d="m253.963 223.132c-1.723 0-3.119 1.397-3.119 3.12s1.397 3.119 3.119 3.119c1.723 0 3.119-1.396 3.119-3.119s-1.396-3.12-3.119-3.12z"/><path d="m243.529 233.566c-1.723 0-3.119 1.397-3.119 3.12s1.396 3.119 3.119 3.119 3.119-1.396 3.119-3.119c.001-1.724-1.396-3.12-3.119-3.12z"/><path d="m253.963 243.242c-1.723 0-3.119 1.397-3.119 3.12s1.397 3.119 3.119 3.119c1.723 0 3.119-1.396 3.119-3.119s-1.396-3.12-3.119-3.12z"/><path d="m243.529 253.675c-1.723 0-3.119 1.397-3.119 3.12s1.396 3.119 3.119 3.119 3.119-1.396 3.119-3.119c.001-1.723-1.396-3.12-3.119-3.12z"/><path d="m253.963 263.352c-1.723 0-3.119 1.397-3.119 3.12s1.397 3.119 3.119 3.119c1.723 0 3.119-1.396 3.119-3.119s-1.396-3.12-3.119-3.12z"/><path d="m243.529 273.785c-1.723 0-3.119 1.397-3.119 3.12s1.396 3.119 3.119 3.119 3.119-1.396 3.119-3.119-1.396-3.12-3.119-3.12z"/><path d="m253.963 283.462c-1.723 0-3.119 1.397-3.119 3.12s1.397 3.119 3.119 3.119c1.723 0 3.119-1.396 3.119-3.119s-1.396-3.12-3.119-3.12z"/><path d="m243.529 293.895c-1.723 0-3.119 1.397-3.119 3.12s1.396 3.119 3.119 3.119 3.119-1.396 3.119-3.119-1.396-3.12-3.119-3.12z"/><path d="m233.853 243.242c-1.722 0-3.119 1.397-3.119 3.12s1.397 3.119 3.119 3.119c1.723 0 3.119-1.396 3.119-3.119s-1.396-3.12-3.119-3.12z"/><path d="m223.42 253.675c-1.723 0-3.119 1.397-3.119 3.12s1.397 3.119 3.119 3.119c1.723 0 3.119-1.396 3.119-3.119s-1.397-3.12-3.119-3.12z"/><path d="m233.853 263.352c-1.722 0-3.119 1.397-3.119 3.12s1.397 3.119 3.119 3.119c1.723 0 3.119-1.396 3.119-3.119s-1.396-3.12-3.119-3.12z"/><path d="m223.42 273.785c-1.723 0-3.119 1.397-3.119 3.12s1.397 3.119 3.119 3.119c1.723 0 3.119-1.396 3.119-3.119s-1.397-3.12-3.119-3.12z"/><path d="m233.853 283.462c-1.722 0-3.119 1.397-3.119 3.12s1.397 3.119 3.119 3.119c1.723 0 3.119-1.396 3.119-3.119s-1.396-3.12-3.119-3.12z"/><path d="m223.42 293.895c-1.723 0-3.119 1.397-3.119 3.12s1.397 3.119 3.119 3.119c1.723 0 3.119-1.396 3.119-3.119s-1.397-3.12-3.119-3.12z"/><path d="m233.853 303.572c-1.722 0-3.119 1.397-3.119 3.12 0 1.621 1.242 2.938 2.824 3.089l3.397-2.912c.003-.06.018-.116.018-.177-.001-1.724-1.397-3.12-3.12-3.12z"/><path d="m223.42 314.005c-1.723 0-3.119 1.397-3.119 3.12 0 1.112.586 2.081 1.462 2.634.714-.53 1.417-1.079 2.1-1.665l2.456-2.106c-.456-1.16-1.579-1.983-2.899-1.983z"/><path d="m213.743 263.352c-1.723 0-3.119 1.397-3.119 3.12s1.397 3.119 3.119 3.119c1.723 0 3.119-1.396 3.119-3.119.001-1.723-1.396-3.12-3.119-3.12z"/><path d="m203.31 273.785c-1.723 0-3.119 1.397-3.119 3.12s1.396 3.119 3.119 3.119 3.119-1.396 3.119-3.119-1.396-3.12-3.119-3.12z"/><path d="m213.743 283.462c-1.723 0-3.119 1.397-3.119 3.12s1.397 3.119 3.119 3.119c1.723 0 3.119-1.396 3.119-3.119s-1.396-3.12-3.119-3.12z"/><path d="m203.31 293.895c-1.723 0-3.119 1.397-3.119 3.12s1.396 3.119 3.119 3.119 3.119-1.396 3.119-3.119-1.396-3.12-3.119-3.12z"/><path d="m213.743 303.572c-1.723 0-3.119 1.397-3.119 3.12s1.397 3.119 3.119 3.119c1.723 0 3.119-1.396 3.119-3.119.001-1.724-1.396-3.12-3.119-3.12z"/><path d="m203.31 320.244c1.723 0 3.119-1.396 3.119-3.119s-1.396-3.12-3.119-3.12-3.119 1.397-3.119 3.12c-.001 1.722 1.396 3.119 3.119 3.119z"/><path d="m193.633 283.462c-1.723 0-3.119 1.397-3.119 3.12s1.397 3.119 3.119 3.119c1.723 0 3.119-1.396 3.119-3.119s-1.396-3.12-3.119-3.12z"/><path d="m183.2 293.895c-1.723 0-3.119 1.397-3.119 3.12s1.396 3.119 3.119 3.119 3.119-1.396 3.119-3.119-1.396-3.12-3.119-3.12z"/><path d="m193.633 309.81c1.723 0 3.119-1.396 3.119-3.119s-1.396-3.12-3.119-3.12-3.119 1.397-3.119 3.12 1.397 3.119 3.119 3.119z"/><path d="m183.2 314.005c-1.723 0-3.119 1.397-3.119 3.12s1.396 3.119 3.119 3.119 3.119-1.396 3.119-3.119-1.396-3.12-3.119-3.12z"/><path d="m196.753 326.801c0-1.723-1.396-3.12-3.119-3.12s-3.119 1.397-3.119 3.12c0 .068.016.132.02.2 2.056.292 4.104.458 6.136.49.05-.223.082-.452.082-.69z"/><path d="m163.09 300.134c1.723 0 3.119-1.396 3.119-3.119s-1.397-3.12-3.119-3.12c-1.723 0-3.119 1.397-3.119 3.12s1.396 3.119 3.119 3.119z"/><path d="m173.553 289.751c1.723 0 3.119-1.396 3.119-3.119s-1.397-3.12-3.119-3.12c-1.723 0-3.119 1.397-3.119 3.12-.001 1.722 1.396 3.119 3.119 3.119z"/><path d="m173.523 303.572c-1.723 0-3.119 1.397-3.119 3.12s1.397 3.119 3.119 3.119c1.723 0 3.119-1.396 3.119-3.119.001-1.724-1.396-3.12-3.119-3.12z"/></g></g><path d="m445.616 73.405c-23.173-18.617-49.131-31.668-77.155-38.791-5.385-1.369-10.827-2.486-16.31-3.394-16.47-16.178-39.77-23.767-60.111-17.066l-78.983 26.025c-11.004-8.798-27.713-9.622-48.786-2.302-20.216 7.023-43.308 21.144-65.022 39.761s-39.195 39.283-49.222 58.189c-10.201 19.234-12.097 35.543-5.661 47.674l-38.966 76.408c-10.746 21.074-4.827 48.382 12.207 67.703.14 2.452.308 4.902.543 7.347 2.76 28.783 11.695 56.43 26.555 82.173 28.033 48.56 70.23 77.76 97.425 81.506 4.547.626 8.667.941 12.369.941 11.465 0 18.931-3.014 22.675-9.108 7.225-11.761-3.995-29.019-5.73-31.559-13.382-22.977-21.806-45.149-25.111-65.719 4.432-.121 8.753-.89 12.806-2.335 10.021-3.573 17.871-10.985 22.108-20.868l16.503-38.506c10.568-.065 20.666-3.422 28.73-10.336l93.996-80.589c7.644-6.553 12.61-15.487 14.477-25.78l39.027-10.033c10.414-2.677 18.938-9.305 23.999-18.662 2.772-5.124 4.391-10.918 4.864-16.998 20.922 6.111 42.791 18.201 64.71 35.95 1.883 1.765 12.987 11.709 24.029 11.709 2.119-.001 4.237-.367 6.285-1.227 8.725-3.664 13.116-14.585 13.423-33.386.451-27.448-21.964-73.608-65.674-108.727zm-280.882 389.949c2.699 3.913 9.516 16.523 5.58 22.913-2.979 4.834-12.598 6.4-27.087 4.403-25.256-3.479-64.815-31.238-91.556-77.56-13.984-24.224-22.371-50.244-25.161-76.994 3.569 2.875 7.443 5.444 11.609 7.617l83.358 43.475c5.387 2.809 11.032 4.625 16.645 5.462 2.858 19.471 10.462 43.007 26.448 70.422.051.088.108.178.164.262zm9.119-96.534c-3.393 7.915-9.415 13.607-17.415 16.461-9.475 3.379-20.859 2.21-31.241-3.204l-83.358-43.475c-27.99-14.598-41.669-48.728-29.272-73.038l37.089-72.731 100.939 117.732c10.724 12.508 24.756 20.104 38.684 22.265zm139.667-197.943c8.942 10.429 13.991 23.069 14.216 35.593.221 12.236-4.217 22.883-12.496 29.981l-93.996 80.589c-17.319 14.85-46.275 9.597-64.543-11.711l-102.371-119.402c-18.55-21.637 11.19-66.776 50.153-100.183 20.969-17.978 43.139-31.569 62.427-38.269 7.038-2.445 15.27-4.496 23.082-4.496 8.112 0 15.77 2.213 21.157 8.497zm77.384 13.379c-4.042 7.471-10.586 12.554-18.927 14.698l-36.21 9.309c.01-.644.024-1.287.012-1.938-.259-14.39-5.996-28.838-16.152-40.684l-100.348-117.044 75.278-24.803c25.914-8.539 57.559 10.189 67.714 40.081l30.237 89.019c3.765 11.086 3.181 22.517-1.604 31.362zm103.855 25.843c-6.914 2.911-18.336-5.749-21.789-9.011-.076-.072-.154-.141-.236-.207-26.599-21.564-50.222-32.787-69.946-38.159-.38-4.123-1.266-8.298-2.665-12.417l-30.236-89.019c-2.229-6.562-5.398-12.637-9.262-18.107 28.895 6.336 56.006 19.257 79.952 38.496 41.695 33.5 63.088 76.833 62.671 102.325-.241 14.625-3.255 23.894-8.489 26.099z" fill="#31373d"/></g></svg>