<svg id="Capa_1" enable-background="new 0 0 510.13 510.13" height="512" viewBox="0 0 510.13 510.13" width="512" xmlns="http://www.w3.org/2000/svg"><g><path d="m370.729 160.584h-318.974c-6.477 0-11.727 5.251-11.727 11.727v19.016c0 6.477 5.251 11.727 11.727 11.727h5.459l16.319 254.493c1.754 27.36 22.603 48.577 47.733 48.577h183.879c25.143 0 45.998-21.239 47.735-48.615l16.147-254.454h1.702c6.477 0 11.727-5.25 11.727-11.727v-19.016c0-6.477-5.25-11.728-11.727-11.728z" fill="#eaa895"/><path d="m56.328 154.66c.25 1.876.587 3.718 1.003 5.523h302.271c-2.144-6.033-4.624-11.877-7.42-17.509 2.694-5.811 3.825-12.515 2.9-19.442-2.042-15.291-13.456-26.904-27.286-29.263 6.112-4.385 9.675-12.145 8.569-20.426-1.567-11.736-11.892-20.04-23.061-18.549-3.243.433-6.187 1.662-8.714 3.451.414-2.25.505-4.608.183-7.014-1.567-11.736-11.892-20.04-23.061-18.549-10.225 1.365-17.59 10.471-17.564 21.004l-5.705 2.494c-.007-.057-.011-.114-.019-.172-2.486-18.623-18.871-31.802-36.597-29.435-16.454 2.196-28.271 17.019-27.893 34.03-.181.034-.361.074-.542.109-8.778-10.327-22.076-16.111-36.033-14.248-21.854 2.918-37.217 23.507-34.94 46.376-6.473-1.77-13.35-2.314-20.358-1.378-.865.115-1.72.255-2.569.412-3.927-7.742-12.108-12.557-20.825-11.394-11.167 1.494-18.951 12.216-17.384 23.951.515 3.855 1.988 7.328 4.113 10.217-7.437 11.136-11.023 25.171-9.068 39.812z" fill="#f9fbfc"/><path d="m175.91 504.943h-52.605l-16.833-298.88h52.605z" fill="#f9fbfc"/><path d="m239.5 504.943h54.043l17.294-298.88h-54.043z" fill="#f9fbfc"/><g><g fill="#f9fbfc"><path d="m360.394 220.103c-1.764 0-3.194 1.43-3.194 3.193 0 1.764 1.43 3.194 3.194 3.194s3.194-1.43 3.194-3.194c0-1.763-1.43-3.193-3.194-3.193z"/><path d="m360.394 240.692c-1.764 0-3.194 1.43-3.194 3.194s1.43 3.193 3.194 3.193 3.194-1.43 3.194-3.193c0-1.765-1.43-3.194-3.194-3.194z"/><path d="m360.394 261.28c-1.764 0-3.194 1.43-3.194 3.194s1.43 3.194 3.194 3.194 3.194-1.43 3.194-3.194-1.43-3.194-3.194-3.194z"/><circle cx="360.394" cy="285.063" r="3.194"/><path d="m360.394 302.458c-1.764 0-3.194 1.43-3.194 3.193 0 1.764 1.43 3.194 3.194 3.194.744 0 1.42-.265 1.963-.692l.302-4.752c-.579-.582-1.379-.943-2.265-.943z"/><path d="m360.394 323.046c-1.764 0-3.194 1.43-3.194 3.194s1.43 3.193 3.194 3.193c.211 0 .417-.023.617-.062l.39-6.147c-.318-.107-.653-.178-1.007-.178z"/><path d="m350.488 209.421c-1.764 0-3.194 1.43-3.194 3.194s1.43 3.193 3.194 3.193 3.194-1.43 3.194-3.193c-.001-1.764-1.431-3.194-3.194-3.194z"/><path d="m339.806 220.103c-1.764 0-3.194 1.43-3.194 3.193 0 1.764 1.43 3.194 3.194 3.194s3.194-1.43 3.194-3.194c-.001-1.763-1.431-3.193-3.194-3.193z"/><path d="m350.488 230.01c-1.764 0-3.194 1.43-3.194 3.193 0 1.764 1.43 3.194 3.194 3.194s3.194-1.43 3.194-3.194c-.001-1.763-1.431-3.193-3.194-3.193z"/><path d="m339.806 240.692c-1.764 0-3.194 1.43-3.194 3.194s1.43 3.193 3.194 3.193 3.194-1.43 3.194-3.193c-.001-1.765-1.431-3.194-3.194-3.194z"/><path d="m350.488 250.599c-1.764 0-3.194 1.43-3.194 3.193 0 1.764 1.43 3.194 3.194 3.194s3.194-1.43 3.194-3.194c-.001-1.764-1.431-3.193-3.194-3.193z"/><path d="m339.806 261.28c-1.764 0-3.194 1.43-3.194 3.194s1.43 3.194 3.194 3.194 3.194-1.43 3.194-3.194c-.001-1.764-1.431-3.194-3.194-3.194z"/><path d="m350.488 271.187c-1.764 0-3.194 1.43-3.194 3.194s1.43 3.193 3.194 3.193 3.194-1.43 3.194-3.193c-.001-1.764-1.431-3.194-3.194-3.194z"/><circle cx="339.806" cy="285.063" r="3.194"/><path d="m350.488 291.776c-1.764 0-3.194 1.43-3.194 3.194s1.43 3.194 3.194 3.194 3.194-1.43 3.194-3.194c-.001-1.764-1.431-3.194-3.194-3.194z"/><path d="m339.806 302.458c-1.764 0-3.194 1.43-3.194 3.193 0 1.764 1.43 3.194 3.194 3.194s3.194-1.43 3.194-3.194c-.001-1.764-1.431-3.193-3.194-3.193z"/><path d="m350.488 312.364c-1.764 0-3.194 1.43-3.194 3.194s1.43 3.194 3.194 3.194 3.194-1.43 3.194-3.194c-.001-1.764-1.431-3.194-3.194-3.194z"/><path d="m339.806 323.046c-1.764 0-3.194 1.43-3.194 3.194s1.43 3.193 3.194 3.193 3.194-1.43 3.194-3.193c-.001-1.764-1.431-3.194-3.194-3.194z"/><path d="m350.488 332.953c-1.764 0-3.194 1.43-3.194 3.193 0 1.764 1.43 3.194 3.194 3.194s3.194-1.43 3.194-3.194c-.001-1.763-1.431-3.193-3.194-3.193z"/><path d="m339.806 343.635c-1.764 0-3.194 1.43-3.194 3.194s1.43 3.193 3.194 3.193 3.194-1.43 3.194-3.193c-.001-1.764-1.431-3.194-3.194-3.194z"/><path d="m350.488 353.542c-1.764 0-3.194 1.43-3.194 3.193 0 1.764 1.43 3.194 3.194 3.194s3.194-1.43 3.194-3.194c-.001-1.763-1.431-3.193-3.194-3.193z"/><circle cx="339.806" cy="367.417" r="3.194"/><path d="m350.488 374.131c-1.764 0-3.194 1.43-3.194 3.194s1.43 3.193 3.194 3.193 3.194-1.43 3.194-3.193c-.001-1.765-1.431-3.194-3.194-3.194z"/><path d="m339.806 384.813c-1.764 0-3.194 1.43-3.194 3.193 0 1.764 1.43 3.194 3.194 3.194s3.194-1.43 3.194-3.194c-.001-1.764-1.431-3.193-3.194-3.193z"/><path d="m350.488 394.719c-1.764 0-3.194 1.43-3.194 3.194s1.43 3.194 3.194 3.194 3.194-1.43 3.194-3.194c-.001-1.764-1.431-3.194-3.194-3.194z"/><path d="m339.806 405.401c-1.764 0-3.194 1.43-3.194 3.194s1.43 3.193 3.194 3.193 3.194-1.43 3.194-3.193c-.001-1.764-1.431-3.194-3.194-3.194z"/><path d="m339.806 425.99c-1.764 0-3.194 1.43-3.194 3.194s1.43 3.193 3.194 3.193 3.194-1.43 3.194-3.193-1.431-3.194-3.194-3.194z"/><path d="m329.899 209.421c-1.764 0-3.193 1.43-3.193 3.194s1.43 3.193 3.193 3.193c1.764 0 3.194-1.43 3.194-3.193-.001-1.764-1.431-3.194-3.194-3.194z"/><path d="m319.217 220.103c-1.764 0-3.194 1.43-3.194 3.193 0 1.764 1.43 3.194 3.194 3.194s3.194-1.43 3.194-3.194c-.001-1.763-1.43-3.193-3.194-3.193z"/><path d="m329.899 230.01c-1.764 0-3.193 1.43-3.193 3.193 0 1.764 1.43 3.194 3.193 3.194 1.764 0 3.194-1.43 3.194-3.194-.001-1.763-1.431-3.193-3.194-3.193z"/><path d="m319.217 240.692c-1.764 0-3.194 1.43-3.194 3.194s1.43 3.193 3.194 3.193 3.194-1.43 3.194-3.193c-.001-1.765-1.43-3.194-3.194-3.194z"/><path d="m329.899 250.599c-1.764 0-3.193 1.43-3.193 3.193 0 1.764 1.43 3.194 3.193 3.194 1.764 0 3.194-1.43 3.194-3.194-.001-1.764-1.431-3.193-3.194-3.193z"/><path d="m319.217 261.28c-1.764 0-3.194 1.43-3.194 3.194s1.43 3.194 3.194 3.194 3.194-1.43 3.194-3.194c-.001-1.764-1.43-3.194-3.194-3.194z"/><path d="m329.899 271.187c-1.764 0-3.193 1.43-3.193 3.194s1.43 3.193 3.193 3.193c1.764 0 3.194-1.43 3.194-3.193-.001-1.764-1.431-3.194-3.194-3.194z"/><circle cx="319.217" cy="285.063" r="3.194"/><path d="m329.899 291.776c-1.764 0-3.193 1.43-3.193 3.194s1.43 3.194 3.193 3.194c1.764 0 3.194-1.43 3.194-3.194-.001-1.764-1.431-3.194-3.194-3.194z"/><path d="m319.217 302.458c-1.764 0-3.194 1.43-3.194 3.193 0 1.764 1.43 3.194 3.194 3.194s3.194-1.43 3.194-3.194c-.001-1.764-1.43-3.193-3.194-3.193z"/><path d="m329.899 312.364c-1.764 0-3.193 1.43-3.193 3.194s1.43 3.194 3.193 3.194c1.764 0 3.194-1.43 3.194-3.194-.001-1.764-1.431-3.194-3.194-3.194z"/><path d="m319.217 323.046c-1.764 0-3.194 1.43-3.194 3.194s1.43 3.193 3.194 3.193 3.194-1.43 3.194-3.193c-.001-1.764-1.43-3.194-3.194-3.194z"/><path d="m329.899 332.953c-1.764 0-3.193 1.43-3.193 3.193 0 1.764 1.43 3.194 3.193 3.194 1.764 0 3.194-1.43 3.194-3.194-.001-1.763-1.431-3.193-3.194-3.193z"/><path d="m319.217 343.635c-1.764 0-3.194 1.43-3.194 3.194s1.43 3.193 3.194 3.193 3.194-1.43 3.194-3.193c-.001-1.764-1.43-3.194-3.194-3.194z"/><path d="m329.899 353.542c-1.764 0-3.193 1.43-3.193 3.193 0 1.764 1.43 3.194 3.193 3.194 1.764 0 3.194-1.43 3.194-3.194-.001-1.763-1.431-3.193-3.194-3.193z"/><circle cx="319.217" cy="367.417" r="3.194"/><path d="m329.899 374.131c-1.764 0-3.193 1.43-3.193 3.194s1.43 3.193 3.193 3.193c1.764 0 3.194-1.43 3.194-3.193-.001-1.765-1.431-3.194-3.194-3.194z"/><path d="m319.217 384.813c-1.764 0-3.194 1.43-3.194 3.193 0 1.764 1.43 3.194 3.194 3.194s3.194-1.43 3.194-3.194c-.001-1.764-1.43-3.193-3.194-3.193z"/><path d="m329.899 394.719c-1.764 0-3.193 1.43-3.193 3.194s1.43 3.194 3.193 3.194c1.764 0 3.194-1.43 3.194-3.194-.001-1.764-1.431-3.194-3.194-3.194z"/><path d="m319.217 405.401c-1.764 0-3.194 1.43-3.194 3.194s1.43 3.193 3.194 3.193 3.194-1.43 3.194-3.193c-.001-1.764-1.43-3.194-3.194-3.194z"/><path d="m329.899 415.308c-1.764 0-3.193 1.43-3.193 3.193 0 1.764 1.43 3.194 3.193 3.194 1.764 0 3.194-1.43 3.194-3.194-.001-1.763-1.431-3.193-3.194-3.193z"/><path d="m319.217 425.99c-1.764 0-3.194 1.43-3.194 3.194s1.43 3.193 3.194 3.193 3.194-1.43 3.194-3.193-1.43-3.194-3.194-3.194z"/><path d="m329.899 435.897c-1.764 0-3.193 1.43-3.193 3.193 0 1.764 1.43 3.194 3.193 3.194 1.764 0 3.194-1.43 3.194-3.194-.001-1.764-1.431-3.193-3.194-3.193z"/><path d="m319.217 446.578c-1.764 0-3.194 1.43-3.194 3.194s1.43 3.194 3.194 3.194 3.194-1.43 3.194-3.194c-.001-1.764-1.43-3.194-3.194-3.194z"/><path d="m319.217 487.756c-1.764 0-3.194 1.43-3.194 3.193 0 1.764 1.43 3.194 3.194 3.194s3.194-1.43 3.194-3.194c-.001-1.763-1.43-3.193-3.194-3.193z"/><path d="m310.79 209.801-.338 5.788c1.198-.461 2.052-1.614 2.052-2.974 0-1.227-.7-2.279-1.714-2.814z"/><path d="m309.607 230.04-.371 6.35c.025 0 .049.007.074.007 1.764 0 3.194-1.43 3.194-3.194 0-1.662-1.275-3.011-2.897-3.163z"/><path d="m309.31 250.599c-.32 0-.622.061-.913.148l-.349 5.978c.388.167.814.261 1.262.261 1.764 0 3.194-1.43 3.194-3.194s-1.43-3.193-3.194-3.193z"/><path d="m309.31 271.187c-1.764 0-3.194 1.43-3.194 3.194s1.43 3.193 3.194 3.193 3.194-1.43 3.194-3.193c0-1.764-1.43-3.194-3.194-3.194z"/><path d="m309.31 291.776c-1.764 0-3.194 1.43-3.194 3.194s1.43 3.194 3.194 3.194 3.194-1.43 3.194-3.194-1.43-3.194-3.194-3.194z"/><path d="m309.31 312.364c-1.764 0-3.194 1.43-3.194 3.194s1.43 3.194 3.194 3.194 3.194-1.43 3.194-3.194-1.43-3.194-3.194-3.194z"/><path d="m309.31 332.953c-1.764 0-3.194 1.43-3.194 3.193 0 1.764 1.43 3.194 3.194 3.194s3.194-1.43 3.194-3.194c0-1.763-1.43-3.193-3.194-3.193z"/><path d="m309.31 353.542c-1.764 0-3.194 1.43-3.194 3.193 0 1.764 1.43 3.194 3.194 3.194s3.194-1.43 3.194-3.194c0-1.763-1.43-3.193-3.194-3.193z"/><path d="m309.31 374.131c-1.764 0-3.194 1.43-3.194 3.194s1.43 3.193 3.194 3.193 3.194-1.43 3.194-3.193c0-1.765-1.43-3.194-3.194-3.194z"/><path d="m309.31 394.719c-1.764 0-3.194 1.43-3.194 3.194s1.43 3.194 3.194 3.194 3.194-1.43 3.194-3.194-1.43-3.194-3.194-3.194z"/><path d="m309.31 415.308c-1.764 0-3.194 1.43-3.194 3.193 0 1.764 1.43 3.194 3.194 3.194s3.194-1.43 3.194-3.194c0-1.763-1.43-3.193-3.194-3.193z"/><path d="m309.31 435.897c-1.764 0-3.194 1.43-3.194 3.193 0 1.764 1.43 3.194 3.194 3.194s3.194-1.43 3.194-3.194-1.43-3.193-3.194-3.193z"/><path d="m309.31 456.485c-1.764 0-3.194 1.43-3.194 3.194s1.43 3.193 3.194 3.193 3.194-1.43 3.194-3.193c0-1.764-1.43-3.194-3.194-3.194z"/><path d="m309.31 477.074c-1.764 0-3.194 1.43-3.194 3.194s1.43 3.194 3.194 3.194 3.194-1.43 3.194-3.194-1.43-3.194-3.194-3.194z"/><path d="m309.31 504.05c1.764 0 3.194-1.43 3.194-3.194s-1.43-3.194-3.194-3.194-3.194 1.43-3.194 3.194 1.43 3.194 3.194 3.194z"/><path d="m254.257 223.296c0 1.157.621 2.161 1.542 2.721l.328-5.62c-1.101.504-1.87 1.609-1.87 2.899z"/><path d="m254.257 243.885c0 .559.156 1.076.408 1.533l.198-3.393c-.377.525-.606 1.164-.606 1.86z"/><path d="m247.544 209.421c-1.764 0-3.193 1.43-3.193 3.194s1.43 3.193 3.193 3.193c1.764 0 3.194-1.43 3.194-3.193 0-1.764-1.43-3.194-3.194-3.194z"/><path d="m236.862 220.103c-1.764 0-3.193 1.43-3.193 3.193 0 1.764 1.43 3.194 3.193 3.194 1.764 0 3.194-1.43 3.194-3.194 0-1.763-1.43-3.193-3.194-3.193z"/><path d="m247.544 230.01c-1.764 0-3.193 1.43-3.193 3.193 0 1.764 1.43 3.194 3.193 3.194 1.764 0 3.194-1.43 3.194-3.194 0-1.763-1.43-3.193-3.194-3.193z"/><path d="m236.862 240.692c-1.764 0-3.193 1.43-3.193 3.194s1.43 3.193 3.193 3.193c1.764 0 3.194-1.43 3.194-3.193 0-1.765-1.43-3.194-3.194-3.194z"/><path d="m247.544 250.599c-1.764 0-3.193 1.43-3.193 3.193 0 1.764 1.43 3.194 3.193 3.194 1.764 0 3.194-1.43 3.194-3.194s-1.43-3.193-3.194-3.193z"/><path d="m226.955 209.421c-1.764 0-3.194 1.43-3.194 3.194s1.43 3.193 3.194 3.193 3.194-1.43 3.194-3.193c0-1.764-1.43-3.194-3.194-3.194z"/><path d="m216.273 220.103c-1.764 0-3.194 1.43-3.194 3.193 0 1.764 1.43 3.194 3.194 3.194s3.193-1.43 3.193-3.194c.001-1.763-1.429-3.193-3.193-3.193z"/><path d="m226.955 230.01c-1.764 0-3.194 1.43-3.194 3.193 0 1.764 1.43 3.194 3.194 3.194s3.194-1.43 3.194-3.194c0-1.763-1.43-3.193-3.194-3.193z"/><path d="m216.273 240.692c-1.764 0-3.194 1.43-3.194 3.194s1.43 3.193 3.194 3.193 3.193-1.43 3.193-3.193c.001-1.765-1.429-3.194-3.193-3.194z"/><path d="m226.955 250.599c-1.764 0-3.194 1.43-3.194 3.193 0 1.764 1.43 3.194 3.194 3.194s3.194-1.43 3.194-3.194-1.43-3.193-3.194-3.193z"/><path d="m206.367 209.421c-1.764 0-3.194 1.43-3.194 3.194s1.43 3.193 3.194 3.193 3.194-1.43 3.194-3.193c-.001-1.764-1.431-3.194-3.194-3.194z"/><path d="m195.685 220.103c-1.764 0-3.194 1.43-3.194 3.193 0 1.764 1.43 3.194 3.194 3.194s3.194-1.43 3.194-3.194c-.001-1.763-1.43-3.193-3.194-3.193z"/><path d="m206.367 230.01c-1.764 0-3.194 1.43-3.194 3.193 0 1.764 1.43 3.194 3.194 3.194s3.194-1.43 3.194-3.194c-.001-1.763-1.431-3.193-3.194-3.193z"/><path d="m195.685 240.692c-1.764 0-3.194 1.43-3.194 3.194s1.43 3.193 3.194 3.193 3.194-1.43 3.194-3.193c-.001-1.765-1.43-3.194-3.194-3.194z"/><path d="m206.367 250.599c-1.764 0-3.194 1.43-3.194 3.193 0 1.764 1.43 3.194 3.194 3.194s3.194-1.43 3.194-3.194c-.001-1.764-1.431-3.193-3.194-3.193z"/><path d="m185.778 209.421c-1.764 0-3.194 1.43-3.194 3.194s1.43 3.193 3.194 3.193 3.194-1.43 3.194-3.193c0-1.764-1.43-3.194-3.194-3.194z"/><path d="m175.096 220.103c-1.764 0-3.194 1.43-3.194 3.193 0 1.764 1.43 3.194 3.194 3.194s3.193-1.43 3.193-3.194c.001-1.763-1.429-3.193-3.193-3.193z"/><path d="m185.778 230.01c-1.764 0-3.194 1.43-3.194 3.193 0 1.764 1.43 3.194 3.194 3.194s3.194-1.43 3.194-3.194c0-1.763-1.43-3.193-3.194-3.193z"/><path d="m175.096 240.692c-1.764 0-3.194 1.43-3.194 3.194s1.43 3.193 3.194 3.193 3.193-1.43 3.193-3.193c.001-1.765-1.429-3.194-3.193-3.194z"/><path d="m185.778 250.599c-1.764 0-3.194 1.43-3.194 3.193 0 1.764 1.43 3.194 3.194 3.194s3.194-1.43 3.194-3.194-1.43-3.193-3.194-3.193z"/><path d="m165.189 209.421c-1.764 0-3.194 1.43-3.194 3.194s1.43 3.193 3.194 3.193 3.194-1.43 3.194-3.193c0-1.764-1.43-3.194-3.194-3.194z"/><path d="m165.189 230.01c-1.764 0-3.194 1.43-3.194 3.193 0 1.764 1.43 3.194 3.194 3.194s3.194-1.43 3.194-3.194c0-1.763-1.43-3.193-3.194-3.193z"/><path d="m165.189 256.986c1.764 0 3.194-1.43 3.194-3.194s-1.43-3.193-3.194-3.193-3.194 1.43-3.194 3.193c.001 1.764 1.431 3.194 3.194 3.194z"/><path d="m103.423 209.421c-1.764 0-3.193 1.43-3.193 3.194s1.43 3.193 3.193 3.193 3.194-1.43 3.194-3.193c0-1.764-1.43-3.194-3.194-3.194z"/><path d="m92.741 220.103c-1.764 0-3.193 1.43-3.193 3.193 0 1.764 1.43 3.194 3.193 3.194 1.764 0 3.194-1.43 3.194-3.194 0-1.763-1.43-3.193-3.194-3.193z"/><path d="m103.423 230.01c-1.764 0-3.193 1.43-3.193 3.193 0 1.764 1.43 3.194 3.193 3.194s3.194-1.43 3.194-3.194c0-1.763-1.43-3.193-3.194-3.193z"/><path d="m92.741 240.692c-1.764 0-3.193 1.43-3.193 3.194s1.43 3.193 3.193 3.193c1.764 0 3.194-1.43 3.194-3.193 0-1.765-1.43-3.194-3.194-3.194z"/><path d="m103.423 250.599c-1.764 0-3.193 1.43-3.193 3.193 0 1.764 1.43 3.194 3.193 3.194s3.194-1.43 3.194-3.194-1.43-3.193-3.194-3.193z"/><path d="m82.835 209.421c-1.764 0-3.194 1.43-3.194 3.194s1.43 3.193 3.194 3.193 3.194-1.43 3.194-3.193c-.001-1.764-1.431-3.194-3.194-3.194z"/><path d="m72.153 220.103c-1.764 0-3.194 1.43-3.194 3.193 0 1.764 1.43 3.194 3.194 3.194s3.194-1.43 3.194-3.194c-.001-1.763-1.431-3.193-3.194-3.193z"/><path d="m82.835 230.01c-1.764 0-3.194 1.43-3.194 3.193 0 1.764 1.43 3.194 3.194 3.194s3.194-1.43 3.194-3.194c-.001-1.763-1.431-3.193-3.194-3.193z"/><path d="m72.153 240.692c-1.764 0-3.194 1.43-3.194 3.194s1.43 3.193 3.194 3.193 3.194-1.43 3.194-3.193c-.001-1.765-1.431-3.194-3.194-3.194z"/><path d="m82.835 250.599c-1.764 0-3.194 1.43-3.194 3.193 0 1.764 1.43 3.194 3.194 3.194s3.194-1.43 3.194-3.194c-.001-1.764-1.431-3.193-3.194-3.193z"/><path d="m62.246 215.808c1.764 0 3.194-1.43 3.194-3.193 0-1.764-1.43-3.194-3.194-3.194s-3.194 1.43-3.194 3.194c0 1.763 1.43 3.193 3.194 3.193z"/><path d="m62.246 236.397c1.764 0 3.194-1.43 3.194-3.194s-1.43-3.193-3.194-3.193c-1.565 0-2.862 1.127-3.135 2.614l.097 1.516c.402 1.303 1.602 2.257 3.038 2.257z"/><path d="m65.44 253.792c0-1.764-1.43-3.193-3.194-3.193-.733 0-1.4.257-1.939.672l.338 5.269c.472.276 1.015.445 1.602.445 1.763.001 3.193-1.429 3.193-3.193z"/></g><path d="m309.31 209.421c-1.764 0-3.194 1.43-3.194 3.194s1.43 3.193 3.194 3.193c.404 0 .786-.083 1.142-.219l.338-5.788c-.444-.235-.943-.38-1.48-.38z" fill="#eaa895"/><path d="m298.628 220.103c-1.764 0-3.194 1.43-3.194 3.193 0 1.764 1.43 3.194 3.194 3.194s3.194-1.43 3.194-3.194c0-1.763-1.43-3.193-3.194-3.193z" fill="#eaa895"/><path d="m309.31 230.01c-1.764 0-3.194 1.43-3.194 3.193 0 1.739 1.391 3.146 3.12 3.186l.371-6.35c-.099-.008-.195-.029-.297-.029z" fill="#eaa895"/><path d="m298.628 240.692c-1.764 0-3.194 1.43-3.194 3.194s1.43 3.193 3.194 3.193 3.194-1.43 3.194-3.193c0-1.765-1.43-3.194-3.194-3.194z" fill="#eaa895"/><path d="m306.116 253.792c0 1.315.796 2.443 1.931 2.933l.349-5.978c-1.314.395-2.28 1.601-2.28 3.045z" fill="#eaa895"/><path d="m288.721 209.421c-1.764 0-3.193 1.43-3.193 3.194s1.43 3.193 3.193 3.193c1.764 0 3.194-1.43 3.194-3.193 0-1.764-1.43-3.194-3.194-3.194z" fill="#eaa895"/><path d="m278.039 220.103c-1.764 0-3.194 1.43-3.194 3.193 0 1.764 1.43 3.194 3.194 3.194s3.194-1.43 3.194-3.194c0-1.763-1.43-3.193-3.194-3.193z" fill="#eaa895"/><path d="m288.721 230.01c-1.764 0-3.193 1.43-3.193 3.193 0 1.764 1.43 3.194 3.193 3.194 1.764 0 3.194-1.43 3.194-3.194 0-1.763-1.43-3.193-3.194-3.193z" fill="#eaa895"/><path d="m278.039 240.692c-1.764 0-3.194 1.43-3.194 3.194s1.43 3.193 3.194 3.193 3.194-1.43 3.194-3.193c0-1.765-1.43-3.194-3.194-3.194z" fill="#eaa895"/><path d="m288.721 250.599c-1.764 0-3.193 1.43-3.193 3.193 0 1.764 1.43 3.194 3.193 3.194 1.764 0 3.194-1.43 3.194-3.194s-1.43-3.193-3.194-3.193z" fill="#eaa895"/><path d="m268.133 209.421c-1.764 0-3.194 1.43-3.194 3.194s1.43 3.193 3.194 3.193 3.194-1.43 3.194-3.193c-.001-1.764-1.431-3.194-3.194-3.194z" fill="#eaa895"/><path d="m257.451 220.103c-.474 0-.919.109-1.323.294l-.328 5.62c.483.294 1.045.472 1.652.472 1.764 0 3.193-1.43 3.193-3.194-.001-1.762-1.43-3.192-3.194-3.192z" fill="#eaa895"/><path d="m268.133 230.01c-1.764 0-3.194 1.43-3.194 3.193 0 1.764 1.43 3.194 3.194 3.194s3.194-1.43 3.194-3.194c-.001-1.763-1.431-3.193-3.194-3.193z" fill="#eaa895"/><path d="m257.451 247.079c1.764 0 3.193-1.43 3.193-3.193 0-1.764-1.43-3.194-3.193-3.194-1.068 0-2.007.529-2.587 1.334l-.198 3.393c.543.985 1.58 1.66 2.785 1.66z" fill="#eaa895"/><path d="m268.133 250.599c-1.764 0-3.194 1.43-3.194 3.193 0 1.764 1.43 3.194 3.194 3.194s3.194-1.43 3.194-3.194c-.001-1.764-1.431-3.193-3.194-3.193z" fill="#eaa895"/><path d="m154.507 220.103c-1.764 0-3.194 1.43-3.194 3.193 0 1.764 1.43 3.194 3.194 3.194s3.194-1.43 3.194-3.194c0-1.763-1.43-3.193-3.194-3.193z" fill="#eaa895"/><path d="m154.507 240.692c-1.764 0-3.194 1.43-3.194 3.194s1.43 3.193 3.194 3.193 3.194-1.43 3.194-3.193c0-1.765-1.43-3.194-3.194-3.194z" fill="#eaa895"/><path d="m144.601 209.421c-1.764 0-3.194 1.43-3.194 3.194s1.43 3.193 3.194 3.193 3.194-1.43 3.194-3.193c-.001-1.764-1.431-3.194-3.194-3.194z" fill="#eaa895"/><path d="m133.919 220.103c-1.764 0-3.194 1.43-3.194 3.193 0 1.764 1.43 3.194 3.194 3.194s3.193-1.43 3.193-3.194c0-1.763-1.43-3.193-3.193-3.193z" fill="#eaa895"/><path d="m144.601 230.01c-1.764 0-3.194 1.43-3.194 3.193 0 1.764 1.43 3.194 3.194 3.194s3.194-1.43 3.194-3.194c-.001-1.763-1.431-3.193-3.194-3.193z" fill="#eaa895"/><path d="m133.919 240.692c-1.764 0-3.194 1.43-3.194 3.194s1.43 3.193 3.194 3.193 3.193-1.43 3.193-3.193c0-1.765-1.43-3.194-3.193-3.194z" fill="#eaa895"/><path d="m144.601 250.599c-1.764 0-3.194 1.43-3.194 3.193 0 1.764 1.43 3.194 3.194 3.194s3.194-1.43 3.194-3.194c-.001-1.764-1.431-3.193-3.194-3.193z" fill="#eaa895"/><path d="m124.012 209.421c-1.764 0-3.194 1.43-3.194 3.194s1.43 3.193 3.194 3.193 3.194-1.43 3.194-3.193c0-1.764-1.43-3.194-3.194-3.194z" fill="#eaa895"/><path d="m113.33 220.103c-1.764 0-3.194 1.43-3.194 3.193 0 1.764 1.43 3.194 3.194 3.194s3.194-1.43 3.194-3.194c0-1.763-1.43-3.193-3.194-3.193z" fill="#eaa895"/><path d="m124.012 230.01c-1.764 0-3.194 1.43-3.194 3.193 0 1.764 1.43 3.194 3.194 3.194s3.194-1.43 3.194-3.194c0-1.763-1.43-3.193-3.194-3.193z" fill="#eaa895"/><path d="m113.33 240.692c-1.764 0-3.194 1.43-3.194 3.194s1.43 3.193 3.194 3.193 3.194-1.43 3.194-3.193c0-1.765-1.43-3.194-3.194-3.194z" fill="#eaa895"/><path d="m124.012 250.599c-1.764 0-3.194 1.43-3.194 3.193 0 1.764 1.43 3.194 3.194 3.194s3.194-1.43 3.194-3.194-1.43-3.193-3.194-3.193z" fill="#eaa895"/></g><path d="m407.705 495.905c13.767-7.973 18.464-25.597 10.491-39.365-3.913-6.756-10.151-11.321-17.115-13.283 2.251-7.381 1.554-15.64-2.618-22.844-7.973-13.767-25.597-18.465-39.365-10.491-12.372 7.165-17.412 22.123-12.522 35.072-4.658.12-9.352 1.374-13.668 3.873-13.767 7.973-18.464 25.597-10.491 39.365 7.973 13.767 25.597 18.465 39.365 10.491 3.989-2.31 7.211-5.434 9.589-9.035 8.849 10.381 24.109 13.297 36.334 6.217z" fill="#f9fbfc"/><path d="m456.325 354.188c-8.157-9.795-22.709-11.122-32.503-2.966-4.806 4.003-7.569 9.546-8.177 15.311-6.133-.78-12.56.886-17.686 5.154-9.795 8.156-11.123 22.708-2.966 32.503 7.33 8.802 19.823 10.761 29.388 5.15.724 3.662 2.348 7.2 4.905 10.27 8.156 9.795 22.709 11.122 32.503 2.966 9.795-8.156 11.123-22.708 2.966-32.503-2.363-2.838-5.265-4.96-8.431-6.351 7.002-8.391 7.243-20.836.001-29.534z" fill="#f9fbfc"/><path d="m84.317 60.835c7.41 6.281 18.509 5.366 24.79-2.044 3.082-3.636 4.428-8.16 4.127-12.568 4.706-.22 9.313-2.315 12.6-6.193 6.281-7.41 5.367-18.509-2.044-24.79-6.659-5.645-16.295-5.474-22.738-.005-1.025-2.654-2.709-5.096-5.032-7.065-7.41-6.281-18.509-5.366-24.79 2.044s-5.366 18.509 2.043 24.79c2.147 1.82 4.604 3.032 7.163 3.66-4.153 7.219-2.699 16.593 3.881 22.171z" fill="#f9fbfc"/><g fill="#31373d"><path d="m152.979 133.209c-2.213 0-4.007-1.794-4.007-4.007 0-6.564-5.341-11.905-11.906-11.905s-11.906 5.341-11.906 11.905c0 2.213-1.794 4.007-4.007 4.007s-4.007-1.794-4.007-4.007c0-10.983 8.936-19.919 19.919-19.919s19.919 8.936 19.919 19.919c.001 2.213-1.792 4.007-4.005 4.007z"/><path d="m310.006 141.734c-2.213 0-4.007-1.794-4.007-4.007 0-3.109-2.53-5.638-5.638-5.638-3.109 0-5.638 2.529-5.638 5.638 0 2.213-1.794 4.007-4.007 4.007s-4.007-1.794-4.007-4.007c0-7.527 6.124-13.651 13.651-13.651s13.651 6.124 13.651 13.651c.002 2.213-1.792 4.007-4.005 4.007z"/><path d="m447.067 431.93c-.832 0-1.669-.038-2.508-.115-7.205-.657-13.723-4.081-18.352-9.641-1.815-2.179-3.275-4.634-4.327-7.249-10.552 3.827-22.537.752-29.967-8.171-4.629-5.56-6.817-12.589-6.16-19.793.658-7.205 4.082-13.723 9.642-18.353 4.766-3.969 10.777-6.164 16.929-6.261 1.384-5.542 4.476-10.492 8.934-14.204 11.476-9.557 28.588-7.995 38.146 3.481 7.331 8.804 8.241 21.079 2.73 30.732 2.123 1.424 4.03 3.147 5.7 5.153 4.63 5.56 6.818 12.589 6.16 19.793-.658 7.205-4.082 13.723-9.642 18.352-4.911 4.091-10.971 6.275-17.285 6.276zm-22.687-26.596c.559 0 1.119.116 1.642.352 1.184.532 2.036 1.604 2.288 2.877.614 3.103 2.016 6.036 4.055 8.484 3.259 3.915 7.849 6.326 12.922 6.789 5.07.458 10.023-1.079 13.938-4.337 3.915-3.26 6.326-7.85 6.788-12.923.464-5.073-1.077-10.023-4.337-13.938-1.906-2.289-4.248-4.055-6.964-5.247-1.153-.507-2-1.526-2.288-2.752-.289-1.227.017-2.517.824-3.483 5.893-7.062 5.892-17.325-.002-24.403-.001 0-.001 0-.001 0-6.729-8.082-18.778-9.182-26.86-2.45-3.833 3.192-6.233 7.685-6.757 12.653-.112 1.071-.652 2.052-1.497 2.721-.844.668-1.927.969-2.992.832-5.316-.677-10.508.835-14.615 4.258-3.916 3.26-6.327 7.85-6.789 12.923-.464 5.073 1.077 10.023 4.337 13.938 5.997 7.203 16.208 8.995 24.281 4.258.623-.367 1.324-.552 2.027-.552z"/><path d="m95.673 69.004c-4.936 0-9.895-1.678-13.947-5.112 0 0 0 0 0-.001-6.739-5.713-9.207-14.802-6.646-22.937-1.567-.774-3.037-1.74-4.398-2.894-4.4-3.729-7.084-8.949-7.558-14.698s1.32-11.338 5.049-15.739c7.699-9.083 21.352-10.21 30.437-2.51 1.494 1.267 2.807 2.731 3.902 4.341 7.631-3.962 17.044-3.053 23.868 2.729 9.083 7.7 10.209 21.354 2.509 30.438-3.041 3.588-7.186 6.069-11.726 7.097-.45 4.278-2.168 8.323-5 11.665-4.265 5.031-10.359 7.621-16.49 7.621zm-8.766-11.226c5.714 4.844 14.301 4.134 19.143-1.578 2.297-2.709 3.428-6.156 3.186-9.704-.073-1.075.29-2.134 1.006-2.938.717-.805 1.728-1.286 2.804-1.337 3.812-.178 7.268-1.876 9.731-4.781 4.842-5.713 4.134-14.301-1.578-19.144-5.092-4.316-12.475-4.317-17.555-.006-.989.839-2.325 1.148-3.581.828-1.257-.32-2.282-1.229-2.75-2.439-.811-2.1-2.155-3.986-3.885-5.453-5.714-4.841-14.301-4.132-19.143 1.579-2.346 2.768-3.474 6.283-3.176 9.899.298 3.615 1.986 6.898 4.753 9.244 1.617 1.371 3.477 2.322 5.529 2.826 1.223.301 2.233 1.159 2.728 2.316.495 1.158.417 2.482-.212 3.573-3.264 5.676-2.003 12.874 3 17.115z"/><path d="m421.663 454.532c-3.651-6.304-9.193-11.13-15.843-13.87 1.362-7.6.006-15.529-3.891-22.257-8.47-14.625-26.581-20.262-41.693-13.55l12.561-197.946c7.7-1.018 13.666-7.609 13.666-15.582v-19.016c0-8.675-7.057-15.734-15.733-15.734h-8.177c-1.77-4.756-3.753-9.43-5.961-14.006 2.519-6.244 3.37-13.071 2.462-19.868-1.87-14.012-11.173-25.795-23.572-30.714 3.965-5.277 5.778-12.066 4.856-18.976-1.857-13.906-14.228-23.77-27.563-21.99-1.339.179-2.646.469-3.917.869-.031-.331-.068-.66-.112-.99-.895-6.7-4.23-12.675-9.39-16.826-5.219-4.198-11.672-6.031-18.173-5.164-10.23 1.365-18.303 9.342-20.466 19.474-5.599-16.82-21.957-27.912-39.417-25.584-15.601 2.083-27.7 14.281-30.674 29.765-9.493-7.855-21.647-11.496-33.793-9.873-22.302 2.978-38.428 22.368-38.642 45.305-5.494-.945-11.064-1.051-16.619-.313-5.196-7.852-14.276-12.197-23.43-10.977-13.341 1.782-22.684 14.544-20.828 28.45.458 3.429 1.594 6.741 3.32 9.714-7.232 11.942-10.166 26.151-8.274 40.315.062.465.145.925.217 1.387h-.819c-8.675 0-15.733 7.059-15.733 15.734v19.016c0 8.675 7.058 15.734 15.733 15.734h1.702l16.078 250.742c1.882 29.342 24.604 52.327 51.731 52.327h183.879c9.481 0 18.414-2.818 26.115-7.722 2.376 1.33 4.934 2.375 7.635 3.095 2.813.75 5.668 1.121 8.503 1.121 5.701 0 11.326-1.5 16.39-4.432 3.013-1.744 5.674-3.902 7.954-6.443 10.428 9.088 25.682 10.742 37.971 3.624 15.653-9.066 21.014-29.182 11.947-44.839zm-352.936-337.458c.937-1.402.895-3.241-.104-4.598-1.8-2.448-2.965-5.344-3.37-8.375-1.272-9.526 4.984-18.25 13.946-19.447.672-.09 1.344-.134 2.013-.134 6.036 0 11.775 3.585 14.709 9.369.804 1.584 2.556 2.452 4.3 2.128.784-.145 1.573-.274 2.373-.381 6.293-.84 12.608-.412 18.771 1.272 1.273.347 2.635.047 3.643-.804 1.007-.852 1.531-2.145 1.401-3.458-2.084-20.92 11.745-39.371 31.483-42.007 12.096-1.617 24.227 3.197 32.449 12.872.937 1.102 2.397 1.61 3.816 1.338l.521-.106c1.926-.363 3.306-2.067 3.263-4.026-.337-15.182 10.161-28.067 24.418-29.97 15.505-2.079 29.905 9.59 32.09 25.956.004.044.02.175.025.219.001.011.007.021.008.031-10.046 3.573-17.692 12.247-19.805 22.892-3.884-1.785-8.199-2.789-12.746-2.789-16.888 0-30.628 13.74-30.628 30.629 0 2.213 1.794 4.007 4.007 4.007s4.007-1.794 4.007-4.007c0-12.47 10.145-22.615 22.615-22.615s22.615 10.146 22.615 22.615c0 2.213 1.794 4.007 4.007 4.007s4.007-1.794 4.007-4.007c0-9.154-4.042-17.378-10.43-22.995.59-11.948 10.495-21.488 22.587-21.488 12.47 0 22.615 10.146 22.615 22.615 0 2.213 1.794 4.007 4.007 4.007s4.007-1.794 4.007-4.007c0-15.824-12.063-28.883-27.476-30.467.181-.461.288-.956.286-1.471-.021-8.63 6.034-15.948 14.087-17.023 4.306-.577 8.598.655 12.09 3.465 3.551 2.856 5.849 6.99 6.47 11.641.252 1.895.201 3.833-.153 5.762-.293 1.603.412 3.224 1.786 4.1 1.373.875 3.141.836 4.471-.109 2.106-1.492 4.437-2.417 6.927-2.75 8.962-1.193 17.288 5.581 18.56 15.108.877 6.566-1.78 12.943-6.934 16.641-1.313.942-1.932 2.581-1.568 4.156.363 1.575 1.637 2.777 3.23 3.049 12.375 2.11 22.239 12.737 23.989 25.843.793 5.939-.093 11.896-2.564 17.226-.512 1.103-.494 2.378.046 3.468 1.968 3.965 3.759 8.008 5.378 12.12h-293.266c-.147-.812-.297-1.624-.407-2.447-1.753-13.132 1.24-26.292 8.428-37.055zm-16.972 81.974c-4.257 0-7.72-3.464-7.72-7.721v-19.016c0-4.257 3.463-7.721 7.72-7.721h318.974c4.257 0 7.72 3.464 7.72 7.721v19.016c0 4.257-3.463 7.721-7.72 7.721zm253.39 303.069h-183.879c-22.912 0-42.122-19.691-43.734-44.827l-16.046-250.229h303.271l-12.892 203.166c-8.872 7.767-12.914 19.699-10.468 31.296-3.679.681-7.24 1.992-10.498 3.878-7.585 4.393-13.005 11.476-15.261 19.945-2.257 8.469-1.081 17.311 3.311 24.895 1.498 2.586 3.315 4.913 5.386 6.956-5.818 3.146-12.334 4.92-19.19 4.92zm100.552-9.679c-10.365 6.006-23.518 3.752-31.278-5.349-.817-.959-2.03-1.473-3.295-1.4-1.257.076-2.404.74-3.098 1.791-2.126 3.22-4.903 5.836-8.254 7.777-5.731 3.318-12.411 4.21-18.815 2.502-6.401-1.706-11.755-5.802-15.074-11.535-3.32-5.732-4.209-12.415-2.503-18.815 1.705-6.401 5.802-11.755 11.535-15.075 3.583-2.076 7.65-3.229 11.763-3.335 1.297-.034 2.497-.694 3.221-1.771.724-1.076.881-2.437.424-3.651-4.3-11.385.234-24.082 10.781-30.189 3.903-2.26 8.171-3.335 12.387-3.335 8.566 0 16.91 4.436 21.503 12.366 3.485 6.018 4.285 13.002 2.253 19.667-.314 1.031-.201 2.144.317 3.09.517.946 1.392 1.643 2.429 1.936 6.253 1.761 11.486 5.822 14.735 11.434 6.854 11.835 2.802 27.039-9.031 33.892z"/></g></g></svg>