<svg id="Layer_1" enable-background="new 0 0 512 512" height="512" viewBox="0 0 512 512" width="512" xmlns="http://www.w3.org/2000/svg"><g><g><path clip-rule="evenodd" d="m393.693 430.217h73.106c2.75 0 5.017-2.239 5.017-4.989v-52.111h-83.112v52.111c0 2.75 2.24 4.989 4.989 4.989z" fill="#e29d7b" fill-rule="evenodd"/></g><g><path clip-rule="evenodd" d="m45.173 430.217h73.106c2.75 0 5.017-2.239 5.017-4.989v-49.111h-83.112v49.111c0 2.75 2.239 4.989 4.989 4.989z" fill="#e29d7b" fill-rule="evenodd"/></g><g><path clip-rule="evenodd" d="m127.916 270.282c5.641-2.41 10.772-5.046 15.109-7.824 11.679-7.54 20.891-15.137 28.857-22.366 27.751-31.636-53.462-112.284-79.54-75.234-6.888 15.591-13.465 33.705-23.584 54.257 18.793 4.053 64.714 29.566 59.158 51.167z" fill="#fbc7b8" fill-rule="evenodd"/></g><g><path clip-rule="evenodd" d="m132.281 112.841c18.765-1.559 70.668 62.789 87.477 88.727l9.014-49.693-9.014-69.338c-32.257 2.608-63.155 12.076-87.477 30.304z" fill="#fbc7b8" fill-rule="evenodd"/></g><g><path clip-rule="evenodd" d="m292.78 199.158c20.069 5.471 37.588 18.029 53.462 30.473 11.509-43.655 10.233-109.449-41.669-139.299-3.883-1.021-7.824-1.956-11.792-2.806l-9.014 64.348z" fill="#fbc7b8" fill-rule="evenodd"/></g><g><path clip-rule="evenodd" d="m398.002 269.318c8.306 5.584 15.902 9.95 22.394 12.189 16.271 5.613 25.71-1.956 22.139-35.973-4.309-41.075-22.45-88.727-66.189-121.78 13.152 16.669-18.483 119.909 21.656 145.564z" fill="#fbc7b8" fill-rule="evenodd"/></g><g><path clip-rule="evenodd" d="m119.384 339.988 46.687 9.78 53.688-9.78 16.668-70.67-16.668-87.763c-18.652 7.909-30.076 22.338-47.877 38.524-7.965 7.257-17.178 14.826-28.857 22.366-4.337 2.778-9.468 5.414-15.109 7.824-10.8 4.592-23.443 8.391-35.773 10.914v52.159c0 14.967 12.245 26.646 27.241 26.646z" fill="#f9f7f8" fill-rule="evenodd"/></g><g><path clip-rule="evenodd" d="m219.759 339.988h73.021v-140.83-111.632c-23.641-5.017-48.728-6.945-73.021-4.989v119.03z" fill="#365e7d" fill-rule="evenodd"/></g><g><path clip-rule="evenodd" d="m292.78 339.988 58.281 16.47 42.095-16.47c14.995 0 27.241-11.679 27.241-26.646v-51.819c-6.491-2.268-14.088-6.605-22.394-12.218-12.019-8.136-25.484-18.879-39.203-29.708-4.082-3.203-8.249-6.577-12.558-9.95-15.874-12.473-33.392-25.031-53.462-30.473l-9.014 91.193z" fill="#f9f7f8" fill-rule="evenodd"/></g><g><path clip-rule="evenodd" d="m123.296 385.117h265.409 83.112 27.666c2.75 0 5.017-2.268 5.017-5.017v-35.094c0-2.75-2.268-5.017-5.017-5.017h-106.328-100.375-73.021-100.375-106.895c-2.75 0-4.989 2.268-4.989 5.017v35.094c0 2.75 2.239 5.017 4.989 5.017h27.695z" fill="#ffd772" fill-rule="evenodd"/></g><g><path clip-rule="evenodd" d="m171.882 279.608c17.802-16.215 29.225-30.615 47.877-38.552v-39.488c-18.652 7.909-30.076 22.309-47.877 38.524-7.965 7.229-17.178 14.826-28.857 22.366-4.337 2.778-9.468 5.414-15.109 7.824-10.8 4.592-23.443 8.391-35.773 10.914v32.146c0 2.495.34 4.876.964 7.144 12.019-2.523 24.293-6.236 34.81-10.715 5.641-2.41 10.772-5.017 15.109-7.824 11.678-7.514 20.89-15.111 28.856-22.339z" fill="#e5e4ed" fill-rule="evenodd"/></g><g><path clip-rule="evenodd" d="m346.241 229.632c-15.874-12.444-33.392-25.002-53.462-30.473v39.516c20.069 5.443 37.588 18.029 53.462 30.473 4.309 3.373 8.476 6.747 12.558 9.95 13.72 10.829 27.184 21.601 39.203 29.708 7.852 5.329 15.109 9.525 21.373 11.849.68-2.324 1.02-4.762 1.02-7.314v-31.834c-6.491-2.239-14.088-6.605-22.394-12.189-12.019-8.136-25.484-18.908-39.203-29.708-4.081-3.232-8.248-6.605-12.557-9.978z" fill="#e5e4ed" fill-rule="evenodd"/></g><g><path clip-rule="evenodd" d="m292.78 199.158v-87.537-24.095c-9.78-2.069-19.814-3.628-29.934-4.592v103.128 153.926h29.934v-101.314z" fill="#2b4d66" fill-rule="evenodd"/></g><g><path clip-rule="evenodd" d="m171.882 240.092c6.35-7.314 4.28-19.078-2.438-31.437-7.37 6.577-15.902 13.408-26.419 20.183-4.337 2.778-9.468 5.414-15.109 7.824-1.616.68-3.288 1.361-4.961 2.013 7.795 9.071 10.828 20.297 4.961 31.607 5.641-2.41 10.772-5.046 15.109-7.824 11.679-7.541 20.891-15.138 28.857-22.366z" fill="#fbb49e" fill-rule="evenodd"/></g><g><path clip-rule="evenodd" d="m219.759 201.568v-33.62c-2.608 1.106-5.074 2.324-7.427 3.685 4.677 10.318 7.427 20.665 7.427 29.935z" fill="#fbb49e" fill-rule="evenodd"/></g><g><path clip-rule="evenodd" d="m345.249 195.246c-15.619-12.218-32.825-24.35-52.469-29.708v33.62c20.069 5.471 37.588 18.029 53.462 30.473-.313-10.545-.426-22.252-.993-34.385z" fill="#fbb49e" fill-rule="evenodd"/></g><g><path clip-rule="evenodd" d="m420.396 247.887c-6.491-2.239-14.088-6.577-22.394-12.189-4.224-2.863-8.617-6.038-13.124-9.411.34 19.248 3.175 35.576 13.124 43.031 8.306 5.584 15.902 9.95 22.394 12.189 16.271 5.613 25.71-1.956 22.139-35.973-.227-2.268-.51-4.536-.822-6.803-3.147 10.914-10.829 12.785-21.317 9.156z" fill="#fbb49e" fill-rule="evenodd"/></g><g><path clip-rule="evenodd" d="m123.296 385.117h-83.112v19.39h61.314v25.711h16.781c2.75 0 5.017-2.239 5.017-4.989z" fill="#ce8b6b" fill-rule="evenodd"/></g><g><path clip-rule="evenodd" d="m471.816 385.117h-83.112v19.39h61.314v25.711h16.781c2.75 0 5.017-2.239 5.017-4.989z" fill="#ce8b6b" fill-rule="evenodd"/></g><g><path clip-rule="evenodd" d="m504.5 345.005c0-2.75-2.268-5.017-5.017-5.017h-49.21c2.75 0 5.017 2.268 5.017 5.017v35.094c0 2.75-2.268 5.017-5.017 5.017h21.543 27.666c2.75 0 5.017-2.268 5.017-5.017v-35.094z" fill="#fbba58" fill-rule="evenodd"/></g><g><path clip-rule="evenodd" d="m346.241 229.632c4.309 3.373 8.476 6.747 12.558 9.978 13.72 10.8 27.184 21.572 39.203 29.708-29.849-22.366 4.252-124.785-21.657-145.563-5.953-4.507-12.416-8.759-19.361-12.671-15.364-8.646-33.251-15.704-52.413-20.75 42.237 29.197 40.395 94.821 41.67 139.298z" fill="#ffeee6" fill-rule="evenodd"/></g><g><path clip-rule="evenodd" d="m384.878 226.287c-8.362-6.293-17.178-13.295-26.079-20.297-4.082-3.232-8.249-6.605-12.558-9.978-.34-.255-.68-.51-.992-.765.567 12.133.68 23.84.992 34.385 4.309 3.373 8.476 6.747 12.558 9.978 13.72 10.8 27.184 21.572 39.203 29.708-9.95-7.456-12.784-23.784-13.124-43.031z" fill="#ffdfcf" fill-rule="evenodd"/></g><g><path clip-rule="evenodd" d="m41.658 264.924c-14.598 20.722 16.781 23.188 50.485 16.271 12.331-2.523 24.973-6.321 35.773-10.914 14.91-28.659-27.638-56.751-59.159-51.167-6.945 14.146-15.562 29.397-27.099 45.81z" fill="#ffeee6" fill-rule="evenodd"/></g><g><path clip-rule="evenodd" d="m92.341 164.858c20.41-30.785 101.821 49.636 79.54 75.234 17.802-16.215 29.225-30.615 47.877-38.524 0-40.934-54.057-103.326-87.477-88.727-14.769 11.027-27.071 25.257-35.83 43.145-1.417 2.862-2.777 5.81-4.11 8.872z" fill="#ffeee6" fill-rule="evenodd"/></g><g><path clip-rule="evenodd" d="m92.143 247.575c-15.477 3.175-30.473 4.365-40.762 2.721-3.005 4.791-6.236 9.638-9.723 14.627-14.598 20.722 16.781 23.188 50.485 16.271 12.331-2.523 24.973-6.321 35.773-10.914 5.868-11.311 2.835-22.536-4.961-31.607-9.609 3.686-20.324 6.748-30.812 8.902z" fill="#ffdfcf" fill-rule="evenodd"/></g><g><path clip-rule="evenodd" d="m219.759 201.568c0-9.27-2.75-19.616-7.427-29.935-14.542 8.306-25.143 20.892-40.451 34.839-.794.737-1.616 1.446-2.438 2.183 6.718 12.359 8.787 24.124 2.438 31.437 17.802-16.215 29.226-30.615 47.878-38.524z" fill="#ffdfcf" fill-rule="evenodd"/></g><g><path d="m347.968 294.658c-2.929 2.929-2.929 7.678 0 10.606l.028.028c1.461 1.461 3.371 2.19 5.282 2.19 1.92 0 3.842-.736 5.31-2.204 2.929-2.929 2.915-7.692-.014-10.621-2.928-2.928-7.678-2.928-10.606.001z"/><path d="m336.329 259.605c-3.706-1.853-8.21-.351-10.062 3.354-1.853 3.705-.351 8.21 3.354 10.062l.057.028c1.073.537 2.211.791 3.331.791 2.747 0 5.387-1.527 6.703-4.159 1.852-3.704.322-8.224-3.383-10.076z"/><path d="m134.575 304.126c-2.929 2.929-2.929 7.678 0 10.606l.028.028c1.461 1.461 3.371 2.19 5.282 2.19 1.92 0 3.842-.736 5.31-2.204 2.929-2.929 2.915-7.692-.014-10.621-2.928-2.928-7.677-2.928-10.606.001z"/><path d="m178.342 272.632c-2.929 2.929-2.929 7.678 0 10.606l.028.028c1.461 1.461 3.371 2.19 5.282 2.19 1.92 0 3.842-.736 5.31-2.204 2.929-2.929 2.915-7.692-.014-10.621-2.928-2.928-7.677-2.928-10.606.001z"/><path d="m499.482 332.487h-77.577c3.779-5.464 5.991-12.056 5.991-19.146v-22.662c3.964.186 7.607-.543 10.908-2.363 13.363-7.368 12.786-28.393 11.19-43.566-2.836-26.985-11.089-53.07-23.865-75.434-11.554-20.225-26.655-37.424-45.038-51.367-.018-.015-.035-.031-.053-.046-.028-.022-.057-.04-.085-.062-6.374-4.825-13.136-9.264-20.29-13.295-18.957-10.668-41.675-18.988-65.623-24.172-7.722-1.62-15.498-2.953-23.328-3.997-17.942-2.263-35.607-2.677-52.504-1.312-.111.008-.223.016-.333.029-15.573 1.281-30.493 4.071-44.346 8.377-39.281 12.208-68.609 36.142-84.811 69.211-4.002 8.157-7.673 17.08-11.56 26.526-9.67 23.506-20.63 50.148-42.634 81.399-9.06 12.868-3.624 20.947-.866 23.824 5.597 5.837 15.927 7.78 27.203 7.78 7.552 0 15.521-.875 22.78-2.032v23.163c0 7.091 2.212 13.682 5.991 19.146h-78.143c-6.886-.001-12.489 5.615-12.489 12.517v35.094c0 6.902 5.603 12.517 12.489 12.517h20.195v32.612c0 6.886 5.603 12.489 12.489 12.489h73.106c6.902 0 12.517-5.603 12.517-12.489v-32.612h105.801c4.142 0 7.5-3.358 7.5-7.5s-3.358-7.5-7.5-7.5h-221.597v-30.129h482v30.129h-225.48c-4.142 0-7.5 3.358-7.5 7.5s3.358 7.5 7.5 7.5h109.685v32.612c0 6.886 5.603 12.489 12.489 12.489h73.106c6.902 0 12.517-5.603 12.517-12.489v-32.612h20.166c6.902 0 12.518-5.615 12.518-12.517v-35.094c-.001-6.902-5.616-12.518-12.519-12.518zm-451.798 60.129h68.112v30.101h-68.112zm131.297-294.821c10.453-3.249 21.656-5.518 33.278-6.876v64.388c-9.791-16.402-23.544-31.644-38.767-41.606-5.21-3.41-10.323-5.992-15.287-7.753 6.52-3.147 13.449-5.877 20.776-8.153zm-42.747 21.537c10.254-3.775 22.525 2.653 29.043 6.919 23.441 15.341 44.184 47.187 46.72 70.671-11.526 5.844-20.399 13.897-29.942 23.106-.528-2.14-1.245-4.412-2.196-6.831-10.173-25.877-44.797-59.835-70.704-62.577-.395-.042-.782-.064-1.172-.091 7.298-12.028 16.793-22.49 28.251-31.197zm-44.203 65.582c2.339-5.685 4.597-11.173 6.874-16.357 1.316-1.787 3.553-3.561 8.672-3.02 18.249 1.931 49.317 30.244 58.322 53.148 1.674 4.257 3.917 11.949.507 16.239-7.621 6.909-16.412 14.119-27.437 21.225-.168.108-.356.215-.528.323-.367-6.752-2.873-13.483-7.523-19.818-10.636-14.489-30.854-24.409-50.046-25.608 4.254-9.35 7.849-18.086 11.159-26.132zm-9.34 90.389c-24.214 3.896-35.563.827-37.206-1.244.013-.347.206-1.836 2.305-4.817 10.795-15.332 19.121-29.79 25.899-43.2 16.35-1.328 35.919 6.929 45.138 19.488 4.656 6.342 5.817 12.696 3.486 18.922-11.687 4.699-25.779 8.623-39.622 10.851zm202.589 57.184h-58.021v-38.422c0-4.142-3.358-7.5-7.5-7.5s-7.5 3.358-7.5 7.5v38.422h-92.875c-11.07 0-19.741-8.41-19.741-19.146v-26.12c18.533-4.362 35.965-11.079 47.445-18.459 18.727-12.069 31.164-24.143 42.136-34.795 8.17-7.932 15.131-14.676 23.035-19.871v46.378c0 4.142 3.358 7.5 7.5 7.5s7.5-3.358 7.5-7.5v-170.799c19.028-.92 38.795.489 58.021 4.067zm108.07-139.395c.783-15.423 1.539-30.432.431-43.263 29.815 33.156 38.754 72.306 41.295 96.489 2.548 24.221-2.48 28.291-3.514 28.861-.947.522-3.264 1.085-8.358-.625-.229-.093-.463-.174-.703-.244-3.281-1.178-7.631-3.25-13.382-6.759-2.195-1.339-4.46-2.806-6.783-4.374-12.064-9.346-10.432-41.602-8.986-70.085zm-40.047-75.475c6.604 3.721 12.677 7.717 18.274 11.92.026.022.049.046.076.068 9.512 7.628 8.027 36.9 6.716 62.727-.952 18.757-1.915 37.859.556 53.559-5.179-4.032-10.33-8.105-15.484-12.172-3.265-2.59-6.53-5.181-9.794-7.773-.055-2.198-.108-4.424-.16-6.707-.796-35.102-1.828-80.391-22.72-112.36 7.87 3.175 15.434 6.742 22.536 10.738zm-53.023-20.609c.372.093.738.2 1.109.295 33.409 24.183 36.005 76.575 36.98 117.002-11.586-8.336-24.175-15.981-38.089-20.678zm112.616 216.333c0 10.736-8.671 19.146-19.741 19.146h-92.875v-122.86c17.775 7.177 33.859 19.954 48.297 31.446 1.881 1.498 3.74 2.978 5.581 4.428l3.723 2.936c21.208 16.729 39.729 31.329 55.015 38.159zm51.42 109.376h-68.112v-30.101h68.112z"/></g></g></svg>