<svg id="Layer_1" enable-background="new 0 0 512 512" height="512" viewBox="0 0 512 512" width="512" xmlns="http://www.w3.org/2000/svg"><g><g><path clip-rule="evenodd" d="m230.007 95.42 25.978 10.324 26.007-10.324v-12.932c0-14.294-11.713-25.979-26.007-25.979-14.265 0-25.978 11.685-25.978 25.979z" fill="#ffd772" fill-rule="evenodd"/></g><g><path clip-rule="evenodd" d="m261.715 156.284 50.312-28.844h.028v-16.024c0-8.792-7.204-15.996-15.995-15.996h-14.067-51.985-14.067c-8.792 0-15.995 7.204-15.995 15.996v16.024h.028z" fill="#f9f7f8" fill-rule="evenodd"/></g><g><path clip-rule="evenodd" d="m265.09 95.42c8.792 0 15.995 7.204 15.995 15.996v16.024h11.061 19.881.028v-16.024c0-8.792-7.204-15.996-15.995-15.996h-14.067z" fill="#e5e4ed" fill-rule="evenodd"/></g><g><path clip-rule="evenodd" d="m255.986 370.838h48.071 24.872c2.836 0 5.133-2.297 5.133-5.133v-33.608l-74.333-34.289-81.792 34.289v33.608c0 2.836 2.297 5.133 5.133 5.133h24.872z" fill="#f9f7f8" fill-rule="evenodd"/></g><g><path clip-rule="evenodd" d="m334.063 332.097c37.72-20.987 62.564-56.751 62.564-97.336 0-48.044-34.799-89.31-84.6-107.32h-19.881c45.519 39.252 46.228 156.328 14.209 204.656z" fill="#f37c7c" fill-rule="evenodd"/></g><g><path clip-rule="evenodd" d="m238.204 443.189c4.141 5.275 10.579 8.65 17.782 8.65 7.232 0 13.67-3.375 17.81-8.65 2.978-3.829 4.765-8.679 4.765-13.897 0-12.479-10.096-22.576-22.575-22.576-12.45 0-22.547 10.097-22.547 22.576 0 5.218 1.787 10.068 4.765 13.897z" fill="#ffd772" fill-rule="evenodd"/></g><g><path clip-rule="evenodd" d="m222.69 492.764c8.792 8.253 20.476 12.054 33.295 11.713 12.847.34 24.532-3.46 33.324-11.713 2.439-2.297 2.95-3.403.936-7.487l-16.449-42.088c-4.141 5.275-31.452 5.275-35.593 0l-16.449 42.088c-2.013 4.084-1.503 5.19.936 7.487z" fill="#f37c7c" fill-rule="evenodd"/></g><g><path clip-rule="evenodd" d="m306.354 332.097v33.608c0 2.836-2.326 5.133-5.133 5.133h2.836 24.872c2.836 0 5.133-2.297 5.133-5.133v-33.608h-21.781z" fill="#e5e4ed" fill-rule="evenodd"/></g><g><path clip-rule="evenodd" d="m115.374 234.76c0 40.585 24.844 76.349 62.564 97.336h27.708c-24.333-20.987-26.971-54.284-26.971-98.613s9.075-88.034 41.18-106.043h-19.881c-49.802 18.01-84.6 59.276-84.6 107.32z" fill="#f37c7c" fill-rule="evenodd"/></g><g><path clip-rule="evenodd" d="m165.288 234.76c0 40.585 16.024 76.349 40.357 97.336h30.771c-9.472-20.987-6.693-53.008-6.693-97.336s-.255-89.31 12.223-107.32h-22.093c-32.103 18.01-54.565 59.276-54.565 107.32z" fill="#ffd772" fill-rule="evenodd"/></g><g><path clip-rule="evenodd" d="m275.583 332.097h30.771c24.333-20.987 40.357-56.751 40.357-97.336 0-48.044-22.462-89.31-54.566-107.32h-22.093c11.26 40.641 7.63 158.795 5.531 204.656z" fill="#ffd772" fill-rule="evenodd"/></g><g><path clip-rule="evenodd" d="m295.549 129.454c46.937 18.945 79.325 58.992 79.325 105.306 0 40.585-24.844 76.349-62.592 97.336h21.781c37.72-20.987 62.564-56.751 62.564-97.336 0-48.044-34.799-89.31-84.6-107.32h-19.881c1.134.624 2.269 1.305 3.403 2.014z" fill="#ee6161" fill-rule="evenodd"/></g><g><path clip-rule="evenodd" d="m220.733 234.76c0 40.585 6.211 76.349 15.683 97.336h39.166c9.472-20.987 15.683-56.751 15.683-97.336 0-48.044-8.735-89.31-21.214-107.32h-28.105c-12.477 18.01-21.213 59.276-21.213 107.32z" fill="#f37c7c" fill-rule="evenodd"/></g><g><path clip-rule="evenodd" d="m255.986 412.246c4.765 4.141 7.742 10.238 7.742 17.045 0 5.219-1.787 10.068-4.765 13.897-2.666 3.375-6.239 5.984-10.38 7.402 2.326.822 4.821 1.248 7.402 1.248 7.232 0 13.67-3.375 17.81-8.65 2.978-3.829 4.765-8.679 4.765-13.897 0-12.479-10.096-22.576-22.575-22.576-2.581 0-5.077.425-7.402 1.248 2.752.937 5.276 2.411 7.403 4.283z" fill="#fbba58" fill-rule="evenodd"/></g><g><path clip-rule="evenodd" d="m262.424 450.931 14.889 38.146c2.042 4.056 1.503 5.19-.908 7.459-3.29 3.091-6.948 5.559-10.947 7.402 9.075-1.333 17.272-4.992 23.851-11.174 2.439-2.297 2.95-3.403.936-7.487l-16.449-42.088c-2.864 3.63-6.835 6.381-11.372 7.742z" fill="#ee6161" fill-rule="evenodd"/></g><g><path clip-rule="evenodd" d="m244.755 59.061c8.707 4.226 14.748 13.16 14.748 23.427v12.932h5.587 16.903v-12.932c0-14.294-11.713-25.979-26.007-25.979-3.999 0-7.828.907-11.231 2.552z" fill="#fbba58" fill-rule="evenodd"/></g><path d="m319.555 122.281v-10.864c0-12.956-10.54-23.496-23.496-23.496h-6.567v-5.433c0-15.884-11.132-29.209-26.007-32.623v-42.365c0-4.142-3.358-7.5-7.5-7.5s-7.5 3.358-7.5 7.5v42.366c-14.859 3.416-25.978 16.74-25.978 32.621v5.433h-6.567c-12.956 0-23.496 10.54-23.496 23.496v10.868c-26.068 10.414-48.443 27.409-63.399 48.262-2.414 3.366-1.642 8.052 1.724 10.466 1.324.949 2.852 1.406 4.365 1.406 2.335 0 4.636-1.087 6.101-3.129 12.618-17.595 31.302-32.135 53.189-41.573-22.801 23.273-36.636 58.776-36.636 97.044 0 34.248 11.049 66.565 30.155 89.837h-8.006c-35.764-20.545-57.065-53.996-57.065-89.837 0-8.34 1.146-16.657 3.408-24.719 1.119-3.988-1.207-8.128-5.195-9.247-3.991-1.117-8.128 1.208-9.247 5.195-2.631 9.381-3.966 19.06-3.966 28.77 0 40.602 23.3 78.318 62.564 101.673v29.272c0 6.966 5.667 12.633 12.633 12.633h17.373v23.386c0 4.142 3.358 7.5 7.5 7.5s7.5-3.358 7.5-7.5v-23.386h33.043v21.832c-12.952 3.35-22.547 15.136-22.547 29.121 0 5.354 1.416 10.382 3.883 14.74l-14.944 38.237c-3.147 6.572-2.362 11.214 2.68 15.963 9.615 9.027 22.318 13.768 36.834 13.767.528 0 1.061-.006 1.594-.019 15.193.37 28.492-4.393 38.466-13.756 5.033-4.741 5.818-9.382 2.67-15.954l-14.943-38.234c2.466-4.359 3.881-9.388 3.881-14.744 0-14.003-9.61-25.801-22.575-29.134v-21.819h33.071v23.386c0 4.142 3.358 7.5 7.5 7.5s7.5-3.358 7.5-7.5v-23.386h17.373c6.966 0 12.633-5.667 12.633-12.633v-29.284c14.028-8.354 26.094-18.538 35.901-30.328 2.649-3.185 2.214-7.913-.97-10.562-3.185-2.648-7.914-2.215-10.562.97-9.13 10.977-20.518 20.419-33.86 28.097h-8.015c19.106-23.271 30.155-55.588 30.155-89.837 0-38.278-13.842-73.788-36.652-97.061 43.752 18.794 71.567 56.12 71.567 97.061 0 11.261-2.055 22.312-6.108 32.843-1.488 3.866.44 8.206 4.306 9.693.886.341 1.796.502 2.692.502 3.012 0 5.854-1.829 7.001-4.808 4.717-12.258 7.109-25.121 7.109-38.231.002-48.269-33.015-91.924-84.57-112.478zm-82.048-39.793c0-10.189 8.289-18.479 18.478-18.479 10.205 0 18.507 8.29 18.507 18.479v5.433h-36.985zm-30.062 28.928c0-4.685 3.811-8.496 8.496-8.496h14.067 51.985 14.067c4.685 0 8.496 3.811 8.496 8.496v8.524h-97.11v-8.524zm58.466 23.525c10.763 18.745 17.855 57.918 17.855 99.819 0 35.605-4.884 68.643-13.17 89.837h-29.193c-8.286-21.194-13.17-54.231-13.17-89.837 0-41.901 7.092-81.075 17.855-99.819zm-93.123 99.819c0-43.15 19.221-82.065 49.11-99.819h7.429c-10.073 22.636-16.093 59.133-16.093 99.819 0 34.468 4.496 66.97 12.228 89.837h-16.959c-22.41-20.573-35.715-53.913-35.715-89.837zm110.507 253.335c-6.98 6.103-16.329 9.165-27.11 8.885-.133-.002-.265-.002-.398 0-10.761.284-20.11-2.785-27.082-8.885.012-.029.024-.059.035-.088l12.684-32.454c4.324 2.408 9.299 3.785 14.591 3.785 5.282 0 10.247-1.375 14.565-3.779l12.681 32.447c.01.03.022.059.034.089zm-12.234-58.804c0 8.297-6.75 15.047-15.047 15.047-8.313 0-15.075-6.75-15.075-15.047 0-8.313 6.763-15.076 15.075-15.076 8.297.001 15.047 6.763 15.047 15.076zm55.502-89.694v23.742h-141.126v-23.742zm12.649-104.837c0 35.924-13.305 69.264-35.714 89.837h-16.959c7.733-22.866 12.228-55.369 12.228-89.837 0-40.686-6.02-77.183-16.093-99.819h7.429c29.888 17.754 49.109 56.669 49.109 99.819z"/></g></svg>