<svg id="Layer_1" enable-background="new 0 0 512 512" height="512" viewBox="0 0 512 512" width="512" xmlns="http://www.w3.org/2000/svg"><g><g><path clip-rule="evenodd" d="m255.986 129.432-215.094 40.647v263.432l215.094 19.049 215.093-19.049v-263.318z" fill="#f37c7c" fill-rule="evenodd"/></g><g><path clip-rule="evenodd" d="m207.485 290.896v142.615h97.03v-142.615c0-2.58-2.126-4.706-4.706-4.706h-87.619c-2.579 0-4.705 2.126-4.705 4.706z" fill="#365e7d" fill-rule="evenodd"/></g><g><path clip-rule="evenodd" d="m273.504 290.896v142.615h31.011v-142.615c0-2.58-2.126-4.706-4.706-4.706h-31.011c2.58 0 4.706 2.126 4.706 4.706z" fill="#2b4d66" fill-rule="evenodd"/></g><g><path clip-rule="evenodd" d="m76.637 228.758c0 10.715 8.646 19.361 19.361 19.361 10.687 0 19.361-8.646 19.361-19.361 0-10.687-8.674-19.361-19.361-19.361-10.715 0-19.361 8.674-19.361 19.361z" fill="#ffd772" fill-rule="evenodd"/></g><g><path clip-rule="evenodd" d="m175.992 248.119c10.687 0 19.361-8.646 19.361-19.361 0-10.687-8.674-19.361-19.361-19.361s-19.361 8.674-19.361 19.361c0 10.716 8.674 19.361 19.361 19.361z" fill="#ffd772" fill-rule="evenodd"/></g><g><path clip-rule="evenodd" d="m236.625 228.758c0 10.715 8.674 19.361 19.361 19.361s19.361-8.646 19.361-19.361c0-10.687-8.674-19.361-19.361-19.361s-19.361 8.674-19.361 19.361z" fill="#ffd772" fill-rule="evenodd"/></g><g><path clip-rule="evenodd" d="m316.619 228.758c0 10.715 8.674 19.361 19.361 19.361 10.715 0 19.361-8.646 19.361-19.361 0-10.687-8.646-19.361-19.361-19.361-10.687 0-19.361 8.674-19.361 19.361z" fill="#ffd772" fill-rule="evenodd"/></g><g><path clip-rule="evenodd" d="m396.641 228.758c0 10.715 8.646 19.361 19.361 19.361 10.687 0 19.361-8.646 19.361-19.361 0-10.687-8.674-19.361-19.361-19.361-10.715 0-19.361 8.674-19.361 19.361z" fill="#ffd772" fill-rule="evenodd"/></g><g><path clip-rule="evenodd" d="m12.376 471.61h487.22c2.693 0 4.904-2.183 4.904-4.876v-28.319c0-2.693-2.211-4.904-4.904-4.904h-28.517-166.564-97.03-166.593-28.516c-2.693 0-4.876 2.211-4.876 4.904v28.319c0 2.693 2.183 4.876 4.876 4.876z" fill="#ffd772" fill-rule="evenodd"/></g><g><path clip-rule="evenodd" d="m34.996 99.693 221.202 36.937 221.202-36.937c-33.08-11.537-57.543-30.077-72.369-55.674-1.587-2.721-3.713-3.628-6.52-3.628h-284.655c-2.778 0-4.932.907-6.491 3.628-14.854 25.597-39.288 44.137-72.369 55.674z" fill="#e29d7b" fill-rule="evenodd"/></g><g><path clip-rule="evenodd" d="m86.473 289.818v103.694c0 1.984 1.616 3.628 3.628 3.628h68.173c2.013 0 3.628-1.644 3.628-3.628v-103.694c0-1.984-1.616-3.628-3.628-3.628h-68.172c-2.013 0-3.629 1.644-3.629 3.628z" fill="#bed8fb" fill-rule="evenodd"/></g><g><path clip-rule="evenodd" d="m350.068 290.329v103.694c0 1.984 1.644 3.628 3.628 3.628h68.202c1.984 0 3.628-1.644 3.628-3.628v-103.694c0-1.984-1.644-3.628-3.628-3.628h-68.202c-1.984-.001-3.628 1.643-3.628 3.628z" fill="#bed8fb" fill-rule="evenodd"/></g><g><path clip-rule="evenodd" d="m409.369 290.329v103.694c0 1.984-1.644 3.628-3.628 3.628h16.158c1.984 0 3.628-1.644 3.628-3.628v-103.694c0-1.984-1.644-3.628-3.628-3.628h-16.158c1.984-.001 3.628 1.643 3.628 3.628z" fill="#9dc6fb" fill-rule="evenodd"/></g><g><path clip-rule="evenodd" d="m145.774 289.818v103.694c0 1.984-1.644 3.628-3.628 3.628h16.129c2.013 0 3.628-1.644 3.628-3.628v-103.694c0-1.984-1.616-3.628-3.628-3.628h-16.129c1.984 0 3.628 1.644 3.628 3.628z" fill="#9dc6fb" fill-rule="evenodd"/></g><g><path clip-rule="evenodd" d="m7.925 105.759c-.624 30.927 6.435 55.532 32.967 64.32 6.86 2.268 15.024 3.487 24.661 3.487h30.444 79.994 79.994 79.994 80.022 30.813c9.468 0 17.49-1.191 24.265-3.373 26.873-8.674 34.016-33.336 33.364-64.433-.113-5.499-.482-6.066-6.066-6.066h-20.976-46.148-396.257-20.976c-5.613-.001-5.981.566-6.095 6.065z" fill="#ffd772" fill-rule="evenodd"/></g><g><path clip-rule="evenodd" d="m458.323 105.759c.652 31.097-6.491 55.759-33.364 64.433-6.775 2.183-14.797 3.373-24.265 3.373h15.307 30.813c9.468 0 17.49-1.191 24.265-3.373 26.873-8.674 34.016-33.336 33.364-64.433-.113-5.499-.482-6.066-6.066-6.066h-20.976-25.172c5.613 0 5.981.567 6.094 6.066z" fill="#fbba58" fill-rule="evenodd"/></g><g><path clip-rule="evenodd" d="m414.953 248.119v38.581h6.945c1.984 0 3.628 1.644 3.628 3.628v103.694c0 1.984-1.644 3.628-3.628 3.628h-6.945v35.859h56.126v-263.316c-6.775 2.183-14.797 3.373-24.265 3.373h-30.813v35.831c10.687 0 19.361 8.674 19.361 19.361 0 10.715-8.674 19.361-19.361 19.361-.339 0-.708 0-1.048 0z" fill="#ee6161" fill-rule="evenodd"/></g><g><path clip-rule="evenodd" d="m399.476 78.461h-323.236c-11.735 8.674-25.512 15.733-41.244 21.232h396.256 11.14 35.008c-33.08-11.537-57.543-30.077-72.369-55.674-1.587-2.721-3.713-3.628-6.52-3.628h-26.929c2.41 20.778 27.894 38.07 27.894 38.07z" fill="#ce8b6b" fill-rule="evenodd"/></g><g><path clip-rule="evenodd" d="m445.256 438.415v28.319c0 2.693-2.183 4.876-4.876 4.876h59.216c2.693 0 4.904-2.183 4.904-4.876v-28.319c0-2.693-2.211-4.904-4.904-4.904h-28.517-30.643c2.665.057 4.82 2.239 4.82 4.904z" fill="#fbba58" fill-rule="evenodd"/></g><g><path d="m158.275 404.641c6.136 0 11.128-4.992 11.128-11.128v-103.695c0-6.136-4.992-11.128-11.128-11.128h-68.173c-6.136 0-11.128 4.992-11.128 11.128v103.694c0 6.136 4.992 11.128 11.128 11.128h68.173zm-64.301-110.951h60.43v95.951h-22.7v-23.184h6.616c4.143 0 7.5-3.358 7.5-7.5s-3.357-7.5-7.5-7.5h-28.262c-4.143 0-7.5 3.358-7.5 7.5s3.357 7.5 7.5 7.5h6.646v23.184h-22.73z"/><path d="m421.898 405.151c6.136 0 11.128-4.992 11.128-11.128v-103.694c0-6.136-4.992-11.128-11.128-11.128h-68.202c-6.136 0-11.128 4.992-11.128 11.128v103.694c0 6.136 4.992 11.128 11.128 11.128zm-64.33-110.951h60.458v95.951h-22.729v-23.184h6.617c4.143 0 7.5-3.358 7.5-7.5s-3.357-7.5-7.5-7.5h-28.233c-4.143 0-7.5 3.358-7.5 7.5s3.357 7.5 7.5 7.5h6.616v23.184h-22.729z"/><path d="m499.596 426.011h-21.017v-250.658c6.316-2.699 11.753-6.338 16.252-10.934 12.257-12.518 17.694-31.208 17.11-58.814-.198-9.652-4.002-13.412-13.564-13.412h-19.644c-31.027-11.053-53.647-28.513-67.222-51.953-1.956-3.353-5.8-7.35-12.998-7.35h-284.657c-7.241 0-11.065 4.025-12.979 7.365-13.598 23.434-36.219 40.896-67.214 51.938h-19.643c-9.581 0-13.393 3.76-13.593 13.414-.563 27.622 4.886 46.315 17.146 58.829 4.397 4.487 9.69 8.059 15.819 10.737v109.657c0 4.142 3.357 7.5 7.5 7.5s7.5-3.358 7.5-7.5v-105.209c5.3.952 11.016 1.445 17.161 1.445h22.944v21.905c-11.171 3.255-19.36 13.58-19.36 25.788 0 14.812 12.05 26.861 26.86 26.861s26.86-12.05 26.86-26.861c0-12.208-8.189-22.533-19.36-25.788v-21.905h64.994v21.904c-11.172 3.255-19.361 13.58-19.361 25.788 0 14.812 12.05 26.861 26.861 26.861s26.86-12.05 26.86-26.861c0-12.208-8.189-22.533-19.36-25.788v-21.905h64.993v21.905c-11.171 3.255-19.36 13.58-19.36 25.788 0 14.812 12.05 26.861 26.86 26.861 14.812 0 26.861-12.05 26.861-26.861 0-12.208-8.189-22.533-19.361-25.788v-21.904h64.994v21.905c-11.171 3.255-19.36 13.58-19.36 25.788 0 14.812 12.05 26.861 26.86 26.861 14.812 0 26.861-12.05 26.861-26.861 0-12.208-8.189-22.533-19.361-25.788v-21.904h65.022v21.905c-11.171 3.255-19.36 13.58-19.36 25.788 0 14.812 12.05 26.861 26.86 26.861s26.86-12.05 26.86-26.861c0-12.208-8.189-22.533-19.36-25.788v-21.905h23.313c5.993 0 11.575-.47 16.765-1.375v246.32h-151.563v-135.116c0-6.73-5.476-12.206-12.205-12.206h-87.62c-6.729 0-12.205 5.476-12.205 12.206v135.115h-151.592v-106.57c0-4.142-3.357-7.5-7.5-7.5s-7.5 3.358-7.5 7.5v106.569h-21.017c-6.824.001-12.376 5.565-12.376 12.405v28.319c0 6.824 5.552 12.376 12.376 12.376h487.22c6.84 0 12.404-5.552 12.404-12.376v-28.319c0-6.84-5.564-12.404-12.404-12.404zm-391.738-197.253c0 6.541-5.32 11.861-11.86 11.861s-11.86-5.321-11.86-11.861 5.32-11.861 11.86-11.861 11.86 5.321 11.86 11.861zm79.995 0c0 6.541-5.32 11.861-11.86 11.861s-11.861-5.321-11.861-11.861 5.321-11.861 11.861-11.861 11.86 5.321 11.86 11.861zm79.994 0c0 6.541-5.321 11.861-11.861 11.861s-11.86-5.321-11.86-11.861 5.32-11.861 11.86-11.861 11.861 5.321 11.861 11.861zm79.994 0c0 6.541-5.321 11.861-11.861 11.861s-11.86-5.321-11.86-11.861 5.32-11.861 11.86-11.861 11.861 5.321 11.861 11.861zm80.021 0c0 6.541-5.32 11.861-11.86 11.861s-11.86-5.321-11.86-11.861 5.32-11.861 11.86-11.861 11.86 5.321 11.86 11.861zm-362.308-62.692c-8.523 0-15.829-.989-22.003-2.993-.165-.063-.33-.124-.5-.175-5.967-2.011-10.867-4.984-14.764-8.961-8.955-9.14-13.174-24.438-12.885-46.744h223.604c4.143 0 7.5-3.358 7.5-7.5s-3.357-7.5-7.5-7.5h-169.917c19.253-11.495 34.227-26.31 44.702-44.302h.066 284.656c.033 0 .065 0 .095.001 10.44 17.979 25.413 32.798 44.69 44.302h-169.652c-4.143 0-7.5 3.358-7.5 7.5s3.357 7.5 7.5 7.5h203.731c.008 0 .016.002.023.002.009 0 .017-.002.025-.002h19.542c.305 22.295-3.904 37.591-12.854 46.732-3.917 4.001-8.849 6.988-14.864 9.002-.326.082-.644.182-.951.304-6.066 1.892-13.195 2.835-21.484 2.835h-381.26zm149.431 127.624h82.029v132.321h-82.029zm282.015 170.42h-482v-23.099h482z"/></g></g></svg>