<svg id="Layer_1" enable-background="new 0 0 512 512" height="512" viewBox="0 0 512 512" width="512" xmlns="http://www.w3.org/2000/svg"><g><g><path clip-rule="evenodd" d="m57.475 309.293h151.654c2.296 0 4.167 1.869 4.167 4.164v32.63c0 2.294-1.871 4.164-4.167 4.164h-151.654c-2.296 0-4.167-1.869-4.167-4.164v-32.63c0-2.295 1.871-4.164 4.167-4.164zm-30.019 153.207h457.06c10.857 0 19.758-8.752 19.984-19.516v-33.791l-1.191.028c-27.638 0-50.003-22.376-50.003-49.964s22.365-49.964 50.003-49.964h1.191v-196.261c-6.491 3.059-13.748 4.759-21.373 4.759-27.723 0-50.202-22.461-50.202-50.163 0-6.401 1.191-12.519 3.373-18.128h-408.842c-10.97 0-19.956 8.979-19.956 19.94v110.24c1.644-.198 3.345-.283 5.046-.283 24.095 0 43.625 19.516 43.625 43.591 0 24.048-19.531 43.563-43.625 43.563-1.701 0-3.402-.085-5.046-.283v176.292c0 10.961 8.986 19.94 19.956 19.94zm326.949-150.432c30.784 0 55.758 24.954 55.758 55.743 0 30.76-24.973 55.714-55.758 55.714-30.813 0-55.786-24.954-55.786-55.714 0-30.789 24.973-55.743 55.786-55.743zm-55.701-127.488v-32.63c0-2.294 1.871-4.164 4.167-4.164h151.654c2.296 0 4.167 1.869 4.167 4.164v32.63c0 2.294-1.871 4.164-4.167 4.164h-151.654c-2.296-.001-4.167-1.87-4.167-4.164zm-89.575-55.148h-151.654c-2.296 0-4.167-1.869-4.167-4.164v-32.63c0-2.294 1.871-4.164 4.167-4.164h151.654c2.296 0 4.167 1.869 4.167 4.164v32.63c0 2.294-1.871 4.164-4.167 4.164z" fill="#f9f7f8" fill-rule="evenodd"/></g><g><path clip-rule="evenodd" d="m57.475 129.432h151.654c2.296 0 4.167-1.869 4.167-4.164v-32.63c0-2.294-1.871-4.164-4.167-4.164h-151.654c-2.296 0-4.167 1.869-4.167 4.164v32.63c0 2.294 1.871 4.164 4.167 4.164z" fill="#a7e9a6" fill-rule="evenodd"/></g><g><path clip-rule="evenodd" d="m57.475 350.25h151.654c2.296 0 4.167-1.869 4.167-4.164v-32.63c0-2.294-1.871-4.164-4.167-4.164h-151.654c-2.296 0-4.167 1.869-4.167 4.164v32.63c0 2.294 1.871 4.164 4.167 4.164z" fill="#a7e9a6" fill-rule="evenodd"/></g><g><path clip-rule="evenodd" d="m298.619 367.811c0 30.76 24.973 55.714 55.786 55.714-10.772 0-19.502-24.954-19.502-55.714 0-30.789 8.731-55.743 19.502-55.743-30.813 0-55.786 24.954-55.786 55.743z" fill="#f37c7c" fill-rule="evenodd"/></g><g><path clip-rule="evenodd" d="m354.405 423.525c30.784 0 55.758-24.954 55.758-55.714 0-30.789-24.973-55.743-55.758-55.743 10.772 0 19.502 24.954 19.502 55.743 0 30.761-8.73 55.714-19.502 55.714z" fill="#f37c7c" fill-rule="evenodd"/></g><g><path clip-rule="evenodd" d="m302.871 188.743h151.654c2.296 0 4.167-1.869 4.167-4.164v-32.63c0-2.294-1.871-4.164-4.167-4.164h-151.654c-2.296 0-4.167 1.869-4.167 4.164v32.63c0 2.295 1.871 4.164 4.167 4.164z" fill="#a7e9a6" fill-rule="evenodd"/></g><g><path clip-rule="evenodd" d="m7.5 179.68v86.588c1.644.198 3.345.283 5.046.283 24.095 0 43.625-19.516 43.625-43.563 0-24.076-19.531-43.591-43.625-43.591-1.701-.001-3.402.084-5.046.283z" fill="#f37c7c" fill-rule="evenodd"/></g><g><path clip-rule="evenodd" d="m334.903 367.811c0 30.76 8.731 55.714 19.502 55.714s19.502-24.954 19.502-55.714c0-30.789-8.731-55.743-19.502-55.743s-19.502 24.954-19.502 55.743z" fill="#ffd772" fill-rule="evenodd"/></g><g><path clip-rule="evenodd" d="m422.493 188.743c2.154 18.241 3.26 37.02 3.26 56.168 0 42.6-5.528 83.302-15.619 120.691.028.708.028 1.445.028 2.209 0 12.831-4.337 24.642-11.622 34.074-8.107 21.81-17.858 42.119-28.999 60.615h114.974c10.857 0 19.758-8.752 19.984-19.516v-33.791l-1.191.028c-27.638 0-50.003-22.376-50.003-49.964s22.365-49.964 50.003-49.964h1.191v-196.261c-6.491 3.059-13.748 4.759-21.373 4.759-27.723 0-50.202-22.461-50.202-50.163 0-6.401 1.191-12.519 3.373-18.128h-54.51c14.854 29.401 26.447 62.541 33.988 98.286h38.75c2.296 0 4.167 1.869 4.167 4.164v32.63c0 2.294-1.871 4.164-4.167 4.164h-32.032z" fill="#e5e4ed" fill-rule="evenodd"/></g><g><path clip-rule="evenodd" d="m415.775 147.786c2.806 13.313 5.074 26.965 6.718 40.957h32.032c2.296 0 4.167-1.869 4.167-4.164v-32.63c0-2.294-1.871-4.164-4.167-4.164h-38.75z" fill="#7fdbae" fill-rule="evenodd"/></g><g><path clip-rule="evenodd" d="m432.925 67.628c0 27.701 22.479 50.163 50.202 50.163 7.625 0 14.882-1.699 21.373-4.759v-44.016c-.227-10.763-9.128-19.516-19.984-19.516h-48.217c-2.183 5.608-3.374 11.726-3.374 18.128z" fill="#ffd772" fill-rule="evenodd"/></g><g><path clip-rule="evenodd" d="m432.925 67.628c0 27.701 22.479 50.163 50.202 50.163 7.625 0 14.882-1.699 21.373-4.759v-44.016c-.227-10.763-9.128-19.516-19.984-19.516h-48.217c-2.183 5.608-3.374 11.726-3.374 18.128z" fill="#ffd772" fill-rule="evenodd"/></g><g><path clip-rule="evenodd" d="m453.306 359.257c0 27.588 22.365 49.964 50.003 49.964l1.191-.028v-99.901h-1.191c-27.637.001-50.003 22.377-50.003 49.965z" fill="#ffd772" fill-rule="evenodd"/></g><g><path clip-rule="evenodd" d="m503.309 309.293c-27.638 0-50.003 22.376-50.003 49.964s22.365 49.964 50.003 49.964l1.191-.028v-99.901h-1.191z" fill="#ffd772" fill-rule="evenodd"/></g><g><path clip-rule="evenodd" d="m170.379 88.475c2.806 13.313 5.074 26.965 6.718 40.957h32.032c2.296 0 4.167-1.869 4.167-4.164v-32.63c0-2.294-1.871-4.164-4.167-4.164h-38.75z" fill="#7fdbae" fill-rule="evenodd"/></g><g><path clip-rule="evenodd" d="m170.379 309.293c2.806 13.313 5.074 26.993 6.718 40.957h32.032c2.296 0 4.167-1.869 4.167-4.164v-32.63c0-2.294-1.871-4.164-4.167-4.164h-38.75z" fill="#7fdbae" fill-rule="evenodd"/></g><g><path d="m110.993 161.898h-19.502c-4.143 0-7.5 3.358-7.5 7.5s3.357 7.5 7.5 7.5h19.502c4.143 0 7.5-3.358 7.5-7.5s-3.357-7.5-7.5-7.5z"/><path d="m215.989 161.898h-64.999c-4.143 0-7.5 3.358-7.5 7.5s3.357 7.5 7.5 7.5h64.999c4.143 0 7.5-3.358 7.5-7.5s-3.357-7.5-7.5-7.5z"/><path d="m215.989 195.208h-64.999c-4.143 0-7.5 3.358-7.5 7.5s3.357 7.5 7.5 7.5h64.999c4.143 0 7.5-3.358 7.5-7.5s-3.357-7.5-7.5-7.5z"/><path d="m110.993 195.208h-19.502c-4.143 0-7.5 3.358-7.5 7.5s3.357 7.5 7.5 7.5h19.502c4.143 0 7.5-3.358 7.5-7.5s-3.357-7.5-7.5-7.5z"/><path d="m215.989 228.517h-64.999c-4.143 0-7.5 3.358-7.5 7.5s3.357 7.5 7.5 7.5h64.999c4.143 0 7.5-3.358 7.5-7.5s-3.357-7.5-7.5-7.5z"/><path d="m110.993 228.517h-19.502c-4.143 0-7.5 3.358-7.5 7.5s3.357 7.5 7.5 7.5h19.502c4.143 0 7.5-3.358 7.5-7.5s-3.357-7.5-7.5-7.5z"/><path d="m91.491 276.827h19.502c4.143 0 7.5-3.358 7.5-7.5s-3.357-7.5-7.5-7.5h-19.502c-4.143 0-7.5 3.358-7.5 7.5s3.358 7.5 7.5 7.5z"/><path d="m223.489 269.327c0-4.142-3.357-7.5-7.5-7.5h-64.999c-4.143 0-7.5 3.358-7.5 7.5s3.357 7.5 7.5 7.5h64.999c4.143 0 7.5-3.358 7.5-7.5z"/><path d="m72.782 382.716h-19.474c-4.143 0-7.5 3.358-7.5 7.5s3.357 7.5 7.5 7.5h19.475c4.143 0 7.5-3.358 7.5-7.5s-3.358-7.5-7.501-7.5z"/><path d="m177.806 382.716h-64.998c-4.143 0-7.5 3.358-7.5 7.5s3.357 7.5 7.5 7.5h64.998c4.143 0 7.5-3.358 7.5-7.5s-3.358-7.5-7.5-7.5z"/><path d="m177.806 416.025h-64.998c-4.143 0-7.5 3.358-7.5 7.5s3.357 7.5 7.5 7.5h64.998c4.143 0 7.5-3.358 7.5-7.5s-3.358-7.5-7.5-7.5z"/><path d="m72.782 416.025h-19.474c-4.143 0-7.5 3.358-7.5 7.5s3.357 7.5 7.5 7.5h19.475c4.143 0 7.5-3.358 7.5-7.5s-3.358-7.5-7.501-7.5z"/><path d="m458.692 221.209h-83.538c-4.143 0-7.5 3.358-7.5 7.5s3.357 7.5 7.5 7.5h83.538c4.143 0 7.5-3.358 7.5-7.5s-3.357-7.5-7.5-7.5z"/><path d="m298.704 236.209h25.059c4.143 0 7.5-3.358 7.5-7.5s-3.357-7.5-7.5-7.5h-25.059c-4.143 0-7.5 3.358-7.5 7.5s3.358 7.5 7.5 7.5z"/><path d="m298.704 269.519h25.059c4.143 0 7.5-3.358 7.5-7.5s-3.357-7.5-7.5-7.5h-25.059c-4.143 0-7.5 3.358-7.5 7.5s3.358 7.5 7.5 7.5z"/><path d="m458.692 254.519h-83.538c-4.143 0-7.5 3.358-7.5 7.5s3.357 7.5 7.5 7.5h83.538c4.143 0 7.5-3.358 7.5-7.5s-3.357-7.5-7.5-7.5z"/><path d="m466.192 151.95c0-6.431-5.233-11.664-11.667-11.664h-151.654c-6.434 0-11.667 5.232-11.667 11.664v32.63c0 6.432 5.233 11.664 11.667 11.664h151.654c6.434 0 11.667-5.232 11.667-11.664zm-15 29.294h-144.988v-25.958h144.988z"/><path d="m247.13 49.5c0-4.142-3.357-7.5-7.5-7.5h-212.174c-15.14 0-27.456 12.31-27.456 27.44v373.12c0 15.13 12.316 27.44 27.456 27.44h212.174c4.143 0 7.5-3.358 7.5-7.5s-3.357-7.5-7.5-7.5h-212.174c-6.868 0-12.456-5.581-12.456-12.44v-168.571c27.055-1.284 48.671-23.667 48.671-51.001 0-27.349-21.616-49.745-48.671-51.029v-102.519c0-6.859 5.588-12.44 12.456-12.44h212.174c4.142 0 7.5-3.358 7.5-7.5zm-198.459 173.488c0 19.061-14.893 34.705-33.671 35.97v-71.969c18.778 1.266 33.671 16.923 33.671 35.999z"/><path d="m484.516 42h-210.7c-4.143 0-7.5 3.358-7.5 7.5s3.357 7.5 7.5 7.5h152.582c-.647 3.477-.973 7.028-.973 10.628 0 31.795 25.885 57.663 57.702 57.663 4.739 0 9.373-.58 13.873-1.691v178.546c-28.749 3.151-51.194 27.557-51.194 57.112s22.445 53.96 51.194 57.111v26.191c0 6.86-5.601 12.44-12.484 12.44h-210.275c-4.143 0-7.5 3.358-7.5 7.5s3.357 7.5 7.5 7.5h210.274c15.156 0 27.485-12.31 27.485-27.44v-373.12c0-15.13-12.329-27.44-27.484-27.44zm-1.389 68.291c-23.546 0-42.702-19.138-42.702-42.663 0-3.632.456-7.188 1.337-10.628h42.753c6.884 0 12.485 5.581 12.485 12.44v38.554c-4.433 1.525-9.081 2.297-13.873 2.297zm-22.321 248.966c0-21.273 15.74-38.94 36.194-41.994v83.988c-20.455-3.054-36.194-20.72-36.194-41.994z"/><path d="m354.405 431.025c34.881 0 63.258-28.358 63.258-63.214 0-32.334-24.401-59.061-55.758-62.783v-10.011c0-4.142-3.357-7.5-7.5-7.5s-7.5 3.358-7.5 7.5v10.011c-31.372 3.721-55.786 30.448-55.786 62.783 0 34.856 28.39 63.214 63.286 63.214zm48.258-63.214c0 19.397-11.531 36.144-28.098 43.789 4.63-12.087 6.842-28.236 6.842-43.789 0-15.563-2.212-31.722-6.845-43.816 16.569 7.649 28.101 24.406 28.101 43.816zm-48.258-48.218c3.416 1.245 12.002 17.462 12.002 48.218 0 30.74-8.586 46.948-12.002 48.19-3.416-1.242-12.003-17.45-12.003-48.19 0-30.758 8.587-46.976 12.003-48.218zm-20.155 4.396c-4.634 12.094-6.847 28.256-6.847 43.822 0 15.555 2.212 31.707 6.844 43.795-16.584-7.642-28.127-24.392-28.127-43.795-.001-19.415 11.544-36.176 28.13-43.822z"/><path d="m220.796 125.268v-32.63c0-6.431-5.233-11.664-11.667-11.664h-151.654c-6.434 0-11.667 5.232-11.667 11.664v32.63c0 6.431 5.233 11.664 11.667 11.664h151.654c6.434 0 11.667-5.233 11.667-11.664zm-15-3.336h-144.988v-25.957h144.988z"/><path d="m220.796 346.086v-32.63c0-6.432-5.233-11.664-11.667-11.664h-151.654c-6.434 0-11.667 5.232-11.667 11.664v32.63c0 6.431 5.233 11.664 11.667 11.664h151.654c6.434 0 11.667-5.232 11.667-11.664zm-15-3.336h-144.988v-25.958h144.988z"/></g></g></svg>