<svg id="Layer_1" enable-background="new 0 0 512 512" height="512" viewBox="0 0 512 512" width="512" xmlns="http://www.w3.org/2000/svg"><g><g><path clip-rule="evenodd" d="m54.867 262.566 117.133 24.502 101.277-24.502c3.118-5.587 4.819-11.769 4.819-18.518 0-16.902-8.334-30.4-22.11-41.205-8.901-7.005-20.098-12.875-32.769-17.781-17.603-6.834-36.17-13.64-52.923-31.988-4.62-5.048-7.852-5.048-12.472 0-16.753 18.348-35.32 25.154-52.923 31.988-32.259 12.506-54.879 31.138-54.879 58.986 0 6.749 1.701 12.931 4.847 18.518z" fill="#ffeee6" fill-rule="evenodd"/></g><g><path clip-rule="evenodd" d="m273.277 262.566 85.692 24.502 98.164-24.502c3.118-5.587 4.819-11.74 4.819-18.518 0-27.848-22.621-46.48-54.851-58.986-17.603-6.834-36.199-13.64-52.923-31.988-4.649-5.048-7.88-5.048-12.501 0-16.753 18.348-35.32 25.154-52.923 31.988-12.671 4.906-35.802 28.717-32.769 17.781-8.363 30.158 1.826 53.158 17.292 59.723z" fill="#ffeee6" fill-rule="evenodd"/></g><g><path clip-rule="evenodd" d="m25.698 311.569 227.285 34.711 233.318-34.711v-40.694c0-4.566-3.742-8.309-8.334-8.309h-20.835-183.855-218.41-20.863c-4.564 0-8.306 3.743-8.306 8.309z" fill="#ffd772" fill-rule="evenodd"/></g><g><path clip-rule="evenodd" d="m34.004 499.501h443.964c4.592 0 8.334-3.743 8.334-8.337v-40.666l-230.302-34.739-230.302 34.739v40.666c0 4.594 3.742 8.337 8.306 8.337z" fill="#ffd772" fill-rule="evenodd"/></g><g><path clip-rule="evenodd" d="m25.698 450.498h460.603 10.063c4.479 0 8.135-3.658 8.135-8.139v-83.714-38.936c0-4.481-3.657-8.139-8.135-8.139h-10.063-460.603-10.063c-4.479 0-8.135 3.658-8.135 8.139v26.572 69.478 26.6c0 4.481 3.657 8.139 8.135 8.139z" fill="#e29d7b" fill-rule="evenodd"/></g><g><path clip-rule="evenodd" d="m417.051 262.566c4.564 0 8.306 3.743 8.306 8.309v40.694h10.063 50.882v-40.694c0-4.566-3.742-8.309-8.334-8.309h-20.835-24.86z" fill="#fbba58" fill-rule="evenodd"/></g><g><path clip-rule="evenodd" d="m453.42 311.569c4.479 0 8.135 3.658 8.135 8.139v38.936 44.75 38.965c0 4.481-3.657 8.139-8.135 8.139h32.882 10.063c4.479 0 8.135-3.658 8.135-8.139v-83.714-38.936c0-4.481-3.657-8.139-8.135-8.139h-10.063-32.882z" fill="#ce8b6b" fill-rule="evenodd"/></g><g><path clip-rule="evenodd" d="m425.356 450.498v40.666c0 4.594-3.742 8.337-8.306 8.337h60.917c4.592 0 8.334-3.743 8.334-8.337v-40.666h-50.882z" fill="#fbba58" fill-rule="evenodd"/></g><g><path clip-rule="evenodd" d="m223.217 185.062c-17.603-6.834-36.17-13.64-52.923-31.988-4.62-5.048-7.852-5.048-12.472 0-5.272 5.757-10.687 10.379-16.243 14.236 16.611 17.894 34.98 24.615 52.413 31.393 12.671 4.906 23.839 10.776 32.769 17.781 13.748 10.805 22.082 24.303 22.082 41.205 0 1.673-.085 3.29-.283 4.878h24.718c3.118-5.587 4.819-11.769 4.819-18.518 0-16.902-8.334-30.4-22.11-41.205-8.902-7.005-20.099-12.876-32.77-17.782z" fill="#ffdfcf" fill-rule="evenodd"/></g><g><path clip-rule="evenodd" d="m323.507 168.643c.312.312.68.681 1.02 1.049 12.643 13.839 26.334 21.127 39.827 26.799 4.394 1.815 8.787 3.488 13.096 5.19 32.258 12.506 54.879 31.138 54.879 58.986 0 .624-.028 1.276-.057 1.9h24.86c3.118-5.587 4.819-11.74 4.819-18.518 0-27.848-22.621-46.48-54.851-58.986-17.603-6.834-36.199-13.64-52.923-31.988-4.649-5.048-7.88-5.048-12.501 0-5.866 6.436-11.961 11.456-18.169 15.568z" fill="#ffdfcf" fill-rule="evenodd"/></g><g><g><path d="m190.918 381.019c0-4.142-3.358-7.5-7.5-7.5h-95.924c-4.142 0-7.5 3.358-7.5 7.5s3.358 7.5 7.5 7.5h95.924c4.143 0 7.5-3.358 7.5-7.5z"/><path d="m496.365 304.069h-2.563v-33.194c0-8.717-7.103-15.809-15.833-15.809h-9.866c.89-3.568 1.349-7.246 1.349-11.018 0-28.424-20.065-50.623-59.636-65.977 0 0-33.357-9.82-50.121-30.078-3.417-4.13-8.445-7.036-14.031-5.997-5.804 1.079-9.269 5.993-13.236 9.853-8.883 8.643-19.494 14.99-30.796 19.944-5.131 2.249-10.364 4.251-15.586 6.276-11.667 4.517-21.743 9.708-30.053 15.466-8.297-5.745-18.313-10.909-30.062-15.463-8.089-3.135-16.212-6.238-23.924-10.238-9.353-4.85-17.921-11.054-25.164-18.728-3.056-3.237-6.247-6.435-10.856-7.166-4.755-.754-9.271 1.278-12.389 4.715-10.599 11.68-19.721 16.889-24.18 19.393-8.676 4.873-17.975 8.432-27.231 12.022-39.593 15.349-59.668 37.547-59.668 65.978 0 3.776.461 7.454 1.353 11.018h-9.869c-8.715 0-15.806 7.092-15.806 15.809v33.194h-2.563c-8.62 0-15.634 7.016-15.634 15.64v122.65c0 8.623 7.014 15.639 15.635 15.639h2.563v33.166c0 8.733 7.09 15.837 15.806 15.837h443.964c8.73 0 15.833-7.104 15.833-15.837v-33.166h2.563c8.621 0 15.635-7.016 15.635-15.639v-122.65c.001-8.624-7.013-15.64-15.634-15.64zm-204.896-112.015c7.06-2.738 14.135-5.456 20.978-8.709 8.38-3.984 16.37-8.777 23.579-14.636 2.267-1.842 11.554-11.072 11.74-11.154.115-.11.246-.083.374.053.169.169 10.441 10.334 15.567 14.111 10.336 7.617 21.969 12.993 33.863 17.682 2.269.894 4.545 1.772 6.819 2.654 33.22 12.89 50.063 30.383 50.063 51.993 0 3.891-.681 7.526-2.053 11.018h-168.152c.89-3.568 1.349-7.246 1.349-11.018 0-15.363-5.874-28.903-17.51-40.529 6.629-4.166 14.453-8.007 23.383-11.465zm-183.856 0c15.49-6.008 30.796-12.342 43.895-22.812 4.036-3.226 7.826-6.759 11.336-10.55.274-.296 1.437-1.129 2.422-.007.896 1.021 1.865 1.976 2.825 2.936 1.845 1.845 3.76 3.62 5.74 5.32 7.029 6.035 14.869 11.031 23.15 15.164 7.628 3.807 15.584 6.871 23.525 9.949 33.237 12.886 50.09 30.378 50.09 51.993 0 3.831-.698 7.52-2.062 11.018h-208.941c-1.372-3.489-2.073-7.178-2.073-11.018 0-21.614 16.853-39.106 50.093-51.993zm389.387 159.091h-61.325c-4.142 0-7.5 3.358-7.5 7.5s3.358 7.5 7.5 7.5h61.325v29.782c-.21-.018-.421-.032-.635-.032h-160.725c-4.142 0-7.5 3.358-7.5 7.5s3.358 7.5 7.5 7.5h160.725c.214 0 .425-.014.635-.032v31.497c0 .34-.297.639-.635.639h-221.982c-4.142 0-7.5 3.358-7.5 7.5s3.358 7.5 7.5 7.5h204.418v33.166c0 .454-.382.837-.833.837h-443.964c-.429 0-.806-.391-.806-.837v-33.166h206.573c4.142 0 7.5-3.358 7.5-7.5s-3.358-7.5-7.5-7.5h-224.136c-.338 0-.635-.298-.635-.639v-19.101h100.982c4.142 0 7.5-3.358 7.5-7.5s-3.358-7.5-7.5-7.5h-100.982v-54.479h211.335c4.142 0 7.5-3.358 7.5-7.5s-3.358-7.5-7.5-7.5h-211.335v-19.072c0-.34.297-.639.635-.639h224.136c4.142 0 7.5-3.358 7.5-7.5s-3.358-7.5-7.5-7.5h-206.573v-33.194c0-.423.384-.809.806-.809h443.964c.444 0 .833.378.833.809v33.194h-204.418c-4.142 0-7.5 3.358-7.5 7.5s3.358 7.5 7.5 7.5h221.982c.321 0 .635.316.635.639z"/><path d="m284.474 408.258h-108.511c-4.142 0-7.5 3.358-7.5 7.5s3.358 7.5 7.5 7.5h108.511c4.142 0 7.5-3.358 7.5-7.5s-3.358-7.5-7.5-7.5z"/><path d="m375.665 351.145h-81.893c-4.142 0-7.5 3.358-7.5 7.5s3.358 7.5 7.5 7.5h81.893c4.142 0 7.5-3.358 7.5-7.5s-3.358-7.5-7.5-7.5z"/><path d="m251.397 121.67c.293 3.941 3.583 6.944 7.472 6.944.187 0 .375-.007.564-.021 4.131-.308 7.23-3.906 6.923-8.036-.079-1.051-.208-2.179-.357-3.486-1.38-12.061-3.69-32.248 24.964-41.818 18.091-6.051 29.986-19.181 34.399-37.971 3.206-13.65 1.229-25.549 1.143-26.049-.701-4.082-4.574-6.828-8.66-6.124-4.083.7-6.824 4.578-6.124 8.66.016.092 1.516 9.535-.961 20.083-3.208 13.655-11.469 22.798-24.552 27.174-40.185 13.421-36.5 45.626-35.112 57.75.127 1.102.241 2.076.301 2.894z"/><path d="m322.011 81.814c-26.691 8.911-24.144 30.972-23.306 38.221.072.626.139 1.179.173 1.643.297 3.939 3.584 6.937 7.471 6.937.189 0 .38-.007.571-.021 4.131-.312 7.227-3.912 6.916-8.042-.048-.633-.132-1.385-.23-2.237-1.048-9.073-.83-17.603 13.164-22.275 23.023-7.716 25.49-30.962 23.577-42.176-.694-4.068-4.54-6.786-8.612-6.119-4.071.672-6.832 4.528-6.181 8.603.324 2.032 2.703 20.021-13.543 25.466z"/><path d="m195.103 121.678c.297 3.938 3.584 6.936 7.471 6.936.189 0 .38-.007.572-.022 4.13-.312 7.226-3.913 6.914-8.043-.047-.627-.13-1.373-.228-2.217-1.043-9.08-.821-17.617 13.189-22.294 23.029-7.718 25.473-30.968 23.547-42.184-.698-4.067-4.55-6.785-8.619-6.109-4.071.677-6.827 4.535-6.172 8.609.327 2.033 2.725 20.016-13.515 25.459-26.702 8.915-24.166 30.981-23.333 38.232.073.622.138 1.171.174 1.633z"/><path d="m200.212 216.458c.342.046.682.069 1.018.069 3.694 0 6.912-2.73 7.423-6.493.557-4.104-2.319-7.883-6.424-8.44-5.416-.734-9.465-3.029-12.037-6.818-2.326-3.428-6.989-4.319-10.417-1.995-3.427 2.326-4.32 6.99-1.995 10.417 4.995 7.361 12.752 11.946 22.432 13.26z"/><path d="m126.886 216.526c.335 0 .676-.022 1.018-.069 9.68-1.313 17.437-5.899 22.433-13.26 2.326-3.427 1.433-8.091-1.995-10.417s-8.091-1.432-10.417 1.995c-2.572 3.79-6.622 6.084-12.037 6.818-4.104.557-6.98 4.336-6.424 8.44.51 3.763 3.728 6.493 7.422 6.493z"/><path d="m384.063 216.457c.344.047.685.07 1.022.07 3.692 0 6.91-2.728 7.422-6.488.56-4.104-2.314-7.885-6.418-8.444-5.402-.736-9.458-3.037-12.055-6.839-2.337-3.419-7.004-4.299-10.424-1.962s-4.298 7.003-1.962 10.424c5.02 7.347 12.771 11.925 22.415 13.239z"/><path d="m310.771 216.526c.337 0 .679-.023 1.022-.07 9.644-1.314 17.395-5.892 22.415-13.239 2.336-3.42 1.458-8.087-1.962-10.424-3.421-2.337-8.087-1.458-10.424 1.962-2.597 3.802-6.653 6.103-12.054 6.839-4.104.559-6.978 4.34-6.418 8.444.511 3.761 3.728 6.488 7.421 6.488z"/></g></g></g></svg>