<svg id="Layer_1" enable-background="new 0 0 512 512" height="512" viewBox="0 0 512 512" width="512" xmlns="http://www.w3.org/2000/svg"><g><g><path clip-rule="evenodd" d="m190.847 190.845c17.149-9.354 36.906 6.548 64.77 18.312 27.836 11.736 52.95-8.135 63.296-26.362-5.471-22.139-4.961-42.605 1.446-60.406l-66.981-13.578-61.737 13.578c7.2 19.927 6.945 43.228-.794 68.456z" fill="#cbe2ff" fill-rule="evenodd"/></g><g><path clip-rule="evenodd" d="m191.641 122.389h128.718 4.649c4.734 0 7.483-3.997 8.589-8.589l18.17-75.685-95.752-10.488-95.752 10.488 18.141 75.685c1.105 4.592 3.883 8.589 8.589 8.589z" fill="#f37c7c" fill-rule="evenodd"/></g><g><path clip-rule="evenodd" d="m160.262 38.114h191.504 1.105c8.419 0 15.307-6.888 15.307-15.307 0-8.22-6.576-14.995-14.74-15.307h-194.877c-8.164.312-14.74 7.087-14.74 15.307 0 8.419 6.888 15.307 15.335 15.307z" fill="#fbc7b8" fill-rule="evenodd"/></g><g><path clip-rule="evenodd" d="m132.143 478.081c2.778 20.523 8.645 26.419 32.144 26.419h91.699 91.727c23.499 0 29.366-5.896 32.144-26.419.879-6.548 1.672-12.841 2.381-18.907l-115.849-20.239-136.627 20.239c.709 6.066 1.502 12.359 2.381 18.907z" fill="#cbe2ff" fill-rule="evenodd"/></g><g><path clip-rule="evenodd" d="m179.537 218.909c-47.026 94.649-62.049 134.193-49.775 240.265h252.476c12.274-106.073-2.75-145.616-49.775-240.265-6.179-12.416-10.686-24.491-13.549-36.113-17.149 9.354-36.198 15.761-64.033 4.025s-46.884-5.329-64.033 4.025c-2.779 9.127-6.549 18.51-11.311 28.063z" fill="#365e7d" fill-rule="evenodd"/></g><g><path clip-rule="evenodd" d="m211.511 292.666c0 24.832 20.154 44.986 44.985 44.986 24.859 0 45.013-20.154 45.013-44.986 0-24.86-20.154-45.014-45.013-45.014-24.831 0-44.985 20.154-44.985 45.014z" fill="#ffd772" fill-rule="evenodd"/></g><g><path clip-rule="evenodd" d="m368.178 22.807c0-8.22-6.576-14.995-14.74-15.307h-31.435c8.164.312 14.74 7.087 14.74 15.307 0 8.419-6.888 15.307-15.335 15.307h30.358 1.105c8.419 0 15.307-6.888 15.307-15.307z" fill="#fbb49e" fill-rule="evenodd"/></g><g><path clip-rule="evenodd" d="m351.766 38.114h-30.358-1.105l-18.142 75.686c-1.105 4.592-3.883 8.589-8.589 8.589h26.787 4.649c4.734 0 7.483-3.997 8.589-8.589z" fill="#ee6161" fill-rule="evenodd"/></g><g><path clip-rule="evenodd" d="m320.359 122.389h-26.787-4.677c-6.406 17.802-6.888 38.268-1.417 60.406.794 3.288 1.757 6.633 2.835 10.006 10.63-1.247 19.87-5.244 28.601-10.006-5.471-22.139-4.961-42.605 1.445-60.406z" fill="#bed8fb" fill-rule="evenodd"/></g><g><path clip-rule="evenodd" d="m332.463 218.909c-6.179-12.416-10.686-24.491-13.549-36.113-8.73 4.762-17.971 8.759-28.601 10.006 2.721 8.504 6.293 17.206 10.686 26.107 47.026 94.649 62.049 134.193 49.775 240.265h31.464c12.274-106.073-2.75-145.616-49.775-240.265z" fill="#2b4d66" fill-rule="evenodd"/></g><g><path clip-rule="evenodd" d="m382.238 459.174h-31.464c-.68 6.066-1.474 12.359-2.353 18.907-2.778 20.523-8.674 26.419-32.144 26.419h31.435c23.499 0 29.366-5.896 32.144-26.419.88-6.548 1.673-12.841 2.382-18.907z" fill="#bed8fb" fill-rule="evenodd"/></g><g><path clip-rule="evenodd" d="m301.509 292.666c0-24.86-20.154-45.014-45.013-45.014-5.839 0-11.423 1.106-16.554 3.146 18.68 5.471 32.314 22.734 32.314 43.172 0 19.021-11.792 35.263-28.431 41.868 4.025 1.191 8.277 1.814 12.671 1.814 24.859 0 45.013-20.154 45.013-44.986z" fill="#fbba58" fill-rule="evenodd"/></g><g><path d="m256.496 345.152c28.956 0 52.513-23.545 52.513-52.486 0-28.957-23.557-52.514-52.513-52.514-28.94 0-52.485 23.558-52.485 52.514 0 28.941 23.545 52.486 52.485 52.486zm0-90c20.685 0 37.513 16.829 37.513 37.514 0 20.67-16.828 37.486-37.513 37.486-20.669 0-37.485-16.816-37.485-37.486 0-20.686 16.816-37.514 37.485-37.514z"/><path d="m173.313 373.567c0 4.142 3.358 7.5 7.5 7.5h151.395c4.142 0 7.5-3.358 7.5-7.5s-3.358-7.5-7.5-7.5h-151.395c-4.142 0-7.5 3.358-7.5 7.5z"/><path d="m311.402 400.168h-109.783c-4.142 0-7.5 3.358-7.5 7.5s3.358 7.5 7.5 7.5h109.783c4.142 0 7.5-3.358 7.5-7.5s-3.358-7.5-7.5-7.5z"/><path d="m339.179 215.569c-15.781-31.738-20.351-61.237-13.35-85.718 7.276-.38 13.009-5.776 15.061-14.301l16.92-70.481c10.209-2.263 17.869-11.383 17.869-22.263-.001-12.575-10.232-22.806-22.808-22.806h-193.714c-12.591 0-22.835 10.231-22.835 22.807 0 10.882 7.672 20.002 17.895 22.264l16.895 70.484c2.051 8.522 7.783 13.917 15.06 14.297 7.001 24.48 2.431 53.98-13.351 85.72-48.887 98.391-64.938 138.768-48.109 263.516 3.371 24.914 12.988 32.912 39.575 32.912h183.426c26.587 0 36.204-7.998 39.577-32.917 16.827-124.744.777-165.121-48.111-263.514zm-152.171-100.682c-.237-.215-.88-1.046-1.311-2.835l-15.924-66.437h74.167c4.142 0 7.5-3.358 7.5-7.5s-3.358-7.5-7.5-7.5h-84.782c-4.32 0-7.835-3.502-7.835-7.807s3.513-7.808 7.834-7.808h193.715c4.305 0 7.807 3.502 7.807 7.807s-3.502 7.807-7.807 7.807h-79.169c-4.142 0-7.5 3.358-7.5 7.5s3.358 7.5 7.5 7.5h68.55l-15.947 66.43c-.434 1.801-1.072 2.633-1.304 2.845zm123.317 63.905c-15.585 7.568-31.063 10.169-52.532 1.117-22.972-9.684-40.984-7.869-55.858-2.428 3.289-16.88 3.221-32.886-.265-47.593h108.658c-3.575 15.088-3.554 31.542-.003 48.904zm65.196 272.882h-102.839c-4.142 0-7.5 3.358-7.5 7.5s3.358 7.5 7.5 7.5h101.094c-.424 3.399-.873 6.861-1.351 10.401-1.215 8.973-2.927 13.817-5.728 16.197-3.032 2.578-8.887 3.728-18.984 3.728h-183.426c-10.097 0-15.952-1.149-18.984-3.728-2.8-2.38-4.513-7.225-5.727-16.194-.478-3.542-.927-7.004-1.351-10.405h99.847c4.142 0 7.5-3.358 7.5-7.5s-3.358-7.5-7.5-7.5h-101.593c-10.86-101.089 4.92-139.153 49.774-229.426 4.416-8.881 8.02-17.635 10.824-26.215 16.4-8.457 32.342-11.807 54.89-2.301 11.725 4.943 22.155 6.892 31.539 6.891 11.683-.001 21.739-3.024 30.634-7.048 2.903 9.364 6.769 18.942 11.607 28.672 44.854 90.275 60.635 128.339 49.774 229.428z"/></g></g></svg>