<svg id="Layer_1" enable-background="new 0 0 512 512" height="512" viewBox="0 0 512 512" width="512" xmlns="http://www.w3.org/2000/svg"><g><g><path clip-rule="evenodd" d="m89.001 43.359 74.861 38.162 73.359-38.162c.51-9.383-.085-18.34-1.276-26.532-.935-6.548-.709-9.354-9.496-9.326l-63.353.057-63.324-.058c-8.787-.028-8.56 2.778-9.524 9.326-1.191 8.192-1.758 17.15-1.247 26.533z" fill="#ffd772" fill-rule="evenodd"/></g><g><path clip-rule="evenodd" d="m163.096 504.5h94.533c11.707 0 12.614-6.406 15.108-18.397 1.191-5.811 2.324-11.65 3.401-17.49l-115.027-36.947-111.03 36.947c1.049 5.839 2.183 11.679 3.401 17.49 2.494 11.991 3.373 18.397 15.108 18.397z" fill="#ffd772" fill-rule="evenodd"/></g><g><path clip-rule="evenodd" d="m50.082 468.613h226.057c1.842-10.233 3.458-20.495 4.847-30.756-7.738-10.432-12.302-23.358-12.302-37.276v-43.851-30.926c0-2.721 2.211-4.961 4.932-4.961h12.557c-2.211-44.561-9.524-86.655-22.195-123.279-151.763 0-40.875 206.363-222.429 206.363 1.787 21.543 4.649 43.2 8.533 64.686z" fill="#e29d7b" fill-rule="evenodd"/></g><g><path clip-rule="evenodd" d="m106.632 117.683c-54.226 61.427-74.578 172.007-65.082 286.243 181.555 0 70.666-206.363 222.429-206.363-10.828-31.266-25.568-58.536-44.418-79.881-2.013-2.296-3.118-4.337-3.572-6.265-1.077-4.479 1.389-8.334 4.394-13.238 11.282-18.454 15.93-37.389 16.837-54.822h-148.219c.907 17.433 5.527 36.369 16.837 54.822 3.005 4.904 5.471 8.759 4.394 13.238-.454 1.929-1.559 3.97-3.6 6.266z" fill="#e29d7b" fill-rule="evenodd"/></g><g><path clip-rule="evenodd" d="m226.449 7.5-52.496.057c6.633.454 6.52 3.288 7.398 9.269 1.191 8.192 1.757 17.15 1.276 26.532h54.594c.51-9.383-.085-18.34-1.276-26.532-.935-6.548-.709-9.354-9.496-9.326z" fill="#fbba58" fill-rule="evenodd"/></g><g><path clip-rule="evenodd" d="m237.221 43.359h-54.594c-.935 17.433-5.556 36.369-16.866 54.822-2.976 4.904-5.471 8.759-4.394 13.238.454 1.928 1.587 3.969 3.6 6.265 21.118 23.924 37.105 55.304 48.188 91.474 12.614-7.313 28.998-11.594 50.824-11.594-10.828-31.266-25.568-58.536-44.418-79.881-2.013-2.296-3.118-4.337-3.572-6.265-1.077-4.479 1.389-8.334 4.394-13.238 11.282-18.453 15.931-37.388 16.838-54.821z" fill="#ce8b6b" fill-rule="evenodd"/></g><g><path clip-rule="evenodd" d="m263.979 197.564c-21.826 0-38.21 4.28-50.824 11.594 17.376 56.665 22.705 125.037 16.894 194.769-1.786 21.543-4.62 43.2-8.532 64.687h54.622c1.842-10.233 3.458-20.495 4.847-30.756-7.738-10.432-12.302-23.358-12.302-37.276v-43.852-30.926c0-2.721 2.211-4.961 4.932-4.961h12.557c-2.21-44.561-9.523-86.656-22.194-123.279z" fill="#ce8b6b" fill-rule="evenodd"/></g><g><path clip-rule="evenodd" d="m276.139 468.613h-54.622c-1.049 5.839-2.183 11.679-3.402 17.49-2.494 11.991-3.373 18.397-15.08 18.397h54.594c11.707 0 12.614-6.406 15.108-18.397 1.191-5.811 2.325-11.65 3.402-17.49z" fill="#fbba58" fill-rule="evenodd"/></g><g><path clip-rule="evenodd" d="m326.085 504.472h89.289c3.26 0 5.924-2.665 5.924-5.924v-36.058l-45.155-30.824c-3.94 0-55.983 30.824-55.983 30.824v36.057c0 3.26 2.665 5.925 5.925 5.925z" fill="#e29d7b" fill-rule="evenodd"/></g><g><path clip-rule="evenodd" d="m268.684 356.73v43.852c0 13.918 4.564 26.844 12.302 37.276 9.297 12.614 23.187 21.657 39.174 24.633 3.713.709 7.54 1.049 11.48 1.049h78.178c3.912 0 7.767-.34 11.48-1.049 29.196-5.443 51.476-31.181 51.476-61.909v-74.778c0-2.721-2.239-4.961-4.961-4.961h-181.64-12.557c-2.721 0-4.932 2.239-4.932 4.961z" fill="#ffd772" fill-rule="evenodd"/></g><g><path clip-rule="evenodd" d="m409.818 463.539h-31.095v36.057c0 2.013-1.02 3.798-2.579 4.876h39.231c3.26 0 5.924-2.665 5.924-5.924v-36.058c-3.714.709-7.569 1.049-11.481 1.049z" fill="#ce8b6b" fill-rule="evenodd"/></g><g><path clip-rule="evenodd" d="m427.194 325.803v30.926 43.852c0 30.728-22.28 56.466-51.476 61.909-3.742.709-7.568 1.049-11.48 1.049h14.485 31.095c3.912 0 7.767-.34 11.48-1.049 29.196-5.443 51.476-31.181 51.476-61.909v-74.778c0-2.721-2.239-4.961-4.961-4.961h-45.58c2.722.001 4.961 2.24 4.961 4.961z" fill="#fbba58" fill-rule="evenodd"/></g><g><path clip-rule="evenodd" d="m467.813 320.843h-181.64-12.557c-2.721 0-4.932 2.239-4.932 4.961v30.926h204.09v-30.926c0-2.722-2.239-4.961-4.961-4.961z" fill="#e29d7b" fill-rule="evenodd"/></g><g><path clip-rule="evenodd" d="m427.194 325.803v30.926h45.58v-30.926c0-2.721-2.239-4.961-4.961-4.961h-45.58c2.722.001 4.961 2.24 4.961 4.961z" fill="#ce8b6b" fill-rule="evenodd"/></g><path d="m467.813 313.343h-76.76c-4.143 0-7.5 3.358-7.5 7.5s3.357 7.5 7.5 7.5h74.221v20.887h-189.09v-20.887h77.367c4.143 0 7.5-3.358 7.5-7.5s-3.357-7.5-7.5-7.5h-60.294c-5.342-85.778-29.405-156.831-68.067-200.616-2.736-3.107-2.9-3.293 1.337-10.216l.254-.416c19.462-31.813 19.762-64.516 16.589-86.33l-.164-1.179c-1.007-7.382-3.124-14.586-16.641-14.586-.04 0-.082 0-.123 0l-63.339.057-63.306-.057c-.042 0-.082 0-.124 0-13.498 0-15.64 7.179-16.674 14.535l-.174 1.22c-4.523 31.362 1.223 61.219 16.613 86.337l.256.417c4.23 6.913 4.066 7.099 1.316 10.208-19.33 21.885-35.016 50.345-46.626 84.595-1.14 3.364.082 7.21 3.138 9.02 4.264 2.525 9.503.419 11.003-4.013 10.975-32.44 25.687-59.246 43.725-79.668 10.258-11.6 4.467-21.063.238-27.972l-.256-.417c-8.183-13.355-13.204-27.881-15.087-43.404h131.846c-1.678 13.72-6.009 28.701-15.007 43.41l-.252.412c-4.226 6.905-10.013 16.361.207 27.967 15.82 17.915 29.046 40.842 39.385 67.771-29.581 2-51.448 12.598-66.629 32.244-14.768 19.11-21.569 44.585-28.148 69.222-13.978 52.346-27.213 101.857-110.129 104.429-4.159-56.825-.674-111.708 10.502-159.951.935-4.036-1.579-8.064-5.614-9-4.032-.932-8.063 1.579-8.999 5.614-17.384 75.039-16.732 165.477 1.834 254.654l.267 1.285c2.344 11.35 4.769 23.085 22.183 23.085h189.039c17.412 0 19.847-11.774 22.2-23.16l.251-1.211c2.274-10.944 4.288-22.103 6.056-33.317 7.626 6.469 16.639 11.347 26.524 14.121v30.115c0 7.402 6.022 13.424 13.425 13.424h89.289c7.402 0 13.424-6.022 13.424-13.424v-30.127c29.656-8.309 51.477-35.565 51.477-67.839v-74.778c-.002-6.871-5.592-12.461-12.463-12.461zm-371.504-277.485c.043-5.859.478-11.836 1.359-17.94.076-.533.244-2.729.553-2.879.356-.173 1.154-.042 1.545-.039l63.338.057 63.369-.057c.655.003 1.204.017 1.621.045.016.001.028.013.031.029.077.495.398 2.832.398 2.832.775 5.331 1.317 11.391 1.342 17.953h-133.556zm76.73 259.896c12.635-47.317 23.602-88.355 85.536-90.589 10.402 31.701 17.106 68.214 19.659 108.178h-4.617c-6.855 0-12.433 5.59-12.433 12.46v74.778c0 14.501 4.407 27.99 11.947 39.206-.994 7.126-2.105 14.246-3.313 21.326h-213.436c-2.868-16.664-5.113-33.313-6.703-49.834 93.367-3.248 109.282-62.803 123.36-115.525zm92.102 190.049c-2.315 11.197-2.413 11.197-7.511 11.197h-189.039c-5.1 0-5.197 0-7.495-11.12l-.271-1.306c-.587-2.819-1.151-5.64-1.701-8.461h207.952c-.549 2.829-1.099 5.659-1.682 8.462zm148.657 11.169h-86.138v-26.057c1.319.074 2.644.124 3.98.124h78.178c1.336 0 2.661-.045 3.979-.119v26.052zm51.476-96.39c0 30.58-24.878 55.458-55.456 55.458h-78.178c-30.578 0-55.456-24.878-55.456-55.458v-36.352h189.09z"/></g></svg>