<svg id="Layer_1" enable-background="new 0 0 512 512" height="512" viewBox="0 0 512 512" width="512" xmlns="http://www.w3.org/2000/svg"><g><g><path clip-rule="evenodd" d="m220.925 132.103c-48.981 0-88.672 39.721-88.701 88.674l88.701 14.024 88.672-14.024c0-48.953-39.691-88.674-88.672-88.674z" fill="#f37c7c" fill-rule="evenodd"/></g><g><path clip-rule="evenodd" d="m220.925 220.777-20.404-28.813-20.375-11.937c-10.437 10.408-16.905 24.844-16.905 40.75z" fill="#fbc7b8" fill-rule="evenodd"/></g><g fill="#fbc7b8"><path clip-rule="evenodd" d="m261.704 180.027c-10.437-10.437-24.873-16.906-40.779-16.906l-6.233 26.638 6.233 31.018 23.197-14.906z" fill-rule="evenodd"/><path d="m215.737 233.026-8.718-43.388 7.959-34.016h5.947c17.398 0 33.764 6.784 46.082 19.103l4.389 4.389-21.934 32.24zm6.629-43.146 3.747 18.649 12.668-8.141 13.019-19.137c-7.256-5.69-15.854-9.23-25.007-10.292z"/></g><g><path clip-rule="evenodd" d="m278.58 220.777c0-15.906-6.439-30.342-16.876-40.75l-40.779 40.75z" fill="#fbc7b8" fill-rule="evenodd"/></g><g><path clip-rule="evenodd" d="m469.448 258.97-213.448-12.231-213.448 12.231c.147 22.051 3.616 43.308 9.967 63.301l197.219 23.021 209.743-23.021c6.351-19.993 9.82-41.25 9.967-63.301z" fill="#f37c7c" fill-rule="evenodd"/></g><g><path clip-rule="evenodd" d="m459.481 322.271h-406.962c19.11 60.185 64.152 108.814 122.042 132.718l82.704 18.67 80.175-18.67c57.889-23.904 102.931-72.534 122.041-132.718z" fill="#fbc7b8" fill-rule="evenodd"/></g><g><path clip-rule="evenodd" d="m464.685 220.777c9.761-23.374 10.849-50.805-.794-74.444-13.877 13.466-42.572 35.605-63.005 45.601 4.263 10.467 3.234 20.375-1.441 28.843l30.959 14.024z" fill="#ffeee6" fill-rule="evenodd"/></g><g><path clip-rule="evenodd" d="m435.667 114.256-21.698-14.965c17.141 8.673-35.31 62.654-68.121 43.514 14.2 9.908 20.551 13.789 30.9 21.316 12.73 9.261 20.433 18.758 24.138 27.814 29.077 4.616 58.36-16.494 63.005-45.601-5.939-12.026-15.17-23.081-28.224-32.078z" fill="#ffeee6" fill-rule="evenodd"/></g><g><path clip-rule="evenodd" d="m413.91 99.232c25.137 17.347-26.99 71.916-68.092 43.543-25.725-17.758-27.989-59.067-10.231-84.823 5.586-8.085 6.527-8.262 14.612-2.675z" fill="#ffeee6" fill-rule="evenodd"/></g><g><path clip-rule="evenodd" d="m337.439 454.988h-162.878v43.602c0 3.234 2.646 5.91 5.91 5.91h151.06c3.263 0 5.91-2.676 5.91-5.91v-43.602z" fill="#f37c7c" fill-rule="evenodd"/></g><g><path clip-rule="evenodd" d="m413.969 99.291c9.614 6.703 7.821 18.905-.382 29.725 12.466 8.879 21.345 19.64 27.107 31.342 2.734 5.527 4.763 11.261 6.145 17.112 8.82-8.085 15.112-18.905 17.052-31.136-5.939-12.025-15.171-23.08-28.225-32.077z" fill="#ffdfcf" fill-rule="evenodd"/></g><g><path clip-rule="evenodd" d="m463.891 146.333c-1.94 12.231-8.262 23.051-17.052 31.136 3.381 14.289 2.911 29.225-.676 43.308h18.522c9.761-23.374 10.849-50.805-.794-74.444z" fill="#ffdfcf" fill-rule="evenodd"/></g><g><path clip-rule="evenodd" d="m413.999 99.321v-.029c0-.001 0-.001 0 .029zm-85.086-28.726 83.556 57.656c.382.265.735.529 1.117.764 8.203-10.82 9.996-23.021.412-29.695 0-.029 0-.029 0-.029h-.029l-.059-.059-63.711-43.955c-8.085-5.586-9.026-5.41-14.612 2.675-2.705 3.911-4.91 8.174-6.674 12.643z" fill="#ffdfcf" fill-rule="evenodd"/></g><g><path clip-rule="evenodd" d="m289.517 454.988v43.602c0 3.234-2.646 5.91-5.88 5.91h47.893c3.263 0 5.91-2.676 5.91-5.91v-43.602z" fill="#ee6161" fill-rule="evenodd"/></g><g><path clip-rule="evenodd" d="m411.558 322.271c-19.081 60.185-64.152 108.814-122.042 132.718h47.923c57.89-23.903 102.931-72.533 122.042-132.718z" fill="#fbb49e" fill-rule="evenodd"/></g><g><path clip-rule="evenodd" d="m421.525 258.97c-.147 22.051-3.616 43.308-9.967 63.301h47.923c6.351-19.993 9.82-41.25 9.967-63.301z" fill="#ee6161" fill-rule="evenodd"/></g><g><path clip-rule="evenodd" d="m309.597 220.777c0-48.953-39.691-88.674-88.672-88.674-12.319 0-24.05 2.529-34.722 7.056 4.351-.647 8.82-1 13.377-1 46.953 0 85.379 36.487 88.496 82.618z" fill="#ee6161" fill-rule="evenodd"/></g><g><path clip-rule="evenodd" d="m220.925 163.121c-15.935 0-30.341 6.468-40.779 16.906l40.779 40.75z" fill="#fbc7b8" fill-rule="evenodd"/></g><g><path clip-rule="evenodd" d="m309.597 220.777h-31.017-57.654-57.684-31.018-96.199c-10.496 0-19.081 8.615-19.081 19.111s8.585 19.081 19.081 19.081h6.527 426.896 6.527c10.496 0 19.081-8.585 19.081-19.081s-8.585-19.111-19.081-19.111h-11.29-65.24z" fill="#365e7d" fill-rule="evenodd"/></g><g><path clip-rule="evenodd" d="m495.056 239.888c0-10.496-8.585-19.111-19.081-19.111h-11.29-18.522-18.111c10.496 0 19.11 8.615 19.11 19.111s-8.614 19.081-19.11 19.081h41.396 6.527c10.496.001 19.081-8.584 19.081-19.081z" fill="#2b4d66" fill-rule="evenodd"/></g><g><path d="m122.133 125.461c-1.47 0-2.955-.431-4.257-1.33-3.408-2.355-4.261-7.026-1.907-10.434l4.998-7.233c2.354-3.407 7.026-4.26 10.433-1.907 3.408 2.355 4.261 7.026 1.907 10.434l-4.998 7.233c-1.455 2.107-3.796 3.237-6.176 3.237z"/></g><g><path clip-rule="evenodd" d="m240.829 20.113c-17.346.382-34.016 7.174-46.159 20.375-12.142 13.201-17.493 30.401-16.405 47.718.353 5.38 1.117 6.086 6.527 5.968 17.346-.353 34.016-7.145 46.159-20.346 12.142-13.201 17.493-30.401 16.406-47.718-.323-5.028-1.029-5.998-5.498-5.998-.059 0-.118 0-.176 0-.266.001-.56.001-.854.001z" fill="#a7e9a6" fill-rule="evenodd"/></g><g><path clip-rule="evenodd" d="m88.505 135.719c-1.764-14.024-9.408-26.02-20.404-34.164-3.41-2.528-4.234-2.411-6.909.882-8.614 10.643-12.995 24.138-11.231 38.163 1.793 14.024 9.408 26.02 20.404 34.164 3.41 2.529 4.263 2.411 6.909-.882 8.614-10.643 13.025-24.138 11.231-38.163z" fill="#a7e9a6" fill-rule="evenodd"/></g><g><path clip-rule="evenodd" d="m57.605 107.406c7.879 7.762 13.23 17.817 14.671 29.254 1.529 11.937-1.441 23.462-7.644 33.194 1.793 1.764 3.704 3.411 5.733 4.91 3.41 2.529 4.263 2.411 6.909-.882 8.614-10.643 13.024-24.138 11.231-38.163-1.764-14.024-9.408-26.02-20.404-34.164-3.41-2.528-4.234-2.411-6.909.882-1.294 1.588-2.499 3.264-3.587 4.969z" fill="#7fdbae" fill-rule="evenodd"/></g><g><path clip-rule="evenodd" d="m215.721 66.92c-10.114 10.996-23.373 17.523-37.544 19.64.029.559.059 1.088.088 1.646.353 5.38 1.117 6.086 6.527 5.968 17.346-.353 34.016-7.145 46.159-20.346 12.142-13.201 17.493-30.401 16.406-47.718-.323-5.028-1.029-5.998-5.498-5.998-.059 0-.118 0-.176 0h-.853c-2.911.059-5.792.323-8.644.735.676 16.76-4.705 33.284-16.465 46.073z" fill="#7fdbae" fill-rule="evenodd"/></g><g><path d="m373.102 97.378h-.059c-4.142 0-7.47 3.358-7.47 7.5s3.388 7.5 7.529 7.5c4.142 0 7.5-3.358 7.5-7.5s-3.358-7.5-7.5-7.5z"/><path d="m475.975 213.278h-.662c5.052-16.781 5.871-34.409 2.211-50.63-1.502-6.658-3.739-13.01-6.644-19.016-.158-.407-.347-.8-.572-1.172-6.785-13.503-17.053-25.178-30.38-34.374l-21.756-15.024c-.001-.001-.002-.001-.002-.001l-.001-.001-63.707-43.952c-4.238-2.928-8.621-5.957-13.859-4.995-5.232.959-8.259 5.341-11.191 9.584-2.667 3.868-4.925 8.111-6.783 12.59l-10.647-7.326c-11.429-7.907-14.318-23.65-6.449-35.079 6.61-9.555 19.055-11.395 36.992-5.466l111.105 36.691c3.931 1.298 8.174-.836 9.473-4.769s-.836-8.174-4.769-9.473l-111.103-36.693c-31.149-10.295-46.575.394-54.043 11.188-12.557 18.24-7.954 43.331 10.276 55.945l14.654 10.084c-4.042 21.021.178 44.183 14.553 59.801-4.294 5.758-7.1 13.692-8.1 23.173-.435 4.119 2.552 7.811 6.671 8.245.268.028.533.042.796.042 3.788 0 7.043-2.862 7.449-6.713.663-6.283 2.362-11.58 4.748-15.124 5.059 3.514 9.11 6.251 12.739 8.703 1.554 1.05 3.043 2.057 4.52 3.062-5.784 6.567-8.527 15.245-7.486 24.464.433 3.83 3.678 6.659 7.443 6.659.281 0 .565-.016.851-.048 4.116-.465 7.076-4.178 6.611-8.294-.783-6.937 2.131-11.393 4.965-14.027 9.85 7.434 16.506 15.104 19.81 22.681.148.511.349 1.002.599 1.466 2.303 6.064 2.447 12.054.361 17.798h-77.841c-3.839-49.539-45.375-88.674-95.881-88.674-50.492 0-92.04 39.136-95.906 88.674h-88.995c-14.657 0-26.58 11.937-26.58 26.611 0 14.39 11.495 26.138 25.784 26.561 3.338 84.511 54.286 159.407 131.832 193.488v38.654c0 7.394 6.015 13.41 13.409 13.41h151.06c7.394 0 13.409-6.015 13.409-13.41v-38.654c77.546-34.081 128.494-108.976 131.832-193.488 14.289-.423 25.784-12.171 25.784-26.561 0-14.673-11.923-26.61-26.58-26.61zm-16.446 0h-49.31c.942-4.369 1.106-8.809.503-13.261 12.372-.393 24.77-4.603 35.221-12.158 7.184-5.193 13.136-11.76 17.54-19.125 2.848 15.566.736 31.294-3.954 44.544zm-109.45-76.674c-.61-.421-1.197-.865-1.775-1.317-.117-.098-.24-.187-.362-.277-20.616-16.501-20.531-51.986-6.185-72.794.33-.478 1.044-1.512 1.721-2.416.951.606 1.983 1.319 2.462 1.65l63.711 43.955c2.539 1.753 3.558 3.949 3.302 7.12-.631 7.821-9.565 19.841-23.425 26.418-7.982 3.787-23.72 8.519-39.449-2.339zm31.081 21.452c-.269-.196-.524-.378-.788-.569 5.221-.897 10.453-2.557 15.587-4.993 16.08-7.631 28.412-21.547 31.355-34.893l4.095 2.828c11.379 7.851 19.347 17.116 24.65 26.999-4.854 22.563-27.284 39.162-50.279 37.512-4.917-9.408-13.188-18.564-24.62-26.884zm-160.235-18.453c42.229 0 77.014 32.419 80.813 73.675h-16.104c-3.733-32.406-31.321-57.656-64.709-57.656-17.841 0-34.025 7.207-45.808 18.855-.092.083-.187.161-.276.25-.088.088-.164.182-.247.273-9.989 10.1-16.696 23.439-18.408 38.279h-16.1c3.827-41.257 38.622-73.676 80.839-73.676zm40.362 51.443c4.74 6.417 7.982 14.001 9.223 22.232h-31.47zm-32.862 11.635v-31.497c8.245 1.242 15.837 4.5 22.261 9.252zm-37.268-22.253c6.427-4.749 14.021-8.005 22.268-9.245v31.498zm11.653 32.85h-31.5c1.243-8.237 4.491-15.825 9.239-22.246zm133.129 234.211h-67.738c-4.142 0-7.5 3.358-7.5 7.5s3.358 7.5 7.5 7.5h61.739v34.513h-147.88v-34.513h50.213c4.142 0 7.5-3.358 7.5-7.5s-3.358-7.5-7.5-7.5h-56.212c-53.351-22.47-93.584-65.503-113.042-117.718h385.962c-19.459 52.215-59.692 95.248-113.042 117.718zm140.036-196.019h-201.805c-4.142 0-7.5 3.358-7.5 7.5s3.358 7.5 7.5 7.5h187.593c-.705 16.593-3.38 32.784-7.84 48.302h-395.846c-4.46-15.518-7.135-31.709-7.84-48.302h187.329c4.142 0 7.5-3.358 7.5-7.5s-3.358-7.5-7.5-7.5h-201.541c-6.386 0-11.581-5.196-11.581-11.582 0-6.403 5.195-11.611 11.581-11.611h96.194.004 343.751c6.386 0 11.581 5.209 11.581 11.611.001 6.387-5.194 11.582-11.58 11.582z"/><path d="m117.876 124.131c1.301.899 2.786 1.33 4.257 1.33 2.38 0 4.721-1.13 6.176-3.237l4.998-7.233c2.354-3.408 1.501-8.079-1.907-10.434-3.407-2.353-8.079-1.5-10.433 1.907l-4.998 7.233c-2.354 3.408-1.5 8.079 1.907 10.434z"/><path d="m170.781 88.698c.602 9.179 4.514 12.983 13.445 12.983.235 0 .476-.002.719-.008 20.099-.409 38.398-8.495 51.526-22.767 13.109-14.251 19.633-33.168 18.369-53.287-.619-9.443-4.737-13.208-14.176-13.004-20.105.443-38.4 8.539-51.514 22.796-13.109 14.251-19.633 33.168-18.371 53.266.001.007.002.014.002.021zm29.409-43.133c10.096-10.976 24.174-17.316 39.739-17.922.715 15.579-4.412 30.143-14.498 41.109-10.104 10.984-24.18 17.314-39.74 17.894-.709-15.569 4.418-30.121 14.499-41.081z"/><path d="m65.899 180.788c2.877 2.133 5.538 3.204 8.052 3.204 3.255 0 6.261-1.796 9.163-5.404 10.266-12.69 14.822-28.251 12.832-43.805-1.962-15.6-10.266-29.542-23.379-39.253-6.657-4.936-11.961-4.265-17.204 2.189-10.244 12.656-14.805 28.217-12.841 43.832 1.997 15.617 10.3 29.553 23.377 39.237zm-.351-71.715c8.685 7.143 14.166 16.854 15.518 27.598 1.37 10.711-1.517 21.479-8.147 30.575-8.662-7.128-14.143-16.841-15.517-27.582-1.352-10.747 1.536-21.523 8.146-30.591z"/><path d="m265.63 112.539c1.457 2.096 3.791 3.22 6.165 3.22 1.476 0 2.969-.435 4.274-1.342 3.401-2.364 4.242-7.037 1.877-10.438l-5.028-7.233c-2.363-3.4-7.036-4.243-10.438-1.877-3.401 2.364-4.241 7.037-1.877 10.438z"/></g></g></svg>