<svg id="Layer_1" enable-background="new 0 0 512 512" height="512" viewBox="0 0 512 512" width="512" xmlns="http://www.w3.org/2000/svg"><g><g><path clip-rule="evenodd" d="m381.816 154.205c0-30.729-25.143-55.873-55.899-55.873h-120.048c-30.728 0 43.824 24.407 43.824 55.136 0 29.765-11.509 55.022-40.932 56.553l71.717 19.701 48.331-19.701c29.423-1.531 53.007-26.052 53.007-55.816z" fill="#ffd772" fill-rule="evenodd"/></g><g><path clip-rule="evenodd" d="m208.76 210.021c29.424-1.531 53.008-26.051 53.008-55.816 0-30.729-25.143-55.873-55.899-55.873h-43.71c-30.728 0-55.871 25.144-55.871 55.873 0 29.765 23.584 54.285 52.98 55.816l25.115 16.98z" fill="#e29d7b" fill-rule="evenodd"/></g><g><path clip-rule="evenodd" d="m225.343 154.205c0-10.63-8.816-19.475-19.474-19.475h-43.71c-10.63 0-19.474 8.844-19.474 19.475 0 10.63 8.844 19.475 19.474 19.475h43.71c10.658-.001 19.474-8.845 19.474-19.475z" fill="#fbc7b8" fill-rule="evenodd"/></g><g><path clip-rule="evenodd" d="m205.869 210.106c30.756 0 55.899-25.172 55.899-55.901 0-20.495-11.169-38.496-27.723-48.219 5.953 8.901 9.439 19.56 9.439 31.012 0 30.729-25.143 55.873-55.871 55.873h-8.306-35.405c-10.261 0-19.899-2.806-28.176-7.654 10.063 14.967 27.156 24.889 46.432 24.889h8.447 26.986z" fill="#ce8b6b" fill-rule="evenodd"/></g><g><path clip-rule="evenodd" d="m328.808 210.021c29.424-1.531 53.008-26.051 53.008-55.816 0-23.698-14.967-44.08-35.915-52.159 10.12 10.12 16.384 24.067 16.384 39.431 0 22.111-13.011 41.33-31.748 50.373-6.491 3.147-13.691 5.046-21.232 5.443-22.649 0-45.298 0-67.918 0-8.986 7.399-20.296 12.076-32.627 12.728h90.596z" fill="#fbba58" fill-rule="evenodd"/></g><g><path clip-rule="evenodd" d="m225.343 154.205c0-7.597-4.507-14.259-10.942-17.462.227 1.162.34 2.324.34 3.543 0 10.659-8.844 19.475-19.474 19.475h-43.71c-3.061 0-5.953-.709-8.532-1.984 1.701 8.958 9.723 15.903 19.134 15.903h43.71c10.658-.001 19.474-8.845 19.474-19.475z" fill="#fbb49e" fill-rule="evenodd"/></g><g><path clip-rule="evenodd" d="m252.839 210.021h-44.079-49.493-46.885c-30.728 0 34.81 25.371 34.81 56.099 0 30.757-4.054 55.674-34.81 55.674l55.899 31.873 87.364-31.873c-30.728 0-33.364-25.144-33.364-55.901 0-30.729 13.465-55.873 33.364-55.873h-2.806z" fill="#ffd772" fill-rule="evenodd"/></g><g><path clip-rule="evenodd" d="m475.076 260.847c-2.58-28.404-26.617-50.827-55.673-50.827h-90.596-29.452c30.699-.652 30.189 111.121 0 111.773l110.808 21.207c63.581-24.152 80.164-40.794 64.913-82.153z" fill="#ffd772" fill-rule="evenodd"/></g><g><path clip-rule="evenodd" d="m435.419 284.092c-8.532-13.777-22.195-22.621-37.531-25.909-4.791-1.021-5.584-.51-6.803 4.224-3.912 15.166-2.069 31.352 6.463 45.129 3.43 5.584 7.739 10.347 12.614 14.259l12.699 6.747 10.006-6.747c-.028-.539 7.994-4.847 7.994-5.386-.028-9.808 4.167-14.032-1.502-24.662-1.105-2.609-2.409-5.189-3.94-7.655z" fill="#a7e9a6" fill-rule="evenodd"/></g><g><path clip-rule="evenodd" d="m435.419 284.092c-8.532-13.777-22.195-22.621-37.531-25.909-4.791-1.021-5.584-.51-6.803 4.224-1.304 5.074-1.984 10.262-1.956 15.449 0-.057.028-.142.057-.198 1.191-4.706 2.013-5.216 6.775-4.195 15.336 3.26 28.999 12.104 37.531 25.881.624.992 1.191 2.013 1.758 3.033 1.02-3.657 2.409-7.2 4.11-10.63-1.106-2.609-2.41-5.189-3.941-7.655z" fill="#7fdbae" fill-rule="evenodd"/></g><g><path clip-rule="evenodd" d="m398.824 240.777c-4.791-.879-5.584-.51-6.803 4.224-1.757 6.803-2.353 13.805-1.701 20.722.227-1.106.482-2.211.765-3.317 1.219-4.734 2.013-5.244 6.803-4.224 15.335 3.288 28.999 12.133 37.531 25.909 1.531 2.466 2.835 5.046 3.94 7.654 1.644-3.288 3.572-6.435 5.839-9.44 7.512-10.007 17.575-17.093 28.828-21.09.34-.142.68-.255 1.049-.369-.51-5.471-1.786-10.715-3.77-15.619-7.455-.709-18.454.765-25.143 9.666-2.268 3.005-4.224 6.18-5.839 9.44-7.767-17.914-32.853-21.94-41.499-23.556z" fill="#fbba58" fill-rule="evenodd"/></g><g><path clip-rule="evenodd" d="m168.282 265.893c0-30.729-25.143-55.873-55.899-55.873h-43.71c-30.728 0-55.871 25.144-55.871 55.873 0 30.757 25.143 55.901 55.871 55.901l21.43 17.717 22.28-17.717c30.755 0 55.899-25.144 55.899-55.901z" fill="#e29d7b" fill-rule="evenodd"/></g><g><path clip-rule="evenodd" d="m131.856 265.893c0-10.63-8.816-19.475-19.474-19.475h-43.71c-10.63 0-19.474 8.844-19.474 19.475 0 10.659 8.844 19.475 19.474 19.475h43.71c10.659 0 19.474-8.816 19.474-19.475z" fill="#fbc7b8" fill-rule="evenodd"/></g><g><path clip-rule="evenodd" d="m112.382 321.794c30.756 0 55.899-25.144 55.899-55.901 0-20.467-11.169-38.467-27.723-48.219 5.953 8.901 9.439 19.56 9.439 31.012 0 30.729-25.143 55.873-55.871 55.873h-8.306-35.403c-10.261 0-19.899-2.778-28.176-7.654 10.063 14.967 27.156 24.889 46.432 24.889h8.447 26.986z" fill="#ce8b6b" fill-rule="evenodd"/></g><g><path clip-rule="evenodd" d="m131.856 265.893c0-7.597-4.479-14.259-10.942-17.462.227 1.162.34 2.353.34 3.543 0 10.659-8.844 19.475-19.474 19.475h-43.71c-3.061 0-5.953-.709-8.532-1.984 1.701 8.986 9.723 15.903 19.134 15.903h43.71c10.659 0 19.474-8.816 19.474-19.475z" fill="#fbb49e" fill-rule="evenodd"/></g><g><path clip-rule="evenodd" d="m292.213 210.021h-36.567c-30.728 0-55.871 25.144-55.871 55.873 0 30.757 25.143 55.901 55.871 55.901l25.682 17.717 18.028-17.717c30.756 0 55.899-25.144 55.899-55.901 0-30.729-25.143-55.873-55.899-55.873z" fill="#e29d7b" fill-rule="evenodd"/></g><g><path clip-rule="evenodd" d="m318.83 265.893c0-10.63-8.816-19.475-19.474-19.475h-43.71c-10.63 0-19.474 8.844-19.474 19.475 0 10.659 8.844 19.475 19.474 19.475h43.71c10.658 0 19.474-8.816 19.474-19.475z" fill="#fbc7b8" fill-rule="evenodd"/></g><g><path clip-rule="evenodd" d="m299.356 321.794c30.756 0 55.899-25.144 55.899-55.901 0-20.467-11.169-38.467-27.723-48.219 5.953 8.901 9.439 19.56 9.439 31.012 0 30.729-25.143 55.873-55.871 55.873h-8.306-35.404c-10.261 0-19.899-2.778-28.176-7.654 10.063 14.967 27.156 24.889 46.432 24.889h8.447 26.986z" fill="#ce8b6b" fill-rule="evenodd"/></g><g><path clip-rule="evenodd" d="m318.83 265.893c0-7.597-4.507-14.259-10.942-17.462.227 1.162.34 2.353.34 3.543 0 10.659-8.844 19.475-19.474 19.475h-43.71c-3.061 0-5.953-.709-8.532-1.984 1.701 8.986 9.723 15.903 19.134 15.903h43.71c10.658 0 19.474-8.816 19.474-19.475z" fill="#fbb49e" fill-rule="evenodd"/></g><g><path clip-rule="evenodd" d="m484.147 311.561c10.63-14.174 14.23-31.607 11.48-48.531-.85-5.244-1.701-5.896-7.002-5.244-4.649.567-9.184 1.587-13.55 3.062-11.679 3.94-22.11 11.141-29.877 21.459-2.268 3.005-4.195 6.151-5.839 9.44-4.422 8.873-6.576 18.596-6.52 28.404 0 .539 0 1.106.028 1.644l22.252 8.079 19.304-8.079c3.545-2.977 6.833-6.379 9.724-10.234z" fill="#4fc9af" fill-rule="evenodd"/></g><g><path clip-rule="evenodd" d="m484.147 311.561c10.63-14.174 14.23-31.607 11.48-48.531-.85-5.244-1.701-5.896-7.002-5.244-4.649.567-9.184 1.587-13.55 3.062-.369.113-.709.227-1.049.369.482.85.765 2.098 1.049 3.884 2.75 16.923-.822 34.357-11.48 48.531-2.239 2.976-4.706 5.698-7.37 8.164h1.814 16.384c3.545-2.978 6.833-6.38 9.724-10.235z" fill="#26bb9e" fill-rule="evenodd"/></g><g><path clip-rule="evenodd" d="m255.646 321.794c-15.761 0-30.076-6.633-40.252-17.235h-62.731c-10.205 10.602-24.491 17.235-40.28 17.235h55.928 44.192 9.184z" fill="#fbba58" fill-rule="evenodd"/></g><g><path clip-rule="evenodd" d="m395.734 304.389h-55.928c-10.205 10.715-24.576 17.405-40.451 17.405h.879 35.036 74.892c-4.876-3.912-9.184-8.674-12.614-14.259-.652-1.02-1.247-2.069-1.814-3.146z" fill="#fbba58" fill-rule="evenodd"/></g><g><path clip-rule="evenodd" d="m47.1 376.901h417.8 12.019c15.165 0 27.581-12.388 27.581-27.554v-21.09c0-3.572-2.92-6.463-6.463-6.463h-30.189-36.142-131.471-36.142-42.406-131.443-36.17-40.11c-3.572 0-6.463 2.891-6.463 6.463v21.09c0 15.166 12.387 27.554 27.553 27.554z" fill="#f9f7f8" fill-rule="evenodd"/></g><g><path clip-rule="evenodd" d="m65.469 413.668h381.063c10.091 0 18.369-8.277 18.369-18.369v-18.397h-417.801v18.397c0 10.091 8.249 18.369 18.369 18.369z" fill="#bed8fb" fill-rule="evenodd"/></g><g><path clip-rule="evenodd" d="m504.5 349.348v-21.09c0-3.572-2.92-6.463-6.463-6.463h-30.189-28.006-4.961c3.543 0 6.463 2.891 6.463 6.463v21.09c0 15.166-12.416 27.554-27.581 27.554h51.137 12.019c15.165-.001 27.581-12.388 27.581-27.554z" fill="#e5e4ed" fill-rule="evenodd"/></g><g><path clip-rule="evenodd" d="m464.9 395.299v-18.397h-51.137-32.4v18.397c0 10.092-8.277 18.369-18.369 18.369h83.537c10.092 0 18.369-8.278 18.369-18.369z" fill="#8eaadf" fill-rule="evenodd"/></g><g><path d="m232.843 154.205c0-14.874-12.101-26.975-26.974-26.975h-43.71c-14.874 0-26.974 12.101-26.974 26.975s12.101 26.975 26.974 26.975h43.71c14.874-.001 26.974-12.101 26.974-26.975zm-82.658 0c0-6.491 5.483-11.975 11.974-11.975h43.71c6.491 0 11.974 5.484 11.974 11.975s-5.483 11.975-11.974 11.975h-43.71c-6.491-.001-11.974-5.485-11.974-11.975z"/><path d="m299.356 238.918h-43.71c-14.874 0-26.974 12.101-26.974 26.975s12.101 26.975 26.974 26.975h43.71c14.874 0 26.974-12.101 26.974-26.975s-12.101-26.975-26.974-26.975zm0 38.95h-43.71c-6.491 0-11.974-5.484-11.974-11.975s5.483-11.975 11.974-11.975h43.71c6.491 0 11.974 5.484 11.974 11.975s-5.483 11.975-11.974 11.975z"/><path d="m139.356 265.893c0-14.874-12.101-26.975-26.974-26.975h-43.71c-14.874 0-26.974 12.101-26.974 26.975s12.101 26.975 26.974 26.975h43.71c14.874 0 26.974-12.101 26.974-26.975zm-82.658 0c0-6.491 5.483-11.975 11.974-11.975h43.71c6.491 0 11.974 5.484 11.974 11.975s-5.483 11.975-11.974 11.975h-43.71c-6.491 0-11.974-5.484-11.974-11.975z"/><path d="m498.037 314.294h-6.635c10.559-15.033 14.698-33.568 11.629-52.464-1.49-9.19-6.073-12.627-15.298-11.491-2.237.268-4.437.644-6.604 1.099-2.888-12.277-9.419-23.479-18.885-32.178-11.747-10.795-26.961-16.74-42.839-16.74h-52.503c13.699-11.639 22.415-28.974 22.415-48.316 0-34.944-28.441-63.373-63.399-63.373h-28.63c-4.142 0-7.5 3.358-7.5 7.5s3.358 7.5 7.5 7.5h28.63c26.688 0 48.399 21.7 48.399 48.373 0 25.162-19.301 45.892-43.874 48.182 13.603-11.638 22.251-28.914 22.251-48.182 0-4.142-3.358-7.5-7.5-7.5s-7.5 3.358-7.5 7.5c0 25.757-20.213 46.873-45.599 48.316h-1.16c13.699-11.639 22.414-28.974 22.414-48.316 0-4.142-3.358-7.5-7.5-7.5s-7.5 3.358-7.5 7.5c0 25.757-20.224 46.873-45.626 48.316h-5.868c13.699-11.639 22.415-28.974 22.415-48.316 0-19.376-8.754-36.739-22.505-48.373h15.912c4.142 0 7.5-3.358 7.5-7.5s-3.358-7.5-7.5-7.5h-56.807-43.71c-34.943 0-63.371 28.429-63.371 63.373 0 19.342 8.712 36.677 22.405 48.316h-8.81-43.71c-34.943 0-63.371 28.429-63.371 63.373 0 19.388 8.753 36.762 22.503 48.401h-13.843c-7.699 0-13.963 6.264-13.963 13.963v21.09c0 19.329 15.725 35.054 35.053 35.054h4.547v10.897c0 14.264 11.604 25.869 25.869 25.869h381.063c14.264 0 25.869-11.605 25.869-25.869v-10.897h4.519c19.344 0 35.081-15.725 35.081-35.054v-21.09c-.001-7.699-6.265-13.963-13.964-13.963zm-9.638-48.917c2.178 15.178-1.444 29.938-10.253 41.684-1.925 2.567-4.134 4.987-6.568 7.233h-30.969c.967-10.084 4.565-19.473 10.584-27.48 6.587-8.759 15.59-15.199 26.047-18.785.078-.023.152-.055.229-.081 3.494-1.181 7.149-2.046 10.93-2.571zm-75.484 48.917c-3.524-3.137-6.542-6.722-8.991-10.707-6.875-11.101-8.973-24.425-5.968-37.693 13.232 3.253 24.226 11.071 31.09 22.154.722 1.163 1.404 2.404 2.05 3.696-3.072 7.077-4.937 14.659-5.532 22.551h-12.649zm53.849-58.28c-10.623 4.662-19.854 11.83-26.995 21.073-9.391-13.383-23.567-22.648-40.318-26.24-8.725-1.859-13.402 1.038-15.628 9.686-4.589 17.794-1.979 35.889 7.334 50.928.592.964 1.219 1.904 1.861 2.833h-52.776c13.756-11.639 22.513-29.012 22.513-48.401 0-19.376-8.754-36.739-22.505-48.373h79.154c22.908.001 42.716 16.513 47.36 38.494zm-211.118 58.28c-26.672 0-48.371-21.712-48.371-48.401 0-26.673 21.699-48.373 48.371-48.373 0 0 35.874.056 36.962 0h6.748c26.688 0 48.399 21.7 48.399 48.373 0 26.688-21.712 48.401-48.399 48.401zm-40.877-96.773c-13.745 11.634-22.495 28.996-22.495 48.373 0 19.388 8.753 36.762 22.503 48.401h-61.508c13.756-11.639 22.513-29.012 22.513-48.401 0-19.376-8.754-36.739-22.505-48.373zm-100.981-63.316c0-26.673 21.699-48.373 48.371-48.373h43.71c26.688 0 48.399 21.7 48.399 48.373 0 25.757-20.225 46.873-45.626 48.316h-49.255c-25.387-1.443-45.599-22.559-45.599-48.316zm-93.487 111.688c0-26.673 21.699-48.373 48.371-48.373h43.71c26.688 0 48.399 21.7 48.399 48.373 0 26.688-21.712 48.401-48.399 48.401h-43.71c-26.672 0-48.371-21.712-48.371-48.401zm476.699 83.455c0 11.058-9.008 20.054-20.081 20.054h-201.998c-4.142 0-7.5 3.358-7.5 7.5s3.358 7.5 7.5 7.5h182.479v10.897c0 5.993-4.875 10.869-10.869 10.869h-381.062c-5.993 0-10.869-4.876-10.869-10.869v-10.897h185.682c4.142 0 7.5-3.358 7.5-7.5s-3.358-7.5-7.5-7.5h-205.229c-11.057 0-20.053-8.996-20.053-20.054v-20.054h395.152.006.009 86.833z"/></g></g></svg>