<svg id="Layer_1" enable-background="new 0 0 512 512" height="512" viewBox="0 0 512 512" width="512" xmlns="http://www.w3.org/2000/svg"><g><g><path clip-rule="evenodd" d="m245.349 90.127c-25.033 17.379-42.496 44.567-47.543 74.987-2.892 17.407-1.729 35.835 4.394 54.121 46.012 67.248 134.378 72.521 200.745 27.387 29.37-43.291 25.401-102.459-11.964-141.441-.822-.85-1.616-1.701-2.466-2.523-38.045-37.622-98.855-43.292-143.166-12.531z" fill="#ffd772" fill-rule="evenodd"/></g><g><path clip-rule="evenodd" d="m380.787 113.678c32.654 34.129 36.141 85.89 10.46 123.79l16.185 14.655 19.474.283c.198.113.397.227.595.34 30.67-52.413 23.527-120.842-21.401-165.799-2.608-2.58-5.244-5.046-7.993-7.37l-19.133 5.499z" fill="#e29d7b" fill-rule="evenodd"/></g><g><path clip-rule="evenodd" d="m309.334 46.835c-35.012 0-70.052 13.353-96.758 40.088-31.071 31.072-44.084 73.371-39.009 113.828 13.523 17.691 28.151 16.415 42.014 12.729-21.773-64.98 28.066-132.511 96.701-130.299l17.69-34.786c-6.831-1.049-13.749-1.56-20.638-1.56z" fill="#e29d7b" fill-rule="evenodd"/></g><g><path clip-rule="evenodd" d="m177.451 466.254c10.064-55.454-23.36-120.859-34.672-142.263-1.332-2.495.312-3.856 2.523-2.098 12.247 9.583 40.767 31.384 74.56 45.73 26.082-27.557 44.339-66.312 51.086-104.387-13.409-21.178-32.517-38.529-55.367-49.755-12.928-6.351-27.046-10.717-42.014-12.729-2.041-.255-4.082-.482-6.124-.68-37.649-3.345-73.086 8.845-99.962 31.327-26.847 22.454-45.161 55.17-48.507 92.82-6.719 75.299 48.847 141.753 124.144 148.472 8.136.737 19.278 1.049 27.414.113 5.019-.568 5.785-.199 6.919-6.55z" fill="#ffd772" fill-rule="evenodd"/></g><g><path clip-rule="evenodd" d="m332.326 235.225c-12.332-28.266-18.569-55.964-21.347-69.062-.567-2.778-2.693-2.778-3.289 0-3.657 17.237-13.324 59.82-34.955 95.655 20.412.397 41.447-6.322 59.591-26.593z" fill="#ce8b6b" fill-rule="evenodd"/></g><g><path clip-rule="evenodd" d="m481.645 425.77c28.548-63.789 4.252-137.841-54.12-173.024-4.763-2.835-9.724-5.443-14.912-7.768-7.031-3.147-14.175-5.642-21.347-7.513-19.675-5.16-39.746-5.727-58.939-2.24-8.363 1.531-16.528 3.799-24.409 6.833-12.587 4.791-24.466 11.454-35.182 19.76-.057.085-1.559 1.247-1.786 1.418-10.376 8.335-19.618 18.229-27.329 29.598-4.479 6.577-8.448 13.665-11.822 21.178-7.796 17.436-11.652 35.637-11.935 53.611-.879 53.101 29.427 104.132 80.967 127.209 7.456 3.317 17.917 7.258 25.912 9.016 4.933 1.106 5.528 1.701 8.675-3.912 27.556-49.188 17.265-121.879 13.523-145.807-.454-2.807 1.531-3.572 3.09-1.191 13.126 20.327 53.95 81.395 107.247 99.681 6.095 2.098 6.124 1.247 9.072-2.835 4.79-6.664 9.978-16.558 13.295-24.014z" fill="#ffd772" fill-rule="evenodd"/></g><g><path clip-rule="evenodd" d="m414.065 37.624-58.223-29.565c-2.353-1.191-5.244-.255-6.435 2.098l-19.445 38.268-17.688 34.781c1.247.028 2.494.085 3.742.17 17.829 1.191 34.837 7.143 49.407 17.235 4.876 3.345 9.496 7.172 13.833 11.509.51.51 1.02 1.049 1.531 1.559l17.319-34.101 18.056-35.49c1.191-2.354.227-5.273-2.097-6.464z" fill="#f9f7f8" fill-rule="evenodd"/></g><g><path clip-rule="evenodd" d="m369.023 64.78-14.825 29.112c3.77 1.928 7.455 4.11 10.998 6.548.17.113.312.227.482.312 4.762 3.317 9.326 7.115 13.578 11.367.51.51.992 1.02 1.502 1.559h.028l17.319-34.101 18.056-35.49c1.191-2.353.227-5.272-2.098-6.463l-29.111-14.769c2.353 1.191 3.288 4.082 2.098 6.435z" fill="#e5e4ed" fill-rule="evenodd"/></g><g><path clip-rule="evenodd" d="m18.975 324.218c-6.719 75.299 48.847 141.753 124.144 148.472 8.136.737 19.278 1.049 27.414.113 5.018-.567 5.783-.198 6.917-6.549 1.786-9.838 2.211-19.987 1.616-30.137-19.108.198-35.778-1.503-49.754-5.273-45.983-11.907-77.962-55.652-73.596-104.529 2.325-26.224 14.855-50.181 35.069-67.078 20.185-16.897 45.983-24.977 72.207-22.624 20.412 1.814 38.783 9.696 53.553 21.717 11.453 9.299 20.724 21.121 27.074 34.503 7.711-11.369 16.953-21.263 27.329-29.598-13.409-21.178-32.517-38.529-55.367-49.755-3.26-1.588-6.549-3.034-9.951-4.394-10.121-3.997-20.865-6.833-32.064-8.335-2.041-.255-4.082-.51-6.124-.68-37.649-3.345-73.086 8.845-99.962 31.327-26.846 22.454-45.16 55.17-48.505 92.82z" fill="#e29d7b" fill-rule="evenodd"/></g><g><path clip-rule="evenodd" d="m162.992 236.614c-26.224-2.353-52.022 5.727-72.207 22.624-14.147 11.851-24.551 27.132-30.306 44.255 4.678-6.322 10.121-12.134 16.273-17.294 20.213-16.897 46.012-24.977 72.235-22.652 36.089 3.232 65.913 25.459 80.485 55.964 3.033-7.655 6.719-14.997 11.085-21.972.992-1.588 2.013-3.175 3.062-4.706-6.35-13.382-15.621-25.204-27.074-34.503-14.77-12.02-33.141-19.901-53.553-21.716z" fill="#fbba58" fill-rule="evenodd"/></g><g><path clip-rule="evenodd" d="m380.758 113.678v-.028zm-90.791-28.63c23.102 2.013 44.701 12.019 61.284 28.602 32.456 32.457 37.615 81.865 15.505 119.736 8.164.595 16.356 1.956 24.491 4.082 25.681-37.899 22.195-89.66-10.46-123.79h-.028v-.028h-.028c-4.79-4.904-9.893-9.326-15.534-13.209-.255-.17-.482-.34-.737-.51-3.316-2.239-6.746-4.252-10.261-6.038-11.792-6.009-24.746-9.609-38.182-10.517-8.787-.567-17.659-.057-26.305 1.672z" fill="#fbba58" fill-rule="evenodd"/></g><g><path clip-rule="evenodd" d="m366.771 233.382c-20.015-1.474-40.143 1.531-58.854 8.675-12.587 4.791-24.466 11.454-35.182 19.76-.057.085-1.559 1.247-1.786 1.418-2.013 1.588-3.941 3.26-5.868 4.961-7.995 7.229-15.224 15.451-21.461 24.637-1.049 1.531-2.07 3.119-3.062 4.706-3.289 5.245-6.237 10.83-8.76 16.472-7.796 17.436-11.652 35.637-11.935 53.611-.879 53.101 29.427 104.132 80.967 127.209 7.456 3.317 17.917 7.258 25.912 9.016 4.933 1.106 5.528 1.701 8.675-3.912 4.99-8.902 8.732-18.598 11.51-28.606-10.943-2.381-26.734-8.222-45.501-20.583-39.605-26.224-55.594-77.993-35.551-122.786 10.915-24.438 30.986-43.15 56.104-52.42 10.745-3.941 21.914-5.982 33.084-6.095 14.118-.17 28.236 2.722 41.447 8.619 44.793 20.044 67.388 69.289 55.311 115.245-6.747 22.057-12.899 30.704-22.68 44.029 9.469 6.351 19.561 11.652 30.136 15.281 6.095 2.098 6.124 1.247 9.072-2.835 4.791-6.662 9.979-16.557 13.296-24.013 28.548-63.789 4.252-137.841-54.12-173.024l-.595-.34c-4.564-2.722-9.355-5.217-14.317-7.428-6.889-3.09-14.062-5.613-21.347-7.513-8.137-2.127-16.33-3.488-24.495-4.084z" fill="#e29d7b" fill-rule="evenodd"/></g><g><path clip-rule="evenodd" d="m368.286 280.129c44.815 20.041 67.378 69.279 55.331 115.229-3.968 12.869-7.71 21.175-12.075 28.517 5.556 4.791 11.452 9.326 17.574 13.436 9.779-13.323 15.93-21.969 22.677-44.022 12.075-45.95-10.516-95.188-55.303-115.229-10.771-4.819-21.94-7.54-33.08-8.362-2.778-.198-5.584-.283-8.362-.255-6.661.057-13.237.822-19.7 2.211-.113.028-.227.057-.34.085 2.551.17 5.102.454 7.653.85 8.731 1.304 17.376 3.827 25.625 7.54z" fill="#fbba58" fill-rule="evenodd"/></g><g><path clip-rule="evenodd" d="m400.033 252.746c58.364 35.178 82.656 109.219 54.112 172.999-2.721 6.123-6.69 13.833-10.658 20.098 5.131 2.636 10.375 4.904 15.76 6.746 6.094 2.098 6.123 1.247 9.071-2.835 4.79-6.661 9.978-16.554 13.294-24.01 28.544-63.78 4.252-137.821-54.112-172.999l-.595-.34c-4.564-2.721-9.354-5.216-14.315-7.427-2.013-.907-4.025-1.729-6.038-2.523-.255-.113-.51-.198-.737-.312-4.79-1.814-9.638-3.402-14.57-4.677-8.135-2.154-16.327-3.487-24.491-4.082-.17-.028-.368-.028-.539-.028-7.738-.539-15.477-.425-23.159.368 6.916.68 13.833 1.928 20.721 3.742 7.313 1.899 14.456 4.422 21.344 7.512 3.94 1.757 7.767 3.685 11.452 5.754.964.567 1.928 1.106 2.891 1.672z" fill="#ce8b6b" fill-rule="evenodd"/></g><g><path clip-rule="evenodd" d="m167.443 200.07c-37.649-3.345-73.086 8.845-99.962 31.327-15.564 13.013-28.236 29.485-36.826 48.338 7.683-12.276 17.265-23.162 28.265-32.376 26.847-22.454 62.285-34.673 99.933-31.327 2.041.198 4.082.425 6.124.68 11.198 1.503 21.971 4.366 32.092 8.363 3.374 1.332 6.662 2.807 9.922 4.394 1.758.85 3.487 1.758 5.216 2.693 13.75 7.513 25.997 17.294 36.316 28.776 3.742 4.168 7.229 8.562 10.433 13.155 1.984-2.041 4.026-3.997 6.124-5.897 1.928-1.701 3.856-3.374 5.868-4.961-13.409-21.178-32.517-38.529-55.367-49.755-3.26-1.588-6.549-3.034-9.951-4.394-2.268-.879-4.564-1.729-6.889-2.495-8.08-2.693-16.471-4.678-25.175-5.84-2.04-.255-4.081-.511-6.123-.681z" fill="#ce8b6b" fill-rule="evenodd"/></g><g><path clip-rule="evenodd" d="m398.106 79.577-10.856 21.373c34.865 33.137 49.945 84.926 48.84 134.363 20.097-49.465 10.119-108.256-29.99-148.366-2.608-2.579-5.245-5.046-7.994-7.37z" fill="#ce8b6b" fill-rule="evenodd"/></g><g><path d="m304.716 348.597c-2.929-2.929-7.679-2.929-10.608 0-2.93 2.929-2.93 7.679 0 10.608l.028.028c1.461 1.461 3.371 2.19 5.283 2.19 1.921 0 3.843-.736 5.311-2.204 2.93-2.929 2.915-7.693-.014-10.622z"/><path d="m356.01 309.069c-2.929 2.929-2.929 7.678 0 10.606l.028.028c1.461 1.461 3.371 2.19 5.282 2.19 1.92 0 3.842-.736 5.31-2.204 2.929-2.929 2.915-7.692-.014-10.621-2.929-2.928-7.678-2.928-10.606.001z"/><path d="m408.081 354.82c-2.929 2.929-2.929 7.678 0 10.606l.028.028c1.461 1.461 3.371 2.19 5.282 2.19 1.92 0 3.842-.736 5.31-2.204 2.929-2.929 2.915-7.692-.014-10.621-2.928-2.928-7.677-2.928-10.606.001z"/><path d="m305.533 403.852c-2.93 2.929-2.93 7.679 0 10.608l.028.028c1.461 1.461 3.371 2.19 5.283 2.19 1.921 0 3.843-.736 5.311-2.204 2.93-2.929 2.915-7.693-.014-10.622s-7.679-2.929-10.608 0z"/><path d="m110.599 377.826c-2.93 2.929-2.93 7.679 0 10.608l.028.028c1.461 1.461 3.371 2.19 5.283 2.19 1.921 0 3.843-.736 5.311-2.204 2.93-2.929 2.915-7.693-.014-10.622s-7.679-2.929-10.608 0z"/><path d="m183.317 286.424c-2.93 2.929-2.93 7.679 0 10.608l.028.028c1.461 1.461 3.371 2.19 5.283 2.19 1.921 0 3.843-.736 5.311-2.204 2.93-2.929 2.915-7.693-.014-10.622s-7.679-2.929-10.608 0z"/><path d="m243.078 175.091c-2.93 2.929-2.93 7.679 0 10.608l.028.028c1.461 1.461 3.371 2.19 5.283 2.19 1.921 0 3.843-.736 5.311-2.204 2.93-2.929 2.915-7.693-.014-10.622s-7.679-2.929-10.608 0z"/><path d="m345.153 144.918c1.461 1.461 3.371 2.19 5.282 2.19 1.92 0 3.842-.736 5.31-2.204 2.929-2.929 2.915-7.692-.014-10.621s-7.678-2.929-10.606 0c-2.929 2.929-2.929 7.678 0 10.606z"/><path d="m357.779 202.983.028.029c1.465 1.49 3.395 2.235 5.328 2.235 1.899 0 3.801-.72 5.265-2.159 2.954-2.904 2.98-7.667.077-10.621s-7.652-2.994-10.606-.091c-2.955 2.905-2.996 7.653-.092 10.607z"/><path d="m277.013 128.062c1.461 1.461 3.371 2.19 5.283 2.19 1.921 0 3.843-.736 5.311-2.204 2.93-2.929 2.915-7.693-.014-10.622s-7.679-2.929-10.608 0c-2.93 2.929-2.93 7.679 0 10.608z"/><path d="m90.698 327.759c-2.93 2.929-2.93 7.679 0 10.608l.028.028c1.461 1.461 3.371 2.19 5.283 2.19 1.921 0 3.843-.736 5.311-2.204 2.93-2.929 2.915-7.693-.014-10.622-2.93-2.929-7.679-2.929-10.608 0z"/><path d="m116.694 278.032c-2.93 2.929-2.93 7.679 0 10.608l.028.028c1.461 1.461 3.371 2.19 5.283 2.19 1.921 0 3.843-.736 5.311-2.204 2.93-2.929 2.915-7.693-.014-10.622s-7.678-2.929-10.608 0z"/><path d="m437.462 250.23c28.897-55.519 18.654-123.891-26.066-168.64-1.365-1.35-2.674-2.601-3.951-3.787l15.433-30.359c3.053-6.033.644-13.447-5.394-16.539l-58.241-29.575c-2.921-1.478-6.246-1.734-9.36-.72-3.131 1.018-5.672 3.193-7.148 6.112l-17.047 33.535c-5.389-.613-10.869-.923-16.353-.923-25.244 0-50.084 6.609-71.834 19.114-3.592 2.065-4.829 6.65-2.765 10.241 1.387 2.414 3.912 3.764 6.51 3.764 1.268 0 2.554-.322 3.731-1 19.48-11.198 41.734-17.118 64.358-17.118 3.02 0 6.035.117 9.032.325l-10.667 20.983c-27.791.416-53.866 11.437-73.578 31.149-24.989 24.964-35.673 59.816-29.549 93.837-7.777-2.804-15.844-4.95-24.132-6.401-3.139-37.983 10.327-74.887 37.439-102 2.93-2.93 2.93-7.679 0-10.608-2.929-2.929-7.679-2.929-10.608 0-29.527 29.528-44.555 69.461-42.008 110.762-37.43-2.598-73.768 9.148-102.595 33.263-19.733 16.506-34.707 37.946-43.302 62.001-1.394 3.901.638 8.194 4.54 9.587.834.298 1.686.44 2.524.44 3.08 0 5.968-1.912 7.064-4.979 7.697-21.542 21.114-40.747 38.8-55.542 26.484-22.154 60.039-32.67 94.482-29.609 38.225 3.412 72.189 23.074 94.171 54.247-5.928 5.245-11.41 10.979-16.4 17.156-17.525-28.084-47.54-46.825-80.884-49.802-28.319-2.538-55.905 6.105-77.688 24.34-21.822 18.241-35.221 43.872-37.729 72.166-2.256 25.252 4.591 50.518 19.278 71.146 14.523 20.397 35.8 35.068 59.836 41.292 12.577 3.393 27.49 5.238 44.41 5.508.071 8.264-.617 15.361-1.702 21.341-.024.134-.047.261-.069.381l-.32.035c-7.947.914-18.909.5-25.891-.133-71.04-6.339-123.678-69.293-117.339-140.334.368-4.126-2.678-7.77-6.805-8.138-4.133-.376-7.77 2.678-8.138 6.805-7.078 79.279 51.666 149.534 130.935 156.607 4.574.415 10.371.726 16.185.726 4.416 0 8.841-.179 12.749-.629l.91-.099c7.949-.847 10.998-3.905 12.544-12.564 6.257-34.475-1.991-76.496-24.537-125.181 13.418 9.402 31.699 20.968 52.129 30.142 1.089 54.167 32.725 105.572 85.357 129.13 7.463 3.321 18.568 7.558 27.319 9.482l.894.204c1.781.412 3.358.629 4.783.629 4.798 0 7.865-2.478 11.184-8.399 12.122-21.638 24.203-60.593 17.518-126.497 31.216 42.98 64.585 71.363 97.358 82.606 8.303 2.858 12.443 1.701 17.041-4.763l.562-.785c5.386-7.489 10.794-18.002 14.053-25.328 29.052-64.908 6.05-140.127-51.029-178.604zm-12.93-7.745c-2.892-1.538-5.848-2.996-8.881-4.353-4.265-1.906-8.589-3.593-12.959-5.07 21.189-38.736 16.12-86.996-12.89-120.57l10.523-20.701c.158.155.31.299.469.457 39.824 39.85 49.102 100.648 23.738 150.237zm-69.668-226.512 53.393 27.113-29.607 58.244c-15.567-13.413-34.419-21.898-54.633-24.674zm-133.101 192.175c-9.65-32.296-.994-66.811 22.965-90.746 17.267-17.268 40.211-26.777 64.606-26.777 24.414 0 47.368 9.51 64.633 26.775 29.707 29.732 35.167 75.846 13.845 111.497-16.744-3.726-33.929-4.41-50.878-2.031-11.199-27.291-16.724-53.331-18.606-62.203-1.134-5.56-5.308-8.068-8.942-8.085-.013 0-.026 0-.039 0-3.628 0-7.805 2.473-8.995 8.028-7.161 33.755-17.067 62.391-29.478 85.323-13.215-17.714-29.991-31.888-49.111-41.781zm100.175 21.641c-5.622 1.409-11.195 3.159-16.691 5.259-4.513 1.719-8.907 3.646-13.173 5.77 6.602-14.741 12.367-31.202 17.243-49.289 2.97 11.009 7.096 24.391 12.621 38.26zm-108.928 126.498c-29.953-14.382-54.466-33.558-63.04-40.266-4.449-3.538-9.264-2.767-12.062-.435-2.797 2.331-4.422 6.926-1.76 11.909 22.63 42.823 31.987 76.078 34.719 101.074-15.197-.316-28.5-1.973-39.673-4.987-43.401-11.238-72.001-51.864-68.005-96.605 2.154-24.303 13.664-46.316 32.412-61.988 18.71-15.662 42.406-23.082 66.725-20.904 30.75 2.745 58.204 21.093 72.626 48.226-3.747 5.911-7.094 12.133-10.002 18.639-6.6 14.764-10.509 30.061-11.94 45.337zm145.294-7.46c-3.107-4.743-7.906-5.544-11.289-4.233-3.375 1.309-6.377 5.127-5.485 10.709 7.475 47.807 5.495 82.292-.062 106.826-8.981-2.765-21.176-7.937-35.902-17.637-37.377-24.749-51.19-72.47-32.844-113.472 9.957-22.28 27.998-39.343 50.795-48.047 22.826-8.705 47.661-8.017 69.929 1.936 40.969 18.333 62.465 63.041 51.157 106.349-5.4 17.61-10.442 26.209-17.178 35.678-20.079-14.748-43.769-38.848-69.121-78.109zm116.487 73.894c-2.828 6.356-7.806 16.11-12.524 22.671l-.184.257c-.117-.039-.241-.082-.372-.126-6.376-2.188-13.699-5.449-21.802-10.276 7.862-11.134 13.259-20.7 19.084-39.743.029-.095.057-.191.082-.288 6.331-24.092 3.914-49.824-6.805-72.457-10.837-22.88-29.551-41.185-52.7-51.543-25.926-11.587-54.833-12.389-81.402-2.258-26.546 10.135-47.55 30.002-59.142 55.939-10.355 23.143-12.11 49.262-4.94 73.545 7.09 24.013 22.431 44.81 43.212 58.57 16.287 10.727 29.99 16.477 40.147 19.571-2.628 7.861-5.595 14.368-8.574 19.685-.065.116-.127.226-.186.33l-.335-.077c-7.694-1.692-17.992-5.659-24.458-8.536-65.082-29.131-94.352-105.802-65.248-170.912 14.104-31.553 39.653-55.705 71.949-68.008 14.987-5.728 30.596-8.582 46.181-8.582 17.956 0 35.88 3.79 52.773 11.341 65.109 29.143 94.38 105.8 65.244 170.897z"/></g></g></svg>