<svg id="Layer_1" enable-background="new 0 0 512 512" height="512" viewBox="0 0 512 512" width="512" xmlns="http://www.w3.org/2000/svg"><g><g><path clip-rule="evenodd" d="m212.489 335.186v127.021c0 23.358-18.935 42.293-42.264 42.293-23.357 0-42.292-18.936-42.292-42.293 0-13.039 5.896-24.718 15.193-32.457 16.299-13.635 14.003-9.893 14.003-36.992v-57.572z" fill="#f37c7c" fill-rule="evenodd"/></g><g><path clip-rule="evenodd" d="m331.74 382.893v100.403c0 11.65-9.524 21.203-21.174 21.203s-21.174-9.553-21.174-21.203v-100.403l21.174-11.395z" fill="#f37c7c" fill-rule="evenodd"/></g><g><path clip-rule="evenodd" d="m500.68 351.088v112.592c0 22.535-18.255 40.819-40.79 40.819s-40.818-18.284-40.818-40.819c0-12.586 5.698-23.839 14.683-31.323 15.732-13.153 13.493-9.524 13.493-35.688v-45.581l25.908-31.691z" fill="#f37c7c" fill-rule="evenodd"/></g><g><path clip-rule="evenodd" d="m331.74 134.663v248.231h-42.349v-13.606c0-6.123-5.017-11.14-11.14-11.14h-20.777c-6.123 0-11.14-5.017-11.14-11.112v-95.018c0-74.07 34.553-121.011 78.489-124.753 7.115-.624 6.917-.256 6.917 7.398z" fill="#f9f7f8" fill-rule="evenodd"/></g><g><path clip-rule="evenodd" d="m212.489 39.588v305.944h-55.359-65.564c-14.031 0-20.834-12.274-25.54-25.512-33.703-95.244-33.845-190.829 0-287.009 4.677-13.237 11.509-25.511 25.54-25.511h88.836c17.659 0 32.087 14.428 32.087 32.088zm-71.516 20.268c0 10.602 8.56 19.162 19.162 19.162 10.573 0 19.162-8.561 19.162-19.162 0-10.573-8.589-19.162-19.162-19.162-10.602 0-19.162 8.589-19.162 19.162z" fill="#365e7d" fill-rule="evenodd"/></g><g><path clip-rule="evenodd" d="m76.401 33.012c-33.873 96.18-33.703 191.764 0 287.009 4.677 13.238 11.48 25.512 25.511 25.512h-39.741c-14.031 0-20.834-12.274-25.511-25.512-33.703-95.244-33.873-190.829 0-287.009 4.649-13.238 11.48-25.512 25.511-25.512h39.741c-14.031 0-20.834 12.274-25.511 25.512z" fill="#f9f7f8" fill-rule="evenodd"/></g><g><path clip-rule="evenodd" d="m184.823 39.588v295.598 10.346h27.665v-10.346-295.598c0-17.66-14.428-32.088-32.087-32.088h-27.694c17.66 0 32.116 14.428 32.116 32.088z" fill="#2b4d66" fill-rule="evenodd"/></g><g><path clip-rule="evenodd" d="m184.823 345.533v116.674c0 18.51-11.905 34.243-28.459 39.969 4.337 1.502 9.014 2.324 13.861 2.324 23.329 0 42.264-18.936 42.264-42.293v-116.674z" fill="#ee6161" fill-rule="evenodd"/></g><g><path clip-rule="evenodd" d="m310.565 134.663v248.231h21.174v-248.231c0-7.654.198-8.022-6.916-7.398-4.904.397-9.694 1.361-14.343 2.835.114 1.104.085 2.578.085 4.563z" fill="#e5e4ed" fill-rule="evenodd"/></g><g><path clip-rule="evenodd" d="m310.565 382.893v100.403c0 7.824-4.28 14.655-10.573 18.34 3.118 1.814 6.718 2.863 10.573 2.863 11.65 0 21.174-9.553 21.174-21.203v-100.403z" fill="#ee6161" fill-rule="evenodd"/></g><g><path clip-rule="evenodd" d="m500.68 351.088h-26.702v112.592c0 17.858-11.48 33.052-27.439 38.58 4.167 1.446 8.674 2.239 13.351 2.239 22.535 0 40.79-18.284 40.79-40.819z" fill="#ee6161" fill-rule="evenodd"/></g><g><path clip-rule="evenodd" d="m494.898 7.783c-49.719 2.523-126.479 38.778-126.479 137.424v191.254c0 8.022 6.605 14.627 14.655 14.627h25.114l.283-202.054c.113-72.085 47.593-92.466 92.209-105.591v-28.034c0-.057 0-.113 0-.17 0-.454 0-.907 0-1.304 0-6.038-.255-6.435-5.782-6.152z" fill="#f9f7f8" fill-rule="evenodd"/></g><g><path clip-rule="evenodd" d="m500.68 43.443c-44.616 13.124-92.095 33.506-92.209 105.591l-.283 202.054h39.06 53.432z" fill="#365e7d" fill-rule="evenodd"/></g><g><path clip-rule="evenodd" d="m473.979 52.543v267.79 30.756h26.702v-307.646c-8.901 2.637-17.943 5.556-26.702 9.1z" fill="#2b4d66" fill-rule="evenodd"/></g><g><path clip-rule="evenodd" d="m473.979 13.935v1.304.17 28.035 9.099c8.759-3.543 17.801-6.463 26.702-9.099v-28.035c0-.057 0-.113 0-.17v-1.304c0-6.038-.255-6.435-5.783-6.151-6.605.34-13.691 1.276-21.033 2.863.085.85.114 1.927.114 3.288z" fill="#e5e4ed" fill-rule="evenodd"/></g><g><path d="m160.135 86.519c-14.701 0-26.662-11.961-26.662-26.663s11.961-26.662 26.662-26.662 26.661 11.96 26.661 26.662-11.96 26.663-26.661 26.663zm0-38.325c-6.431 0-11.662 5.231-11.662 11.662s5.231 11.663 11.662 11.663c6.43 0 11.661-5.232 11.661-11.663s-5.232-11.662-11.661-11.662z"/></g><g><path d="m335.873 122.182c-3.398-3.117-7.619-2.746-11.687-2.391-24.21 2.062-45.997 16.038-61.348 39.353-15.704 23.852-24.005 55.967-24.005 92.874v95.018c0 10.263 8.361 18.612 18.64 18.612h20.777c1.973 0 3.64 1.667 3.64 3.64v13.606 100.404c0 15.827 12.863 28.703 28.675 28.703 15.811 0 28.674-12.876 28.674-28.703v-100.405-248.833c.004-4.714.007-8.786-3.366-11.878zm-57.622 228.465h-20.777c-1.973 0-3.64-1.654-3.64-3.612v-95.018c0-33.966 7.446-63.229 21.533-84.625 12.498-18.983 29.809-30.497 48.872-32.538v240.539h-27.349v-6.106c.001-10.278-8.361-18.64-18.639-18.64zm45.988 132.65c0 7.556-6.134 13.703-13.674 13.703s-13.675-6.147-13.675-13.703v-92.904h27.349z"/><path d="m180.401 0h-118.23c-21.868 0-29.655 22.178-32.585 30.521-17.119 48.608-25.788 97.848-25.767 146.35.021 48.383 8.691 97.388 25.77 145.648 2.948 8.345 10.78 30.514 32.582 30.514h87.459v39.725c0 5.637-.13 15.909-.13 15.909-.055 1.553.172 4.244-.559 5.661-.625 1.213-1.711 2.123-2.716 3.011-2.578 2.281-5.257 4.437-7.896 6.646-11.373 9.466-17.896 23.397-17.896 38.222 0 27.456 22.337 49.793 49.792 49.793 27.439 0 49.764-22.337 49.764-49.793v-116.674-217.759c0-4.142-3.357-7.5-7.5-7.5s-7.5 3.358-7.5 7.5v210.258h-103.077c-7.95 0-13.292-5.942-18.44-20.514-33.03-93.341-33.029-188.225.001-282.008 5.147-14.568 10.489-20.51 18.439-20.51h78.489c13.558 0 24.588 11.03 24.588 24.588v53.575c0 4.142 3.357 7.5 7.5 7.5s7.5-3.358 7.5-7.5v-53.575c0-21.829-17.759-39.588-39.588-39.588zm-15.706 401.447c-.03-2.485-.065-5.351-.065-8.689v-39.725h40.359v109.174c0 19.185-15.595 34.793-34.764 34.793-19.185 0-34.792-15.608-34.792-34.793 0-10.356 4.553-20.085 12.506-26.705 1.026-.858 1.979-1.648 2.861-2.379 13.216-10.954 14.125-13.026 13.895-31.676zm-95.368-370.927c-17.119 48.609-25.789 97.848-25.767 146.351.022 48.383 8.692 97.388 25.771 145.648 1.264 3.577 3.43 9.692 7.203 15.514h-14.363c-7.95 0-13.292-5.942-18.44-20.514-33.029-93.34-33.028-188.224.006-282.022 5.044-14.367 10.558-20.497 18.434-20.497h14.362c-3.774 5.823-5.941 11.94-7.206 15.52z"/><path d="m500.681 190.749c4.143 0 7.5-3.358 7.5-7.5v-168.439c.003-4.885.006-8.744-3.22-11.821-3.188-3.042-7.195-2.852-10.442-2.696-30.66 1.556-62.951 14.436-86.377 34.454-30.894 26.4-47.223 64.597-47.223 110.46v191.254c0 12.201 9.938 22.127 22.155 22.127h56.675v38.082c0 3.324.035 6.172.066 8.638.077 6.142.128 10.199-.579 11.829-.633 1.458-3.211 3.594-7.481 7.131-.866.718-1.802 1.493-2.799 2.326-11.047 9.201-17.383 22.718-17.383 37.086 0 26.643 21.675 48.319 48.317 48.319 26.627 0 48.29-21.676 48.29-48.319v-112.592-133.2c0-4.142-3.357-7.5-7.5-7.5s-7.5 3.358-7.5 7.5v125.7h-77.482l.273-194.542c.098-62.339 36.898-82.563 77.209-95.464v129.667c.001 4.142 3.358 7.5 7.501 7.5zm-40.79 306.251c-18.371 0-33.317-14.947-33.317-33.319 0-9.902 4.367-19.218 11.993-25.569.989-.827 1.907-1.587 2.758-2.292 12.706-10.525 13.715-12.821 13.49-30.7-.03-2.413-.065-5.199-.065-8.45v-38.082h38.432v105.093c-.001 18.372-14.935 33.319-33.291 33.319zm-27.026-428.441c-21.406 19.304-31.839 45.624-31.894 80.464l-.273 194.565h-17.625c-3.879 0-7.155-3.264-7.155-7.127v-191.253c0-96.366 75.517-126.833 117.262-129.806v22.47c-20.542 6.323-43.01 15.081-60.315 30.687z"/></g></g></svg>