<svg id="Layer_1" enable-background="new 0 0 512 512" height="512" viewBox="0 0 512 512" width="512" xmlns="http://www.w3.org/2000/svg"><g><g><path clip-rule="evenodd" d="m461.895 116.803c-19.843 3.175-37.899 13.55-49.748 30.615-7.2 10.375-11.31 22.083-12.501 34.073 4.989 3.317 9.439 18.284 13.38 21.912 8.135-5.528 18.028-9.525 28.176-11.339 6.236-1.134 11.849-12.785 17.915-12.303 11.735-17.008 15.137-37.503 11.169-57.12-1.219-6.093-2.24-6.802-8.391-5.838z" fill="#a7e9a6" fill-rule="evenodd"/></g><g><path clip-rule="evenodd" d="m459.117 179.762c-6.066-.482-12.274-.198-18.482.907-10.176 1.843-19.474 5.755-27.61 11.282 3.033 17.207 11.31 32.458 19.559 45.157 2.551-.454 5.159-.68 7.795-.68 2.806 0 5.528.255 8.164.737.737-.113 1.474-.227 2.211-.369 20.41-3.685 37.389-15.789 48.501-32.514 3.43-5.216 3.232-6.406-1.843-10.063-11.281-8.22-24.462-13.323-38.295-14.457z" fill="#4fc9af" fill-rule="evenodd"/></g><g><path clip-rule="evenodd" d="m448.856 125.25c3.855 19.134.709 39.063-10.318 55.844.68-.17 1.389-.283 2.098-.425 6.208-1.106 12.416-1.389 18.482-.907 11.735-17.008 15.137-37.503 11.169-57.12-1.219-6.095-2.239-6.803-8.391-5.84-4.989.794-9.865 2.041-14.57 3.742.651.993 1.076 2.495 1.53 4.706z" fill="#7fdbae" fill-rule="evenodd"/></g><g><path clip-rule="evenodd" d="m484.147 192.774c-11.083 16.725-28.063 28.829-48.501 32.514-.709.142-1.446.255-2.183.369-.283-.057-.595-.113-.907-.17.567 3.855.567 7.71.028 11.622 2.551-.454 5.159-.68 7.795-.68 2.806 0 5.528.255 8.164.737.737-.113 1.474-.227 2.211-.369 20.41-3.685 37.389-15.789 48.501-32.514 3.43-5.216 3.232-6.406-1.843-10.063-3.458-2.551-7.115-4.762-10.942-6.69.087 1.332-.735 2.862-2.323 5.244z" fill="#26bb9e" fill-rule="evenodd"/></g><g><path clip-rule="evenodd" d="m79.529 238.073c-17.15-1.502-32.854 11.707-29.197 29.736-10.573 2.863-18.34 12.501-18.34 23.953 0 4.309 1.106 8.334 3.033 11.878l40.309 14.656 40.847-14.656c8.674-15.223-5.755-48.332-36.652-65.567z" fill="#e29d7b" fill-rule="evenodd"/></g><g><path clip-rule="evenodd" d="m162.782 159.21c-56.58 16.243-88.413 47.198-83.254 78.862.709 4.28 2.069 8.561 4.11 12.813 3.26 6.69 10.857 29.991 32.542 52.754l117.241 27.554 166.309-27.554c14.343-19.503 24.775-55.107 32.854-66.531 2.211-15.874-4.819-31.494-19.559-45.157-3.94-3.628-8.391-7.144-13.38-10.46-13.521-8.986-30.841-16.725-51.364-22.536-50.002-10.29-105.505-4.762-185.499.255z" fill="#ffd772" fill-rule="evenodd"/></g><g><path clip-rule="evenodd" d="m348.282 158.955c-29.48-32.174-158.174-33.025-185.5.255-3.402 4.139-5.216 8.816-5.102 14.032v67.693c0 10.8 8.844 19.645 19.673 19.645 10.8 0 19.644-8.844 19.644-19.645v-43.541c0-10.8 8.872-19.645 19.673-19.645 10.8 0 19.673 8.844 19.673 19.645v23.528c0 10.829 8.844 19.673 19.644 19.673 10.828 0 19.673-8.844 19.673-19.673v-13.522c0-10.8 8.844-19.645 19.644-19.645 10.828 0 19.672 8.844 19.672 19.645v13.522c0 10.829 8.844 19.673 19.673 19.673 10.8 0 19.644-8.844 19.644-19.673v-47.68c-.001-5.301-2.156-10.063-6.011-14.287z" fill="#f37c7c" fill-rule="evenodd"/></g><g><path clip-rule="evenodd" d="m486.273 282.323c0-22.564-16.271-41.302-37.729-45.157-2.636-.482-5.357-.737-8.164-.737-2.636 0-5.244.227-7.795.68-21.628 3.685-38.098 22.536-38.098 45.214 0 7.71 1.899 14.939 5.244 21.317h81.326c3.345-6.378 5.216-13.607 5.216-21.317z" fill="#f37c7c" fill-rule="evenodd"/></g><g><path clip-rule="evenodd" d="m464.9 358.747-209.906-18.001-207.894 18.001v18.369c0 10.12 8.249 18.369 18.369 18.369h381.063c10.091 0 18.369-8.249 18.369-18.369v-18.369z" fill="#bed8fb" fill-rule="evenodd"/></g><g><path clip-rule="evenodd" d="m464.9 358.747h-45.298-25.88v18.369c0 10.12-8.249 18.369-18.369 18.369h71.178c10.091 0 18.369-8.249 18.369-18.369z" fill="#8eaadf" fill-rule="evenodd"/></g><g><path clip-rule="evenodd" d="m399.731 303.64h-283.55-81.157-21.061c-3.572 0-6.463 2.891-6.463 6.435v21.119c0 15.166 12.387 27.554 27.553 27.554h12.047 417.8 12.019c15.165 0 27.581-12.388 27.581-27.554v-21.119c0-3.543-2.92-6.435-6.463-6.435h-16.98z" fill="#f9f7f8" fill-rule="evenodd"/></g><g><path clip-rule="evenodd" d="m481.057 303.64h-40.366c3.543 0 6.463 2.891 6.463 6.435v21.119c0 15.166-12.416 27.554-27.553 27.554h45.299 12.019c15.165 0 27.581-12.388 27.581-27.554v-21.119c0-3.543-2.92-6.435-6.463-6.435z" fill="#e5e4ed" fill-rule="evenodd"/></g><g><path clip-rule="evenodd" d="m399.646 181.491c-13.521-8.986-30.841-16.725-51.364-22.536 3.855 4.224 6.009 8.986 6.009 14.287v16.668c14.4 5.953 28.914 13.947 40.394 24.605 2.58 2.381 4.904 4.819 7.002 7.314 6.18 7.37 10.261 15.166 12.019 23.16 5.499-3.94 11.934-6.69 18.879-7.881 1.814-13.096-2.665-26.051-12.586-37.844-2.069-2.495-4.422-4.932-6.973-7.314-3.912-3.628-8.362-7.115-13.351-10.432-.001.002-.029.002-.029-.027z" fill="#fbba58" fill-rule="evenodd"/></g><g><path clip-rule="evenodd" d="m440.38 236.428c-2.636 0-5.244.227-7.795.68-6.945 1.191-13.38 3.94-18.879 7.881-3.43 2.466-6.52 5.358-9.128 8.646 2.013-.652 4.139-1.162 6.265-1.531 2.551-.454 5.159-.68 7.795-.68 2.183 0 4.337.17 6.435.454.567.085 1.162.17 1.729.283 21.458 3.855 37.758 22.621 37.758 45.186 0 2.126-.17 4.224-.454 6.293h16.951c3.345-6.378 5.216-13.607 5.216-21.317 0-22.564-16.271-41.302-37.729-45.157-2.636-.482-5.358-.738-8.164-.738z" fill="#ee6161" fill-rule="evenodd"/></g><g><path clip-rule="evenodd" d="m348.282 158.955c-.028 0-.028 0-.057 0zm-13.975 14.287v47.68c0 7.172-3.912 13.465-9.666 16.923 2.92 1.729 6.35 2.75 10.006 2.75 10.8 0 19.644-8.844 19.644-19.673v-31.012-16.668c0-5.301-2.154-10.063-6.009-14.287-16.073-17.519-61.569-25.739-104.06-24.237 32.825 1.162 64.432 8.079 80.022 20.495 1.502 1.191 2.835 2.438 4.025 3.742 3.884 4.224 6.038 8.986 6.038 14.287z" fill="#ee6161" fill-rule="evenodd"/></g><path d="m498.037 296.14h-6.07c1.187-4.458 1.805-9.072 1.805-13.816 0-18.201-9.16-34.296-23.106-43.939 13.893-6.28 25.918-16.529 34.855-29.981 5.646-8.586 4.603-14.269-3.695-20.248-9.466-6.889-19.879-11.625-30.693-14.106 7.912-16.035 10.24-34.425 6.506-52.877-2.014-10.067-6.752-13.37-16.93-11.775-22.703 3.633-42.138 15.617-54.725 33.745-5.505 7.933-9.506 16.862-11.832 26.266-12.086-6.753-26.201-12.515-41.907-17.084-2.828-2.765-6.434-5.503-11.029-8.109-40.437-22.932-133.625-22.931-171.917.001-4.518 2.706-8.018 5.558-10.714 8.438-14.539 4.302-27.732 9.628-39.213 15.871-3.639 1.979-4.985 6.532-3.007 10.171 1.36 2.502 3.936 3.919 6.596 3.919 1.21 0 2.438-.293 3.576-.912 7.167-3.897 15.101-7.415 23.683-10.53-.042.741-.056 1.461-.041 2.153v67.61c0 14.968 12.189 27.145 27.172 27.145 14.967 0 27.144-12.177 27.144-27.145v-43.541c0-6.696 5.46-12.145 12.172-12.145s12.173 5.448 12.173 12.145v23.528c0 14.983 12.177 27.173 27.144 27.173 14.983 0 27.172-12.189 27.172-27.173v-13.524c0-6.696 5.448-12.145 12.144-12.145 6.712 0 12.173 5.448 12.173 12.145v13.522c0 14.983 12.189 27.173 27.172 27.173 14.967 0 27.144-12.189 27.144-27.173v-47.677c0-.67-.027-1.367-.084-2.085 39.561 14.337 63.55 36.713 63.767 59.901-22.208 6.469-38.487 26.994-38.487 51.262 0 4.735.624 9.349 1.821 13.816h-269.352c-15.816-17.432-23.312-35.121-26.993-43.813-.825-1.948-1.477-3.487-2.072-4.709-8.974-18.535-.693-34.233 7.834-44.139 2.702-3.14 2.348-7.875-.791-10.577-3.139-2.704-7.875-2.35-10.577.79-10.05 11.675-15.222 24.374-15.367 37.156-8.282 1.192-15.89 5.107-21.323 11.189-5.252 5.882-7.953 13.123-7.872 20.858-10.731 5.408-17.802 16.515-17.802 28.868 0 1.479.107 2.937.301 4.377h-10.83c-7.698.001-13.962 6.252-13.962 13.936v21.118c0 19.329 15.725 35.054 35.053 35.054h4.547v10.869c0 14.265 11.604 25.869 25.869 25.869h381.063c14.264 0 25.869-11.604 25.869-25.869v-10.869h4.519c19.344 0 35.081-15.725 35.081-35.054v-21.118c-.001-7.684-6.265-13.935-13.964-13.935zm-151.245-75.217c0 6.712-5.448 12.173-12.144 12.173-6.712 0-12.172-5.461-12.172-12.173v-13.523c0-14.968-12.19-27.145-27.173-27.145-14.967 0-27.144 12.177-27.144 27.145v13.522c0 6.712-5.46 12.173-12.172 12.173-6.696 0-12.144-5.461-12.144-12.173v-23.528c0-14.968-12.189-27.145-27.173-27.145-14.983 0-27.172 12.177-27.172 27.145v43.541c0 6.696-5.448 12.145-12.144 12.145-6.712 0-12.172-5.448-12.172-12.145v-67.693c0-.061-.001-.121-.002-.183-.142-5.814 3.838-11.189 11.829-15.975 16.66-9.978 46.848-14.958 77.333-14.958 30.695 0 61.693 5.051 79.477 15.136 8.612 4.884 12.978 10.259 12.974 15.979v47.682zm60.882-42.953c1.561-9.52 5.128-18.341 10.633-26.275 10.218-14.717 26.08-24.47 44.647-27.467 3.407 16.956.625 33.769-7.807 47.824-5.271-.117-10.573.283-15.849 1.236-9.069 1.642-17.627 4.807-25.536 9.38-1.935-1.601-3.966-3.168-6.088-4.698zm17.387 15.652c5.331-2.622 10.984-4.5 16.907-5.573 17.647-3.186 35.735 1.136 50.97 12.188-10.424 15.633-25.874 25.993-43.599 29.193-.255.049-.51.084-.765.127-2.657-.411-5.377-.626-8.147-.628-.591-12.268-5.799-24.242-15.366-35.307zm8.705 50.889c.109-.017.218-.036.326-.058 2.047-.339 4.146-.524 6.288-.524 21.17 0 38.393 17.224 38.393 38.395 0 4.816-.857 9.445-2.542 13.816h-71.676c-1.701-4.391-2.567-9.02-2.567-13.816-.001-18.915 13.75-34.668 31.778-37.813zm-381.474 30.537c3.817-1.034 6.176-4.854 5.39-8.73-1.391-6.856 1.229-11.555 3.671-14.289 3.015-3.375 7.449-5.609 12.253-6.321.845 2.839 1.935 5.664 3.291 8.464.43.882 1.042 2.328 1.751 4.004 3.309 7.815 9.447 22.3 21.328 37.965h-59.92c-.373-1.419-.564-2.881-.564-4.377-.001-7.802 5.263-14.675 12.8-16.716zm444.708 56.145c0 11.058-9.008 20.054-20.081 20.054h-202.168c-4.142 0-7.5 3.357-7.5 7.5s3.358 7.5 7.5 7.5h182.649v10.869c0 5.993-4.875 10.869-10.869 10.869h-381.062c-5.993 0-10.869-4.876-10.869-10.869v-10.869h185.342c4.142 0 7.5-3.357 7.5-7.5s-3.358-7.5-7.5-7.5h-204.889c-11.057 0-20.053-8.996-20.053-20.054v-20.053h482z"/></g></svg>