<svg id="Layer_1" enable-background="new 0 0 512 512" height="512" viewBox="0 0 512 512" width="512" xmlns="http://www.w3.org/2000/svg"><g><g><path clip-rule="evenodd" d="m350.138 348.24c-60.02-34.499-131.939-36.253-188.275 0-4.415 39.439-16.255 70.43-46.338 112.003l146.147 15.729 134.804-15.729c-30.084-41.573-41.924-72.563-46.338-112.003z" fill="#365e7d" fill-rule="evenodd"/></g><g><path clip-rule="evenodd" d="m396.476 460.244h-280.952-19.997c-11.548 0-21.02 9.473-21.02 21.021v15.495c0 3.041 2.485 5.526 5.525 5.526h351.934c3.04 0 5.525-2.485 5.525-5.526v-15.495c0-11.548-9.472-21.021-21.049-21.021z" fill="#f9f7f8" fill-rule="evenodd"/></g><g><path clip-rule="evenodd" d="m504.5 207.498c0-10.642-8.712-19.325-19.354-19.325h-26.37c-18.126 10.525-23.037 23.155-8.274 38.679h34.644c10.642 0 19.354-8.712 19.354-19.354z" fill="#8eaadf" fill-rule="evenodd"/></g><g><path clip-rule="evenodd" d="m7.5 207.498c0-10.642 8.683-19.325 19.325-19.325h26.399c8.829 13.01 11.431 25.962 8.274 38.679h-34.673c-10.613 0-19.325-8.712-19.325-19.354z" fill="#8eaadf" fill-rule="evenodd"/></g><g><path clip-rule="evenodd" d="m145.695 147.067c-11.694-12.455-27.686-18.77-44.262-18.945-5.145-.058-5.876.614-6.139 5.76-.614 11.753 1.871 23.418 7.543 33.651l52.273 12.835c.263-4.473 5.028-19.705-3.713-26.196-1.697-2.486-3.597-4.854-5.702-7.105z" fill="#a7e9a6" fill-rule="evenodd"/></g><g><path clip-rule="evenodd" d="m202.47 110.025c-1.433-2.69-2.924-2.69-7.163-1.316-17.19 5.701-31.779 17.571-39.848 34.469-1.696 3.596-3.07 7.251-4.064 10.993-1.199 4.385-1.9 8.888-2.134 13.361l25.756 9.034 25.756-9.034c.38-.731.76-1.462 1.111-2.193 8.069-16.898 8.127-35.697 1.754-52.654-.408-1.082-.788-1.959-1.168-2.66z" fill="#4fc9af" fill-rule="evenodd"/></g><g><path clip-rule="evenodd" d="m304.063 72.69-47.537-9.794-48.589 9.794c-.965 11.753-2.631 24.5-5.467 37.334.38.702.76 1.579 1.169 2.66 6.373 16.957 6.315 35.756-1.754 52.654-.351.731-.731 1.462-1.111 2.193l31.954 20.553c15.612 74.552 43.678-15.466 81.888-59.115-6.139-18.974-9.091-38.767-10.553-56.279z" fill="#f9f7f8" fill-rule="evenodd"/></g><g><path clip-rule="evenodd" d="m302.396 31.116h-92.822c-.175 10.028-.234 24.792-1.637 41.574h46.747 49.378c-1.432-16.781-1.461-31.546-1.666-41.574z" fill="#bed8fb" fill-rule="evenodd"/></g><g><path clip-rule="evenodd" d="m289.241 122.245c-26.926-1.725-24.09 1.053-36.866 22.804-6.11 10.408-14.238 21.401-11.723 22.483h15.348l32.597 9.034 28.095-9.034c8.215-6.578 9.882-19.588 8.508-30.61-3.157-3.041-6.578-5.73-10.583-7.952-6.52-3.626-14.53-6.023-25.376-6.725z" fill="#e29d7b" fill-rule="evenodd"/></g><g><path clip-rule="evenodd" d="m401.943 129.525c-6.286-33.885-52.507-34.089-59.231 0-7.221.614-13.097 3.391-17.512 7.397-8.683 7.835-11.753 20.407-8.508 30.61l53.501 17.162 57.769-17.162c5.409-16.431-4.59-36.136-26.019-38.007z" fill="#a7e9a6" fill-rule="evenodd"/></g><g><path clip-rule="evenodd" d="m145.695 147.067c-11.694-12.455-27.686-18.77-44.262-18.945-5.145-.058-5.876.614-6.139 5.76-.234 4.268-.058 8.508.555 12.688.672-1.754 2.134-2.047 5.584-2.017 16.576.205 32.568 6.49 44.262 18.974 1.228 1.286 2.368 2.631 3.45 4.005h.117c.234-4.473.936-8.975 2.134-13.361-1.696-2.485-3.596-4.853-5.701-7.104z" fill="#7fdbae" fill-rule="evenodd"/></g><g><path clip-rule="evenodd" d="m195.308 108.709c-3.479 1.169-6.841 2.544-10.057 4.21.351.351.672.819.994 1.403.38.702.76 1.608 1.169 2.69 6.11 16.226 6.286 34.177-.789 50.52h14.15c.38-.731.76-1.462 1.111-2.193 8.069-16.898 8.127-35.697 1.754-52.654-.409-1.082-.789-1.959-1.169-2.66-1.433-2.69-2.924-2.69-7.163-1.316z" fill="#26bb9e" fill-rule="evenodd"/></g><g><path clip-rule="evenodd" d="m455.239 209.106-197.543-10.177-200.935 10.177c13.331 60.46 52.273 111.214 105.101 139.135 28.066 14.823 60.02 23.243 94.138 23.243s66.072-8.42 94.138-23.243c47.566-25.143 83.876-68.793 100.365-121.388 1.812-5.819 3.42-11.725 4.736-17.747z" fill="#f9f7f8" fill-rule="evenodd"/></g><g><path clip-rule="evenodd" d="m310.348 133.501c-3.421 3.391-6.169 7.338-8.244 11.665-3.362 6.958-4.912 14.793-4.59 22.366h19.178c-3.245-10.203-.175-22.775 8.508-30.61-2.953-2.865-6.169-5.409-9.882-7.543-1.082.76-2.134 1.579-3.157 2.427-.614.555-1.228 1.11-1.813 1.695z" fill="#ce8b6b" fill-rule="evenodd"/></g><g><path clip-rule="evenodd" d="m401.943 129.525c-5.321-28.622-39.146-33.212-53.559-13.39 15.524-4.473 34.147 3.654 37.977 24.295 16.81 1.462 26.575 13.887 27.423 27.102h14.179c5.408-16.431-4.591-36.136-26.02-38.007z" fill="#7fdbae" fill-rule="evenodd"/></g><g><path clip-rule="evenodd" d="m384.723 226.852c-16.489 52.596-52.799 96.245-100.365 121.388-18.828 9.97-39.438 17.015-61.248 20.582 10.7 1.725 21.663 2.66 32.89 2.66 34.118 0 66.072-8.42 94.138-23.243 47.566-25.143 83.876-68.793 100.365-121.388 1.813-5.818 3.421-11.724 4.736-17.746h-65.779c-1.317 6.023-2.895 11.929-4.737 17.747z" fill="#e5e4ed" fill-rule="evenodd"/></g><g><path clip-rule="evenodd" d="m223.11 368.822c-21.81-3.567-42.42-10.613-61.248-20.582-1.579 14.063-4.093 27.043-8.04 39.82 31.106 11.461 65.633 17.834 102.177 17.834 18.389 0 36.252-1.637 53.442-4.678 18.184-3.245 13.331-3.655 19.909 12.893 6.198 15.641 13.711 28.622 25.669 46.135h41.456c-19.354-26.751-31.165-49.117-38.298-72.184-3.947-12.776-6.461-25.757-8.04-39.82-28.066 14.823-60.02 23.243-94.138 23.243-11.225 0-22.189-.936-32.889-2.661z" fill="#2b4d66" fill-rule="evenodd"/></g><g><path clip-rule="evenodd" d="m416.443 460.244h-19.968-21.459c11.548 0 21.02 9.473 21.02 21.021v15.495c0 3.041-2.485 5.526-5.525 5.526h41.456c3.04 0 5.525-2.485 5.525-5.526v-15.495c.001-11.549-9.472-21.021-21.049-21.021z" fill="#e5e4ed" fill-rule="evenodd"/></g><g><path clip-rule="evenodd" d="m302.396 31.116h-29.235c.146 8.8.205 21.225 1.169 35.463.146 1.988.292 4.035.468 6.11h29.265c-1.433-16.78-1.462-31.545-1.667-41.573z" fill="#8eaadf" fill-rule="evenodd"/></g><g><path clip-rule="evenodd" d="m304.063 72.69h-29.265c1.286 15.378 3.713 32.452 8.42 49.234 1.842.088 3.83.175 6.022.322 10.846.702 18.857 3.099 25.376 6.724-6.139-18.975-9.091-38.768-10.553-56.28z" fill="#e5e4ed" fill-rule="evenodd"/></g><g><path clip-rule="evenodd" d="m149.262 167.532h-46.426-37.86c-12.454 0-13.594.029-12.454 13.536.497 5.876 1.228 11.694 2.163 17.395.614 3.596 1.286 7.134 2.076 10.642h398.477c1.52-6.87 2.69-13.858 3.537-20.933.263-2.368.497-4.736.702-7.104 1.14-13.507 0-13.536-12.454-13.536h-19.061-111.27-60.692-15.349-39.877z" fill="#365e7d" fill-rule="evenodd"/></g><g><path clip-rule="evenodd" d="m389.459 209.106h65.779c1.52-6.87 2.69-13.858 3.537-20.933.263-2.368.497-4.736.702-7.104 1.14-13.507 0-13.536-12.454-13.536h-19.061-46.133c11.928 0 13.01.263 11.899 13.536-.205 2.368-.468 4.736-.731 7.104-.848 7.075-2.018 14.062-3.538 20.933z" fill="#2b4d66" fill-rule="evenodd"/></g><g><path d="m139.6 68.793c-3.138 2.704-3.489 7.439-.785 10.577 1.483 1.721 3.578 2.604 5.685 2.604 1.734 0 3.477-.599 4.893-1.819 7.591-6.542 18.277-23.975 4.394-43.116-8.502-11.741-3.563-16.573.796-20.837.523-.511.983-.966 1.354-1.362 2.83-3.024 2.672-7.771-.352-10.601-3.025-2.83-7.771-2.674-10.601.353-.243.259-.548.553-.891.888-2.485 2.432-7.112 6.957-9.048 13.884-2.324 8.315-.106 17.223 6.596 26.478 8.855 12.206-.186 21.294-2.041 22.951z"/><path d="m82.586 68.797c-3.135 2.707-3.482 7.443-.775 10.578 1.483 1.718 3.576 2.599 5.68 2.599 1.736 0 3.481-.6 4.898-1.823 7.576-6.541 18.243-23.97 4.389-43.112-8.502-11.741-3.563-16.573.796-20.837.522-.511.983-.966 1.354-1.362 2.831-3.024 2.673-7.771-.352-10.601s-7.77-2.674-10.601.353c-.243.259-.548.553-.89.888-2.485 2.432-7.112 6.957-9.048 13.884-2.324 8.315-.106 17.223 6.591 26.472 8.839 12.212-.189 21.304-2.042 22.961z"/><path d="m413.973 68.793c-3.138 2.704-3.489 7.439-.784 10.577 1.483 1.721 3.577 2.604 5.684 2.604 1.734 0 3.477-.599 4.893-1.819 7.591-6.542 18.277-23.975 4.395-43.116-8.502-11.742-3.563-16.573.796-20.837.522-.511.982-.966 1.354-1.361 2.83-3.024 2.673-7.771-.351-10.601-3.025-2.832-7.771-2.674-10.601.351-.243.26-.548.554-.89.889-2.485 2.431-7.112 6.956-9.048 13.883-2.325 8.316-.107 17.224 6.595 26.479 8.853 12.206-.188 21.294-2.043 22.951z"/><path d="m356.959 68.797c-3.135 2.707-3.482 7.443-.775 10.578 1.483 1.718 3.576 2.599 5.68 2.599 1.736 0 3.481-.6 4.898-1.823 7.576-6.541 18.243-23.97 4.389-43.112-8.502-11.741-3.562-16.573.796-20.837.522-.511.982-.965 1.354-1.361 2.83-3.024 2.673-7.771-.351-10.601-3.025-2.832-7.771-2.674-10.601.351-.243.26-.548.554-.89.889-2.485 2.431-7.112 6.956-9.049 13.883-2.324 8.316-.106 17.224 6.591 26.473 8.839 12.212-.189 21.304-2.042 22.961z"/><path d="m485.146 180.672h-18.109c.521-6.302.802-12.2-3.059-16.4-3.897-4.24-9.374-4.24-16.955-4.24h-10.167c.312-7.607-1.728-15.266-5.961-21.688-5.272-7.997-13.273-13.369-22.885-15.471-5.649-18.037-21.318-26.259-35.362-26.338-.07-.001-.137-.001-.207-.001-14.118 0-29.907 8.18-35.752 26.346-4.01.898-7.739 2.405-11.112 4.453-1.508-1.184-3.055-2.276-4.643-3.284-10.085-32.885-10.637-67.711-10.967-88.739-.024-1.525-.047-2.972-.072-4.332-.076-4.088-3.411-7.361-7.499-7.361h-92.822c-4.092 0-7.429 3.28-7.499 7.372l-.062 4.004c-.226 15.37-.592 40.141-5.298 65.645-1.177.203-2.424.512-3.768.953-19.75 6.549-35.386 20.045-44.083 38.018-12.498-12.075-29.182-18.793-47.346-18.986-9.155-.08-13.248 3.747-13.715 12.868-.479 9.167.746 18.164 3.568 26.542h-26.394c-7.581 0-13.057 0-16.955 4.24-3.861 4.2-3.579 10.099-3.059 16.4h-18.138c-14.791-.001-26.825 12.033-26.825 26.824 0 14.808 12.034 26.854 26.825 26.854h29.237c11.267 33.027 30.306 62.976 55.865 87.188 12.777 12.104 26.848 22.417 41.872 30.836-4.78 36.401-16.56 64.406-42.128 100.368h-16.144c-15.726 0-28.52 12.794-28.52 28.521v15.495c0 7.183 5.843 13.026 13.025 13.026h351.935c7.182 0 13.025-5.844 13.025-13.026v-15.495c0-15.727-12.807-28.521-28.549-28.521h-16.115c-25.555-35.944-37.342-63.946-42.152-100.354 15.033-8.421 29.112-18.74 41.896-30.85 25.559-24.211 44.603-54.159 55.869-87.188h29.204c14.807 0 26.854-12.047 26.854-26.854.001-14.791-12.046-26.825-26.853-26.825zm-458.321 38.68c-6.52 0-11.825-5.318-11.825-11.854 0-6.521 5.305-11.825 11.825-11.825h19.858c1.19 8.013 2.817 15.916 4.859 23.68h-24.717zm299.933-72.839c2.602-3.907 7.594-8.73 16.605-9.517 3.327-.29 6.061-2.744 6.707-6.021 2.832-14.358 13.791-19.441 22.371-19.441h.123c8.503.049 19.368 5.147 22.004 19.358.614 3.313 3.364 5.811 6.722 6.104 7.356.643 13.423 4.053 17.083 9.604 2.615 3.966 3.805 8.734 3.47 13.431h-98.898c-.185-4.639 1.135-9.495 3.813-13.518zm-15.647-10.925c.056.029.108.064.164.092 1.178.668 2.275 1.369 3.299 2.098-.099.143-.206.278-.302.423-4.359 6.548-6.535 14.255-6.348 21.83h-55.998c.55-.88 1.095-1.747 1.6-2.548 1.765-2.801 3.59-5.696 5.316-8.636 1.78-3.03 3.248-5.671 4.542-8.001 3.521-6.337 5.304-9.428 7.333-10.448 2.68-1.348 8.892-1.256 18.038-.669 10.158.66 17.099 2.911 22.356 5.859zm-100.455-25.554c-.109-.29-.226-.554-.339-.83 2.07-9.89 3.474-19.7 4.441-29.015h82.453c1.209 11.655 3.11 24.07 6.168 36.557-4.222-1.006-8.744-1.666-13.659-1.986-25.928-1.662-29.731 1.317-39.447 18.8-1.254 2.256-2.676 4.814-4.366 7.691-1.607 2.737-3.368 5.531-5.071 8.233-2.766 4.389-4.879 7.743-6.264 10.546h-22.513c5.261-15.962 4.836-33.395-1.403-49.996zm84.362-71.417c.126 7.574.332 16.622.954 26.573h-79.971c.637-10.091.841-19.181.959-26.573zm-132.79 107.792c6.781-14.201 19.083-24.947 34.673-30.322 5.347 14.774 5.025 30.261-.857 43.944h-38.313c.914-4.696 2.412-9.256 4.497-13.622zm-59.5-10.757c14.638.491 27.912 6.337 37.49 16.538 1.087 1.162 2.11 2.372 3.075 3.611-.301 1.4-.548 2.812-.768 4.231h-35.055c-3.361-7.475-4.99-15.798-4.742-24.38zm279.368 317.091h-102.562c-4.142 0-7.5 3.357-7.5 7.5s3.358 7.5 7.5 7.5h136.909c7.471 0 13.549 6.065 13.549 13.521v13.521h-347.985v-13.521c0-7.455 6.065-13.521 13.52-13.521h146.264c4.142 0 7.5-3.357 7.5-7.5s-3.358-7.5-7.5-7.5h-111.887c21.617-32.182 32.913-59.904 38.014-93.146 27.316 12.68 57.263 19.385 88.081 19.385 30.81 0 60.75-6.701 88.061-19.375 5.125 33.249 16.427 60.968 38.036 93.136zm69.908-272.304c-.605 7.184-1.579 14.242-2.877 21.167h-172.691c-4.142 0-7.5 3.357-7.5 7.5s3.358 7.5 7.5 7.5h169.3c-22.878 86.127-99.059 147.377-189.736 147.377s-166.857-61.249-189.735-147.377h173.042c4.142 0 7.5-3.357 7.5-7.5s-3.358-7.5-7.5-7.5h-176.434c-1.298-6.925-2.272-13.983-2.877-21.168-.195-2.306-.3-4.089-.316-5.337 1.46-.069 387.344-.069 387.344-.069 1.841 0 3.837 0 5.297.069-.017 1.248-.122 3.031-.317 5.338zm33.142 38.913h-24.684c.733-2.787 1.417-5.591 2.041-8.413.047-.187.088-.377.12-.569 1.061-4.853 1.959-9.755 2.695-14.697h19.827c6.536 0 11.854 5.305 11.854 11.825.001 6.536-5.317 11.854-11.853 11.854z"/></g></g></svg>