<svg id="Layer_1" enable-background="new 0 0 512 512" height="512" viewBox="0 0 512 512" width="512" xmlns="http://www.w3.org/2000/svg"><g><g><path clip-rule="evenodd" d="m7.5 40.986v430.029c0 13.493 11.027 24.549 24.548 24.549h447.904c13.493 0 24.548-11.055 24.548-24.549v-430.029c0-13.522-11.055-24.549-24.548-24.549h-447.904c-13.521 0-24.548 11.027-24.548 24.549z" fill="#f9f7f8" fill-rule="evenodd"/></g><g><path clip-rule="evenodd" d="m448.374 68.738h-104.344c37.021 35.519 79.767 79.061 109.474 125.55v-120.419c.001-2.807-2.324-5.131-5.13-5.131z" fill="#8eaadf" fill-rule="evenodd"/></g><g><path clip-rule="evenodd" d="m167.941 68.738h-104.315c-2.835 0-5.131 2.324-5.131 5.131v120.419c29.509-42.294 78.237-78.38 109.446-125.55z" fill="#bed8fb" fill-rule="evenodd"/></g><g><path clip-rule="evenodd" d="m453.505 317.712c-27.184 51.252-70.214 95.445-109.474 125.55h104.344c2.806 0 5.131-2.324 5.131-5.131v-120.419z" fill="#8eaadf" fill-rule="evenodd"/></g><g><path clip-rule="evenodd" d="m167.941 443.262c-34.923-42.776-75.714-87.565-109.446-125.55v120.419c0 2.806 2.296 5.131 5.131 5.131z" fill="#bed8fb" fill-rule="evenodd"/></g><g><path clip-rule="evenodd" d="m453.505 194.288c-17.349-55.561-57.487-101.058-109.475-125.55-26.702-12.586-56.551-19.616-88.044-19.616s-61.314 7.03-88.044 19.616c-51.988 24.492-92.098 69.99-109.446 125.55-6.095 19.475-9.383 40.225-9.383 61.712s3.288 42.209 9.383 61.712c17.348 55.561 57.458 101.058 109.446 125.55 26.731 12.586 56.551 19.616 88.044 19.616s61.342-7.03 88.044-19.616c51.988-24.492 92.126-69.99 109.474-125.55 6.066-19.503 9.354-40.225 9.354-61.712.001-21.487-3.287-42.238-9.353-61.712z" fill="#e29d7b" fill-rule="evenodd"/></g><g><path clip-rule="evenodd" d="m406.449 169.115c-7.569-13.125-25.767-17.349-36-27.582s-14.457-28.432-27.581-36.001-31.011-2.154-44.986-5.896c-13.947-3.742-26.731-17.377-41.896-17.377-15.137 0-27.921 13.635-41.896 17.377-13.947 3.742-31.833-1.672-44.958 5.896-13.124 7.569-17.376 25.768-27.61 36.001-10.205 10.233-28.403 14.457-36 27.582-7.569 13.153-2.154 31.012-5.896 44.987-3.741 13.976-17.376 26.732-17.376 41.898s13.635 27.922 17.376 41.897-1.672 31.834 5.896 44.959c7.597 13.125 25.795 17.377 36 27.61 10.233 10.205 14.485 28.404 27.61 36.001 13.124 7.569 31.011 2.154 44.958 5.896 13.975 3.742 26.759 17.377 41.896 17.377 15.165 0 27.95-13.635 41.896-17.377 13.975-3.742 31.862 1.672 44.986-5.896 13.124-7.597 17.348-25.796 27.581-36.001 10.233-10.233 28.432-14.485 36-27.61 7.569-13.125 2.154-30.984 5.896-44.959s17.376-26.732 17.376-41.897c0-15.166-13.635-27.922-17.376-41.897-3.741-13.976 1.673-31.834-5.896-44.988z" fill="#ffd772" fill-rule="evenodd"/></g><g><path clip-rule="evenodd" d="m154.392 182.751-14.939 29.935c-.85 1.758-.142 3.884 1.587 4.734l22.989 11.452c1.729.879 3.855.17 4.734-1.559l14.91-29.963c.879-1.729.17-3.855-1.587-4.734l-22.989-11.452c-1.729-.851-3.855-.143-4.705 1.587z" fill="#f37c7c" fill-rule="evenodd"/></g><g><path clip-rule="evenodd" d="m332.493 200.212c2.324 11.991 3.969 24.35 4.819 36.965.51 7.144.765 14.344.765 21.629 0 17.774-1.502 35.066-4.337 51.734l6.406-15.251c.737-1.786 2.835-2.636 4.62-1.871l23.669 9.95c1.786.737 2.636 2.835 1.871 4.621l-12.954 30.842c-.765 1.786-2.835 2.636-4.62 1.871l-23.216-9.751c-7.455 30.643-19.587 58.651-35.263 82.604 1.219-.482 2.409-.879 3.628-1.191 13.975-3.742 31.862 1.672 44.986-5.896 13.124-7.597 17.348-25.796 27.581-36.001 10.233-10.233 28.432-14.485 36-27.61 7.569-13.125 2.154-30.984 5.896-44.959s17.376-26.732 17.376-41.897c0-15.166-13.635-27.922-17.376-41.897-3.742-13.975 1.672-31.834-5.896-44.987-7.569-13.125-25.767-17.349-36-27.582s-14.457-28.432-27.581-36.001-31.011-2.154-44.986-5.896c-3.118-.822-6.18-2.154-9.213-3.713 13.181 18.369 24.18 39.459 32.4 62.477l7.965-5.783c1.587-1.134 3.798-.794 4.932.765l19.672 27.072c1.134 1.559.794 3.799-.765 4.932z" fill="#fbba58" fill-rule="evenodd"/></g><g><path clip-rule="evenodd" d="m370.449 141.534c10.233 10.233 28.432 14.457 36 27.582 7.569 13.153 2.154 31.012 5.896 44.987s17.376 26.732 17.376 41.897c0 15.166-13.635 27.922-17.376 41.897s1.672 31.834-5.896 44.959c-7.569 13.125-25.767 17.377-36 27.61-10.233 10.205-14.457 28.404-27.581 36.001-13.124 7.569-31.011 2.154-44.986 5.896-1.219.312-2.409.709-3.628 1.191-12.614 19.248-27.524 35.916-44.221 49.239 1.984.057 3.969.085 5.953.085 31.493 0 61.342-7.03 88.044-19.616 51.988-24.492 92.126-69.99 109.474-125.55 6.066-19.503 9.354-40.225 9.354-61.712s-3.288-42.238-9.354-61.712c-17.348-55.561-57.486-101.058-109.474-125.55-26.702-12.586-56.551-19.616-88.044-19.616-4.337 0-8.646.142-12.926.397 17.065 12.331 32.428 28.007 45.61 46.405 3.033 1.559 6.095 2.891 9.213 3.713 13.975 3.742 31.862-1.672 44.986 5.896 13.123 7.568 17.347 25.767 27.58 36.001z" fill="#ce8b6b" fill-rule="evenodd"/></g><g><path clip-rule="evenodd" d="m344.767 293.418c-1.786-.765-3.883.085-4.62 1.871l-12.983 30.87c-.737 1.758.113 3.855 1.899 4.592l23.669 9.95c1.786.765 3.855-.085 4.62-1.871l12.954-30.842c.765-1.786-.085-3.884-1.871-4.621z" fill="#f37c7c" fill-rule="evenodd"/></g><g><path clip-rule="evenodd" d="m333.967 153.383c-1.134-1.559-3.345-1.899-4.932-.765l-20.75 15.109c-1.587 1.134-1.928 3.345-.794 4.904l19.673 27.072c1.162 1.587 3.373 1.928 4.932.794l20.778-15.109c1.559-1.134 1.899-3.373.765-4.932z" fill="#f37c7c" fill-rule="evenodd"/></g><g><path clip-rule="evenodd" d="m270.358 16.437c22.11 11.679 42.35 27.44 60.095 46.49 4.592 1.786 9.128 3.713 13.578 5.811h104.344c2.806 0 5.131 2.324 5.131 5.131v120.419c6.066 19.475 9.354 40.225 9.354 61.712s-3.288 42.209-9.354 61.712v120.419c0 2.806-2.324 5.131-5.131 5.131h-98.703c-14.91 20.325-32.287 38.014-51.619 52.301h181.9c13.493 0 24.548-11.055 24.548-24.549v-430.028c0-13.522-11.055-24.549-24.548-24.549z" fill="#e5e4ed" fill-rule="evenodd"/></g><g><path d="m269.469 292.314-21.872-7.875c-9.623-3.484-9.623-7.033-9.623-8.738 0-1.696 0-5.225 9.611-8.704l21.896-7.886c12.951-4.688 19.518-12.363 19.518-22.813 0-10.469-6.566-18.154-19.529-22.847l-21.872-7.875c-9.623-3.484-9.623-7.014-9.623-8.71 0-1.705 0-5.253 9.611-8.732l21.895-7.885c12.952-4.687 19.519-12.362 19.519-22.813 0-10.469-6.566-18.154-19.529-22.847l-21.884-7.88c-3.899-1.4-8.193.618-9.598 4.516-1.403 3.897.618 8.194 4.516 9.598l21.872 7.875c9.623 3.484 9.623 7.033 9.623 8.738 0 1.696 0 5.227-9.611 8.704l-21.896 7.886c-12.951 4.688-19.518 12.373-19.518 22.841 0 10.45 6.566 18.126 19.529 22.818l21.872 7.875c9.623 3.484 9.623 6.902 9.623 8.738 0 1.696 0 5.225-9.611 8.704l-21.896 7.886c-12.951 4.688-19.518 12.363-19.518 22.813 0 10.469 6.566 18.154 19.529 22.847l21.872 7.875c9.623 3.484 9.623 7.014 9.623 8.71 0 1.705 0 5.253-9.611 8.732l-21.895 7.885c-12.951 4.687-19.519 12.362-19.519 22.813 0 10.469 6.566 18.154 19.529 22.847l21.884 7.88c.84.302 1.697.445 2.541.445 3.072 0 5.955-1.903 7.057-4.961 1.403-3.897-.618-8.194-4.516-9.598l-21.872-7.875c-9.623-3.484-9.623-7.033-9.623-8.738 0-1.696 0-5.227 9.611-8.704l21.896-7.886c12.951-4.688 19.518-12.373 19.518-22.841 0-10.449-6.566-18.125-19.529-22.818z"/><path d="m195.321 257.868c-2.929 2.93-2.929 7.678 0 10.607l.028.028c1.462 1.461 3.371 2.189 5.283 2.189 1.92 0 3.842-.736 5.31-2.204 2.929-2.929 2.915-7.691-.014-10.621-2.929-2.927-7.677-2.927-10.607.001z"/><path d="m195.242 306.479c-2.978 2.879-3.059 7.627-.18 10.605l.028.029c1.468 1.519 3.418 2.279 5.372 2.279 1.878 0 3.76-.703 5.219-2.114 2.979-2.879 3.045-7.642.166-10.62-2.879-2.976-7.627-3.056-10.605-.179z"/><path d="m294.937 265.891c-2.93-2.928-7.678-2.928-10.607 0-2.929 2.93-2.929 7.678 0 10.607l.028.028c1.462 1.461 3.371 2.189 5.283 2.189 1.92 0 3.842-.736 5.31-2.204 2.928-2.928 2.914-7.691-.014-10.62z"/><path d="m299.183 354.986c-2.929 2.93-2.929 7.678 0 10.607l.028.028c1.462 1.461 3.371 2.189 5.283 2.189 1.92 0 3.842-.736 5.31-2.204 2.929-2.929 2.915-7.691-.014-10.621-2.93-2.926-7.678-2.926-10.607.001z"/><path d="m151.671 257.515h-16.073c-4.143 0-7.5 3.357-7.5 7.5s3.357 7.5 7.5 7.5h16.073c4.143 0 7.5-3.357 7.5-7.5s-3.358-7.5-7.5-7.5z"/><path d="m207.153 140.221-15.336 9.44c-3.527 2.171-4.627 6.791-2.455 10.318 1.417 2.302 3.876 3.569 6.394 3.569 1.341 0 2.699-.359 3.925-1.114l15.336-9.44c3.527-2.171 4.627-6.791 2.455-10.318-2.172-3.529-6.792-4.628-10.319-2.455z"/><path d="m192.379 346.808c-2.388-3.384-7.069-4.19-10.452-1.8-3.384 2.39-4.189 7.069-1.8 10.452l9.27 13.125c1.461 2.069 3.778 3.175 6.133 3.175 1.495 0 3.006-.446 4.319-1.375 3.384-2.39 4.189-7.069 1.8-10.452z"/><path d="m142.398 316.66c-2.929 2.93-2.929 7.678 0 10.607l.028.028c1.462 1.461 3.371 2.189 5.283 2.189 1.92 0 3.842-.736 5.31-2.204 2.929-2.929 2.915-7.691-.014-10.621-2.929-2.927-7.677-2.927-10.607.001z"/><path d="m190.997 192.33c-.929-2.814-2.901-5.096-5.566-6.428l-23.023-11.47c-2.623-1.291-5.601-1.488-8.382-.552-2.804.942-5.063 2.917-6.345 5.521l-14.978 30.015c-2.645 5.462-.388 12.071 4.993 14.715l22.971 11.444c1.579.795 3.26 1.172 4.919 1.172 4.027 0 7.925-2.223 9.893-6.094l14.882-29.907c1.333-2.624 1.56-5.613.636-8.416zm-27.167 28.064-15.891-7.917 11.388-22.82 15.865 7.903z"/><path d="m370.56 248.854c-2.929 2.93-2.929 7.678 0 10.607l.028.028c1.462 1.461 3.371 2.189 5.283 2.189 1.92 0 3.842-.736 5.31-2.204 2.929-2.929 2.915-7.691-.014-10.621-2.93-2.927-7.678-2.927-10.607.001z"/><path d="m325.038 244.678h16.072c4.143 0 7.5-3.357 7.5-7.5s-3.357-7.5-7.5-7.5h-16.072c-4.143 0-7.5 3.357-7.5 7.5s3.358 7.5 7.5 7.5z"/><path d="m371.343 296.454-23.623-9.931c-2.727-1.167-5.745-1.191-8.497-.067-2.747 1.121-4.881 3.241-5.989 5.926l-12.985 30.876c-1.137 2.709-1.141 5.707-.013 8.443 1.128 2.735 3.247 4.86 5.922 5.965l23.653 9.943c1.395.592 2.844.873 4.272.873 4.283 0 8.375-2.523 10.186-6.747l12.933-30.791c1.168-2.726 1.192-5.743.069-8.498-1.121-2.749-3.242-4.883-5.928-5.992zm-19.361 35.797-16.353-6.874 9.886-23.509 16.343 6.87z"/><path d="m330.054 208.658c2.245-.001 4.508-.682 6.454-2.097l20.776-15.108c2.383-1.732 3.943-4.3 4.396-7.23.447-2.907-.253-5.812-1.973-8.178l-19.674-27.072c-3.543-4.875-10.434-5.977-15.413-2.418l-20.729 15.094c-2.383 1.716-3.953 4.257-4.424 7.159-.475 2.92.221 5.844 1.957 8.232l19.688 27.092c2.163 2.956 5.533 4.526 8.942 4.526zm.188-47.642 15.003 20.646-14.342 10.429-14.996-20.636z"/><path d="m232.005 488.063h-199.957c-9.4 0-17.048-7.648-17.048-17.049v-430.029c0-9.4 7.647-17.049 17.048-17.049h199.957c4.143 0 7.5-3.357 7.5-7.5s-3.357-7.5-7.5-7.5h-199.957c-17.671.001-32.048 14.377-32.048 32.049v430.029c0 17.672 14.377 32.049 32.048 32.049h199.957c4.143 0 7.5-3.357 7.5-7.5s-3.358-7.5-7.5-7.5z"/><path d="m479.952 8.937h-213.307c-4.143 0-7.5 3.357-7.5 7.5s3.357 7.5 7.5 7.5h213.308c9.4 0 17.048 7.648 17.048 17.049v430.029c0 9.4-7.647 17.049-17.048 17.049h-213.308c-4.143 0-7.5 3.357-7.5 7.5s3.357 7.5 7.5 7.5h213.308c17.671 0 32.048-14.377 32.048-32.049v-430.03c-.001-17.672-14.378-32.048-32.049-32.048z"/><path d="m448.374 450.763c6.965 0 12.631-5.666 12.631-12.631v-119.457c6.075-19.834 9.354-40.877 9.354-62.675s-3.28-42.841-9.354-62.675v-119.457c0-6.965-5.666-12.631-12.631-12.631h-102.859c-27.261-12.582-57.588-19.616-89.53-19.616s-62.269 7.034-89.53 19.616h-102.829c-6.965 0-12.631 5.666-12.631 12.631v119.362c-6.094 19.861-9.383 40.938-9.383 62.77s3.289 42.908 9.383 62.77v119.362c0 6.965 5.666 12.631 12.631 12.631h102.83c27.261 12.582 57.587 19.616 89.53 19.616s62.269-7.034 89.53-19.616zm-2.369-15h-73.35c30.83-20.079 56.196-47.866 73.35-80.609zm0-359.526v80.609c-17.154-32.743-42.52-60.53-73.35-80.609zm-380.01 0h73.321c-30.813 20.068-56.167 47.835-73.321 80.555zm0 359.526v-80.555c17.154 32.72 42.508 60.487 73.321 80.555zm-9.383-179.763c0-109.938 89.438-199.379 199.373-199.379 109.936 0 199.374 89.441 199.374 199.379s-89.438 199.379-199.374 199.379c-109.934 0-199.373-89.441-199.373-199.379z"/><path d="m412.946 346.603c5.447-9.445 5.416-20.368 5.389-30.006-.018-6.142-.034-11.943 1.256-16.76 1.288-4.813 4.204-9.829 7.292-15.139 4.846-8.335 10.339-17.782 10.339-28.698s-5.493-20.363-10.339-28.698c-3.088-5.31-6.004-10.325-7.292-15.14-1.29-4.815-1.273-10.617-1.256-16.761.027-9.64.059-20.566-5.389-30.032-5.45-9.452-14.934-14.884-23.301-19.676-5.332-3.054-10.368-5.938-13.893-9.464-3.525-3.524-6.41-8.562-9.464-13.894-4.792-8.367-10.224-17.85-19.675-23.301-9.446-5.448-20.384-5.411-30.022-5.389-6.146.018-11.954.034-16.767-1.255-4.797-1.286-9.807-4.198-15.11-7.281-8.347-4.852-17.807-10.351-28.729-10.351-10.896 0-20.344 5.49-28.681 10.334-5.316 3.09-10.338 6.008-15.158 7.298-4.804 1.289-10.603 1.274-16.744 1.255-9.633-.033-20.57-.06-30.018 5.389-9.45 5.45-14.892 14.936-19.693 23.304-3.058 5.331-5.947 10.366-9.479 13.898-3.518 3.527-8.557 6.414-13.892 9.472-8.356 4.787-17.828 10.214-23.299 19.666-5.443 9.46-5.412 20.387-5.385 30.026.018 6.144.034 11.945-1.256 16.762-1.288 4.813-4.204 9.829-7.292 15.139-4.845 8.336-10.338 17.783-10.338 28.699s5.493 20.363 10.339 28.698c3.088 5.31 6.004 10.325 7.292 15.14 1.29 4.815 1.273 10.617 1.256 16.759-.027 9.638-.059 20.561 5.395 30.017 5.461 9.436 14.934 14.872 23.291 19.669 5.334 3.062 10.372 5.953 13.904 9.495 3.527 3.518 6.419 8.557 9.48 13.891 4.797 8.357 10.233 17.829 19.679 23.297 9.447 5.448 20.388 5.422 30.017 5.389 6.143-.016 11.942-.034 16.748 1.256 4.816 1.289 9.838 4.207 15.154 7.297 8.337 4.844 17.785 10.334 28.681 10.334 10.923 0 20.383-5.499 28.729-10.351 5.304-3.083 10.313-5.995 15.107-7.28 4.815-1.29 10.624-1.272 16.77-1.256 9.643.026 20.576.06 30.034-5.395 9.434-5.462 14.86-14.933 19.647-23.288 3.057-5.336 5.944-10.376 9.479-13.9 3.524-3.525 8.56-6.414 13.89-9.473 8.37-4.803 17.854-10.244 23.304-19.696zm-9.611-29.963c.024 8.497.047 16.522-3.383 22.471-3.43 5.946-10.397 9.944-17.774 14.177-5.946 3.412-12.096 6.94-17.024 11.869-4.951 4.938-8.481 11.099-11.896 17.058-4.22 7.366-8.206 14.324-14.136 17.757-5.949 3.431-13.977 3.411-22.488 3.383-6.852-.017-13.948-.04-20.695 1.767-6.724 1.804-12.844 5.361-18.762 8.802-7.359 4.277-14.312 8.318-21.191 8.318-6.854 0-13.795-4.033-21.144-8.304-5.933-3.447-12.066-7.011-18.809-8.816-6.035-1.619-12.354-1.771-18.534-1.771-.715 0-1.429.002-2.139.004-8.519.03-16.534.048-22.471-3.377-5.946-3.441-9.942-10.404-14.173-17.775-3.417-5.954-6.951-12.111-11.884-17.03-4.933-4.947-11.09-8.48-17.044-11.898-7.371-4.23-14.334-8.227-17.77-14.162-3.43-5.948-3.407-13.974-3.383-22.471.02-6.853.04-13.939-1.766-20.682-1.806-6.745-5.369-12.873-8.814-18.8-4.271-7.347-8.307-14.286-8.307-21.158s4.035-13.812 8.307-21.158c3.445-5.927 7.009-12.055 8.814-18.799 1.806-6.743 1.785-13.831 1.766-20.685-.024-8.504-.047-16.535 3.377-22.486 3.438-5.941 10.396-9.928 17.763-14.148 5.959-3.414 12.12-6.943 17.05-11.887 4.936-4.937 8.464-11.086 11.876-17.034 4.232-7.376 8.23-14.344 14.176-17.773 5.947-3.43 13.965-3.41 22.482-3.383 6.857.021 13.941.04 20.669-1.766 6.746-1.807 12.88-5.37 18.813-8.817 7.349-4.271 14.29-8.304 21.144-8.304 6.88 0 13.832 4.041 21.191 8.318 5.918 3.44 12.038 6.998 18.765 8.803 6.742 1.805 13.828 1.782 20.692 1.766 8.525-.022 16.54-.046 22.487 3.383 5.941 3.427 9.93 10.39 14.151 17.762 3.408 5.951 6.934 12.105 11.873 17.046 4.94 4.939 11.094 8.464 17.045 11.872 7.372 4.223 14.335 8.211 17.758 14.146 3.434 5.968 3.411 13.999 3.387 22.503-.02 6.854-.04 13.941 1.766 20.684 1.806 6.745 5.369 12.873 8.814 18.8 4.271 7.347 8.307 14.286 8.307 21.158s-4.035 13.812-8.307 21.158c-3.445 5.927-7.009 12.055-8.814 18.799-1.805 6.74-1.785 13.827-1.765 20.68z"/></g></g></svg>