<svg id="Layer_1" enable-background="new 0 0 512.02 512.02" height="512" viewBox="0 0 512.02 512.02" width="512" xmlns="http://www.w3.org/2000/svg"><g><g><path clip-rule="evenodd" d="m111.664 366.226-97.114 97.088c-9.374 9.403-9.374 24.751 0 34.154 9.403 9.403 24.75 9.403 34.153 0l97.086-97.117-7.202-35.983z" fill="#ffd772" fill-rule="evenodd"/></g><g><path clip-rule="evenodd" d="m130.812 385.346-97.114 97.117c-6.716 6.716-16.462 8.631-24.893 5.745 1.143 3.401 3.058 6.574 5.745 9.26 9.403 9.403 24.75 9.403 34.153 0l97.086-97.117z" fill="#fbba58" fill-rule="evenodd"/></g><g><path clip-rule="evenodd" d="m204.32 35.748c-48.328 5.459-46.014 27.266-41.927 94.63l2.144 35.611c72.964-47.415 167.421-104.862 241.442-152.963z" fill="#fbc7b8" fill-rule="evenodd"/></g><g><path clip-rule="evenodd" d="m346.047 347.477 35.582 2.144c67.363 4.087 89.169 6.402 94.628-41.928l22.721-201.636c-48.072 74.309-105.832 168.539-152.931 241.42z" fill="#fbc7b8" fill-rule="evenodd"/></g><g><path clip-rule="evenodd" d="m164.536 165.99c-34.153 39.27-62.561 84.77-80.281 135.215-7.688 21.921-5.23 32.811 13.69 51.302 20.52 20.521 41.041 41.042 61.561 61.563 18.491 18.92 29.409 21.378 51.301 13.69 50.443-17.72 95.942-46.129 135.24-80.283 55.902-48.616 99.201-108.892 126.094-166.368 11.489-24.551 21.149-50.731 26.836-75.053v-.057c8.488-36.355 8.145-68.565-8.145-84.827-16.262-16.291-48.471-16.634-84.825-8.145h-.029c-24.35 5.716-50.529 15.348-75.079 26.837-57.473 26.894-117.72 70.194-166.363 126.126zm8.717 143.703c-11.975-14.748-20.92-30.238-26.522-45.186-2.686-7.174-1.458-8.403 5.716-5.716 6.03 2.258 12.118 5.03 18.205 8.346 14.433 7.86 28.923 18.606 42.27 31.953s24.093 27.837 31.952 42.271c3.315 6.088 6.087 12.175 8.345 18.206 2.687 7.174 1.458 8.403-5.716 5.716-14.947-5.602-30.438-14.548-45.185-26.494-5.202-4.23-10.317-8.86-15.29-13.804-4.944-4.974-9.574-10.09-13.775-15.292zm67.534-38.469c-18.977-19.006-32.724-40.27-40.298-60.477-2.687-7.174-1.458-8.431 5.745-5.716 20.206 7.574 41.441 21.293 60.446 40.299s32.724 40.241 40.298 60.448c2.715 7.202 1.458 8.431-5.716 5.745-20.206-7.575-41.469-21.322-60.475-40.299zm52.416-52.417c-23.55-23.522-41.041-49.359-51.272-73.566-3.658-8.603-2.286-9.975 6.316-6.316 24.207 10.232 50.015 27.723 73.564 51.274 23.55 23.55 41.041 49.387 51.272 73.566 3.658 8.603 2.286 9.975-6.316 6.345-24.207-10.233-50.014-27.753-73.564-51.303zm53.758-53.76c-17.148-17.148-28.751-37.069-34.324-56.59-1.972-6.945-.6-8.317 6.345-6.345 19.52 5.573 39.44 17.177 56.588 34.325s28.751 37.069 34.324 56.59c1.972 6.945.6 8.317-6.345 6.345-19.52-5.573-39.44-17.177-56.588-34.325zm56.331-56.333c-12.718-12.718-21.006-27.866-24.607-42.871-1.258-5.345-.143-6.488 5.202-5.202 15.033 3.573 30.152 11.89 42.87 24.608s21.035 27.837 24.607 42.871c1.286 5.345.143 6.459-5.202 5.202-15.004-3.601-30.152-11.889-42.87-24.608z" fill="#e29d7b" fill-rule="evenodd"/></g><g><path clip-rule="evenodd" d="m170.652 267.137c-6.087-3.315-12.175-6.088-18.205-8.346-7.174-2.687-8.402-1.458-5.716 5.716 5.602 14.948 14.547 30.438 26.522 45.186 4.201 5.202 8.831 10.318 13.775 15.291 4.973 4.944 10.089 9.574 15.29 13.804 14.747 11.947 30.237 20.892 45.185 26.494 7.174 2.687 8.402 1.458 5.716-5.716-2.258-6.031-5.03-12.118-8.345-18.206-7.859-14.433-18.605-28.924-31.952-42.271-13.347-13.346-27.837-24.093-42.27-31.952z" fill="#ffeee6" fill-rule="evenodd"/></g><g><path clip-rule="evenodd" d="m266.681 245.33c-19.006-19.006-40.24-32.725-60.446-40.299-7.202-2.715-8.431-1.458-5.745 5.716 7.574 20.206 21.321 41.47 40.298 60.477 19.006 18.978 40.269 32.725 60.475 40.299 7.174 2.687 8.431 1.458 5.716-5.745-7.574-20.207-21.293-41.442-40.298-60.448z" fill="#ffeee6" fill-rule="evenodd"/></g><g><path clip-rule="evenodd" d="m321.811 190.198c-23.55-23.55-49.357-41.042-73.564-51.274-8.603-3.658-9.974-2.286-6.316 6.316 10.232 24.208 27.722 50.045 51.272 73.566 23.55 23.55 49.357 41.07 73.564 51.302 8.603 3.63 9.974 2.258 6.316-6.345-10.231-24.178-27.722-50.015-51.272-73.565z" fill="#ffeee6" fill-rule="evenodd"/></g><g><path clip-rule="evenodd" d="m383.887 60.642c-5.344-1.286-6.459-.143-5.202 5.202 3.601 15.005 11.889 30.153 24.607 42.871s27.865 21.007 42.87 24.608c5.344 1.258 6.488.143 5.202-5.202-3.572-15.033-11.889-30.153-24.607-42.871-12.719-12.719-27.838-21.035-42.87-24.608z" fill="#ffeee6" fill-rule="evenodd"/></g><g><path clip-rule="evenodd" d="m375.57 136.438c-17.148-17.148-37.068-28.752-56.588-34.325-6.945-1.972-8.317-.6-6.345 6.345 5.573 19.521 17.176 39.441 34.324 56.59s37.068 28.752 56.588 34.325c6.945 1.972 8.317.6 6.345-6.345-5.573-19.521-17.176-39.442-34.324-56.59z" fill="#ffeee6" fill-rule="evenodd"/></g><g><path clip-rule="evenodd" d="m224.754 354.365c-19.12 10.661-39.212 19.863-60.132 27.209-20.806 7.288-31.695 5.459-48.586-10.975l12.689 12.69 17.062 17.063 13.718 13.719c18.491 18.92 29.409 21.378 51.301 13.69 50.443-17.72 95.942-46.129 135.24-80.283 55.902-48.616 99.201-108.892 126.094-166.368 11.489-24.551 21.149-50.731 26.836-75.053v-.057c8.488-36.355 8.145-68.565-8.145-84.827-7.774-7.802-19.206-11.947-32.981-13.204 2.401 25.78-5.259 59.791-17.891 93.659 5.459 8.517 9.26 17.52 11.403 26.494 1.286 5.345.143 6.459-5.202 5.202-5.602-1.343-11.232-3.344-16.748-5.973-1.115 2.544-2.286 5.059-3.458 7.574-6.459 13.804-13.861 27.752-22.149 41.67 2.486 5.487 4.516 10.975 6.088 16.434 1.972 6.945.6 8.317-6.345 6.345-3.83-1.086-7.659-2.429-11.518-3.973-9.631 14.69-20.263 29.238-31.781 43.385 5.087 8.403 9.374 16.777 12.832 24.979 3.658 8.603 2.286 9.975-6.316 6.345-7.631-3.23-15.405-7.174-23.235-11.804-12.404 13.747-25.693 27.037-39.812 39.584 1.2 2.629 2.286 5.287 3.258 7.888 2.715 7.202 1.458 8.431-5.716 5.745-3.001-1.115-6.002-2.372-9.003-3.773-14.833 12.375-30.523 23.922-46.985 34.382 3.144 5.83 5.802 11.661 7.945 17.434 2.687 7.174 1.458 8.403-5.716 5.716-7.485-2.8-15.145-6.459-22.747-10.917z" fill="#ce8b6b" fill-rule="evenodd"/></g><g><path clip-rule="evenodd" d="m301.034 24.859c-48.014 27.066-96.114 63.135-138.584 106.777l2.086 34.354c48.643-55.932 108.89-99.232 166.364-126.126 24.55-11.489 50.729-21.121 75.079-26.837z" fill="#fbb49e" fill-rule="evenodd"/></g><g><path clip-rule="evenodd" d="m472.141 181.109c-26.894 57.476-70.192 117.752-126.094 166.368l34.324 2.086c43.641-42.471 79.738-90.572 106.774-138.587l11.832-104.919c-5.687 24.322-15.347 50.501-26.836 75.052z" fill="#fbb49e" fill-rule="evenodd"/></g><g><path d="m235.187 132.181c-4.883 4.884-1.81 12.111-.165 15.979 11.07 26.193 29.356 52.457 52.877 75.95 23.577 23.576 49.839 41.871 75.952 52.908 2.314.977 5.815 2.454 9.299 2.454 2.361 0 4.714-.68 6.683-2.653 4.874-4.887 1.802-12.11.157-15.979-11.072-26.164-29.356-52.426-52.876-75.946-23.542-23.544-49.805-41.829-75.933-52.873-3.882-1.649-11.11-4.724-15.994.16zm81.321 63.319c20.252 20.254 36.338 42.551 46.845 64.871-22.259-10.478-44.551-26.571-64.85-46.871-20.244-20.22-36.324-42.502-46.829-64.833 22.283 10.487 44.57 26.569 64.834 46.833z"/><path d="m194.357 198.87c-4.604 4.594-2.096 11.289-.891 14.51 8.27 22.063 22.798 43.897 42.021 63.151 19.244 19.216 41.078 33.744 63.143 42.014 1.814.68 4.733 1.773 7.758 1.773 2.341 0 4.745-.655 6.749-2.663 4.597-4.606 2.071-11.305.863-14.51-8.275-22.08-22.804-43.906-42.017-63.119-19.211-19.213-41.037-33.742-63.104-42.014-3.218-1.213-9.916-3.735-14.522.858zm67.02 51.762c15.759 15.76 28.059 33.317 35.885 51.159-17.691-7.807-35.633-20.354-51.167-35.866-15.52-15.545-28.069-33.489-35.876-51.18 17.836 7.825 35.397 20.125 51.158 35.887z"/><path d="m140.588 252.648c-4.588 4.589-2.084 11.275-.88 14.492 8.288 22.11 22.817 43.947 42.018 63.147 19.2 19.2 41.035 33.729 63.147 42.019 1.813.679 4.731 1.772 7.754 1.771 2.336 0 4.735-.652 6.735-2.652 4.588-4.589 2.084-11.275.88-14.49-8.287-22.111-22.817-43.947-42.017-63.147-19.201-19.202-41.036-33.732-63.148-42.02-3.213-1.203-9.9-3.707-14.489.88zm67.03 51.745c15.749 15.749 28.047 33.312 35.878 51.166-17.855-7.832-35.416-20.13-51.164-35.879-15.748-15.748-28.046-33.312-35.877-51.165 17.854 7.831 35.415 20.129 51.163 35.878z"/><path d="m307.163 96.637c-4.422 4.423-2.611 10.803-1.737 13.879 6.169 21.608 18.698 42.299 36.233 59.835 17.536 17.535 38.225 30.064 59.843 36.236 1.543.438 3.926 1.114 6.476 1.114 2.516 0 5.196-.658 7.392-2.854 4.422-4.423 2.61-10.803 1.737-13.879-6.168-21.608-18.698-42.298-36.233-59.833-17.534-17.535-38.224-30.064-59.842-36.237-3.067-.87-9.448-2.682-13.869 1.739zm63.104 45.104c14.577 14.578 25.27 31.481 31.112 49.115-17.639-5.845-34.538-16.536-49.114-31.111-14.577-14.578-25.269-31.48-31.111-49.115 17.639 5.845 34.538 16.536 49.113 31.111z"/><path d="m444.445 140.623c1.099.259 2.866.674 4.846.674 2.386 0 5.08-.604 7.28-2.816 4.025-4.046 2.665-9.7 2.089-12.095-4.045-17.023-13.244-33.082-26.6-46.439v-.001c-13.358-13.356-29.416-22.556-46.418-26.596-2.416-.581-8.069-1.941-12.116 2.085s-2.711 9.703-2.133 12.158c4.096 17.067 13.293 33.121 26.597 46.424 13.302 13.305 29.355 22.502 46.455 26.606zm-22.992-50.071c9.969 9.97 17.203 21.624 21.138 33.99-12.398-3.962-24.059-11.195-33.995-21.132-9.786-9.785-17.158-21.697-21.122-33.994 12.353 3.932 24.008 11.166 33.979 21.136z"/><path d="m496.138 15.871c-14.432-14.448-39.211-19.062-73.647-13.717-5.63.874-11.517 2.038-17.587 3.446l-139.778 15.75c-4.116.464-7.077 4.177-6.613 8.293.432 3.831 3.677 6.661 7.443 6.661.28 0 .564-.016.849-.048l71.764-8.086c-3.615 1.581-7.234 3.208-10.85 4.901-58.31 27.297-112.629 67.318-156.773 114.603l-1.308-21.709c-4.089-67.08-3.655-78.338 35.521-82.763l26.379-2.973c4.116-.464 7.077-4.177 6.613-8.293-.463-4.116-4.174-7.074-8.292-6.613l-26.381 2.974c-18.687 2.11-38.828 7.102-46.518 28.118-5.648 15.437-4.314 37.327-2.294 70.462l2.201 36.518c-15.19 17.715-28.955 36.305-40.985 55.519-2.198 3.511-1.134 8.139 2.377 10.337 3.51 2.2 8.139 1.135 10.337-2.376 12.116-19.35 26.053-38.047 41.467-55.821.063-.069.123-.139.184-.21 44.736-51.523 101.963-95.225 163.832-124.187 58.206-27.243 127.607-44.051 151.453-20.179 23.865 23.841 7.06 93.244-20.184 151.452-24.756 52.913-66.758 113.691-123.713 163.456-.361.26-2.933 2.544-3.904 3.374-37.148 31.748-80.483 58.745-129.409 75.923-18.378 6.455-26.312 5.683-43.512-11.916l-61.622-61.623c-17.53-17.134-18.303-25.068-11.855-43.454 5.58-15.888 12.404-31.704 20.284-47.011 1.896-3.683.447-8.205-3.236-10.101-3.682-1.896-8.205-.447-10.101 3.235-8.193 15.916-15.292 32.37-21.1 48.908-8.802 25.098-5.175 38.918 15.463 59.089l8.414 8.414-91.819 91.795c-12.298 12.336-12.298 32.408.008 44.751 5.964 5.965 13.912 9.25 22.38 9.25s16.416-3.285 22.381-9.25l91.782-91.812 8.353 8.354c13.491 13.804 24.128 20.018 37.154 20.018 6.516-.001 13.629-1.556 21.995-4.494 47.305-16.609 93.514-43.894 135.292-79.69l36.544 2.202c15.504.945 28.545 1.74 39.616 1.74 12.59 0 22.633-1.028 30.847-4.034 21.016-7.69 26.007-27.831 28.118-46.521l22.7-201.452c1.406-6.062 2.568-11.942 3.441-17.566 5.347-34.436.732-59.216-13.711-73.644zm-452.739 476.293c-3.131 3.131-7.313 4.855-11.773 4.855s-8.642-1.725-11.765-4.848c-6.477-6.496-6.477-17.066-.009-23.555l91.81-91.786 23.52 23.521zm425.405-185.313c-4.425 39.18-15.682 39.614-82.763 35.524l-21.729-1.31c3.75-3.504 7.465-7.07 11.13-10.713 42.994-42.739 78.781-93.248 103.493-146.065 1.694-3.619 3.322-7.241 4.904-10.858z"/></g></g></svg>