<svg id="Layer_1" enable-background="new 0 0 512 512" height="512" viewBox="0 0 512 512" width="512" xmlns="http://www.w3.org/2000/svg"><g><g><path clip-rule="evenodd" d="m467.451 294.261c18.709-55.192-22.054-135.075-113.698-135.075-25.03 0-46.262 5.953-63.525 15.733-33.25 128.64 34.81 189.19 177.223 119.342z" fill="#fbc7b8" fill-rule="evenodd"/></g><g><path clip-rule="evenodd" d="m290.228 174.919c-26.504-36.455-69.562-61.287-113.868-42.691-92.494-38.808-179.575 111.547-121.946 162.033l134.391 29.765 95.585-29.765h13.89c21.94-19.219 22.904-52.868 10.602-85.07-4.537-11.878-10.887-23.585-18.654-34.272z" fill="#ffeee6" fill-rule="evenodd"/></g><g><path clip-rule="evenodd" d="m422.89 232.634c-15.08-24.294-41.358-34.442-69.137-34.442-16.072 0-31.663 3.402-44.873 10.999-21.005 28.347-19.106 62.364-10.602 85.07h124.867c1.871-1.984 3.487-4.224 4.876-6.803 9.071-16.782 4.507-39.318-5.131-54.824z" fill="#e29d7b" fill-rule="evenodd"/></g><g><path clip-rule="evenodd" d="m464.9 339.362h-417.8v28.376c0 10.12 8.249 18.397 18.369 18.397h381.063c10.091 0 18.369-8.277 18.369-18.397v-28.376z" fill="#bed8fb" fill-rule="evenodd"/></g><g><path clip-rule="evenodd" d="m290.228 174.919c-25.795-35.462-67.266-59.955-110.296-44.108 5.698 2.041 11.254 4.677 16.583 7.824 13.153 7.71 25.03 18.482 34.923 30.87 1.417 1.786 2.806 3.6 4.139 5.414 7.597 10.46 13.833 21.856 18.34 33.45.113.283.198.539.312.822 12.302 32.203 11.31 65.851-10.602 85.07h40.762 13.89c21.94-19.219 22.904-52.868 10.602-85.07-4.536-11.878-10.886-23.585-18.653-34.272z" fill="#ffdfcf" fill-rule="evenodd"/></g><g><path clip-rule="evenodd" d="m467.451 294.261c18.709-55.192-22.054-135.075-113.698-135.075-5.471 0-10.772.283-15.902.822 80.419 8.646 115.37 82.377 97.796 134.253z" fill="#fbb49e" fill-rule="evenodd"/></g><g><path clip-rule="evenodd" d="m422.89 232.634c-15.08-24.294-41.358-34.442-69.137-34.442-5.357 0-10.687.368-15.902 1.162 21.657 3.288 41.074 13.692 53.235 33.28 9.638 15.506 14.202 38.042 5.131 54.824-1.389 2.58-3.005 4.819-4.876 6.803h31.805c1.871-1.984 3.487-4.224 4.876-6.803 9.07-16.782 4.506-39.318-5.132-54.824z" fill="#ce8b6b" fill-rule="evenodd"/></g><g><path clip-rule="evenodd" d="m284.389 294.261h-44.306-185.669-40.451c-3.572 0-6.463 2.891-6.463 6.435v21.119c0 15.166 12.387 27.554 27.553 27.554h12.047 417.8 12.019c15.165 0 27.581-12.388 27.581-27.554v-21.119c0-3.543-2.92-6.435-6.463-6.435h-30.586-44.306-124.866z" fill="#f9f7f8" fill-rule="evenodd"/></g><g><path clip-rule="evenodd" d="m425.3 349.368h-12.047v18.369c0 10.12-8.277 18.397-18.369 18.397h51.647c10.091 0 18.369-8.277 18.369-18.397v-18.369z" fill="#8eaadf" fill-rule="evenodd"/></g><g><path clip-rule="evenodd" d="m467.451 294.261h-21.061c3.543 0 6.463 2.891 6.463 6.435v.369 18.511 2.239c0 6.662-2.409 12.785-6.378 17.547-5.046 6.123-12.699 10.007-21.175 10.007h39.6 12.019c15.165 0 27.581-12.388 27.581-27.554v-21.119c0-3.543-2.92-6.435-6.463-6.435z" fill="#e5e4ed" fill-rule="evenodd"/></g><g><path d="m498.037 286.761h-20.799c5.995-27.981-.951-59.688-19.115-85.025-23.139-32.275-60.205-50.05-104.37-50.05-22.568 0-43.183 4.603-61.401 13.664-12.733-16.067-28.1-28.943-44.442-37.011-23.563-11.634-48.234-13.063-71.546-4.188-18.567-7.092-37.687-7.668-56.884-1.702-17.531 5.446-34.623 16.427-49.427 31.754-2.877 2.979-2.795 7.728.184 10.605 2.981 2.879 7.728 2.797 10.605-.185 11.568-11.976 40.046-36.259 76.002-30.316-15.865 11.5-23.873 28.402-24.35 51.227-.086 4.142 3.201 7.569 7.342 7.655.053.001.106.002.16.002 4.069 0 7.41-3.256 7.496-7.343.409-19.544 7.097-32.744 21.37-41.553v32.665c0 4.143 3.358 7.5 7.5 7.5s7.5-3.357 7.5-7.5v-32.658c14.253 8.81 20.933 22.009 21.342 41.546.085 4.088 3.426 7.343 7.496 7.343.053 0 .106-.001.16-.002 4.141-.086 7.428-3.514 7.342-7.655-.478-22.836-8.49-39.744-24.364-51.246 40.092-6.794 74.915 22.883 94.004 53.467 11.548 18.504 18.41 38.715 19.322 56.91.626 12.505-1.363 29.674-13.898 42.097h-237.83c-23.137-22.911-14.476-65.658 3.875-96.467 2.12-3.559.954-8.162-2.605-10.281-3.559-2.12-8.162-.952-10.281 2.605-12.144 20.387-19.22 42.679-19.927 62.771-.563 16.01 2.829 30.026 9.884 41.372h-24.419c-7.699-.001-13.963 6.25-13.963 13.934v21.119c0 9.357 3.664 18.168 10.317 24.809 6.621 6.608 15.384 10.245 24.674 10.245h.066l4.542-.003v10.872c0 14.28 11.604 25.897 25.869 25.897h381.063c14.264 0 25.869-11.617 25.869-25.897v-10.872l4.505.003c9.335.039 18.133-3.626 24.778-10.259 6.653-6.641 10.317-15.446 10.317-24.795v-21.119c0-7.684-6.264-13.935-13.963-13.935zm-195.472-106.948c-.441-.707-.902-1.396-1.353-2.094 15.6-7.319 33.23-11.033 52.541-11.033 39.198 0 71.935 15.552 92.179 43.79 16.431 22.92 22.317 51.66 15.907 76.285h-25.209c7.889-19.162 2.3-42.53-7.368-58.082-15.206-24.497-42.022-37.987-75.509-37.987-14.953 0-28.985 2.815-41.093 8.183-2.946-6.652-6.35-13.062-10.095-19.062zm15.485 33.088c10.339-4.725 22.545-7.209 35.703-7.209 28.106 0 50.397 10.973 62.768 30.901 7.849 12.628 12.731 32.815 4.897 47.309-.55 1.021-1.144 1.968-1.788 2.859h-105.259c12.927-20.719 12.063-48.179 3.679-73.86zm178.95 108.914c0 5.337-2.1 10.372-5.914 14.178-3.797 3.79-8.809 5.876-14.125 5.876-.012 0-.025 0-.038 0l-200.609-.113c-.001 0-.003 0-.004 0-4.14 0-7.498 3.355-7.5 7.496-.002 4.142 3.354 7.502 7.496 7.504l181.094.102v10.88c0 6.009-4.875 10.897-10.869 10.897h-381.062c-5.993 0-10.869-4.889-10.869-10.897v-10.883l187.076-.128c4.143-.003 7.498-3.363 7.495-7.505-.003-4.141-3.36-7.495-7.5-7.495-.002 0-.004 0-.006 0l-206.627.142c-.013 0-.025 0-.038 0-5.298 0-10.3-2.081-14.087-5.861-3.813-3.807-5.913-8.847-5.913-14.193v-20.054h452.4c.008 0 .016.002.024.002s.017-.002.025-.002h29.551z"/><path d="m346.78 246.753c4.142 0 7.5-3.372 7.5-7.515s-3.358-7.5-7.5-7.5-7.5 3.357-7.5 7.5v.028c0 4.144 3.358 7.487 7.5 7.487z"/><path d="m373.026 263.252c1.461 1.461 3.371 2.189 5.282 2.189 1.92 0 3.842-.736 5.31-2.204 2.929-2.929 2.915-7.691-.014-10.621-2.929-2.928-7.678-2.928-10.606 0-2.929 2.93-2.929 7.678 0 10.607z"/></g></g></svg>