<svg id="Layer_1" enable-background="new 0 0 512 512" height="512" viewBox="0 0 512 512" width="512" xmlns="http://www.w3.org/2000/svg"><g><g><path clip-rule="evenodd" d="m422.422 79.5-76.052-19.814-86.965 19.814v66.019c24.066-11.395 52.78-17.093 81.494-17.093 28.743 0 57.457 5.698 81.522 17.093v-66.019z" fill="#ecf4ff" fill-rule="evenodd"/></g><g><path clip-rule="evenodd" d="m385.374 79.5v43.597c13.067 2.863 25.568 7.002 37.048 12.444v-56.041h-24.944z" fill="#ddeafb" fill-rule="evenodd"/></g><g><path clip-rule="evenodd" d="m180.065 449.196-124.126 19.049v23.556c0 6.973 5.698 12.699 12.699 12.699h169.735 30.018c6.973 0 12.699-5.726 12.699-12.699v-23.556z" fill="#bed8fb" fill-rule="evenodd"/></g><g><path clip-rule="evenodd" d="m480.757 448.232-120.243-22.507-72.083 22.507v.964c0 10.46-8.56 19.049-19.02 19.049h-8.334v23.556c0 6.973-5.697 12.699-12.699 12.699h92.521 102.555c21.429 0 30.585-5.499 35.404-28.488 2.013-9.525 2.466-18.737 1.899-27.78z" fill="#ecf4ff" fill-rule="evenodd"/></g><g><path clip-rule="evenodd" d="m200.559 203.205c-3.855 17.376-2.835 37.474 4.564 60.236 10.46 7.795 25.681 154.489 20.636 166.706 25.596 0 36.226 18.085 82.685 18.085h172.314c-1.219-18.879-6.888-37.106-12.444-56.211-14.258-49.266-7.171-81.185 8.249-128.126 20.891-63.723-8.079-106.498-54.14-128.353-24.066-11.424-52.78-17.121-81.522-17.121-28.714 0-57.429 5.698-81.494 17.121-29.481 13.974-51.96 36.538-58.848 67.663z" fill="#bed8fb" fill-rule="evenodd"/></g><g><path clip-rule="evenodd" d="m405.755 244.449h-129.682c-3.713 0-6.746 3.033-6.746 6.746v33.506c0 3.713 3.033 6.746 6.746 6.746h129.682c3.713 0 6.746-3.033 6.746-6.746v-33.506c0-3.713-3.033-6.746-6.746-6.746z" fill="#a7e9a6" fill-rule="evenodd"/></g><g><path clip-rule="evenodd" d="m281.09 468.245h-38.153-8.305v23.556c0 5.386-3.43 10.035-8.192 11.849-1.389.539-2.92.85-4.507.85h16.441 30.018c6.973 0 12.699-5.726 12.699-12.699v-23.556z" fill="#8eaadf" fill-rule="evenodd"/></g><g><path clip-rule="evenodd" d="m422.422 161.989c10.601 11.48 18.255 25.2 21.798 41.216 3.883 17.49 2.835 37.729-4.705 60.69-15.42 46.942-22.507 78.86-8.22 128.126 5.527 19.106 11.225 37.332 12.415 56.211h37.048c-1.219-18.879-6.888-37.106-12.444-56.211-14.258-49.266-7.171-81.185 8.249-128.126 20.891-63.723-8.079-106.498-54.14-128.353-11.48-5.443-23.981-9.581-37.048-12.444-14.371-3.118-29.423-4.677-44.475-4.677-6.179 0-12.359.255-18.51.794 22.365 1.928 44.106 7.37 62.984 16.328 14.315 6.773 27.013 15.617 37.048 26.446z" fill="#8eaadf" fill-rule="evenodd"/></g><g><path clip-rule="evenodd" d="m441.839 476.012c-4.847 22.989-14.003 28.488-35.432 28.488h37.048c21.429 0 30.585-5.499 35.404-28.488 2.013-9.524 2.466-18.737 1.899-27.78h-37.048c.566 9.043.113 18.255-1.871 27.78z" fill="#ddeafb" fill-rule="evenodd"/></g><g><path clip-rule="evenodd" d="m405.755 244.449h-41.697c3.713 0 6.746 3.033 6.746 6.746v33.506c0 3.713-3.033 6.746-6.746 6.746h41.697c3.713 0 6.746-3.033 6.746-6.746v-33.506c0-3.713-3.033-6.746-6.746-6.746z" fill="#7fdbae" fill-rule="evenodd"/></g><g><path clip-rule="evenodd" d="m96.332 370.364c-24.689.312-56.805 25.143-45.835 59.783l118.003 19.049 111.257-19.049c14.003-33.959-11.962-54.34-36.651-54.624 11.026-31.38.992-46.517-16.866-58.649 10.318-19.191-3.316-40.167-21.118-53.433-8.901-6.661-18.85-11.367-27.354-12.983-4.904-.907-6.123-.68-5.584 4.394 7.456 67.947-93.256 31.833-75.852 115.512z" fill="#a7e9a6" fill-rule="evenodd"/></g><g><path clip-rule="evenodd" d="m203.479 430.147h-152.982-17.461c-2.438 0-4.45 2.013-4.45 4.479v14.57c0 10.46 8.56 19.049 19.02 19.049h8.334 145.697 79.453 8.305c10.488 0 19.048-8.589 19.048-19.049v-.964-13.606c0-2.466-2.013-4.479-4.479-4.479h-24.207z" fill="#f9f7f8" fill-rule="evenodd"/></g><g><path clip-rule="evenodd" d="m205.123 263.441c-8.901-6.661-18.85-11.367-27.354-12.983-4.904-.907-6.123-.68-5.584 4.394.879 7.852.283 14.287-1.389 19.701 10.941 12.416 16.752 27.865 8.986 42.321 8.277 5.613 14.882 11.906 18.481 20.154 4.138 9.524 4.309 21.685-1.616 38.495 6.831.085 13.776 1.701 19.927 4.734 16.072 7.88 26.843 25.342 16.724 49.89h24.207 22.251c14.003-33.959-11.962-54.34-36.651-54.624 11.026-31.38.992-46.517-16.866-58.649 10.32-19.19-3.315-40.167-21.116-53.433z" fill="#7fdbae" fill-rule="evenodd"/></g><g><path clip-rule="evenodd" d="m279.758 430.147h-22.251c2.466 0 4.479 2.013 4.479 4.479v13.606.964c0 10.46-8.589 19.049-19.048 19.049h38.153 8.305c10.488 0 19.048-8.589 19.048-19.049v-.964-13.606c0-2.466-2.013-4.479-4.479-4.479z" fill="#e5e4ed" fill-rule="evenodd"/></g><g><path clip-rule="evenodd" d="m434.526 7.5h-187.224c-7.03 0-12.756 5.726-12.756 12.756v46.488c0 7.03 5.726 12.756 12.756 12.756h12.104 163.017 12.104c7.03 0 12.756-5.726 12.756-12.756v-46.488c-.002-7.03-5.728-12.756-12.757-12.756z" fill="#365e7d" fill-rule="evenodd"/></g><g><path clip-rule="evenodd" d="m410.262 20.256v46.488c0 7.03-5.754 12.756-12.784 12.756h24.944 12.104c7.03 0 12.756-5.726 12.756-12.756v-46.488c0-7.03-5.726-12.756-12.756-12.756h-37.048c7.029 0 12.784 5.726 12.784 12.756z" fill="#2b4d66" fill-rule="evenodd"/></g><g><path d="m276.073 298.947h129.682c7.855 0 14.247-6.391 14.247-14.246v-33.506c0-7.855-6.392-14.246-14.247-14.246h-129.682c-7.855 0-14.246 6.391-14.246 14.246v33.506c-.001 7.856 6.39 14.246 14.246 14.246zm.753-46.998h128.175v31.998h-128.175z"/><path d="m401.389 323.944h-120.951c-4.143 0-7.5 3.357-7.5 7.5s3.357 7.5 7.5 7.5h120.951c4.143 0 7.5-3.357 7.5-7.5s-3.357-7.5-7.5-7.5z"/><path d="m377.012 363.941h-72.197c-4.143 0-7.5 3.357-7.5 7.5s3.357 7.5 7.5 7.5h72.197c4.143 0 7.5-3.357 7.5-7.5s-3.357-7.5-7.5-7.5z"/><path d="m475.518 389.936c-14.147-48.886-5.95-80.717 8.172-123.704 12.512-38.163 8.721-72.695-10.963-99.863-10.265-14.168-24.902-26.251-42.805-35.463v-43.906h4.604c11.169 0 20.256-9.087 20.256-20.256v-46.488c0-11.169-9.087-20.256-20.256-20.256h-187.224c-11.169 0-20.256 9.087-20.256 20.256v46.488c0 11.169 9.087 20.256 20.256 20.256h4.604v43.899c-17.856 9.189-32.465 21.232-42.725 35.352-16.514 22.727-21.886 50.624-15.882 81.488-4.911-2.229-9.735-3.822-14.165-4.656-3.104-.572-7.79-1.44-11.474 1.969-3.694 3.42-3.161 8.445-2.931 10.618 2.763 25.181-10.115 32.166-33.115 42.346-22.333 9.885-49.821 22.048-44.019 65.751-14.327 2.76-28.564 11.621-37.272 23.672-7.556 10.457-10.656 22.686-9.106 35.209h-8.182c-6.59 0-11.95 5.374-11.95 11.979v14.57c0 14.639 11.897 26.549 26.521 26.549h.834v16.056c0 11.136 9.06 20.198 20.198 20.198h199.753 175.063c26.228 0 37.413-9.015 42.743-34.444 6.23-29.612-1.337-55.568-9.349-83.049zm-228.216-317.936c-2.898 0-5.256-2.357-5.256-5.256v-46.488c0-2.898 2.357-5.256 5.256-5.256h187.224c2.898 0 5.256 2.357 5.256 5.256v46.488c0 2.898-2.357 5.256-5.256 5.256h-76.732c-4.143 0-7.5 3.357-7.5 7.5s3.357 7.5 7.5 7.5h57.129v37.163c-22.233-8.66-47.798-13.243-74.022-13.243-26.212 0-51.768 4.58-73.994 13.236v-37.156h57.894c4.143 0 7.5-3.357 7.5-7.5s-3.357-7.5-7.5-7.5zm-25.986 103.068c22.027-30.315 67.85-49.148 119.584-49.148 51.813 0 97.671 18.871 119.68 49.248 4.657 6.427 8.254 13.28 10.803 20.536h-260.942c2.561-7.294 6.184-14.18 10.875-20.636zm-14.555 35.636h268.305c2.275 15.443.41 32.434-5.628 50.85-14.994 45.642-23.675 79.526-8.327 132.555l1.337 4.598c4.16 14.268 8.189 28.095 10.003 42.026h-156.507v-6.106c0-6.604-5.373-11.979-11.979-11.979h-13.971c3.402-15.242-.823-26.417-5.524-33.526-6.827-10.327-18.42-17.581-31.552-20.113 3.171-12.524 3.041-23.25-.366-32.596-3-8.228-8.483-15.347-17.074-22.083 3.132-9.473 2.243-19.718-2.665-29.988-4.674-9.779-12.441-18.499-21.246-25.425-5.37-17.404-6.97-33.513-4.806-48.213zm-144.28 185.521c7.696-10.651 21.644-18.197 33.927-18.36h50.04c4.143 0 7.5-3.357 7.5-7.5s-3.357-7.5-7.5-7.5h-43.828c-4.918-33.412 12.86-41.303 35.066-51.132 19.638-8.691 43.873-19.418 42.322-53.025 14.05 4.108 32.083 17.062 39.271 32.102 3.891 8.14 4.01 15.715.355 22.516-.048.089-.085.18-.129.27-.036.074-.077.143-.111.218-4.685 10.477-20.504 20.422-50.853 16.899-4.104-.476-7.836 2.471-8.313 6.587-.477 4.114 2.472 7.837 6.587 8.313 5.003.58 9.641.844 13.946.844 27.018 0 40.783-10.421 47.454-18.699 10.56 9.023 15.291 20.155 9.43 40.267h-32.919c-4.143 0-7.5 3.357-7.5 7.5s3.357 7.5 7.5 7.5h38.295c11.897.136 23.256 5.776 28.936 14.369 4.592 6.945 5.441 15.604 2.527 25.255h-218.131c-2.078-11.757 2.007-20.721 6.128-26.424zm205.91 100.775h-199.753c-2.866 0-5.198-2.332-5.198-5.199v-16.056h85.87c4.143 0 7.5-3.357 7.5-7.5s-3.357-7.5-7.5-7.5h-101.704c-6.353 0-11.521-5.181-11.521-11.549v-11.549h14.412 229.26 21.187v11.549c0 6.368-5.181 11.549-11.549 11.549h-105.475c-4.143 0-7.5 3.357-7.5 7.5s3.357 7.5 7.5 7.5h89.67v16.056c0 2.818-2.381 5.199-5.199 5.199zm203.127-22.527c-4.07 19.421-10.265 22.527-28.064 22.527h-155.567c.444-1.662.703-3.399.703-5.199v-16.056h.805c12.384 0 22.813-8.524 25.733-20.013h158.322c-.017 6.174-.599 12.405-1.932 18.741z"/></g></g></svg>