<svg id="Layer_1" enable-background="new 0 0 512 512" height="512" viewBox="0 0 512 512" width="512" xmlns="http://www.w3.org/2000/svg"><g><g><path clip-rule="evenodd" d="m149.743 117.495c-14.598 2.466-7.625 18.028-10.488 37.106-4.876 32.173-66.076 3.77-64.403 72.369.198 8.929-4.422 18.68-18.709 20.835l-13.776 2.069c-13.72 2.069-16.299 6.633-16.299 25.597v28.262c121.663 0 250.612 40.649 253.078 40.649 2.976 0 178.13-66.416 199.673-74.948v-12.984c0-37.673-10.772-69.477-28.432-93.175-38.523-51.732-109.758-65.084-173.254-17.405l-26.192 19.672c-30.161 28.12-51.194-3.77-71.235-24.18-9.1-9.269-16.328-26.191-29.963-23.867z" fill="#fbc7b8" fill-rule="evenodd"/></g><g><path clip-rule="evenodd" d="m450.386 163.275c-38.523-51.732-109.758-65.084-173.254-17.405l-8.816 6.633c56.892-29.14 115.966-13.323 149.811 32.117 14.457 19.417 24.293 44.221 27.411 73.247 1.474-.142 2.976-.227 4.507-.227 11.197 0 21.373 4.479 28.772 11.792v-12.982c.001-37.673-10.771-69.478-28.431-93.175z" fill="#fbb49e" fill-rule="evenodd"/></g><g><path clip-rule="evenodd" d="m221.318 259.681c-.255-7.597-1.786-15.109-4.507-22.309-1.984-5.244-2.976-5.726-8.306-3.969-17.121 5.669-31.663 17.49-39.685 34.328-1.729 3.6-3.061 7.257-4.082 10.97-2.211 8.221-2.75 16.696-1.729 25.03h11.509 18.935 12.614c3.515-4.139 6.576-8.787 9.014-13.89 4.593-9.665 6.605-19.955 6.237-30.16z" fill="#4fc9af" fill-rule="evenodd"/></g><g><path clip-rule="evenodd" d="m478.818 269.432c-7.398-7.313-17.575-11.792-28.772-11.792-11.424 0-21.742 4.649-29.169 12.189-7.313 7.398-11.849 17.575-11.849 28.8 0 1.389.085 2.75.198 4.11.057.34.085.68.113.992h81.383c.227-1.672.312-3.373.312-5.102.001-11.423-4.676-21.77-12.216-29.197z" fill="#f37c7c" fill-rule="evenodd"/></g><g><path clip-rule="evenodd" d="m124.911 303.732h-98.844-12.104c-3.572 0-6.463 2.92-6.463 6.463v21.118c0 15.137 12.387 27.553 27.553 27.553h12.047 417.8 12.019c15.165 0 27.581-12.416 27.581-27.553v-21.118c0-3.543-2.92-6.463-6.463-6.463h-7.313-81.383-75.317-59.188-68.769-12.614-18.935-11.509z" fill="#f9f7f8" fill-rule="evenodd"/></g><g><path clip-rule="evenodd" d="m464.9 358.866h-417.8v18.369c0 10.12 8.249 18.369 18.369 18.369h381.063c10.091 0 18.369-8.249 18.369-18.369v-18.369z" fill="#bed8fb" fill-rule="evenodd"/></g><g><path clip-rule="evenodd" d="m159.069 271.643c-11.679-12.444-27.61-18.737-44.107-18.907-5.131-.057-5.868.624-6.151 5.754-.85 16.469 4.394 32.797 16.072 45.213 0 .028.028.028.028.028h38.098c-1.02-8.334-.482-16.809 1.729-25.03-1.672-2.465-3.571-4.818-5.669-7.058z" fill="#a7e9a6" fill-rule="evenodd"/></g><g><path clip-rule="evenodd" d="m286.515 233.744c-17.008 1.758-31.493 11.622-39.147 26.079 15.449 7.002 17.632 27.61 27.468 43.909h59.188 75.317c-.028-.34-.057-.652-.113-.992-.113-1.361-.198-2.721-.198-4.11 0-11.225 4.535-21.402 11.849-28.8-5.443-19.814-22.422-33.959-43.115-36.085-.028-31.039-22.819-47.084-45.61-47.169-22.82.085-45.611 16.129-45.639 47.168z" fill="#a7e9a6" fill-rule="evenodd"/></g><g><path clip-rule="evenodd" d="m200.54 237.372c2.693 7.2 4.252 14.712 4.507 22.309.113 3.515-.028 7.058-.482 10.573-.85 6.661-2.75 13.266-5.783 19.587-1.616 3.373-3.515 6.576-5.613 9.553-1.077 1.502-2.211 2.948-3.373 4.337h3.657 12.614c3.515-4.139 6.576-8.787 9.014-13.89 4.592-9.666 6.605-19.956 6.236-30.161-.255-7.597-1.786-15.109-4.507-22.309-1.984-5.244-2.976-5.726-8.306-3.969-2.806.935-5.556 2.041-8.221 3.288.087.229.172.456.257.682z" fill="#26bb9e" fill-rule="evenodd"/></g><g><path clip-rule="evenodd" d="m234.159 257.64c-4.479 0-8.787.709-12.841 2.041.368 10.205-1.644 20.495-6.236 30.161-2.438 5.102-5.499 9.751-9.014 13.89h68.769c.227-1.672.312-3.373.312-5.102 0-18-11.622-33.307-27.78-38.806-4.139-1.418-8.59-2.184-13.21-2.184z" fill="#f37c7c" fill-rule="evenodd"/></g><g><path clip-rule="evenodd" d="m247.368 259.823c-4.139-1.417-8.589-2.183-13.209-2.183-4.479 0-8.787.709-12.841 2.041.113 3.231 0 6.491-.368 9.751h.283c4.62 0 9.071.765 13.209 2.154 2.75.935 5.357 2.154 7.824 3.628 10.148 6.066 17.433 16.413 19.417 28.517h13.153c.227-1.672.312-3.373.312-5.102 0-18-11.622-33.307-27.78-38.806z" fill="#ee6161" fill-rule="evenodd"/></g><g><path clip-rule="evenodd" d="m332.153 186.575c-6.123.028-12.246 1.191-17.915 3.487 24.123 6.605 42.406 38.353 42.406 76.536v1.162c-.142 13.011-2.381 25.257-6.265 35.972h58.961c-.028-.34-.057-.652-.113-.992-.113-1.361-.198-2.721-.198-4.11 0-11.225 4.535-21.402 11.849-28.8-5.443-19.814-22.422-33.959-43.115-36.085-.029-31.04-22.819-47.084-45.61-47.17z" fill="#7fdbae" fill-rule="evenodd"/></g><g><path clip-rule="evenodd" d="m450.046 257.64c-1.531 0-3.033.085-4.507.227-9.609 1.049-18.227 5.443-24.661 11.962-.368.34-.709.709-1.049 1.077.425-.085.85-.17 1.247-.255 2.409-.425 4.876-.652 7.427-.652 11.197 0 21.373 4.479 28.772 11.764 5.896 5.839 10.063 13.465 11.594 21.969h21.855c.227-1.672.312-3.373.312-5.102 0-11.424-4.677-21.77-12.217-29.197-7.399-7.314-17.576-11.793-28.773-11.793z" fill="#ee6161" fill-rule="evenodd"/></g><g><path clip-rule="evenodd" d="m159.069 271.643c-11.679-12.444-27.61-18.737-44.107-18.907-5.131-.057-5.868.624-6.151 5.754-.227 4.365-.028 8.759.624 13.039.879-.34 2.154-.425 4.025-.397 16.498.17 32.428 6.463 44.107 18.907 1.814 1.928 3.458 3.94 4.932 6.009-.028-5.811.709-11.65 2.239-17.348-1.672-2.464-3.571-4.817-5.669-7.057z" fill="#7fdbae" fill-rule="evenodd"/></g><g><path clip-rule="evenodd" d="m450.018 310.195v21.118c0 2.891-.454 5.669-1.304 8.306-3.543 11.112-14.003 19.247-26.249 19.247h42.435 12.019c15.165 0 27.581-12.416 27.581-27.553v-21.118c0-3.543-2.92-6.463-6.463-6.463h-7.313-21.855-25.314c3.543 0 6.463 2.919 6.463 6.463z" fill="#e5e4ed" fill-rule="evenodd"/></g><g><path clip-rule="evenodd" d="m422.465 358.866h-12.047v18.369c0 10.12-8.277 18.369-18.369 18.369h54.482c10.091 0 18.369-8.249 18.369-18.369v-18.369z" fill="#8eaadf" fill-rule="evenodd"/></g><g><path d="m498.475 296.254c-.552-11.386-5.055-21.747-12.156-29.755v-10.049c0-32.399-7.814-62.271-22.611-86.731 4.505-.8 8.739-2.039 12.626-3.704 7.39 4.723 16.699 7.794 27.788 7.793.143 0 .29 0 .433-.001 4.143-.03 7.476-3.412 7.446-7.554-.029-4.124-3.382-7.446-7.499-7.446-.116-.001-.241.001-.363.001-5.007 0-9.505-.878-13.453-2.359 2.758-2.771 5.076-5.904 6.887-9.367 5.207-9.957 5.107-20.788-.261-28.267-4.521-6.297-12.082-9.168-20.799-7.905-12.736.903-20.992 9.93-20.579 22.566.215 6.589 2.916 14.142 7.931 20.915-3.07.736-6.369 1.185-9.855 1.334-14.865-18.824-33.995-32.649-55.957-40.271-3.917-1.358-8.187.714-9.545 4.627-1.357 3.913.714 8.187 4.627 9.545 20.426 7.088 37.558 19.908 50.541 36.986.406.814.956 1.541 1.616 2.154 16.44 22.685 25.755 52.506 26.006 86.29-6.421-3.144-13.632-4.916-21.251-4.916-9.497 0-18.358 2.752-25.848 7.485-7.64-15.471-21.961-26.628-39.241-30.328-3.027-31.572-28.056-48.129-52.832-48.221-24.739.092-49.779 16.653-52.806 48.229-14.554 3.144-27.235 11.662-35.453 23.812-3.137-.64-6.384-.977-9.707-.977-2.076 0-4.137.136-6.176.394-.819-5.31-2.191-10.606-4.158-15.815-3.409-9.007-8.526-11.453-17.678-8.435-19.698 6.523-35.28 19.974-43.926 37.883-12.471-12.045-29.094-18.743-47.177-18.931-9.144-.087-13.22 3.74-13.725 12.868-.71 13.745 2.382 26.849 8.806 38.128h-76.559v-20.762c0-16.685 1.321-16.884 9.913-18.18l13.78-2.07c18.9-2.85 25.353-16.548 25.089-28.434-.862-35.362 15.158-39.994 33.709-45.358 13.097-3.787 27.94-8.08 30.613-25.715.995-6.634.913-12.645.841-17.947-.167-12.26.605-12.391 3.491-12.878 5.126-.883 9.344 4.117 15.667 12.44 2.416 3.18 4.914 6.469 7.683 9.289 2.512 2.558 5.027 5.288 7.69 8.179 12.356 13.415 26.362 28.62 44.186 29.298 9.966.385 19.907-3.922 29.524-12.787l25.883-19.44c25.019-18.79 52.524-28.449 79.459-27.95.049.001.096.001.144.001 4.076 0 7.419-3.267 7.496-7.359.077-4.142-3.218-7.562-7.358-7.64-.766-.014-1.529-.021-2.294-.021-29.592 0-59.435 10.683-86.454 30.976l-26.192 19.673c-.213.159-.416.33-.61.512-6.777 6.317-12.98 9.255-19.026 9.049-11.588-.441-22.841-12.657-33.724-24.472-2.625-2.851-5.34-5.798-8.019-8.525-2.103-2.142-4.211-4.917-6.442-7.854-6.979-9.187-15.668-20.611-30.122-18.155-16.322 2.759-16.124 17.273-15.979 27.872.067 4.961.138 10.091-.675 15.505-1.126 7.43-6.365 9.614-19.948 13.542-19.279 5.575-45.682 13.21-44.538 60.117.167 7.535-3.98 11.994-12.325 13.252l-13.78 2.07c-19.287 2.909-22.681 12.963-22.681 33.013v20.762h-4.604c-7.7-.003-13.964 6.261-13.964 13.96v21.118c0 19.328 15.725 35.053 35.052 35.053l4.549.001v10.868c0 14.265 11.604 25.869 25.868 25.869h381.063c14.264 0 25.868-11.604 25.868-25.869v-10.868l4.52-.001c19.344 0 35.081-15.725 35.081-35.053v-21.118c-.001-7.552-6.03-13.707-13.526-13.941zm-20.724-170.393c.245-.015.489-.04.731-.078.731-.116 1.413-.173 2.043-.173 2.124 0 3.667.653 4.6 1.952 1.596 2.223 2.012 7.104-.846 12.569-1.547 2.958-3.734 5.553-6.457 7.734-4.368-4.74-6.747-10.251-6.897-14.88-.154-4.705 1.888-6.836 6.826-7.124zm5.689 170.371h-66.815c1.236-17.35 15.748-31.092 33.421-31.092 17.659 0 32.159 13.742 33.394 31.092zm-196.154-55.028c3.82-.395 6.725-3.612 6.729-7.453.024-27.162 19.802-39.606 38.11-39.675 18.352.068 38.113 12.513 38.138 39.675.004 3.843 2.911 7.062 6.734 7.454 16.323 1.674 29.831 12.067 35.405 26.879-6.32 7.765-10.291 17.51-10.812 28.149h-61.937v-10.143l24.565-14.026c3.598-2.054 4.849-6.635 2.794-10.231-2.053-3.597-6.635-4.847-10.231-2.794l-17.128 9.78v-18.971c0-4.143-3.357-7.5-7.5-7.5s-7.5 3.357-7.5 7.5v18.977l-17.159-9.788c-3.599-2.053-8.178-.8-10.23 2.799-2.053 3.598-.8 8.178 2.799 10.23l24.591 14.027v10.141h-42.066c-.827-16.901-10.353-31.544-24.179-39.565 7.003-8.643 17.336-14.272 28.877-15.465zm-19.733 55.028h-47.322c.564-1.043 1.11-2.095 1.621-3.164 4.148-8.707 6.446-18.016 6.917-27.499 1.77-.284 3.571-.428 5.39-.428 17.659-.001 32.16 13.741 33.394 31.091zm-57.475-55.443c5.603 15.416 4.982 31.66-1.763 45.819-1.617 3.383-3.587 6.605-5.86 9.624h-32.429c-.083-8.77 1.8-17.396 5.564-25.274 6.73-14.126 18.96-24.815 34.488-30.169zm-93.834 19.476c14.567.484 27.789 6.317 37.352 16.505 1.092 1.167 2.109 2.366 3.059 3.584-1.119 5.194-1.667 10.515-1.627 15.878h-26.734c-8.196-9.848-12.439-22.465-12.05-35.967zm380.756 71.048c0 11.057-9.009 20.053-20.082 20.053l-202.083.028c-4.143.001-7.5 3.359-7.499 7.501.001 4.143 3.359 7.5 7.501 7.499l182.563-.026v10.865c0 5.993-4.875 10.869-10.868 10.869h-381.063c-5.993 0-10.868-4.876-10.868-10.869v-10.865l185.596.026h.001c4.142 0 7.499-3.357 7.5-7.499.001-4.143-3.356-7.5-7.499-7.501l-205.146-.028c-11.058 0-20.053-8.996-20.053-20.053v-20.081h482z"/><path d="m113.203 208.67c-4.13 0-7.485 3.342-7.499 7.476l-.028 8.589c-.014 4.142 3.333 7.511 7.476 7.524h.025c4.13 0 7.485-3.342 7.499-7.476l.028-8.589c.014-4.142-3.333-7.511-7.476-7.524-.007 0-.016 0-.025 0z"/></g></g></svg>