<svg id="Layer_1" enable-background="new 0 0 511.996 511.996" height="512" viewBox="0 0 511.996 511.996" width="512" xmlns="http://www.w3.org/2000/svg"><g><g><path clip-rule="evenodd" d="m472.793 43.598-71.017 125.955c-6.109 7.483-17.991 14.193-25.566 14.193-5.337 0-11.335-10-9.211-17.633l76.067-143.33 27.862 14.766c2.181 1.147 3.07 3.899 1.865 6.049z" fill="#e29d7b" fill-rule="evenodd"/></g><g><path clip-rule="evenodd" d="m443.066 22.783-76.067 143.33c-1.808.946-19.07 26.275-20.677 27.537-5.423-4.358-2.171-13.376-9.688-13.376-3.386 0-1.226-17.286-4.296-16.311l12.051-24.113 64.761-129.97c1.09-2.208 3.874-3.011 6.054-1.864z" fill="#e29d7b" fill-rule="evenodd"/></g><g><path clip-rule="evenodd" d="m312.366 182.799c-14.146-12.931-32.969-20.844-53.657-20.844-7.747 0-15.437 1.118-22.869 3.355-8.608 2.58-16.585 6.566-23.701 11.727 11.564 6.681 20.172 17.776 23.529 31.338 18.278-9.892 49.583 14.479 63.299 32.284h27.977 11.219c-.029-5.018-.545-9.949-1.492-14.709-2.525-12.788-8.092-24.457-15.954-34.234-1.148-1.405-2.324-2.781-3.558-4.129-1.522-1.662-3.129-3.239-4.793-4.788z" fill="#f37c7c" fill-rule="evenodd"/></g><g><path clip-rule="evenodd" d="m287.402 213.163c-7.26-7.397-17.36-12.013-28.694-12.013-8.579 0-16.556 2.609-23.041 7.225-.057.057-6.714 40.026-8.809 44.212l72.108-11.927c-.086-3.813-.689-7.512-1.75-10.981-1.894-6.309-5.309-11.929-9.814-16.516z" fill="#ffd772" fill-rule="evenodd"/></g><g><path clip-rule="evenodd" d="m65.025 187.215c.143-.143.258-.287.402-.43-.144.143-.258.287-.402.43zm40.143-43.38c-16.815-10.637-42.725-15.569-71.821-4.387-4.189 1.606-9.67 2.58-2.009 8.516 13.974 10.809 25.164 24.543 33.687 39.252.143-.143.258-.287.402-.43 8.493-9.433 31.334-7.455 43.93-8.745l5.021-8.63c.029-10.552-13.514-18.466-9.21-25.576z" fill="#4fc9af" fill-rule="evenodd"/></g><g><path clip-rule="evenodd" d="m257.503 95.494c-13.056-1.577-55.436 15.511-74.403 46.219 5.107 7.455-.029 28.156 0 39.768 7.518.774 22.84-8.057 29.038-4.444 9.039-6.566 19.54-11.268 30.903-13.533 9.612-15.798 16.642-33.173 22.783-54.362 3.645-12.587-4.16-13.132-8.321-13.648z" fill="#4fc9af" fill-rule="evenodd"/></g><g><path clip-rule="evenodd" d="m361.892 169.438c-5.423-4.358-12.338-6.967-19.856-6.967-1.119 0-2.238.057-3.328.172-12.08 1.262-22.123 9.261-26.341 20.156 16.269 14.909 9.153 47.681 9.354 69.787l49.956-2.752 28.091-9.175c14.089 0 16.241-7.512 24.103-15.425 4.792-4.788 3.156-20.586 8.809-23.826-4.39-7.111-11.535-12.386-19.942-14.307-.717-3.24-1.951-6.279-3.615-9.06-5.538-9.318-15.724-15.569-27.345-15.569-1.09 0-2.181.057-3.214.172-6.285.63-11.995 3.067-16.672 6.794z" fill="#a7e9a6" fill-rule="evenodd"/></g><g><path clip-rule="evenodd" d="m432.679 201.407c-5.653 3.24-10.932 7.254-15.724 12.071-7.862 7.885-13.572 17.174-17.188 27.181l33.801 11.927 33.17-11.927c.918-.315 1.922.086 2.869.229 7.633-12.673 11.219-27.267 10.875-42.119-.172-6.422-1.062-7.311-7.489-7.426-14.174-.257-28.09 3.097-40.314 10.064z" fill="#4fc9af" fill-rule="evenodd"/></g><g><path clip-rule="evenodd" d="m451.388 336.308-184.617-19.898-194.171 19.898c17.475 54.935 58.191 99.52 110.643 122.17l86.885 23.023 70.644-23.023c52.424-22.651 93.17-67.235 110.616-122.17z" fill="#fbc7b8" fill-rule="evenodd"/></g><g><path clip-rule="evenodd" d="m340.773 458.478h-157.529v40.542c0 3.011 2.468 5.476 5.481 5.476h146.539c3.042 0 5.509-2.466 5.509-5.476z" fill="#f37c7c" fill-rule="evenodd"/></g><g><path clip-rule="evenodd" d="m342.035 162.471c-1.119 0-2.238.057-3.328.172-12.08 1.262-22.123 9.261-26.341 20.156 1.033.946 2.009 1.921 2.984 2.896 12.482-7.34 31.936-8.659 44.217 4.874 4.648-3.727 10.387-6.193 16.642-6.824 1.062-.086-3.156-.143 3.214-.143 11.391 0 20.114 11.497 19.569 22.335 5.567 1.262 13.744 3.985 17.762 7.741.057-.057.143-.143.201-.201 4.792-4.817 10.072-8.831 15.724-12.071-4.39-7.111-11.535-12.386-19.942-14.307-.717-3.24-1.951-6.279-3.615-9.06-5.538-9.318-15.724-15.569-27.345-15.569-1.09 0-2.181.057-3.214.172-6.284.631-11.994 3.068-16.671 6.795-5.424-4.357-12.339-6.966-19.857-6.966z" fill="#7fdbae" fill-rule="evenodd"/></g><g><path clip-rule="evenodd" d="m457.184 199.142c.287 14.422-2.238 28.672-7.604 41.517h17.159c.976 0 1.922.086 2.869.229 7.633-12.673 11.219-27.267 10.875-42.119-.172-6.422-1.062-7.311-7.489-7.426-5.653-.086-11.277.373-16.757 1.434.688 1.262.861 3.24.947 6.365z" fill="#26bb9e" fill-rule="evenodd"/></g><g><path clip-rule="evenodd" d="m257.503 95.494c-1.808-.229-4.189-.086-6.973.401 0 1.606-.258 3.527-.947 5.906-6.14 21.16-13.17 38.535-22.783 54.362-3.644.717-35.437 14.164-35.437 14.164 7.518.774 14.576 3.097 20.774 6.709 9.039-6.566 19.54-11.268 30.903-13.533 9.612-15.798 16.642-33.173 22.783-54.362 3.646-12.586-4.159-13.131-8.32-13.647z" fill="#26bb9e" fill-rule="evenodd"/></g><g><path clip-rule="evenodd" d="m65.025 187.215c.143-.143.258-.287.402-.43-.144.143-.258.287-.402.43zm40.143-43.38c-4.907-3.097-10.617-5.734-16.929-7.598-3.242 6.508-5.108 14.25-5.136 23.253-10.846 1.118-20.688 5.448-28.436 12.157 3.816 4.989 7.26 10.207 10.358 15.569l.402-.43c8.264-9.118 19.827-15.11 32.854-16.458 0-10.523 2.583-19.383 6.887-26.493z" fill="#26bb9e" fill-rule="evenodd"/></g><g><path clip-rule="evenodd" d="m312.366 182.799c-14.146-12.931-32.969-20.844-53.657-20.844-7.747 0-15.437 1.118-22.869 3.355-8.608 2.58-16.585 6.566-23.701 11.727.402.229.803.459 1.205.717.545-.172 1.119-.344 1.664-.516 7.432-2.236 15.122-3.355 22.869-3.355 20.688 0 39.511 7.913 53.657 20.844 1.664 1.548 3.271 3.125 4.821 4.788 1.205 1.348 2.382 2.724 3.529 4.129 7.862 9.777 13.429 21.446 15.954 34.234.172.917.344 1.864.488 2.781h10.617 11.219c-.029-5.018-.545-9.949-1.492-14.709-2.525-12.788-8.092-24.457-15.954-34.234-1.148-1.405-2.324-2.781-3.558-4.129-1.521-1.662-3.128-3.239-4.792-4.788z" fill="#ee6161" fill-rule="evenodd"/></g><g><path clip-rule="evenodd" d="m340.773 458.478h-47.431v13.762 26.779c0 3.011-2.468 5.476-5.48 5.476h47.402c3.042 0 5.509-2.466 5.509-5.476z" fill="#ee6161" fill-rule="evenodd"/></g><g><path clip-rule="evenodd" d="m403.957 336.308c-17.446 54.935-58.162 99.52-110.615 122.17h47.431c52.424-22.651 93.169-67.235 110.615-122.17z" fill="#fbb49e" fill-rule="evenodd"/></g><g><path clip-rule="evenodd" d="m63.332 276.183c0 20.959 3.242 41.144 9.268 60.125h378.787c6.026-18.981 9.268-39.166 9.268-60.125l-196.524-13.16z" fill="#f37c7c" fill-rule="evenodd"/></g><g><path clip-rule="evenodd" d="m460.656 276.183c-14.863 0-29.755 0-44.619 0h-2.783v.344c-.057 20.844-3.3 40.915-9.297 59.781h47.431c6.025-18.981 9.268-39.166 9.268-60.125z" fill="#ee6161" fill-rule="evenodd"/></g><g><path clip-rule="evenodd" d="m144.823 122.245c-15.523.057-31.018 7.34-39.655 21.59-4.304 7.111-6.887 15.97-6.887 26.493-13.228 1.376-24.964 7.512-33.256 16.888-7.833 8.888-12.597 23.855-12.597 33.919s-1.836 18.178 4.821 19.525l90.299 18.235 84.819-18.235c3.042-6.078 4.821-12.702 4.821-19.525 0-4.444-.516-8.716-1.521-12.759-3.357-13.562-11.965-24.658-23.529-31.338-6.198-3.613-13.257-5.935-20.774-6.709 0-11.612-3.156-21.16-8.264-28.614-8.837-12.847-23.557-19.413-38.277-19.47z" fill="#a7e9a6" fill-rule="evenodd"/></g><g><path clip-rule="evenodd" d="m228.609 192.404c0-.029-.029-.029-.029-.029-2.955-4.358-6.198-7.713-9.039-10.121-.029-.029-.029-.029-.057-.057 3.472 2.954 6.542 6.394 9.125 10.207zm-15.179-14.593c-.086-.057-.172-.115-.258-.172.085.057.172.114.258.172zm-1.292-.775c.344.201.689.401 1.033.602-.631-.372-.975-.573-1.033-.602zm-29.038-35.323c-8.838-12.845-23.558-19.411-38.278-19.468-11.334.029-22.668 3.957-31.334 11.612 3.242-.688 6.571-1.004 9.871-1.032 14.72.057 29.44 6.623 38.278 19.468 5.108 7.455 8.264 17.002 8.264 28.643 7.546.745 14.576 3.068 20.774 6.681.029.172 17.991 8.888 23.529 31.338 1.836 7.397 2.066 14.623.516 21.704h3.73 11.334 2.582c.287-.545.545-1.118.803-1.663 2.611-5.792 3.931-11.669 4.017-17.662 0-.057 0-.143 0-.201.057-2.494-.115-5.018-.488-7.569-.172-1.061-.344-2.15-.574-3.24-.115-.545-.23-1.061-.373-1.606 0-.029 0-.057-.029-.086 0-.086-.029-.172-.057-.258-1.349-5.505-3.587-10.609-6.542-15.196-.172-.258-.344-.516-.516-.774-2.582-3.813-5.653-7.254-9.125-10.207 0 0-.029 0-.029-.029-.23-.201-.459-.373-.689-.573 0 0 0 0-.029 0 0 0 0 0 0-.029-2.238-1.806-4.103-3.039-5.308-3.756-.43-.258-.861-.516-1.291-.774-6.198-3.613-13.257-5.935-20.774-6.709 0-11.583-3.128-21.131-8.264-28.586.057.057.086.115.143.201-.055-.086-.112-.172-.141-.229z" fill="#7fdbae" fill-rule="evenodd"/></g><g><path clip-rule="evenodd" d="m57.249 240.659c-9.756 0-17.761 7.999-17.761 17.748 0 9.777 8.006 17.776 17.761 17.776h6.083 397.323 6.083c9.785 0 17.761-7.999 17.761-17.776 0-8.774-6.485-16.113-14.892-17.518-.947-.143-1.894-.229-2.869-.229-136.496-.001-272.992-.001-409.489-.001z" fill="#365e7d" fill-rule="evenodd"/></g><g><path clip-rule="evenodd" d="m419.308 276.183h41.348 6.083c9.785 0 17.761-7.999 17.761-17.776 0-8.774-6.485-16.113-14.892-17.518-.947-.143-1.894-.229-2.869-.229h-47.374c.947 0 1.894.086 2.812.229 8.436 1.405 14.892 8.745 14.892 17.518 0 9.777-7.977 17.776-17.761 17.776z" fill="#2b4d66" fill-rule="evenodd"/></g><path d="m480.138 237.018c5.46-11.77 8.157-24.889 7.843-38.423 0-.009 0-.019-.001-.027-.279-10.41-4.444-14.538-14.851-14.724-13.622-.242-26.634 2.54-38.285 8.009-4.371-4.853-9.91-8.588-16.053-10.785-1.708-4.863-4.316-9.227-7.602-12.939l68.147-120.865c1.565-2.794 1.923-6.037 1.006-9.133-.916-3.093-3.075-5.725-5.901-7.211l-55.746-29.542c-2.857-1.503-6.261-1.791-9.334-.792-3.061.994-5.524 3.116-6.922 5.949l-75.532 151.509c-6.682 2.81-12.533 7.425-16.801 13.333-14.428-10.625-32.215-16.922-51.396-16.922-.712 0-1.42.024-2.129.041 6.271-12.5 11.609-26.57 16.448-43.269 1.984-6.854 1.604-12.22-1.162-16.403-3.697-5.592-10.034-6.359-13.079-6.729l-.386-.048c-15.206-1.831-53.922 13.963-75.87 41.507-10.223-9.735-24.014-14.759-37.738-14.81-15.64.058-31.394 6.592-41.819 19.236-21.043-10.642-46.982-11.273-72.312-1.536-.372.143-.756.278-1.139.415-2.962 1.057-8.478 3.024-9.41 8.87-.998 6.252 4.544 10.546 6.63 12.162l.004.004c11.153 8.626 20.927 19.605 29.118 32.668-6.934 9.636-10.939 21.545-10.939 34.569 0 4.732.723 9.473 2.146 14.172-8.875 3.92-15.087 12.797-15.087 23.102 0 13.508 10.645 24.574 23.981 25.244 2.797 77.609 49.028 147.078 119.775 179.671v35.698c0 7.155 5.823 12.977 12.98 12.977h146.54c7.173 0 13.009-5.821 13.009-12.977v-35.698c70.73-32.586 116.951-102.055 119.747-179.671 13.336-.67 23.981-11.736 23.981-25.244.001-9.003-4.743-16.917-11.861-21.388zm-7.277-38.175c.041.001.082.001.122.002.001.037.002.075.003.114.28 12.178-2.355 23.908-7.65 34.2h-53.938c2.945-5.27 6.582-10.086 10.879-14.396 13.107-13.197 31.072-20.273 50.584-19.92zm-8.185-156.119-65.545 116.25c-2.59-1.265-5.329-2.268-8.193-2.943-3.905-.856-7.146-1.066-9.537-1.055l64.776-122.056zm-50.244-26.628 18.491 9.8-71.288 134.324c-5.027-2.892-10.673-4.645-16.488-5.11-.003-.005-.007-.01-.01-.015zm-72.397 153.876c5.512 0 10.895 1.887 15.158 5.313 2.737 2.2 6.637 2.207 9.381.013 4.358-3.483 9.615-5.325 15.202-5.325 11.222 0 21.167 7.904 23.648 18.795.64 2.81 2.833 5.004 5.642 5.646 3.865.883 7.453 2.737 10.436 5.318-3.482 2.536-6.78 5.353-9.859 8.452-7.199 7.22-12.873 15.609-16.944 24.977h-49.441c-1.893-19.979-10.62-38.026-23.803-51.788 4.389-6.957 12.17-11.401 20.58-11.401zm-83.326-.517c36.78 0 67.383 27.95 71.483 63.704h-24.465c-.336-1.915-.767-3.803-1.328-5.638-2.194-7.308-6.221-14.09-11.643-19.611-9.025-9.196-21.116-14.261-34.047-14.261-6.602 0-12.97 1.306-18.816 3.81-3.291-7.677-8.155-14.464-14.266-19.959 10.157-5.282 21.416-8.045 33.082-8.045zm-14.692 42.626c4.458-2.25 9.456-3.432 14.692-3.432 8.871 0 17.16 3.469 23.343 9.769 3.725 3.793 6.484 8.432 7.992 13.454.13.424.233.857.345 1.287h-47.241c1.017-3.978 1.541-7.995 1.541-12.025-.001-3.087-.237-6.107-.672-9.053zm12.562-109.145.405.05c.612.074 1.621.196 2.283.364.01.601-.083 1.762-.646 3.703-5.809 20.047-12.313 35.976-20.357 49.812-9.397 2.26-18.343 6.101-26.56 11.403-4.111-1.936-8.505-3.431-13.142-4.403-.793-8.383-3.122-15.717-6.564-21.996 18.718-26.259 55.287-40.054 64.581-38.933zm-150.798 67.398c.025-27.788 20.27-40.52 39.014-40.589 18.799.069 39.044 12.801 39.069 40.589.003 3.844 2.912 7.063 6.735 7.454 22.649 2.321 39.089 20.551 39.089 43.346 0 4-.747 8.029-2.226 12.025h-75.14v-9.558l25.163-14.329c3.599-2.05 4.855-6.63 2.806-10.229-2.049-3.6-6.627-4.856-10.229-2.807l-17.74 10.102v-19.612c0-4.143-3.358-7.5-7.5-7.5s-7.5 3.357-7.5 7.5v19.612l-17.741-10.102c-3.598-2.049-8.179-.794-10.229 2.807-2.049 3.6-.793 8.179 2.806 10.229l25.164 14.329v9.558h-75.155c-1.487-4.029-2.238-8.058-2.238-12.025 0-22.796 16.451-41.025 39.117-43.346 3.823-.392 6.732-3.61 6.735-7.454zm-66.033-25.228c25.487-8.646 44.772-3.278 55.47 1.808-.006.015-.01.032-.016.046-2.098 5.06-3.531 10.693-4.118 16.904-9.287 1.944-17.627 5.942-24.581 11.5-7.735-11.697-16.699-21.837-26.755-30.258zm299.398 305.871h-55.531c-4.142 0-7.5 3.357-7.5 7.5s3.358 7.5 7.5 7.5h49.658v31.019h-142.529v-31.019h57.807c4.142 0 7.5-3.357 7.5-7.5s-3.358-7.5-7.5-7.5h-63.68c-47.772-21.08-83.857-60.127-101.674-107.17h357.599c-17.813 47.047-53.889 86.095-101.65 107.17zm127.592-182.293h-176.294c-4.142 0-7.5 3.357-7.5 7.5s3.358 7.5 7.5 7.5h162.562c-.604 15.483-3.074 30.613-7.231 45.124h-367.56c-4.159-14.511-6.629-29.641-7.234-45.124h184.399c4.142 0 7.5-3.357 7.5-7.5s-3.358-7.5-7.5-7.5h-198.131c-5.658 0-10.262-4.61-10.262-10.276 0-5.65 4.604-10.248 10.262-10.248h409.489c.312 0 .62.02.925.047.119.011.247.029.371.044 5.047.64 8.965 4.946 8.965 10.157.001 5.665-4.602 10.276-10.261 10.276z"/></g></svg>