<svg id="Layer_1" enable-background="new 0 0 512 512" height="512" viewBox="0 0 512 512" width="512" xmlns="http://www.w3.org/2000/svg"><g><g><path clip-rule="evenodd" d="m453.159 406.852c-8.509-5.877-17.689-9.824-26.925-11.923-7.193-1.623-14.442-2.099-21.411-1.511-2.463.224-3.834.504-4.394 1.315-.14.196-.224.42-.28.644 0 .056-.028.14-.028.196-.112.84.14 2.043.616 3.75 3.806 13.378 12.007 26.224 24.042 36.216 1.791 1.483 3.667 2.883 5.626 4.254 6.717 4.618 13.854 8.06 21.103 10.327 1.12.336 2.239.672 3.387.98 8.005 2.099 16.093 2.771 23.874 2.099 2.463-.196 3.834-.476 4.394-1.315.588-.84.364-2.211-.308-4.59-4.367-15.365-14.555-30.003-29.696-40.442z" fill="#a7e9a6" fill-rule="evenodd"/></g><g><path clip-rule="evenodd" d="m425.702 349.898c-13.938 11.979-22.559 27.596-25.274 43.324-.14.84-.252 1.539-.308 2.155h.028c.056-.224.14-.448.28-.644 1.959.56 21.747 3.135 25.806.196 8.984-3.023 17.717-7.92 25.554-14.637 13.966-11.979 22.559-27.596 25.274-43.352.42-2.435.504-3.834-.14-4.59-.672-.756-2.043-.896-4.534-.868-15.983.308-32.72 6.437-46.686 18.416z" fill="#a7e9a6" fill-rule="evenodd"/></g><g><path clip-rule="evenodd" d="m394.55 163.977-46.013-16.121-46.013 16.121c9.292 37.335 9.292 54.687 0 92.023l46.013 16.121 46.013-16.121c-9.292-37.335-9.292-54.687 0-92.023z" fill="#a7e9a6" fill-rule="evenodd"/></g><g><path clip-rule="evenodd" d="m394.55 131.736h-92.027c-8.844 0-16.094 7.249-16.094 16.121s7.249 16.121 16.094 16.121h46.013 46.013c8.844 0 16.093-7.249 16.093-16.121.002-8.872-7.247-16.121-16.092-16.121z" fill="#4fc9af" fill-rule="evenodd"/></g><g><path clip-rule="evenodd" d="m394.55 131.736h-29.948c8.844 0 16.094 7.249 16.094 16.121 0 3.778-1.315 7.277-3.527 10.02-2.939 3.694-7.501 6.101-12.567 6.101h29.948c8.844 0 16.093-7.249 16.093-16.121.001-8.872-7.248-16.121-16.093-16.121z" fill="#26bb9e" fill-rule="evenodd"/></g><g><path clip-rule="evenodd" d="m364.602 163.977c-9.292 37.335-9.292 54.687 0 92.023h29.948c-9.292-37.335-9.292-54.687 0-92.023z" fill="#7fdbae" fill-rule="evenodd"/></g><g><path clip-rule="evenodd" d="m400.736 399.323c.252.896.532 1.791.812 2.659 1.399 0 2.771.028 4.17.084 4.002.224 8.033.784 12.063 1.679 9.236 2.099 18.417 6.045 26.925 11.895 14.274 9.852 24.126 23.425 28.884 37.811 1.735 0 3.471-.084 5.178-.252 2.463-.196 3.834-.476 4.394-1.315.588-.84.364-2.211-.308-4.59-4.366-15.365-14.554-30.003-29.696-40.442-8.509-5.877-17.689-9.824-26.925-11.923-7.193-1.623-14.442-2.099-21.411-1.511-2.463.224-3.834.504-4.394 1.315-.14.196-.224.42-.28.644l-.028.196c-.112.84.14 2.043.616 3.75z" fill="#7fdbae" fill-rule="evenodd"/></g><g><path clip-rule="evenodd" d="m302.523 288.214c9.292 37.363 9.292 54.687 0 92.051l46.013 16.093 46.013-16.093c-9.292-37.363-9.292-54.687 0-92.051l-46.013-16.093z" fill="#a7e9a6" fill-rule="evenodd"/></g><g><path clip-rule="evenodd" d="m348.537 399.883-46.013 12.594c9.292 37.335 9.292 54.687 0 92.023h46.013 46.013c-9.292-37.335-9.292-54.687 0-92.023z" fill="#a7e9a6" fill-rule="evenodd"/></g><g><path clip-rule="evenodd" d="m348.537 380.264h-46.013c-8.844 0-16.094 7.249-16.094 16.093 0 8.872 7.249 16.121 16.094 16.121h46.013 46.013c8.844 0 16.093-7.249 16.093-16.121 0-8.844-7.249-16.093-16.093-16.093z" fill="#4fc9af" fill-rule="evenodd"/></g><g><path clip-rule="evenodd" d="m394.55 256h-46.013-46.013c-8.844 0-16.094 7.249-16.094 16.121 0 8.844 7.249 16.093 16.094 16.093h46.013 46.013c8.844 0 16.093-7.249 16.093-16.093.001-8.872-7.248-16.121-16.093-16.121z" fill="#4fc9af" fill-rule="evenodd"/></g><g><path clip-rule="evenodd" d="m394.55 256h-29.948c5.066 0 9.628 2.379 12.567 6.073 2.211 2.771 3.527 6.241 3.527 10.047 0 3.778-1.315 7.249-3.527 10.02-2.939 3.694-7.501 6.073-12.567 6.073h29.948c8.844 0 16.093-7.249 16.093-16.093.001-8.871-7.248-16.12-16.093-16.12z" fill="#26bb9e" fill-rule="evenodd"/></g><g><path clip-rule="evenodd" d="m394.55 380.264h-27.485c4.758 0 9.04 2.099 12.007 5.402 2.547 2.855 4.086 6.605 4.086 10.691 0 4.562-1.903 8.704-4.982 11.643-2.911 2.771-6.829 4.478-11.111 4.478h27.485c8.844 0 16.093-7.249 16.093-16.121.001-8.844-7.248-16.093-16.093-16.093z" fill="#26bb9e" fill-rule="evenodd"/></g><g><path clip-rule="evenodd" d="m367.065 288.214c-9.292 37.363-9.292 54.687 0 92.051h27.485c-9.292-37.363-9.292-54.687 0-92.051z" fill="#7fdbae" fill-rule="evenodd"/></g><g><path clip-rule="evenodd" d="m367.065 412.477c-9.292 37.335-9.292 54.687 0 92.023h27.485c-9.292-37.335-9.292-54.687 0-92.023z" fill="#7fdbae" fill-rule="evenodd"/></g><g><path clip-rule="evenodd" d="m455.118 334.057c1.092 14.218-2.211 29.527-10.384 43.52-3.023 5.206-6.549 9.936-10.468 14.106 6.13-2.911 12.035-6.689 17.521-11.391 13.966-11.979 22.559-27.596 25.274-43.352.42-2.435.504-3.834-.14-4.59-.672-.756-2.043-.896-4.534-.868-5.71.112-11.532.98-17.269 2.575z" fill="#7fdbae" fill-rule="evenodd"/></g><g><path clip-rule="evenodd" d="m76.543 119.03c-5.934 3.107-11.615 7.109-16.849 11.951-13.435 12.426-21.411 28.295-23.511 44.052-.336 2.463-.336 3.834.336 4.562.672.756 2.043.84 4.534.7 15.87-.896 32.299-7.641 45.734-20.067 11.195-10.383 18.612-23.146 21.971-36.244-10.496.727-21.524-.868-32.215-4.954z" fill="#4fc9af" fill-rule="evenodd"/></g><g><path clip-rule="evenodd" d="m105.427 110.885c-15.87.924-32.299 7.641-45.734 20.095-13.435 12.426-21.411 28.295-23.511 44.052-.336 2.463-.336 3.834.336 4.562.672.756 2.043.84 4.534.7 15.87-.896 32.299-7.641 45.734-20.067 13.435-12.454 21.383-28.323 23.511-44.08.336-2.463.336-3.834-.336-4.562s-2.071-.84-4.534-.7z" fill="#4fc9af" fill-rule="evenodd"/></g><g><path clip-rule="evenodd" d="m87.794 78.98c14.134 10.075 23.986 23.789 28.716 38.343.56 1.763.868 2.995.784 3.89-.028.336-.112.616-.28.868-.56.868-1.959 1.231-4.506 1.539-7.221.896-14.778.672-22.307-.728-9.684-1.791-19.396-5.542-28.465-11.307-16.121-10.243-27.289-25.049-32.411-40.834-.812-2.463-1.092-3.89-.532-4.758.56-.896 1.959-1.231 4.534-1.539 7.585-.952 15.534-.672 23.483.952l1.679.364h.028c8.704 1.959 17.381 5.514 25.554 10.691 1.26.812 2.52 1.651 3.723 2.519z" fill="#a7e9a6" fill-rule="evenodd"/></g><g><path clip-rule="evenodd" d="m87.794 78.98c14.134 10.075 23.986 23.789 28.716 38.343.56 1.763.868 2.995.784 3.89-.028.336-.112.616-.28.868-.56.868-1.959 1.231-4.506 1.539-1.707.224-3.443.364-5.15.448-5.094-13.378-14.498-25.832-27.625-35.18-1.204-.868-2.435-1.707-3.722-2.519-8.145-5.178-16.849-8.732-25.554-10.691l-1.707-.364c-6.158-1.259-12.315-1.707-18.333-1.427-.392-1.036-.756-2.099-1.092-3.135-.812-2.463-1.092-3.89-.532-4.758.56-.896 1.959-1.231 4.534-1.539 7.585-.952 15.534-.672 23.483.952l1.679.364h.028c8.704 1.959 17.381 5.514 25.554 10.691 1.26.811 2.52 1.65 3.723 2.518z" fill="#7fdbae" fill-rule="evenodd"/></g><g><path clip-rule="evenodd" d="m216.822 99.523c-8.732-35.18-9.236-52.588-1.511-85.725.476-2.043.98-4.142 1.511-6.297h-46.013-46.013c.532 2.155 1.064 4.254 1.539 6.297 7.725 33.137 7.193 50.545-1.539 85.725l44.81 11.643z" fill="#a7e9a6" fill-rule="evenodd"/></g><g><path clip-rule="evenodd" d="m216.822 380.264-46.013-5.933-46.013 5.933c9.292 37.335 9.292 54.687 0 92.023h46.013 46.013c-9.292-37.336-9.292-54.688 0-92.023z" fill="#a7e9a6" fill-rule="evenodd"/></g><g><path clip-rule="evenodd" d="m216.822 472.287h-46.013-46.013c-8.844 0-16.094 7.249-16.094 16.121 0 8.816 7.193 16.037 16.01 16.093h.084 92.027.084c8.816-.056 16.01-7.277 16.01-16.093-.002-8.873-7.251-16.121-16.095-16.121z" fill="#4fc9af" fill-rule="evenodd"/></g><g><path clip-rule="evenodd" d="m185.223 13.797c-7.725 33.137-7.221 50.545 1.511 85.725h30.088c-8.732-35.18-9.236-52.588-1.511-85.725.476-2.043.98-4.142 1.511-6.297h-30.088c-.532 2.155-1.035 4.254-1.511 6.297z" fill="#7fdbae" fill-rule="evenodd"/></g><g><path clip-rule="evenodd" d="m186.734 380.264c-9.264 37.335-9.264 54.687 0 92.023h30.088c-9.292-37.335-9.292-54.687 0-92.023z" fill="#7fdbae" fill-rule="evenodd"/></g><g><path clip-rule="evenodd" d="m216.822 472.287h-30.088c8.872 0 16.122 7.249 16.122 16.121 0 8.816-7.193 16.037-16.01 16.093h29.976.084c8.816-.056 16.01-7.277 16.01-16.093-.001-8.873-7.25-16.121-16.094-16.121z" fill="#26bb9e" fill-rule="evenodd"/></g><g><path clip-rule="evenodd" d="m124.795 131.736c9.292 37.363 9.292 54.687 0 92.05l46.013 10.663 46.013-10.663c-9.292-37.363-9.292-54.687 0-92.05l-48.728-13.378z" fill="#a7e9a6" fill-rule="evenodd"/></g><g><path clip-rule="evenodd" d="m186.734 131.736c-9.264 37.363-9.264 54.687 0 92.05h30.088c-9.292-37.363-9.292-54.687 0-92.05z" fill="#7fdbae" fill-rule="evenodd"/></g><g><path clip-rule="evenodd" d="m216.822 99.523h-46.013-46.013c-8.844 0-16.094 7.249-16.094 16.121 0 8.844 7.249 16.093 16.094 16.093h46.013 46.013c8.844 0 16.094-7.249 16.094-16.093-.001-8.873-7.25-16.121-16.094-16.121z" fill="#4fc9af" fill-rule="evenodd"/></g><g><path clip-rule="evenodd" d="m216.822 99.523h-30.088c8.872 0 16.122 7.249 16.122 16.121 0 8.844-7.249 16.093-16.122 16.093h30.088c8.844 0 16.094-7.249 16.094-16.093-.001-8.873-7.25-16.121-16.094-16.121z" fill="#26bb9e" fill-rule="evenodd"/></g><g><path clip-rule="evenodd" d="m170.809 244.161-44.53 11.839h-1.483c9.292 37.335 9.292 54.687 0 92.051l46.013 16.093 46.013-16.121c-9.292-37.335-9.292-54.687 0-92.023h-30.088z" fill="#a7e9a6" fill-rule="evenodd"/></g><g><path clip-rule="evenodd" d="m186.734 256c-9.264 37.335-9.264 54.687 0 92.023h30.088c-9.292-37.335-9.292-54.687 0-92.023z" fill="#7fdbae" fill-rule="evenodd"/></g><g><path clip-rule="evenodd" d="m216.822 348.051-46.013-.028-46.013.028c-8.844 0-16.094 7.249-16.094 16.093 0 8.872 7.249 16.121 16.094 16.121h46.013 46.013c8.844 0 16.094-7.249 16.094-16.121-.001-8.845-7.25-16.093-16.094-16.093z" fill="#4fc9af" fill-rule="evenodd"/></g><g><path clip-rule="evenodd" d="m216.822 348.051h-30.088c8.872 0 16.122 7.249 16.122 16.093 0 8.872-7.249 16.121-16.122 16.121h30.088c8.844 0 16.094-7.249 16.094-16.121-.001-8.845-7.25-16.093-16.094-16.093z" fill="#26bb9e" fill-rule="evenodd"/></g><g><path clip-rule="evenodd" d="m170.809 223.787h-46.013c-8.844 0-16.094 7.249-16.094 16.093 0 8.872 7.249 16.121 16.094 16.121h1.483 44.53 15.926 30.088c8.844 0 16.094-7.249 16.094-16.121 0-8.844-7.249-16.093-16.094-16.093z" fill="#4fc9af" fill-rule="evenodd"/></g><g><path clip-rule="evenodd" d="m216.822 223.787h-30.088c8.872 0 16.122 7.249 16.122 16.093 0 8.872-7.249 16.121-16.122 16.121h30.088c8.844 0 16.094-7.249 16.094-16.121-.001-8.845-7.25-16.093-16.094-16.093z" fill="#26bb9e" fill-rule="evenodd"/></g><g><path clip-rule="evenodd" d="m94.903 132.156c-3.918 7.445-11.755 14.945-18.445 21.158-11.783 10.943-25.918 17.464-39.94 19.479-.112.756-.224 1.511-.336 2.239-.336 2.463-.336 3.834.336 4.562.672.756 2.043.84 4.534.7 15.87-.896 32.299-7.641 45.734-20.067 11.195-10.383 18.612-23.146 21.971-36.244-.476.028-.952.056-1.399.084-3.695.196-7.361.084-11-.28-4.534-.476-9.012-1.343-13.379-2.603-2.183-.616-4.31-1.343-6.437-2.155-2.799 1.483-5.542 3.135-8.201 4.982 4.899 4.422 14.527 8.928 26.562 8.145z" fill="#26bb9e" fill-rule="evenodd"/></g><g><path d="m490.069 445.244c-5.026-17.688-16.623-33.515-32.648-44.563-3.742-2.585-7.632-4.831-11.638-6.769 3.802-2.344 7.452-4.988 10.887-7.927 14.794-12.688 24.661-29.654 27.782-47.771.461-2.672 1.232-7.144-1.822-10.729-.034-.04-.068-.079-.103-.118-3.081-3.466-7.552-3.418-10.284-3.384-18.37.354-36.632 7.535-51.424 20.222-8.786 7.537-15.858 16.612-20.818 26.615-6.804-29.571-6.591-45.477.642-75.908 10.066-2.693 17.501-11.888 17.501-22.791 0-10.916-7.436-20.123-17.502-22.819-7.456-31.351-7.456-47.276 0-78.627 10.066-2.696 17.502-11.903 17.502-22.819 0-13.024-10.584-23.62-23.593-23.62h-29.948c-4.142 0-7.5 3.357-7.5 7.5s3.358 7.5 7.5 7.5h29.948c4.738 0 8.593 3.867 8.593 8.62 0 4.754-3.855 8.621-8.593 8.621h-92.027c-4.739 0-8.594-3.867-8.594-8.621 0-4.753 3.855-8.62 8.571-8.62l28.296.084h.023c4.131 0 7.487-3.344 7.5-7.478.012-4.143-3.335-7.51-7.478-7.522l-28.319-.084c-13.01 0-23.594 10.596-23.594 23.62 0 10.916 7.436 20.123 17.503 22.819 7.456 31.351 7.456 47.276 0 78.627-10.066 2.696-17.503 11.903-17.503 22.819 0 10.903 7.436 20.098 17.502 22.791 7.453 31.36 7.453 47.292 0 78.653-10.066 2.693-17.502 11.888-17.502 22.791 0 10.916 7.436 20.123 17.503 22.819 7.834 32.943 7.443 48.837-1.187 83.513-.558 2.24-.053 4.611 1.369 6.431 1.421 1.818 3.601 2.881 5.909 2.881h92.027c2.308 0 4.488-1.063 5.909-2.881 1.421-1.819 1.926-4.19 1.369-6.431-8.63-34.676-9.022-50.57-1.187-83.513.144-.039.283-.092.426-.133 6.124 10.525 14.679 19.739 25.079 26.926 14.168 9.769 30.58 14.982 46.804 14.982 2.143 0 4.283-.091 6.413-.274 2.73-.218 7.291-.581 9.994-4.564 2.679-3.904 1.451-8.252.712-10.868zm-59.485-89.653c11.195-9.603 24.717-15.364 38.377-16.437-3.134 13.375-10.873 25.853-22.05 35.438-8.745 7.481-19.094 12.71-29.743 15.113-1.017-3.45-2.789-6.578-5.146-9.176 4.076-9.404 10.42-17.954 18.562-24.938zm-45.523-184.113c-6.616 29.444-6.617 47.579-.001 77.022h-73.046c6.616-29.444 6.615-47.579-.001-77.022zm-91.131 100.643c0-4.754 3.855-8.621 8.594-8.621h92.027c4.738 0 8.593 3.867 8.593 8.621 0 4.738-3.855 8.593-8.593 8.593h-92.027c-4.739 0-8.594-3.855-8.594-8.593zm91.131 100.643h-73.049c6.615-29.457 6.614-47.595 0-77.05h73.049c-6.614 29.455-6.615 47.593 0 77.05zm-.001 124.236h-73.046c6.617-29.445 6.617-47.577 0-77.022h73.046c-6.617 29.445-6.617 47.577 0 77.022zm9.49-92.022h-92.027c-4.739 0-8.594-3.867-8.594-8.621 0-4.738 3.855-8.593 8.594-8.593h92.027c4.738 0 8.593 3.854 8.593 8.593 0 2.666-1.213 5.052-3.114 6.635-.122.086-.238.176-.354.268-1.432 1.073-3.203 1.718-5.125 1.718zm40.117 28.645c-8.919-6.163-16.177-14.104-21.226-23.158 1.219-1.631 2.226-3.425 2.995-5.342 3.372-.576 6.728-1.372 10.038-2.398 7.921 2.042 15.458 5.489 22.426 10.302 12.115 8.353 21.123 19.939 25.657 32.9-13.742.344-27.768-3.948-39.89-12.304z"/><path d="m240.416 115.644c0-10.916-7.436-20.123-17.503-22.819-7.834-32.943-7.443-48.837 1.187-83.513.558-2.24.053-4.611-1.369-6.431-1.421-1.818-3.601-2.881-5.909-2.881h-92.026c-2.308 0-4.488 1.063-5.909 2.881-1.421 1.819-1.926 4.19-1.369 6.431 8.63 34.676 9.021 50.57 1.187 83.513-1.764.473-3.448 1.144-5.025 1.991-6.583-9.695-15.292-18.128-25.586-24.685-17.046-10.83-36.828-15.487-55.655-13.124-2.768.331-7.393.883-9.976 4.966-2.588 4.062-1.131 8.481-.271 11.095 5.873 18.098 18.488 34.024 35.519 44.846 1.131.719 2.278 1.401 3.433 2.066-2.252 1.713-4.437 3.546-6.544 5.495-14.255 13.186-23.436 30.434-25.849 48.544-.34 2.489-.97 7.112 2.205 10.607 2.487 2.761 5.785 3.231 8.417 3.231.77 0 1.483-.04 2.102-.075 18.244-1.029 36.144-8.86 50.411-22.056 9.222-8.554 16.289-18.732 20.807-29.839 1.853 1.112 3.873 1.969 6.008 2.542 7.454 31.365 7.455 47.295.002 78.659-10.066 2.693-17.502 11.888-17.502 22.791 0 10.916 7.436 20.123 17.503 22.819 7.458 31.36 7.456 47.286-.007 78.656-10.063 2.695-17.496 11.889-17.496 22.789 0 10.916 7.436 20.122 17.503 22.818 7.456 31.351 7.456 47.277 0 78.627-10.066 2.696-17.503 11.903-17.503 22.819 0 13.009 10.584 23.593 23.594 23.593h92.026c13.01 0 23.594-10.584 23.594-23.593 0-10.916-7.436-20.123-17.503-22.819-7.456-31.35-7.456-47.276 0-78.627 10.066-2.696 17.503-11.902 17.503-22.818 0-10.9-7.433-20.094-17.496-22.789-7.463-31.37-7.465-47.296-.007-78.656 10.066-2.696 17.503-11.903 17.503-22.819 0-10.903-7.436-20.098-17.502-22.791-7.452-31.362-7.452-47.292 0-78.653 10.067-2.693 17.503-11.889 17.503-22.791zm-158.722 39.078c-10.764 9.956-23.959 16.188-37.498 17.774 2.612-13.388 9.834-26.062 20.59-36.01 3.868-3.578 8.04-6.673 12.429-9.246 6.891 2.315 13.983 3.732 21.078 4.218-3.711 8.611-9.341 16.532-16.599 23.264zm19.532-38.124c-12.191-.474-24.513-4.375-35.467-11.343-13.083-8.313-22.988-20.175-28.188-33.686 14.416-1.037 29.376 2.896 42.472 11.218 9.605 6.117 17.531 14.162 23.131 23.417-1.265 2.893-1.972 6.085-1.972 9.44 0 .319.011.637.024.954zm33.06-101.598h73.046c-6.617 29.445-6.617 47.577 0 77.022h-73.046c6.616-29.445 6.616-47.577 0-77.022zm91.13 473.407c0 4.738-3.855 8.593-8.594 8.593h-92.026c-4.739 0-8.594-3.854-8.594-8.593 0-4.749 3.847-8.612 8.579-8.62.007 0 .013.001.02.001.008 0 .015-.002.023-.002h91.968c.008 0 .015.002.023.002.007 0 .013-.001.02-.001 4.733.008 8.581 3.871 8.581 8.62zm-18.081-23.621h-73.053c6.614-29.435 6.613-47.587 0-77.022h73.053c-6.613 29.435-6.613 47.587 0 77.022zm18.081-100.642c0 4.753-3.855 8.62-8.594 8.62h-92.026c-4.739 0-8.594-3.867-8.594-8.62 0-4.738 3.855-8.593 8.594-8.593h33.194c4.142 0 7.5-3.357 7.5-7.5s-3.358-7.5-7.5-7.5h-23.711c6.622-29.46 6.626-47.598.007-77.051h73.046c-6.618 29.453-6.615 47.591.007 77.051h-20.604c-4.142 0-7.5 3.357-7.5 7.5s3.358 7.5 7.5 7.5h30.087c4.739 0 8.594 3.854 8.594 8.593zm0-124.265c0 4.754-3.855 8.621-8.594 8.621h-92.026c-4.739 0-8.594-3.867-8.594-8.621 0-4.738 3.855-8.593 8.594-8.593h92.026c4.739 0 8.594 3.855 8.594 8.593zm-91.132-100.643h73.049c-6.615 29.457-6.614 47.595 0 77.05h-73.049c6.614-29.455 6.615-47.593 0-77.05zm82.538-15h-92.026c-4.739 0-8.594-3.854-8.594-8.593 0-4.754 3.855-8.621 8.594-8.621h92.026c4.739 0 8.594 3.867 8.594 8.621 0 4.739-3.855 8.593-8.594 8.593z"/></g></g></svg>