<svg id="Layer_1" enable-background="new 0 0 512 512" height="512" viewBox="0 0 512 512" width="512" xmlns="http://www.w3.org/2000/svg"><g><g><path clip-rule="evenodd" d="m223.444 172.589c0-10.574-8.561-19.106-19.106-19.106s-19.106 8.533-19.106 19.106c0 10.545 8.561 19.106 19.106 19.106s19.106-8.561 19.106-19.106z" fill="#f9f7f8" fill-rule="evenodd"/></g><g><path clip-rule="evenodd" d="m326.739 172.589c0-10.574-8.532-19.106-19.106-19.106-10.545 0-19.106 8.533-19.106 19.106 0 10.545 8.561 19.106 19.106 19.106 10.573 0 19.106-8.561 19.106-19.106z" fill="#f9f7f8" fill-rule="evenodd"/></g><g><path clip-rule="evenodd" d="m65.384 133.243-45.638-29.51c-5.386-3.487-8.646-3.175-7.682 4.309 1.843 13.919 6.406 29.141 13.748 44.193 3.742 7.625 7.937 14.712 12.472 21.147 23.528 3.09 38.778-3.855 34.753-43.882-.68 8.052-.85 8.137-7.653 3.743z" fill="#ee6161" fill-rule="evenodd"/></g><g><path clip-rule="evenodd" d="m107.592 209.837c23.896-11.707 26.022-56.411 4.734-99.924-7.342-15.052-16.554-27.979-26.447-37.985-5.301-5.358-7.54-2.976-8.079 3.402l-4.762 54.172c-2.013 33.507-15.449 42.408-34.753 43.882 21.259 30.245 49.606 46.063 69.307 36.453z" fill="#f37c7c" fill-rule="evenodd"/></g><g><path clip-rule="evenodd" d="m438.934 129.501-4.734-54.172c-.567-6.378-2.806-8.759-8.107-3.402-9.865 10.007-19.077 22.933-26.447 37.985-21.26 43.513-19.134 88.217 4.762 99.924 19.701 9.61 48.047-6.208 69.307-36.455-19.332-1.472-32.768-10.373-34.781-43.88z" fill="#f37c7c" fill-rule="evenodd"/></g><g><path clip-rule="evenodd" d="m492.254 103.733-45.666 29.51c-6.775 4.394-6.945 4.309-7.654-3.742-5.414 39.261 10.148 46.49 34.781 43.882 4.507-6.435 8.702-13.522 12.444-21.147 7.37-15.052 11.934-30.275 13.748-44.193.993-7.485-2.267-7.796-7.653-4.31z" fill="#f37c7c" fill-rule="evenodd"/></g><g><path clip-rule="evenodd" d="m98.748 275.66c7.569 21.629 14.939 52.216 30.728 75.517h216.766c60.492-14.911 88.214-19.871 92.637-47.68-4.394-13.011-12.614-25.853-24.576-37.56-121.722-32.883-225.017-24.918-315.555 9.723z" fill="#f37c7c" fill-rule="evenodd"/></g><g><path clip-rule="evenodd" d="m120.489 298.338c-5.641-9.298-13.096-16.895-21.742-22.678-2.126-1.417-4.337-2.721-6.605-3.912-6.151-3.26-12.784-5.698-19.673-7.229-6.123-1.361-7.172-.737-8.787 5.329-3.713 13.833-3.713 28.347.482 41.982 1.956.567 3.94 1.247 5.896 2.013.113.057.227.113.34.142 11.339 13.011 14.627 19.305 21.543 35.916l24.888 9.383 12.643-8.107c3.516-17.915.823-36.625-8.985-52.839z" fill="#4fc9af" fill-rule="evenodd"/></g><g><path clip-rule="evenodd" d="m64.165 311.831c-15.902-4.621-32.57-2.92-47.424 3.855-5.159 2.353-5.584 3.402-3.43 8.674 4.224 10.375 10.715 19.616 19.134 26.817l45.213 15.648 29.679-15.648c-6.917-16.612-19.701-30.218-36.936-37.192l-.34-.142c-1.956-.765-3.94-1.445-5.896-2.012z" fill="#a7e9a6" fill-rule="evenodd"/></g><g><path clip-rule="evenodd" d="m438.878 303.497c-2.041-.454-4.167-.68-6.35-.68-6.803 0-13.068 2.353-18 6.293-4.904-3.94-11.169-6.293-17.972-6.293-13.691 0-25.143 9.525-28.063 22.309-12.161 2.806-21.373 13.267-22.252 26.051l83.962 17.717 52.64-17.717c-.879-12.785-10.091-23.245-22.252-26.051-2.466-10.744-10.942-19.191-21.713-21.629z" fill="#4fc9af" fill-rule="evenodd"/></g><g><path clip-rule="evenodd" d="m464.9 406.313-207.015-22.508-210.785 22.508v18.369c0 10.092 8.249 18.369 18.369 18.369h381.063c10.091 0 18.369-8.277 18.369-18.369v-18.369z" fill="#bed8fb" fill-rule="evenodd"/></g><g><path clip-rule="evenodd" d="m438.934 129.501-4.734-54.172c-.567-6.378-2.806-8.759-8.107-3.402-5.726 5.811-11.225 12.586-16.271 20.212l4.507 51.45v.028c2.013 33.507 22.054 48.984 41.358 50.458 6.321-5.755 12.416-12.728 18.028-20.694-19.332-1.472-32.768-10.373-34.781-43.88z" fill="#ee6161" fill-rule="evenodd"/></g><g><path clip-rule="evenodd" d="m85.878 71.928c-5.301-5.358-7.54-2.976-8.079 3.402l-1.162 13.295c3.685 5.556 7.143 11.594 10.29 17.972 21.26 43.485 19.134 88.217-4.762 99.896-1.616.794-3.288 1.417-4.989 1.871 10.913 4.961 21.543 5.811 30.416 1.474 23.896-11.707 26.022-56.411 4.734-99.924-7.342-15.053-16.555-27.98-26.448-37.986z" fill="#ee6161" fill-rule="evenodd"/></g><g><path clip-rule="evenodd" d="m64.165 311.831c-15.902-4.621-32.57-2.92-47.424 3.855-5.159 2.353-5.584 3.402-3.43 8.674l.057.142c12.784-4.167 26.504-4.706 39.714-.85 1.984.567 3.94 1.247 5.896 2.013l.34.142c15.562 6.293 27.468 17.972 34.725 32.373l13.295-7.002c-6.917-16.612-19.701-30.218-36.936-37.192l-.34-.142c-1.957-.766-3.941-1.446-5.897-2.013z" fill="#7fdbae" fill-rule="evenodd"/></g><g><path clip-rule="evenodd" d="m92.143 271.748c-6.151-3.26-12.784-5.698-19.673-7.229-6.123-1.361-7.172-.737-8.787 5.329-.567 2.069-1.049 4.167-1.417 6.265 4.082 1.361 8.05 3.061 11.849 5.074 2.268 1.191 4.479 2.495 6.605 3.912.312.198.595.425.879.624 8.277 5.669 15.392 13.068 20.835 22.054 8.135 13.408 11.367 28.461 10.29 43.4h16.753c3.515-17.915.822-36.625-8.986-52.839-5.641-9.298-13.096-16.895-21.742-22.678-2.127-1.418-4.338-2.722-6.606-3.912z" fill="#26bb9e" fill-rule="evenodd"/></g><g><path clip-rule="evenodd" d="m194.729 219.957c-27.751 5.329-51.08 14.23-69.789 25.342-13.266 7.852-24.208 16.838-32.797 26.448 2.268 1.191 4.479 2.495 6.605 3.912h47.651c9.865 0 17.943 8.107 17.943 17.972v5.698c0 9.893 8.107 17.972 17.972 17.972 9.893 0 17.972-8.079 17.972-17.972v-23.585c0-9.865 8.079-17.972 17.972-17.972 9.865 0 17.943 8.107 17.943 17.972v12.359c0 9.865 8.107 17.972 17.972 17.972 9.893 0 17.972-8.107 17.972-17.972v-10.262c0-9.893 8.079-17.972 17.972-17.972 9.865 0 17.972 8.079 17.972 17.972v6.066c0 9.893 8.079 17.972 17.943 17.972 9.893 0 17.972-8.079 17.972-17.972 0-9.865 8.079-17.972 17.972-17.972h14.967 37.361c-7.597-7.427-16.696-14.372-27.241-20.637-18.709-11.112-42.038-20.013-69.818-25.342-18.454-3.572-38.891-5.528-61.257-5.528-22.339.002-42.777 1.958-61.259 5.529z" fill="#ffd772" fill-rule="evenodd"/></g><g><path clip-rule="evenodd" d="m414.301 265.937h-37.361-14.967c-4.167 0-7.994 1.446-11.055 3.855 4.904 3.657 9.383 7.512 13.465 11.481 7.994 7.824 14.343 16.158 18.964 24.719 3.94-2.041 8.447-3.175 13.209-3.175 6.803 0 13.068 2.353 17.972 6.293 4.932-3.94 11.197-6.293 18-6.293 2.183 0 4.309.227 6.35.68-4.394-13.012-12.614-25.853-24.577-37.56z" fill="#ee6161" fill-rule="evenodd"/></g><g><path clip-rule="evenodd" d="m317.243 219.957c-3.146-.624-6.35-1.191-9.609-1.701-15.874-2.466-33.109-3.827-51.647-3.827-18.539 0-35.773 1.361-51.647 3.827-3.26.539-6.463 1.077-9.609 1.701-18.907 3.628-35.745 8.901-50.457 15.421.17-.057.368-.085.539-.113 18.482-3.543 38.92-5.528 61.257-5.528 22.365 0 42.803 1.984 61.257 5.528 15.109 2.891 28.885 6.86 41.358 11.651 10.432 4.025 19.928 8.618 28.46 13.692 4.904 2.92 9.496 5.981 13.776 9.185 3.061-2.41 6.888-3.855 11.055-3.855h14.967 37.361c-7.597-7.427-16.696-14.372-27.241-20.637-18.711-11.113-42.041-20.014-69.82-25.344z" fill="#fbba58" fill-rule="evenodd"/></g><g><path clip-rule="evenodd" d="m346.241 351.177h-216.766-22.139-13.521-19.049-42.321-18.482c-3.572 0-6.463 2.92-6.463 6.463v21.09c0 15.166 12.387 27.582 27.553 27.582h12.047 126.511 164.75 126.539 12.019c15.165 0 27.581-12.416 27.581-27.582v-21.09c0-3.543-2.92-6.463-6.463-6.463h-15.194-45.638z" fill="#f9f7f8" fill-rule="evenodd"/></g><g><path clip-rule="evenodd" d="m432.528 302.816c-3.515 0-6.888.624-9.978 1.758 2.835 5.613 4.989 11.736 6.293 18.227.935 4.649 1.417 9.496 1.417 14.485 0 4.762-.454 9.411-1.304 13.89h8.249 45.638c-.879-12.785-10.091-23.245-22.252-26.051-2.466-10.744-10.942-19.191-21.713-21.629-2.041-.453-4.167-.68-6.35-.68z" fill="#26bb9e" fill-rule="evenodd"/></g><g><path clip-rule="evenodd" d="m425.668 406.313h-12.047v18.369c0 10.092-8.277 18.369-18.369 18.369h51.279c10.091 0 18.369-8.277 18.369-18.369v-18.369z" fill="#8eaadf" fill-rule="evenodd"/></g><g><path clip-rule="evenodd" d="m482.843 351.177h-36.085c3.543 0 6.463 2.92 6.463 6.463v3.515 17.575c0 1.106-.057 2.183-.198 3.26-1.106 9.355-6.945 17.292-15.052 21.374-3.713 1.871-7.88 2.948-12.302 2.948h39.231 12.019c15.165 0 27.581-12.416 27.581-27.582v-21.09c0-3.543-2.92-6.463-6.463-6.463z" fill="#e5e4ed" fill-rule="evenodd"/></g><path d="m498.037 343.677h-8.922c-3.084-11.212-11.494-20.49-22.485-24.557-3.744-10.352-11.902-18.229-22.046-21.757-5.025-12.868-13.325-25.074-24.398-36.068-.392-.496-.846-.939-1.349-1.322-6.488-6.259-13.877-12.113-22.079-17.453l11.452-23.391c2.835.691 5.77 1.047 8.79 1.047 10.505-.001 21.999-4.16 33.581-12.32 16.462-11.598 31.49-30.18 42.315-52.321 7.475-15.267 12.472-31.354 14.446-46.506.856-6.458-.68-10.979-4.566-13.438-5.943-3.758-12.458.462-14.593 1.846l-42.143 27.232-4.37-50.001c-.226-2.537-.911-10.256-7.51-12.633-4.321-1.556-8.827-.001-13.408 4.629-10.763 10.917-20.39 24.732-27.845 39.958-21.505 44.012-20.208 88.31 1.84 105.891l-10.947 22.36c-19.85-10.6-43.044-18.301-68.667-22.901v-13.86c11.03-3.247 19.106-13.456 19.106-25.523 0-14.671-11.936-26.606-26.606-26.606s-26.605 11.936-26.605 26.606c0 12.066 8.077 22.276 19.105 25.523v11.556c-14.124-1.812-28.884-2.738-44.147-2.738-15.282 0-30.038.95-44.147 2.772v-11.59c11.029-3.247 19.105-13.457 19.105-25.523 0-14.671-11.935-26.606-26.605-26.606s-26.605 11.936-26.605 26.606c0 12.066 8.077 22.276 19.105 25.523v13.89c-25.727 4.637-48.914 12.384-68.644 22.883l-10.945-22.375c15.954-12.792 21.436-40.085 13.888-72.331-.944-4.034-4.979-6.542-9.012-5.594-4.033.944-6.537 4.979-5.593 9.012 6.719 28.705 1.799 52.617-12.233 59.5-.001 0-.002.001-.003.001h-.001c-2.9 1.417-6.078 2.093-9.455 2.093-13.067-.001-29.07-10.142-43.123-26.71 18.095-5.729 27.12-21.133 28.793-48.341l4.257-48.429c7.959 8.976 15.092 19.749 20.818 31.488 1.816 3.723 6.307 5.267 10.028 3.453 3.723-1.816 5.269-6.306 3.453-10.029-7.428-15.229-17.06-29.051-27.856-39.973-4.58-4.627-9.093-6.178-13.414-4.613-6.604 2.396-7.256 10.12-7.468 12.633l-4.395 49.995-42.112-27.227c-2.138-1.384-8.646-5.6-14.59-1.856-3.888 2.449-5.438 6.964-4.603 13.445 2.007 15.163 7.001 31.241 14.447 46.507 19.32 39.465 50.075 64.614 75.984 64.612 2.98 0 5.895-.345 8.723-1.028l11.443 23.392c-9.252 6.006-17.537 12.713-24.736 20.076-5.183-2.298-10.663-4.111-16.392-5.388-10.058-2.238-15.011.769-17.659 10.706-3.063 11.412-3.756 23.076-2.104 34.305-13.571-1.583-27.552.645-40.706 6.653-8.833 4.028-10.937 9.34-7.265 18.326 2.397 5.888 5.47 11.431 9.111 16.488h-1.513c-7.698.001-13.962 6.265-13.962 13.965v21.09c0 19.345 15.725 35.082 35.053 35.082h4.547v10.869c0 14.748 11.121 25.869 25.869 25.869h381.063c14.264 0 25.868-11.604 25.868-25.869v-10.869h4.52c19.344 0 35.081-15.737 35.081-35.082v-21.09c-.001-7.7-6.265-13.964-13.964-13.964zm-456.063-178.234c-3.387-5.137-6.561-10.653-9.422-16.496-5.748-11.785-9.877-24.051-12.081-35.813l40.843 26.41c.922.595 1.833 1.181 2.741 1.719-3.63 18.281-12.482 22.769-22.081 24.18zm411.305 161.352c.64 2.803 2.824 4.992 5.625 5.639 6.272 1.448 11.443 5.696 14.242 11.243h-117.207c2.799-5.547 7.969-9.795 14.241-11.243 2.801-.646 4.985-2.836 5.625-5.638 2.216-9.703 10.75-16.479 20.752-16.479 4.836 0 9.551 1.647 13.274 4.64 2.736 2.2 6.635 2.205 9.379.013 3.81-3.044 8.415-4.652 13.318-4.652 10.003-.002 18.535 6.775 20.751 16.477zm38.23-213.65c-2.189 11.763-6.318 24.017-12.087 35.797-2.843 5.816-5.999 11.335-9.39 16.503-9.612-1.408-18.478-5.892-22.115-24.177.909-.54 43.592-28.123 43.592-28.123zm-85.126.066c5.753-11.75 12.897-22.535 20.846-31.513l4.234 48.453c1.676 27.222 10.718 42.626 28.848 48.345-5.758 6.783-11.951 12.575-18.368 17.096-13.105 9.233-25.266 11.9-34.234 7.51-19.79-9.696-20.396-50.863-1.326-89.891zm4.744 160.226c6.785 6.993 12.262 14.471 16.271 22.257-4.523.647-8.898 2.131-12.861 4.382-5.434-3.094-11.651-4.759-17.98-4.759-15.515 0-28.959 9.588-34.102 23.804-10.99 4.067-19.401 13.345-22.485 24.557h-201.883c1.537-17.364-2.312-34.561-11.184-49.228-2.448-4.037-5.24-7.796-8.309-11.289h27.804c5.758 0 10.443 4.697 10.443 10.472v5.698c0 14.045 11.427 25.472 25.472 25.472s25.472-11.427 25.472-25.472v-23.585c0-5.774 4.698-10.473 10.472-10.473 5.758 0 10.443 4.698 10.443 10.473v12.359c0 14.045 11.427 25.472 25.472 25.472s25.472-11.427 25.472-25.472v-10.262c0-5.774 4.697-10.473 10.472-10.473s10.472 4.698 10.472 10.473v6.066c0 14.045 11.414 25.472 25.443 25.472 14.045 0 25.472-11.427 25.472-25.472 0-5.774 4.697-10.473 10.472-10.473h49.152zm-115.1-100.848c0-6.399 5.206-11.606 11.605-11.606s11.606 5.207 11.606 11.606-5.207 11.606-11.606 11.606-11.605-5.207-11.605-11.606zm-103.294 0c0-6.399 5.206-11.606 11.605-11.606s11.605 5.207 11.605 11.606-5.206 11.606-11.605 11.606-11.605-5.207-11.605-11.606zm-64.558 79.474c.02-.01.041-.016.061-.026.412-.201.792-.44 1.149-.703 32.293-18.954 76.352-29.405 126.601-29.405 47.271 0 89.246 9.167 121.386 26.509 5.75 3.103 11.135 6.449 16.135 9.998h-31.533c-14.045 0-25.472 11.427-25.472 25.473 0 5.774-4.697 10.472-10.472 10.472-5.759 0-10.443-4.697-10.443-10.472v-6.066c0-14.046-11.427-25.473-25.472-25.473s-25.472 11.427-25.472 25.473v10.262c0 5.774-4.697 10.472-10.472 10.472-5.677 0-10.472-4.796-10.472-10.472v-12.359c0-14.046-11.414-25.473-25.443-25.473-14.045 0-25.472 11.427-25.472 25.473v23.585c0 5.774-4.698 10.472-10.472 10.472s-10.472-4.697-10.472-10.472v-5.698c0-14.045-11.414-25.472-25.443-25.472h-40.075c6.479-5.881 13.782-11.263 21.853-16.098zm-57.266 19.793c18.473 4.139 33.8 14.922 43.163 30.364 7.432 12.286 10.534 26.809 8.958 41.457h-10.886c-8.369-17.012-22.162-29.987-39.315-36.804-.826-.328-1.662-.621-2.496-.917-2.667-10.943-2.486-22.645.576-34.1zm-3.618 48.958c11.355 4.512 20.883 12.461 27.642 22.863h-59.591c-6.248-5.867-11.338-13.218-14.807-21.474 15.319-6.794 31.894-7.292 46.756-1.389zm429.709 57.917c0 11.073-9.009 20.082-20.081 20.082h-198.766c-4.143 0-7.5 3.357-7.5 7.5s3.357 7.5 7.5 7.5h179.246v10.869c0 5.993-4.875 10.869-10.868 10.869h-381.062c-5.235 0-10.869-3.401-10.869-10.869v-10.869h188.941c4.142 0 7.5-3.357 7.5-7.5s-3.358-7.5-7.5-7.5h-208.488c-11.057 0-20.053-9.009-20.053-20.082v-20.054h92.313c.009 0 .018.002.027.002.013 0 .027-.002.04-.002h389.62z"/></g></svg>