<svg id="Layer_1" enable-background="new 0 0 512 512" height="512" viewBox="0 0 512 512" width="512" xmlns="http://www.w3.org/2000/svg"><g><g><g><path clip-rule="evenodd" d="m123.296 418.062h-83.112v50.118c0 2.75 2.239 4.989 4.989 4.989h73.106c2.75 0 5.017-2.239 5.017-4.989z" fill="#e29d7b" fill-rule="evenodd"/></g><g><path clip-rule="evenodd" d="m471.816 418.062h-83.112v50.118c0 2.75 2.239 4.989 4.989 4.989h73.106c2.75 0 5.017-2.239 5.017-4.989z" fill="#e29d7b" fill-rule="evenodd"/></g><g><path clip-rule="evenodd" d="m204.367 210.871h-55.332-85.976c-8.447 0-15.335 6.917-15.335 15.336v80.591c10.913 6.577-9.184 86.261 28.913 104.8 32.485 15.818 124.385-10.659 127.73-10.659l15.307-18.001v-172.067z" fill="#f9f7f8" fill-rule="evenodd"/></g><g><path clip-rule="evenodd" d="m133.699 54.139v141.425c0 8.419 6.917 15.308 15.335 15.308l70.64 39.771 70.668-39.771c8.419 0 15.336-6.888 15.336-15.308v-141.425c0-8.419-6.917-15.308-15.336-15.308h-9.921-131.387c-8.419 0-15.335 6.889-15.335 15.308z" fill="#ffd772" fill-rule="evenodd"/></g><g><path clip-rule="evenodd" d="m295.671 54.139v141.425c0 8.419-6.888 15.308-15.335 15.308l50.23 21.062 42.378-21.062c8.419 0 15.336-6.888 15.336-15.308v-141.425c0-8.419-6.888-15.308-15.336-15.308h-92.608c8.447 0 15.335 6.889 15.335 15.308z" fill="#e29d7b" fill-rule="evenodd"/></g><g><path clip-rule="evenodd" d="m242.521 38.831c9.921 23.358 15.534 49.976 15.534 78.239 0 34.754-8.504 67.041-23.046 93.801h55.332.028.057c8.391-.028 15.25-6.917 15.25-15.308v-141.424c0-8.419-6.917-15.308-15.336-15.308h-3.373-6.548z" fill="#fbba58" fill-rule="evenodd"/></g><g><path clip-rule="evenodd" d="m219.674 210.871-31.436 98.082 31.436 73.986 78.435 15.109 78.265-15.109c8.419-.057 15.279-6.888 15.279-15.336v-141.396c0-8.419-6.888-15.336-15.335-15.336h-3.373-6.52-76.082-55.332z" fill="#f9f7f8" fill-rule="evenodd"/></g><g><path clip-rule="evenodd" d="m381.646 226.207v141.396c0 8.391-6.832 15.279-15.222 15.336l53.915 8.986 38.58-8.986h.113c8.391-.057 15.222-6.945 15.222-15.336v-141.396c0-8.419-6.888-15.336-15.336-15.336h-92.608c8.448 0 15.336 6.917 15.336 15.336z" fill="#bed8fb" fill-rule="evenodd"/></g><g><path clip-rule="evenodd" d="m328.496 210.871c9.921 23.358 15.534 49.976 15.534 78.239 0 34.782-8.504 67.07-23.046 93.83h55.332c8.447 0 15.335-6.917 15.335-15.336v-141.397c0-8.419-6.888-15.336-15.335-15.336h-3.373-6.52z" fill="#e5e4ed" fill-rule="evenodd"/></g><g><path clip-rule="evenodd" d="m153.286 210.871c14.343 26.646 22.706 58.707 22.706 93.178 0 28.517-5.726 55.391-15.817 78.891h44.192 15.307v-172.069h-15.307z" fill="#e5e4ed" fill-rule="evenodd"/></g><g><path clip-rule="evenodd" d="m70.316 329.079c-5.811-9.383-13.578-16.867-22.592-22.281-6.888-4.167-14.485-7.115-22.479-8.844-5.726-1.219-6.69-.595-8.164 5.074-4.677 18.227-2.466 37.645 7.767 54.2 7.143 11.537 17.263 20.183 28.97 25.711l9.241 8.986 4.904-8.986c9.808-9.468 16.384-22.876 7.115-44.675-1.332-3.147-2.92-6.208-4.762-9.185z" fill="#a7e9a6" fill-rule="evenodd"/></g><g><path clip-rule="evenodd" d="m134.237 297.472c-20.438 2.466-39.345 12.416-52.158 29.453-2.721 3.6-5.046 7.399-7.002 11.339-6.917 13.862-9.184 29.396-7.115 44.675l15.392 7.484 21.005-7.484c9.383-4.989 17.773-11.963 24.491-20.864 12.784-17.037 17.093-37.957 13.776-58.282-1.018-6.321-2.039-7.086-8.389-6.321z" fill="#4fc9af" fill-rule="evenodd"/></g><g><path clip-rule="evenodd" d="m12.489 382.939c-2.75 0-4.989 2.239-4.989 4.989v35.122c0 2.75 2.239 4.989 4.989 4.989h27.695 83.112 265.409 83.112 27.666c2.75 0 5.017-2.239 5.017-4.989v-35.122c0-2.75-2.268-4.989-5.017-4.989-162.313 0-324.653 0-486.994 0z" fill="#ffd772" fill-rule="evenodd"/></g><g><path clip-rule="evenodd" d="m473.942 387.928v35.122c0 2.75-2.268 4.989-5.017 4.989h2.891 27.666c2.75 0 5.017-2.239 5.017-4.989v-35.122c0-2.75-2.268-4.989-5.017-4.989h-30.558c2.751 0 5.018 2.24 5.018 4.989z" fill="#fbba58" fill-rule="evenodd"/></g><g><path clip-rule="evenodd" d="m17.081 303.028c-1.191 4.649-1.928 9.355-2.211 14.089.85.057 1.871.255 3.146.51 7.965 1.701 15.562 4.649 22.45 8.816 2.523 1.531 4.961 3.203 7.257 5.046 1.332 1.049 2.636 2.154 3.883 3.317 4.365 4.054 8.221 8.703 11.48 13.919 1.843 2.977 3.402 6.066 4.734 9.185.17.397.34.794.482 1.162 1.219-7.172 3.458-14.202 6.775-20.807-1.332-3.147-2.92-6.208-4.762-9.185-5.811-9.383-13.578-16.867-22.592-22.281-6.888-4.167-14.485-7.115-22.479-8.844-5.725-1.22-6.689-.596-8.163 5.073z" fill="#7fdbae" fill-rule="evenodd"/></g><g><path clip-rule="evenodd" d="m112.864 306.742c3.317 20.325-.992 41.245-13.805 58.282-5.471 7.257-12.047 13.238-19.389 17.915h24.69c9.383-4.989 17.773-11.963 24.491-20.864 12.784-17.037 17.093-37.957 13.776-58.282-1.02-6.321-2.041-7.087-8.391-6.321-7.654.935-15.109 2.891-22.082 5.896.257.907.483 2.013.71 3.374z" fill="#26bb9e" fill-rule="evenodd"/></g><g><path d="m258.658 92.7c-1.912 0-3.821-.729-5.283-2.189l-.028-.028c-2.929-2.93-2.929-7.678 0-10.607 2.93-2.928 7.678-2.928 10.607 0 2.929 2.93 2.942 7.692.014 10.621-1.468 1.467-3.39 2.203-5.31 2.203z"/></g><g><path d="m257.949 129.07c-1.912 0-3.821-.729-5.283-2.189l-.028-.028c-2.929-2.93-2.929-7.678 0-10.607 2.93-2.928 7.678-2.928 10.607 0 2.929 2.93 2.942 7.692.014 10.621-1.468 1.467-3.39 2.203-5.31 2.203z"/></g><g><path d="m224.663 111.063c-4.143 0-7.5-3.344-7.5-7.486v-.028c0-4.143 3.357-7.5 7.5-7.5s7.5 3.357 7.5 7.5-3.357 7.514-7.5 7.514z"/></g><g><path d="m342.981 182.355c-4.143 0-7.5-3.343-7.5-7.485v-.028c0-4.143 3.357-7.5 7.5-7.5s7.5 3.357 7.5 7.5-3.357 7.513-7.5 7.513z"/></g><g><path d="m354.47 297.736c-1.912 0-3.821-.729-5.283-2.189l-.028-.028c-2.929-2.93-2.929-7.678 0-10.607 2.93-2.928 7.678-2.928 10.607 0 2.929 2.93 2.942 7.692.014 10.621-1.468 1.467-3.39 2.203-5.31 2.203z"/></g><g><path d="m148.921 259.631c-4.143 0-7.5-3.344-7.5-7.486v-.028c0-4.143 3.357-7.5 7.5-7.5s7.5 3.357 7.5 7.5-3.358 7.514-7.5 7.514z"/></g><g><path d="m174.943 287.24c-4.143 0-7.5-3.343-7.5-7.485v-.028c0-4.143 3.357-7.5 7.5-7.5s7.5 3.357 7.5 7.5-3.357 7.513-7.5 7.513z"/></g><g><path d="m343.272 260.375c-1.912 0-3.821-.729-5.283-2.189l-.028-.028c-2.929-2.93-2.929-7.678 0-10.607 2.93-2.928 7.678-2.928 10.607 0 2.929 2.93 2.942 7.692.014 10.621-1.468 1.467-3.39 2.203-5.31 2.203z"/></g><g><path d="m440.274 260.46c-1.912 0-3.821-.729-5.283-2.189l-.028-.028c-2.929-2.93-2.929-7.678 0-10.607 2.93-2.928 7.678-2.928 10.607 0 2.929 2.93 2.942 7.692.014 10.621-1.468 1.467-3.39 2.203-5.31 2.203z"/></g><g><path d="m323.288 320.414c-1.954 0-3.904-.761-5.372-2.279l-.028-.029c-2.879-2.979-2.798-7.727.18-10.605s7.725-2.798 10.605.18c2.879 2.979 2.813 7.741-.166 10.62-1.459 1.41-3.341 2.113-5.219 2.113z"/></g><g><path d="m427.15 297.595c-1.912 0-3.821-.729-5.283-2.189l-.028-.028c-2.929-2.93-2.929-7.678 0-10.607 2.93-2.928 7.678-2.928 10.607 0 2.929 2.93 2.942 7.692.014 10.621-1.468 1.466-3.39 2.203-5.31 2.203z"/></g><g><path d="m357.786 151.352c-1.912 0-3.821-.729-5.283-2.189l-.028-.028c-2.929-2.93-2.929-7.678 0-10.607 2.93-2.928 7.678-2.928 10.607 0 2.929 2.93 2.942 7.692.014 10.621-1.468 1.466-3.39 2.203-5.31 2.203z"/></g><g><path clip-rule="evenodd" d="m92.738 448.11v20.07c0 2.75-2.268 4.989-5.017 4.989h30.558c2.75 0 5.017-2.239 5.017-4.989v-20.07-20.07h-30.558-52.554v20.07z" fill="#ce8b6b" fill-rule="evenodd"/></g><g><path clip-rule="evenodd" d="m441.259 448.11v20.07c0 2.75-2.268 4.989-5.017 4.989h30.558c2.75 0 5.017-2.239 5.017-4.989v-20.07-20.07h-2.891-27.666-52.555v20.07z" fill="#ce8b6b" fill-rule="evenodd"/></g></g><path d="m499.482 375.439h-19.114c.896-2.445 1.385-5.084 1.385-7.836v-141.396c0-12.592-10.244-22.836-22.835-22.836h-64.518c.892-2.437 1.379-5.066 1.379-7.808v-141.424c0-12.576-10.244-22.808-22.836-22.808h-82.602-9.921-131.386c-12.591 0-22.835 10.231-22.835 22.808v51.763c0 4.143 3.357 7.5 7.5 7.5s7.5-3.357 7.5-7.5v-51.763c0-4.305 3.515-7.808 7.835-7.808h131.387 9.921c4.32 0 7.836 3.503 7.836 7.808v141.425c0 4.305-3.516 7.808-7.836 7.808h-141.308c-4.32 0-7.835-3.503-7.835-7.808v-55.022c0-4.143-3.357-7.5-7.5-7.5s-7.5 3.357-7.5 7.5v55.022c0 2.741.487 5.371 1.379 7.808h-64.518c-12.592 0-22.836 10.244-22.836 22.836v68.511c-4.285-1.716-8.76-3.104-13.417-4.1-9.591-2.04-14.511 1.008-16.99 10.546-5.38 20.967-2.307 42.278 8.654 60.013 3.238 5.228 7.101 10.005 11.488 14.263h-17.47c-6.886-.002-12.489 5.601-12.489 12.488v35.122c0 6.887 5.603 12.489 12.489 12.489h20.194v32.64c0 6.887 5.603 12.489 12.489 12.489h73.105c6.902 0 12.518-5.603 12.518-12.489v-32.64h84.428c4.143 0 7.5-3.357 7.5-7.5s-3.357-7.5-7.5-7.5h-200.223v-30.101h482v30.101h-247.137c-4.143 0-7.5 3.357-7.5 7.5s3.357 7.5 7.5 7.5h131.341v32.64c0 6.887 5.603 12.489 12.489 12.489h73.105c6.902 0 12.518-5.603 12.518-12.489v-32.64h20.166c6.902 0 12.518-5.603 12.518-12.489v-35.122c0-6.887-5.615-12.49-12.518-12.49zm-383.686 90.23h-68.112v-30.129h68.112zm196.003-419.338h61.145c4.32 0 7.836 3.503 7.836 7.808v141.425c0 4.305-3.516 7.808-7.836 7.808h-6.52-54.625c.892-2.437 1.379-5.066 1.379-7.808v-141.425c0-2.742-.488-5.371-1.379-7.808zm-251.999 329.108h-4.232c-10.102-5.091-18.499-12.721-24.34-22.154-8.709-14.091-11.19-31.082-7.012-47.879 16.938 3.763 31.028 13.555 39.723 27.619 1.056 1.707 2.014 3.46 2.884 5.235-5.096 11.511-7.519 24.171-7.023 37.179zm42.639 0h-27.628c-.734-16.081 3.877-31.506 13.264-44.007 11.113-14.776 27.827-24.193 47.06-26.515.026-.003.052-.006.077-.009.004.026.009.053.013.08.001.004.002.009.002.009 3.119 19.116-1.275 37.787-12.36 52.56-5.533 7.33-12.398 13.339-20.428 17.882zm109.735 0h-85.102c2.781-2.753 5.39-5.696 7.779-8.862 13.57-18.084 18.961-40.809 15.18-63.987-1.663-10.287-6.344-13.806-16.691-12.564-23.328 2.816-43.661 14.319-57.256 32.396-.21.279-.4.569-.606.851-5.392-8.171-12.248-15.118-20.253-20.587v-76.479c0-4.32 3.516-7.836 7.836-7.836h149.114v157.068zm171.978-7.835c0 4.32-3.515 7.836-7.835 7.836h-149.143v-157.069h149.144c4.32 0 7.835 3.516 7.835 7.836v141.397zm82.602 0c0 4.32-3.515 7.836-7.835 7.836h-61.152c.896-2.445 1.385-5.084 1.385-7.836v-141.397c0-2.751-.489-5.391-1.385-7.836h61.152c4.32 0 7.835 3.516 7.835 7.836zm-2.438 98.065h-68.112v-30.129h68.112z"/></g></svg>