<svg id="Layer_1" enable-background="new 0 0 511.193 511.193" height="512" viewBox="0 0 511.193 511.193" width="512" xmlns="http://www.w3.org/2000/svg"><g><g><path clip-rule="evenodd" d="m426.508 112.815c-2.324-.34-4.705-.51-7.086-.51h-45.75c-2.381 0-4.762.17-7.086.51-24.491 3.458-43.511 24.662-43.511 50.117v10.658l75.967 9.836 70.978-9.836v-10.658c-.001-25.455-19.021-46.659-43.512-50.117z" fill="#bed8fb" fill-rule="evenodd"/></g><g><path clip-rule="evenodd" d="m462.705 207.776-68.427-19.332-63.863 19.332c4.337 11.48 6.831 26.107 7.625 43.909 1.247 29.339-2.154 67.266-9.666 113.726 22.166 7.398 45.098 22.706 68.172 22.536 23.073.17 46.005-15.137 68.172-22.536-7.512-46.46-10.913-84.388-9.638-113.726.766-17.802 3.26-32.429 7.625-43.909z" fill="#ecf4ff" fill-rule="evenodd"/></g><g><path clip-rule="evenodd" d="m396.546 376.211c-23.073.198-46.005-3.402-68.172-10.8-2.835-.964-5.669-1.956-8.475-3.033-8.362-3.203-15.477 3.231-15.477 11.452l-.028 36.312h16.015l86.483 22.536 65.791-22.536h16.015l-.028-36.312c0-8.221-7.115-14.655-15.477-11.452-2.806 1.077-5.641 2.069-8.475 3.033-22.167 7.399-45.098 10.999-68.172 10.8z" fill="#4fc9af" fill-rule="evenodd"/></g><g><path clip-rule="evenodd" d="m470.019 173.59h-146.945-2.664c-5.924 0-10.8 4.876-10.8 10.8v12.586c0 5.953 4.875 10.8 10.8 10.8h10.006 132.29 9.978c5.924 0 10.8-4.847 10.8-10.8v-12.586c0-5.924-4.875-10.8-10.8-10.8z" fill="#4fc9af" fill-rule="evenodd"/></g><g><path clip-rule="evenodd" d="m426.508 112.815c-2.324-.34-4.705-.51-7.086-.51h-22.875-3.316c2.381 0 4.705.17 6.973.51 24.519 3.458 43.539 24.662 43.539 50.117v10.658h26.277v-10.658c-.001-25.455-19.021-46.659-43.512-50.117z" fill="#8eaadf" fill-rule="evenodd"/></g><g><path clip-rule="evenodd" d="m470.019 173.59h-23.64c5.953 0 10.8 4.876 10.8 10.8v12.586c0 3.26-1.446 6.208-3.77 8.192-1.871 1.616-4.337 2.608-7.03 2.608h16.327 9.978c5.924 0 10.8-4.847 10.8-10.8v-12.586c0-5.924-4.875-10.8-10.8-10.8z" fill="#26bb9e" fill-rule="evenodd"/></g><g><path clip-rule="evenodd" d="m473.193 362.378c-2.806 1.077-5.641 2.069-8.475 3.033-1.417.454-2.835.964-4.224 1.502 1.191 1.956 1.871 4.337 1.899 6.917l.028 36.312h10.261 16.015l-.028-36.312c.001-8.22-7.114-14.655-15.476-11.452z" fill="#26bb9e" fill-rule="evenodd"/></g><g><path clip-rule="evenodd" d="m436.4 208.711c-4.11 11.367-6.576 25.682-7.483 42.973-.057 1.02-.085 2.041-.142 3.061-1.247 30.416 2.069 69.648 9.411 117.638 8.929-1.729 17.801-4.054 26.532-6.973-7.512-46.46-10.913-84.388-9.638-113.726.765-17.802 3.26-32.428 7.625-43.909h-16.327-9.978-3.146z" fill="#ddeafb" fill-rule="evenodd"/></g><g><path clip-rule="evenodd" d="m114.619 112.305h-22.847c-2.409 0-4.79.17-7.086.51-24.519 3.458-43.539 24.662-43.539 50.117v10.658l78.518 16.101 68.427-16.101v-10.658c0-25.455-19.02-46.658-43.511-50.117-2.324-.34-4.677-.51-7.086-.51z" fill="#bed8fb" fill-rule="evenodd"/></g><g><path clip-rule="evenodd" d="m182.791 365.411c-7.512-46.46-10.913-84.388-9.638-113.726.765-17.802 3.26-32.428 7.625-43.909l-67.038-6.095-65.252 6.095c4.337 11.48 6.831 26.107 7.625 43.909 1.247 29.339-2.154 67.266-9.666 113.726 20.126 21.345 48.641 24.151 71.715 23.981 23.074.171 45.325-5.697 64.629-23.981z" fill="#ecf4ff" fill-rule="evenodd"/></g><g><path clip-rule="evenodd" d="m188.091 173.59h-146.944-2.665c-5.924 0-10.771 4.876-10.771 10.8v12.586c0 5.953 4.847 10.8 10.771 10.8h10.006 132.29 9.978c5.924 0 10.8-4.847 10.8-10.8v-12.586c0-5.924-4.875-10.8-10.8-10.8z" fill="#f37c7c" fill-rule="evenodd"/></g><g><path clip-rule="evenodd" d="m182.791 365.411c-22.166 7.398-45.098 10.998-68.172 10.8-23.073.198-46.005-3.402-68.172-10.8-2.835-.964-5.669-1.956-8.475-3.033-8.334-3.203-15.477 3.231-15.477 11.452l-.028 36.312 91.273 22.536 93.031-22.536-.028-36.312c0-8.221-7.115-14.655-15.477-11.452-2.806 1.077-5.641 2.069-8.475 3.033z" fill="#f37c7c" fill-rule="evenodd"/></g><g><path clip-rule="evenodd" d="m114.619 112.305h-5.953c2.381 0 4.705.17 6.973.51 24.519 3.458 43.539 24.662 43.539 50.117v10.658h28.913v-10.658c0-25.455-19.02-46.658-43.511-50.117-2.324-.34-4.677-.51-7.086-.51z" fill="#8eaadf" fill-rule="evenodd"/></g><g><path clip-rule="evenodd" d="m201.555 184.39c0-5.924-4.875-10.8-10.8-10.8h-2.665-26.277c3.458 0 6.548 1.644 8.532 4.195 1.417 1.814 2.268 4.11 2.268 6.605v12.586c0 4.11-2.324 7.71-5.726 9.553-1.531.794-3.231 1.247-5.074 1.247h18.963 9.978c5.924 0 10.8-4.847 10.8-10.8v-12.586z" fill="#ee6161" fill-rule="evenodd"/></g><g><path clip-rule="evenodd" d="m191.266 362.378c-2.806 1.077-5.641 2.069-8.475 3.033-2.183.709-4.365 1.417-6.548 2.069.454.85.822 1.758 1.105 2.693.312 1.162.482 2.381.482 3.657l.028 36.312h12.897 16.015l-.028-36.312c.001-8.22-7.114-14.655-15.476-11.452z" fill="#ee6161" fill-rule="evenodd"/></g><g><path clip-rule="evenodd" d="m182.791 365.411c-7.512-46.46-10.913-84.388-9.638-113.726.765-17.802 3.26-32.428 7.625-43.909l-29.848.425c-4.337 12.302-6.831 27.978-7.597 47.027-1.247 30.586 1.956 69.903 9.042 117.865 10.262-1.786 20.41-4.337 30.416-7.682z" fill="#ddeafb" fill-rule="evenodd"/></g><g><path clip-rule="evenodd" d="m123.094 455.185-43.369-15.846-39.599 15.846v30.898c0 2.098 2.239 3.827 4.989 3.827h72.99c2.75 0 4.989-1.729 4.989-3.827z" fill="#e29d7b" fill-rule="evenodd"/></g><g><path clip-rule="evenodd" d="m471.039 455.185-39.429-15.846-43.539 15.846v30.898c0 2.098 2.239 3.827 4.989 3.827h72.99c2.75 0 4.989-1.729 4.989-3.827z" fill="#e29d7b" fill-rule="evenodd"/></g><g><path clip-rule="evenodd" d="m123.094 455.185h-41.47v30.898c0 2.098-2.268 3.827-5.017 3.827h41.498c2.75 0 4.989-1.729 4.989-3.827z" fill="#ce8b6b" fill-rule="evenodd"/></g><g><path clip-rule="evenodd" d="m457.206 455.185h-27.637v30.898c0 2.098-2.268 3.827-4.989 3.827h41.47c2.75 0 4.989-1.729 4.989-3.827v-30.898z" fill="#ce8b6b" fill-rule="evenodd"/></g><g><path clip-rule="evenodd" d="m12.489 410.142c-8.759 0-4.989 32.627-4.989 40.28.113 2.636 2.296 4.762 4.989 4.762h486.187c2.75 0 5.017-2.239 5.017-4.989v-35.065c0-2.721-2.268-4.989-5.017-4.989h-9.978c-158.736.001-317.473.001-476.209.001z" fill="#ffd772" fill-rule="evenodd"/></g><g><path clip-rule="evenodd" d="m498.676 410.142h-9.978-16.015-15.477c2.75 0 4.989 2.268 4.989 4.989v35.065c0 2.75-2.239 4.989-4.989 4.989h13.833 27.637c2.75 0 5.017-2.239 5.017-4.989v-35.065c0-2.721-2.267-4.989-5.017-4.989z" fill="#fbba58" fill-rule="evenodd"/></g><path d="m498.676 402.643h-2.484l-.022-28.813c0-6.774-3.156-12.989-8.441-16.625-4.946-3.4-11.137-4.085-17.009-1.905-10.231-66.546-11.104-112.513-2.65-140.024h4.614c10.09 0 18.3-8.21 18.3-18.301v-12.585c0-8.415-5.717-15.502-13.464-17.63v-3.828c0-32.052-26.063-58.127-58.097-58.127h-45.75c-32.035 0-58.098 26.075-58.098 58.127v3.828c-7.748 2.128-13.464 9.216-13.464 17.63v12.586c0 10.091 8.209 18.301 18.299 18.301h4.638c8.436 27.525 7.555 73.492-2.674 140.024-5.878-2.181-12.066-1.494-17.009 1.906-5.286 3.635-8.441 9.85-8.441 16.618l-.022 28.818h-33.817v-298.262c21.6-3.587 38.125-22.382 38.125-44.971 0-25.158-20.467-45.626-45.625-45.626s-45.625 20.468-45.625 45.626c0 22.589 16.525 41.384 38.125 44.971v298.261h-33.817l-.022-28.813c0-6.774-3.156-12.989-8.441-16.625-4.946-3.4-11.137-4.085-17.009-1.905-10.231-66.549-11.103-112.515-2.647-140.024h4.611c10.09 0 18.3-8.21 18.3-18.301v-12.584c0-8.415-5.717-15.502-13.464-17.63v-3.828c0-32.052-26.063-58.127-58.097-58.127h-45.727c-32.05 0-58.125 26.075-58.125 58.127v3.83c-7.732 2.131-13.436 9.216-13.436 17.628v12.586c0 10.091 8.196 18.301 18.271 18.301h4.635c8.438 27.523 7.558 73.489-2.672 140.024-5.867-2.181-12.047-1.495-16.993 1.902-5.295 3.639-8.457 9.854-8.457 16.622l-.022 28.818h-2.483c-6.887 0-12.49 5.602-12.49 12.488v35.065c0 6.886 5.603 12.488 12.489 12.488h20.137v23.398c0 6.245 5.603 11.326 12.489 11.326h72.99c6.886 0 12.489-5.081 12.489-11.326v-23.398h107.046c4.142 0 7.5-3.357 7.5-7.5s-3.358-7.5-7.5-7.5h-222.64v-30.042h481.193v30.042h-223.915c-4.142 0-7.5 3.357-7.5 7.5s3.358 7.5 7.5 7.5h108.292v23.398c0 6.245 5.603 11.326 12.489 11.326h72.991c6.886 0 12.489-5.081 12.489-11.326v-23.398h20.137c6.902 0 12.517-5.603 12.517-12.488v-35.065c0-6.886-5.615-12.488-12.517-12.488zm-383.082 79.766h-67.968v-19.725h67.968zm-66.948-319.477c0-18.662 11.917-34.589 28.539-40.583v13.341c0 4.143 3.358 7.5 7.5 7.5s7.5-3.357 7.5-7.5v-15.886h14.934v15.886c0 4.143 3.358 7.5 7.5 7.5s7.5-3.357 7.5-7.5v-15.886h14.961v15.886c0 4.143 3.358 7.5 7.5 7.5s7.5-3.357 7.5-7.5v-13.338c16.606 5.996 28.511 21.92 28.511 40.579v3.158h-131.945zm-10.164 37.344c-1.804 0-3.271-1.48-3.271-3.301v-12.585c0-1.789 1.498-3.3 3.271-3.3h152.274c1.789 0 3.3 1.511 3.3 3.3v12.586c0 1.789-1.511 3.301-3.3 3.301h-61.681c-4.142 0-7.5 3.357-7.5 7.5s3.358 7.5 7.5 7.5h41.479c-2.2 8.394-3.706 17.99-4.508 28.908h-102.844c-.799-10.917-2.301-20.513-4.497-28.908h38.878c4.142 0 7.5-3.357 7.5-7.5s-3.358-7.5-7.5-7.5h-59.101zm25.362 58.909h101.557c-.428 26.68 2.557 59.981 8.97 101.021-19.406 5.828-39.418 8.701-59.687 8.506-.044 0-.087 0-.131 0-20.27.208-40.287-2.674-59.687-8.503 6.414-41.04 9.401-74.342 8.978-101.024zm-33.871 143.458.022-28.813c0-1.804.748-3.438 1.951-4.264.923-.634 2.014-.696 3.353-.181 2.785 1.063 5.587 2.055 8.398 3 .159.063.322.115.486.167 22.802 7.606 46.441 11.365 70.436 11.158 23.988.213 47.633-3.55 70.444-11.161.161-.051.321-.102.477-.163 2.816-.947 5.621-1.941 8.41-3.005 1.333-.512 2.429-.452 3.352.183 1.198.824 1.942 2.458 1.942 4.271l.022 28.807h-169.293zm194.985-343.233c0-16.888 13.738-30.626 30.625-30.626s30.625 13.738 30.625 30.626c0 16.872-13.738 30.598-30.625 30.598s-30.625-13.726-30.625-30.598zm105.616 103.522c0-18.659 11.905-34.583 28.511-40.579v13.338c0 4.143 3.358 7.5 7.5 7.5s7.5-3.357 7.5-7.5v-15.886h14.961v15.886c0 4.143 3.358 7.5 7.5 7.5s7.5-3.357 7.5-7.5v-15.886h14.961v15.886c0 4.143 3.358 7.5 7.5 7.5s7.5-3.357 7.5-7.5v-13.338c16.606 5.996 28.511 21.92 28.511 40.579v3.158h-131.944zm-10.165 37.344c-1.789 0-3.299-1.512-3.299-3.301v-12.585c0-1.789 1.511-3.3 3.299-3.3h152.274c1.789 0 3.3 1.511 3.3 3.3v12.586c0 1.789-1.511 3.301-3.3 3.301h-62.361c-4.142 0-7.5 3.357-7.5 7.5s3.358 7.5 7.5 7.5h42.16c-2.199 8.39-3.695 17.998-4.498 28.908h-102.866c-.8-10.909-2.293-20.517-4.487-28.908h38.936c4.142 0 7.5-3.357 7.5-7.5s-3.358-7.5-7.5-7.5h-59.158zm25.355 58.909h101.571c-.43 26.681 2.549 59.975 8.963 101.021-19.407 5.828-39.42 8.701-59.687 8.506-.044 0-.087 0-.131 0-20.262.208-40.282-2.673-59.687-8.504 6.415-41.045 9.396-74.34 8.971-101.023zm-33.864 143.458.022-28.813c0-1.808.744-3.441 1.942-4.266.921-.634 2.018-.694 3.362-.179 2.786 1.063 5.588 2.056 8.4 3.001.153.061.312.111.471.161 22.81 7.613 46.472 11.387 70.449 11.162 23.999.213 47.638-3.55 70.448-11.162.159-.051.318-.101.471-.162 2.816-.947 5.621-1.941 8.411-3.005 1.333-.512 2.429-.452 3.352.183 1.198.824 1.942 2.458 1.942 4.271l.022 28.807h-169.292zm151.639 79.766h-67.968v-19.725h67.968z"/></g></svg>