<svg id="Layer_1" enable-background="new 0 0 511.997 511.997" height="512" viewBox="0 0 511.997 511.997" width="512" xmlns="http://www.w3.org/2000/svg"><g><g><path clip-rule="evenodd" d="m499.055 390.42-486.14 11.31c-2.891.085-5.301 2.324-5.414 5.188v27.242h496.997v-38.297c-.001-2.977-2.467-5.5-5.443-5.443z" fill="#e29d7b" fill-rule="evenodd"/></g><g><path clip-rule="evenodd" d="m504.497 434.16h-496.997v27.213c.113 2.891 2.523 5.131 5.414 5.216l486.14 11.311c3.005.057 5.443-2.466 5.443-5.443z" fill="#e29d7b" fill-rule="evenodd"/></g><g><path clip-rule="evenodd" d="m483.662 34.097h-430.269c-3.317 0-6.463.794-9.269 2.183l-11.565 92.667v194.036c0 11.452 9.383 20.835 20.835 20.835h430.27c11.452 0 20.835-9.383 20.835-20.835v-268.051c-.002-11.481-9.385-20.835-20.837-20.835z" fill="#f9f7f8" fill-rule="evenodd"/></g><path d="m508.093 386.599c-2.483-2.437-5.72-3.75-9.213-3.677l-486.14 11.311c-.013 0-.026.001-.04.001-7.121.203-12.7 5.887-12.7 12.939v53.973c0 7.051 5.578 12.734 12.74 12.941l486.173 11.312c.082.001.164.002.245.002 3.354 0 6.52-1.299 8.939-3.674 2.479-2.433 3.899-5.812 3.899-9.271v-76.594c.001-3.452-1.422-6.828-3.903-9.263zm-11.096 11.371v28.689h-481.997v-17.476zm-481.997 61.166v-17.476h481.997v28.69z"/><g><path clip-rule="evenodd" d="m483.662 34.097h-221.838c16.186 18.397 29.65 40.621 39.515 65.624 6.86.255 10.743 3.77 16.696 10.545.595.709 1.191 1.502 1.757 2.438 5.698-8.221 15.109-13.635 25.54-15.903 19.559-4.28 42.633 2.551 51.108 22.848 2.693-3.147 5.528-5.84 7.965-8.277 4.45-4.422 8.901-8.079 13.38-10.659 10.942-6.293 21.883-5.868 32.853 6.265 16.072 17.83 16.724 28.886 21.146 51.535 6.094 31.21 2.013 61.428-2.579 93.687-2.239 15.789-4.479 29.906-18.567 39.374-7.909 5.329-17.376 7.455-26.22 7.229-5.868-.142-11.452-1.332-16.101-3.317-7.455-3.175-12.444-6.18-15.789-10.12-10.006 17.405-27.269 23.301-42.548 20.268-10.12-2.013-19.389-7.909-25.087-16.98-5.499 9.808-14.343 11.537-24.293 12.416-6.236 15.393-13.833 29.736-22.592 42.747h205.653c11.452 0 20.835-9.383 20.835-20.835v-268.05c.001-11.481-9.382-20.835-20.834-20.835z" fill="#e5e4ed" fill-rule="evenodd"/></g><g><path clip-rule="evenodd" d="m318.035 110.265c-6.18-7.058-10.148-10.574-17.575-10.574-15.534 0-32.23-3.685-43.228.425-11.594 4.309-16.809 19.871-14.825 36.341 2.948 24.293 7.228 63.327 8.646 94.623 5.924 2.154 11.254 5.698 15.647 10.29 2.324 2.438 2.324 3.09 0 5.528-4.309 4.479-9.496 7.994-15.25 10.148 0 .283-.028.595-.028.879-.822 24.634-.34 41.557 15.647 44.363 4.082.737 16.469.113 29.225-.879 11.65-.907 22.337-1.559 28.602-12.756.907-1.644 1.729-3.515 2.438-5.641 8.419-24.974 9.326-72.795 5.499-112.17-4.45-1.106-8.759-2.976-12.728-5.698-1.077-.737-2.069-1.502-3.033-2.296-7.455-6.265-12.104-14.996-13.663-24.464-.539-3.317-.17-3.884 3.118-4.564 2.551-.539 5.131-.822 7.682-.879 4.479-.113 8.929.482 13.209 1.843-2.183-9.695-4.762-17.405-7.625-22.082-.568-.934-1.163-1.728-1.758-2.437z" fill="#e29d7b" fill-rule="evenodd"/></g><g><path clip-rule="evenodd" d="m471.785 158.512c-4.422-22.649-5.074-33.705-21.146-51.535-15.42-17.065-30.813-10.942-46.233 4.394-2.438 2.438-5.272 5.131-7.965 8.277-3.912 9.525-2.041 13.266-2.126 19.9l-1.786 145.818c3.345 3.94 8.334 6.945 15.789 10.12 11.707 4.989 29.168 4.932 42.321-3.912 14.088-9.468 16.328-23.585 18.567-39.374 4.592-32.259 8.674-62.478 2.579-93.688z" fill="#e29d7b" fill-rule="evenodd"/></g><g><path clip-rule="evenodd" d="m396.441 119.648c-13.011-31.125-60.293-30.587-76.649-6.945 7.427 61.06 2.778 85.637 7.54 170.31.142 2.239-1.531 3.997-2.438 5.641 14.372 22.791 50.995 25.597 67.634-3.288 5.301-9.184 8.561-21.572 8.447-37.56-1.871-.142-3.713-.397-5.556-.794-3.288-.68-3.657-1.219-3.118-4.536 1.162-7.03 3.997-13.607 8.419-19.106l-.907-86.374c-.084-6.604-1.275-12.387-3.372-17.348z" fill="#e29d7b" fill-rule="evenodd"/></g><g><path clip-rule="evenodd" d="m88.599 74.746c-9.014-18.851-25.257-32.117-44.475-38.467-5.981-1.984-7.087-1.446-9.326 4.422-5.839 15.506-6.831 32.372-2.069 48.332 16.781 19.503 43.001 16.838 61.852 20.353.34-.34.68-.68 1.049-.992.339-11.395-1.872-22.876-7.031-33.648z" fill="#4fc9af" fill-rule="evenodd"/></g><g><path clip-rule="evenodd" d="m88.599 74.746c-9.014-18.851-25.257-32.117-44.475-38.467-5.981-1.984-7.087-1.446-9.326 4.422-.68 1.871-1.304 3.742-1.871 5.613 17.887 6.69 32.938 19.56 41.471 37.418 3.657 7.71 5.868 15.761 6.69 23.925 4.734.482 9.298.964 13.493 1.729.34-.34.68-.68 1.049-.992.339-11.395-1.872-22.876-7.031-33.648z" fill="#26bb9e" fill-rule="evenodd"/></g><g><path clip-rule="evenodd" d="m209.383 240.889-1.134-109.08c-.482-46.263-56.551-51.393-77.669-27.298 21.061 28.035 1.928 171.67 11.027 188.168 22.932 18.284 65.792 8.788 67.719-45.355z" fill="#e29d7b" fill-rule="evenodd"/></g><g><path clip-rule="evenodd" d="m158.019 185.074v-26.704-10.687c0-11.906-3.515-19.276-7.937-24.974-6.69-8.618-13.238-14.57-19.502-18.199-13.124-7.597-25.115-5.159-34.951 3.884-.368.312-.709.652-1.049.992-5.811 5.726-10.857 13.748-14.882 23.386-.539 1.332-1.077 2.693-1.616 4.082-2.466 6.633-4.479 13.918-5.981 21.657-6.123 31.21-2.013 61.428 2.551 93.687 2.268 15.789 4.507 29.906 18.595 39.374 13.124 8.844 30.614 8.901 42.321 3.912 2.211-.935 4.224-1.871 6.038-2.806 15.335-8.051 16.413-17.093 16.413-45.214z" fill="#e29d7b" fill-rule="evenodd"/></g><g><path clip-rule="evenodd" d="m58.41 88.07c-8.759-1.587-17.461-1.162-25.682.964-7.795 2.013-15.165 5.528-21.77 10.347-2.239 1.616-3.345 2.665-3.458 3.94v.425c.085 1.049.765 2.268 1.928 4.025 5.896 8.901 13.776 16.215 23.131 21.175 5.357 2.835 11.168 4.876 17.376 6.01 10.233 1.843 20.353.964 29.764-2.183 4.025-9.638 9.071-17.66 14.882-23.386-9.128-10.914-21.601-18.681-36.171-21.317z" fill="#a7e9a6" fill-rule="evenodd"/></g><g><path clip-rule="evenodd" d="m130.58 104.511c-9.694-5.613-18.765-5.754-26.816-1.786 2.835.709 5.754 1.928 8.702 3.628 3.827 2.211 7.739 5.273 11.735 9.27 2.551 2.58 5.159 5.556 7.767 8.929 4.45 5.698 7.965 13.068 7.965 24.974v1.531c3.515.454 6.973 1.389 10.346 2.835 2.806 1.219 5.386 2.721 7.739 4.479v-10.687c0-11.906-3.515-19.276-7.937-24.974-6.688-8.618-13.236-14.571-19.501-18.199z" fill="#ce8b6b" fill-rule="evenodd"/></g><g><path clip-rule="evenodd" d="m158.019 185.074c-6.009.709-12.189.028-18.085-2.154v4.025 62.364c0 18.681-.482 28.942-5.301 36.086-2.438 3.628-5.981 6.435-11.14 9.128-1.786.935-3.798 1.871-6.038 2.835-1.106.482-2.296.907-3.515 1.276 7.824.68 15.505-.539 21.628-3.147 2.211-.935 4.224-1.871 6.038-2.806 15.335-8.051 16.413-17.093 16.413-45.214z" fill="#ce8b6b" fill-rule="evenodd"/></g><g><path clip-rule="evenodd" d="m208.249 131.809c-.368-33.138-29.225-45.157-53.348-40.48 17.575 3.515 32.853 16.441 33.08 40.48l1.162 109.08-.057 6.435c-1.134 31.607-16.214 48.02-33.109 52.527 22.989 6.095 51.76-8.362 53.348-52.527l-.057-.057-.312-.312v-.028l-.028-.028c-2.353-2.438-2.353-3.09 0-5.528l.454-.482z" fill="#ce8b6b" fill-rule="evenodd"/></g><g><path clip-rule="evenodd" d="m300.46 99.692c-3.883 0-7.824-.227-11.735-.51 4.649 1.276 8.079 4.592 12.841 10.007.595.68 1.162 1.502 1.757 2.438 2.069 3.373 3.997 8.362 5.726 14.514-4.932 1.587-21.572 2.41-20.551 8.618 1.899 11.452 10.517 33.28 28.318 40.055 3.827 39.403 2.438 82.15-5.953 107.095-.709 2.126-1.531 3.997-2.466 5.641-6.265 11.197-16.923 11.849-28.601 12.785-5.754.454-11.424.822-16.299 1.021 1.105.397 2.296.709 3.572.935 4.082.737 16.469.113 29.225-.879 11.65-.907 22.337-1.559 28.602-12.756.907-1.644 1.729-3.515 2.438-5.641 8.419-24.974 9.326-72.795 5.499-112.17-4.45-1.106-8.759-2.976-12.728-5.698-1.077-.737-2.069-1.502-3.033-2.296-7.455-6.265-12.104-14.996-13.663-24.464-.539-3.317-.17-3.884 3.118-4.564.539-.113 6.633 3.26 8.702 2.069.765-.425.85-1.672.709-2.976 3.883.085 7.739.68 11.48 1.871-2.183-9.695-4.762-17.405-7.625-22.082-.567-.935-1.162-1.729-1.757-2.438-6.181-7.06-10.149-10.575-17.576-10.575z" fill="#ce8b6b" fill-rule="evenodd"/></g><g><path clip-rule="evenodd" d="m381.389 137.734.907 86.374.255 24.435c.113 15.988-3.146 28.376-8.447 37.56-6.066 10.545-14.797 16.867-24.123 19.531 15.279 3.033 32.542-2.863 42.548-20.268 5.301-9.184 8.561-21.572 8.447-37.56-1.871-.142-3.713-.397-5.556-.794-3.288-.68-3.657-1.219-3.118-4.536 1.162-7.03 3.997-13.607 8.419-19.106l-.907-86.374c-.085-6.605-1.276-12.388-3.373-17.348-8.476-20.297-31.549-27.128-51.108-22.848 13.89 1.899 26.787 9.496 32.683 23.585 2.097 4.961 3.288 10.744 3.373 17.349z" fill="#ce8b6b" fill-rule="evenodd"/></g><g><path clip-rule="evenodd" d="m450.639 106.977c-10.97-12.133-21.912-12.558-32.853-6.265 4.677 1.304 9.383 4.337 14.088 9.553 16.101 17.83 16.724 28.886 21.146 51.535 6.123 31.21 2.041 61.428-2.551 93.687-2.268 15.789-4.507 29.906-18.595 39.374-2.353 1.587-4.876 2.891-7.455 3.94 8.844.227 18.312-1.899 26.22-7.229 14.088-9.468 16.328-23.585 18.567-39.374 4.592-32.259 8.674-62.477 2.579-93.687-4.422-22.648-5.074-33.703-21.146-51.534z" fill="#ce8b6b" fill-rule="evenodd"/></g><g><path clip-rule="evenodd" d="m439.952 209.792c-10.602-2.211-21.713-.425-30.954 5.925-3.203 2.183-5.953 4.762-8.277 7.654-4.422 5.499-7.257 12.076-8.419 19.106-.539 3.317-.17 3.855 3.118 4.536 1.842.397 3.685.652 5.556.794 8.844.68 17.773-1.446 25.427-6.69 9.241-6.35 14.91-16.073 16.696-26.76.538-3.346.17-3.884-3.147-4.565z" fill="#a7e9a6" fill-rule="evenodd"/></g><g><path clip-rule="evenodd" d="m428.982 208.942c1.304.595 1.389 1.559 1.02 3.94-1.786 10.715-7.455 20.438-16.696 26.76-3.855 2.665-8.022 4.507-12.359 5.613-2.523.624-5.074 1.02-7.625 1.162.51.227 1.191.425 2.098.595 1.842.397 3.685.652 5.556.794 8.844.68 17.773-1.446 25.427-6.69 9.241-6.35 14.91-16.073 16.696-26.76.539-3.345.17-3.884-3.146-4.564-3.629-.765-7.314-1.049-10.971-.85z" fill="#7fdbae" fill-rule="evenodd"/></g><g><path clip-rule="evenodd" d="m150.281 153.892c-8.164-3.515-16.923-3.997-25.2-1.956-2.154.539-4.252 1.247-6.321 2.126-3.118 1.304-3.373 1.899-2.183 5.074 2.154 5.783 5.499 11.027 9.893 15.279 3.317 3.203 7.2 5.84 11.622 7.767 6.435 2.778 13.266 3.657 19.928 2.891 3.968-.454 7.88-1.474 11.594-3.033 3.118-1.332 3.373-1.928 2.183-5.074-2.75-7.427-7.455-13.918-13.776-18.596-2.354-1.757-4.934-3.259-7.74-4.478z" fill="#a7e9a6" fill-rule="evenodd"/></g><g><path clip-rule="evenodd" d="m150.281 153.892c-3.373-1.446-6.831-2.381-10.346-2.835-4.961-.652-10.006-.312-14.853.879-2.154.539-4.252 1.247-6.321 2.126-2.523 1.049-3.175 1.644-2.693 3.515 3.09-.624 6.236-.907 9.383-.822 15.902.51 32.23 12.076 36.17 27.752 2.721-.567 5.414-1.389 7.994-2.466 3.118-1.332 3.373-1.928 2.183-5.074-3.829-10.347-11.369-18.682-21.517-23.075z" fill="#7fdbae" fill-rule="evenodd"/></g><g><path clip-rule="evenodd" d="m354.205 166.506c-1.786-10.715-7.455-20.41-16.696-26.76-3.175-2.183-6.576-3.827-10.091-4.961-4.28-1.361-8.731-1.956-13.209-1.843-2.551.057-5.131.34-7.682.879-3.288.68-3.657 1.247-3.118 4.564 1.559 9.468 6.208 18.199 13.663 24.464.964.794 1.956 1.559 3.033 2.296 3.968 2.721 8.277 4.592 12.728 5.698 5.953 1.446 12.189 1.474 18.227.227 3.315-.68 3.683-1.247 3.145-4.564z" fill="#a7e9a6" fill-rule="evenodd"/></g><g><path clip-rule="evenodd" d="m327.417 134.786c-1.786-.567-3.6-.992-5.414-1.304-2.013-.34-4.025-.51-6.066-.567-.567 0-1.134 0-1.729.028-2.551.057-5.131.34-7.654.879 0 0 0 0-.028 0-2.778.595-3.487 1.077-3.288 3.203 19.644-.028 35.773 13.833 39.005 33.591.085.51.17.964.198 1.361 2.863-.028 5.783-.312 8.617-.907 3.317-.68 3.685-1.247 3.146-4.564-1.786-10.715-7.455-20.41-16.696-26.76-3.174-2.182-6.576-3.826-10.091-4.96z" fill="#7fdbae" fill-rule="evenodd"/></g><g><path clip-rule="evenodd" d="m247.764 218.183c-6.576.51-13.153 2.154-19.446 5.017-14.939 6.775-25.682 19.219-31.181 34.073l-.312.935c-1.672 4.734-1.276 5.641 3.402 7.512l.822.312c14.825 5.698 31.294 5.84 46.261-.964 6.491-2.948 12.189-6.973 17.008-11.792 6.52-6.492 11.395-14.457 14.485-23.216 1.672-4.734 1.276-5.641-3.402-7.512-8.815-3.543-18.254-5.074-27.637-4.365z" fill="#a7e9a6" fill-rule="evenodd"/></g><g><path clip-rule="evenodd" d="m254.879 232.498c-1.843 4.309-4.139 8.419-6.945 12.218-4.025 5.499-9.071 10.318-15.052 14.202-7.965 5.188-16.809 8.164-25.852 9.099 13.181 3.628 27.298 2.948 40.28-2.948 6.491-2.948 12.189-6.973 17.008-11.792 6.52-6.492 11.395-14.457 14.485-23.216 1.672-4.734 1.276-5.641-3.402-7.512-5.301-2.126-10.828-3.515-16.441-4.167-.057.369-.113.765-.198 1.191-.85 4.45-2.154 8.787-3.883 12.925z" fill="#7fdbae" fill-rule="evenodd"/></g><path clip-rule="evenodd" d="m94.577 109.389c-3.85 3.79-7.37 8.6-10.47 14.22-21.45-16.45-51.06-26.77-72.18-12.32-.21-.29-.43-.57-.64-.86-.25-.33-.49-.67-.73-1.01-.38-.54-.76-1.09-1.13-1.65-1.16-1.76-1.84-2.97-1.93-4.02v-.43c.12-1.27 1.22-2.32 3.46-3.94 6.61-4.82 13.98-8.33 21.77-10.35 8.22-2.12 16.92-2.55 25.68-.96 14.57 2.639 27.05 10.4 36.17 21.32z" fill="#7fdbae" fill-rule="evenodd"/><g><path d="m483.662 26.596h-291.939c-4.142 0-7.5 3.357-7.5 7.5s3.358 7.5 7.5 7.5h291.939c7.353 0 13.335 5.982 13.335 13.336v268.05c0 7.354-5.982 13.336-13.335 13.336h-100.885c-4.143 0-7.5 3.357-7.5 7.5s3.357 7.5 7.5 7.5h100.885c15.624 0 28.335-12.712 28.335-28.336v-268.05c0-15.624-12.711-28.336-28.335-28.336z"/><path d="m299.609 241.582c-4.143 0-7.5 3.357-7.5 7.5v8.334c0 4.143 3.357 7.5 7.5 7.5s7.5-3.357 7.5-7.5v-8.334c0-4.143-3.357-7.5-7.5-7.5z"/><path d="m304.35 195.228-7.653-3.316c-3.801-1.646-8.216.099-9.864 3.899-1.646 3.801.1 8.217 3.899 9.864l7.653 3.316c.972.421 1.983.62 2.979.62 2.898 0 5.659-1.69 6.886-4.52 1.646-3.799-.101-8.216-3.9-9.863z"/><path d="m125.089 249.226c-2.958-2.9-7.706-2.854-10.606.103s-2.854 7.706.103 10.606l5.896 5.783c1.46 1.432 3.356 2.146 5.251 2.146 1.944 0 3.886-.751 5.355-2.248 2.9-2.957 2.854-7.706-.103-10.606z"/><path d="m119.287 205.313c0-4.143-3.358-7.5-7.5-7.5h-8.334c-4.142 0-7.5 3.357-7.5 7.5s3.358 7.5 7.5 7.5h8.334c4.142 0 7.5-3.357 7.5-7.5z"/><path d="m369.625 192.938c-4.143 0-7.5 3.357-7.5 7.5v8.362c0 4.143 3.357 7.5 7.5 7.5s7.5-3.357 7.5-7.5v-8.362c0-4.143-3.357-7.5-7.5-7.5z"/><path d="m361.113 256.712-6.491 5.244c-3.223 2.603-3.725 7.325-1.121 10.547 1.482 1.835 3.65 2.787 5.839 2.787 1.654 0 3.32-.545 4.708-1.666l6.491-5.244c3.223-2.603 3.725-7.325 1.121-10.547-2.602-3.221-7.323-3.724-10.547-1.121z"/><path d="m425.488 168.003 6.491 5.244c1.388 1.121 3.053 1.666 4.708 1.666 2.188 0 4.357-.952 5.839-2.787 2.604-3.222 2.102-7.944-1.121-10.547l-6.491-5.244c-3.222-2.604-7.944-2.104-10.547 1.121-2.603 3.222-2.101 7.945 1.121 10.547z"/><path d="m393.973 296.464c3.057 2.03 6.77 3.948 11.404 5.921 5.709 2.434 12.836 3.938 20.402 3.938 9.645 0 20.002-2.444 29.043-8.524 17.124-11.507 19.613-29.06 21.809-44.542 4.415-31.012 8.979-63.08 2.516-96.182-.443-2.269-.848-4.42-1.234-6.473-3.518-18.698-5.843-31.052-21.709-48.653-7.425-8.218-15.606-12.5-24.317-12.728-10.409-.281-21.101 5.234-32.755 16.846-.392.393-.8.795-1.209 1.198-5.77-7.77-14.02-13.565-24.274-16.704-18.982-5.808-40.382-1.183-53.662 10.728-5.233-5.367-10.737-9.097-19.526-9.097-4.813 0-9.921-.388-14.86-.764-11.343-.863-22.058-1.676-30.981 1.658-14.307 5.318-22.207 23.109-19.657 44.275 2.349 19.364 5.807 45.187 7.514 73.907-5.915.894-11.712 2.583-17.255 5.102-2.98 1.352-5.826 2.918-8.534 4.669l-.938-89.309c-.226-21.675-11.424-38.212-30.723-45.371-19.194-7.121-41.735-3.241-55.944 9.073-8.392-3.524-15.709-3.413-21.405-2.059-1.785.425-3.536 1.007-5.254 1.729-1.108-8.188-3.461-16.084-7.056-23.589-5.713-11.965-14.2-22.12-24.749-29.919h86.466c4.142 0 7.5-3.357 7.5-7.5s-3.358-7.5-7.5-7.5h-103.692c-3.372 0-6.654.594-9.794 1.758-7.953-1.832-12.517 1.048-15.82 9.704-5.694 15.122-7.042 30.866-4.01 45.96-6.005 2.258-11.793 5.352-17.212 9.29-7.425 5.382-8.439 10.943-3.373 18.617 5.879 8.836 13.335 16.044 21.875 21.336v189.721c0 15.624 12.711 28.336 28.335 28.336h294.746c4.143 0 7.5-3.357 7.5-7.5s-3.357-7.5-7.5-7.5h-294.747c-7.353 0-13.335-5.982-13.335-13.336v-182.8c2.786.891 5.633 1.626 8.547 2.155 3.91.704 7.88 1.055 11.858 1.055 2.573 0 5.148-.154 7.712-.446-1.315 4.473-2.469 9.181-3.435 14.123-6.462 32.94-1.914 65.091 2.487 96.198 2.225 15.49 4.746 33.048 21.828 44.527 9.034 6.088 19.39 8.534 29.038 8.534 7.565 0 14.695-1.505 20.406-3.938.826-.351 1.626-.704 2.402-1.059 7.555 4.79 16.432 7.315 25.342 7.315 4.674 0 9.357-.693 13.857-2.112 13.969-4.406 24.759-14.915 30.913-29.921 4.089.754 8.196 1.145 12.283 1.145 6.867 0 13.673-1.072 20.226-3.198.095 17.335 3.202 31.775 22.21 35.111.799.144 2.428.438 7.106.438 4.513 0 11.861-.274 24.038-1.22l.63-.05c8.929-.697 19.321-1.518 27.337-8.378 8.634 8.605 20.483 13.449 32.753 13.449 4.37 0 8.793-.612 13.139-1.885 9.337-2.731 17.168-8.08 23.238-15.559zm15.756-179.78c8.579-8.549 15.71-12.639 21.764-12.469 4.51.118 8.952 2.667 13.576 7.783 13.039 14.466 14.731 23.46 18.103 41.377.393 2.085.804 4.27 1.253 6.574 5.979 30.618 1.596 61.412-2.644 91.197-2.331 16.439-4.526 26.945-15.327 34.203-11.403 7.669-26.238 7.053-35.197 3.235-4.146-1.765-7.208-3.356-9.505-4.964 3.621-8.158 5.848-17.71 6.493-28.374 8.03-.679 15.699-3.362 22.405-7.95 10.6-7.283 17.648-18.543 19.847-31.706.002-.014.005-.028.007-.042 1.182-7.328-1.777-11.614-9.02-13.099-11.755-2.451-23.476-.651-33.429 5.028l-.741-70.561c-.058-5.514-.854-10.709-2.317-15.51 1.035-1.069 4.211-4.202 4.732-4.722zm-4.264 112.847c.078-.109.158-.217.238-.326.217-.297.44-.589.667-.878 1.945-2.463 4.247-4.631 6.875-6.43 6.278-4.314 13.873-6.15 21.701-5.312-2.053 7.604-6.51 14.032-12.778 18.339-6.284 4.3-13.881 6.136-21.712 5.295 1.051-3.89 2.751-7.516 5.009-10.688zm-323.63-151.544c2.148 4.484 3.747 9.145 4.803 13.949-8.023-5.652-17.102-9.476-26.892-11.246-7.148-1.295-14.353-1.407-21.418-.409-2.27-12.09-1.109-24.711 3.464-36.872 18.01 5.936 32.229 18.213 40.043 34.578zm-30.562 49.589c-14.014-2.541-26.353-10.652-34.86-22.871 12.246-8.508 26.635-11.794 40.663-9.255 10.337 1.871 19.681 6.704 27.357 14.075-3.799 4.797-7.228 10.523-10.217 17.064-7.569 2.033-15.273 2.369-22.943.987zm99.247 119.889c0 26.431-.979 32.57-11.51 38.159-.558.206-1.098.471-1.6.811-1.435.698-3.017 1.402-4.781 2.151-8.967 3.821-23.805 4.44-35.197-3.237-10.778-7.244-12.991-17.759-15.352-34.2-4.419-31.234-8.593-60.736-2.617-91.198 3.948-20.206 11.414-36.377 20.349-45.172.075-.073.149-.146.221-.221 3.522-3.41 7.269-5.675 11.117-6.591 5.374-1.277 10.707.172 15.688 3.062h.001c6.65 3.859 12.671 10.292 17.319 16.278 2.797 3.604 5.981 8.951 6.328 18.622-11.118-3.967-23.303-3.563-34.618 1.213-6.86 2.869-8.926 7.651-6.314 14.62 4.642 12.486 13.72 22.182 25.579 27.311 4.936 2.122 10.124 3.339 15.389 3.676v54.716zm-9.451-72.167c-7.019-3.035-12.628-8.485-16.075-15.539 7.505-2.329 15.313-1.99 22.31 1.017 7.012 3.032 12.616 8.479 16.074 15.562-1.961.605-3.943 1.024-5.926 1.265-.153.011-.303.028-.453.049-5.453.587-10.901-.192-15.93-2.354zm48.685 80.413c-2.901 8.212-.866 13.217 6.775 16.579-4.516 10.066-11.779 17.048-20.939 19.937-6.567 2.072-13.696 1.85-20.128-.403 9.526-9.583 10.057-22.476 10.057-44.358v-56.151c2.37-.611 4.722-1.402 7.04-2.377 6.827-2.917 8.872-7.7 6.27-14.577-2.866-7.736-7.436-14.398-13.309-19.573v-7.103c0-11.813-3.022-21.21-9.513-29.574-4.569-5.885-9.021-10.501-13.306-14.108 10.193-6.389 24.966-8.085 37.108-3.578 7.729 2.866 20.725 10.767 20.941 31.465l1.075 102.366c-5.162 6.219-9.262 13.444-12.071 21.455zm143.507-109.783c6.29 4.321 10.752 10.76 12.796 18.348-7.801.838-15.406-1.003-21.705-5.313-6.307-4.333-10.769-10.764-12.801-18.35 7.831-.846 15.432 1.002 21.71 5.315zm-89.049 112.311c-12.406 5.628-26.485 5.99-39.8 1.058 5.04-13.273 14.583-23.632 27.009-29.268 12.381-5.625 26.458-5.986 39.793-1.056-5.071 13.289-14.613 23.648-27.002 29.266zm76.013 22.381c-3.783 11.234-10.056 12.185-23.884 13.265l-.629.049c-21.771 1.692-26.57 1.107-27.348.969-7.311-1.283-9.769-7.525-9.644-27.537 12.471-8.001 21.963-20.079 27.155-34.806 3.015-8.536.715-13.611-7.693-16.975-6.828-2.727-13.84-4.338-20.835-4.866-2.017-28.024-5.398-57.873-7.495-75.156-1.651-13.698 2.551-25.648 10.003-28.419 5.843-2.183 14.958-1.489 24.606-.757 5.219.396 10.614.807 15.997.807 3.81 0 5.837 1.052 11.913 7.993.665.765 2.527 3.358 4.77 10.261-3.994-.154-8.064.184-12.137 1.031-7.246 1.501-10.19 5.789-9.001 13.112.001.005.002.009.003.014 2.161 13.146 9.21 24.413 19.861 31.732 3.128 2.14 6.465 3.86 9.945 5.165 3.549 41.333 1.332 83.593-5.587 104.118zm46.297 17.009c-11.962 3.499-25.206-.605-32.96-9.823.036-.09.066-.188.102-.278.269-.685.529-1.387.775-2.119.001-.003.002-.007.003-.011.002-.005.004-.01.005-.015.002-.005.003-.01.004-.016 8.402-24.969 9.397-69.502 6.645-105.909.418.011.836.023 1.255.023 3.377 0 6.796-.353 10.212-1.064 7.275-1.491 10.233-5.78 9.038-13.145-2.193-13.159-9.241-24.42-19.847-31.708-2.531-1.74-5.205-3.198-7.982-4.388-1.537-6.224-3.216-11.367-5.06-15.503 9.137-9.365 25.991-13.226 40.542-8.769 8.512 2.605 22.824 10.249 23.057 32.171l.881 83.812c-3.151 4.428-5.534 9.429-7.054 14.838-1.057 3.749-2.203 8.11-1 11.959 1.163 3.722 4.548 5.692 8.158 6.539-1.303 23.086-10.876 38.753-26.774 43.406z"/></g></g></svg>