<svg id="Layer_1" enable-background="new 0 0 512.003 512.003" height="512" viewBox="0 0 512.003 512.003" width="512" xmlns="http://www.w3.org/2000/svg"><g><g><path clip-rule="evenodd" d="m218.598 79.958c7.767 10.857 3.146 23.726-.142 27.723-5.386 6.576-8.022 15.335-8.022 24.52 0 9.184 2.636 17.943 8.022 24.52 2.891 3.543 6.86 13.975 2.381 23.868 8.872 18.624 17.121 10.715 41.329 9.581 8.419-.397 16.186.368 22.195-2.409 2.381-.737 3.968-.34 4.762-1.417 7.767-10.885 10.545-25.625 7.257-29.622-5.386-6.576-8.022-15.335-8.022-24.52 0-9.184 2.636-17.943 8.022-24.52 3.288-3.997 7.909-16.866.142-27.723-.397-.595-.822-1.191-1.191-1.786-6.293-9.638-18.425-20.211-14.457-32.117h-67.918c-3.685 11.055-2.126 20.948 3.146 30.019.767 1.304 1.589 2.608 2.496 3.883z" fill="#a7e9a6" fill-rule="evenodd"/></g><g><path clip-rule="evenodd" d="m286.403 107.681c-5.414 6.576-8.05 15.335-8.05 24.52 0 9.184 2.636 17.943 8.05 24.52 3.26 3.997 7.88 16.866.142 27.723-.794 1.106-1.502 2.211-2.183 3.317 6.151 9.354 5.102 15.42 11.792 20.466 5.698 6.917 61.795-16.894 61.087-28.998 3.572-9.468-.17-19.134-2.92-22.507-5.386-6.576-8.05-15.335-8.05-24.52 0-9.184 2.665-17.943 8.05-24.52 3.231-3.968 7.824-16.611.368-27.411-.085-.113-.142-.227-.227-.312-7.2-10.12-9.865-21.26-5.641-33.902h-67.947c-3.969 11.905-1.843 22.479 4.45 32.117.369.595.794 1.191 1.219 1.786 7.74 10.855 3.12 23.724-.14 27.721z" fill="#a7e9a6" fill-rule="evenodd"/></g><g><path d="m212.965 225.867c-1.912 0-3.821-.729-5.283-2.189l-.028-.028c-2.929-2.93-2.929-7.678 0-10.607 2.93-2.928 7.678-2.928 10.607 0 2.929 2.93 2.942 7.692.014 10.621-1.468 1.467-3.39 2.203-5.31 2.203z"/></g><g><path d="m243.381 150.607c-1.912 0-3.821-.729-5.283-2.189l-.028-.028c-2.929-2.93-2.929-7.678 0-10.607 2.93-2.928 7.678-2.928 10.607 0 2.929 2.93 2.942 7.692.014 10.621-1.468 1.467-3.39 2.203-5.31 2.203z"/></g><g><path d="m249.816 104.545c-1.912 0-3.821-.729-5.283-2.189l-.028-.028c-2.929-2.93-2.929-7.678 0-10.607 2.93-2.928 7.678-2.928 10.607 0 2.929 2.93 2.942 7.692.014 10.621-1.468 1.466-3.39 2.203-5.31 2.203z"/></g><g><path d="m322.204 138.327c-4.143 0-7.5-3.344-7.5-7.486v-.028c0-4.143 3.357-7.5 7.5-7.5s7.5 3.357 7.5 7.5c0 4.142-3.357 7.514-7.5 7.514z"/></g><g><path d="m309.967 86.431c-1.912 0-3.821-.729-5.283-2.189l-.028-.028c-2.929-2.93-2.929-7.678 0-10.607 2.93-2.928 7.678-2.928 10.607 0 2.929 2.93 2.942 7.692.014 10.621-1.468 1.467-3.39 2.203-5.31 2.203z"/></g><g><path d="m342.423 232.188c-1.912 0-3.821-.729-5.283-2.189l-.028-.028c-2.929-2.93-2.929-7.678 0-10.607 2.93-2.928 7.678-2.928 10.607 0 2.929 2.93 2.942 7.692.014 10.621-1.468 1.467-3.39 2.203-5.31 2.203z"/></g><g><path clip-rule="evenodd" d="m357.241 179.228c-9.241.454-18.17 4.819-24.491 12.132-3.373 3.912-4.45 6.265-10.772 6.123-10.148-.17-19.758 2.665-25.824 10.743 6.435 20.551-2.523 34.384 25.54 39.883l30.331 11.509 35.348-11.509h8.986c-.992-4.479-3.033-8.872-5.754-12.954-3.487-5.272-2.069-7.427-.595-12.359 4.507-15.08-1.276-31.748-15.562-39.572-5.5-3.004-11.396-4.252-17.207-3.996z" fill="#4fc9af" fill-rule="evenodd"/></g><g><path clip-rule="evenodd" d="m70.232 147.253c-1.361 6.406-1.106 9.666-8.192 13.38-12.784 6.69-22.479 17.206-22.479 32.428 0 5.839.992 11.622 3.997 16.186 5.102 7.767 3.685 16.724 1.871 23.272-.879 3.203-1.587 6.52-1.587 10.035 0 1.871.142 3.742.454 5.556l69.109 17.263 65.566-17.263c.283-1.814.425-3.685.425-5.556 0-3.515-.68-6.831-1.559-10.035-1.814-6.548-3.26-15.505 1.871-23.272 2.976-4.564 3.997-10.346 3.997-16.186 0-.964-.057-1.899-.113-2.835-1.134-13.691-10.403-23.329-22.365-29.594-7.087-3.713-6.832-6.973-8.221-13.38-4.167-19.474-20.75-34.469-41.386-34.469s-37.192 14.996-41.388 34.47z" fill="#a7e9a6" fill-rule="evenodd"/></g><g><path clip-rule="evenodd" d="m207.571 179.058c-9.95.482-17.858 4.734-23.981 11.169.057.935 1.077 2.835.113 2.835-16.81-.085-24.775 48.642-4.734 55.049l65.424 12.331 77.301-12.331c-1.672-13.691-9.893-26.107-19.219-33.194-4.592-3.487-5.584-4.337-6.321-6.69-.454-1.417-.794-3.402-1.786-6.831-1.644-5.613-5.244-10.233-10.006-13.635-6.435-4.62-14.967-7.002-23.386-6.605-3.742.17-7.285 1.077-10.687 2.211-6.945 2.268-16.498 4.28-25.115-.822-1.361-.822-2.806-1.446-4.337-1.956-4.11-1.39-8.674-1.73-13.266-1.531z" fill="#4fc9af" fill-rule="evenodd"/></g><g><path clip-rule="evenodd" d="m153.004 147.253c-4.167-19.474-20.75-34.469-41.386-34.469-12.586 0-23.669 5.584-31.351 14.372 20.013.652 35.943 15.392 40.025 34.469 1.389 6.378 1.134 9.638 8.221 13.351 11.962 6.293 21.232 15.902 22.365 29.622.085.907.113 1.842.113 2.806 0 3.855-.425 7.682-1.587 11.14-.595 1.786-1.389 3.487-2.409 5.046-5.131 7.767-3.685 16.724-1.871 23.272.113.425.227.85.312 1.247h33.534c.283-1.814.425-3.685.425-5.556 0-3.515-.68-6.831-1.559-10.035-1.814-6.548-3.26-15.505 1.871-23.272 2.976-4.564 3.997-10.346 3.997-16.186 0-.964-.057-1.899-.113-2.835-1.134-13.691-10.403-23.329-22.365-29.594-7.088-3.712-6.833-6.972-8.222-13.378z" fill="#7fdbae" fill-rule="evenodd"/></g><g><path clip-rule="evenodd" d="m284.362 187.76c-6.435-4.62-14.967-7.002-23.386-6.605-3.742.17-7.285 1.077-10.687 2.211-.454.142-.907.283-1.389.425 1.361.879 2.636 1.843 3.883 2.891 4.734 4.11 8.362 9.694 9.978 16.498.992 4.139 1.361 6.52 1.814 8.249.737 2.863 1.729 3.883 6.293 8.079 4.309 3.968 8.391 9.298 11.679 15.506.737 1.417 1.446 2.863 2.126 4.337 1.219 2.806 2.296 5.726 3.175 8.759h33.846c-1.672-13.691-9.893-26.107-19.219-33.194-4.592-3.487-5.584-4.337-6.321-6.69-.454-1.417-.794-3.402-1.786-6.831-1.644-5.613-5.244-10.234-10.006-13.635z" fill="#26bb9e" fill-rule="evenodd"/></g><g><path clip-rule="evenodd" d="m374.447 183.224c-5.499-3.005-11.395-4.252-17.206-3.997-4.309.227-8.532 1.276-12.473 3.09 2.353.652 4.649 1.587 6.888 2.806.567.312 1.134.652 1.672.992 13.068 8.164 18.198 24.094 13.89 38.579-1.474 4.932-2.891 7.087.595 12.359 2.324 3.515 4.167 7.228 5.272 11.055h14.287 8.986c-.992-4.479-3.033-8.872-5.754-12.954-3.487-5.272-2.069-7.427-.595-12.359 4.508-15.079-1.275-31.747-15.562-39.571z" fill="#26bb9e" fill-rule="evenodd"/></g><g><path clip-rule="evenodd" d="m502.205 46.056h-153.383c-13.465 14.57-7.257 24.945 5.641 33.902.113.057.142.198.227.312l145.021 4.365c.907.028 1.758-.227 2.495-.68v-37.899z" fill="#e29d7b" fill-rule="evenodd"/></g><g><path clip-rule="evenodd" d="m212.957 46.056h-48.898v23.811c0 2.636 2.154 4.705 4.791 4.791l47.254 1.417c4.819-7.71 6.122-17.235-3.147-30.019z" fill="#e29d7b" fill-rule="evenodd"/></g><g><path clip-rule="evenodd" d="m499.711 7.505-330.861 9.978c-2.636.057-4.791 2.154-4.791 4.791v23.783h48.898 67.918 67.947 153.383v-37.9c-.737-.425-1.587-.68-2.494-.652z" fill="#e29d7b" fill-rule="evenodd"/></g><g><path d="m229.228 225.874h-.028c-4.143 0-7.5-3.357-7.5-7.5s3.357-7.5 7.5-7.5 7.515 3.357 7.515 7.5-3.345 7.5-7.487 7.5z"/></g><g><path clip-rule="evenodd" d="m407.443 341.057-192.473-7.087-175.323 7.087c17.263 54.397 57.997 98.334 110.296 119.934l77.216 9.298 69.988-9.298c52.299-21.6 93.033-65.537 110.296-119.934z" fill="#fbc7b8" fill-rule="evenodd"/></g><g><path clip-rule="evenodd" d="m223.559 273.621c-64.318 0-128.608 8.986-192.927 8.986 0 20.381 3.175 40.025 9.014 58.45h367.796c5.839-18.425 9.014-38.069 9.014-58.45-64.317 0-128.607-8.986-192.897-8.986z" fill="#f37c7c" fill-rule="evenodd"/></g><g><path clip-rule="evenodd" d="m297.146 460.991h-147.203v38.324c0 2.835 2.324 5.187 5.187 5.187h136.829c2.863 0 5.187-2.353 5.187-5.187z" fill="#f37c7c" fill-rule="evenodd"/></g><g><path clip-rule="evenodd" d="m416.429 282.607c-9.638 0-19.304 0-28.97 0-.028 0-.057 0-.085 0-1.984 0-3.94 0-5.896 0 0 19.928-3.033 39.118-8.617 57.175-.142.425-.255.85-.397 1.276h34.98c5.839-18.425 9.014-38.069 9.014-58.45h-.029z" fill="#ee6161" fill-rule="evenodd"/></g><g><path clip-rule="evenodd" d="m372.463 341.057c-17.263 54.397-57.997 98.334-110.296 119.934h34.98c52.299-21.6 93.033-65.537 110.296-119.934z" fill="#fbb49e" fill-rule="evenodd"/></g><g><path clip-rule="evenodd" d="m297.146 460.991h-34.98v4.649 6.009 27.666c0 2.835-2.324 5.187-5.187 5.187h34.98c2.863 0 5.187-2.353 5.187-5.187z" fill="#ee6161" fill-rule="evenodd"/></g><g><path clip-rule="evenodd" d="m44.295 248.109h-19.559c-9.468 0-17.235 7.767-17.235 17.263s7.767 17.235 17.235 17.235h5.896 385.825 5.896c9.468 0 17.235-7.739 17.235-17.235s-7.767-17.263-17.235-17.263h-25.994c-117.354 0-234.709 0-352.064 0z" fill="#365e7d" fill-rule="evenodd"/></g><g><path clip-rule="evenodd" d="m422.353 248.109h-25.994-8.986c3.487 0 6.746 1.077 9.468 2.863 4.677 3.118 7.767 8.419 7.767 14.4 0 8.192-5.783 15.08-13.436 16.838-1.191.255-2.438.397-3.713.397h28.97.028 5.896c9.468 0 17.235-7.739 17.235-17.235s-7.767-17.263-17.235-17.263z" fill="#2b4d66" fill-rule="evenodd"/></g><path d="m508.236 3.416c-2.379-2.302-5.508-3.531-8.751-3.407l-330.796 9.976c-6.688.144-12.13 5.656-12.13 12.288v47.594c0 6.672 5.293 12.069 12.065 12.288l43.292 1.304c.197.287.379.576.583.863 5.47 7.646 1.716 16.711.155 18.607-6.268 7.653-9.72 18.049-9.72 29.271s3.452 21.618 9.712 29.262c.891 1.092 2.883 5.376 2.674 10.338-2.535-.273-5.222-.365-8.112-.234-7.017.34-13.452 2.228-19.239 5.628-4.057-9.359-11.887-17.239-23.263-23.205-3.027-1.586-3.027-1.586-3.887-5.946-.152-3.79-2.025-8.317-3.138-11.1-7.607-19.017-25.48-31.658-46.063-31.658-23.562 0-43.596 16.608-48.724 40.411-.176.829-.326 1.608-.469 2.345-.843 4.365-.843 4.365-3.863 5.947-17.338 9.072-26.502 22.584-26.502 39.073 0 8.203 1.761 15.036 5.229 20.305 2.718 4.137 3.008 9.587.907 17.17-.742 2.703-1.573 6.192-1.795 10.074h-11.665c-13.639 0-24.734 11.109-24.734 24.764 0 13.146 10.31 23.925 23.268 24.687 1.381 37.791 13.261 74.056 34.569 105.311 21.202 31.099 50.381 55.402 84.604 70.549v33.396c0 6.996 5.691 12.688 12.688 12.688h136.829c6.995 0 12.687-5.691 12.687-12.688v-33.396c34.225-15.146 63.403-39.449 84.605-70.549 21.308-31.254 33.188-67.52 34.569-105.311 12.958-.762 23.267-11.541 23.267-24.687 0-13.654-11.096-24.764-24.734-24.764h-20.459c-1.25-3.232-2.934-6.443-5.033-9.591-.404-.612-.949-1.292-.882-2.045.117-1.325.837-2.76 1.216-4.029 5.72-19.133-2.153-38.993-19.14-48.295-3.809-2.09-7.819-3.502-11.896-4.273.355-8.848-3.01-16.695-6.035-20.407-4.098-5.003-6.354-12.022-6.354-19.768s2.256-14.765 6.363-19.779c4.017-4.926 7.228-14.498 5.594-24.311l133.74 4.021c.132.004.263.007.395.007 3.13 0 6.09-1.204 8.372-3.414 2.394-2.317 3.766-5.554 3.766-8.879v-67.55c0-3.328-1.372-6.564-3.765-8.881zm-336.677 63.82v-13.68h32.124c-.52 4.969-.147 9.868 1.107 14.681zm14.43 146.108c3.424-5.251 5.172-11.994 5.208-20.034 4.819-4.23 10.318-6.45 16.712-6.76 5.745-.249 10.266.565 13.444 2.447 12.747 7.549 26.685 2.994 31.309 1.484 3.46-1.153 6.13-1.719 8.678-1.835 12.092-.585 23.192 5.796 25.825 14.835 1.009 3.48 1.475 7.273 3.395 10.408 1.778 2.903 4.717 4.974 7.379 6.999 6.314 4.798 11.435 12.033 14.235 19.722h-125.336c-.216-3.943-1.038-7.408-1.775-10.092-2.128-7.687-1.851-12.972.926-17.174zm38.72-137.733c-5.216-7.33-7.148-14.45-5.918-22.055h52.81c-1.114 10.638 1.831 20.948 8.836 30.756 5.443 7.636 1.698 16.735.176 18.603-6.294 7.645-9.76 18.045-9.76 29.286s3.466 21.642 9.737 29.26c1.386 1.699 4.521 9.195 1.235 16.221-6.322-2.904-13.608-4.387-21.189-4.019-5.141.233-9.721 1.589-12.675 2.573-7.84 2.559-13.476 2.674-18.086.336 1.872-10.445-2.006-20.18-5.616-24.604-4.079-4.98-6.325-12.001-6.325-19.768s2.246-14.787 6.314-19.755c5.784-7.029 9.926-23.603.461-36.834zm67.939-.011c-5.228-7.321-7.162-14.438-5.933-22.044h52.818c-1.113 10.628 1.838 20.938 8.831 30.766 5.448 7.616 1.693 16.722.155 18.607-6.286 7.676-9.748 18.071-9.748 29.271s3.462 21.596 9.737 29.258c.886 1.087 3.039 5.702 2.626 10.937-9.01 1.723-17.531 6.507-24.065 14.066-.854.992-1.672 2.378-2.718 3.172-.619.47-1.491.368-2.248.35-8.591-.146-16.043 1.592-22.124 5.075-1.451-3.14-3.431-6.024-5.828-8.594 7.427-12.767 3.47-27.855-1.959-34.511-4.088-4.967-6.34-11.981-6.34-19.753s2.252-14.786 6.362-19.779c5.742-7.039 9.852-23.61.434-36.821zm-242.825 129.523c-1.833-2.783-2.762-6.842-2.762-12.063 0-10.699 6.21-19.374 18.461-25.785 9.42-4.937 10.544-10.759 11.632-16.39.126-.652.259-1.342.41-2.054 3.621-16.809 17.625-28.548 34.055-28.548 13.129 0 24.697 7.471 30.665 19.037 1.511 2.929 3.302 6.515 3.82 11.621 1.104 5.61 2.248 11.411 11.639 16.332 12.25 6.425 18.462 15.101 18.462 25.786 0 5.194-.936 9.262-2.755 12.053-7.74 11.717-4.053 25.032-2.846 29.391.65 2.368 1.035 4.325 1.198 6.105h-52.682v-15.063l21.696-16.737c3.279-2.53 3.888-7.24 1.357-10.52s-7.241-3.886-10.52-1.357l-12.534 9.669v-26.977c0-4.143-3.357-7.5-7.5-7.5s-7.5 3.357-7.5 7.5v26.977l-12.534-9.669c-3.278-2.53-7.989-1.923-10.52 1.357-2.53 3.279-1.922 7.989 1.357 10.52l21.696 16.737v15.063h-52.677c.208-2.171.716-4.265 1.215-6.087 1.21-4.363 4.889-17.643-2.833-29.398zm245.772 248.368h-51.938c-4.143 0-7.5 3.357-7.5 7.5s3.357 7.5 7.5 7.5h45.989v28.512h-132.203v-28.512h49.477c4.143 0 7.5-3.357 7.5-7.5s-3.357-7.5-7.5-7.5h-55.426c-47.726-20.132-83.714-58.414-101.332-104.934h346.767c-17.62 46.52-53.608 84.802-101.334 104.934zm136.492-188.118c0 5.367-4.367 9.734-9.734 9.734h-181.758c-4.143 0-7.5 3.357-7.5 7.5s3.357 7.5 7.5 7.5h168.207c-.594 14.926-2.949 29.49-6.911 43.45h-356.694c-3.962-13.96-6.316-28.524-6.91-43.45h167.697c4.143 0 7.5-3.357 7.5-7.5s-3.357-7.5-7.5-7.5h-181.248c-5.367 0-9.734-4.367-9.734-9.734 0-5.384 4.367-9.764 9.734-9.764h397.617c5.367 0 9.734 4.38 9.734 9.764zm-61.242-75.571c10.726 5.874 15.651 18.558 11.978 30.847-.167.561-.334 1.082-.492 1.575-1.711 5.354-2.648 10.01 2.034 17.091.288.432.563.863.828 1.294h-57.334c-3.181-12.302-10.793-24.026-20.843-31.663-.137-.104-.286-.218-.44-.335 3.867-2.509 8.97-3.721 15.234-3.63 9.186.182 12.579-3.879 15.575-7.483.325-.392.669-.805 1.038-1.233 8.373-9.687 21.702-12.342 32.422-6.463zm126.156-112.751-138.201-4.156c-3.858-6.386-5.217-12.676-4.139-19.338h142.341v23.494zm0-38.495h-325.442v-13.651l325.442-9.815z"/></g></svg>